<svg width="80" height="80" viewBox="0 0 80 80" fill="none" xmlns="http://www.w3.org/2000/svg">
<rect x="0.5" y="0.5" width="79" height="79" fill="#FAFAFA"/>
<rect x="0.5" y="0.5" width="79" height="79" stroke="#E3E3E3"/>
<path fill-rule="evenodd" clip-rule="evenodd" d="M36.6667 27.3333H34.6667C34.0914 27.3333 33.7862 26.6537 34.1684 26.2238L39.5017 20.2238C39.7669 19.9254 40.2331 19.9254 40.4983 20.2238L45.8316 26.2238C46.2138 26.6537 45.9086 27.3333 45.3333 27.3333H43.3333V35.3333C43.3333 35.7015 43.0349 36 42.6667 36H37.3333C36.9651 36 36.6667 35.7015 36.6667 35.3333V27.3333ZM36.1512 26H37.3333C37.7015 26 38 26.2985 38 26.6667V34.6667H42V26.6667C42 26.2985 42.2985 26 42.6667 26H43.8488L40 21.6701L36.1512 26ZM31.3333 35.3333V38.6667H48.6667V35.3333C48.6667 34.9651 48.9651 34.6667 49.3333 34.6667C49.7015 34.6667 50 34.9651 50 35.3333V39.3333C50 39.7015 49.7015 40 49.3333 40H30.6667C30.2985 40 30 39.7015 30 39.3333V35.3333C30 34.9651 30.2985 34.6667 30.6667 34.6667C31.0349 34.6667 31.3333 34.9651 31.3333 35.3333Z" fill="#4D148C"/>
<path d="M13.316 59.652V54.6H15.296V59.484C15.296 60.82 15.844 61.488 16.94 61.488C18.036 61.488 18.584 60.82 18.584 59.484V54.6H20.564V59.652C20.564 60.764 20.24 61.632 19.592 62.256C18.952 62.88 18.048 63.192 16.88 63.192C15.744 63.192 14.864 62.888 14.24 62.28C13.624 61.664 13.316 60.788 13.316 59.652ZM26.0568 60.168H24.9168V63H22.9968V54.6H26.0568C26.7208 54.6 27.2968 54.716 27.7848 54.948C28.2728 55.172 28.6488 55.492 28.9128 55.908C29.1848 56.324 29.3208 56.816 29.3208 57.384C29.3208 57.952 29.1848 58.444 28.9128 58.86C28.6488 59.276 28.2728 59.6 27.7848 59.832C27.2968 60.056 26.7208 60.168 26.0568 60.168ZM25.8768 58.62C26.3408 58.62 26.6968 58.512 26.9448 58.296C27.1928 58.08 27.3168 57.776 27.3168 57.384C27.3168 56.984 27.1928 56.68 26.9448 56.472C26.6968 56.256 26.3408 56.148 25.8768 56.148H24.9168V58.62H25.8768ZM31.364 63V54.6H33.344V61.296H37.388L37.184 63H31.364ZM42.6979 63.192C42.0499 63.192 41.4539 63.084 40.9099 62.868C40.3739 62.652 39.9059 62.348 39.5059 61.956C39.1139 61.564 38.8099 61.1 38.5939 60.564C38.3779 60.028 38.2699 59.44 38.2699 58.8C38.2699 58.16 38.3779 57.572 38.5939 57.036C38.8099 56.5 39.1139 56.036 39.5059 55.644C39.9059 55.252 40.3739 54.948 40.9099 54.732C41.4539 54.516 42.0499 54.408 42.6979 54.408C43.3459 54.408 43.9379 54.516 44.4739 54.732C45.0179 54.948 45.4859 55.252 45.8779 55.644C46.2779 56.036 46.5859 56.5 46.8019 57.036C47.0179 57.572 47.1259 58.16 47.1259 58.8C47.1259 59.44 47.0179 60.028 46.8019 60.564C46.5859 61.1 46.2779 61.564 45.8779 61.956C45.4859 62.348 45.0179 62.652 44.4739 62.868C43.9379 63.084 43.3459 63.192 42.6979 63.192ZM42.6979 61.488C43.1699 61.488 43.5819 61.376 43.9339 61.152C44.2939 60.928 44.5739 60.616 44.7739 60.216C44.9739 59.808 45.0739 59.336 45.0739 58.8C45.0739 58.264 44.9739 57.796 44.7739 57.396C44.5739 56.996 44.2939 56.684 43.9339 56.46C43.5819 56.228 43.1699 56.112 42.6979 56.112C42.2259 56.112 41.8099 56.228 41.4499 56.46C41.0979 56.684 40.8219 56.996 40.6219 57.396C40.4219 57.796 40.3219 58.264 40.3219 58.8C40.3219 59.336 40.4219 59.808 40.6219 60.216C40.8219 60.616 41.0979 60.928 41.4499 61.152C41.8099 61.376 42.2259 61.488 42.6979 61.488ZM50.2513 63H48.1633L51.4873 54.6H53.5153L56.8393 63H54.6793L54.0673 61.224H50.8633L50.2513 63ZM51.4273 59.604H53.5033L52.4713 56.616L51.4273 59.604ZM61.9467 63H58.5867V54.6H61.9467C62.8587 54.6 63.6467 54.772 64.3107 55.116C64.9747 55.452 65.4867 55.936 65.8467 56.568C66.2067 57.192 66.3867 57.936 66.3867 58.8C66.3867 59.664 66.2067 60.412 65.8467 61.044C65.4867 61.668 64.9747 62.152 64.3107 62.496C63.6467 62.832 62.8587 63 61.9467 63ZM61.7667 61.32C62.5987 61.32 63.2347 61.104 63.6747 60.672C64.1147 60.232 64.3347 59.608 64.3347 58.8C64.3347 57.992 64.1147 57.372 63.6747 56.94C63.2347 56.5 62.5987 56.28 61.7667 56.28H60.5427V61.32H61.7667Z" fill="#333333"/>
</svg>
