<svg width="24" height="24" viewBox="0 0 24 24" fill="none" xmlns="http://www.w3.org/2000/svg">
<path d="M16.495 11.1833C19.4821 11.1833 21.9033 13.6048 21.9033 16.5917C21.9033 19.5792 19.4825 22 16.495 22C13.5075 22 11.0866 19.5792 11.0866 16.5917C11.0866 13.6048 13.5078 11.1833 16.495 11.1833ZM16.495 12.1833C14.0601 12.1833 12.0866 14.1571 12.0866 16.5917C12.0866 19.0269 14.0597 21 16.495 21C18.9302 21 20.9033 19.0269 20.9033 16.5917C20.9033 14.1571 18.9298 12.1833 16.495 12.1833ZM16.495 13.6375C16.7711 13.6375 16.995 13.8614 16.995 14.1375L16.9945 16.0915L18.9491 16.0917C19.2253 16.0917 19.4491 16.3155 19.4491 16.5917C19.4491 16.8678 19.2253 17.0917 18.9491 17.0917L16.9945 17.0915L16.995 19.0458C16.995 19.322 16.7711 19.5458 16.495 19.5458C16.2188 19.5458 15.995 19.322 15.995 19.0458L15.9945 17.0915L14.0408 17.0917C13.7647 17.0917 13.5408 16.8678 13.5408 16.5917C13.5408 16.3155 13.7647 16.0917 14.0408 16.0917L15.9945 16.0915L15.995 14.1375C15.995 13.8614 16.2188 13.6375 16.495 13.6375ZM8.95827 2C10.6151 2 11.9583 3.34315 11.9583 5H14.0338C14.5551 5 14.9889 5.40041 15.0306 5.92001C15.1058 6.85644 15.1395 7.27622 15.1693 7.64851L15.1804 7.78681C15.2007 8.03963 15.2214 8.29773 15.2548 8.71356C15.3186 9.50932 15.3186 9.50932 15.3343 9.70407C15.3564 9.97933 15.1511 10.2204 14.8759 10.2425C14.6006 10.2646 14.3596 10.0593 14.3375 9.78406C14.3219 9.58931 14.3219 9.58931 14.258 8.79355C14.2277 8.41552 14.2078 8.16785 14.1892 7.936L14.1781 7.79786C14.1467 7.40666 14.1137 6.99496 14.0338 6H3.88272L3 17H9.66363C9.93977 17 10.1636 17.2239 10.1636 17.5C10.1636 17.7761 9.93977 18 9.66363 18H3C2.44772 18 2 17.5523 2 17C2.00053 16.96 2.00053 16.96 2.0032 16.92L2.88592 5.92001C2.92762 5.40041 3.36145 5 3.88272 5H5.95827C5.95827 3.34315 7.30141 2 8.95827 2ZM8.95827 3C7.8537 3 6.95827 3.89543 6.95827 5H10.9583C10.9583 3.89543 10.0628 3 8.95827 3Z" fill="#4D148C"/>
</svg>
