<svg width="88" height="88" viewBox="0 0 88 88" fill="none" xmlns="http://www.w3.org/2000/svg">
<path d="M60.4814 41.0043C71.4344 41.0043 80.312 49.883 80.312 60.8348C80.312 71.789 71.4356 80.6654 60.4814 80.6654C49.5273 80.6654 40.6509 71.789 40.6509 60.8348C40.6509 49.883 49.5284 41.0043 60.4814 41.0043ZM60.4814 44.6709C51.5536 44.6709 44.3176 51.908 44.3176 60.8348C44.3176 69.764 51.5523 76.9987 60.4814 76.9987C69.4106 76.9987 76.6453 69.764 76.6453 60.8348C76.6453 51.908 69.4093 44.6709 60.4814 44.6709ZM60.4814 50.0029C61.494 50.0029 62.3148 50.8237 62.3148 51.8362L62.3131 59.0009L69.4801 59.0015C70.4926 59.0015 71.3134 59.8223 71.3134 60.8348C71.3134 61.8473 70.4926 62.6681 69.4801 62.6681L62.3131 62.6675L62.3148 69.8334C62.3148 70.8459 61.494 71.6667 60.4814 71.6667C59.4689 71.6667 58.6481 70.8459 58.6481 69.8334L58.6464 62.6675L51.4828 62.6681C50.4703 62.6681 49.6495 61.8473 49.6495 60.8348C49.6495 59.8223 50.4703 59.0015 51.4828 59.0015L58.6464 59.0009L58.6481 51.8362C58.6481 50.8237 59.4689 50.0029 60.4814 50.0029ZM32.8469 7.33203C38.922 7.33203 43.8469 12.2569 43.8469 18.332H51.4573C53.3686 18.332 54.9593 19.8002 55.1122 21.7054C55.3877 25.139 55.5112 26.6782 55.6208 28.0432L55.6615 28.5503C55.7359 29.4774 55.8118 30.4237 55.9341 31.9484C56.1683 34.8662 56.1683 34.8662 56.2256 35.5803C56.3066 36.5896 55.5541 37.4734 54.5448 37.5544C53.5355 37.6354 52.6517 36.8829 52.5707 35.8736C52.5134 35.1595 52.5134 35.1595 52.2792 32.2417C52.168 30.8556 52.0951 29.9475 52.0269 29.0973L51.9863 28.5909C51.8712 27.1565 51.75 25.6469 51.4573 21.9987H14.2365L10.9999 62.332H35.4332C36.4457 62.332 37.2665 63.1528 37.2665 64.1654C37.2665 65.1779 36.4457 65.9987 35.4332 65.9987H10.9999C8.97487 65.9987 7.33325 64.3571 7.33325 62.332C7.33521 62.1852 7.33521 62.1852 7.345 62.0387L10.5816 21.7054C10.7345 19.8002 12.3252 18.332 14.2365 18.332H21.8469C21.8469 12.2569 26.7718 7.33203 32.8469 7.33203ZM32.8469 10.9987C28.7968 10.9987 25.5136 14.2819 25.5136 18.332H40.1802C40.1802 14.2819 36.897 10.9987 32.8469 10.9987Z" fill="#333333"/>
</svg>
