<svg width="40" height="40" viewBox="0 0 40 40" fill="none" xmlns="http://www.w3.org/2000/svg">
<g id="Secure">
<rect id="Icon Container" opacity="0.01" width="40" height="40" fill="#4D148C"/>
<path id="Union" d="M20.045 7.08325C20.2663 7.08325 20.4786 7.17132 20.6349 7.32804C21.5135 8.20874 23.1736 9.14178 25.3637 10.0522C26.6216 10.5751 27.9739 11.0583 29.3268 11.4891C29.8006 11.6399 30.2404 11.7734 30.6346 11.8879C30.8697 11.9562 31.0363 12.0028 31.1229 12.0261C31.4865 12.1242 31.7392 12.4541 31.7392 12.8307C31.7392 18.6571 31.3936 21.8958 30.1138 25.0014C28.4789 28.9686 25.382 31.8251 20.3257 33.698C20.139 33.7672 19.9336 33.7672 19.7468 33.698C14.6905 31.8251 11.5936 28.9686 9.95873 25.0014C8.67892 21.8958 8.33337 18.6571 8.33337 12.8307C8.33337 12.4541 8.58603 12.1242 8.94969 12.0261C8.97854 12.0184 9.01627 12.008 9.06248 11.9951L9.22606 11.9489C9.28876 11.9311 9.35951 11.9107 9.43786 11.8879C9.83196 11.7734 10.2717 11.64 10.7455 11.4891C12.0981 11.0585 13.4502 10.5754 14.7079 10.0525C16.8981 9.142 18.5581 8.20889 19.4364 7.32816C19.5928 7.17137 19.8051 7.08325 20.0265 7.08325H20.045ZM20.0359 9.02325L19.8848 9.14433C18.7939 9.98851 17.25 10.8006 15.3477 11.5915C14.0413 12.1346 12.6459 12.6332 11.2511 13.0773C10.8609 13.2015 10.4928 13.3144 10.1527 13.4151L10.0009 13.4591L10.003 13.7198C10.037 18.6355 10.3715 21.5099 11.4065 24.1353L11.4997 24.3663C12.952 27.8905 15.6936 30.4193 20.3257 32.1351L20.0359 32.0249L20.1183 31.9942C24.4038 30.3294 27.0121 27.9328 28.4523 24.6499L28.5729 24.3663C29.6811 21.6772 30.0346 18.7801 30.0695 13.7198L30.0709 13.4591L29.9197 13.4151C29.6646 13.3395 29.3937 13.2571 29.1096 13.1682L28.8211 13.0772C27.4261 12.633 26.0306 12.1344 24.7239 11.5912C22.8217 10.8004 21.2779 9.9884 20.1869 9.14435L20.0359 9.02325ZM20.0363 13.0615C22.2968 13.0615 24.1305 14.8947 24.1305 17.1557L24.13 17.4091L24.9276 17.4093C25.3878 17.4093 25.7609 17.7824 25.7609 18.2427V25.8514C25.7609 26.3116 25.3878 26.6847 24.9276 26.6847H15.145C14.6847 26.6847 14.3116 26.3116 14.3116 25.8514V18.2427C14.3116 17.7824 14.6847 17.4093 15.145 17.4093L15.9417 17.4091L15.9421 17.1557C15.9421 14.8947 17.7757 13.0615 20.0363 13.0615ZM24.0941 19.076H15.9783V25.0177H24.0941V19.076ZM20.0363 19.9999C20.7965 19.9999 21.4131 20.6165 21.4131 21.3767C21.4131 21.8321 21.1919 22.2359 20.8512 22.4865L20.8332 23.3498C20.8241 23.8099 20.4437 24.1755 19.9835 24.1664C19.5234 24.1573 19.1578 23.7769 19.1669 23.3168L19.1834 22.4575C18.8643 22.2054 18.6595 21.8149 18.6595 21.3767C18.6595 20.6165 19.276 19.9999 20.0363 19.9999ZM20.0363 14.7282C18.6961 14.7282 17.6087 15.8153 17.6087 17.1557L17.6084 17.4091H22.4634L22.4638 17.1557C22.4638 15.8153 21.3765 14.7282 20.0363 14.7282Z" fill="#4D148C"/>
</g>
</svg>
