<svg width="72" height="72" viewBox="0 0 72 72" fill="none" xmlns="http://www.w3.org/2000/svg">
<g id="Lock">
<rect width="72" height="72" fill="#E3E3E3"/>
<rect id="Icon Container" opacity="0.01" width="72" height="72" fill="white"/>
<path id="Union" fill-rule="evenodd" clip-rule="evenodd" d="M24.7105 25.92C24.7105 19.8883 29.7642 15 36 15C42.2358 15 47.2895 19.8883 47.2895 25.92V30.12H50.7632C51.7224 30.12 52.5 30.8722 52.5 31.8V55.32C52.5 56.2478 51.7224 57 50.7632 57H21.2368C20.2776 57 19.5 56.2478 19.5 55.32V31.8C19.5 30.8722 20.2776 30.12 21.2368 30.12H24.7105V25.92ZM28.1842 30.12H43.8158V25.92C43.8158 21.744 40.3173 18.36 36 18.36C31.6827 18.36 28.1842 21.744 28.1842 25.92V30.12ZM45.5526 33.48H26.4474H22.9737V53.64H49.0263V33.48H45.5526ZM34.2632 42.9176C33.7302 42.4559 33.3947 41.7853 33.3947 41.04C33.3947 39.6469 34.5613 38.52 36 38.52C37.4387 38.52 38.6053 39.6469 38.6053 41.04C38.6053 41.7853 38.2698 42.4559 37.7368 42.9176V46.92C37.7368 47.8478 36.9592 48.6 36 48.6C35.0408 48.6 34.2632 47.8478 34.2632 46.92V42.9176Z" fill="#333333"/>
</g>
</svg>
