<svg width="24" height="24" viewBox="0 0 24 24" fill="none" xmlns="http://www.w3.org/2000/svg">
<g id="Location">
<rect id="Icon Container" opacity="0.01" width="24" height="24" fill="white"/>
<path id="Union" fill-rule="evenodd" clip-rule="evenodd" d="M10.7702 18.1838L10.7703 18.1839C11.1431 18.6831 11.4823 19.1372 11.5946 19.2927C11.7942 19.5691 12.2058 19.5691 12.4054 19.2927C12.5176 19.1372 12.8567 18.6833 13.2295 18.1843L13.2298 18.1838L13.2298 18.1838L13.2298 18.1838C13.676 17.5865 14.1703 16.9247 14.3816 16.633C15.2122 15.4862 15.8467 14.5129 16.3483 13.5751C17.0968 12.1757 17.5 10.9339 17.5 9.81654C17.5 6.87564 15.0337 4.5 12 4.5C8.96627 4.5 6.5 6.87564 6.5 9.81654C6.5 10.9339 6.90319 12.1757 7.65168 13.5751C8.15334 14.5129 8.78785 15.4862 9.61844 16.633C9.82971 16.9247 10.324 17.5865 10.7702 18.1838ZM15.4665 13.1034C14.9898 13.9947 14.378 14.9331 13.5717 16.0464C13.3667 16.3294 12.8828 16.9773 12.4401 17.5699C12.2835 17.7796 12.1321 17.9823 12 18.1596C11.8679 17.9823 11.7165 17.7796 11.5599 17.5699C11.1172 16.9773 10.6333 16.3294 10.4283 16.0464C9.622 14.9331 9.01019 13.9947 8.53346 13.1034C7.85565 11.8362 7.5 10.7408 7.5 9.81654C7.5 7.43648 9.51035 5.5 12 5.5C14.4896 5.5 16.5 7.43648 16.5 9.81654C16.5 10.7408 16.1444 11.8362 15.4665 13.1034ZM12 12C10.8954 12 10 11.1046 10 10C10 8.89543 10.8954 8 12 8C13.1046 8 14 8.89543 14 10C14 11.1046 13.1046 12 12 12ZM13 10C13 10.5523 12.5523 11 12 11C11.4477 11 11 10.5523 11 10C11 9.44772 11.4477 9 12 9C12.5523 9 13 9.44772 13 10Z" fill="#333333"/>
</g>
</svg>
