<svg xmlns="http://www.w3.org/2000/svg" viewBox="0 0 24 24" height="24" width="24"><g xmlns="http://www.w3.org/2000/svg" transform="matrix(-1 0 0 -1 24 24)"><g id="Arrow/Down"><rect id="Icon Container" opacity="0.01" width="24" height="24" fill="white" /><path id="Union" fill-rule="evenodd" clip-rule="evenodd" d="M12.0059 20C12.1764 19.9979 12.3263 19.9048 12.4151 19.7641L17.35 14.87C17.5373 14.6842 17.5511 14.368 17.3808 14.1637C17.2105 13.9593 16.9207 13.9443 16.7334 14.13L12.5 18.3284V4.53333C12.5 4.23878 12.2761 4 12 4C11.7239 4 11.5 4.23878 11.5 4.53333V18.3284L7.26665 14.13C7.07934 13.9443 6.78947 13.9593 6.6192 14.1637C6.44892 14.368 6.46273 14.6842 6.65003 14.87L11.5849 19.764C11.6736 19.9048 11.8237 19.9979 11.9942 20C11.9961 20 11.9981 20 12 20C12.002 20 12.0039 20 12.0059 20Z" fill="#333333" /></g></g></svg>