<svg width="24" height="24" viewBox="0 0 24 24" fill="none" xmlns="http://www.w3.org/2000/svg">
<path fill-rule="evenodd" clip-rule="evenodd" d="M11.5312 11.5312V5C11.5312 4.72386 11.7411 4.5 12 4.5C12.2589 4.5 12.4688 4.72386 12.4688 5V11.5312H19C19.2761 11.5312 19.5 11.7411 19.5 12C19.5 12.2589 19.2761 12.4688 19 12.4688H12.4688V19C12.4688 19.2761 12.2589 19.5 12 19.5C11.7411 19.5 11.5312 19.2761 11.5312 19V12.4688H5C4.72386 12.4688 4.5 12.2589 4.5 12C4.5 11.7411 4.72386 11.5312 5 11.5312H11.5312Z" fill="#333333"/>
</svg>
