<svg width="48" height="48" viewBox="0 0 48 48" fill="none" xmlns="http://www.w3.org/2000/svg">
<g id="Actions">
<path id="Union" fill-rule="evenodd" clip-rule="evenodd" d="M24 33C25.656 33 27 34.344 27 36C27 37.656 25.656 39 24 39C22.344 39 21 37.656 21 36C21 34.344 22.344 33 24 33ZM24 21C25.656 21 27 22.344 27 24C27 25.656 25.656 27 24 27C22.344 27 21 25.656 21 24C21 22.344 22.344 21 24 21ZM27 12C27 10.344 25.656 9 24 9C22.344 9 21 10.344 21 12C21 13.656 22.344 15 24 15C25.656 15 27 13.656 27 12Z" fill="#333333"/>
</g>
</svg>
