<svg width="36" height="36" viewBox="0 0 36 36" fill="none" xmlns="http://www.w3.org/2000/svg">
<g id="_Illustrative/Custom Documents">
<rect id="Icon Container" opacity="0.01" width="36" height="36" fill="white"/>
<g id="Group">
<g id="Pages">
<g id="Back Page">
<rect id="Stroke" x="8.25" y="5.25" width="15" height="20.25" fill="#333333"/>
<path id="Fill" d="M9 6V24.75H22.5V6H9Z" fill="#F2F2F2"/>
</g>
<g id="Middle Page">
<rect id="Stroke_2" x="10.5" y="7.5" width="15" height="20.25" fill="#333333"/>
<path id="Fill_2" d="M11.25 8.25V27H24.75V8.25H11.25Z" fill="#F2F2F2"/>
</g>
<g id="Top Page">
<rect id="Stroke_3" x="12.75" y="9.75" width="15" height="20.25" fill="#333333"/>
<path id="Fill_3" d="M13.5 10.5V29.25H27V10.5H13.5Z" fill="#F2F2F2"/>
</g>
</g>
<g id="Wrench">
<path id="Wrench path united" fill-rule="evenodd" clip-rule="evenodd" d="M23.6674 17.6053L25.1686 16.1092C25.3744 15.9041 25.7203 15.9588 25.8527 16.2174C26.5629 17.605 26.3085 19.3119 25.1896 20.431C24.1475 21.4728 22.5981 21.7641 21.269 21.2248L16.6569 25.8362C16.1058 26.3878 15.2132 26.3878 14.6627 25.8368C14.1109 25.2866 14.1133 24.3924 14.6649 23.8417L19.2824 19.2296C18.7454 17.9036 19.0436 16.3538 20.0878 15.31C21.2063 14.1924 22.9292 13.937 24.3172 14.6467C24.5742 14.7781 24.6304 15.1208 24.4289 15.3274L22.9642 16.8292V17.6053H23.6674ZM25.3067 17.1816L24.147 18.3374C24.0667 18.4175 23.9579 18.4624 23.8445 18.4624H22.5357C22.299 18.4624 22.1071 18.2706 22.1071 18.0339V16.6548C22.1071 16.543 22.1508 16.4356 22.2289 16.3556L23.3606 15.1952C22.4268 14.9547 21.4002 15.2103 20.6937 15.9162C19.8369 16.7727 19.6375 18.0733 20.1772 19.1273C20.262 19.2929 20.2302 19.4943 20.0986 19.6258L15.2705 24.4482C15.0536 24.6648 15.0526 25.0152 15.2685 25.2304C15.4848 25.4469 15.8342 25.4469 16.0507 25.2303L20.8732 20.4084C21.0047 20.277 21.2059 20.2453 21.3714 20.33C22.4305 20.8717 23.7302 20.678 24.5835 19.825C25.2883 19.1201 25.5437 18.1088 25.3067 17.1816Z" fill="#333333"/>
</g>
</g>
</g>
</svg>
