<svg width="24" height="24" viewBox="0 0 24 24" fill="none" xmlns="http://www.w3.org/2000/svg">
<path fill-rule="evenodd" clip-rule="evenodd" d="M17.1653 7.74648C17.0779 7.59523 16.9157 7.5 16.7381 7.5H6.28629H4.49332L4.43579 7.50332C4.19044 7.53182 4 7.74033 4 7.99332L4.00332 8.05085C4.03182 8.2962 4.24033 8.48664 4.49332 8.48664L5.79297 8.48662V14.6508H4.87833L4.8208 14.6541C4.57545 14.6826 4.38501 14.8911 4.38501 15.1441C4.38501 15.4165 4.60588 15.6374 4.87833 15.6374H7.57632C7.79772 16.5454 8.61649 17.2194 9.59267 17.2194C10.5689 17.2194 11.3876 16.5454 11.609 15.6374H14.1555C14.3738 16.5412 15.1946 17.2194 16.1738 17.2194C17.1576 17.2194 17.9814 16.5349 18.1952 15.6163H18.9793L19.0522 15.6137C19.5819 15.5763 20 15.1348 20 14.5956V12.7763L19.9961 12.7142C19.9805 12.5913 19.9191 12.4779 19.8228 12.3976L18.8247 11.5646C18.8096 11.536 18.7916 11.5091 18.7713 11.4841L17.1915 7.79892L17.1653 7.74648ZM17.1205 10.1373L17.6201 11.3022H16.0555V10.1373H17.1205ZM15.0688 10.1373V11.3022H13.9854L13.9721 11.2995C13.9599 11.2943 13.9514 11.2823 13.9514 11.2682V10.1713L13.954 10.158C13.9592 10.1458 13.9713 10.1373 13.9854 10.1373H15.0688ZM15.5622 9.15063H13.9854L13.9125 9.1532C13.3828 9.19057 12.9647 9.63211 12.9647 10.1713V11.2682L12.9673 11.341C13.0047 11.8707 13.4462 12.2888 13.9854 12.2888H18.1531L19.0134 13.0067V14.5956L19.0107 14.6089C19.0055 14.6211 18.9934 14.6296 18.9793 14.6296H18.1849C17.9566 13.7344 17.1463 13.0718 16.1807 13.0687C15.6245 13.0551 15.0869 13.2701 14.6934 13.6636C14.4199 13.9371 14.2326 14.2802 14.1484 14.6508H11.609C11.3876 13.7427 10.5689 13.0687 9.59267 13.0687C8.61648 13.0687 7.7977 13.7427 7.57632 14.6508H6.7796V8.4866L16.4126 8.48645L16.6974 9.15063H15.5622ZM17.2581 15.0453C17.2541 15.0706 17.252 15.0965 17.252 15.123C17.252 15.1539 17.2549 15.1842 17.2604 15.2136C17.2245 15.7824 16.7518 16.2327 16.1738 16.2327C15.5726 16.2327 15.0851 15.7453 15.0851 15.144C15.0769 14.8428 15.1877 14.5647 15.3911 14.3613C15.5944 14.1579 15.8726 14.0472 16.1601 14.0552L16.1738 14.0553C16.7418 14.0553 17.2082 14.4903 17.2581 15.0453ZM9.59267 16.2328C10.1738 16.2328 10.6486 15.7774 10.6798 15.204C10.6774 15.1844 10.6761 15.1644 10.6761 15.1441C10.6761 15.1238 10.6774 15.1038 10.6798 15.0841C10.6486 14.5107 10.1738 14.0554 9.59267 14.0554C8.9914 14.0554 8.50397 14.5428 8.50397 15.1441C8.50397 15.7453 8.9914 16.2328 9.59267 16.2328Z" fill="#4D148C"/>
</svg>
