<svg width="36" height="37" viewBox="0 0 36 37" fill="none" xmlns="http://www.w3.org/2000/svg">
    <rect opacity="0.01" y="0.0640869" width="36" height="36" fill="white"/>
    <path fill-rule="evenodd" clip-rule="evenodd" d="M25.7479 11.6838C25.6169 11.4569 25.3736 11.3141 25.1072 11.3141H9.42943H6.73998L6.65368 11.3191C6.28566 11.3618 6 11.6746 6 12.0541L6.00498 12.1404C6.04772 12.5084 6.36049 12.794 6.73998 12.794L8.68945 12.794V22.0402H7.31749L7.23119 22.0452C6.86318 22.0879 6.57751 22.4007 6.57751 22.7802C6.57751 23.1889 6.90881 23.5202 7.31749 23.5202H11.3645C11.6966 24.8822 12.9247 25.8932 14.389 25.8932C15.8533 25.8932 17.0814 24.8822 17.4135 23.5202H21.2333C21.5606 24.8758 22.7919 25.8932 24.2607 25.8932C25.7364 25.8932 26.9722 24.8665 27.2928 23.4885H28.469L28.5784 23.4846C29.3729 23.4286 30 22.7663 30 21.9575V19.2285L29.9941 19.1354C29.9707 18.9511 29.8786 18.781 29.7343 18.6605L28.2371 17.4111C28.2143 17.3681 28.1875 17.3277 28.157 17.2903L25.7873 11.7625L25.7479 11.6838ZM25.6808 15.27L26.4301 17.0174H24.0832V15.27H25.6808ZM22.6033 15.27V17.0174H20.9781L20.9582 17.0133C20.9399 17.0056 20.927 16.9875 20.927 16.9663V15.321L20.931 15.3012C20.9388 15.2828 20.9569 15.27 20.9781 15.27H22.6033ZM23.3432 13.79H20.9781L20.8687 13.7939C20.0742 13.8499 19.4471 14.5122 19.4471 15.321V16.9663L19.4509 17.0757C19.507 17.8702 20.1693 18.4973 20.9781 18.4973H27.2297L28.52 19.5742V21.9575L28.516 21.9774C28.5083 21.9957 28.4902 22.0085 28.469 22.0085H27.2774C26.9349 20.6657 25.7194 19.6718 24.271 19.6672C23.4367 19.6468 22.6304 19.9692 22.0401 20.5595C21.6298 20.9698 21.349 21.4844 21.2227 22.0402H17.4135C17.0815 20.6782 15.8533 19.6672 14.389 19.6672C12.9247 19.6672 11.6966 20.6782 11.3645 22.0402H10.1694V12.794L24.6189 12.7938L25.0461 13.79H23.3432ZM25.8872 22.6321C25.8812 22.67 25.8781 22.7089 25.8781 22.7485C25.8781 22.7949 25.8823 22.8404 25.8905 22.8844C25.8368 23.7377 25.1276 24.4132 24.2607 24.4132C23.3588 24.4132 22.6277 23.6821 22.6277 22.7802C22.6154 22.3283 22.7815 21.9111 23.0866 21.606C23.3917 21.3009 23.8089 21.1348 24.2402 21.1468L24.2607 21.1471C25.1128 21.1471 25.8124 21.7996 25.8872 22.6321ZM14.389 21.1471C15.2608 21.1471 15.973 21.8302 16.0196 22.6903C16.0161 22.7198 16.0142 22.7498 16.0142 22.7802C16.0142 22.8106 16.0161 22.8406 16.0196 22.8701C15.973 23.7302 15.2608 24.4132 14.389 24.4132C13.4871 24.4132 12.756 23.6821 12.756 22.7802C12.756 21.8783 13.4871 21.1471 14.389 21.1471Z" fill="#4D148C"/>
</svg>

