<svg width="48" height="48" viewBox="0 0 48 48" fill="none" xmlns="http://www.w3.org/2000/svg">
<path fill-rule="evenodd" clip-rule="evenodd" d="M19.5 12C20.3284 12 21 11.3284 21 10.5C21 9.67157 20.3284 9 19.5 9C18.6716 9 18 9.67157 18 10.5C18 11.3284 18.6716 12 19.5 12ZM28.5 12C29.3284 12 30 11.3284 30 10.5C30 9.67157 29.3284 9 28.5 9C27.6716 9 27 9.67157 27 10.5C27 11.3284 27.6716 12 28.5 12ZM21 19.5C21 20.3284 20.3284 21 19.5 21C18.6716 21 18 20.3284 18 19.5C18 18.6716 18.6716 18 19.5 18C20.3284 18 21 18.6716 21 19.5ZM28.5 21C29.3284 21 30 20.3284 30 19.5C30 18.6716 29.3284 18 28.5 18C27.6716 18 27 18.6716 27 19.5C27 20.3284 27.6716 21 28.5 21ZM21 28.5C21 29.3284 20.3284 30 19.5 30C18.6716 30 18 29.3284 18 28.5C18 27.6716 18.6716 27 19.5 27C20.3284 27 21 27.6716 21 28.5ZM28.5 30C29.3284 30 30 29.3284 30 28.5C30 27.6716 29.3284 27 28.5 27C27.6716 27 27 27.6716 27 28.5C27 29.3284 27.6716 30 28.5 30ZM21 37.5C21 38.3284 20.3284 39 19.5 39C18.6716 39 18 38.3284 18 37.5C18 36.6716 18.6716 36 19.5 36C20.3284 36 21 36.6716 21 37.5ZM28.5 39C29.3284 39 30 38.3284 30 37.5C30 36.6716 29.3284 36 28.5 36C27.6716 36 27 36.6716 27 37.5C27 38.3284 27.6716 39 28.5 39Z" fill="#333333"/>
</svg>
