<?xml version="1.0" encoding="UTF-8"?>
<svg width="48px" height="48px" viewBox="0 0 48 48" version="1.1" xmlns="http://www.w3.org/2000/svg" xmlns:xlink="http://www.w3.org/1999/xlink">
    <title>Icon/Close-Circle/Line</title>
    <g id="Icon/Close-Circle/Line" stroke="none" stroke-width="1" fill="none" fill-rule="evenodd">
        <rect id="Icon-Container" fill="#FFFFFF" opacity="0" x="0" y="0" width="48" height="48"></rect>
        <path d="M24,8 C32.836556,8 40,15.163444 40,24 C40,32.836556 32.836556,40 24,40 C15.163444,40 8,32.836556 8,24 C8,15.163444 15.163444,8 24,8 Z M24,10 C16.2680135,10 10,16.2680135 10,24 C10,31.7319865 16.2680135,38 24,38 C31.7319865,38 38,31.7319865 38,24 C38,16.2680135 31.7319865,10 24,10 Z M17.7071068,16.2928932 L24,22.585 L30.2928932,16.2928932 C30.6834175,15.9023689 31.3165825,15.9023689 31.7071068,16.2928932 C32.0976311,16.6834175 32.0976311,17.3165825 31.7071068,17.7071068 L25.415,24 L31.7071068,30.2928932 C32.0976311,30.6834175 32.0976311,31.3165825 31.7071068,31.7071068 C31.3165825,32.0976311 30.6834175,32.0976311 30.2928932,31.7071068 L24,25.415 L17.7071068,31.7071068 C17.3165825,32.0976311 16.6834175,32.0976311 16.2928932,31.7071068 C15.9023689,31.3165825 15.9023689,30.6834175 16.2928932,30.2928932 L22.585,24 L16.2928932,17.7071068 C15.9023689,17.3165825 15.9023689,16.6834175 16.2928932,16.2928932 C16.6834175,15.9023689 17.3165825,15.9023689 17.7071068,16.2928932 Z" fill="#FFFFFF"></path>
    </g>
</svg>