<?xml version="1.0" encoding="UTF-8"?>
<svg xmlns="http://www.w3.org/2000/svg" xmlns:xlink="http://www.w3.org/1999/xlink" width="360.75pt" height="195pt" viewBox="0 0 360.75 195" version="1.1">
<g id="surface2">
<path style=" stroke:none;fill-rule:nonzero;fill:rgb(30.196078%,7.843137%,54.901961%);fill-opacity:1;" d="M 211.394531 150.917969 C 209.007812 150.917969 206.894531 150.363281 205.050781 149.253906 C 203.207031 148.144531 201.765625 146.613281 200.726562 144.664062 C 199.6875 142.714844 199.167969 140.476562 199.167969 137.949219 C 199.167969 135.398438 199.6875 133.148438 200.726562 131.199219 C 201.765625 129.25 203.207031 127.726562 205.050781 126.628906 C 206.894531 125.53125 209.007812 124.980469 211.394531 124.980469 C 213.804688 124.980469 215.925781 125.53125 217.753906 126.628906 C 219.585938 127.726562 221.019531 129.25 222.058594 131.199219 C 223.097656 133.148438 223.617188 135.398438 223.617188 137.949219 C 223.617188 140.476562 223.097656 142.714844 222.058594 144.664062 C 221.019531 146.613281 219.582031 148.144531 217.753906 149.253906 C 215.921875 150.363281 213.800781 150.917969 211.394531 150.917969 Z M 211.394531 149.109375 C 213.402344 149.109375 215.164062 148.644531 216.675781 147.710938 C 218.1875 146.777344 219.367188 145.472656 220.21875 143.796875 C 221.070312 142.121094 221.492188 140.171875 221.492188 137.949219 C 221.492188 135.730469 221.066406 133.785156 220.21875 132.121094 C 219.367188 130.457031 218.1875 129.152344 216.675781 128.207031 C 215.164062 127.261719 213.402344 126.789062 211.394531 126.789062 C 209.386719 126.789062 207.625 127.261719 206.113281 128.207031 C 204.601562 129.152344 203.421875 130.457031 202.570312 132.121094 C 201.71875 133.785156 201.292969 135.730469 201.292969 137.949219 C 201.292969 140.171875 201.71875 142.121094 202.570312 143.796875 C 203.421875 145.472656 204.601562 146.777344 206.113281 147.710938 C 207.625 148.644531 209.386719 149.109375 211.394531 149.109375 Z M 211.394531 149.109375 "/>
<path style=" stroke:none;fill-rule:nonzero;fill:rgb(30.196078%,7.843137%,54.901961%);fill-opacity:1;" d="M 230.464844 150.351562 L 228.515625 150.351562 L 228.515625 133.945312 L 224.652344 133.945312 L 224.863281 132.386719 L 228.511719 132.386719 L 228.511719 130.226562 C 228.511719 128.078125 228.976562 126.449219 229.910156 125.335938 C 230.84375 124.226562 232.21875 123.671875 234.039062 123.671875 C 235.386719 123.671875 236.648438 124.003906 237.832031 124.664062 L 237.476562 126.328125 C 236.839844 125.949219 236.277344 125.695312 235.792969 125.566406 C 235.308594 125.4375 234.757812 125.371094 234.144531 125.371094 C 231.6875 125.371094 230.460938 126.917969 230.460938 130.011719 L 230.460938 132.386719 L 240.488281 132.386719 L 240.488281 130.226562 C 240.488281 128.078125 240.953125 126.449219 241.886719 125.335938 C 242.820312 124.226562 244.195312 123.671875 246.015625 123.671875 C 247.363281 123.671875 248.625 124.003906 249.808594 124.664062 L 249.453125 126.328125 C 248.816406 125.949219 248.253906 125.695312 247.769531 125.566406 C 247.285156 125.4375 246.734375 125.371094 246.121094 125.371094 C 243.664062 125.371094 242.4375 126.917969 242.4375 130.011719 L 242.4375 132.386719 L 254.414062 132.386719 L 254.414062 150.351562 L 252.464844 150.351562 L 252.46875 133.945312 L 242.441406 133.945312 L 242.441406 150.351562 L 240.492188 150.351562 L 240.492188 133.945312 L 230.464844 133.945312 Z M 253.460938 127.816406 C 253.011719 127.816406 252.644531 127.675781 252.363281 127.390625 C 252.082031 127.105469 251.9375 126.753906 251.9375 126.328125 C 251.9375 125.878906 252.078125 125.511719 252.363281 125.230469 C 252.648438 124.949219 253.011719 124.804688 253.460938 124.804688 C 253.886719 124.804688 254.242188 124.945312 254.523438 125.230469 C 254.808594 125.515625 254.949219 125.882812 254.949219 126.328125 C 254.949219 126.753906 254.808594 127.109375 254.523438 127.390625 C 254.242188 127.671875 253.886719 127.816406 253.460938 127.816406 Z M 253.460938 127.816406 "/>
<path style=" stroke:none;fill-rule:nonzero;fill:rgb(30.196078%,7.843137%,54.901961%);fill-opacity:1;" d="M 256.726562 141.421875 C 256.726562 139.554688 257.117188 137.90625 257.894531 136.480469 C 258.675781 135.050781 259.773438 133.933594 261.191406 133.132812 C 262.609375 132.328125 264.273438 131.929688 266.1875 131.929688 C 267.109375 131.929688 268.03125 132.054688 268.953125 132.300781 C 269.875 132.550781 270.699219 132.875 271.433594 133.273438 L 271.007812 134.9375 C 269.402344 134.0625 267.796875 133.625 266.1875 133.625 C 264.699219 133.625 263.394531 133.9375 262.273438 134.5625 C 261.152344 135.1875 260.285156 136.082031 259.667969 137.238281 C 259.054688 138.394531 258.746094 139.753906 258.746094 141.3125 C 258.746094 143.746094 259.40625 145.652344 260.730469 147.035156 C 262.054688 148.417969 263.882812 149.109375 266.222656 149.109375 C 267.027344 149.109375 267.839844 148.996094 268.667969 148.773438 C 269.496094 148.550781 270.34375 148.199219 271.21875 147.726562 L 271.644531 149.320312 C 270.816406 149.816406 269.925781 150.1875 268.96875 150.4375 C 268.011719 150.683594 267.050781 150.808594 266.082031 150.808594 C 264.167969 150.808594 262.515625 150.425781 261.121094 149.65625 C 259.726562 148.890625 258.644531 147.800781 257.878906 146.398438 C 257.109375 144.996094 256.726562 143.335938 256.726562 141.421875 Z M 256.726562 141.421875 "/>
<path style=" stroke:none;fill-rule:nonzero;fill:rgb(30.196078%,7.843137%,54.901961%);fill-opacity:1;" d="M 287.265625 147.445312 L 287.726562 149.074219 C 285.789062 150.230469 283.605469 150.8125 281.171875 150.8125 C 279.421875 150.8125 277.882812 150.429688 276.546875 149.660156 C 275.210938 148.894531 274.179688 147.800781 273.445312 146.382812 C 272.710938 144.964844 272.347656 143.300781 272.347656 141.386719 C 272.347656 139.519531 272.707031 137.878906 273.429688 136.460938 C 274.148438 135.042969 275.152344 133.933594 276.441406 133.128906 C 277.730469 132.324219 279.199219 131.925781 280.851562 131.925781 C 283.332031 131.925781 285.238281 132.734375 286.574219 134.355469 C 287.910156 135.972656 288.578125 138.246094 288.578125 141.175781 C 288.578125 141.269531 288.578125 141.378906 288.578125 141.496094 C 288.578125 141.613281 288.566406 141.730469 288.542969 141.851562 L 274.261719 141.851562 C 274.378906 144.050781 275.058594 145.816406 276.300781 147.148438 C 277.539062 148.484375 279.210938 149.148438 281.316406 149.148438 C 282.472656 149.148438 283.5 149.019531 284.398438 148.757812 C 285.292969 148.496094 286.25 148.058594 287.265625 147.445312 Z M 280.78125 133.519531 C 279.578125 133.519531 278.5 133.808594 277.554688 134.386719 C 276.609375 134.964844 275.855469 135.761719 275.289062 136.777344 C 274.722656 137.792969 274.390625 138.984375 274.296875 140.355469 L 286.734375 140.355469 C 286.472656 135.800781 284.488281 133.519531 280.78125 133.519531 Z M 280.78125 133.519531 "/>
<path style=" stroke:none;fill-rule:nonzero;fill:rgb(100%,40%,0%);fill-opacity:1;" d="M 320.429688 106.484375 C 320.429688 102.65625 317.710938 99.847656 313.960938 99.847656 C 310.21875 99.847656 307.492188 102.65625 307.492188 106.484375 C 307.492188 110.3125 310.214844 113.121094 313.960938 113.121094 C 317.714844 113.117188 320.429688 110.3125 320.429688 106.484375 Z M 312.265625 106.824219 L 312.265625 111.164062 L 310.859375 111.164062 L 310.859375 101.589844 L 314.347656 101.589844 C 316.386719 101.589844 317.328125 102.484375 317.328125 104.226562 C 317.328125 105.292969 316.601562 106.144531 315.667969 106.265625 L 315.667969 106.3125 C 316.472656 106.441406 316.773438 107.164062 316.945312 108.484375 C 317.074219 109.332031 317.246094 110.824219 317.542969 111.164062 L 315.882812 111.164062 C 315.5 110.269531 315.539062 108.992188 315.242188 107.929688 C 314.992188 107.121094 314.5625 106.820312 313.628906 106.820312 L 312.265625 106.820312 Z M 314.007812 105.589844 C 315.371094 105.589844 315.753906 104.867188 315.753906 104.226562 C 315.753906 103.464844 315.371094 102.867188 314.007812 102.867188 L 312.265625 102.867188 L 312.265625 105.585938 L 314.007812 105.585938 Z M 305.964844 106.484375 C 305.964844 101.761719 309.714844 98.570312 313.964844 98.570312 C 318.222656 98.570312 321.964844 101.761719 321.964844 106.484375 C 321.964844 111.207031 318.222656 114.398438 313.964844 114.398438 C 309.714844 114.398438 305.964844 111.207031 305.964844 106.484375 Z M 305.964844 106.484375 "/>
<path style=" stroke:none;fill-rule:nonzero;fill:rgb(100%,40%,0%);fill-opacity:1;" d="M 199.183594 114.398438 L 199.183594 44.613281 L 238.03125 44.613281 L 238.03125 60.441406 L 215.730469 60.441406 L 215.730469 69.792969 L 238.03125 69.792969 L 238.03125 84.902344 L 215.730469 84.902344 L 215.730469 98.570312 L 238.03125 98.570312 L 238.03125 114.398438 Z M 199.183594 114.398438 "/>
<path style=" stroke:none;fill-rule:nonzero;fill:rgb(30.196078%,7.843137%,54.901961%);fill-opacity:1;" d="M 182.640625 44.613281 L 182.640625 73.023438 L 182.464844 73.023438 C 178.863281 68.886719 174.367188 67.449219 169.152344 67.449219 C 158.464844 67.449219 150.414062 74.714844 147.589844 84.320312 C 144.367188 73.738281 136.054688 67.253906 123.730469 67.253906 C 113.722656 67.253906 105.410156 71.835938 101.335938 79.734375 L 101.339844 69.792969 L 81.195312 69.792969 L 81.195312 60.441406 L 103.496094 60.441406 L 103.496094 44.613281 L 62.488281 44.613281 L 62.488281 114.398438 L 81.195312 114.398438 L 81.195312 84.875 L 99.382812 84.875 C 98.84375 87.003906 98.550781 89.3125 98.550781 91.71875 C 98.550781 106.199219 109.613281 116.359375 123.734375 116.359375 C 135.5625 116.359375 143.371094 110.824219 147.519531 100.734375 L 131.6875 100.734375 C 129.589844 103.699219 127.953125 104.585938 123.734375 104.585938 C 118.78125 104.585938 114.507812 100.261719 114.507812 95.136719 L 114.511719 94.972656 L 146.667969 94.972656 L 146.683594 95.136719 C 148.078125 106.640625 157.039062 116.558594 169.335938 116.558594 C 174.640625 116.558594 179.496094 113.949219 182.464844 109.542969 L 182.640625 109.542969 L 182.640625 114.398438 L 199.179688 114.398438 L 199.179688 44.613281 Z M 115.015625 85.0625 C 116.042969 80.652344 119.460938 77.769531 123.730469 77.769531 C 128.429688 77.769531 131.675781 80.5625 132.53125 85.0625 C 132.890625 85.0625 115.015625 85.0625 115.015625 85.0625 Z M 172.777344 103.46875 C 166.785156 103.46875 163.0625 97.882812 163.0625 92.054688 C 163.0625 85.824219 166.300781 79.832031 172.777344 79.832031 C 179.496094 79.832031 182.167969 85.824219 182.167969 92.054688 C 182.167969 97.960938 179.332031 103.46875 172.777344 103.46875 Z M 172.777344 103.46875 "/>
<path style=" stroke:none;fill-rule:nonzero;fill:rgb(100%,40%,0%);fill-opacity:1;" d="M 277.722656 114.398438 L 267.984375 103.476562 L 258.332031 114.398438 L 238.03125 114.398438 L 257.878906 92.097656 L 238.03125 69.792969 L 258.972656 69.792969 L 268.800781 80.625 L 278.269531 69.792969 L 298.480469 69.792969 L 278.726562 92.003906 L 298.75 114.398438 Z M 277.722656 114.398438 "/>
</g>
</svg>
