<svg width="24" height="24" viewBox="0 0 24 24" fill="none" xmlns="http://www.w3.org/2000/svg">
<g id="Filter">
<rect id="Icon Container" opacity="0.01" width="24" height="24" fill="#333333"/>
<path id="Union" fill-rule="evenodd" clip-rule="evenodd" d="M19.5 6.81006C19.7761 6.81006 20 7.03392 20 7.31006C20 7.5862 19.7761 7.81006 19.5 7.81006H4.5C4.22386 7.81006 4 7.5862 4 7.31006C4 7.03392 4.22386 6.81006 4.5 6.81006H19.5ZM17.625 11.4976C17.9011 11.4976 18.125 11.7214 18.125 11.9976C18.125 12.2737 17.9011 12.4976 17.625 12.4976H6.375C6.09886 12.4976 5.875 12.2737 5.875 11.9976C5.875 11.7214 6.09886 11.4976 6.375 11.4976H17.625ZM16.25 16.6851C16.25 16.4089 16.0261 16.1851 15.75 16.1851H8.25C7.97386 16.1851 7.75 16.4089 7.75 16.6851C7.75 16.9612 7.97386 17.1851 8.25 17.1851H15.75C16.0261 17.1851 16.25 16.9612 16.25 16.6851Z" fill="#333333"/>
</g>
</svg>
