<svg width="48" height="48" viewBox="0 0 48 48" fill="none" xmlns="http://www.w3.org/2000/svg">
<rect opacity="0.01" width="48" height="48" fill="white"/>
<path fill-rule="evenodd" clip-rule="evenodd" d="M11.5556 13H18.229C18.6831 13 19.1145 13.2005 19.4101 13.5488L21.045 15.4756C21.1927 15.6498 21.4085 15.75 21.6355 15.75H36.4444C37.3036 15.75 38 16.4536 38 17.3214V33.4286C38 34.2964 37.3036 35 36.4444 35H11.5556C10.6964 35 10 34.2964 10 33.4286V14.5714C10 13.7036 10.6964 13 11.5556 13Z" fill="#0078B4"/>
<path fill-rule="evenodd" clip-rule="evenodd" d="M11.5556 17H36.4444C37.3036 17 38 17.7163 38 18.6V33.4C38 34.2837 37.3036 35 36.4444 35H11.5556C10.6964 35 10 34.2837 10 33.4V18.6C10 17.7163 10.6964 17 11.5556 17Z" fill="#4293BC"/>
</svg>
