<svg width="10" height="12" viewBox="0 0 10 12" fill="none" xmlns="http://www.w3.org/2000/svg">
<path opacity="0.7037" fill-rule="evenodd" clip-rule="evenodd" d="M1.84766 3.19325C1.84766 1.51778 3.25147 0.159912 4.98362 0.159912C6.71578 0.159912 8.11959 1.51778 8.11959 3.19325V4.35986H9.0919C9.3559 4.35986 9.5699 4.57387 9.5699 4.83786V11.3519C9.5699 11.6159 9.35589 11.8299 9.0919 11.8299H0.877901C0.613909 11.8299 0.399902 11.6159 0.399902 11.3519V4.83786C0.399902 4.57387 0.61391 4.35986 0.877902 4.35986H1.84766V3.19325ZM7.15467 4.35986H2.81257V3.19325C2.81257 2.03325 3.78437 1.09325 4.98362 1.09325C6.18287 1.09325 7.15467 2.03325 7.15467 3.19325V4.35986ZM5.46 7.91637C5.60716 7.78454 5.69977 7.59304 5.69977 7.37991C5.69977 6.98227 5.37741 6.65991 4.97977 6.65991C4.58212 6.65991 4.25977 6.98227 4.25977 7.37991C4.25977 7.59327 4.35256 7.78494 4.5 7.91679V9.00991C4.5 9.27501 4.7149 9.48991 4.98 9.48991C5.2451 9.48991 5.46 9.27501 5.46 9.00991V7.91637Z" fill="white"/>
</svg>
