<svg width="24" height="25" viewBox="0 0 24 25" fill="none" xmlns="http://www.w3.org/2000/svg">
    <rect opacity="0.01" y="0.0640869" width="24" height="24" fill="white"/>
    <path fill-rule="evenodd" clip-rule="evenodd" d="M12 20.0641C7.58172 20.0641 4 16.4824 4 12.0641C4 7.64581 7.58172 4.06409 12 4.06409C16.4183 4.06409 20 7.64581 20 12.0641C20 16.4824 16.4183 20.0641 12 20.0641ZM12 19.0641C15.866 19.0641 19 15.9301 19 12.0641C19 8.19809 15.866 5.06409 12 5.06409C8.13401 5.06409 5 8.19809 5 12.0641C5 15.9301 8.13401 19.0641 12 19.0641ZM13.75 15.5641H12.25H10.75C10.4739 15.5641 10.25 15.3402 10.25 15.0641C10.25 14.7879 10.4739 14.5641 10.75 14.5641H11.75V11.3141H11.25C10.9739 11.3141 10.75 11.0902 10.75 10.8141C10.75 10.5379 10.9739 10.3141 11.25 10.3141H12.25C12.5261 10.3141 12.75 10.5379 12.75 10.8141V14.5641H13.75C14.0261 14.5641 14.25 14.7879 14.25 15.0641C14.25 15.3402 14.0261 15.5641 13.75 15.5641ZM11.25 8.31409C11.25 7.90159 11.5845 7.56409 12 7.56409C12.4125 7.56409 12.75 7.90159 12.75 8.31409C12.75 8.72959 12.4125 9.06409 12 9.06409C11.5845 9.06409 11.25 8.72959 11.25 8.31409Z" fill="#333333"/>
</svg>
