<svg width="70" height="56" viewBox="0 0 70 56" fill="none" xmlns="http://www.w3.org/2000/svg">
<path fill-rule="evenodd" clip-rule="evenodd" d="M3.88889 0.777832H20.5725C21.7077 0.777832 22.7863 1.27391 23.5251 2.13587L27.6124 6.90437C27.9818 7.33535 28.5211 7.58339 29.0888 7.58339H66.1111C68.2589 7.58339 70 9.3245 70 11.4723V51.3334C70 53.4812 68.2589 55.2223 66.1111 55.2223H3.88889C1.74111 55.2223 0 53.4812 0 51.3334L0 4.66672C0 2.51895 1.74111 0.777832 3.88889 0.777832Z" fill="#007AB7"/>
<path fill-rule="evenodd" clip-rule="evenodd" d="M3.88889 11.4722H66.1111C68.2589 11.4722 70 13.2133 70 15.3611V51.3333C70 53.4811 68.2589 55.2222 66.1111 55.2222H3.88889C1.74111 55.2222 0 53.4811 0 51.3333V15.3611C0 13.2133 1.74111 11.4722 3.88889 11.4722Z" fill="white"/>
<path fill-rule="evenodd" clip-rule="evenodd" d="M3.88889 11.4722H66.1111C68.2589 11.4722 70 13.2133 70 15.3611V51.3333C70 53.4811 68.2589 55.2222 66.1111 55.2222H3.88889C1.74111 55.2222 0 53.4811 0 51.3333V15.3611C0 13.2133 1.74111 11.4722 3.88889 11.4722Z" fill="#007AB7" fill-opacity="0.5"/>
<path fill-rule="evenodd" clip-rule="evenodd" d="M3.88889 11.4722H66.1111C68.2589 11.4722 70 13.2133 70 15.3611V51.3333C70 53.4811 68.2589 55.2222 66.1111 55.2222H3.88889C1.74111 55.2222 0 53.4811 0 51.3333V15.3611C0 13.2133 1.74111 11.4722 3.88889 11.4722Z" stroke="#00689C"/>
</svg>
