<svg width="32" height="32" viewBox="0 0 32 32" fill="none" xmlns="http://www.w3.org/2000/svg">
<path d="M16.001 0.000976562C24.838 0.000976562 31.9999 7.16302 32 16C32 24.837 24.838 31.999 16.001 31.999C15.46 31.999 15.0215 31.5605 15.0215 31.0195C15.0216 30.4787 15.4601 30.0401 16.001 30.04C23.7561 30.04 30.041 23.7551 30.041 16C30.0409 8.24499 23.756 1.95996 16.001 1.95996C15.0194 1.95997 14.0515 2.06111 13.1074 2.25879C12.5779 2.36967 12.0582 2.0295 11.9473 1.5C11.8367 0.970751 12.1759 0.451814 12.7051 0.34082C13.7811 0.115476 14.8841 0.000985235 16.001 0.000976562ZM3.47363 24.3516C3.90291 24.0227 4.51758 24.1042 4.84668 24.5332C6.72605 26.9862 9.37753 28.7602 12.3613 29.5635C12.8837 29.7041 13.1934 30.2423 13.0527 30.7646C12.912 31.2869 12.3739 31.5957 11.8516 31.4551C8.452 30.5398 5.43349 28.5198 3.29199 25.7246C2.96325 25.2952 3.04433 24.6805 3.47363 24.3516ZM0.499023 12.0264C0.633805 11.5026 1.16852 11.1876 1.69238 11.3223C2.21602 11.4572 2.53111 11.9909 2.39648 12.5146C1.8612 14.5975 1.81221 16.7775 2.27637 18.9609C2.47236 19.8697 2.75446 20.7477 3.11719 21.5869C3.33182 22.0835 3.10303 22.6604 2.60645 22.875C2.11 23.0894 1.53401 22.8606 1.31934 22.3643C0.905976 21.4079 0.584909 20.4078 0.361328 19.3711C-0.166548 16.888 -0.111395 14.4013 0.499023 12.0264ZM22.3359 11.2539C22.7487 10.887 23.3811 10.9241 23.748 11.3369C24.1145 11.7496 24.0773 12.3812 23.665 12.748L14.665 20.748C14.2693 21.0998 13.6674 21.0824 13.293 20.708L8.29297 15.708C7.90263 15.3175 7.90263 14.6844 8.29297 14.2939C8.68344 13.9035 9.3165 13.9036 9.70703 14.2939L14.041 18.627L22.3359 11.2539ZM9.47363 1.38965C9.96777 1.16947 10.5464 1.39162 10.7666 1.88574C10.9868 2.37989 10.7647 2.95853 10.2705 3.17871C7.4367 4.44148 5.1153 6.61208 3.64648 9.3291C3.38922 9.805 2.79426 9.98187 2.31836 9.72461C1.84274 9.46724 1.66566 8.87324 1.92285 8.39746C3.59586 5.30267 6.242 2.82962 9.47363 1.38965Z" fill="#E3E3E3"/>
</svg>
