<?xml version="1.0" encoding="UTF-8"?>
<svg width="16px" height="16px" viewBox="0 0 16 16" version="1.1" xmlns="http://www.w3.org/2000/svg" xmlns:xlink="http://www.w3.org/1999/xlink">
    <title>Icon/Plus</title>
    <g id="Breakpoints---Shipping-Modal" stroke="none" stroke-width="1" fill="none" fill-rule="evenodd">
        <g id="Brochure-default-1200" transform="translate(-375.000000, -764.000000)" fill="#0078B4">
            <g id="Group-8" transform="translate(237.000000, 204.000000)">
                <g id="Button/Text/Light-Background/Small/Default" transform="translate(133.790909, 552.000000)">
                    <g id="Icon/Plus" transform="translate(0.000000, 4.000000)">
                        <path d="M12,16 C14.209139,16 16,14.209139 16,12 C16,9.790861 14.209139,8 12,8 C9.790861,8 8,9.790861 8,12 C8,14.209139 9.790861,16 12,16 Z M12,4.5 C12.2761424,4.5 12.5,4.72385763 12.5,5 L12.5,7 L12.4976954,7.02445934 C14.8617545,7.25807614 16.7419239,9.13824546 16.9755407,11.5023046 L17,11.5 L17,11.5 L19,11.5 C19.2761424,11.5 19.5,11.7238576 19.5,12 C19.5,12.2761424 19.2761424,12.5 19,12.5 L17,12.5 L16.9755407,12.4976954 C16.7419239,14.8617545 14.8617545,16.7419239 12.4976954,16.9755407 C12.4997694,16.9823262 12.5,16.9911362 12.5,17 L12.5,19 C12.5,19.2761424 12.2761424,19.5 12,19.5 C11.7238576,19.5 11.5,19.2761424 11.5,19 L11.5,17 L11.5023046,16.9755407 C9.13824546,16.7419239 7.25807614,14.8617545 7.02445934,12.4976954 L7,12.5 L7,12.5 L5,12.5 C4.72385763,12.5 4.5,12.2761424 4.5,12 C4.5,11.7238576 4.72385763,11.5 5,11.5 L7,11.5 L7.02445934,11.5023046 C7.25807614,9.13824546 9.13824546,7.25807614 11.5023046,7.02445934 C11.5002181,7.01718642 11.5,7.00861868 11.5,7 L11.5,5 C11.5,4.72385763 11.7238576,4.5 12,4.5 Z" id="🎨-Color"></path>
                    </g>
                </g>
            </g>
        </g>
    </g>
</svg>