<svg width="36" height="37" viewBox="0 0 36 37" fill="none" xmlns="http://www.w3.org/2000/svg">
    <rect opacity="0.01" y="0.0640869" width="36" height="36" fill="white"/>
    <path fill-rule="evenodd" clip-rule="evenodd" d="M26.6258 12.0641L26.6253 10.5648H9.37601V12.0641H26.6258ZM7.87601 12.7864V9.81409L7.88106 9.72662C7.92438 9.35362 8.24139 9.06409 8.62601 9.06409H27.376L27.4635 9.06913C27.8365 9.11246 28.126 9.42946 28.126 9.81409V12.7864L29.916 16.2172C30.1765 16.7165 29.8142 17.3141 29.251 17.3141H28.126V26.314C28.126 26.6986 27.8365 27.0156 27.4635 27.0589L27.376 27.064H24.3883L24.376 27.0641H19.876L19.8637 27.064H8.62601C8.24139 27.064 7.92438 26.7745 7.88106 26.4015L7.87601 26.314V17.3141H6.75101C6.18781 17.3141 5.82556 16.7165 6.08607 16.2172L7.87601 12.7864ZM9.37601 17.3141V25.5633H19.126V19.5641C19.126 19.1499 19.4618 18.8141 19.876 18.8141H24.376C24.7902 18.8141 25.126 19.1499 25.126 19.5641V25.5633H26.6253L26.6259 17.3141H9.37601ZM20.626 25.5633H23.626V20.3141H20.626V25.5633ZM16.878 18.8141H11.628C11.2138 18.8141 10.878 19.1499 10.878 19.5641V23.3141C10.878 23.7283 11.2138 24.0641 11.628 24.0641H16.878C17.2922 24.0641 17.628 23.7283 17.628 23.3141V19.5641C17.628 19.1499 17.2922 18.8141 16.878 18.8141ZM16.1275 20.3141V22.5641H12.3775V20.3141H16.1275ZM26.839 13.5633L28.0135 15.8133H7.98776L9.16226 13.5633H26.839Z" fill="#4D148C"/>
</svg>
