<svg width="88" height="88" viewBox="0 0 88 88" fill="none" xmlns="http://www.w3.org/2000/svg">
<path fill-rule="evenodd" clip-rule="evenodd" d="M14.912 66.9172L42.412 19.2505C43.1175 18.0276 44.8825 18.0276 45.588 19.2505L73.088 66.9172C73.7931 68.1394 72.911 69.6667 71.5 69.6667H16.5C15.089 69.6667 14.2069 68.1394 14.912 66.9172Z" fill="#333333"/>
<path fill-rule="evenodd" clip-rule="evenodd" d="M19.6743 66H68.3257L44 23.8354L19.6743 66Z" fill="#F7B118"/>
<path fill-rule="evenodd" clip-rule="evenodd" d="M45.8334 51.4243V36.5758C45.8334 35.6135 45.0125 34.8333 44 34.8333C42.9875 34.8333 42.1667 35.6135 42.1667 36.5758V51.4243C42.1667 52.3866 42.9875 53.1667 44 53.1667C45.0125 53.1667 45.8334 52.3866 45.8334 51.4243Z" fill="#333333"/>
<path fill-rule="evenodd" clip-rule="evenodd" d="M46.75 59.5833C46.75 61.1013 45.518 62.3333 44 62.3333C42.482 62.3333 41.25 61.1013 41.25 59.5833C41.25 58.0653 42.482 56.8333 44 56.8333C45.518 56.8333 46.75 58.0653 46.75 59.5833Z" fill="#333333"/>
</svg>
