<!-- Generated by IcoMoon.io -->
<svg version="1.1" xmlns="http://www.w3.org/2000/svg" width="1024" height="1024" viewBox="0 0 1024 1024">
<title></title>
<g id="icomoon-ignore">
</g>
<path d="M512 170.667c188.513 0 341.333 152.82 341.333 341.333s-152.82 341.333-341.333 341.333c-188.513 0-341.333-152.82-341.333-341.333s152.82-341.333 341.333-341.333zM512 213.333c-164.949 0-298.667 133.718-298.667 298.667s133.718 298.667 298.667 298.667c164.949 0 298.667-133.718 298.667-298.667s-133.718-298.667-298.667-298.667zM480 437.333v0c-11.782 0-21.333 9.551-21.333 21.333s9.551 21.333 21.333 21.333h21.333v138.667h-42.667c-11.782 0-21.333 9.551-21.333 21.333s9.551 21.333 21.333 21.333h128c11.782 0 21.333-9.551 21.333-21.333l-0.144-2.488c-1.232-10.61-10.249-18.845-21.19-18.845h-42.667v-160c0-11.782-9.551-21.333-21.333-21.333zM512 320c-17.728 0-32 14.4-32 32 0 17.728 14.272 32 32 32 17.6 0 32-14.272 32-32 0-17.6-14.4-32-32-32z"></path>
</svg>
