<svg width="32" height="32" viewBox="0 0 32 32" fill="none" xmlns="http://www.w3.org/2000/svg">
<rect opacity="0.01" width="32" height="32" fill="#008200"/>
<path fill-rule="evenodd" clip-rule="evenodd" d="M16 2.66666C23.3638 2.66666 29.3334 8.6362 29.3334 16C29.3334 23.3638 23.3638 29.3333 16 29.3333C8.63622 29.3333 2.66669 23.3638 2.66669 16C2.66669 8.6362 8.63622 2.66666 16 2.66666Z" fill="#fff"/>
<path fill-rule="evenodd" clip-rule="evenodd" d="M15.9987 5.00001C9.92359 5.00001 4.99872 9.92488 4.99872 16C4.99872 22.0751 9.92359 27 15.9987 27C22.0739 27 26.9987 22.0751 26.9987 16C26.9987 9.92488 22.0739 5.00001 15.9987 5.00001Z" fill="#008200"/>
<path fill-rule="evenodd" clip-rule="evenodd" d="M15.0282 18.0857L20.5601 13.1685C20.8353 12.9238 21.2569 12.9486 21.5015 13.2238C21.7462 13.4991 21.7214 13.9206 21.4462 14.1653L15.4443 19.5003C15.1804 19.7349 14.7794 19.7231 14.5297 19.4734L11.1953 16.1391C10.9349 15.8786 10.9349 15.4564 11.1953 15.196C11.4558 14.9355 11.878 14.9355 12.1384 15.196L15.0282 18.0857Z" fill="#fff"/>
</svg>
