<svg width="32" height="32" viewBox="0 0 32 32" fill="none" xmlns="http://www.w3.org/2000/svg">
<g id="Delivery">
<rect id="Icon Container" opacity="0.01" width="32" height="32" fill="white"/>
<path id="Union" fill-rule="evenodd" clip-rule="evenodd" d="M22.8872 10.3286C22.7707 10.127 22.5545 10 22.3177 10H8.38188H5.99125L5.91454 10.0044C5.58742 10.0424 5.3335 10.3204 5.3335 10.6578L5.33792 10.7345C5.37592 11.0616 5.65393 11.3155 5.99125 11.3155L7.72412 11.3155V19.5343H6.5046L6.42789 19.5388C6.10076 19.5768 5.84684 19.8548 5.84684 20.1921C5.84684 20.5554 6.14133 20.8499 6.5046 20.8499H10.1019C10.3971 22.0605 11.4888 22.9592 12.7904 22.9592C14.092 22.9592 15.1837 22.0605 15.4789 20.8499H18.8742C19.1652 22.0549 20.2596 22.9592 21.5653 22.9592C22.8769 22.9592 23.9754 22.0466 24.2604 20.8217H25.306L25.4031 20.8183C26.1094 20.7684 26.6668 20.1797 26.6668 19.4608V17.0351L26.6616 16.9522C26.6408 16.7884 26.5589 16.6373 26.4306 16.5301L25.0998 15.4195C25.0796 15.3814 25.0557 15.3454 25.0286 15.3122L22.9222 10.3986L22.8872 10.3286ZM22.8275 13.5164L23.4936 15.0696H21.4075V13.5164H22.8275ZM20.092 13.5164V15.0696H18.6473L18.6297 15.066C18.6134 15.0591 18.602 15.043 18.602 15.0242V13.5617L18.6055 13.5441C18.6124 13.5278 18.6285 13.5164 18.6473 13.5164H20.092ZM20.7497 12.2008H18.6473L18.5501 12.2043C17.8439 12.2541 17.2865 12.8428 17.2865 13.5617V15.0242L17.2899 15.1214C17.3397 15.8276 17.9284 16.3851 18.6473 16.3851H24.2043L25.3513 17.3423V19.4608L25.3477 19.4785C25.3409 19.4948 25.3247 19.5062 25.306 19.5062H24.2467C23.9423 18.3125 22.8619 17.4291 21.5744 17.425C20.8328 17.4069 20.1161 17.6934 19.5914 18.2182C19.2267 18.5828 18.977 19.0403 18.8647 19.5343H15.4789C15.1837 18.3236 14.092 17.425 12.7904 17.425C11.4888 17.425 10.3971 18.3236 10.1019 19.5343H9.03964V11.3155L21.8836 11.3153L22.2634 12.2008H20.7497ZM23.011 20.0604C23.0057 20.0942 23.0029 20.1287 23.0029 20.1639C23.0029 20.2052 23.0067 20.2456 23.014 20.2847C22.9662 21.0433 22.3358 21.6437 21.5653 21.6437C20.7636 21.6437 20.1137 20.9938 20.1137 20.1921C20.1028 19.7904 20.2504 19.4196 20.5216 19.1484C20.7928 18.8772 21.1636 18.7296 21.547 18.7402L21.5653 18.7405C22.3226 18.7405 22.9445 19.3204 23.011 20.0604ZM12.7904 21.6437C13.5653 21.6437 14.1983 21.0365 14.2398 20.272C14.2367 20.2458 14.235 20.2191 14.235 20.1921C14.235 20.1651 14.2367 20.1384 14.2398 20.1122C14.1984 19.3476 13.5653 18.7405 12.7904 18.7405C11.9887 18.7405 11.3388 19.3904 11.3388 20.1921C11.3388 20.9938 11.9887 21.6437 12.7904 21.6437Z" fill="#333333"/>
</g>
</svg>
