<svg width="300" height="300" viewBox="0 0 300 300" fill="none" xmlns="http://www.w3.org/2000/svg">
<rect width="300" height="300" transform="translate(0.5)" fill="#9EB0B5"/>
<path fill-rule="evenodd" clip-rule="evenodd" d="M120.776 112.8C120.776 97.7208 133.411 85.5 149 85.5C164.589 85.5 177.224 97.7208 177.224 112.8V123.3H185.908C188.306 123.3 190.25 125.18 190.25 127.5V186.3C190.25 188.62 188.306 190.5 185.908 190.5H112.092C109.694 190.5 107.75 188.62 107.75 186.3V127.5C107.75 125.18 109.694 123.3 112.092 123.3H120.776V112.8ZM129.461 123.3H168.539V112.8C168.539 102.36 159.793 93.9 149 93.9C138.207 93.9 129.461 102.36 129.461 112.8V123.3ZM172.882 131.7H125.118H116.434V182.1H181.566V131.7H172.882ZM144.658 155.294C143.326 154.14 142.487 152.463 142.487 150.6C142.487 147.117 145.403 144.3 149 144.3C152.597 144.3 155.513 147.117 155.513 150.6C155.513 152.463 154.674 154.14 153.342 155.294V165.3C153.342 167.62 151.398 169.5 149 169.5C146.602 169.5 144.658 167.62 144.658 165.3V155.294Z" fill="#333333"/>
</svg>