<svg viewBox="0 0 48 48" fill="none" xmlns="http://www.w3.org/2000/svg">
<rect opacity="0.01" fill="white"/>
<path fill-rule="evenodd" clip-rule="evenodd" d="M35.501 16L35.5004 14.001H12.5014V16H35.501ZM10.5014 16.9631V13L10.5081 12.8834C10.5658 12.386 10.9885 12 11.5014 12H36.5014L36.618 12.0067C37.1153 12.0645 37.5014 12.4872 37.5014 13V16.9631L39.8879 21.5374C40.2353 22.2032 39.7523 23 39.0014 23H37.5014V34.9999C37.5014 35.5127 37.1153 35.9354 36.618 35.9931L36.5014 35.9999H32.5179L32.5014 36H26.5014L26.4848 35.9999H11.5014C10.9885 35.9999 10.5658 35.6138 10.5081 35.1165L10.5014 34.9999V23H9.00135C8.25042 23 7.76741 22.2032 8.11477 21.5374L10.5014 16.9631ZM12.5014 23V33.999H25.5014V26C25.5014 25.4477 25.9491 25 26.5014 25H32.5014C33.0536 25 33.5014 25.4477 33.5014 26V33.999H35.5004L35.5013 23H12.5014ZM27.5014 33.999H31.5014V27H27.5014V33.999ZM22.504 25H15.504C14.9517 25 14.504 25.4477 14.504 26V31C14.504 31.5523 14.9517 32 15.504 32H22.504C23.0563 32 23.504 31.5523 23.504 31V26C23.504 25.4477 23.0563 25 22.504 25ZM21.5034 27V30H16.5034V27H21.5034ZM35.7854 17.999L37.3514 20.999H10.6504L12.2164 17.999H35.7854Z" fill="#4D148C"/>
</svg>
