<?xml version="1.0" encoding="UTF-8"?>
<svg width="26px" height="26px" viewBox="0 0 26 26" version="1.1" xmlns="http://www.w3.org/2000/svg" xmlns:xlink="http://www.w3.org/1999/xlink">
    <title>AF190FE4-31D1-4E47-AAFB-DDD397BCCBF5</title>
    <g id="Page-1" stroke="none" stroke-width="1" fill="none" fill-rule="evenodd">
        <g id="Company-Users---Edit-B" transform="translate(-638.000000, -671.000000)">
            <g id="Group-10" transform="translate(350.000000, 139.000000)">
                <g id="Toggle/Text/Flex" transform="translate(96.000000, 521.000000)">
                    <g id="Toggle/Text/_elements/Selected" transform="translate(156.000000, 0.000000)">
                        <g id="Icon/Inactive" transform="translate(36.000000, 11.000000)">
                            <rect id="Icon-Container" fill="#FFFFFF" opacity="0" x="0" y="0" width="26" height="26"></rect>
                            <path d="M13,4.33333333 C17.7864678,4.33333333 21.6666667,8.21353217 21.6666667,13 C21.6666667,17.7864678 17.7864678,21.6666667 13,21.6666667 C8.21353217,21.6666667 4.33333333,17.7864678 4.33333333,13 C4.33333333,8.21353217 8.21353217,4.33333333 13,4.33333333 Z M18.7321084,8.03495369 L8.03394441,18.7312333 C9.36440336,19.8850649 11.100657,20.5833333 13,20.5833333 C17.1881594,20.5833333 20.5833333,17.1881594 20.5833333,13 C20.5833333,11.1011372 19.8854179,9.36528137 18.7321084,8.03495369 Z M13,5.41666667 C8.81184065,5.41666667 5.41666667,8.81184065 5.41666667,13 C5.41666667,14.8988628 6.11458208,16.6347186 7.2678916,17.9650463 L17.9660556,7.26876673 C16.6355966,6.11493514 14.899343,5.41666667 13,5.41666667 Z" id="🎨-Color" fill="#6F7F87"></path>
                        </g>
                    </g>
                </g>
            </g>
        </g>
    </g>
</svg>