<?xml version="1.0" standalone="no"?>
<!DOCTYPE svg PUBLIC "-//W3C//DTD SVG 1.1//EN" "http://www.w3.org/Graphics/SVG/1.1/DTD/svg11.dtd" >
<svg xmlns="http://www.w3.org/2000/svg" xmlns:xlink="http://www.w3.org/1999/xlink" version="1.1">
<metadata>
Created by FontForge 20170731 at Thu Nov  7 21:04:28 2019
 By Aleksey,,,
Copyright 2019 FedEx Corporation. This font may not be altered in any way without prior permission of the FedEx Corporation.
</metadata>
<defs>
<font id="FedExSans-CondensedBold" horiz-adv-x="0" >
  <font-face 
    font-family="FedEx Sans Cd"
    font-weight="700"
    font-stretch="condensed"
    units-per-em="1000"
    panose-1="2 11 8 6 2 2 3 2 2 4"
    ascent="740"
    descent="-260"
    x-height="520"
    cap-height="700"
    bbox="-222 -552 1157 1125"
    underline-thickness="76"
    underline-position="-222"
    unicode-range="U+000D-FFFD"
  />
<missing-glyph horiz-adv-x="500" 
d="M0 0v700h500v-700h-500zM87 654l162 -260l162 260h-324zM278 350l168 -268v536zM221 350l-167 266v-533zM249 305l-162 -259h324z" />
    <glyph glyph-name="uniFB00" unicode="ff" horiz-adv-x="668" 
d="M7 401l14 119h70v22q0 211 175 211q53 0 97 -22l-16 -121q-16 10 -28 13.5t-27 3.5q-31 0 -44 -18t-13 -60v-29h162v18q0 215 184 215q58 0 106 -23l-16 -121q-19 11 -33 14.5t-31 3.5q-36 0 -51 -19t-15 -63v-25h119v-119h-119v-401h-144v401h-162v-401h-144v401h-84z
" />
    <glyph glyph-name="uniFB01" unicode="fi" horiz-adv-x="586" 
d="M541 0h-144v401h-162v-401h-144v401h-84l14 119h70v22q0 211 175 211q53 0 97 -22l-16 -121q-16 10 -28 13.5t-27 3.5q-31 0 -44 -18t-13 -60v-29h306v-520zM469 580q-40 0 -63.5 24.5t-23.5 61.5q0 38 23.5 62.5t63.5 24.5t63.5 -24.5t23.5 -62.5q0 -37 -23.5 -61.5
t-63.5 -24.5z" />
    <glyph glyph-name="uniFB02" unicode="fl" horiz-adv-x="586" 
d="M336 401h-101v-401h-144v401h-84l14 119h70v22q0 211 175 211q53 0 97 -22l-16 -121q-16 10 -28 13.5t-27 3.5q-31 0 -44 -18t-13 -60v-29h101v-119zM541 0h-144v740h144v-740z" />
    <glyph glyph-name="uniFB03" unicode="ffi" horiz-adv-x="892" 
d="M363 731l-16 -121q-16 10 -28 13.5t-27 3.5q-31 0 -44 -18t-13 -60v-29h162v22q0 211 175 211q53 0 97 -22l-16 -121q-16 10 -28 13.5t-27 3.5q-31 0 -44 -18t-13 -60v-29h306v-520h-144v401h-162v-401h-144v401h-162v-401h-144v401h-84l14 119h70v22q0 211 175 211
q53 0 97 -22zM775 580q-40 0 -63.5 24.5t-23.5 61.5q0 38 23.5 62.5t63.5 24.5t63.5 -24.5t23.5 -62.5q0 -37 -23.5 -61.5t-63.5 -24.5z" />
    <glyph glyph-name="uniFB04" unicode="ffl" horiz-adv-x="892" 
d="M642 401h-101v-401h-144v401h-162v-401h-144v401h-84l14 119h70v22q0 211 175 211q53 0 97 -22l-16 -121q-16 10 -28 13.5t-27 3.5q-31 0 -44 -18t-13 -60v-29h162v22q0 211 175 211q53 0 97 -22l-16 -121q-16 10 -28 13.5t-27 3.5q-31 0 -44 -18t-13 -60v-29h101v-119z
M847 0h-144v740h144v-740z" />
    <glyph glyph-name="f_b" unicode="fb" horiz-adv-x="864" 
d="M336 401h-101v-401h-144v401h-84l14 119h70v22q0 211 175 211q53 0 97 -22l-16 -121q-16 10 -28 13.5t-27 3.5q-31 0 -44 -18t-13 -60v-29h101v-119zM655 -13q-88 0 -127 82l-4 -69h-127v740h144v-278q40 71 119 71q53 0 92.5 -34.5t61 -95.5t21.5 -143
q0 -80 -22.5 -141.5t-63 -96.5t-94.5 -35zM611 114q39 0 58.5 38.5t19.5 107.5t-19.5 107.5t-58.5 38.5q-40 0 -60 -38t-20 -108q0 -69 20 -107.5t60 -38.5z" />
    <glyph glyph-name="f_h" unicode="fh" horiz-adv-x="844" 
d="M336 401h-101v-401h-144v401h-84l14 119h70v22q0 211 175 211q53 0 97 -22l-16 -121q-16 10 -28 13.5t-27 3.5q-31 0 -44 -18t-13 -60v-29h101v-119zM803 0h-144v300q0 55 -11 78.5t-43 23.5q-64 0 -64 -109v-293h-144v740h144v-276q36 69 115 69q147 0 147 -209v-324z
" />
    <glyph glyph-name="f_j" unicode="fj" horiz-adv-x="586" 
d="M541 -29q0 -102 -42 -151t-130 -49q-30 0 -56 5t-49 18l21 117q15 -8 27.5 -11t28.5 -3q32 0 44 20t12 68v416h-162v-401h-144v401h-84l14 119h70v22q0 211 175 211q53 0 97 -22l-16 -121q-16 10 -28 13.5t-27 3.5q-31 0 -44 -18t-13 -60v-29h306v-549zM469 580
q-40 0 -63.5 24.5t-23.5 61.5q0 38 23.5 62.5t63.5 24.5t63.5 -24.5t23.5 -62.5q0 -37 -23.5 -61.5t-63.5 -24.5z" />
    <glyph glyph-name="f_k" unicode="fk" horiz-adv-x="857" 
d="M336 401h-101v-401h-144v401h-84l14 119h70v22q0 211 175 211q53 0 97 -22l-16 -121q-16 10 -28 13.5t-27 3.5q-31 0 -44 -18t-13 -60v-29h101v-119zM397 0v740h144v-409l136 189h163l-143 -180l154 -340h-156l-94 220l-60 -75v-145h-144z" />
    <glyph glyph-name="f_t" unicode="ft" horiz-adv-x="676" 
d="M7 401l14 119h70v22q0 211 175 211q53 0 97 -22l-16 -121q-16 10 -28 13.5t-27 3.5q-31 0 -44 -18t-13 -60v-29h158v167h144v-167h112v-119h-112v-196q0 -49 12 -69t42 -20q16 0 27 3.5t27 13.5l15 -119q-22 -12 -48.5 -18t-52.5 -6q-85 0 -125.5 47.5t-40.5 148.5v215
h-158v-401h-144v401h-84z" />
    <glyph glyph-name="f_f_b" unicode="ffb" horiz-adv-x="1170" 
d="M642 401h-101v-401h-144v401h-162v-401h-144v401h-84l14 119h70v22q0 211 175 211q53 0 97 -22l-16 -121q-16 10 -28 13.5t-27 3.5q-31 0 -44 -18t-13 -60v-29h162v22q0 211 175 211q53 0 97 -22l-16 -121q-16 10 -28 13.5t-27 3.5q-31 0 -44 -18t-13 -60v-29h101v-119z
M961 -13q-88 0 -127 82l-4 -69h-127v740h144v-278q40 71 119 71q53 0 92.5 -34.5t61 -95.5t21.5 -143q0 -80 -22.5 -141.5t-63 -96.5t-94.5 -35zM917 114q39 0 58.5 38.5t19.5 107.5t-19.5 107.5t-58.5 38.5q-40 0 -60 -38t-20 -108q0 -69 20 -107.5t60 -38.5z" />
    <glyph glyph-name="f_f_h" unicode="ffh" horiz-adv-x="1150" 
d="M642 401h-101v-401h-144v401h-162v-401h-144v401h-84l14 119h70v22q0 211 175 211q53 0 97 -22l-16 -121q-16 10 -28 13.5t-27 3.5q-31 0 -44 -18t-13 -60v-29h162v22q0 211 175 211q53 0 97 -22l-16 -121q-16 10 -28 13.5t-27 3.5q-31 0 -44 -18t-13 -60v-29h101v-119z
M1109 0h-144v300q0 55 -11 78.5t-43 23.5q-64 0 -64 -109v-293h-144v740h144v-276q36 69 115 69q147 0 147 -209v-324z" />
    <glyph glyph-name="f_f_j" unicode="ffj" horiz-adv-x="892" 
d="M363 731l-16 -121q-16 10 -28 13.5t-27 3.5q-31 0 -44 -18t-13 -60v-29h162v22q0 211 175 211q53 0 97 -22l-16 -121q-16 10 -28 13.5t-27 3.5q-31 0 -44 -18t-13 -60v-29h306v-549q0 -102 -42 -151t-130 -49q-30 0 -56 5t-49 18l21 117q15 -8 27.5 -11t28.5 -3
q32 0 44 20t12 68v416h-162v-401h-144v401h-162v-401h-144v401h-84l14 119h70v22q0 211 175 211q53 0 97 -22zM775 580q-40 0 -63.5 24.5t-23.5 61.5q0 38 23.5 62.5t63.5 24.5t63.5 -24.5t23.5 -62.5q0 -37 -23.5 -61.5t-63.5 -24.5z" />
    <glyph glyph-name="f_f_k" unicode="ffk" horiz-adv-x="1163" 
d="M642 401h-101v-401h-144v401h-162v-401h-144v401h-84l14 119h70v22q0 211 175 211q53 0 97 -22l-16 -121q-16 10 -28 13.5t-27 3.5q-31 0 -44 -18t-13 -60v-29h162v22q0 211 175 211q53 0 97 -22l-16 -121q-16 10 -28 13.5t-27 3.5q-31 0 -44 -18t-13 -60v-29h101v-119z
M847 0h-144v740h144v-409l136 189h163l-143 -180l154 -340h-156l-94 220l-60 -75v-145z" />
    <glyph glyph-name="f_f_t" unicode="fft" horiz-adv-x="982" 
d="M363 731l-16 -121q-16 10 -28 13.5t-27 3.5q-31 0 -44 -18t-13 -60v-29h162v22q0 211 175 211q53 0 97 -22l-16 -121q-16 10 -28 13.5t-27 3.5q-31 0 -44 -18t-13 -60v-29h158v167h144v-167h112v-119h-112v-196q0 -49 12 -69t42 -20q16 0 27 3.5t27 13.5l15 -119
q-22 -12 -48.5 -18t-52.5 -6q-85 0 -125.5 47.5t-40.5 148.5v215h-158v-401h-144v401h-162v-401h-144v401h-84l14 119h70v22q0 211 175 211q53 0 97 -22z" />
    <glyph glyph-name=".notdef" horiz-adv-x="500" 
d="M0 0v700h500v-700h-500zM87 654l162 -260l162 260h-324zM278 350l168 -268v536zM221 350l-167 266v-533zM249 305l-162 -259h324z" />
    <glyph glyph-name="uni0000" 
 />
    <glyph glyph-name="uni0000" 
 />
    <glyph glyph-name="uni000D" unicode="&#xd;" horiz-adv-x="149" 
 />
    <glyph glyph-name="space" unicode=" " horiz-adv-x="149" 
 />
    <glyph glyph-name="exclam" unicode="!" horiz-adv-x="246" 
d="M198 700l-14 -468h-122l-14 468h150zM123 -11q-39 0 -63.5 25.5t-24.5 64.5q0 40 24.5 64.5t63.5 24.5t63.5 -24.5t24.5 -64.5q0 -39 -24.5 -64.5t-63.5 -25.5z" />
    <glyph glyph-name="quotedbl" unicode="&#x22;" horiz-adv-x="377" 
d="M153 415h-116l-10 285h136zM340 415h-116l-10 285h136z" />
    <glyph glyph-name="numbersign" unicode="#" horiz-adv-x="484" 
d="M44 0l21 165h-53v99h66l21 160h-64v99h77l21 161h106l-21 -161h96l20 161h106l-20 -161h52v-99h-65l-20 -160h61v-99h-74l-21 -165h-106l21 165h-97l-21 -165h-106zM184 264h97l20 160h-96z" />
    <glyph glyph-name="dollar" unicode="$" horiz-adv-x="484" 
d="M278 -110h-71v96q-107 3 -191 60l29 121q44 -34 81 -47t81 -13v176q-88 31 -130.5 82t-42.5 126q0 81 46 135t127 68v100h71v-96q94 -5 162 -54l-28 -120q-38 28 -67.5 40t-66.5 13v-172q89 -31 131 -82.5t42 -127.5q0 -82 -46.5 -135.5t-126.5 -68.5v-101zM171 501
q0 -26 8.5 -42t27.5 -29v133q-36 -20 -36 -62zM314 185q0 28 -8.5 44.5t-27.5 29.5v-137q36 21 36 63z" />
    <glyph glyph-name="percent" unicode="%" horiz-adv-x="722" 
d="M290 0h-102l244 684h102zM568 -8q-66 0 -100.5 52t-34.5 149t34.5 149t100.5 52t100.5 -52t34.5 -149t-34.5 -149t-100.5 -52zM568 74q38 0 38 119t-38 119t-38 -119t38 -119zM154 290q-66 0 -100.5 52t-34.5 149t34.5 149t100.5 52t100.5 -52t34.5 -149t-34.5 -149
t-100.5 -52zM154 372q38 0 38 119t-38 119t-38 -119t38 -119z" />
    <glyph glyph-name="ampersand" unicode="&#x26;" horiz-adv-x="635" 
d="M257 -14q-103 0 -164 52t-61 146q0 108 124 191q-33 44 -48.5 82.5t-15.5 78.5q0 83 47.5 130.5t130.5 47.5q81 0 126.5 -44.5t45.5 -121.5q0 -56 -29.5 -101.5t-95.5 -90.5l109 -131q19 57 20 139l122 -15q-5 -135 -58 -225l103 -124h-161l-27 34q-70 -48 -168 -48z
M211 533q0 -26 10 -49t36 -56q34 23 50 47t16 58q0 75 -55 75q-28 0 -42.5 -20t-14.5 -55zM170 199q0 -99 100 -99q49 0 85 23l-137 172q-48 -39 -48 -96z" />
    <glyph glyph-name="quotesingle" unicode="'" horiz-adv-x="190" 
d="M153 415h-116l-10 285h136z" />
    <glyph glyph-name="parenleft" unicode="(" horiz-adv-x="309" 
d="M31 292q0 154 45 276t131 213l90 -73q-115 -159 -115 -416t115 -416l-90 -73q-86 91 -131 213t-45 276z" />
    <glyph glyph-name="parenright" unicode=")" horiz-adv-x="309" 
d="M278 292q0 -154 -45 -276t-131 -213l-90 73q115 159 115 416t-115 416l90 73q86 -91 131 -213t45 -276z" />
    <glyph glyph-name="asterisk" unicode="*" horiz-adv-x="375" 
d="M117 359l-72 55l85 97l-110 33l33 89l98 -51l-10 118h93l-10 -118l98 51l33 -89l-110 -33l85 -97l-72 -55l-71 105z" />
    <glyph glyph-name="plus" unicode="+" horiz-adv-x="484" 
d="M180 120v163h-154v118h154v163h124v-163h154v-118h-154v-163h-124z" />
    <glyph glyph-name="comma" unicode="," horiz-adv-x="242" 
d="M24 -120q37 15 63.5 43.5t37.5 65.5h-6q-37 0 -62.5 24.5t-25.5 63.5q0 41 24.5 66t62.5 25q44 0 68.5 -30.5t24.5 -84.5q0 -77 -40 -140t-106 -91z" />
    <glyph glyph-name="hyphen" unicode="-" horiz-adv-x="320" 
d="M27 232v125h266v-125h-266z" />
    <glyph glyph-name="hyphen" unicode="&#x2011;" horiz-adv-x="320" 
d="M27 232v125h266v-125h-266z" />
    <glyph glyph-name="hyphen" unicode="&#x2010;" horiz-adv-x="320" 
d="M27 232v125h266v-125h-266z" />
    <glyph glyph-name="hyphen" unicode="&#xad;" horiz-adv-x="320" 
d="M27 232v125h266v-125h-266z" />
    <glyph glyph-name="period" unicode="." horiz-adv-x="242" 
d="M121 -11q-39 0 -63.5 25.5t-24.5 64.5q0 40 24.5 64.5t63.5 24.5t63.5 -24.5t24.5 -64.5q0 -39 -24.5 -64.5t-63.5 -25.5z" />
    <glyph glyph-name="slash" unicode="/" horiz-adv-x="396" 
d="M9 -156l230 896h148l-230 -896h-148z" />
    <glyph glyph-name="zero" unicode="0" horiz-adv-x="484" 
d="M242 -14q-109 0 -166 92t-57 264q0 173 57 264.5t166 91.5t166 -91.5t57 -264.5q0 -172 -57 -264t-166 -92zM242 569q-39 0 -55.5 -55.5t-16.5 -171.5q0 -115 16.5 -171t55.5 -56t55.5 56t16.5 171q0 116 -16.5 171.5t-55.5 55.5z" />
    <glyph glyph-name="one" unicode="1" horiz-adv-x="484" 
d="M209 0v520l-98 -73l-72 104l185 133h131v-684h-146z" />
    <glyph glyph-name="two" unicode="2" horiz-adv-x="484" 
d="M28 630q40 34 88 51t98 17q103 0 160.5 -53.5t57.5 -148.5q0 -42 -12 -80t-41.5 -82.5t-81.5 -107.5q-17 -21 -38.5 -45.5t-47.5 -52.5h237l-15 -128h-402v107q47 48 83 87.5t62 73.5q41 51 64 85t33 63t10 63q0 44 -23 67t-64 23q-35 0 -67.5 -14.5t-60.5 -40.5z" />
    <glyph glyph-name="three" unicode="3" horiz-adv-x="484" 
d="M24 36l30 114q56 -42 140 -42q49 0 76 24.5t27 67.5q0 89 -112 89h-56v121h53q51 0 78.5 23.5t27.5 65.5q0 36 -23 56.5t-65 20.5q-38 0 -72.5 -11t-59.5 -31l-31 110q32 26 80 40t102 14q99 0 156 -49t57 -134q0 -54 -27.5 -96t-78.5 -63q55 -19 86.5 -61.5t31.5 -103.5
q0 -97 -64.5 -151t-177.5 -54q-55 0 -101.5 13.5t-76.5 36.5z" />
    <glyph glyph-name="four" unicode="4" horiz-adv-x="484" 
d="M272 0v137h-262v115l254 432h144v-425h69l-14 -122h-55v-137h-136zM272 259v239l-139 -239h139z" />
    <glyph glyph-name="five" unicode="5" horiz-adv-x="484" 
d="M200 -14q-49 0 -95.5 12.5t-77.5 33.5l31 118q58 -42 134 -42q53 0 81.5 27t28.5 76q0 50 -27.5 75.5t-78.5 25.5q-21 0 -45 -3.5t-47 -11.5l-46 23l24 364h329l15 -128h-227l-9 -137q29 7 58 7q94 0 147 -56t53 -155q0 -108 -66 -168.5t-182 -60.5z" />
    <glyph glyph-name="six" unicode="6" horiz-adv-x="484" 
d="M253 -14q-112 0 -169 84t-57 247q0 119 33.5 204.5t96 131t150.5 45.5q75 0 140 -31l-37 -118q-25 12 -46.5 17.5t-50.5 5.5q-140 0 -146 -221q38 88 129 88q51 0 88 -27.5t57 -76.5t20 -114q0 -71 -25.5 -124t-72.5 -82t-110 -29zM252 106q66 0 66 110q0 52 -16 81
t-48 29q-33 0 -49.5 -29t-16.5 -81t16.5 -81t47.5 -29z" />
    <glyph glyph-name="seven" unicode="7" horiz-adv-x="484" 
d="M98 0l205 555h-276l15 129h409v-121l-199 -563h-154z" />
    <glyph glyph-name="eight" unicode="8" horiz-adv-x="484" 
d="M242 -14q-101 0 -160 54.5t-59 143.5q0 63 29.5 106.5t81.5 60.5q-94 43 -94 156q0 89 55.5 140t146.5 51t146.5 -51t55.5 -140q0 -113 -94 -156q52 -17 81.5 -60.5t29.5 -106.5q0 -89 -59 -143.5t-160 -54.5zM242 406q66 0 66 87q0 41 -17 64t-49 23q-31 0 -48.5 -23
t-17.5 -64q0 -87 66 -87zM242 105q75 0 75 93q0 45 -19 69.5t-56 24.5t-56 -24.5t-19 -69.5q0 -93 75 -93z" />
    <glyph glyph-name="nine" unicode="9" horiz-adv-x="484" 
d="M41 17l36 119q25 -12 47 -18t50 -6q70 0 104.5 56t37.5 164q-38 -87 -128 -87q-51 0 -88 27.5t-57 77t-20 113.5q0 72 26 124.5t72.5 81.5t109.5 29q113 0 169.5 -83.5t56.5 -247.5q0 -118 -33 -203.5t-94.5 -131.5t-149.5 -46q-76 0 -139 31zM230 358q33 0 49.5 29
t16.5 81q0 53 -16.5 81.5t-48.5 28.5q-33 0 -49 -28.5t-16 -81.5q0 -52 16 -81t48 -29z" />
    <glyph glyph-name="colon" unicode=":" horiz-adv-x="242" 
d="M121 -11q-39 0 -63.5 25.5t-24.5 64.5q0 40 24.5 64.5t63.5 24.5t63.5 -24.5t24.5 -64.5q0 -39 -24.5 -64.5t-63.5 -25.5zM121 352q-39 0 -63.5 25.5t-24.5 64.5q0 40 24.5 64.5t63.5 24.5t63.5 -24.5t24.5 -64.5q0 -39 -24.5 -64.5t-63.5 -25.5z" />
    <glyph glyph-name="semicolon" unicode=";" horiz-adv-x="242" 
d="M24 -120q37 15 63.5 43.5t37.5 65.5h-6q-37 0 -62.5 24.5t-25.5 63.5q0 41 24.5 66t62.5 25q44 0 68.5 -30.5t24.5 -84.5q0 -77 -40 -140t-106 -91zM121 352q-39 0 -63.5 25.5t-24.5 64.5q0 40 24.5 64.5t63.5 24.5t63.5 -24.5t24.5 -64.5q0 -39 -24.5 -64.5t-63.5 -25.5
z" />
    <glyph glyph-name="less" unicode="&#x3c;" horiz-adv-x="484" 
d="M458 108l-432 177v114l432 177v-136l-300 -97l300 -97v-138z" />
    <glyph glyph-name="equal" unicode="=" horiz-adv-x="484" 
d="M26 156v118h432v-118h-432zM26 410v118h432v-118h-432z" />
    <glyph glyph-name="greater" unicode="&#x3e;" horiz-adv-x="484" 
d="M26 108v138l300 97l-300 97v136l432 -177v-114z" />
    <glyph glyph-name="question" unicode="?" horiz-adv-x="421" 
d="M240 247v-15h-120v15q0 53 13.5 88.5t47.5 67.5q35 34 49.5 58t14.5 55q0 74 -80 74q-31 0 -58.5 -10.5t-50.5 -29.5l-34 118q33 23 75.5 35.5t88.5 12.5q97 0 151.5 -49t54.5 -137q0 -54 -22.5 -92.5t-69.5 -80.5q-34 -30 -47 -55t-13 -55zM180 -11q-39 0 -63.5 25.5
t-24.5 64.5q0 40 24.5 64.5t63.5 24.5t63.5 -24.5t24.5 -64.5q0 -39 -24.5 -64.5t-63.5 -25.5z" />
    <glyph glyph-name="at" unicode="@" horiz-adv-x="806" 
d="M564 190q-3 -18 -3 -33q0 -26 8 -37.5t26 -11.5q38 0 61.5 59t23.5 153q0 138 -64.5 210t-183.5 72q-93 0 -161 -49t-105.5 -135.5t-37.5 -199.5q0 -163 69.5 -252.5t199.5 -89.5q47 0 94.5 11.5t84.5 32.5l20 -86q-40 -21 -96.5 -33.5t-111.5 -12.5q-112 0 -192 51.5
t-122.5 147.5t-42.5 229q0 105 30 191.5t84 150t127.5 98t161.5 34.5q105 0 181.5 -44t118 -125.5t41.5 -194.5q0 -93 -24 -162.5t-68 -108t-104 -38.5q-99 0 -110 96q-16 -45 -49 -70.5t-76 -25.5q-60 0 -95 53.5t-35 144.5q0 71 22 126.5t60 87.5t85 32q38 0 64.5 -23
t36.5 -63l16 73h103zM386 122q31 0 51.5 40t20.5 100q0 44 -13 69t-39 25q-31 0 -50 -39.5t-19 -96.5q0 -46 13 -72t36 -26z" />
    <glyph glyph-name="A" unicode="A" horiz-adv-x="607" 
d="M435 0l-38 152h-192l-39 -152h-158l218 700h155l218 -700h-164zM237 279h128l-64 253z" />
    <glyph glyph-name="B" unicode="B" horiz-adv-x="542" 
d="M515 201q0 -93 -58.5 -147t-160.5 -54h-244v700h230q95 0 150.5 -50t55.5 -133q0 -53 -26 -92.5t-69 -55.5q55 -11 88.5 -56.5t33.5 -111.5zM265 417q40 0 59.5 23t19.5 65q0 79 -77 79h-72v-167h70zM282 116q44 0 65 24.5t21 70.5q0 45 -22.5 70t-68.5 25h-82v-190h87z
" />
    <glyph glyph-name="C" unicode="C" horiz-adv-x="557" 
d="M31 346q0 111 39 194.5t110.5 129.5t170.5 46q46 0 92 -12.5t81 -35.5l-29 -131q-33 23 -65.5 34t-68.5 11q-82 0 -127.5 -60.5t-45.5 -169.5q0 -112 44.5 -173t128.5 -61q36 0 70.5 11t71.5 36l27 -128q-37 -25 -85 -39t-97 -14q-99 0 -170 43.5t-109 124.5t-38 194z
" />
    <glyph glyph-name="D" unicode="D" horiz-adv-x="608" 
d="M286 0h-234v700h234q137 0 214 -91.5t77 -258.5q0 -166 -77 -258t-214 -92zM272 132q148 0 148 218t-148 218h-71v-436h71z" />
    <glyph glyph-name="E" unicode="E" horiz-adv-x="494" 
d="M52 0v700h394l15 -127h-261v-154h235v-127h-235v-165h277l-15 -127h-410z" />
    <glyph glyph-name="F" unicode="F" horiz-adv-x="472" 
d="M52 0v700h390l15 -127h-257v-166h228v-127h-228v-280h-148z" />
    <glyph glyph-name="G" unicode="G" horiz-adv-x="599" 
d="M557 28q-48 -22 -101 -33t-110 -11q-97 0 -168 43.5t-109 124.5t-38 194t41 196t116.5 128.5t176.5 45.5q47 0 96 -13t86 -37l-29 -131q-35 23 -70 35t-74 12q-88 0 -137 -59.5t-49 -170.5q0 -114 44 -174.5t129 -60.5q31 0 60 6v155h-98v117h234v-367z" />
    <glyph glyph-name="H" unicode="H" horiz-adv-x="603" 
d="M52 0v700h151v-277h197v277h151v-700h-151v287h-197v-287h-151z" />
    <glyph glyph-name="I" unicode="I" horiz-adv-x="255" 
d="M52 0v700h151v-700h-151z" />
    <glyph glyph-name="J" unicode="J" horiz-adv-x="459" 
d="M162 -16q-41 0 -80 12t-62 31l26 125q23 -16 50 -26t55 -10q62 0 85 41.5t23 143.5v399h151v-410q0 -157 -60 -231.5t-188 -74.5z" />
    <glyph glyph-name="K" unicode="K" horiz-adv-x="595" 
d="M52 0v700h151v-289l189 289h168l-189 -268l215 -432h-171l-139 297l-73 -103v-194h-151z" />
    <glyph glyph-name="L" unicode="L" horiz-adv-x="471" 
d="M52 0v700h151v-566h262l-16 -134h-397z" />
    <glyph glyph-name="M" unicode="M" horiz-adv-x="720" 
d="M52 0v700h187l124 -426l124 426h181v-700h-141v485l-109 -367h-116l-109 369v-487h-141z" />
    <glyph glyph-name="N" unicode="N" horiz-adv-x="602" 
d="M52 0v700h156l200 -447v447h142v-700h-152l-204 451v-451h-142z" />
    <glyph glyph-name="O" unicode="O" horiz-adv-x="654" 
d="M327 -16q-90 0 -156.5 45.5t-103 128t-36.5 192.5t36.5 192.5t103 128t156.5 45.5t156.5 -45.5t103 -128t36.5 -192.5t-36.5 -192.5t-103 -128t-156.5 -45.5zM327 118q68 0 103.5 62t35.5 170t-35.5 170t-103.5 62q-67 0 -103 -62t-36 -170t36 -170t103 -62z" />
    <glyph glyph-name="P" unicode="P" horiz-adv-x="511" 
d="M264 238h-66v-238h-146v700h212q102 0 161.5 -62.5t59.5 -168.5t-59.5 -168.5t-161.5 -62.5zM252 359q40 0 60 29t20 81q0 53 -20 81.5t-60 28.5h-54v-220h54z" />
    <glyph glyph-name="Q" unicode="Q" horiz-adv-x="654" 
d="M327 -16q-90 0 -156.5 45.5t-103 128t-36.5 192.5t36.5 192.5t103 128t156.5 45.5t156.5 -45.5t103 -128t36.5 -192.5q0 -78 -19 -142.5t-53 -111.5l84 -106l-85 -69l-80 101q-63 -38 -143 -38zM327 118q32 0 56 12l-95 120l85 69l77 -97q16 52 16 128q0 108 -35.5 170
t-103.5 62q-67 0 -103 -62t-36 -170t36 -170t103 -62z" />
    <glyph glyph-name="R" unicode="R" horiz-adv-x="544" 
d="M370 0l-106 252h-66v-252h-146v700h214q104 0 164.5 -60.5t60.5 -163.5q0 -63 -25.5 -111t-71.5 -75l130 -290h-154zM254 579h-56v-206h56q85 0 85 103q0 49 -21 76t-64 27z" />
    <glyph glyph-name="S" unicode="S" horiz-adv-x="496" 
d="M466 199q0 -65 -29 -113.5t-82 -75t-125 -26.5q-62 0 -112.5 14.5t-98.5 47.5l30 127q45 -34 83.5 -48t86.5 -14q45 0 72 20t27 58q0 35 -20.5 59t-82.5 43q-91 29 -134.5 80.5t-43.5 131.5q0 97 62.5 155t169.5 58t186 -56l-29 -126q-40 30 -72.5 42.5t-74.5 12.5
q-44 0 -70.5 -19t-26.5 -57q0 -35 21.5 -57t82.5 -41q92 -28 136 -81t44 -135z" />
    <glyph glyph-name="T" unicode="T" horiz-adv-x="523" 
d="M186 0v566h-174v134h499v-134h-174v-566h-151z" />
    <glyph glyph-name="U" unicode="U" horiz-adv-x="590" 
d="M49 269v431h151v-418q0 -85 22 -124.5t73 -39.5t73 39.5t22 124.5v418h151v-431q0 -139 -64 -212t-187 -73q-119 0 -180 72.5t-61 212.5z" />
    <glyph glyph-name="V" unicode="V" horiz-adv-x="597" 
d="M589 700l-213 -700h-155l-213 700h164l129 -526l130 526h158z" />
    <glyph glyph-name="W" unicode="W" horiz-adv-x="821" 
d="M509 0l-98 520l-99 -520h-154l-147 700h160l77 -507l90 507h150l89 -505l78 505h155l-147 -700h-154z" />
    <glyph glyph-name="X" unicode="X" horiz-adv-x="598" 
d="M9 0l204 359l-188 341h166l109 -226l112 226h161l-191 -340l207 -360h-169l-124 242l-123 -242h-164z" />
    <glyph glyph-name="Y" unicode="Y" horiz-adv-x="587" 
d="M218 0v277l-209 423h173l114 -295l115 295h167l-209 -423v-277h-151z" />
    <glyph glyph-name="Z" unicode="Z" horiz-adv-x="535" 
d="M32 0v117l299 455h-289l15 128h439v-116l-299 -456h313l-15 -128h-463z" />
    <glyph glyph-name="bracketleft" unicode="[" horiz-adv-x="309" 
d="M52 -156v896h231l14 -119h-101v-658h101l-14 -119h-231z" />
    <glyph glyph-name="backslash" unicode="\" horiz-adv-x="396" 
d="M387 -156h-148l-230 896h148z" />
    <glyph glyph-name="bracketright" unicode="]" horiz-adv-x="309" 
d="M257 -156h-231l-14 119h101v658h-101l14 119h231v-896z" />
    <glyph glyph-name="asciicircum" unicode="^" horiz-adv-x="484" 
d="M14 290l173 394h110l173 -394h-142l-87 260l-88 -260h-139z" />
    <glyph glyph-name="underscore" unicode="_" horiz-adv-x="390" 
d="M0 -162v118h390v-118h-390z" />
    <glyph glyph-name="grave" unicode="`" horiz-adv-x="380" 
d="M151 594l-139 156h160l107 -156h-128z" />
    <glyph glyph-name="a" unicode="a" horiz-adv-x="464" 
d="M423 317v-317h-120l-4 66q-36 -79 -128 -79q-66 0 -105 43t-39 116q0 88 55 132t173 46l31 1q-1 49 -21 70t-68 21q-33 0 -61 -9.5t-60 -33.5l-24 112q35 24 76.5 36t86.5 12q208 0 208 -216zM162 161q0 -64 55 -64q35 0 52 28.5t17 81.5v33l-21 -1q-56 -1 -79.5 -19
t-23.5 -59z" />
    <glyph glyph-name="b" unicode="b" horiz-adv-x="512" 
d="M483 260q0 -80 -22.5 -141.5t-63 -96.5t-94.5 -35q-88 0 -127 82l-4 -69h-127v740h144v-278q40 71 119 71q53 0 92.5 -34.5t61 -95.5t21.5 -143zM179 260q0 -69 20 -107.5t60 -38.5q39 0 58.5 38.5t19.5 107.5t-19.5 107.5t-58.5 38.5q-40 0 -60 -38t-20 -108z" />
    <glyph glyph-name="c" unicode="c" horiz-adv-x="432" 
d="M29 256q0 83 30 145t86 97t133 35q32 0 65 -8.5t58 -24.5l-26 -122q-41 28 -87 28q-53 0 -83 -38t-30 -107q0 -71 29.5 -109t84.5 -38q46 0 93 30l25 -119q-28 -19 -62.5 -28.5t-70.5 -9.5q-115 0 -180 72t-65 197z" />
    <glyph glyph-name="d" unicode="d" horiz-adv-x="512" 
d="M467 0h-127l-5 77q-39 -90 -131 -90q-53 0 -92.5 34.5t-61 96t-21.5 142.5q0 80 22.5 141.5t62.5 96.5t95 35q74 0 113 -64v271h145v-740zM333 260q0 69 -20 107.5t-60 38.5q-39 0 -58.5 -38.5t-19.5 -107.5t19.5 -107.5t58.5 -38.5q40 0 60 38t20 108z" />
    <glyph glyph-name="e" unicode="e" horiz-adv-x="468" 
d="M441 261q0 -22 -3 -42h-273q15 -114 116 -114q33 0 59.5 8.5t57.5 28.5l24 -113q-67 -42 -161 -42q-109 0 -170.5 72.5t-61.5 199.5q0 84 26 145.5t74 95t114 33.5q95 0 146.5 -70.5t51.5 -201.5zM241 424q-65 0 -75 -114h144q-4 61 -19.5 87.5t-49.5 26.5z" />
    <glyph glyph-name="f" unicode="f" horiz-adv-x="362" 
d="M7 401l14 119h70v18q0 215 184 215q58 0 106 -23l-16 -121q-19 11 -33 14.5t-31 3.5q-36 0 -51 -19t-15 -63v-25h119v-119h-119v-401h-144v401h-84z" />
    <glyph glyph-name="g" unicode="g" horiz-adv-x="512" 
d="M62 -184l27 120q26 -19 58 -30t66 -11q60 0 85 31t25 102v43q-40 -71 -119 -71q-53 0 -92.5 33.5t-61 93.5t-21.5 140q0 78 22.5 138t63 94t94.5 34q88 0 127 -82l4 69h127v-477q0 -139 -60.5 -205.5t-186.5 -66.5q-45 0 -87.5 12.5t-70.5 32.5zM333 267q0 65 -20 102
t-60 37q-39 0 -58.5 -37t-19.5 -102q0 -66 19.5 -103t58.5 -37q40 0 60 36.5t20 103.5z" />
    <glyph glyph-name="h" unicode="h" horiz-adv-x="492" 
d="M189 293v-293h-144v740h144v-276q36 69 115 69q147 0 147 -209v-324h-144v300q0 55 -11 78.5t-43 23.5q-64 0 -64 -109z" />
    <glyph glyph-name="i" unicode="i" horiz-adv-x="234" 
d="M117 585q-40 0 -63.5 24.5t-23.5 61.5q0 38 23.5 62.5t63.5 24.5t63.5 -24.5t23.5 -62.5q0 -37 -23.5 -61.5t-63.5 -24.5zM45 0v520h144v-520h-144z" />
    <glyph glyph-name="j" unicode="j" horiz-adv-x="234" 
d="M117 585q-40 0 -63.5 24.5t-23.5 61.5q0 38 23.5 62.5t63.5 24.5t63.5 -24.5t23.5 -62.5q0 -37 -23.5 -61.5t-63.5 -24.5zM-88 -206l21 117q15 -8 27.5 -11t28.5 -3q32 0 44 20t12 68v535h144v-549q0 -102 -42 -151t-130 -49q-30 0 -56 5t-49 18z" />
    <glyph glyph-name="k" unicode="k" horiz-adv-x="505" 
d="M45 0v740h144v-409l136 189h163l-143 -180l154 -340h-156l-94 220l-60 -75v-145h-144z" />
    <glyph glyph-name="l" unicode="l" horiz-adv-x="234" 
d="M45 0v740h144v-740h-144z" />
    <glyph glyph-name="m" unicode="m" horiz-adv-x="732" 
d="M189 293v-293h-144v520h127l5 -76q15 43 47 66t75 23q93 0 124 -94q17 46 50 70t77 24q141 0 141 -209v-324h-144v300q0 55 -10 78.5t-38 23.5q-59 0 -59 -109v-293h-144v300q0 55 -10 78.5t-38 23.5q-59 0 -59 -109z" />
    <glyph glyph-name="n" unicode="n" horiz-adv-x="492" 
d="M451 324v-324h-144v300q0 55 -11 78.5t-43 23.5q-64 0 -64 -109v-293h-144v520h127l5 -79q16 44 49 68t78 24q147 0 147 -209z" />
    <glyph glyph-name="o" unicode="o" horiz-adv-x="504" 
d="M252 -13q-67 0 -117.5 34t-78 95.5t-27.5 143.5t27.5 143.5t78 95.5t117.5 34q68 0 118 -34t77.5 -95.5t27.5 -143.5t-27.5 -143.5t-77.5 -95.5t-118 -34zM252 114q39 0 58 38.5t19 107.5t-19 107.5t-58 38.5t-58 -38.5t-19 -107.5t19 -107.5t58 -38.5z" />
    <glyph glyph-name="p" unicode="p" horiz-adv-x="512" 
d="M303 -13q-75 0 -114 65v-268h-144v736h127l5 -76q39 89 131 89q53 0 92.5 -34.5t61 -95.5t21.5 -143q0 -80 -22.5 -141.5t-63 -96.5t-94.5 -35zM179 260q0 -69 20 -107.5t59 -38.5q40 0 59.5 38.5t19.5 107.5t-19.5 107.5t-58.5 38.5q-40 0 -60 -38t-20 -108z" />
    <glyph glyph-name="q" unicode="q" horiz-adv-x="512" 
d="M467 520v-736h-144v274q-40 -71 -119 -71q-53 0 -92.5 34.5t-61 96t-21.5 142.5q0 80 22.5 141.5t63 96.5t94.5 35q88 0 127 -83l4 70h127zM333 260q0 69 -20 107.5t-59 38.5q-40 0 -59.5 -38.5t-19.5 -107.5t19.5 -107.5t58.5 -38.5q40 0 60 38t20 108z" />
    <glyph glyph-name="r" unicode="r" horiz-adv-x="349" 
d="M189 241v-241h-144v520h127l6 -94q28 104 116 104q28 0 48 -11l-8 -140q-12 7 -23.5 9.5t-23.5 2.5q-49 0 -73.5 -38.5t-24.5 -111.5z" />
    <glyph glyph-name="s" unicode="s" horiz-adv-x="412" 
d="M189 -13q-50 0 -90.5 11t-80.5 36l28 112q35 -25 65 -34.5t67 -9.5q30 0 47.5 12.5t17.5 34.5q0 20 -13.5 34t-54.5 26q-142 40 -142 157q0 77 52.5 122t143.5 45q88 0 149 -42l-26 -112q-32 22 -57.5 30.5t-59.5 8.5q-29 0 -46 -11.5t-17 -33.5q0 -20 14 -32.5t53 -24.5
q147 -43 147 -160q0 -77 -53.5 -123t-143.5 -46z" />
    <glyph glyph-name="t" unicode="t" horiz-adv-x="374" 
d="M358 14q-22 -12 -48.5 -18t-52.5 -6q-85 0 -125.5 47.5t-40.5 148.5v215h-84l14 119h70v167h144v-167h112v-119h-112v-196q0 -49 12 -69t42 -20q16 0 27 3.5t27 13.5z" />
    <glyph glyph-name="u" unicode="u" horiz-adv-x="486" 
d="M314 0l-5 77q-16 -44 -48 -67t-76 -23q-144 0 -144 209v324h144v-300q0 -55 10.5 -78.5t40.5 -23.5q61 0 61 109v293h144v-520h-127z" />
    <glyph glyph-name="v" unicode="v" horiz-adv-x="489" 
d="M483 520l-165 -520h-147l-165 520h156l85 -364l86 364h150z" />
    <glyph glyph-name="w" unicode="w" horiz-adv-x="695" 
d="M131 0l-122 520h146l60 -369l63 369h144l62 -365l61 365h141l-122 -520h-147l-69 388l-70 -388h-147z" />
    <glyph glyph-name="x" unicode="x" horiz-adv-x="502" 
d="M14 0l161 270l-155 250h149l82 -153l82 153h149l-154 -251l160 -269h-153l-85 163l-85 -163h-151z" />
    <glyph glyph-name="y" unicode="y" horiz-adv-x="492" 
d="M32 -210l15 119q23 -13 60 -13q28 0 41.5 15t27.5 55l-170 554h156l82 -377l92 377h150l-172 -544q-23 -73 -47 -118.5t-58 -66t-87 -20.5q-28 0 -48.5 4.5t-41.5 14.5z" />
    <glyph glyph-name="z" unicode="z" horiz-adv-x="432" 
d="M29 0v105l214 299h-213l14 116h352v-105l-211 -299h223l-14 -116h-365z" />
    <glyph glyph-name="braceleft" unicode="{" horiz-adv-x="312" 
d="M300 -37l-14 -119h-70q-69 0 -110 43t-41 119q0 46 7.5 78t7.5 66q0 85 -64 85v114q64 0 64 85q0 34 -7.5 66.5t-7.5 78.5q0 75 41 118t110 43h70l14 -119h-34q-33 0 -47.5 -18t-14.5 -61q0 -31 4 -54t7.5 -44.5t3.5 -47.5q0 -40 -26 -67t-73 -37q47 -10 73 -36.5
t26 -66.5q0 -26 -3.5 -48t-7.5 -45t-4 -53q0 -43 14.5 -61.5t47.5 -18.5h34z" />
    <glyph glyph-name="bar" unicode="|" horiz-adv-x="254" 
d="M55 -216v956h144v-956h-144z" />
    <glyph glyph-name="braceright" unicode="}" horiz-adv-x="312" 
d="M247 6q0 -76 -41 -119t-110 -43h-70l-14 119h34q33 0 47.5 18.5t14.5 61.5q0 30 -3.5 53t-7.5 45t-4 48q0 40 26 66.5t73 36.5q-47 10 -73 37t-26 67q0 26 4 47.5t7.5 44.5t3.5 54q0 43 -14.5 61t-47.5 18h-34l14 119h70q69 0 110 -43t41 -118q0 -46 -7.5 -78.5
t-7.5 -66.5q0 -85 64 -85v-114q-64 0 -64 -85q0 -34 7.5 -66t7.5 -78z" />
    <glyph glyph-name="asciitilde" unicode="~" horiz-adv-x="484" 
d="M215 291q-21 20 -32 29.5t-17 12.5t-14 3q-16 0 -21.5 -22.5t-7.5 -86.5l-109 10q3 117 33.5 168.5t96.5 51.5q35 0 63 -15.5t62 -49.5l31.5 -28.5t17 -12.5t14.5 -3q16 0 22 22.5t7 86.5l109 -10q-3 -117 -33.5 -168.5t-96.5 -51.5q-34 0 -62 15.5t-63 48.5z" />
    <glyph glyph-name="uni00A0" unicode="&#xa0;" horiz-adv-x="149" 
 />
    <glyph glyph-name="exclamdown" unicode="&#xa1;" horiz-adv-x="246" 
d="M123 351q-39 0 -63.5 24.5t-24.5 64.5q0 39 24.5 64.5t63.5 25.5t63.5 -25.5t24.5 -64.5q0 -40 -24.5 -64.5t-63.5 -24.5zM198 -181h-150l14 468h122z" />
    <glyph glyph-name="cent" unicode="&#xa2;" horiz-adv-x="484" 
d="M278 -35h-86l18 125q-79 24 -122 90t-43 166q0 81 29.5 141.5t84 96t129.5 38.5l16 113h86l-17 -122q35 -9 61 -24l-25 -120q-26 16 -51 23l-43 -290q49 1 100 31l25 -117q-29 -19 -66 -28.5t-76 -9.5h-4zM187 351q0 -86 46 -123l39 265q-40 -12 -62.5 -48.5t-22.5 -93.5
z" />
    <glyph glyph-name="sterling" unicode="&#xa3;" horiz-adv-x="484" 
d="M367 311h-125q2 -13 3.5 -26.5t1.5 -26.5q0 -82 -55 -129h274l-15 -129h-411v108q66 42 66 135q0 17 -2 34t-5 34h-70v84h53q-4 20 -6.5 41t-2.5 42q0 103 60 161.5t164 58.5q93 0 155 -46l-27 -123q-30 23 -54 31.5t-54 8.5q-97 0 -97 -110q0 -16 1.5 -32t4.5 -32h141
v-84z" />
    <glyph glyph-name="currency" unicode="&#xa4;" horiz-adv-x="484" 
d="M474 136l-65 -57l-80 87q-40 -17 -87 -17t-87 17l-80 -87l-65 57l75 82q-20 25 -31.5 57t-11.5 68q0 37 11 68.5t32 55.5l-75 82l65 57l79 -87q40 17 88 17t88 -17l79 87l65 -57l-75 -82q21 -24 32 -55.5t11 -68.5q0 -36 -11.5 -68t-31.5 -57zM242 255q37 0 59.5 24.5
t22.5 63.5q0 38 -22.5 62.5t-59.5 24.5t-59.5 -24.5t-22.5 -62.5q0 -39 22.5 -63.5t59.5 -24.5z" />
    <glyph glyph-name="yen" unicode="&#xa5;" horiz-adv-x="484" 
d="M314 0h-145v112h-122v84h122v67h-122v84h84l-157 337h164l106 -297l107 297h158l-157 -337h84v-84h-122v-67h122v-84h-122v-112z" />
    <glyph glyph-name="brokenbar" unicode="&#xa6;" horiz-adv-x="254" 
d="M55 363v377h144v-377h-144zM55 -216v396h144v-396h-144z" />
    <glyph glyph-name="section" unicode="&#xa7;" horiz-adv-x="446" 
d="M401 8q0 -82 -53 -130t-142 -48q-49 0 -89 11t-78 36l27 112q35 -25 64 -34.5t65 -9.5q29 0 47 13.5t18 41.5q0 20 -11 35.5t-43 31.5l-55 29q-68 36 -95 72t-27 92q0 45 23 82.5t65 65.5q-34 28 -49 60t-15 75q0 80 52.5 126.5t141.5 46.5q42 0 79 -10t67 -32l-27 -112
q-31 22 -55.5 30.5t-56.5 8.5q-62 0 -62 -54q0 -21 11.5 -34.5t43.5 -30.5l54 -28q66 -33 92.5 -70t26.5 -95q0 -88 -84 -146q35 -27 50 -59t15 -76zM162 289q0 -31 12 -47.5t48 -34.5l33 -17q32 32 32 70q0 30 -11 47t-48 36l-33 18q-33 -31 -33 -72z" />
    <glyph glyph-name="dieresis" unicode="&#xa8;" horiz-adv-x="380" 
d="M83 598q-32 0 -52 21t-20 53q0 33 20 53.5t52 20.5t52 -20.5t20 -53.5q0 -32 -20 -53t-52 -21zM297 598q-32 0 -52 21t-20 53q0 33 20 53.5t52 20.5t52 -20.5t20 -53.5q0 -32 -20 -53t-52 -21z" />
    <glyph glyph-name="copyright" unicode="&#xa9;" horiz-adv-x="674" 
d="M337 -16q-93 0 -161.5 46.5t-106.5 129t-38 190.5q0 109 38 191t106.5 128.5t161.5 46.5t161.5 -46.5t106.5 -128.5t38 -191q0 -108 -38 -190.5t-106.5 -129t-161.5 -46.5zM337 66q66 0 114 35t74 99t26 150q0 87 -26 150.5t-74 98.5t-114 35t-114 -35t-74 -98.5
t-26 -150.5q0 -86 26 -150t74 -99t114 -35zM296 351q0 -115 84 -115q14 0 30 5t32 16l20 -91q-19 -13 -45 -20.5t-52 -7.5q-86 0 -135 56t-49 153q0 98 50 156t136 58q24 0 48 -6.5t42 -18.5l-20 -92q-15 11 -29 15t-30 4q-40 0 -61 -29t-21 -83z" />
    <glyph glyph-name="ordfeminine" unicode="&#xaa;" horiz-adv-x="349" 
d="M24 425q0 129 159 133l28 1q-1 37 -15.5 52.5t-47.5 15.5q-24 0 -44 -7.5t-44 -25.5l-17 83q50 35 118 35q149 0 149 -160v-234h-87l-3 50q-25 -60 -92 -60q-48 0 -76 32t-28 85zM123 434q0 -45 38 -45q50 0 50 83v20l-21 -1q-36 -1 -51.5 -14t-15.5 -43z" />
    <glyph glyph-name="guillemotleft" unicode="&#xab;" horiz-adv-x="546" 
d="M133 52l-106 210l106 210h144l-99 -209l99 -211h-144zM372 52l-106 210l106 210h144l-99 -209l99 -211h-144z" />
    <glyph glyph-name="logicalnot" unicode="&#xac;" horiz-adv-x="484" 
d="M26 430h432v-281h-124v163h-308v118z" />
    <glyph glyph-name="registered" unicode="&#xae;" horiz-adv-x="398" 
d="M199 299q-79 0 -125.5 57t-46.5 152t46.5 151.5t125.5 56.5t125.5 -56.5t46.5 -151.5t-46.5 -152t-125.5 -57zM199 343q59 0 91 44t32 121t-32 120.5t-91 43.5t-91 -43.5t-32 -120.5t32 -121t91 -44zM181 402h-59v211h77q37 0 58.5 -20t21.5 -53q0 -38 -28 -58l37 -80
h-63l-26 64h-18v-64zM181 513h14q22 0 22 27q0 26 -22 26h-14v-53z" />
    <glyph glyph-name="macron" unicode="&#xaf;" horiz-adv-x="380" 
d="M29 721h322v-97h-322v97z" />
    <glyph glyph-name="degree" unicode="&#xb0;" horiz-adv-x="410" 
d="M205 698q53 0 93.5 -22t63.5 -60.5t23 -89.5q0 -50 -23 -89t-63.5 -61t-93.5 -22t-93.5 22t-63.5 61t-23 89q0 51 23 89.5t63.5 60.5t93.5 22zM205 442q35 0 55 23t20 61q0 39 -20 61.5t-55 22.5q-34 0 -54.5 -22.5t-20.5 -61.5q0 -38 20.5 -61t54.5 -23z" />
    <glyph glyph-name="plusminus" unicode="&#xb1;" horiz-adv-x="484" 
d="M26 0v118h432v-118h-432zM180 195v163h-154v118h154v163h124v-163h154v-118h-154v-163h-124z" />
    <glyph glyph-name="uni00B2" unicode="&#xb2;" horiz-adv-x="308" 
d="M277 469l-10 -81h-237v67q51 50 81 84q35 41 48 63.5t13 48.5q0 49 -48 49q-40 0 -71 -31l-27 73q23 20 52 30t60 10q61 0 95 -31.5t34 -87.5q0 -34 -14.5 -64.5t-56.5 -80.5q-9 -10 -20.5 -22.5t-24.5 -26.5h126z" />
    <glyph glyph-name="uni00B3" unicode="&#xb3;" horiz-adv-x="308" 
d="M24 409l19 72q34 -24 81 -24q26 0 41 11.5t15 33.5q0 44 -60 44h-33v78h31q59 0 59 43q0 17 -13.5 27.5t-36.5 10.5q-22 0 -42 -6t-34 -18l-19 70q19 15 47.5 23t60.5 8q59 0 93.5 -28t34.5 -77q0 -63 -63 -88q32 -10 50.5 -34t18.5 -58q0 -55 -38.5 -86t-106.5 -31
q-66 0 -105 29z" />
    <glyph glyph-name="acute" unicode="&#xb4;" horiz-adv-x="380" 
d="M229 594h-128l107 156h160z" />
    <glyph glyph-name="paragraph" unicode="&#xb6;" horiz-adv-x="565" 
d="M23 496q0 98 56 151t156 53h278v-847h-128v736h-72v-736h-128v443q-78 12 -120 63.5t-42 136.5z" />
    <glyph glyph-name="periodcentered" unicode="&#xb7;" horiz-adv-x="242" 
d="M121 169q-39 0 -63.5 25.5t-24.5 64.5q0 40 24.5 64.5t63.5 24.5t63.5 -24.5t24.5 -64.5q0 -39 -24.5 -64.5t-63.5 -25.5z" />
    <glyph glyph-name="cedilla" unicode="&#xb8;" horiz-adv-x="380" 
d="M96 -214l18 67q22 -11 53 -11q49 0 49 30q0 26 -44 26q-22 0 -40 -5l25 122h73l-15 -62h2q43 0 66.5 -22.5t23.5 -63.5q0 -45 -34 -70.5t-93 -25.5q-27 0 -46.5 4t-37.5 11z" />
    <glyph glyph-name="uni00B9" unicode="&#xb9;" horiz-adv-x="308" 
d="M223 388h-92v281l-58 -43l-44 68l111 80h83v-386z" />
    <glyph glyph-name="ordmasculine" unicode="&#xba;" horiz-adv-x="384" 
d="M192 308q-75 0 -120 56t-45 147t45 146t120 55t120 -55t45 -146t-45 -147t-120 -56zM192 399q28 0 43 30t15 82q0 50 -15 80t-43 30t-43 -30t-15 -80q0 -52 15 -82t43 -30z" />
    <glyph glyph-name="guillemotright" unicode="&#xbb;" horiz-adv-x="546" 
d="M174 52h-144l99 211l-99 209h144l106 -210zM413 52h-144l99 211l-99 209h144l106 -210z" />
    <glyph glyph-name="onequarter" unicode="&#xbc;" horiz-adv-x="722" 
d="M290 0h-102l244 684h102zM668 0h-86v72h-157v72l151 242h92v-239h42l-9 -75h-33v-72zM582 147v124l-77 -124h77zM223 298h-92v281l-58 -43l-44 68l111 80h83v-386z" />
    <glyph glyph-name="onehalf" unicode="&#xbd;" horiz-adv-x="722" 
d="M275 0h-102l244 684h102zM691 81l-10 -81h-237v67q51 50 81 84q35 41 48 63.5t13 48.5q0 49 -48 49q-40 0 -71 -31l-27 73q23 20 52 30t60 10q61 0 95 -31.5t34 -87.5q0 -34 -14.5 -64.5t-56.5 -80.5q-9 -10 -20.5 -22.5t-24.5 -26.5h126zM223 298h-92v281l-58 -43
l-44 68l111 80h83v-386z" />
    <glyph glyph-name="threequarters" unicode="&#xbe;" horiz-adv-x="722" 
d="M305 0h-102l244 684h102zM668 0h-86v72h-157v72l151 242h92v-239h42l-9 -75h-33v-72zM582 147v124l-77 -124h77zM24 319l19 72q34 -24 81 -24q26 0 41 11.5t15 33.5q0 44 -60 44h-33v78h31q59 0 59 43q0 17 -13.5 27.5t-36.5 10.5q-22 0 -42 -6t-34 -18l-19 70
q19 15 47.5 23t60.5 8q59 0 93.5 -28t34.5 -77q0 -63 -63 -88q32 -10 50.5 -34t18.5 -58q0 -55 -38.5 -86t-106.5 -31q-66 0 -105 29z" />
    <glyph glyph-name="questiondown" unicode="&#xbf;" horiz-adv-x="421" 
d="M241 351q-39 0 -63.5 24.5t-24.5 64.5q0 39 24.5 64.5t63.5 25.5t63.5 -25.5t24.5 -64.5q0 -40 -24.5 -64.5t-63.5 -24.5zM181 272v15h120v-15q0 -52 -13.5 -88t-47.5 -68q-34 -34 -49 -58t-15 -55q0 -74 80 -74q31 0 59 10.5t50 29.5l34 -118q-33 -22 -75 -35t-89 -13
q-97 0 -151.5 49t-54.5 137q0 54 22.5 92.5t69.5 80.5q35 30 47.5 55t12.5 55z" />
    <glyph glyph-name="Agrave" unicode="&#xc0;" horiz-adv-x="607" 
d="M435 0l-38 152h-192l-39 -152h-158l218 700h155l218 -700h-164zM237 279h128l-64 253zM251 772l-147 130h176l124 -130h-153z" />
    <glyph glyph-name="Aacute" unicode="&#xc1;" horiz-adv-x="607" 
d="M435 0l-38 152h-192l-39 -152h-158l218 700h155l218 -700h-164zM237 279h128l-64 253zM357 772h-153l124 130h176z" />
    <glyph glyph-name="Acircumflex" unicode="&#xc2;" horiz-adv-x="607" 
d="M435 0l-38 152h-192l-39 -152h-158l218 700h155l218 -700h-164zM237 279h128l-64 253zM240 772h-126l123 130h134l123 -130h-128l-63 57z" />
    <glyph glyph-name="Atilde" unicode="&#xc3;" horiz-adv-x="607" 
d="M435 0l-38 152h-192l-39 -152h-158l218 700h155l218 -700h-164zM237 279h128l-64 253zM484 909q-1 -67 -29.5 -103t-80.5 -36q-24 0 -44 8t-49 29q-25 18 -36 18q-30 0 -30 -55l-91 11q2 67 30 103t80 36q24 0 43.5 -7.5t49.5 -29.5q13 -9 21 -13.5t15 -4.5q30 0 30 55z
" />
    <glyph glyph-name="Adieresis" unicode="&#xc4;" horiz-adv-x="607" 
d="M435 0l-38 152h-192l-39 -152h-158l218 700h155l218 -700h-164zM237 279h128l-64 253zM191 769q-33 0 -53 21t-20 54t20 53.5t53 20.5t53 -20.5t20 -53.5t-20 -54t-53 -21zM417 769q-33 0 -53 21t-20 54t20 53.5t53 20.5t53 -20.5t20 -53.5t-20 -54t-53 -21z" />
    <glyph glyph-name="Aring" unicode="&#xc5;" horiz-adv-x="607" 
d="M435 0l-38 152h-192l-39 -152h-158l218 700h155l218 -700h-164zM237 279h128l-64 253zM304 977q52 0 85 -30t33 -77q0 -46 -33 -76.5t-85 -30.5t-85 30.5t-33 76.5q0 47 33 77t85 30zM304 820q25 0 38.5 14t13.5 36q0 23 -13.5 36.5t-38.5 13.5t-38.5 -13.5t-13.5 -36.5
q0 -22 13.5 -36t38.5 -14z" />
    <glyph glyph-name="AE" unicode="&#xc6;" horiz-adv-x="870" 
d="M440 0v152h-203l-64 -152h-165l322 700h492l15 -127h-251v-154h225v-127h-225v-165h267l-15 -127h-398zM440 573h-27l-123 -294h150v294z" />
    <glyph glyph-name="Ccedilla" unicode="&#xc7;" horiz-adv-x="557" 
d="M31 346q0 111 39 194.5t110.5 129.5t170.5 46q46 0 92 -12.5t81 -35.5l-29 -131q-33 23 -65.5 34t-68.5 11q-82 0 -127.5 -60.5t-45.5 -169.5q0 -112 44.5 -173t128.5 -61q36 0 70.5 11t71.5 36l27 -128q-37 -25 -85 -39t-97 -14q-99 0 -170 43.5t-109 124.5t-38 194z
M335 -229q-28 0 -48.5 4t-39.5 11l18 70q23 -12 57 -12q53 0 53 28q0 25 -48 25q-23 0 -41 -5l25 123h75l-15 -61h1q44 0 69 -23t25 -64q0 -45 -35 -70.5t-96 -25.5z" />
    <glyph glyph-name="Egrave" unicode="&#xc8;" horiz-adv-x="494" 
d="M52 0v700h394l15 -127h-261v-154h235v-127h-235v-165h277l-15 -127h-410zM210 772l-147 130h176l124 -130h-153z" />
    <glyph glyph-name="Eacute" unicode="&#xc9;" horiz-adv-x="494" 
d="M52 0v700h394l15 -127h-261v-154h235v-127h-235v-165h277l-15 -127h-410zM316 772h-153l124 130h176z" />
    <glyph glyph-name="Ecircumflex" unicode="&#xca;" horiz-adv-x="494" 
d="M52 0v700h394l15 -127h-261v-154h235v-127h-235v-165h277l-15 -127h-410zM199 772h-126l123 130h134l123 -130h-128l-63 57z" />
    <glyph glyph-name="Edieresis" unicode="&#xcb;" horiz-adv-x="494" 
d="M52 0v700h394l15 -127h-261v-154h235v-127h-235v-165h277l-15 -127h-410zM150 769q-33 0 -53 21t-20 54t20 53.5t53 20.5t53 -20.5t20 -53.5t-20 -54t-53 -21zM376 769q-33 0 -53 21t-20 54t20 53.5t53 20.5t53 -20.5t20 -53.5t-20 -54t-53 -21z" />
    <glyph glyph-name="Igrave" unicode="&#xcc;" horiz-adv-x="255" 
d="M52 0v700h151v-700h-151zM75 772l-147 130h176l124 -130h-153z" />
    <glyph glyph-name="Iacute" unicode="&#xcd;" horiz-adv-x="255" 
d="M52 0v700h151v-700h-151zM181 772h-153l124 130h176z" />
    <glyph glyph-name="Icircumflex" unicode="&#xce;" horiz-adv-x="255" 
d="M52 0v700h151v-700h-151zM64 772h-126l123 130h134l123 -130h-128l-63 57z" />
    <glyph glyph-name="Idieresis" unicode="&#xcf;" horiz-adv-x="255" 
d="M52 0v700h151v-700h-151zM15 769q-33 0 -53 21t-20 54t20 53.5t53 20.5t53 -20.5t20 -53.5t-20 -54t-53 -21zM241 769q-33 0 -53 21t-20 54t20 53.5t53 20.5t53 -20.5t20 -53.5t-20 -54t-53 -21z" />
    <glyph glyph-name="Eth" unicode="&#xd0;" horiz-adv-x="622" 
d="M300 0h-234v311h-54v109h54v280h234q137 0 214 -91.5t77 -258.5q0 -166 -77 -258t-214 -92zM286 132q148 0 148 218t-148 218h-71v-148h104v-109h-104v-179h71z" />
    <glyph glyph-name="Ntilde" unicode="&#xd1;" horiz-adv-x="602" 
d="M52 0v700h156l200 -447v447h142v-700h-152l-204 451v-451h-142zM490 909q-1 -67 -29.5 -103t-80.5 -36q-24 0 -44 8t-49 29q-25 18 -36 18q-30 0 -30 -55l-91 11q2 67 30 103t80 36q24 0 43.5 -7.5t49.5 -29.5q13 -9 21 -13.5t15 -4.5q30 0 30 55z" />
    <glyph glyph-name="Ograve" unicode="&#xd2;" horiz-adv-x="654" 
d="M327 -16q-90 0 -156.5 45.5t-103 128t-36.5 192.5t36.5 192.5t103 128t156.5 45.5t156.5 -45.5t103 -128t36.5 -192.5t-36.5 -192.5t-103 -128t-156.5 -45.5zM327 118q68 0 103.5 62t35.5 170t-35.5 170t-103.5 62q-67 0 -103 -62t-36 -170t36 -170t103 -62zM274 772
l-147 130h176l124 -130h-153z" />
    <glyph glyph-name="Oacute" unicode="&#xd3;" horiz-adv-x="654" 
d="M327 -16q-90 0 -156.5 45.5t-103 128t-36.5 192.5t36.5 192.5t103 128t156.5 45.5t156.5 -45.5t103 -128t36.5 -192.5t-36.5 -192.5t-103 -128t-156.5 -45.5zM327 118q68 0 103.5 62t35.5 170t-35.5 170t-103.5 62q-67 0 -103 -62t-36 -170t36 -170t103 -62zM380 772
h-153l124 130h176z" />
    <glyph glyph-name="Ocircumflex" unicode="&#xd4;" horiz-adv-x="654" 
d="M327 -16q-90 0 -156.5 45.5t-103 128t-36.5 192.5t36.5 192.5t103 128t156.5 45.5t156.5 -45.5t103 -128t36.5 -192.5t-36.5 -192.5t-103 -128t-156.5 -45.5zM327 118q68 0 103.5 62t35.5 170t-35.5 170t-103.5 62q-67 0 -103 -62t-36 -170t36 -170t103 -62zM263 772
h-126l123 130h134l123 -130h-128l-63 57z" />
    <glyph glyph-name="Otilde" unicode="&#xd5;" horiz-adv-x="654" 
d="M327 -16q-90 0 -156.5 45.5t-103 128t-36.5 192.5t36.5 192.5t103 128t156.5 45.5t156.5 -45.5t103 -128t36.5 -192.5t-36.5 -192.5t-103 -128t-156.5 -45.5zM327 118q68 0 103.5 62t35.5 170t-35.5 170t-103.5 62q-67 0 -103 -62t-36 -170t36 -170t103 -62zM507 909
q-1 -67 -29.5 -103t-80.5 -36q-24 0 -44 8t-49 29q-25 18 -36 18q-30 0 -30 -55l-91 11q2 67 30 103t80 36q24 0 43.5 -7.5t49.5 -29.5q13 -9 21 -13.5t15 -4.5q30 0 30 55z" />
    <glyph glyph-name="Odieresis" unicode="&#xd6;" horiz-adv-x="654" 
d="M327 -16q-90 0 -156.5 45.5t-103 128t-36.5 192.5t36.5 192.5t103 128t156.5 45.5t156.5 -45.5t103 -128t36.5 -192.5t-36.5 -192.5t-103 -128t-156.5 -45.5zM327 118q68 0 103.5 62t35.5 170t-35.5 170t-103.5 62q-67 0 -103 -62t-36 -170t36 -170t103 -62zM214 769
q-33 0 -53 21t-20 54t20 53.5t53 20.5t53 -20.5t20 -53.5t-20 -54t-53 -21zM440 769q-33 0 -53 21t-20 54t20 53.5t53 20.5t53 -20.5t20 -53.5t-20 -54t-53 -21z" />
    <glyph glyph-name="multiply" unicode="&#xd7;" horiz-adv-x="484" 
d="M367 135l-125 126l-125 -126l-82 82l126 125l-126 126l82 81l125 -125l125 125l82 -81l-126 -126l126 -125z" />
    <glyph glyph-name="Oslash" unicode="&#xd8;" horiz-adv-x="654" 
d="M327 -16q-76 0 -137 34l-42 -71l-88 56l50 84q-38 48 -58.5 115t-20.5 148q0 110 36.5 192.5t103 128t156.5 45.5q76 0 137 -34l42 71l88 -56l-50 -84q38 -48 58.5 -115t20.5 -148q0 -110 -36.5 -192.5t-103 -128t-156.5 -45.5zM186 350q0 -68 14 -118l197 330
q-30 22 -70 22q-68 0 -104.5 -62.5t-36.5 -171.5zM327 116q68 0 104.5 62.5t36.5 171.5q0 68 -14 118l-196 -330q29 -22 69 -22z" />
    <glyph glyph-name="Ugrave" unicode="&#xd9;" horiz-adv-x="590" 
d="M49 269v431h151v-418q0 -85 22 -124.5t73 -39.5t73 39.5t22 124.5v418h151v-431q0 -139 -64 -212t-187 -73q-119 0 -180 72.5t-61 212.5zM243 772l-147 130h176l124 -130h-153z" />
    <glyph glyph-name="Uacute" unicode="&#xda;" horiz-adv-x="590" 
d="M49 269v431h151v-418q0 -85 22 -124.5t73 -39.5t73 39.5t22 124.5v418h151v-431q0 -139 -64 -212t-187 -73q-119 0 -180 72.5t-61 212.5zM349 772h-153l124 130h176z" />
    <glyph glyph-name="Ucircumflex" unicode="&#xdb;" horiz-adv-x="590" 
d="M49 269v431h151v-418q0 -85 22 -124.5t73 -39.5t73 39.5t22 124.5v418h151v-431q0 -139 -64 -212t-187 -73q-119 0 -180 72.5t-61 212.5zM232 772h-126l123 130h134l123 -130h-128l-63 57z" />
    <glyph glyph-name="Udieresis" unicode="&#xdc;" horiz-adv-x="590" 
d="M49 269v431h151v-418q0 -85 22 -124.5t73 -39.5t73 39.5t22 124.5v418h151v-431q0 -139 -64 -212t-187 -73q-119 0 -180 72.5t-61 212.5zM183 769q-33 0 -53 21t-20 54t20 53.5t53 20.5t53 -20.5t20 -53.5t-20 -54t-53 -21zM409 769q-33 0 -53 21t-20 54t20 53.5t53 20.5
t53 -20.5t20 -53.5t-20 -54t-53 -21z" />
    <glyph glyph-name="Yacute" unicode="&#xdd;" horiz-adv-x="587" 
d="M218 0v277l-209 423h173l114 -295l115 295h167l-209 -423v-277h-151zM351 772h-153l124 130h176z" />
    <glyph glyph-name="Thorn" unicode="&#xde;" horiz-adv-x="511" 
d="M198 700v-113h66q102 0 161.5 -62.5t59.5 -168.5t-59.5 -168.5t-161.5 -62.5h-66v-125h-146v700h146zM252 246q40 0 60 29t20 81q0 53 -20 81.5t-60 28.5h-54v-220h54z" />
    <glyph glyph-name="germandbls" unicode="&#xdf;" horiz-adv-x="523" 
d="M307 -13q-56 0 -92 18l25 114q18 -11 45 -11q65 0 65 100t-89 100h-27v120h14q35 0 54 28t19 79q0 97 -65 97q-34 0 -52 -27.5t-18 -79.5v-525h-144v515q0 113 58 175.5t162 62.5q95 0 148.5 -54t53.5 -149q0 -61 -23 -104t-64 -63q57 -16 88 -63.5t31 -121.5
q0 -98 -50 -154.5t-139 -56.5z" />
    <glyph glyph-name="agrave" unicode="&#xe0;" horiz-adv-x="464" 
d="M423 317v-317h-120l-4 66q-36 -79 -128 -79q-66 0 -105 43t-39 116q0 88 55 132t173 46l31 1q-1 49 -21 70t-68 21q-33 0 -61 -9.5t-60 -33.5l-24 112q35 24 76.5 36t86.5 12q208 0 208 -216zM162 161q0 -64 55 -64q35 0 52 28.5t17 81.5v33l-21 -1q-56 -1 -79.5 -19
t-23.5 -59zM187 594l-139 156h160l107 -156h-128z" />
    <glyph glyph-name="aacute" unicode="&#xe1;" horiz-adv-x="464" 
d="M423 317v-317h-120l-4 66q-36 -79 -128 -79q-66 0 -105 43t-39 116q0 88 55 132t173 46l31 1q-1 49 -21 70t-68 21q-33 0 -61 -9.5t-60 -33.5l-24 112q35 24 76.5 36t86.5 12q208 0 208 -216zM162 161q0 -64 55 -64q35 0 52 28.5t17 81.5v33l-21 -1q-56 -1 -79.5 -19
t-23.5 -59zM265 594h-128l107 156h160z" />
    <glyph glyph-name="acircumflex" unicode="&#xe2;" horiz-adv-x="464" 
d="M423 317v-317h-120l-4 66q-36 -79 -128 -79q-66 0 -105 43t-39 116q0 88 55 132t173 46l31 1q-1 49 -21 70t-68 21q-33 0 -61 -9.5t-60 -33.5l-24 112q35 24 76.5 36t86.5 12q208 0 208 -216zM162 161q0 -64 55 -64q35 0 52 28.5t17 81.5v33l-21 -1q-56 -1 -79.5 -19
t-23.5 -59zM170 594h-118l112 156h124l112 -156h-120l-55 70z" />
    <glyph glyph-name="atilde" unicode="&#xe3;" horiz-adv-x="464" 
d="M423 317v-317h-120l-4 66q-36 -79 -128 -79q-66 0 -105 43t-39 116q0 88 55 132t173 46l31 1q-1 49 -21 70t-68 21q-33 0 -61 -9.5t-60 -33.5l-24 112q35 24 76.5 36t86.5 12q208 0 208 -216zM162 161q0 -64 55 -64q35 0 52 28.5t17 81.5v33l-21 -1q-56 -1 -79.5 -19
t-23.5 -59zM58 603q0 71 26.5 110t73.5 39q23 0 42.5 -9t41.5 -30q15 -15 22.5 -20.5t15.5 -5.5q16 0 21.5 15.5t6.5 49.5l86 -11q0 -70 -26.5 -109.5t-73.5 -39.5q-22 0 -41.5 8.5t-42.5 30.5q-15 15 -22.5 20.5t-15.5 5.5q-16 0 -21.5 -15t-6.5 -50z" />
    <glyph glyph-name="adieresis" unicode="&#xe4;" horiz-adv-x="464" 
d="M423 317v-317h-120l-4 66q-36 -79 -128 -79q-66 0 -105 43t-39 116q0 88 55 132t173 46l31 1q-1 49 -21 70t-68 21q-33 0 -61 -9.5t-60 -33.5l-24 112q35 24 76.5 36t86.5 12q208 0 208 -216zM162 161q0 -64 55 -64q35 0 52 28.5t17 81.5v33l-21 -1q-56 -1 -79.5 -19
t-23.5 -59zM119 598q-32 0 -52 21t-20 53q0 33 20 53.5t52 20.5t52 -20.5t20 -53.5q0 -32 -20 -53t-52 -21zM333 598q-32 0 -52 21t-20 53q0 33 20 53.5t52 20.5t52 -20.5t20 -53.5q0 -32 -20 -53t-52 -21z" />
    <glyph glyph-name="aring" unicode="&#xe5;" horiz-adv-x="464" 
d="M423 317v-317h-120l-4 66q-36 -79 -128 -79q-66 0 -105 43t-39 116q0 88 55 132t173 46l31 1q-1 49 -21 70t-68 21q-33 0 -61 -9.5t-60 -33.5l-24 112q35 24 76.5 36t86.5 12q208 0 208 -216zM162 161q0 -64 55 -64q35 0 52 28.5t17 81.5v33l-21 -1q-56 -1 -79.5 -19
t-23.5 -59zM226 796q50 0 82 -29.5t32 -76.5t-32 -77t-82 -30t-82 30t-32 77t32 76.5t82 29.5zM226 638q23 0 36.5 14.5t13.5 37.5t-13.5 37t-36.5 14t-36.5 -14t-13.5 -37t13.5 -37.5t36.5 -14.5z" />
    <glyph glyph-name="ae" unicode="&#xe6;" horiz-adv-x="713" 
d="M667 29q-66 -42 -157 -42q-60 0 -105 26.5t-72 76.5q-22 -49 -64 -76t-99 -27q-65 0 -104 41.5t-39 111.5q0 85 53 125.5t165 43.5l35 1v7q0 53 -19.5 76t-66.5 23q-32 0 -59 -9.5t-59 -33.5l-24 112q34 24 75 36t85 12q96 0 142 -64q52 64 137 64q94 0 144.5 -70.5
t50.5 -201.5q0 -22 -3 -42h-267q15 -114 113 -114q32 0 58 8.5t56 28.5zM489 424q-64 0 -72 -114h138q-3 61 -18.5 87.5t-47.5 26.5zM161 154q0 -26 13.5 -41t38.5 -15q33 0 50 28.5t17 80.5v16h-25q-50 -1 -72 -17t-22 -52z" />
    <glyph glyph-name="ccedilla" unicode="&#xe7;" horiz-adv-x="432" 
d="M29 256q0 83 30 145t86 97t133 35q32 0 65 -8.5t58 -24.5l-26 -122q-41 28 -87 28q-53 0 -83 -38t-30 -107q0 -71 29.5 -109t84.5 -38q46 0 93 30l25 -119q-28 -19 -62.5 -28.5t-70.5 -9.5q-115 0 -180 72t-65 197zM180 -214l18 67q22 -11 53 -11q49 0 49 30q0 26 -44 26
q-22 0 -40 -5l25 122h73l-15 -62h2q43 0 66.5 -22.5t23.5 -63.5q0 -45 -34 -70.5t-93 -25.5q-27 0 -46.5 4t-37.5 11z" />
    <glyph glyph-name="egrave" unicode="&#xe8;" horiz-adv-x="468" 
d="M441 261q0 -22 -3 -42h-273q15 -114 116 -114q33 0 59.5 8.5t57.5 28.5l24 -113q-67 -42 -161 -42q-109 0 -170.5 72.5t-61.5 199.5q0 84 26 145.5t74 95t114 33.5q95 0 146.5 -70.5t51.5 -201.5zM241 424q-65 0 -75 -114h144q-4 61 -19.5 87.5t-49.5 26.5zM204 594
l-139 156h160l107 -156h-128z" />
    <glyph glyph-name="eacute" unicode="&#xe9;" horiz-adv-x="468" 
d="M441 261q0 -22 -3 -42h-273q15 -114 116 -114q33 0 59.5 8.5t57.5 28.5l24 -113q-67 -42 -161 -42q-109 0 -170.5 72.5t-61.5 199.5q0 84 26 145.5t74 95t114 33.5q95 0 146.5 -70.5t51.5 -201.5zM241 424q-65 0 -75 -114h144q-4 61 -19.5 87.5t-49.5 26.5zM282 594h-128
l107 156h160z" />
    <glyph glyph-name="ecircumflex" unicode="&#xea;" horiz-adv-x="468" 
d="M441 261q0 -22 -3 -42h-273q15 -114 116 -114q33 0 59.5 8.5t57.5 28.5l24 -113q-67 -42 -161 -42q-109 0 -170.5 72.5t-61.5 199.5q0 84 26 145.5t74 95t114 33.5q95 0 146.5 -70.5t51.5 -201.5zM241 424q-65 0 -75 -114h144q-4 61 -19.5 87.5t-49.5 26.5zM187 594h-118
l112 156h124l112 -156h-120l-55 70z" />
    <glyph glyph-name="edieresis" unicode="&#xeb;" horiz-adv-x="468" 
d="M441 261q0 -22 -3 -42h-273q15 -114 116 -114q33 0 59.5 8.5t57.5 28.5l24 -113q-67 -42 -161 -42q-109 0 -170.5 72.5t-61.5 199.5q0 84 26 145.5t74 95t114 33.5q95 0 146.5 -70.5t51.5 -201.5zM241 424q-65 0 -75 -114h144q-4 61 -19.5 87.5t-49.5 26.5zM136 598
q-32 0 -52 21t-20 53q0 33 20 53.5t52 20.5t52 -20.5t20 -53.5q0 -32 -20 -53t-52 -21zM350 598q-32 0 -52 21t-20 53q0 33 20 53.5t52 20.5t52 -20.5t20 -53.5q0 -32 -20 -53t-52 -21z" />
    <glyph glyph-name="igrave" unicode="&#xec;" horiz-adv-x="234" 
d="M45 0v520h144v-520h-144zM78 594l-139 156h160l107 -156h-128z" />
    <glyph glyph-name="iacute" unicode="&#xed;" horiz-adv-x="234" 
d="M45 0v520h144v-520h-144zM156 594h-128l107 156h160z" />
    <glyph glyph-name="icircumflex" unicode="&#xee;" horiz-adv-x="234" 
d="M45 0v520h144v-520h-144zM61 594h-118l112 156h124l112 -156h-120l-55 70z" />
    <glyph glyph-name="idieresis" unicode="&#xef;" horiz-adv-x="234" 
d="M45 0v520h144v-520h-144zM10 598q-32 0 -52 21t-20 53q0 33 20 53.5t52 20.5t52 -20.5t20 -53.5q0 -32 -20 -53t-52 -21zM224 598q-32 0 -52 21t-20 53q0 33 20 53.5t52 20.5t52 -20.5t20 -53.5q0 -32 -20 -53t-52 -21z" />
    <glyph glyph-name="eth" unicode="&#xf0;" horiz-adv-x="504" 
d="M435 668l-72 -36q112 -149 112 -359q0 -132 -61 -209t-168 -77q-66 0 -115 31.5t-75.5 89.5t-26.5 135q0 76 22.5 132t63.5 87t96 31q76 0 115 -66q-19 84 -72 153l-119 -59l-35 78l93 45q-29 25 -63 47l109 62q35 -25 65 -54l96 47zM252 110q40 0 59.5 34.5t19.5 98.5
q0 62 -19.5 97t-59.5 35q-39 0 -59 -35t-20 -97q0 -64 20 -98.5t59 -34.5z" />
    <glyph glyph-name="ntilde" unicode="&#xf1;" horiz-adv-x="492" 
d="M451 324v-324h-144v300q0 55 -11 78.5t-43 23.5q-64 0 -64 -109v-293h-144v520h127l5 -79q16 44 49 68t78 24q147 0 147 -209zM90 603q0 71 26.5 110t73.5 39q23 0 42.5 -9t41.5 -30q15 -15 22.5 -20.5t15.5 -5.5q16 0 21.5 15.5t6.5 49.5l86 -11q0 -70 -26.5 -109.5
t-73.5 -39.5q-22 0 -41.5 8.5t-42.5 30.5q-15 15 -22.5 20.5t-15.5 5.5q-16 0 -21.5 -15t-6.5 -50z" />
    <glyph glyph-name="ograve" unicode="&#xf2;" horiz-adv-x="504" 
d="M252 -13q-67 0 -117.5 34t-78 95.5t-27.5 143.5t27.5 143.5t78 95.5t117.5 34q68 0 118 -34t77.5 -95.5t27.5 -143.5t-27.5 -143.5t-77.5 -95.5t-118 -34zM252 114q39 0 58 38.5t19 107.5t-19 107.5t-58 38.5t-58 -38.5t-19 -107.5t19 -107.5t58 -38.5zM213 594l-139 156
h160l107 -156h-128z" />
    <glyph glyph-name="oacute" unicode="&#xf3;" horiz-adv-x="504" 
d="M252 -13q-67 0 -117.5 34t-78 95.5t-27.5 143.5t27.5 143.5t78 95.5t117.5 34q68 0 118 -34t77.5 -95.5t27.5 -143.5t-27.5 -143.5t-77.5 -95.5t-118 -34zM252 114q39 0 58 38.5t19 107.5t-19 107.5t-58 38.5t-58 -38.5t-19 -107.5t19 -107.5t58 -38.5zM291 594h-128
l107 156h160z" />
    <glyph glyph-name="ocircumflex" unicode="&#xf4;" horiz-adv-x="504" 
d="M252 -13q-67 0 -117.5 34t-78 95.5t-27.5 143.5t27.5 143.5t78 95.5t117.5 34q68 0 118 -34t77.5 -95.5t27.5 -143.5t-27.5 -143.5t-77.5 -95.5t-118 -34zM252 114q39 0 58 38.5t19 107.5t-19 107.5t-58 38.5t-58 -38.5t-19 -107.5t19 -107.5t58 -38.5zM196 594h-118
l112 156h124l112 -156h-120l-55 70z" />
    <glyph glyph-name="otilde" unicode="&#xf5;" horiz-adv-x="504" 
d="M252 -13q-67 0 -117.5 34t-78 95.5t-27.5 143.5t27.5 143.5t78 95.5t117.5 34q68 0 118 -34t77.5 -95.5t27.5 -143.5t-27.5 -143.5t-77.5 -95.5t-118 -34zM252 114q39 0 58 38.5t19 107.5t-19 107.5t-58 38.5t-58 -38.5t-19 -107.5t19 -107.5t58 -38.5zM84 603
q0 71 26.5 110t73.5 39q23 0 42.5 -9t41.5 -30q15 -15 22.5 -20.5t15.5 -5.5q16 0 21.5 15.5t6.5 49.5l86 -11q0 -70 -26.5 -109.5t-73.5 -39.5q-22 0 -41.5 8.5t-42.5 30.5q-15 15 -22.5 20.5t-15.5 5.5q-16 0 -21.5 -15t-6.5 -50z" />
    <glyph glyph-name="odieresis" unicode="&#xf6;" horiz-adv-x="504" 
d="M252 -13q-67 0 -117.5 34t-78 95.5t-27.5 143.5t27.5 143.5t78 95.5t117.5 34q68 0 118 -34t77.5 -95.5t27.5 -143.5t-27.5 -143.5t-77.5 -95.5t-118 -34zM252 114q39 0 58 38.5t19 107.5t-19 107.5t-58 38.5t-58 -38.5t-19 -107.5t19 -107.5t58 -38.5zM145 598
q-32 0 -52 21t-20 53q0 33 20 53.5t52 20.5t52 -20.5t20 -53.5q0 -32 -20 -53t-52 -21zM359 598q-32 0 -52 21t-20 53q0 33 20 53.5t52 20.5t52 -20.5t20 -53.5q0 -32 -20 -53t-52 -21z" />
    <glyph glyph-name="divide" unicode="&#xf7;" horiz-adv-x="484" 
d="M242 460q-37 0 -60 23.5t-23 60.5q0 38 23 61.5t60 23.5q38 0 60.5 -23.5t22.5 -61.5q0 -37 -22.5 -60.5t-60.5 -23.5zM458 283h-432v118h432v-118zM242 55q-37 0 -60 23.5t-23 60.5q0 38 23 61.5t60 23.5q38 0 60.5 -23.5t22.5 -61.5q0 -37 -22.5 -60.5t-60.5 -23.5z
" />
    <glyph glyph-name="oslash" unicode="&#xf8;" horiz-adv-x="504" 
d="M252 -13q-56 0 -101 24l-34 -56l-70 47l40 64q-28 36 -43 85t-15 109q0 82 27.5 143.5t78 95.5t117.5 34q56 0 101 -24l34 56l70 -47l-40 -64q28 -36 43 -85t15 -109q0 -82 -27.5 -143.5t-77.5 -95.5t-118 -34zM173 260q0 -30 3 -54l114 190q-16 12 -38 12
q-40 0 -59.5 -39t-19.5 -109zM252 112q40 0 59.5 39t19.5 109q0 30 -3 54l-114 -190q16 -12 38 -12z" />
    <glyph glyph-name="ugrave" unicode="&#xf9;" horiz-adv-x="486" 
d="M314 0l-5 77q-16 -44 -48 -67t-76 -23q-144 0 -144 209v324h144v-300q0 -55 10.5 -78.5t40.5 -23.5q61 0 61 109v293h144v-520h-127zM202 594l-139 156h160l107 -156h-128z" />
    <glyph glyph-name="uacute" unicode="&#xfa;" horiz-adv-x="486" 
d="M314 0l-5 77q-16 -44 -48 -67t-76 -23q-144 0 -144 209v324h144v-300q0 -55 10.5 -78.5t40.5 -23.5q61 0 61 109v293h144v-520h-127zM280 594h-128l107 156h160z" />
    <glyph glyph-name="ucircumflex" unicode="&#xfb;" horiz-adv-x="486" 
d="M314 0l-5 77q-16 -44 -48 -67t-76 -23q-144 0 -144 209v324h144v-300q0 -55 10.5 -78.5t40.5 -23.5q61 0 61 109v293h144v-520h-127zM185 594h-118l112 156h124l112 -156h-120l-55 70z" />
    <glyph glyph-name="udieresis" unicode="&#xfc;" horiz-adv-x="486" 
d="M314 0l-5 77q-16 -44 -48 -67t-76 -23q-144 0 -144 209v324h144v-300q0 -55 10.5 -78.5t40.5 -23.5q61 0 61 109v293h144v-520h-127zM134 598q-32 0 -52 21t-20 53q0 33 20 53.5t52 20.5t52 -20.5t20 -53.5q0 -32 -20 -53t-52 -21zM348 598q-32 0 -52 21t-20 53
q0 33 20 53.5t52 20.5t52 -20.5t20 -53.5q0 -32 -20 -53t-52 -21z" />
    <glyph glyph-name="yacute" unicode="&#xfd;" horiz-adv-x="492" 
d="M32 -210l15 119q23 -13 60 -13q28 0 41.5 15t27.5 55l-170 554h156l82 -377l92 377h150l-172 -544q-23 -73 -47 -118.5t-58 -66t-87 -20.5q-28 0 -48.5 4.5t-41.5 14.5zM285 594h-128l107 156h160z" />
    <glyph glyph-name="thorn" unicode="&#xfe;" horiz-adv-x="512" 
d="M303 -13q-75 0 -114 65v-268h-144v956h144v-275q40 68 119 68q53 0 92.5 -34.5t61 -95.5t21.5 -143q0 -80 -22.5 -141.5t-63 -96.5t-94.5 -35zM179 260q0 -69 20 -107.5t59 -38.5q40 0 59.5 38.5t19.5 107.5t-19.5 107.5t-58.5 38.5q-40 0 -60 -38t-20 -108z" />
    <glyph glyph-name="ydieresis" unicode="&#xff;" horiz-adv-x="492" 
d="M32 -210l15 119q23 -13 60 -13q28 0 41.5 15t27.5 55l-170 554h156l82 -377l92 377h150l-172 -544q-23 -73 -47 -118.5t-58 -66t-87 -20.5q-28 0 -48.5 4.5t-41.5 14.5zM139 598q-32 0 -52 21t-20 53q0 33 20 53.5t52 20.5t52 -20.5t20 -53.5q0 -32 -20 -53t-52 -21z
M353 598q-32 0 -52 21t-20 53q0 33 20 53.5t52 20.5t52 -20.5t20 -53.5q0 -32 -20 -53t-52 -21z" />
    <glyph glyph-name="Amacron" unicode="&#x100;" horiz-adv-x="607" 
d="M435 0l-38 152h-192l-39 -152h-158l218 700h155l218 -700h-164zM237 279h128l-64 253zM129 886h350v-98h-350v98z" />
    <glyph glyph-name="amacron" unicode="&#x101;" horiz-adv-x="464" 
d="M423 317v-317h-120l-4 66q-36 -79 -128 -79q-66 0 -105 43t-39 116q0 88 55 132t173 46l31 1q-1 49 -21 70t-68 21q-33 0 -61 -9.5t-60 -33.5l-24 112q35 24 76.5 36t86.5 12q208 0 208 -216zM162 161q0 -64 55 -64q35 0 52 28.5t17 81.5v33l-21 -1q-56 -1 -79.5 -19
t-23.5 -59zM65 721h322v-97h-322v97z" />
    <glyph glyph-name="Abreve" unicode="&#x102;" horiz-adv-x="607" 
d="M435 0l-38 152h-192l-39 -152h-158l218 700h155l218 -700h-164zM237 279h128l-64 253zM304 852q35 0 50.5 16t17.5 50l96 -11q0 -64 -43.5 -101t-120.5 -37t-120.5 37t-43.5 101l96 11q2 -34 18 -50t50 -16z" />
    <glyph glyph-name="abreve" unicode="&#x103;" horiz-adv-x="464" 
d="M423 317v-317h-120l-4 66q-36 -79 -128 -79q-66 0 -105 43t-39 116q0 88 55 132t173 46l31 1q-1 49 -21 70t-68 21q-33 0 -61 -9.5t-60 -33.5l-24 112q35 24 76.5 36t86.5 12q208 0 208 -216zM162 161q0 -64 55 -64q35 0 52 28.5t17 81.5v33l-21 -1q-56 -1 -79.5 -19
t-23.5 -59zM226 673q53 0 57 76l88 -10q0 -69 -38.5 -108t-106.5 -39t-106.5 39t-38.5 108l88 10q4 -76 57 -76z" />
    <glyph glyph-name="Aogonek" unicode="&#x104;" horiz-adv-x="607" 
d="M435 0l-38 152h-192l-39 -152h-158l218 700h155l218 -700h-164zM237 279h128l-64 253zM494 -109q0 -37 43 -37q27 0 45 11l17 -78q-33 -16 -82 -16q-55 0 -86 25t-31 68q0 48 39 90.5t111 72.5l49 -27q-105 -49 -105 -109z" />
    <glyph glyph-name="aogonek" unicode="&#x105;" horiz-adv-x="464" 
d="M423 317v-317h-120l-4 66q-36 -79 -128 -79q-66 0 -105 43t-39 116q0 88 55 132t173 46l31 1q-1 49 -21 70t-68 21q-33 0 -61 -9.5t-60 -33.5l-24 112q35 24 76.5 36t86.5 12q208 0 208 -216zM162 161q0 -64 55 -64q35 0 52 28.5t17 81.5v33l-21 -1q-56 -1 -79.5 -19
t-23.5 -59zM232 -137q0 48 37 90.5t105 73.5l49 -27q-99 -49 -99 -110q0 -38 41 -38q25 0 41 11l17 -76q-32 -16 -78 -16q-55 0 -84 25t-29 67z" />
    <glyph glyph-name="Cacute" unicode="&#x106;" horiz-adv-x="557" 
d="M31 346q0 111 39 194.5t110.5 129.5t170.5 46q46 0 92 -12.5t81 -35.5l-29 -131q-33 23 -65.5 34t-68.5 11q-82 0 -127.5 -60.5t-45.5 -169.5q0 -112 44.5 -173t128.5 -61q36 0 70.5 11t71.5 36l27 -128q-37 -25 -85 -39t-97 -14q-99 0 -170 43.5t-109 124.5t-38 194z
M398 772h-153l124 130h176z" />
    <glyph glyph-name="cacute" unicode="&#x107;" horiz-adv-x="432" 
d="M29 256q0 83 30 145t86 97t133 35q32 0 65 -8.5t58 -24.5l-26 -122q-41 28 -87 28q-53 0 -83 -38t-30 -107q0 -71 29.5 -109t84.5 -38q46 0 93 30l25 -119q-28 -19 -62.5 -28.5t-70.5 -9.5q-115 0 -180 72t-65 197zM297 594h-128l107 156h160z" />
    <glyph glyph-name="Cdotaccent" unicode="&#x10a;" horiz-adv-x="557" 
d="M31 346q0 111 39 194.5t110.5 129.5t170.5 46q46 0 92 -12.5t81 -35.5l-29 -131q-33 23 -65.5 34t-68.5 11q-82 0 -127.5 -60.5t-45.5 -169.5q0 -112 44.5 -173t128.5 -61q36 0 70.5 11t71.5 36l27 -128q-37 -25 -85 -39t-97 -14q-99 0 -170 43.5t-109 124.5t-38 194z
M345 765q-35 0 -56 21.5t-21 55.5q0 35 21 57t56 22t56 -22t21 -57q0 -34 -21 -55.5t-56 -21.5z" />
    <glyph glyph-name="cdotaccent" unicode="&#x10b;" horiz-adv-x="432" 
d="M29 256q0 83 30 145t86 97t133 35q32 0 65 -8.5t58 -24.5l-26 -122q-41 28 -87 28q-53 0 -83 -38t-30 -107q0 -71 29.5 -109t84.5 -38q46 0 93 30l25 -119q-28 -19 -62.5 -28.5t-70.5 -9.5q-115 0 -180 72t-65 197zM258 595q-34 0 -55 21.5t-21 54.5q0 35 21 56.5
t55 21.5q35 0 55.5 -21.5t20.5 -56.5q0 -33 -20.5 -54.5t-55.5 -21.5z" />
    <glyph glyph-name="Ccaron" unicode="&#x10c;" horiz-adv-x="557" 
d="M31 346q0 111 39 194.5t110.5 129.5t170.5 46q46 0 92 -12.5t81 -35.5l-29 -131q-33 23 -65.5 34t-68.5 11q-82 0 -127.5 -60.5t-45.5 -169.5q0 -112 44.5 -173t128.5 -61q36 0 70.5 11t71.5 36l27 -128q-37 -25 -85 -39t-97 -14q-99 0 -170 43.5t-109 124.5t-38 194z
M409 902h126l-123 -130h-134l-123 130h128l63 -57z" />
    <glyph glyph-name="ccaron" unicode="&#x10d;" horiz-adv-x="432" 
d="M29 256q0 83 30 145t86 97t133 35q32 0 65 -8.5t58 -24.5l-26 -122q-41 28 -87 28q-53 0 -83 -38t-30 -107q0 -71 29.5 -109t84.5 -38q46 0 93 30l25 -119q-28 -19 -62.5 -28.5t-70.5 -9.5q-115 0 -180 72t-65 197zM314 750h118l-112 -156h-124l-112 156h120l55 -70z" />
    <glyph glyph-name="Dcaron" unicode="&#x10e;" horiz-adv-x="608" 
d="M286 0h-234v700h234q137 0 214 -91.5t77 -258.5q0 -166 -77 -258t-214 -92zM272 132q148 0 148 218t-148 218h-71v-436h71zM333 902h126l-123 -130h-134l-123 130h128l63 -57z" />
    <glyph glyph-name="dcaron" unicode="&#x10f;" horiz-adv-x="666" 
d="M467 0h-127l-5 77q-39 -90 -131 -90q-53 0 -92.5 34.5t-61 96t-21.5 142.5q0 80 22.5 141.5t62.5 96.5t95 35q74 0 113 -64v271h145v-740zM333 260q0 69 -20 107.5t-60 38.5q-39 0 -58.5 -38.5t-19.5 -107.5t19.5 -107.5t58.5 -38.5q40 0 60 38t20 108zM660 740
q-4 -64 -11 -114t-18 -96h-109q5 50 7 100.5t3 109.5h128z" />
    <glyph glyph-name="Dcroat" unicode="&#x110;" horiz-adv-x="622" 
d="M300 0h-234v311h-54v109h54v280h234q137 0 214 -91.5t77 -258.5q0 -166 -77 -258t-214 -92zM286 132q148 0 148 218t-148 218h-71v-148h104v-109h-104v-179h71z" />
    <glyph glyph-name="dcroat" unicode="&#x111;" horiz-adv-x="523" 
d="M204 -13q-53 0 -92.5 33.5t-61 94t-21.5 139.5q0 78 22.5 138.5t62.5 94.5t95 34q74 0 113 -63v128h-133v84h133v70h145v-70h48v-84h-48v-586h-127l-5 75q-39 -88 -131 -88zM333 254q0 66 -20 103t-60 37q-39 0 -58.5 -37t-19.5 -103t19.5 -103t58.5 -37q40 0 60 36.5
t20 103.5z" />
    <glyph glyph-name="Emacron" unicode="&#x112;" horiz-adv-x="494" 
d="M52 0v700h394l15 -127h-261v-154h235v-127h-235v-165h277l-15 -127h-410zM88 886h350v-98h-350v98z" />
    <glyph glyph-name="emacron" unicode="&#x113;" horiz-adv-x="468" 
d="M441 261q0 -22 -3 -42h-273q15 -114 116 -114q33 0 59.5 8.5t57.5 28.5l24 -113q-67 -42 -161 -42q-109 0 -170.5 72.5t-61.5 199.5q0 84 26 145.5t74 95t114 33.5q95 0 146.5 -70.5t51.5 -201.5zM241 424q-65 0 -75 -114h144q-4 61 -19.5 87.5t-49.5 26.5zM82 721h322
v-97h-322v97z" />
    <glyph glyph-name="Edotaccent" unicode="&#x116;" horiz-adv-x="494" 
d="M52 0v700h394l15 -127h-261v-154h235v-127h-235v-165h277l-15 -127h-410zM263 765q-35 0 -56 21.5t-21 55.5q0 35 21 57t56 22t56 -22t21 -57q0 -34 -21 -55.5t-56 -21.5z" />
    <glyph glyph-name="edotaccent" unicode="&#x117;" horiz-adv-x="468" 
d="M441 261q0 -22 -3 -42h-273q15 -114 116 -114q33 0 59.5 8.5t57.5 28.5l24 -113q-67 -42 -161 -42q-109 0 -170.5 72.5t-61.5 199.5q0 84 26 145.5t74 95t114 33.5q95 0 146.5 -70.5t51.5 -201.5zM241 424q-65 0 -75 -114h144q-4 61 -19.5 87.5t-49.5 26.5zM243 595
q-34 0 -55 21.5t-21 54.5q0 35 21 56.5t55 21.5q35 0 55.5 -21.5t20.5 -56.5q0 -33 -20.5 -54.5t-55.5 -21.5z" />
    <glyph glyph-name="Eogonek" unicode="&#x118;" horiz-adv-x="494" 
d="M52 0v700h394l15 -127h-261v-154h235v-127h-235v-165h277l-15 -127h-410zM357 -109q0 -37 43 -37q27 0 45 11l17 -78q-33 -16 -82 -16q-55 0 -86 25t-31 68q0 48 39 90.5t111 72.5l49 -27q-105 -49 -105 -109z" />
    <glyph glyph-name="eogonek" unicode="&#x119;" horiz-adv-x="468" 
d="M441 261q0 -22 -3 -42h-273q15 -114 116 -114q33 0 59.5 8.5t57.5 28.5l24 -113q-67 -42 -161 -42q-109 0 -170.5 72.5t-61.5 199.5q0 84 26 145.5t74 95t114 33.5q95 0 146.5 -70.5t51.5 -201.5zM241 424q-65 0 -75 -114h144q-4 61 -19.5 87.5t-49.5 26.5zM287 -110
q0 -38 42 -38q24 0 40 11l17 -76q-32 -16 -78 -16q-55 0 -84 25t-29 67q0 54 42 102t120 82l49 -27q-58 -28 -88.5 -61.5t-30.5 -68.5z" />
    <glyph glyph-name="Ecaron" unicode="&#x11a;" horiz-adv-x="494" 
d="M52 0v700h394l15 -127h-261v-154h235v-127h-235v-165h277l-15 -127h-410zM327 902h126l-123 -130h-134l-123 130h128l63 -57z" />
    <glyph glyph-name="ecaron" unicode="&#x11b;" horiz-adv-x="468" 
d="M441 261q0 -22 -3 -42h-273q15 -114 116 -114q33 0 59.5 8.5t57.5 28.5l24 -113q-67 -42 -161 -42q-109 0 -170.5 72.5t-61.5 199.5q0 84 26 145.5t74 95t114 33.5q95 0 146.5 -70.5t51.5 -201.5zM241 424q-65 0 -75 -114h144q-4 61 -19.5 87.5t-49.5 26.5zM299 750h118
l-112 -156h-124l-112 156h120l55 -70z" />
    <glyph glyph-name="Gbreve" unicode="&#x11e;" horiz-adv-x="599" 
d="M557 28q-48 -22 -101 -33t-110 -11q-97 0 -168 43.5t-109 124.5t-38 194t41 196t116.5 128.5t176.5 45.5q47 0 96 -13t86 -37l-29 -131q-35 23 -70 35t-74 12q-88 0 -137 -59.5t-49 -170.5q0 -114 44 -174.5t129 -60.5q31 0 60 6v155h-98v117h234v-367zM355 852
q35 0 50.5 16t17.5 50l96 -11q0 -64 -43.5 -101t-120.5 -37t-120.5 37t-43.5 101l96 11q2 -34 18 -50t50 -16z" />
    <glyph glyph-name="gbreve" unicode="&#x11f;" horiz-adv-x="512" 
d="M62 -184l27 120q26 -19 58 -30t66 -11q60 0 85 31t25 102v43q-40 -71 -119 -71q-53 0 -92.5 33.5t-61 93.5t-21.5 140q0 78 22.5 138t63 94t94.5 34q88 0 127 -82l4 69h127v-477q0 -139 -60.5 -205.5t-186.5 -66.5q-45 0 -87.5 12.5t-70.5 32.5zM333 267q0 65 -20 102
t-60 37q-39 0 -58.5 -37t-19.5 -102q0 -66 19.5 -103t58.5 -37q40 0 60 36.5t20 103.5zM253 673q53 0 57 76l88 -10q0 -69 -38.5 -108t-106.5 -39t-106.5 39t-38.5 108l88 10q4 -76 57 -76z" />
    <glyph glyph-name="Gdotaccent" unicode="&#x120;" horiz-adv-x="599" 
d="M557 28q-48 -22 -101 -33t-110 -11q-97 0 -168 43.5t-109 124.5t-38 194t41 196t116.5 128.5t176.5 45.5q47 0 96 -13t86 -37l-29 -131q-35 23 -70 35t-74 12q-88 0 -137 -59.5t-49 -170.5q0 -114 44 -174.5t129 -60.5q31 0 60 6v155h-98v117h234v-367zM355 765
q-35 0 -56 21.5t-21 55.5q0 35 21 57t56 22t56 -22t21 -57q0 -34 -21 -55.5t-56 -21.5z" />
    <glyph glyph-name="gdotaccent" unicode="&#x121;" horiz-adv-x="512" 
d="M62 -184l27 120q26 -19 58 -30t66 -11q60 0 85 31t25 102v43q-40 -71 -119 -71q-53 0 -92.5 33.5t-61 93.5t-21.5 140q0 78 22.5 138t63 94t94.5 34q88 0 127 -82l4 69h127v-477q0 -139 -60.5 -205.5t-186.5 -66.5q-45 0 -87.5 12.5t-70.5 32.5zM333 267q0 65 -20 102
t-60 37q-39 0 -58.5 -37t-19.5 -102q0 -66 19.5 -103t58.5 -37q40 0 60 36.5t20 103.5zM253 595q-34 0 -55 21.5t-21 54.5q0 35 21 56.5t55 21.5q35 0 55.5 -21.5t20.5 -56.5q0 -33 -20.5 -54.5t-55.5 -21.5z" />
    <glyph glyph-name="uni0122" unicode="&#x122;" horiz-adv-x="599" 
d="M557 28q-48 -22 -101 -33t-110 -11q-97 0 -168 43.5t-109 124.5t-38 194t41 196t116.5 128.5t176.5 45.5q47 0 96 -13t86 -37l-29 -131q-35 23 -70 35t-74 12q-88 0 -137 -59.5t-49 -170.5q0 -114 44 -174.5t129 -60.5q31 0 60 6v155h-98v117h234v-367zM277 -243
q55 15 81 51q-8 -2 -16 -2q-26 0 -43 17.5t-17 45.5q0 29 20 47.5t51 18.5q36 0 55.5 -20.5t19.5 -57.5q0 -48 -31.5 -86t-88.5 -56z" />
    <glyph glyph-name="uni0123" unicode="&#x123;" horiz-adv-x="512" 
d="M62 -184l27 120q26 -19 58 -30t66 -11q60 0 85 31t25 102v43q-40 -71 -119 -71q-53 0 -92.5 33.5t-61 93.5t-21.5 140q0 78 22.5 138t63 94t94.5 34q88 0 127 -82l4 69h127v-477q0 -139 -60.5 -205.5t-186.5 -66.5q-45 0 -87.5 12.5t-70.5 32.5zM333 267q0 65 -20 102
t-60 37q-39 0 -58.5 -37t-19.5 -102q0 -66 19.5 -103t58.5 -37q40 0 60 36.5t20 103.5zM330 777q-58 -16 -84 -54q10 2 19 2q26 0 43 -17t17 -45t-19.5 -46.5t-50.5 -18.5q-35 0 -54.5 20.5t-19.5 57.5q0 48 31.5 86t87.5 56z" />
    <glyph glyph-name="Hbar" unicode="&#x126;" horiz-adv-x="631" 
d="M66 0v509h-54v99h54v92h151v-92h197v92h151v-92h54v-99h-54v-509h-151v275h-197v-275h-151zM217 411h197v98h-197v-98z" />
    <glyph glyph-name="hbar" unicode="&#x127;" horiz-adv-x="503" 
d="M334 586h-134v-134q36 69 115 69q147 0 147 -209v-312h-144v288q0 55 -11 78.5t-43 23.5q-64 0 -64 -109v-281h-144v586h-48v84h48v70h144v-70h134v-84z" />
    <glyph glyph-name="Itilde" unicode="&#x128;" horiz-adv-x="255" 
d="M52 0v700h151v-700h-151zM308 909q-1 -67 -29.5 -103t-80.5 -36q-24 0 -44 8t-49 29q-25 18 -36 18q-30 0 -30 -55l-91 11q2 67 30 103t80 36q24 0 43.5 -7.5t49.5 -29.5q13 -9 21 -13.5t15 -4.5q30 0 30 55z" />
    <glyph glyph-name="itilde" unicode="&#x129;" horiz-adv-x="234" 
d="M45 0v520h144v-520h-144zM-51 603q0 71 26.5 110t73.5 39q23 0 42.5 -9t41.5 -30q15 -15 22.5 -20.5t15.5 -5.5q16 0 21.5 15.5t6.5 49.5l86 -11q0 -70 -26.5 -109.5t-73.5 -39.5q-22 0 -41.5 8.5t-42.5 30.5q-15 15 -22.5 20.5t-15.5 5.5q-16 0 -21.5 -15t-6.5 -50z" />
    <glyph glyph-name="Imacron" unicode="&#x12a;" horiz-adv-x="255" 
d="M52 0v700h151v-700h-151zM-47 886h350v-98h-350v98z" />
    <glyph glyph-name="imacron" unicode="&#x12b;" horiz-adv-x="234" 
d="M45 0v520h144v-520h-144zM-44 721h322v-97h-322v97z" />
    <glyph glyph-name="Iogonek" unicode="&#x12e;" horiz-adv-x="255" 
d="M52 0v700h151v-700h-151zM98 -109q0 -37 43 -37q27 0 45 11l17 -78q-33 -16 -82 -16q-55 0 -86 25t-31 68q0 48 39 90.5t111 72.5l49 -27q-105 -49 -105 -109z" />
    <glyph glyph-name="iogonek" unicode="&#x12f;" horiz-adv-x="234" 
d="M117 585q-40 0 -63.5 24.5t-23.5 61.5q0 38 23.5 62.5t63.5 24.5t63.5 -24.5t23.5 -62.5q0 -37 -23.5 -61.5t-63.5 -24.5zM45 0v520h144v-520h-144zM-2 -137q0 48 37 90.5t105 73.5l49 -27q-99 -49 -99 -110q0 -38 41 -38q25 0 41 11l17 -76q-32 -16 -78 -16
q-55 0 -84 25t-29 67z" />
    <glyph glyph-name="Idotaccent" unicode="&#x130;" horiz-adv-x="255" 
d="M52 0v700h151v-700h-151zM128 765q-35 0 -56 21.5t-21 55.5q0 35 21 57t56 22t56 -22t21 -57q0 -34 -21 -55.5t-56 -21.5z" />
    <glyph glyph-name="dotlessi" unicode="&#x131;" horiz-adv-x="234" 
d="M45 0v520h144v-520h-144z" />
    <glyph glyph-name="IJ" unicode="&#x132;" horiz-adv-x="549" 
d="M203 245h-151v455h151v-455zM57 36l30 126q60 -46 129 -46q52 0 81 20t41 65t12 120v379h151v-390q0 -168 -66.5 -247t-207.5 -79q-49 0 -95 14.5t-75 37.5z" />
    <glyph glyph-name="ij" unicode="&#x133;" horiz-adv-x="486" 
d="M113 585q-40 0 -63.5 24.5t-23.5 61.5q0 38 23.5 62.5t63.5 24.5t63.5 -24.5t23.5 -62.5q0 -37 -23.5 -61.5t-63.5 -24.5zM369 585q-40 0 -63.5 24.5t-23.5 61.5q0 38 23.5 62.5t63.5 24.5t63.5 -24.5t23.5 -62.5q0 -37 -23.5 -61.5t-63.5 -24.5zM441 34
q0 -134 -58 -198.5t-182 -64.5q-44 0 -86 12t-69 31l27 120q25 -17 56.5 -28t64.5 -11q58 0 80.5 29t22.5 95v44q-37 -63 -112 -63q-144 0 -144 209v311h144v-287q0 -55 10.5 -78.5t40.5 -23.5q61 0 61 109v280h144v-486z" />
    <glyph glyph-name="uni0136" unicode="&#x136;" horiz-adv-x="595" 
d="M52 0v700h151v-289l189 289h168l-189 -268l215 -432h-171l-139 297l-73 -103v-194h-151zM235 -243q55 15 81 51q-8 -2 -16 -2q-26 0 -43 17.5t-17 45.5q0 29 20 47.5t51 18.5q36 0 55.5 -20.5t19.5 -57.5q0 -48 -31.5 -86t-88.5 -56z" />
    <glyph glyph-name="uni0137" unicode="&#x137;" horiz-adv-x="505" 
d="M45 0v740h144v-409l136 189h163l-143 -180l154 -340h-156l-94 220l-60 -75v-145h-144zM188 -244q58 16 84 54q-10 -2 -19 -2q-26 0 -43 17t-17 45q0 29 19.5 47t50.5 18q35 0 54.5 -20.5t19.5 -57.5q0 -48 -31.5 -86t-87.5 -56z" />
    <glyph glyph-name="Lacute" unicode="&#x139;" horiz-adv-x="471" 
d="M52 0v700h151v-566h262l-16 -134h-397zM181 772h-153l124 130h176z" />
    <glyph glyph-name="lacute" unicode="&#x13a;" horiz-adv-x="234" 
d="M45 0v740h144v-740h-144zM170 817h-153l124 130h176z" />
    <glyph glyph-name="uni013B" unicode="&#x13b;" horiz-adv-x="471" 
d="M52 0v700h151v-566h262l-16 -134h-397zM190 -243q55 15 81 51q-8 -2 -16 -2q-26 0 -43 17.5t-17 45.5q0 29 20 47.5t51 18.5q36 0 55.5 -20.5t19.5 -57.5q0 -48 -31.5 -86t-88.5 -56z" />
    <glyph glyph-name="uni013C" unicode="&#x13c;" horiz-adv-x="234" 
d="M45 0v740h144v-740h-144zM40 -244q58 16 84 54q-10 -2 -19 -2q-26 0 -43 17t-17 45q0 29 19.5 47t50.5 18q35 0 54.5 -20.5t19.5 -57.5q0 -48 -31.5 -86t-87.5 -56z" />
    <glyph glyph-name="Lcaron" unicode="&#x13d;" horiz-adv-x="471" 
d="M52 0v700h151v-566h262l-16 -134h-397zM417 700q-4 -64 -11 -114t-18 -96h-109q5 50 7 100.5t3 109.5h128z" />
    <glyph glyph-name="lcaron" unicode="&#x13e;" horiz-adv-x="390" 
d="M45 0v740h144v-740h-144zM383 740q-4 -64 -11 -114t-18 -96h-109q5 50 7 100.5t3 109.5h128z" />
    <glyph glyph-name="Ldot" unicode="&#x13f;" horiz-adv-x="471" 
d="M52 0v700h151v-566h262l-16 -134h-397zM363 329q-39 0 -63.5 25.5t-24.5 64.5q0 40 24.5 64.5t63.5 24.5t63.5 -24.5t24.5 -64.5q0 -39 -24.5 -64.5t-63.5 -25.5z" />
    <glyph glyph-name="ldot" unicode="&#x140;" horiz-adv-x="410" 
d="M45 0v740h144v-740h-144zM323 278q-39 0 -63.5 25.5t-24.5 64.5q0 40 24.5 64.5t63.5 24.5t63.5 -24.5t24.5 -64.5q0 -39 -24.5 -64.5t-63.5 -25.5z" />
    <glyph glyph-name="Lslash" unicode="&#x141;" horiz-adv-x="485" 
d="M66 0v233l-54 -32v128l54 32v339h151v-248l132 79v-128l-132 -79v-190h262l-16 -134h-397z" />
    <glyph glyph-name="lslash" unicode="&#x142;" horiz-adv-x="256" 
d="M56 0v308l-48 -21v101l48 21v331h144v-266l48 21v-101l-48 -21v-373h-144z" />
    <glyph glyph-name="Nacute" unicode="&#x143;" horiz-adv-x="602" 
d="M52 0v700h156l200 -447v447h142v-700h-152l-204 451v-451h-142zM363 772h-153l124 130h176z" />
    <glyph glyph-name="nacute" unicode="&#x144;" horiz-adv-x="492" 
d="M451 324v-324h-144v300q0 55 -11 78.5t-43 23.5q-64 0 -64 -109v-293h-144v520h127l5 -79q16 44 49 68t78 24q147 0 147 -209zM297 594h-128l107 156h160z" />
    <glyph glyph-name="uni0145" unicode="&#x145;" horiz-adv-x="602" 
d="M52 0v700h156l200 -447v447h142v-700h-152l-204 451v-451h-142zM232 -243q55 15 81 51q-8 -2 -16 -2q-26 0 -43 17.5t-17 45.5q0 29 20 47.5t51 18.5q36 0 55.5 -20.5t19.5 -57.5q0 -48 -31.5 -86t-88.5 -56z" />
    <glyph glyph-name="uni0146" unicode="&#x146;" horiz-adv-x="492" 
d="M451 324v-324h-144v300q0 55 -11 78.5t-43 23.5q-64 0 -64 -109v-293h-144v520h127l5 -79q16 44 49 68t78 24q147 0 147 -209zM171 -244q58 16 84 54q-10 -2 -19 -2q-26 0 -43 17t-17 45q0 29 19.5 47t50.5 18q35 0 54.5 -20.5t19.5 -57.5q0 -48 -31.5 -86t-87.5 -56z
" />
    <glyph glyph-name="Ncaron" unicode="&#x147;" horiz-adv-x="602" 
d="M52 0v700h156l200 -447v447h142v-700h-152l-204 451v-451h-142zM374 902h126l-123 -130h-134l-123 130h128l63 -57z" />
    <glyph glyph-name="ncaron" unicode="&#x148;" horiz-adv-x="492" 
d="M451 324v-324h-144v300q0 55 -11 78.5t-43 23.5q-64 0 -64 -109v-293h-144v520h127l5 -79q16 44 49 68t78 24q147 0 147 -209zM314 750h118l-112 -156h-124l-112 156h120l55 -70z" />
    <glyph glyph-name="Eng" unicode="&#x14a;" horiz-adv-x="599" 
d="M244 -202l22 123q18 -11 32.5 -15t33.5 -4q38 0 53 27t15 92v398q0 86 -18 123t-71 37q-56 0 -82 -42.5t-26 -128.5v-408h-151v700h132l6 -92q23 53 66.5 80.5t100.5 27.5q194 0 194 -274v-436q0 -120 -47 -177.5t-145 -57.5q-32 0 -60.5 6.5t-54.5 20.5z" />
    <glyph glyph-name="eng" unicode="&#x14b;" horiz-adv-x="492" 
d="M451 -29q0 -102 -42 -151t-130 -49q-30 0 -56 5t-49 18l21 117q15 -8 27.5 -11t28.5 -3q32 0 44 20t12 68v315q0 55 -11 78.5t-43 23.5q-64 0 -64 -109v-293h-144v520h127l5 -79q16 44 49 68t78 24q147 0 147 -209v-353z" />
    <glyph glyph-name="Omacron" unicode="&#x14c;" horiz-adv-x="654" 
d="M327 -16q-90 0 -156.5 45.5t-103 128t-36.5 192.5t36.5 192.5t103 128t156.5 45.5t156.5 -45.5t103 -128t36.5 -192.5t-36.5 -192.5t-103 -128t-156.5 -45.5zM327 118q68 0 103.5 62t35.5 170t-35.5 170t-103.5 62q-67 0 -103 -62t-36 -170t36 -170t103 -62zM152 886h350
v-98h-350v98z" />
    <glyph glyph-name="omacron" unicode="&#x14d;" horiz-adv-x="504" 
d="M252 -13q-67 0 -117.5 34t-78 95.5t-27.5 143.5t27.5 143.5t78 95.5t117.5 34q68 0 118 -34t77.5 -95.5t27.5 -143.5t-27.5 -143.5t-77.5 -95.5t-118 -34zM252 114q39 0 58 38.5t19 107.5t-19 107.5t-58 38.5t-58 -38.5t-19 -107.5t19 -107.5t58 -38.5zM91 721h322v-97
h-322v97z" />
    <glyph glyph-name="Ohungarumlaut" unicode="&#x150;" horiz-adv-x="654" 
d="M327 -16q-90 0 -156.5 45.5t-103 128t-36.5 192.5t36.5 192.5t103 128t156.5 45.5t156.5 -45.5t103 -128t36.5 -192.5t-36.5 -192.5t-103 -128t-156.5 -45.5zM327 118q68 0 103.5 62t35.5 170t-35.5 170t-103.5 62q-67 0 -103 -62t-36 -170t36 -170t103 -62zM298 772
h-142l124 130h167zM520 772h-142l124 130h167z" />
    <glyph glyph-name="ohungarumlaut" unicode="&#x151;" horiz-adv-x="504" 
d="M252 -13q-67 0 -117.5 34t-78 95.5t-27.5 143.5t27.5 143.5t78 95.5t117.5 34q68 0 118 -34t77.5 -95.5t27.5 -143.5t-27.5 -143.5t-77.5 -95.5t-118 -34zM252 114q39 0 58 38.5t19 107.5t-19 107.5t-58 38.5t-58 -38.5t-19 -107.5t19 -107.5t58 -38.5zM217 594h-119
l106 156h153zM420 594h-119l106 156h153z" />
    <glyph glyph-name="OE" unicode="&#x152;" horiz-adv-x="847" 
d="M343 -16q-97 0 -167 44t-107.5 126t-37.5 196q0 112 38 194t108 127t166 45q28 0 56 -4t53 -12h347l15 -127h-251v-154h225v-127h-225v-165h267l-15 -127h-363q-53 -16 -109 -16zM188 350q0 -111 42.5 -171.5t120.5 -60.5q37 0 66 12v439q-26 13 -66 13
q-78 0 -120.5 -60.5t-42.5 -171.5z" />
    <glyph glyph-name="oe" unicode="&#x153;" horiz-adv-x="756" 
d="M710 29q-66 -42 -157 -42q-54 0 -95.5 21.5t-69.5 60.5q-26 -39 -63.5 -60.5t-82.5 -21.5q-65 0 -113 33.5t-74 95t-26 144.5t26 144.5t74 95t113 33.5q45 0 82 -20.5t63 -57.5q26 37 63 57.5t84 20.5q94 0 144.5 -70.5t50.5 -201.5q0 -22 -3 -42h-267q15 -114 113 -114
q32 0 58 8.5t56 28.5zM532 424q-64 0 -72 -114h138q-3 61 -18.5 87.5t-47.5 26.5zM249 114q38 0 56 38.5t18 107.5t-18 107.5t-56 38.5q-37 0 -55.5 -38.5t-18.5 -107.5t18.5 -107.5t55.5 -38.5z" />
    <glyph glyph-name="Racute" unicode="&#x154;" horiz-adv-x="544" 
d="M370 0l-106 252h-66v-252h-146v700h214q104 0 164.5 -60.5t60.5 -163.5q0 -63 -25.5 -111t-71.5 -75l130 -290h-154zM254 579h-56v-206h56q85 0 85 103q0 49 -21 76t-64 27zM317 772h-153l124 130h176z" />
    <glyph glyph-name="racute" unicode="&#x155;" horiz-adv-x="349" 
d="M189 241v-241h-144v520h127l6 -94q28 104 116 104q28 0 48 -11l-8 -140q-12 7 -23.5 9.5t-23.5 2.5q-49 0 -73.5 -38.5t-24.5 -111.5zM243 594h-128l107 156h160z" />
    <glyph glyph-name="uni0156" unicode="&#x156;" horiz-adv-x="544" 
d="M370 0l-106 252h-66v-252h-146v700h214q104 0 164.5 -60.5t60.5 -163.5q0 -63 -25.5 -111t-71.5 -75l130 -290h-154zM254 579h-56v-206h56q85 0 85 103q0 49 -21 76t-64 27zM210 -243q55 15 81 51q-8 -2 -16 -2q-26 0 -43 17.5t-17 45.5q0 29 20 47.5t51 18.5
q36 0 55.5 -20.5t19.5 -57.5q0 -48 -31.5 -86t-88.5 -56z" />
    <glyph glyph-name="uni0157" unicode="&#x157;" horiz-adv-x="349" 
d="M189 241v-241h-144v520h127l6 -94q28 104 116 104q28 0 48 -11l-8 -140q-12 7 -23.5 9.5t-23.5 2.5q-49 0 -73.5 -38.5t-24.5 -111.5zM40 -244q58 16 84 54q-10 -2 -19 -2q-26 0 -43 17t-17 45q0 29 19.5 47t50.5 18q35 0 54.5 -20.5t19.5 -57.5q0 -48 -31.5 -86
t-87.5 -56z" />
    <glyph glyph-name="Rcaron" unicode="&#x158;" horiz-adv-x="544" 
d="M370 0l-106 252h-66v-252h-146v700h214q104 0 164.5 -60.5t60.5 -163.5q0 -63 -25.5 -111t-71.5 -75l130 -290h-154zM254 579h-56v-206h56q85 0 85 103q0 49 -21 76t-64 27zM328 902h126l-123 -130h-134l-123 130h128l63 -57z" />
    <glyph glyph-name="rcaron" unicode="&#x159;" horiz-adv-x="349" 
d="M189 241v-241h-144v520h127l6 -94q28 104 116 104q28 0 48 -11l-8 -140q-12 7 -23.5 9.5t-23.5 2.5q-49 0 -73.5 -38.5t-24.5 -111.5zM260 750h118l-112 -156h-124l-112 156h120l55 -70z" />
    <glyph glyph-name="Sacute" unicode="&#x15a;" horiz-adv-x="496" 
d="M466 199q0 -65 -29 -113.5t-82 -75t-125 -26.5q-62 0 -112.5 14.5t-98.5 47.5l30 127q45 -34 83.5 -48t86.5 -14q45 0 72 20t27 58q0 35 -20.5 59t-82.5 43q-91 29 -134.5 80.5t-43.5 131.5q0 97 62.5 155t169.5 58t186 -56l-29 -126q-40 30 -72.5 42.5t-74.5 12.5
q-44 0 -70.5 -19t-26.5 -57q0 -35 21.5 -57t82.5 -41q92 -28 136 -81t44 -135zM319 772h-153l124 130h176z" />
    <glyph glyph-name="sacute" unicode="&#x15b;" horiz-adv-x="412" 
d="M189 -13q-50 0 -90.5 11t-80.5 36l28 112q35 -25 65 -34.5t67 -9.5q30 0 47.5 12.5t17.5 34.5q0 20 -13.5 34t-54.5 26q-142 40 -142 157q0 77 52.5 122t143.5 45q88 0 149 -42l-26 -112q-32 22 -57.5 30.5t-59.5 8.5q-29 0 -46 -11.5t-17 -33.5q0 -20 14 -32.5t53 -24.5
q147 -43 147 -160q0 -77 -53.5 -123t-143.5 -46zM253 594h-128l107 156h160z" />
    <glyph glyph-name="Scedilla" unicode="&#x15e;" horiz-adv-x="496" 
d="M466 199q0 -65 -29 -113.5t-82 -75t-125 -26.5q-62 0 -112.5 14.5t-98.5 47.5l30 127q45 -34 83.5 -48t86.5 -14q45 0 72 20t27 58q0 35 -20.5 59t-82.5 43q-91 29 -134.5 80.5t-43.5 131.5q0 97 62.5 155t169.5 58t186 -56l-29 -126q-40 30 -72.5 42.5t-74.5 12.5
q-44 0 -70.5 -19t-26.5 -57q0 -35 21.5 -57t82.5 -41q92 -28 136 -81t44 -135zM243 -229q-28 0 -48.5 4t-39.5 11l18 70q23 -12 57 -12q53 0 53 28q0 25 -48 25q-23 0 -41 -5l25 123h75l-15 -61h1q44 0 69 -23t25 -64q0 -45 -35 -70.5t-96 -25.5z" />
    <glyph glyph-name="scedilla" unicode="&#x15f;" horiz-adv-x="412" 
d="M189 -13q-50 0 -90.5 11t-80.5 36l28 112q35 -25 65 -34.5t67 -9.5q30 0 47.5 12.5t17.5 34.5q0 20 -13.5 34t-54.5 26q-142 40 -142 157q0 77 52.5 122t143.5 45q88 0 149 -42l-26 -112q-32 22 -57.5 30.5t-59.5 8.5q-29 0 -46 -11.5t-17 -33.5q0 -20 14 -32.5t53 -24.5
q147 -43 147 -160q0 -77 -53.5 -123t-143.5 -46zM118 -214l18 67q22 -11 53 -11q49 0 49 30q0 26 -44 26q-22 0 -40 -5l25 122h73l-15 -62h2q43 0 66.5 -22.5t23.5 -63.5q0 -45 -34 -70.5t-93 -25.5q-27 0 -46.5 4t-37.5 11z" />
    <glyph glyph-name="Scaron" unicode="&#x160;" horiz-adv-x="496" 
d="M466 199q0 -65 -29 -113.5t-82 -75t-125 -26.5q-62 0 -112.5 14.5t-98.5 47.5l30 127q45 -34 83.5 -48t86.5 -14q45 0 72 20t27 58q0 35 -20.5 59t-82.5 43q-91 29 -134.5 80.5t-43.5 131.5q0 97 62.5 155t169.5 58t186 -56l-29 -126q-40 30 -72.5 42.5t-74.5 12.5
q-44 0 -70.5 -19t-26.5 -57q0 -35 21.5 -57t82.5 -41q92 -28 136 -81t44 -135zM330 902h126l-123 -130h-134l-123 130h128l63 -57z" />
    <glyph glyph-name="scaron" unicode="&#x161;" horiz-adv-x="412" 
d="M189 -13q-50 0 -90.5 11t-80.5 36l28 112q35 -25 65 -34.5t67 -9.5q30 0 47.5 12.5t17.5 34.5q0 20 -13.5 34t-54.5 26q-142 40 -142 157q0 77 52.5 122t143.5 45q88 0 149 -42l-26 -112q-32 22 -57.5 30.5t-59.5 8.5q-29 0 -46 -11.5t-17 -33.5q0 -20 14 -32.5t53 -24.5
q147 -43 147 -160q0 -77 -53.5 -123t-143.5 -46zM270 750h118l-112 -156h-124l-112 156h120l55 -70z" />
    <glyph glyph-name="uni0162" unicode="&#x162;" horiz-adv-x="523" 
d="M186 0v566h-174v134h499v-134h-174v-566h-151zM252 -229q-28 0 -48.5 4t-39.5 11l18 70q23 -12 57 -12q53 0 53 28q0 25 -48 25q-23 0 -41 -5l25 123h75l-15 -61h1q44 0 69 -23t25 -64q0 -45 -35 -70.5t-96 -25.5z" />
    <glyph glyph-name="uni0163" unicode="&#x163;" horiz-adv-x="374" 
d="M358 14q-22 -12 -48.5 -18t-52.5 -6q-85 0 -125.5 47.5t-40.5 148.5v215h-84l14 119h70v167h144v-167h112v-119h-112v-196q0 -49 12 -69t42 -20q16 0 27 3.5t27 13.5zM141 -214l18 67q22 -11 53 -11q49 0 49 30q0 26 -44 26q-22 0 -40 -5l25 122h73l-15 -62h2
q43 0 66.5 -22.5t23.5 -63.5q0 -45 -34 -70.5t-93 -25.5q-27 0 -46.5 4t-37.5 11z" />
    <glyph glyph-name="Tcaron" unicode="&#x164;" horiz-adv-x="523" 
d="M186 0v566h-174v134h499v-134h-174v-566h-151zM326 902h126l-123 -130h-134l-123 130h128l63 -57z" />
    <glyph glyph-name="tcaron" unicode="&#x165;" horiz-adv-x="374" 
d="M358 14q-22 -12 -48.5 -18t-52.5 -6q-85 0 -125.5 47.5t-40.5 148.5v215h-84l14 119h70v167h144v-167h112v-119h-112v-196q0 -49 12 -69t42 -20q16 0 27 3.5t27 13.5zM391 566h-109q5 42 7 83.5t3 90.5h128q-4 -53 -11 -94.5t-18 -79.5z" />
    <glyph glyph-name="Tbar" unicode="&#x166;" horiz-adv-x="523" 
d="M186 0v261h-94v109h94v196h-174v134h499v-134h-174v-196h94v-109h-94v-261h-151z" />
    <glyph glyph-name="tbar" unicode="&#x167;" horiz-adv-x="374" 
d="M14 227v84h77v90h-84l14 119h70v167h144v-167h112v-119h-112v-90h112v-84h-112v-22q0 -49 12 -69t42 -20q16 0 27 3.5t27 13.5l15 -119q-22 -12 -48.5 -18t-52.5 -6q-85 0 -125.5 47.5t-40.5 148.5v41h-77z" />
    <glyph glyph-name="Utilde" unicode="&#x168;" horiz-adv-x="590" 
d="M49 269v431h151v-418q0 -85 22 -124.5t73 -39.5t73 39.5t22 124.5v418h151v-431q0 -139 -64 -212t-187 -73q-119 0 -180 72.5t-61 212.5zM476 909q-1 -67 -29.5 -103t-80.5 -36q-24 0 -44 8t-49 29q-25 18 -36 18q-30 0 -30 -55l-91 11q2 67 30 103t80 36q24 0 43.5 -7.5
t49.5 -29.5q13 -9 21 -13.5t15 -4.5q30 0 30 55z" />
    <glyph glyph-name="utilde" unicode="&#x169;" horiz-adv-x="486" 
d="M314 0l-5 77q-16 -44 -48 -67t-76 -23q-144 0 -144 209v324h144v-300q0 -55 10.5 -78.5t40.5 -23.5q61 0 61 109v293h144v-520h-127zM73 603q0 71 26.5 110t73.5 39q23 0 42.5 -9t41.5 -30q15 -15 22.5 -20.5t15.5 -5.5q16 0 21.5 15.5t6.5 49.5l86 -11
q0 -70 -26.5 -109.5t-73.5 -39.5q-22 0 -41.5 8.5t-42.5 30.5q-15 15 -22.5 20.5t-15.5 5.5q-16 0 -21.5 -15t-6.5 -50z" />
    <glyph glyph-name="Umacron" unicode="&#x16a;" horiz-adv-x="590" 
d="M49 269v431h151v-418q0 -85 22 -124.5t73 -39.5t73 39.5t22 124.5v418h151v-431q0 -139 -64 -212t-187 -73q-119 0 -180 72.5t-61 212.5zM121 886h350v-98h-350v98z" />
    <glyph glyph-name="umacron" unicode="&#x16b;" horiz-adv-x="486" 
d="M314 0l-5 77q-16 -44 -48 -67t-76 -23q-144 0 -144 209v324h144v-300q0 -55 10.5 -78.5t40.5 -23.5q61 0 61 109v293h144v-520h-127zM80 721h322v-97h-322v97z" />
    <glyph glyph-name="Uring" unicode="&#x16e;" horiz-adv-x="590" 
d="M49 269v431h151v-418q0 -85 22 -124.5t73 -39.5t73 39.5t22 124.5v418h151v-431q0 -139 -64 -212t-187 -73q-119 0 -180 72.5t-61 212.5zM296 977q52 0 85 -30t33 -77q0 -46 -33 -76.5t-85 -30.5t-85 30.5t-33 76.5q0 47 33 77t85 30zM296 820q25 0 38.5 14t13.5 36
q0 23 -13.5 36.5t-38.5 13.5t-38.5 -13.5t-13.5 -36.5q0 -22 13.5 -36t38.5 -14z" />
    <glyph glyph-name="uring" unicode="&#x16f;" horiz-adv-x="486" 
d="M314 0l-5 77q-16 -44 -48 -67t-76 -23q-144 0 -144 209v324h144v-300q0 -55 10.5 -78.5t40.5 -23.5q61 0 61 109v293h144v-520h-127zM241 796q50 0 82 -29.5t32 -76.5t-32 -77t-82 -30t-82 30t-32 77t32 76.5t82 29.5zM241 638q23 0 36.5 14.5t13.5 37.5t-13.5 37
t-36.5 14t-36.5 -14t-13.5 -37t13.5 -37.5t36.5 -14.5z" />
    <glyph glyph-name="Uhungarumlaut" unicode="&#x170;" horiz-adv-x="590" 
d="M49 269v431h151v-418q0 -85 22 -124.5t73 -39.5t73 39.5t22 124.5v418h151v-431q0 -139 -64 -212t-187 -73q-119 0 -180 72.5t-61 212.5zM267 772h-142l124 130h167zM489 772h-142l124 130h167z" />
    <glyph glyph-name="uhungarumlaut" unicode="&#x171;" horiz-adv-x="486" 
d="M314 0l-5 77q-16 -44 -48 -67t-76 -23q-144 0 -144 209v324h144v-300q0 -55 10.5 -78.5t40.5 -23.5q61 0 61 109v293h144v-520h-127zM206 594h-119l106 156h153zM409 594h-119l106 156h153z" />
    <glyph glyph-name="Uogonek" unicode="&#x172;" horiz-adv-x="590" 
d="M49 269v431h151v-418q0 -85 22 -124.5t73 -39.5t73 39.5t22 124.5v418h151v-431q0 -139 -64 -212t-187 -73q-119 0 -180 72.5t-61 212.5zM308 -109q0 -37 43 -37q27 0 45 11l17 -78q-33 -16 -82 -16q-55 0 -86 25t-31 68q0 54 44 102t126 81l49 -27q-61 -28 -93 -61
t-32 -68z" />
    <glyph glyph-name="uogonek" unicode="&#x173;" horiz-adv-x="486" 
d="M314 0l-5 77q-16 -44 -48 -67t-76 -23q-144 0 -144 209v324h144v-300q0 -55 10.5 -78.5t40.5 -23.5q61 0 61 109v293h144v-520h-127zM250 -137q0 48 37 90.5t105 73.5l49 -27q-99 -49 -99 -110q0 -38 41 -38q25 0 41 11l17 -76q-32 -16 -78 -16q-55 0 -84 25t-29 67z" />
    <glyph glyph-name="Wcircumflex" unicode="&#x174;" horiz-adv-x="821" 
d="M509 0l-98 520l-99 -520h-154l-147 700h160l77 -507l90 507h150l89 -505l78 505h155l-147 -700h-154zM349 772h-126l123 130h134l123 -130h-128l-63 57z" />
    <glyph glyph-name="wcircumflex" unicode="&#x175;" horiz-adv-x="695" 
d="M131 0l-122 520h146l60 -369l63 369h144l62 -365l61 365h141l-122 -520h-147l-69 388l-70 -388h-147zM294 594h-118l112 156h124l112 -156h-120l-55 70z" />
    <glyph glyph-name="Ycircumflex" unicode="&#x176;" horiz-adv-x="587" 
d="M218 0v277l-209 423h173l114 -295l115 295h167l-209 -423v-277h-151zM234 772h-126l123 130h134l123 -130h-128l-63 57z" />
    <glyph glyph-name="ycircumflex" unicode="&#x177;" horiz-adv-x="492" 
d="M32 -210l15 119q23 -13 60 -13q28 0 41.5 15t27.5 55l-170 554h156l82 -377l92 377h150l-172 -544q-23 -73 -47 -118.5t-58 -66t-87 -20.5q-28 0 -48.5 4.5t-41.5 14.5zM190 594h-118l112 156h124l112 -156h-120l-55 70z" />
    <glyph glyph-name="Ydieresis" unicode="&#x178;" horiz-adv-x="587" 
d="M218 0v277l-209 423h173l114 -295l115 295h167l-209 -423v-277h-151zM185 769q-33 0 -53 21t-20 54t20 53.5t53 20.5t53 -20.5t20 -53.5t-20 -54t-53 -21zM411 769q-33 0 -53 21t-20 54t20 53.5t53 20.5t53 -20.5t20 -53.5t-20 -54t-53 -21z" />
    <glyph glyph-name="Zacute" unicode="&#x179;" horiz-adv-x="535" 
d="M32 0v117l299 455h-289l15 128h439v-116l-299 -456h313l-15 -128h-463zM330 772h-153l124 130h176z" />
    <glyph glyph-name="zacute" unicode="&#x17a;" horiz-adv-x="432" 
d="M29 0v105l214 299h-213l14 116h352v-105l-211 -299h223l-14 -116h-365zM259 594h-128l107 156h160z" />
    <glyph glyph-name="Zdotaccent" unicode="&#x17b;" horiz-adv-x="535" 
d="M32 0v117l299 455h-289l15 128h439v-116l-299 -456h313l-15 -128h-463zM277 765q-35 0 -56 21.5t-21 55.5q0 35 21 57t56 22t56 -22t21 -57q0 -34 -21 -55.5t-56 -21.5z" />
    <glyph glyph-name="zdotaccent" unicode="&#x17c;" horiz-adv-x="432" 
d="M29 0v105l214 299h-213l14 116h352v-105l-211 -299h223l-14 -116h-365zM220 595q-34 0 -55 21.5t-21 54.5q0 35 21 56.5t55 21.5q35 0 55.5 -21.5t20.5 -56.5q0 -33 -20.5 -54.5t-55.5 -21.5z" />
    <glyph glyph-name="Zcaron" unicode="&#x17d;" horiz-adv-x="535" 
d="M32 0v117l299 455h-289l15 128h439v-116l-299 -456h313l-15 -128h-463zM341 902h126l-123 -130h-134l-123 130h128l63 -57z" />
    <glyph glyph-name="zcaron" unicode="&#x17e;" horiz-adv-x="432" 
d="M29 0v105l214 299h-213l14 116h352v-105l-211 -299h223l-14 -116h-365zM276 750h118l-112 -156h-124l-112 156h120l55 -70z" />
    <glyph glyph-name="uni0218" unicode="&#x218;" horiz-adv-x="496" 
d="M466 199q0 -65 -29 -113.5t-82 -75t-125 -26.5q-62 0 -112.5 14.5t-98.5 47.5l30 127q45 -34 83.5 -48t86.5 -14q45 0 72 20t27 58q0 35 -20.5 59t-82.5 43q-91 29 -134.5 80.5t-43.5 131.5q0 97 62.5 155t169.5 58t186 -56l-29 -126q-40 30 -72.5 42.5t-74.5 12.5
q-44 0 -70.5 -19t-26.5 -57q0 -35 21.5 -57t82.5 -41q92 -28 136 -81t44 -135zM175 -243q55 15 81 51q-8 -2 -16 -2q-26 0 -43 17.5t-17 45.5q0 29 20 47.5t51 18.5q36 0 55.5 -20.5t19.5 -57.5q0 -48 -31.5 -86t-88.5 -56z" />
    <glyph glyph-name="uni0219" unicode="&#x219;" horiz-adv-x="412" 
d="M189 -13q-50 0 -90.5 11t-80.5 36l28 112q35 -25 65 -34.5t67 -9.5q30 0 47.5 12.5t17.5 34.5q0 20 -13.5 34t-54.5 26q-142 40 -142 157q0 77 52.5 122t143.5 45q88 0 149 -42l-26 -112q-32 22 -57.5 30.5t-59.5 8.5q-29 0 -46 -11.5t-17 -33.5q0 -20 14 -32.5t53 -24.5
q147 -43 147 -160q0 -77 -53.5 -123t-143.5 -46zM135 -244q58 16 84 54q-10 -2 -19 -2q-26 0 -43 17t-17 45q0 29 19.5 47t50.5 18q35 0 54.5 -20.5t19.5 -57.5q0 -48 -31.5 -86t-87.5 -56z" />
    <glyph glyph-name="uni021A" unicode="&#x21a;" horiz-adv-x="523" 
d="M186 0v566h-174v134h499v-134h-174v-566h-151zM184 -243q55 15 81 51q-8 -2 -16 -2q-26 0 -43 17.5t-17 45.5q0 29 20 47.5t51 18.5q36 0 55.5 -20.5t19.5 -57.5q0 -48 -31.5 -86t-88.5 -56z" />
    <glyph glyph-name="uni021B" unicode="&#x21b;" horiz-adv-x="374" 
d="M358 14q-22 -12 -48.5 -18t-52.5 -6q-85 0 -125.5 47.5t-40.5 148.5v215h-84l14 119h70v167h144v-167h112v-119h-112v-196q0 -49 12 -69t42 -20q16 0 27 3.5t27 13.5zM158 -244q58 16 84 54q-10 -2 -19 -2q-26 0 -43 17t-17 45q0 29 19.5 47t50.5 18q35 0 54.5 -20.5
t19.5 -57.5q0 -48 -31.5 -86t-87.5 -56z" />
    <glyph glyph-name="uni0237" unicode="&#x237;" horiz-adv-x="234" 
d="M-88 -206l21 117q15 -8 27.5 -11t28.5 -3q32 0 44 20t12 68v535h144v-549q0 -102 -42 -151t-130 -49q-30 0 -56 5t-49 18z" />
    <glyph glyph-name="circumflex" unicode="&#x2c6;" horiz-adv-x="380" 
d="M134 594h-118l112 156h124l112 -156h-120l-55 70z" />
    <glyph glyph-name="caron" unicode="&#x2c7;" horiz-adv-x="380" 
d="M246 750h118l-112 -156h-124l-112 156h120l55 -70z" />
    <glyph glyph-name="breve" unicode="&#x2d8;" horiz-adv-x="380" 
d="M190 673q53 0 57 76l88 -10q0 -69 -38.5 -108t-106.5 -39t-106.5 39t-38.5 108l88 10q4 -76 57 -76z" />
    <glyph glyph-name="dotaccent" unicode="&#x2d9;" horiz-adv-x="380" 
d="M190 595q-34 0 -55 21.5t-21 54.5q0 35 21 56.5t55 21.5q35 0 55.5 -21.5t20.5 -56.5q0 -33 -20.5 -54.5t-55.5 -21.5z" />
    <glyph glyph-name="ring" unicode="&#x2da;" horiz-adv-x="380" 
d="M190 796q50 0 82 -29.5t32 -76.5t-32 -77t-82 -30t-82 30t-32 77t32 76.5t82 29.5zM190 638q23 0 36.5 14.5t13.5 37.5t-13.5 37t-36.5 14t-36.5 -14t-13.5 -37t13.5 -37.5t36.5 -14.5z" />
    <glyph glyph-name="ogonek" unicode="&#x2db;" horiz-adv-x="380" 
d="M49 -137q0 48 37 90.5t105 73.5l49 -27q-99 -49 -99 -110q0 -38 41 -38q25 0 41 11l17 -76q-32 -16 -78 -16q-55 0 -84 25t-29 67z" />
    <glyph glyph-name="tilde" unicode="&#x2dc;" horiz-adv-x="380" 
d="M22 603q0 71 26.5 110t73.5 39q23 0 42.5 -9t41.5 -30q15 -15 22.5 -20.5t15.5 -5.5q16 0 21.5 15.5t6.5 49.5l86 -11q0 -70 -26.5 -109.5t-73.5 -39.5q-22 0 -41.5 8.5t-42.5 30.5q-15 15 -22.5 20.5t-15.5 5.5q-16 0 -21.5 -15t-6.5 -50z" />
    <glyph glyph-name="hungarumlaut" unicode="&#x2dd;" horiz-adv-x="380" 
d="M155 594h-119l106 156h153zM358 594h-119l106 156h153z" />
    <glyph glyph-name="gravecomb" unicode="&#x300;" 
d="M-39 594l-139 156h160l107 -156h-128z" />
    <glyph glyph-name="acutecomb" unicode="&#x301;" 
d="M39 594h-128l107 156h160z" />
    <glyph glyph-name="uni0302" unicode="&#x302;" 
d="M-56 594h-118l112 156h124l112 -156h-120l-55 70z" />
    <glyph glyph-name="tildecomb" unicode="&#x303;" 
d="M-168 603q0 71 26.5 110t73.5 39q23 0 42.5 -9t41.5 -30q15 -15 22.5 -20.5t15.5 -5.5q16 0 21.5 15.5t6.5 49.5l86 -11q0 -70 -26.5 -109.5t-73.5 -39.5q-22 0 -41.5 8.5t-42.5 30.5q-15 15 -22.5 20.5t-15.5 5.5q-16 0 -21.5 -15t-6.5 -50z" />
    <glyph glyph-name="uni0304" unicode="&#x304;" 
d="M-161 721h322v-97h-322v97z" />
    <glyph glyph-name="uni0306" unicode="&#x306;" 
d="M0 673q53 0 57 76l88 -10q0 -69 -38.5 -108t-106.5 -39t-106.5 39t-38.5 108l88 10q4 -76 57 -76z" />
    <glyph glyph-name="uni0307" unicode="&#x307;" 
d="M0 595q-34 0 -55 21.5t-21 54.5q0 35 21 56.5t55 21.5q35 0 55.5 -21.5t20.5 -56.5q0 -33 -20.5 -54.5t-55.5 -21.5z" />
    <glyph glyph-name="uni0308" unicode="&#x308;" 
d="M-107 598q-32 0 -52 21t-20 53q0 33 20 53.5t52 20.5t52 -20.5t20 -53.5q0 -32 -20 -53t-52 -21zM107 598q-32 0 -52 21t-20 53q0 33 20 53.5t52 20.5t52 -20.5t20 -53.5q0 -32 -20 -53t-52 -21z" />
    <glyph glyph-name="uni030A" unicode="&#x30a;" 
d="M0 796q50 0 82 -29.5t32 -76.5t-32 -77t-82 -30t-82 30t-32 77t32 76.5t82 29.5zM0 638q23 0 36.5 14.5t13.5 37.5t-13.5 37t-36.5 14t-36.5 -14t-13.5 -37t13.5 -37.5t36.5 -14.5z" />
    <glyph glyph-name="uni030B" unicode="&#x30b;" 
d="M-35 594h-119l106 156h153zM168 594h-119l106 156h153z" />
    <glyph glyph-name="uni030C" unicode="&#x30c;" 
d="M56 750h118l-112 -156h-124l-112 156h120l55 -70z" />
    <glyph glyph-name="uni0312" unicode="&#x312;" 
d="M77 777q-58 -16 -84 -54q10 2 19 2q26 0 43 -17t17 -45t-19.5 -46.5t-50.5 -18.5q-35 0 -54.5 20.5t-19.5 57.5q0 48 31.5 86t87.5 56z" />
    <glyph glyph-name="uni0315" unicode="&#x315;" 
d="M64 740q-4 -64 -11 -114t-18 -96h-109q5 50 7 100.5t3 109.5h128z" />
    <glyph glyph-name="dotbelowcomb" unicode="&#x323;" 
d="M0 -219q-34 0 -55 21.5t-21 54.5q0 35 21 56.5t55 21.5q35 0 55.5 -21.5t20.5 -56.5q0 -33 -20.5 -54.5t-55.5 -21.5z" />
    <glyph glyph-name="uni0326" unicode="&#x326;" 
d="M-77 -244q58 16 84 54q-10 -2 -19 -2q-26 0 -43 17t-17 45q0 29 19.5 47t50.5 18q35 0 54.5 -20.5t19.5 -57.5q0 -48 -31.5 -86t-87.5 -56z" />
    <glyph glyph-name="uni0327" unicode="&#x327;" 
d="M-94 -214l18 67q22 -11 53 -11q49 0 49 30q0 26 -44 26q-22 0 -40 -5l25 122h73l-15 -62h2q43 0 66.5 -22.5t23.5 -63.5q0 -45 -34 -70.5t-93 -25.5q-27 0 -46.5 4t-37.5 11z" />
    <glyph glyph-name="uni0328" unicode="&#x328;" 
d="M-141 -137q0 48 37 90.5t105 73.5l49 -27q-99 -49 -99 -110q0 -38 41 -38q25 0 41 11l17 -76q-32 -16 -78 -16q-55 0 -84 25t-29 67z" />
    <glyph glyph-name="uni0344" unicode="&#x344;" 
d="M-61 602l45 206h143l-83 -206h-105zM-150 598q-32 0 -52 21t-20 53q0 33 20 53.5t52 20.5t52 -20.5t20 -53.5q0 -32 -20 -53t-52 -21zM180 598q-32 0 -52 21t-20 53q0 33 20 53.5t52 20.5t52 -20.5t20 -53.5q0 -32 -20 -53t-52 -21z" />
    <glyph glyph-name="uni0374" unicode="&#x374;" horiz-adv-x="243" 
d="M23 457l52 283h168l-83 -283h-137z" />
    <glyph glyph-name="uni0375" unicode="&#x375;" horiz-adv-x="243" 
d="M0 -104l83 283h137l-52 -283h-168z" />
    <glyph glyph-name="uni037E" unicode="&#x37e;" horiz-adv-x="242" 
d="M24 -120q37 15 63.5 43.5t37.5 65.5h-6q-37 0 -62.5 24.5t-25.5 63.5q0 41 24.5 66t62.5 25q44 0 68.5 -30.5t24.5 -84.5q0 -77 -40 -140t-106 -91zM121 352q-39 0 -63.5 25.5t-24.5 64.5q0 40 24.5 64.5t63.5 24.5t63.5 -24.5t24.5 -64.5q0 -39 -24.5 -64.5t-63.5 -25.5
z" />
    <glyph glyph-name="tonos" unicode="&#x384;" horiz-adv-x="380" 
d="M109 602l50 206h152l-91 -206h-111z" />
    <glyph glyph-name="dieresistonos" unicode="&#x385;" horiz-adv-x="380" 
d="M114 602l45 206h143l-83 -206h-105zM25 598q-32 0 -52 21t-20 53q0 33 20 53.5t52 20.5t52 -20.5t20 -53.5q0 -32 -20 -53t-52 -21zM355 598q-32 0 -52 21t-20 53q0 33 20 53.5t52 20.5t52 -20.5t20 -53.5q0 -32 -20 -53t-52 -21z" />
    <glyph glyph-name="Alphatonos" unicode="&#x386;" horiz-adv-x="691" 
d="M519 0l-38 152h-192l-39 -152h-158l218 700h155l218 -700h-164zM321 279h128l-64 253zM20 458l34 242h159l-68 -242h-125z" />
    <glyph glyph-name="anoteleia" unicode="&#x387;" horiz-adv-x="242" 
d="M121 352q-39 0 -63.5 25.5t-24.5 64.5q0 40 24.5 64.5t63.5 24.5t63.5 -24.5t24.5 -64.5q0 -39 -24.5 -64.5t-63.5 -25.5z" />
    <glyph glyph-name="Epsilontonos" unicode="&#x388;" horiz-adv-x="716" 
d="M274 0v700h394l15 -127h-261v-154h235v-127h-235v-165h277l-15 -127h-410zM20 458l34 242h159l-68 -242h-125z" />
    <glyph glyph-name="Etatonos" unicode="&#x389;" horiz-adv-x="825" 
d="M274 0v700h151v-277h197v277h151v-700h-151v287h-197v-287h-151zM20 458l34 242h159l-68 -242h-125z" />
    <glyph glyph-name="Iotatonos" unicode="&#x38a;" horiz-adv-x="477" 
d="M274 0v700h151v-700h-151zM20 458l34 242h159l-68 -242h-125z" />
    <glyph glyph-name="Omicrontonos" unicode="&#x38c;" horiz-adv-x="827" 
d="M500 -16q-90 0 -156.5 45.5t-103 128t-36.5 192.5t36.5 192.5t103 128t156.5 45.5t156.5 -45.5t103 -128t36.5 -192.5t-36.5 -192.5t-103 -128t-156.5 -45.5zM500 118q68 0 103.5 62t35.5 170t-35.5 170t-103.5 62q-67 0 -103 -62t-36 -170t36 -170t103 -62zM20 468
l34 242h159l-68 -242h-125z" />
    <glyph glyph-name="Upsilontonos" unicode="&#x38e;" horiz-adv-x="839" 
d="M470 0v277l-209 423h173l114 -295l115 295h167l-209 -423v-277h-151zM20 458l34 242h159l-68 -242h-125z" />
    <glyph glyph-name="Omegatonos" unicode="&#x38f;" horiz-adv-x="845" 
d="M215 0v128h118q-61 47 -86.5 113t-25.5 142q0 98 35.5 173t99.5 117.5t151 42.5t151 -42.5t99 -117.5t35 -173q0 -76 -25.5 -142t-86.5 -113h124l-15 -128h-243v124q21 15 41.5 47t34.5 81.5t14 115.5q0 97 -33 155.5t-96 58.5q-64 0 -96.5 -58.5t-32.5 -155.5
q0 -66 13.5 -115.5t34.5 -81.5t41 -47v-124h-252zM20 458l34 242h159l-68 -242h-125z" />
    <glyph glyph-name="iotadieresistonos" unicode="&#x390;" horiz-adv-x="300" 
d="M179 -10q-68 0 -102.5 42.5t-34.5 133.5v354h143v-328q0 -41 12 -58t40 -17q10 0 20.5 3t20.5 7l15 -112q-28 -13 -52.5 -19t-61.5 -6zM52 602l45 206h143l-83 -206h-105zM-37 598q-32 0 -52 21t-20 53q0 33 20 53.5t52 20.5t52 -20.5t20 -53.5q0 -32 -20 -53t-52 -21z
M293 598q-32 0 -52 21t-20 53q0 33 20 53.5t52 20.5t52 -20.5t20 -53.5q0 -32 -20 -53t-52 -21z" />
    <glyph glyph-name="Alpha" unicode="&#x391;" horiz-adv-x="607" 
d="M435 0l-38 152h-192l-39 -152h-158l218 700h155l218 -700h-164zM237 279h128l-64 253z" />
    <glyph glyph-name="Beta" unicode="&#x392;" horiz-adv-x="542" 
d="M515 201q0 -93 -58.5 -147t-160.5 -54h-244v700h230q95 0 150.5 -50t55.5 -133q0 -53 -26 -92.5t-69 -55.5q55 -11 88.5 -56.5t33.5 -111.5zM265 417q40 0 59.5 23t19.5 65q0 79 -77 79h-72v-167h70zM282 116q44 0 65 24.5t21 70.5q0 45 -22.5 70t-68.5 25h-82v-190h87z
" />
    <glyph glyph-name="Gamma" unicode="&#x393;" horiz-adv-x="448" 
d="M52 0v700h369l16 -134h-234v-566h-151z" />
    <glyph glyph-name="uni0394" unicode="&#x394;" horiz-adv-x="603" 
d="M28 0v110l196 590h154l197 -590v-110h-547zM188 126h221l-110 409z" />
    <glyph glyph-name="Epsilon" unicode="&#x395;" horiz-adv-x="494" 
d="M52 0v700h394l15 -127h-261v-154h235v-127h-235v-165h277l-15 -127h-410z" />
    <glyph glyph-name="Zeta" unicode="&#x396;" horiz-adv-x="535" 
d="M32 0v117l299 455h-289l15 128h439v-116l-299 -456h313l-15 -128h-463z" />
    <glyph glyph-name="Eta" unicode="&#x397;" horiz-adv-x="603" 
d="M52 0v700h151v-277h197v277h151v-700h-151v287h-197v-287h-151z" />
    <glyph glyph-name="Theta" unicode="&#x398;" horiz-adv-x="654" 
d="M327 -16q-90 0 -156.5 45.5t-103 128t-36.5 192.5t36.5 192.5t103 128t156.5 45.5t156.5 -45.5t103 -128t36.5 -192.5t-36.5 -192.5t-103 -128t-156.5 -45.5zM327 118q68 0 103.5 62t35.5 170t-35.5 170t-103.5 62q-67 0 -103 -62t-36 -170t36 -170t103 -62zM241 288v136
h171v-136h-171z" />
    <glyph glyph-name="Iota" unicode="&#x399;" horiz-adv-x="255" 
d="M52 0v700h151v-700h-151z" />
    <glyph glyph-name="Kappa" unicode="&#x39a;" horiz-adv-x="595" 
d="M52 0v700h151v-289l189 289h168l-189 -268l215 -432h-171l-139 297l-73 -103v-194h-151z" />
    <glyph glyph-name="Lambda" unicode="&#x39b;" horiz-adv-x="579" 
d="M8 0l204 700h154l205 -700h-164l-120 510l-121 -510h-158z" />
    <glyph glyph-name="Mu" unicode="&#x39c;" horiz-adv-x="720" 
d="M52 0v700h187l124 -426l124 426h181v-700h-141v485l-109 -367h-116l-109 369v-487h-141z" />
    <glyph glyph-name="Nu" unicode="&#x39d;" horiz-adv-x="602" 
d="M52 0v700h156l200 -447v447h142v-700h-152l-204 451v-451h-142z" />
    <glyph glyph-name="Xi" unicode="&#x39e;" horiz-adv-x="508" 
d="M34 564v136h441v-136h-441zM104 289v134h302v-134h-302zM26 0v136h456v-136h-456z" />
    <glyph glyph-name="Omicron" unicode="&#x39f;" horiz-adv-x="654" 
d="M327 -16q-90 0 -156.5 45.5t-103 128t-36.5 192.5t36.5 192.5t103 128t156.5 45.5t156.5 -45.5t103 -128t36.5 -192.5t-36.5 -192.5t-103 -128t-156.5 -45.5zM327 118q68 0 103.5 62t35.5 170t-35.5 170t-103.5 62q-67 0 -103 -62t-36 -170t36 -170t103 -62z" />
    <glyph glyph-name="Pi" unicode="&#x3a0;" horiz-adv-x="599" 
d="M52 0v700h495v-700h-151v564h-193v-564h-151z" />
    <glyph glyph-name="Rho" unicode="&#x3a1;" horiz-adv-x="511" 
d="M264 238h-66v-238h-146v700h212q102 0 161.5 -62.5t59.5 -168.5t-59.5 -168.5t-161.5 -62.5zM252 359q40 0 60 29t20 81q0 53 -20 81.5t-60 28.5h-54v-220h54z" />
    <glyph glyph-name="Sigma" unicode="&#x3a3;" horiz-adv-x="497" 
d="M33 0v125l152 222l-147 229v124h412l17 -136h-248l133 -208l-150 -220h280l-15 -136h-434z" />
    <glyph glyph-name="Tau" unicode="&#x3a4;" horiz-adv-x="523" 
d="M186 0v566h-174v134h499v-134h-174v-566h-151z" />
    <glyph glyph-name="Upsilon" unicode="&#x3a5;" horiz-adv-x="587" 
d="M218 0v277l-209 423h173l114 -295l115 295h167l-209 -423v-277h-151z" />
    <glyph glyph-name="Phi" unicode="&#x3a6;" horiz-adv-x="703" 
d="M278 0v66q-120 16 -183.5 87.5t-63.5 202.5t63.5 203t183.5 88v69h148v-69q119 -16 182.5 -87.5t63.5 -203.5q0 -131 -63.5 -202.5t-182.5 -87.5v-66h-148zM182 356q0 -77 25.5 -117.5t76.5 -53.5v344q-51 -14 -76.5 -55t-25.5 -118zM521 356q0 77 -25 118t-76 55v-344
q51 13 76 54t25 117z" />
    <glyph glyph-name="Chi" unicode="&#x3a7;" horiz-adv-x="598" 
d="M9 0l204 359l-188 341h166l109 -226l112 226h161l-191 -340l207 -360h-169l-124 242l-123 -242h-164z" />
    <glyph glyph-name="Psi" unicode="&#x3a8;" horiz-adv-x="672" 
d="M264 0v179q-125 17 -179 94t-54 204v223h148v-217q0 -67 18 -111t67 -62v390h144v-390q49 18 67 62t18 111v217h148v-223q0 -127 -54 -204t-179 -94v-179h-144z" />
    <glyph glyph-name="uni03A9" unicode="&#x3a9;" horiz-adv-x="671" 
d="M41 0v128h118q-61 47 -86.5 113t-25.5 142q0 98 35.5 173t99.5 117.5t151 42.5t151 -42.5t99 -117.5t35 -173q0 -76 -25.5 -142t-86.5 -113h124l-15 -128h-243v124q21 15 41.5 47t34.5 81.5t14 115.5q0 97 -33 155.5t-96 58.5q-64 0 -96.5 -58.5t-32.5 -155.5
q0 -66 13.5 -115.5t34.5 -81.5t41 -47v-124h-252z" />
    <glyph glyph-name="Iotadieresis" unicode="&#x3aa;" horiz-adv-x="255" 
d="M52 0v700h151v-700h-151zM15 769q-33 0 -53 21t-20 54t20 53.5t53 20.5t53 -20.5t20 -53.5t-20 -54t-53 -21zM241 769q-33 0 -53 21t-20 54t20 53.5t53 20.5t53 -20.5t20 -53.5t-20 -54t-53 -21z" />
    <glyph glyph-name="Upsilondieresis" unicode="&#x3ab;" horiz-adv-x="587" 
d="M218 0v277l-209 423h173l114 -295l115 295h167l-209 -423v-277h-151zM185 769q-33 0 -53 21t-20 54t20 53.5t53 20.5t53 -20.5t20 -53.5t-20 -54t-53 -21zM411 769q-33 0 -53 21t-20 54t20 53.5t53 20.5t53 -20.5t20 -53.5t-20 -54t-53 -21z" />
    <glyph glyph-name="alphatonos" unicode="&#x3ac;" horiz-adv-x="525" 
d="M210 -13q-56 0 -97 34.5t-62.5 96t-21.5 142.5q0 82 21.5 143t62.5 95.5t99 34.5q89 0 125 -90q2 20 5.5 39t7.5 38h143q-10 -58 -18 -120.5t-13 -104.5q-4 -37 -6 -69t-2 -55q0 -30 5.5 -39.5t15.5 -9.5t21 7l16 -115q-21 -11 -41.5 -15t-47.5 -4q-70 0 -92 70
q-38 -78 -121 -78zM248 114q38 0 56 38.5t18 107.5q0 70 -18 108t-56 38q-37 0 -55 -38.5t-18 -107.5q0 -70 18 -108t55 -38zM216 603l50 206h152l-91 -206h-111z" />
    <glyph glyph-name="epsilontonos" unicode="&#x3ad;" horiz-adv-x="428" 
d="M242 -13q-103 0 -155.5 41t-52.5 112q0 48 25.5 81.5t62.5 50.5q-37 15 -58.5 42.5t-21.5 73.5q0 60 49.5 102.5t149.5 42.5q51 0 88.5 -9.5t62.5 -27.5l-24 -109q-22 14 -46.5 21t-55.5 7q-46 0 -63 -15.5t-17 -38.5q0 -20 15.5 -35t47.5 -15h94v-96h-104q-60 0 -60 -51
q0 -30 19.5 -43.5t49.5 -13.5q44 0 74.5 8t57.5 24l23 -112q-26 -19 -65.5 -29.5t-95.5 -10.5zM167 602l50 206h152l-91 -206h-111z" />
    <glyph glyph-name="etatonos" unicode="&#x3ae;" horiz-adv-x="517" 
d="M332 -216v516q0 55 -11 78.5t-43 23.5q-65 0 -65 -109v-293h-143v333q0 36 -5 50.5t-24 14.5q-11 0 -17 -5l-16 116q38 16 83 16q39 0 67 -20.5t40 -67.5q16 46 50 71t81 25q147 0 147 -209v-540h-144zM195 602l50 206h152l-91 -206h-111z" />
    <glyph glyph-name="iotatonos" unicode="&#x3af;" horiz-adv-x="300" 
d="M179 -10q-68 0 -102.5 42.5t-34.5 133.5v354h143v-328q0 -41 12 -58t40 -17q10 0 20.5 3t20.5 7l15 -112q-28 -13 -52.5 -19t-61.5 -6zM51 602l50 206h152l-91 -206h-111z" />
    <glyph glyph-name="upsilondieresistonos" unicode="&#x3b0;" horiz-adv-x="493" 
d="M251 -13q-94 0 -140.5 65.5t-46.5 187.5v97q0 32 -5 46.5t-22 14.5q-11 0 -17 -5l-16 116q35 16 80 16q33 0 60.5 -15t44 -50.5t16.5 -99.5v-111q0 -65 9.5 -100t40.5 -35q32 0 43.5 34.5t11.5 108.5q0 63 -5 123.5t-19 139.5h143q11 -61 18 -115t7 -112
q0 -153 -49.5 -229.5t-153.5 -76.5zM172 603l45 206h143l-83 -206h-105zM83 599q-32 0 -52 21t-20 53q0 33 20 53.5t52 20.5t52 -20.5t20 -53.5q0 -32 -20 -53t-52 -21zM413 599q-32 0 -52 21t-20 53q0 33 20 53.5t52 20.5t52 -20.5t20 -53.5q0 -32 -20 -53t-52 -21z" />
    <glyph glyph-name="alpha" unicode="&#x3b1;" horiz-adv-x="525" 
d="M210 -13q-56 0 -97 34.5t-62.5 96t-21.5 142.5q0 82 21.5 143t62.5 95.5t99 34.5q89 0 125 -90q2 20 5.5 39t7.5 38h143q-10 -58 -18 -120.5t-13 -104.5q-4 -37 -6 -69t-2 -55q0 -30 5.5 -39.5t15.5 -9.5t21 7l16 -115q-21 -11 -41.5 -15t-47.5 -4q-70 0 -92 70
q-38 -78 -121 -78zM248 114q38 0 56 38.5t18 107.5q0 70 -18 108t-56 38q-37 0 -55 -38.5t-18 -107.5q0 -70 18 -108t55 -38z" />
    <glyph glyph-name="beta" unicode="&#x3b2;" horiz-adv-x="531" 
d="M45 -216v723q0 119 58.5 182.5t162.5 63.5q60 0 104 -26t68 -71.5t24 -105.5q0 -58 -25 -101t-63 -60q56 -19 92 -66.5t36 -124.5q0 -97 -46 -154t-125 -57q-46 0 -82 20.5t-61 64.5v-288h-143zM282 117q38 0 56 26t18 74q0 50 -24 76t-63 26h-32v120h28q30 0 42 26.5
t12 68.5q0 44 -15 70.5t-48 26.5q-37 0 -52.5 -29t-15.5 -86v-270q0 -74 25.5 -101.5t68.5 -27.5z" />
    <glyph glyph-name="gamma" unicode="&#x3b3;" horiz-adv-x="493" 
d="M177 -216v223l-103 339q-8 28 -15 40t-21 12q-10 0 -17 -5l-16 116q18 8 37.5 12t44.5 4q38 0 65 -20.5t42 -75.5l71 -262q28 90 45 178.5t24 174.5h147q-14 -121 -56.5 -253.5t-104.5 -263.5v-219h-143z" />
    <glyph glyph-name="delta" unicode="&#x3b4;" horiz-adv-x="499" 
d="M248 -13q-62 0 -112 31t-78.5 85t-28.5 122t31 121.5t100 79.5q-95 51 -95 148q0 84 58 131.5t156 47.5q51 0 94.5 -14.5t67.5 -34.5l-28 -118q-29 21 -58 31.5t-64 10.5q-79 0 -79 -58q0 -22 17 -40.5t61 -41.5l32 -16q71 -36 109.5 -94t38.5 -142q0 -74 -29 -130
t-79 -87.5t-114 -31.5zM249 114q35 0 55 34.5t20 97.5q0 62 -19 97t-56 35q-34 0 -54 -35t-20 -97q0 -64 19 -98t55 -34z" />
    <glyph glyph-name="epsilon" unicode="&#x3b5;" horiz-adv-x="428" 
d="M242 -13q-103 0 -155.5 41t-52.5 112q0 48 25.5 81.5t62.5 50.5q-37 15 -58.5 42.5t-21.5 73.5q0 60 49.5 102.5t149.5 42.5q51 0 88.5 -9.5t62.5 -27.5l-24 -109q-22 14 -46.5 21t-55.5 7q-46 0 -63 -15.5t-17 -38.5q0 -20 15.5 -35t47.5 -15h94v-96h-104q-60 0 -60 -51
q0 -30 19.5 -43.5t49.5 -13.5q44 0 74.5 8t57.5 24l23 -112q-26 -19 -65.5 -29.5t-95.5 -10.5z" />
    <glyph glyph-name="zeta" unicode="&#x3b6;" horiz-adv-x="413" 
d="M324 -219l-85 92q25 18 35.5 34.5t10.5 36.5q0 26 -14.5 37.5t-44.5 20.5l-39 12q-42 14 -76 36t-53.5 61t-19.5 102q0 75 52 172t166 239h-214l15 116h354v-105q-115 -142 -171.5 -235.5t-56.5 -160.5q0 -44 18 -67.5t58 -37.5l34 -12q64 -22 101 -58t37 -102
q0 -55 -25 -98.5t-82 -82.5z" />
    <glyph glyph-name="eta" unicode="&#x3b7;" horiz-adv-x="517" 
d="M332 -216v516q0 55 -11 78.5t-43 23.5q-65 0 -65 -109v-293h-143v333q0 36 -5 50.5t-24 14.5q-11 0 -17 -5l-16 116q38 16 83 16q39 0 67 -20.5t40 -67.5q16 46 50 71t81 25q147 0 147 -209v-540h-144z" />
    <glyph glyph-name="theta" unicode="&#x3b8;" horiz-adv-x="534" 
d="M267 -13q-79 0 -129.5 47.5t-74.5 134t-24 201.5q0 116 25.5 202t76 133.5t126.5 47.5q80 0 130 -47.5t74 -133.5t24 -202q0 -115 -25.5 -201.5t-76 -134t-126.5 -47.5zM267 626q-42 0 -60.5 -52t-22.5 -145h167q-3 91 -20.5 144t-63.5 53zM267 114q45 0 63.5 55.5
t20.5 154.5h-168q3 -97 19.5 -153.5t64.5 -56.5z" />
    <glyph glyph-name="iota" unicode="&#x3b9;" horiz-adv-x="300" 
d="M179 -10q-68 0 -102.5 42.5t-34.5 133.5v354h143v-328q0 -41 12 -58t40 -17q10 0 20.5 3t20.5 7l15 -112q-28 -13 -52.5 -19t-61.5 -6z" />
    <glyph glyph-name="kappa" unicode="&#x3ba;" horiz-adv-x="504" 
d="M45 0v520h143v-197l137 197h163l-143 -181l154 -339h-156l-93 218l-62 -78v-140h-143z" />
    <glyph glyph-name="lambda" unicode="&#x3bb;" horiz-adv-x="509" 
d="M14 0l185 531l-4 17q-10 47 -34 63t-44 16q-19 0 -34.5 -5t-26.5 -13l-25 116q55 28 129 28q62 0 107 -40t73 -144l155 -569h-155l-79 354l-96 -354h-151z" />
    <glyph glyph-name="uni03BC" unicode="&#x3bc;" horiz-adv-x="519" 
d="M45 -216v736h143v-300q0 -52 11.5 -77t42.5 -25q65 0 65 109v293h143v-333q0 -36 5.5 -50.5t23.5 -14.5q11 0 17 5l16 -116q-18 -7 -39 -11.5t-44 -4.5q-38 0 -65.5 19t-39.5 62q-26 -89 -97 -89q-22 0 -39 16v-219h-143z" />
    <glyph glyph-name="nu" unicode="&#x3bd;" horiz-adv-x="485" 
d="M175 0l-101 347q-8 27 -15 39t-21 12q-11 0 -17 -5l-16 116q18 8 37.5 12t44.5 4q38 0 65.5 -20t41.5 -76l68 -263q28 90 42 178.5t21 175.5h148q-15 -124 -56 -255t-103 -265h-139z" />
    <glyph glyph-name="xi" unicode="&#x3be;" horiz-adv-x="449" 
d="M338 -219l-85 92q25 18 35.5 34.5t10.5 36.5q0 26 -14 37t-45 21l-41 13q-88 27 -129 71t-41 117q0 72 35.5 121.5t94.5 70.5q-54 16 -84 59t-30 101q0 92 57 145t156 53q43 0 87.5 -12t75.5 -33l-28 -119q-30 20 -56.5 29t-57.5 9q-47 0 -68 -23t-21 -70q0 -43 24.5 -66
t69.5 -23h75v-123h-79q-50 0 -77.5 -22t-27.5 -68t22.5 -64t66.5 -32l42 -13q66 -20 102.5 -57.5t36.5 -103.5q0 -55 -25 -98.5t-82 -82.5z" />
    <glyph glyph-name="omicron" unicode="&#x3bf;" horiz-adv-x="504" 
d="M252 -13q-67 0 -117.5 34t-78 95.5t-27.5 143.5t27.5 143.5t78 95.5t117.5 34q68 0 118 -34t77.5 -95.5t27.5 -143.5t-27.5 -143.5t-77.5 -95.5t-118 -34zM252 114q39 0 58 38.5t19 107.5t-19 107.5t-58 38.5t-58 -38.5t-19 -107.5t19 -107.5t58 -38.5z" />
    <glyph glyph-name="pi" unicode="&#x3c0;" horiz-adv-x="550" 
d="M78 0v399h-69l14 121h501v-121h-66v-212q0 -36 5.5 -50.5t23.5 -14.5q11 0 17 5l16 -116q-18 -7 -37.5 -11.5t-42.5 -4.5q-50 0 -77.5 21.5t-37.5 60.5t-10 89v233h-94v-399h-143z" />
    <glyph glyph-name="rho" unicode="&#x3c1;" horiz-adv-x="509" 
d="M41 -216v473q0 84 26 146t75 96t116 34q68 0 118 -33.5t77 -94.5t27 -145q0 -82 -23.5 -143.5t-65 -95.5t-96.5 -34q-38 0 -65.5 15t-45.5 42v-260h-143zM259 114q38 0 56.5 38t18.5 108t-18.5 108t-56.5 38q-37 0 -56 -37.5t-19 -108.5q0 -69 19 -107.5t56 -38.5z" />
    <glyph glyph-name="sigma1" unicode="&#x3c2;" horiz-adv-x="428" 
d="M295 -190l-86 91q26 20 37.5 36.5t11.5 38.5q0 20 -12.5 31.5t-44.5 21.5l-24 8q-74 24 -111 83t-37 158q0 118 59 186t164 68q45 0 87.5 -12.5t73.5 -35.5l-29 -121q-27 21 -53.5 32t-61.5 11q-46 0 -70 -34.5t-24 -94.5q0 -55 21 -82.5t67 -44.5l30 -11
q50 -19 80.5 -53t30.5 -92q0 -53 -24 -98t-85 -86z" />
    <glyph glyph-name="sigma" unicode="&#x3c3;" horiz-adv-x="513" 
d="M247 -13q-65 0 -114.5 33.5t-76.5 94.5t-27 143q0 81 28 139.5t77 90.5t113 32h254l-14 -121h-100q31 -27 53.5 -72.5t22.5 -101.5q0 -71 -27 -125t-75.5 -83.5t-113.5 -29.5zM248 114q41 0 58 38.5t17 99.5q0 49 -8.5 85.5t-27.5 61.5h-32q-46 0 -63.5 -39.5
t-17.5 -101.5q0 -69 19 -106.5t55 -37.5z" />
    <glyph glyph-name="tau" unicode="&#x3c4;" horiz-adv-x="426" 
d="M262 -10q-71 0 -104 45t-33 131v233h-118l15 121h381v-121h-134v-207q0 -44 13 -59.5t39 -15.5q21 0 45 11l15 -112q-28 -13 -53 -19.5t-66 -6.5z" />
    <glyph glyph-name="upsilon" unicode="&#x3c5;" horiz-adv-x="493" 
d="M251 -13q-94 0 -140.5 65.5t-46.5 187.5v97q0 32 -5 46.5t-22 14.5q-11 0 -17 -5l-16 116q35 16 80 16q33 0 60.5 -15t44 -50.5t16.5 -99.5v-111q0 -65 9.5 -100t40.5 -35q32 0 43.5 34.5t11.5 108.5q0 63 -5 123.5t-19 139.5h143q11 -61 18 -115t7 -112
q0 -153 -49.5 -229.5t-153.5 -76.5z" />
    <glyph glyph-name="phi" unicode="&#x3c6;" horiz-adv-x="657" 
d="M258 -216v208q-115 17 -172 88.5t-57 179.5t56 179.5t173 88.5v172h142v-172q117 -17 172.5 -89t55.5 -180q0 -107 -56.5 -178t-171.5 -89v-208h-142zM487 259q0 67 -25 105t-71 51v-310q53 14 74.5 53.5t21.5 100.5zM170 260q0 -62 21.5 -102t74.5 -53v310
q-96 -29 -96 -155z" />
    <glyph glyph-name="chi" unicode="&#x3c7;" horiz-adv-x="501" 
d="M409 -229q-39 0 -60 21.5t-39 67.5l-57 150l-93 -226h-151l166 390l-72 179q-10 26 -20 35.5t-21 9.5t-21 -7l-16 116q15 8 36 13t43 5q39 0 61.5 -20.5t41.5 -68.5l50 -129l85 213h150l-162 -367l83 -211q11 -28 21 -36.5t23 -8.5q11 0 23 7l12 -117q-16 -7 -37 -11.5
t-46 -4.5z" />
    <glyph glyph-name="psi" unicode="&#x3c8;" horiz-adv-x="624" 
d="M246 -216v208q-104 16 -157.5 83.5t-53.5 182.5v262h140v-257q0 -59 15.5 -95t55.5 -50v582h134v-582q40 14 55 50t15 95v257h140v-262q0 -115 -53.5 -182.5t-156.5 -83.5v-208h-134z" />
    <glyph glyph-name="omega" unicode="&#x3c9;" horiz-adv-x="669" 
d="M209 -13q-54 0 -87.5 25t-51.5 64.5t-24.5 85t-6.5 85.5q0 57 17 131.5t49 141.5h144q-34 -80 -49 -147.5t-15 -126.5q0 -132 42 -132q23 0 33.5 36t10.5 127v122h127v-122q0 -91 10.5 -127t33.5 -36q43 0 43 132q0 59 -15 126.5t-50 147.5h144q32 -67 49 -141.5
t17 -131.5q0 -40 -6.5 -85.5t-24 -85t-51 -64.5t-87.5 -25q-44 0 -77.5 29t-48.5 87q-16 -58 -49.5 -87t-76.5 -29z" />
    <glyph glyph-name="iotadieresis" unicode="&#x3ca;" horiz-adv-x="300" 
d="M179 -10q-68 0 -102.5 42.5t-34.5 133.5v354h143v-328q0 -41 12 -58t40 -17q10 0 20.5 3t20.5 7l15 -112q-28 -13 -52.5 -19t-61.5 -6zM6 597q-32 0 -52 21t-20 53q0 33 20 53.5t52 20.5t52 -20.5t20 -53.5q0 -32 -20 -53t-52 -21zM220 597q-32 0 -52 21t-20 53
q0 33 20 53.5t52 20.5t52 -20.5t20 -53.5q0 -32 -20 -53t-52 -21z" />
    <glyph glyph-name="upsilondieresis" unicode="&#x3cb;" horiz-adv-x="493" 
d="M251 -13q-94 0 -140.5 65.5t-46.5 187.5v97q0 32 -5 46.5t-22 14.5q-11 0 -17 -5l-16 116q35 16 80 16q33 0 60.5 -15t44 -50.5t16.5 -99.5v-111q0 -65 9.5 -100t40.5 -35q32 0 43.5 34.5t11.5 108.5q0 63 -5 123.5t-19 139.5h143q11 -61 18 -115t7 -112
q0 -153 -49.5 -229.5t-153.5 -76.5zM126 598q-32 0 -52 21t-20 53q0 33 20 53.5t52 20.5t52 -20.5t20 -53.5q0 -32 -20 -53t-52 -21zM340 598q-32 0 -52 21t-20 53q0 33 20 53.5t52 20.5t52 -20.5t20 -53.5q0 -32 -20 -53t-52 -21z" />
    <glyph glyph-name="omicrontonos" unicode="&#x3cc;" horiz-adv-x="504" 
d="M252 -13q-67 0 -117.5 34t-78 95.5t-27.5 143.5t27.5 143.5t78 95.5t117.5 34q68 0 118 -34t77.5 -95.5t27.5 -143.5t-27.5 -143.5t-77.5 -95.5t-118 -34zM252 114q39 0 58 38.5t19 107.5t-19 107.5t-58 38.5t-58 -38.5t-19 -107.5t19 -107.5t58 -38.5zM187 603l50 206
h152l-91 -206h-111z" />
    <glyph glyph-name="upsilontonos" unicode="&#x3cd;" horiz-adv-x="493" 
d="M251 -13q-94 0 -140.5 65.5t-46.5 187.5v97q0 32 -5 46.5t-22 14.5q-11 0 -17 -5l-16 116q35 16 80 16q33 0 60.5 -15t44 -50.5t16.5 -99.5v-111q0 -65 9.5 -100t40.5 -35q32 0 43.5 34.5t11.5 108.5q0 63 -5 123.5t-19 139.5h143q11 -61 18 -115t7 -112
q0 -153 -49.5 -229.5t-153.5 -76.5zM161 603l50 206h152l-91 -206h-111z" />
    <glyph glyph-name="omegatonos" unicode="&#x3ce;" horiz-adv-x="669" 
d="M209 -13q-54 0 -87.5 25t-51.5 64.5t-24.5 85t-6.5 85.5q0 57 17 131.5t49 141.5h144q-34 -80 -49 -147.5t-15 -126.5q0 -132 42 -132q23 0 33.5 36t10.5 127v122h127v-122q0 -91 10.5 -127t33.5 -36q43 0 43 132q0 59 -15 126.5t-50 147.5h144q32 -67 49 -141.5
t17 -131.5q0 -40 -6.5 -85.5t-24 -85t-51 -64.5t-87.5 -25q-44 0 -77.5 29t-48.5 87q-16 -58 -49.5 -87t-76.5 -29zM273 603l50 206h152l-91 -206h-111z" />
    <glyph glyph-name="kaiSymbol" unicode="&#x3d7;" horiz-adv-x="515" 
d="M45 0v520h143v-197l137 197h163l-136 -172l107 -218q20 -41 31 -68.5t15.5 -48t4.5 -41.5q0 -65 -27 -110t-74 -68t-106 -23q-70 0 -123 31l25 116q19 -11 36.5 -15.5t40.5 -4.5q84 0 84 76q0 20 -9 44.5t-27 59.5l-74 148l-68 -86v-140h-143z" />
    <glyph glyph-name="uni0400" unicode="&#x400;" horiz-adv-x="494" 
d="M52 0v700h394l15 -127h-261v-154h235v-127h-235v-165h277l-15 -127h-410zM210 772l-147 130h176l124 -130h-153z" />
    <glyph glyph-name="uni0401" unicode="&#x401;" horiz-adv-x="494" 
d="M52 0v700h394l15 -127h-261v-154h235v-127h-235v-165h277l-15 -127h-410zM150 769q-33 0 -53 21t-20 54t20 53.5t53 20.5t53 -20.5t20 -53.5t-20 -54t-53 -21zM376 769q-33 0 -53 21t-20 54t20 53.5t53 20.5t53 -20.5t20 -53.5t-20 -54t-53 -21z" />
    <glyph glyph-name="uni0402" unicode="&#x402;" horiz-adv-x="682" 
d="M455 -6q-14 0 -32 1.5t-32 4.5l11 122q13 -4 26 -4q28 0 43 23t15 66q0 50 -20.5 72.5t-68.5 22.5t-95 -21v-281h-150v566h-140v134h513v-134h-223v-161q72 28 135 28q102 0 151.5 -55.5t49.5 -170.5q0 -64 -23 -112t-64 -74.5t-96 -26.5z" />
    <glyph glyph-name="uni0403" unicode="&#x403;" horiz-adv-x="448" 
d="M52 0v700h369l16 -134h-234v-566h-151zM297 772h-153l124 130h176z" />
    <glyph glyph-name="uni0404" unicode="&#x404;" horiz-adv-x="550" 
d="M324 -16q-138 0 -215.5 96t-77.5 273q0 176 80.5 269.5t219.5 93.5q50 0 98.5 -12.5t85.5 -35.5l-28 -131q-31 20 -66.5 32t-76.5 12q-70 0 -110 -39t-51 -125h251v-127h-251q8 -91 46 -131.5t111 -40.5q38 0 79.5 12t75.5 36l27 -129q-41 -27 -88.5 -40t-109.5 -13z" />
    <glyph glyph-name="uni0405" unicode="&#x405;" horiz-adv-x="496" 
d="M466 199q0 -65 -29 -113.5t-82 -75t-125 -26.5q-62 0 -112.5 14.5t-98.5 47.5l30 127q45 -34 83.5 -48t86.5 -14q45 0 72 20t27 58q0 35 -20.5 59t-82.5 43q-91 29 -134.5 80.5t-43.5 131.5q0 97 62.5 155t169.5 58t186 -56l-29 -126q-40 30 -72.5 42.5t-74.5 12.5
q-44 0 -70.5 -19t-26.5 -57q0 -35 21.5 -57t82.5 -41q92 -28 136 -81t44 -135z" />
    <glyph glyph-name="uni0406" unicode="&#x406;" horiz-adv-x="255" 
d="M52 0v700h151v-700h-151z" />
    <glyph glyph-name="uni0407" unicode="&#x407;" horiz-adv-x="255" 
d="M52 0v700h151v-700h-151zM15 769q-33 0 -53 21t-20 54t20 53.5t53 20.5t53 -20.5t20 -53.5t-20 -54t-53 -21zM241 769q-33 0 -53 21t-20 54t20 53.5t53 20.5t53 -20.5t20 -53.5t-20 -54t-53 -21z" />
    <glyph glyph-name="uni0408" unicode="&#x408;" horiz-adv-x="459" 
d="M162 -16q-41 0 -80 12t-62 31l26 125q23 -16 50 -26t55 -10q62 0 85 41.5t23 143.5v399h151v-410q0 -157 -60 -231.5t-188 -74.5z" />
    <glyph glyph-name="uni0409" unicode="&#x409;" horiz-adv-x="860" 
d="M66 -6q-35 0 -58 6l12 147l14 -4t14 -2q19 0 32 12t22 45t16 94t13 159q3 50 5 90.5t3 78.5t1 80h414v-245h71q98 0 153 -61t55 -169q0 -109 -51.5 -167t-148.5 -58h-230v566h-128q-2 -43 -3.5 -82.5t-3.5 -71.5q-6 -133 -21 -216t-39.5 -126.5t-59.5 -59.5t-82 -16z
M615 335h-61v-215h61q71 0 71 107q0 108 -71 108z" />
    <glyph glyph-name="uni040A" unicode="&#x40a;" horiz-adv-x="842" 
d="M815 225q0 -109 -51 -167t-148 -58h-230v287h-184v-287h-150v700h150v-277h184v277h150v-245h71q98 0 153 -61t55 -169zM598 335h-62v-215h62q70 0 70 107q0 108 -70 108z" />
    <glyph glyph-name="uni040B" unicode="&#x40b;" horiz-adv-x="678" 
d="M152 0v566h-140v134h513v-134h-223v-161q72 28 135 28q109 0 153 -58.5t44 -160.5v-214h-151v199q0 53 -19.5 78t-66.5 25q-48 0 -95 -21v-281h-150z" />
    <glyph glyph-name="uni040C" unicode="&#x40c;" horiz-adv-x="581" 
d="M52 0v700h150v-277h62l119 277h164l-157 -331l183 -369h-173l-131 287h-67v-287h-150zM337 772h-153l124 130h176z" />
    <glyph glyph-name="uni040D" unicode="&#x40d;" horiz-adv-x="604" 
d="M52 0v700h142v-432l209 432h149v-700h-142v433l-210 -433h-148zM250 772l-147 130h176l124 -130h-153z" />
    <glyph glyph-name="uni040E" unicode="&#x40e;" horiz-adv-x="574" 
d="M165 -16q-58 0 -92 14l10 128q17 -7 33.5 -11.5t35.5 -4.5q29 0 47 8.5t29 23.5l-218 558h163l124 -384l110 384h157l-192 -553q-31 -94 -84 -128.5t-123 -34.5zM459 891q-10 -76 -57.5 -109t-119.5 -33t-119 33t-58 109l122 15q2 -42 17 -58.5t38 -16.5t38 16.5t17 58.5
z" />
    <glyph glyph-name="uni040F" unicode="&#x40f;" horiz-adv-x="596" 
d="M52 0v700h150v-566h192v566h150v-700h-176v-170h-140v170h-176z" />
    <glyph glyph-name="uni0410" unicode="&#x410;" horiz-adv-x="607" 
d="M435 0l-38 152h-192l-39 -152h-158l218 700h155l218 -700h-164zM237 279h128l-64 253z" />
    <glyph glyph-name="uni0411" unicode="&#x411;" horiz-adv-x="521" 
d="M52 0v700h389l16 -134h-262v-145h77q105 0 163.5 -54t58.5 -155q0 -104 -53.5 -158t-158.5 -54h-230zM195 304v-188h73q41 0 60 24.5t19 69.5t-20 69.5t-64 24.5h-68z" />
    <glyph glyph-name="uni0412" unicode="&#x412;" horiz-adv-x="542" 
d="M515 201q0 -93 -58.5 -147t-160.5 -54h-244v700h230q95 0 150.5 -50t55.5 -133q0 -53 -26 -92.5t-69 -55.5q55 -11 88.5 -56.5t33.5 -111.5zM265 417q40 0 59.5 23t19.5 65q0 79 -77 79h-72v-167h70zM282 116q44 0 65 24.5t21 70.5q0 45 -22.5 70t-68.5 25h-82v-190h87z
" />
    <glyph glyph-name="uni0413" unicode="&#x413;" horiz-adv-x="448" 
d="M52 0v700h369l16 -134h-234v-566h-151z" />
    <glyph glyph-name="uni0414" unicode="&#x414;" horiz-adv-x="661" 
d="M22 -170v304h63q18 35 27.5 79.5t15 106t10.5 145.5q4 55 6 117.5t2 117.5h415v-566h78v-304h-142v170h-333v-170h-142zM275 442q-7 -103 -16 -179t-27 -129h182v432h-132q-2 -36 -4 -68.5t-3 -55.5z" />
    <glyph glyph-name="uni0415" unicode="&#x415;" horiz-adv-x="494" 
d="M52 0v700h394l15 -127h-261v-154h235v-127h-235v-165h277l-15 -127h-410z" />
    <glyph glyph-name="uni0416" unicode="&#x416;" horiz-adv-x="896" 
d="M8 0l183 369l-157 331h164l119 -277h56v277h150v-277h56l119 277h165l-158 -331l183 -369h-173l-131 287h-61v-287h-150v287h-61l-131 -287h-173z" />
    <glyph glyph-name="uni0417" unicode="&#x417;" horiz-adv-x="475" 
d="M211 -16q-49 0 -99 10.5t-90 32.5l31 126q32 -19 70.5 -30.5t75.5 -11.5q46 0 74 23.5t28 72.5q0 94 -123 94h-72v124h70q101 0 101 79q0 44 -25.5 65t-71.5 21q-35 0 -65.5 -9t-56.5 -23l-25 124q32 16 75 25t92 9q105 0 163.5 -48t58.5 -140q0 -57 -25.5 -96.5
t-67.5 -61.5q53 -19 86 -64.5t33 -114.5q0 -101 -65 -154t-172 -53z" />
    <glyph glyph-name="uni0418" unicode="&#x418;" horiz-adv-x="604" 
d="M52 0v700h142v-432l209 432h149v-700h-142v433l-210 -433h-148z" />
    <glyph glyph-name="uni0419" unicode="&#x419;" horiz-adv-x="604" 
d="M52 0v700h142v-432l209 432h149v-700h-142v433l-210 -433h-148zM480 891q-10 -76 -57.5 -109t-119.5 -33t-119 33t-58 109l122 15q2 -42 17 -58.5t38 -16.5t38 16.5t17 58.5z" />
    <glyph glyph-name="uni041A" unicode="&#x41a;" horiz-adv-x="581" 
d="M52 0v700h150v-277h62l119 277h164l-157 -331l183 -369h-173l-131 287h-67v-287h-150z" />
    <glyph glyph-name="uni041B" unicode="&#x41b;" horiz-adv-x="619" 
d="M66 -6q-35 0 -58 6l12 147l14 -4t14 -2q19 0 32 12t22 45t16 94t13 159q3 50 5 90.5t3 78.5t1 80h427v-700h-151v566h-141q-2 -43 -3.5 -82.5t-3.5 -71.5q-6 -133 -21 -216t-39.5 -126.5t-59.5 -59.5t-82 -16z" />
    <glyph glyph-name="uni041C" unicode="&#x41c;" horiz-adv-x="720" 
d="M52 0v700h187l124 -426l124 426h181v-700h-141v485l-109 -367h-116l-109 369v-487h-141z" />
    <glyph glyph-name="uni041D" unicode="&#x41d;" horiz-adv-x="603" 
d="M52 0v700h151v-277h197v277h151v-700h-151v287h-197v-287h-151z" />
    <glyph glyph-name="uni041E" unicode="&#x41e;" horiz-adv-x="654" 
d="M327 -16q-90 0 -156.5 45.5t-103 128t-36.5 192.5t36.5 192.5t103 128t156.5 45.5t156.5 -45.5t103 -128t36.5 -192.5t-36.5 -192.5t-103 -128t-156.5 -45.5zM327 118q68 0 103.5 62t35.5 170t-35.5 170t-103.5 62q-67 0 -103 -62t-36 -170t36 -170t103 -62z" />
    <glyph glyph-name="uni041F" unicode="&#x41f;" horiz-adv-x="598" 
d="M52 0v700h494v-700h-150v566h-194v-566h-150z" />
    <glyph glyph-name="uni0420" unicode="&#x420;" horiz-adv-x="511" 
d="M264 238h-66v-238h-146v700h212q102 0 161.5 -62.5t59.5 -168.5t-59.5 -168.5t-161.5 -62.5zM252 359q40 0 60 29t20 81q0 53 -20 81.5t-60 28.5h-54v-220h54z" />
    <glyph glyph-name="uni0421" unicode="&#x421;" horiz-adv-x="557" 
d="M31 346q0 111 39 194.5t110.5 129.5t170.5 46q46 0 92 -12.5t81 -35.5l-29 -131q-33 23 -65.5 34t-68.5 11q-82 0 -127.5 -60.5t-45.5 -169.5q0 -112 44.5 -173t128.5 -61q36 0 70.5 11t71.5 36l27 -128q-37 -25 -85 -39t-97 -14q-99 0 -170 43.5t-109 124.5t-38 194z
" />
    <glyph glyph-name="uni0422" unicode="&#x422;" horiz-adv-x="523" 
d="M186 0v566h-174v134h499v-134h-174v-566h-151z" />
    <glyph glyph-name="uni0423" unicode="&#x423;" horiz-adv-x="574" 
d="M165 -16q-58 0 -92 14l10 128q17 -7 33.5 -11.5t35.5 -4.5q29 0 47 8.5t29 23.5l-218 558h163l124 -384l110 384h157l-192 -553q-31 -94 -84 -128.5t-123 -34.5z" />
    <glyph glyph-name="uni0424" unicode="&#x424;" horiz-adv-x="703" 
d="M278 0v66q-120 16 -183.5 87.5t-63.5 202.5t63.5 203t183.5 88v69h148v-69q119 -16 182.5 -87.5t63.5 -203.5q0 -131 -63.5 -202.5t-182.5 -87.5v-66h-148zM182 356q0 -77 25.5 -117.5t76.5 -53.5v344q-51 -14 -76.5 -55t-25.5 -118zM521 356q0 77 -25 118t-76 55v-344
q51 13 76 54t25 117z" />
    <glyph glyph-name="uni0425" unicode="&#x425;" horiz-adv-x="598" 
d="M9 0l204 359l-188 341h166l109 -226l112 226h161l-191 -340l207 -360h-169l-124 242l-123 -242h-164z" />
    <glyph glyph-name="uni0426" unicode="&#x426;" horiz-adv-x="637" 
d="M615 134v-304h-140v170h-423v700h150v-566h188v566h150v-566h75z" />
    <glyph glyph-name="uni0427" unicode="&#x427;" horiz-adv-x="582" 
d="M530 0h-150v254q-34 -15 -65 -20.5t-68 -5.5q-97 0 -152 60.5t-55 166.5v245h150v-229q0 -51 21.5 -81t76.5 -30q21 0 43.5 3.5t48.5 14.5v322h150v-700z" />
    <glyph glyph-name="uni0428" unicode="&#x428;" horiz-adv-x="833" 
d="M781 0h-729v700h148v-566h142v566h148v-566h143v566h148v-700z" />
    <glyph glyph-name="uni0429" unicode="&#x429;" horiz-adv-x="881" 
d="M859 134v-304h-139v170h-668v700h148v-566h142v566h148v-566h143v566h148v-566h78z" />
    <glyph glyph-name="uni042A" unicode="&#x42a;" horiz-adv-x="647" 
d="M413 0h-243v566h-163l14 134h299v-228h85q99 0 157 -64t58 -174q0 -112 -54 -173t-153 -61zM320 352v-232h73q38 0 59 30.5t21 85.5q0 56 -20.5 86t-59.5 30h-73z" />
    <glyph glyph-name="uni042B" unicode="&#x42b;" horiz-adv-x="765" 
d="M52 0v700h150v-228h85q100 0 157.5 -64t57.5 -174q0 -112 -54 -173t-153 -61h-243zM563 0v700h150v-700h-150zM202 120h74q38 0 58.5 30.5t20.5 85.5q0 56 -20.5 86t-58.5 30h-74v-232z" />
    <glyph glyph-name="uni042C" unicode="&#x42c;" horiz-adv-x="529" 
d="M295 0h-243v700h150v-228h85q100 0 157.5 -64t57.5 -174q0 -112 -54 -173t-153 -61zM202 352v-232h74q38 0 58.5 30.5t20.5 85.5q0 56 -20.5 86t-58.5 30h-74z" />
    <glyph glyph-name="uni042D" unicode="&#x42d;" horiz-adv-x="550" 
d="M519 353q0 -177 -77.5 -273t-215.5 -96q-62 0 -109.5 13t-88.5 40l27 129q34 -24 75.5 -36t79.5 -12q73 0 111 40.5t46 131.5h-251v127h251q-11 86 -51 125t-110 39q-41 0 -76.5 -12t-66.5 -32l-28 131q38 23 86 35.5t98 12.5q140 0 220 -93.5t80 -269.5z" />
    <glyph glyph-name="uni042E" unicode="&#x42e;" horiz-adv-x="876" 
d="M203 0h-151v700h151v-275h63q11 89 49.5 154t99 101t138.5 36q89 0 154.5 -45.5t101.5 -128t36 -192.5t-36 -192.5t-101.5 -128t-154.5 -45.5q-79 0 -140.5 37t-99.5 104.5t-48 159.5h-62v-285zM553 118q65 0 100 62t35 170t-35 170t-100 62t-100 -62t-35 -170t35 -170
t100 -62z" />
    <glyph glyph-name="uni042F" unicode="&#x42f;" horiz-adv-x="544" 
d="M189 0h-161l130 288q-48 26 -75 73.5t-27 114.5q0 105 61 164.5t164 59.5h211v-700h-146v252h-54zM208 476q0 -49 20.5 -76t59.5 -27h58v206h-58q-39 0 -59.5 -26.5t-20.5 -76.5z" />
    <glyph glyph-name="uni0430" unicode="&#x430;" horiz-adv-x="464" 
d="M423 317v-317h-120l-4 66q-36 -79 -128 -79q-66 0 -105 43t-39 116q0 88 55 132t173 46l31 1q-1 49 -21 70t-68 21q-33 0 -61 -9.5t-60 -33.5l-24 112q35 24 76.5 36t86.5 12q208 0 208 -216zM162 161q0 -64 55 -64q35 0 52 28.5t17 81.5v33l-21 -1q-56 -1 -79.5 -19
t-23.5 -59z" />
    <glyph glyph-name="uni0431" unicode="&#x431;" horiz-adv-x="519" 
d="M490 249q0 -76 -28.5 -135t-79.5 -93t-119 -34q-121 0 -176 91.5t-55 260.5q0 167 44.5 264t141.5 119q55 12 111 19.5t120 11.5l19 -133q-59 -4 -111 -9.5t-93 -15.5q-49 -11 -70.5 -53t-21.5 -124q18 38 51.5 63.5t83.5 25.5q54 0 95.5 -31t64.5 -89t23 -138zM183 258
q0 -71 20 -110t59 -39t60.5 38t21.5 102q0 60 -21 98.5t-60 38.5q-36 0 -58 -36t-22 -92z" />
    <glyph glyph-name="uni0432" unicode="&#x432;" horiz-adv-x="464" 
d="M251 0h-205v520h198q89 0 137.5 -34t48.5 -99q0 -46 -23 -74.5t-60 -42.5q46 -11 71.5 -40.5t25.5 -77.5q0 -75 -51.5 -113.5t-141.5 -38.5zM182 423v-111h52q58 0 58 58q0 53 -57 53h-53zM182 218v-121h63q31 0 46 16.5t15 44.5q0 60 -65 60h-59z" />
    <glyph glyph-name="uni0433" unicode="&#x433;" horiz-adv-x="362" 
d="M190 0h-144v520h298l14 -124h-168v-396z" />
    <glyph glyph-name="uni0434" unicode="&#x434;" horiz-adv-x="537" 
d="M9 -142v261h51q16 42 28 95t17 129q4 53 6 93t3 84h346v-401h68v-261h-129v142h-261v-142h-129zM224 321q-6 -67 -15 -116t-21 -86h134v282h-92q-1 -21 -2.5 -39.5t-3.5 -40.5z" />
    <glyph glyph-name="uni0435" unicode="&#x435;" horiz-adv-x="468" 
d="M441 261q0 -22 -3 -42h-273q15 -114 116 -114q33 0 59.5 8.5t57.5 28.5l24 -113q-67 -42 -161 -42q-109 0 -170.5 72.5t-61.5 199.5q0 84 26 145.5t74 95t114 33.5q95 0 146.5 -70.5t51.5 -201.5zM241 424q-65 0 -75 -114h144q-4 61 -19.5 87.5t-49.5 26.5z" />
    <glyph glyph-name="uni0436" unicode="&#x436;" horiz-adv-x="735" 
d="M159 0h-153l131 276l-121 244h150l87 -196h45v196h139v-196h45l87 196h150l-121 -244l131 -276h-153l-94 205h-45v-205h-139v205h-45z" />
    <glyph glyph-name="uni0437" unicode="&#x437;" horiz-adv-x="409" 
d="M170 422q-34 0 -67 -10t-59 -27l-23 99q28 20 72.5 34.5t102.5 14.5q86 0 132 -37.5t46 -106.5q0 -37 -20 -68t-54 -48q41 -15 64.5 -46t23.5 -73q0 -81 -49.5 -124t-143.5 -43q-48 0 -97 13t-80 37l27 101q20 -16 54.5 -28.5t69.5 -12.5q82 0 82 61q0 26 -17 42t-46 16
h-76v99h64q29 0 45 14.5t16 39.5q0 53 -67 53z" />
    <glyph glyph-name="uni0438" unicode="&#x438;" horiz-adv-x="503" 
d="M46 520h139v-285l137 285h135v-520h-139v279l-137 -279h-135v520z" />
    <glyph glyph-name="uni0439" unicode="&#x439;" horiz-adv-x="503" 
d="M46 520h139v-285l137 285h135v-520h-139v279l-137 -279h-135v520zM252 591q-69 0 -111.5 33.5t-52.5 121.5l116 15q2 -53 14.5 -71.5t33.5 -18.5t34 18.5t14 71.5l116 -15q-10 -88 -52.5 -121.5t-111.5 -33.5z" />
    <glyph glyph-name="uni043A" unicode="&#x43a;" horiz-adv-x="498" 
d="M190 0h-144v520h144v-196h46l96 196h150l-129 -244l139 -276h-153l-102 205h-47v-205z" />
    <glyph glyph-name="uni043B" unicode="&#x43b;" horiz-adv-x="511" 
d="M103 520h362v-520h-144v401h-94q-1 -45 -3.5 -87t-4.5 -67q-7 -93 -22 -148t-44.5 -79t-82.5 -24q-16 0 -33 3t-27 8l11 119q8 -3 21 -3q15 0 24.5 9.5t15.5 40t10 91.5q3 46 5 85t3.5 80t2.5 91z" />
    <glyph glyph-name="uni043C" unicode="&#x43c;" horiz-adv-x="634" 
d="M273 78l-96 247v-325h-131v520h166l108 -282l108 282h160v-520h-131v325l-95 -247h-89z" />
    <glyph glyph-name="uni043D" unicode="&#x43d;" horiz-adv-x="497" 
d="M190 0h-144v520h144v-192h117v192h144v-520h-144v209h-117v-209z" />
    <glyph glyph-name="uni043E" unicode="&#x43e;" horiz-adv-x="504" 
d="M252 -13q-67 0 -117.5 34t-78 95.5t-27.5 143.5t27.5 143.5t78 95.5t117.5 34q68 0 118 -34t77.5 -95.5t27.5 -143.5t-27.5 -143.5t-77.5 -95.5t-118 -34zM252 114q39 0 58 38.5t19 107.5t-19 107.5t-58 38.5t-58 -38.5t-19 -107.5t19 -107.5t58 -38.5z" />
    <glyph glyph-name="uni043F" unicode="&#x43f;" horiz-adv-x="495" 
d="M190 0h-144v520h403v-520h-144v401h-115v-401z" />
    <glyph glyph-name="uni0440" unicode="&#x440;" horiz-adv-x="512" 
d="M303 -13q-75 0 -114 65v-268h-144v736h127l5 -76q39 89 131 89q53 0 92.5 -34.5t61 -95.5t21.5 -143q0 -80 -22.5 -141.5t-63 -96.5t-94.5 -35zM179 260q0 -69 20 -107.5t59 -38.5q40 0 59.5 38.5t19.5 107.5t-19.5 107.5t-58.5 38.5q-40 0 -60 -38t-20 -108z" />
    <glyph glyph-name="uni0441" unicode="&#x441;" horiz-adv-x="432" 
d="M29 256q0 83 30 145t86 97t133 35q32 0 65 -8.5t58 -24.5l-26 -122q-41 28 -87 28q-53 0 -83 -38t-30 -107q0 -71 29.5 -109t84.5 -38q46 0 93 30l25 -119q-28 -19 -62.5 -28.5t-70.5 -9.5q-115 0 -180 72t-65 197z" />
    <glyph glyph-name="uni0442" unicode="&#x442;" horiz-adv-x="424" 
d="M284 0h-144v401h-132v119h408v-119h-132v-401z" />
    <glyph glyph-name="uni0443" unicode="&#x443;" horiz-adv-x="492" 
d="M32 -210l15 119q23 -13 60 -13q28 0 41.5 15t27.5 55l-170 554h156l82 -377l92 377h150l-172 -544q-23 -73 -47 -118.5t-58 -66t-87 -20.5q-28 0 -48.5 4.5t-41.5 14.5z" />
    <glyph glyph-name="uni0444" unicode="&#x444;" horiz-adv-x="657" 
d="M258 -216v208q-115 17 -172 88.5t-57 179.5t56 179.5t173 88.5v172h142v-172q117 -17 172.5 -89t55.5 -180q0 -107 -56.5 -178t-171.5 -89v-208h-142zM487 259q0 67 -25 105t-71 51v-310q53 14 74.5 53.5t21.5 100.5zM170 260q0 -62 21.5 -102t74.5 -53v310
q-96 -29 -96 -155z" />
    <glyph glyph-name="uni0445" unicode="&#x445;" horiz-adv-x="502" 
d="M14 0l161 270l-155 250h149l82 -153l82 153h149l-154 -251l160 -269h-153l-85 163l-85 -163h-151z" />
    <glyph glyph-name="uni0446" unicode="&#x446;" horiz-adv-x="523" 
d="M514 119v-261h-129v142h-339v520h144v-401h112v401h144v-401h68z" />
    <glyph glyph-name="uni0447" unicode="&#x447;" horiz-adv-x="476" 
d="M24 340v180h144v-164q0 -75 59 -75q33 0 59 15v224h144v-520h-144v182q-50 -22 -94 -22q-85 0 -126.5 46.5t-41.5 133.5z" />
    <glyph glyph-name="uni0448" unicode="&#x448;" horiz-adv-x="712" 
d="M666 0h-620v520h140v-401h100v401h140v-401h100v401h140v-520z" />
    <glyph glyph-name="uni0449" unicode="&#x449;" horiz-adv-x="743" 
d="M734 119v-261h-129v142h-559v520h140v-401h100v401h140v-401h100v401h140v-401h68z" />
    <glyph glyph-name="uni044A" unicode="&#x44a;" horiz-adv-x="527" 
d="M319 0h-200v401h-112l14 119h242v-164h57q91 0 141 -44.5t50 -126.5q0 -87 -51.5 -136t-140.5 -49zM263 259v-162h44q60 0 60 81t-59 81h-45z" />
    <glyph glyph-name="uni044B" unicode="&#x44b;" horiz-adv-x="682" 
d="M46 0v520h144v-164h57q91 0 141 -44.5t50 -126.5q0 -87 -51.5 -136t-140.5 -49h-200zM492 0v520h144v-520h-144zM190 97h44q60 0 60 81t-59 81h-45v-162z" />
    <glyph glyph-name="uni044C" unicode="&#x44c;" horiz-adv-x="454" 
d="M246 0h-200v520h144v-164h57q91 0 141 -44.5t50 -126.5q0 -87 -51.5 -136t-140.5 -49zM190 259v-162h44q60 0 60 81t-59 81h-45z" />
    <glyph glyph-name="uni044D" unicode="&#x44d;" horiz-adv-x="434" 
d="M184 -13q-50 0 -92 10.5t-70 27.5l24 119q52 -35 116 -35q50 0 76.5 23.5t32.5 81.5h-177v98h176q-8 53 -36 76t-73 23q-30 0 -55.5 -6t-57.5 -23l-23 118q27 14 63 23.5t82 9.5q79 0 131.5 -34.5t79.5 -96t27 -143.5q0 -129 -61 -200.5t-163 -71.5z" />
    <glyph glyph-name="uni044E" unicode="&#x44e;" horiz-adv-x="705" 
d="M190 0h-144v520h144v-192h45q16 94 74 149.5t144 55.5q68 0 118 -34t77.5 -95.5t27.5 -143.5t-27.5 -143.5t-77.5 -95.5t-118 -34q-90 0 -149 60.5t-71 161.5h-43v-209zM453 114q39 0 58 38.5t19 107.5t-19 107.5t-58 38.5t-58 -38.5t-19 -107.5t19 -107.5t58 -38.5z" />
    <glyph glyph-name="uni044F" unicode="&#x44f;" horiz-adv-x="459" 
d="M16 0l87 194q-71 46 -71 147q0 86 50.5 132.5t143.5 46.5h185v-520h-142v163h-39l-65 -163h-149zM269 423h-38q-58 0 -58 -82q0 -81 58 -81h38v163z" />
    <glyph glyph-name="uni0450" unicode="&#x450;" horiz-adv-x="468" 
d="M441 261q0 -22 -3 -42h-273q15 -114 116 -114q33 0 59.5 8.5t57.5 28.5l24 -113q-67 -42 -161 -42q-109 0 -170.5 72.5t-61.5 199.5q0 84 26 145.5t74 95t114 33.5q95 0 146.5 -70.5t51.5 -201.5zM241 424q-65 0 -75 -114h144q-4 61 -19.5 87.5t-49.5 26.5zM204 594
l-139 156h160l107 -156h-128z" />
    <glyph glyph-name="uni0451" unicode="&#x451;" horiz-adv-x="468" 
d="M441 261q0 -22 -3 -42h-273q15 -114 116 -114q33 0 59.5 8.5t57.5 28.5l24 -113q-67 -42 -161 -42q-109 0 -170.5 72.5t-61.5 199.5q0 84 26 145.5t74 95t114 33.5q95 0 146.5 -70.5t51.5 -201.5zM241 424q-65 0 -75 -114h144q-4 61 -19.5 87.5t-49.5 26.5zM136 598
q-32 0 -52 21t-20 53q0 33 20 53.5t52 20.5t52 -20.5t20 -53.5q0 -32 -20 -53t-52 -21zM350 598q-32 0 -52 21t-20 53q0 33 20 53.5t52 20.5t52 -20.5t20 -53.5q0 -32 -20 -53t-52 -21z" />
    <glyph glyph-name="uni0452" unicode="&#x452;" horiz-adv-x="497" 
d="M292 -137q-18 0 -34 3.5t-26 7.5l11 119q12 -3 30 -3q17 0 28.5 17t17.5 59.5t6 118.5q0 111 -13 158t-48 47q-65 0 -65 -109v-281h-143v585h-48v86h48v69h143v-69h134v-86h-134v-133q37 68 116 68q76 0 114.5 -76.5t38.5 -246.5q0 -123 -21.5 -196.5t-60.5 -105.5
t-94 -32z" />
    <glyph glyph-name="uni0453" unicode="&#x453;" horiz-adv-x="362" 
d="M190 0h-144v520h298l14 -124h-168v-396zM239 594h-128l107 156h160z" />
    <glyph glyph-name="uni0454" unicode="&#x454;" horiz-adv-x="437" 
d="M253 -13q-102 0 -163 71.5t-61 200.5q0 82 27 143.5t80 96t131 34.5q46 0 82 -9.5t63 -23.5l-23 -118q-32 17 -57.5 23t-55.5 6q-45 0 -73 -23t-36 -76h176v-98h-177q6 -58 32.5 -81.5t76.5 -23.5q64 0 116 35l24 -119q-28 -17 -70 -27.5t-92 -10.5z" />
    <glyph glyph-name="uni0455" unicode="&#x455;" horiz-adv-x="412" 
d="M189 -13q-50 0 -90.5 11t-80.5 36l28 112q35 -25 65 -34.5t67 -9.5q30 0 47.5 12.5t17.5 34.5q0 20 -13.5 34t-54.5 26q-142 40 -142 157q0 77 52.5 122t143.5 45q88 0 149 -42l-26 -112q-32 22 -57.5 30.5t-59.5 8.5q-29 0 -46 -11.5t-17 -33.5q0 -20 14 -32.5t53 -24.5
q147 -43 147 -160q0 -77 -53.5 -123t-143.5 -46z" />
    <glyph glyph-name="uni0456" unicode="&#x456;" horiz-adv-x="234" 
d="M117 585q-40 0 -63.5 24.5t-23.5 61.5q0 38 23.5 62.5t63.5 24.5t63.5 -24.5t23.5 -62.5q0 -37 -23.5 -61.5t-63.5 -24.5zM45 0v520h144v-520h-144z" />
    <glyph glyph-name="uni0457" unicode="&#x457;" horiz-adv-x="234" 
d="M45 0v520h144v-520h-144zM10 598q-32 0 -52 21t-20 53q0 33 20 53.5t52 20.5t52 -20.5t20 -53.5q0 -32 -20 -53t-52 -21zM224 598q-32 0 -52 21t-20 53q0 33 20 53.5t52 20.5t52 -20.5t20 -53.5q0 -32 -20 -53t-52 -21z" />
    <glyph glyph-name="uni0458" unicode="&#x458;" horiz-adv-x="234" 
d="M117 585q-40 0 -63.5 24.5t-23.5 61.5q0 38 23.5 62.5t63.5 24.5t63.5 -24.5t23.5 -62.5q0 -37 -23.5 -61.5t-63.5 -24.5zM-88 -206l21 117q15 -8 27.5 -11t28.5 -3q32 0 44 20t12 68v535h144v-549q0 -102 -42 -151t-130 -49q-30 0 -56 5t-49 18z" />
    <glyph glyph-name="uni0459" unicode="&#x459;" horiz-adv-x="714" 
d="M103 520h351v-164h53q91 0 141 -44.5t50 -126.5q0 -87 -51.5 -136t-140.5 -49h-196v401h-83q-1 -45 -3.5 -87t-4.5 -67q-7 -93 -21.5 -148t-44.5 -79t-83 -24q-16 0 -33 3t-27 8l11 119q8 -3 21 -3q15 0 24.5 9.5t15.5 40t10 91.5q3 46 5 85t3.5 80t2.5 91zM495 259h-41
v-162h40q60 0 60 81t-59 81z" />
    <glyph glyph-name="uni045A" unicode="&#x45a;" horiz-adv-x="707" 
d="M190 0h-144v520h144v-192h113v192h144v-164h53q91 0 141 -44.5t50 -126.5q0 -87 -51.5 -136t-140.5 -49h-196v209h-113v-209zM488 259h-41v-162h40q60 0 60 81t-59 81z" />
    <glyph glyph-name="uni045B" unicode="&#x45b;" horiz-adv-x="503" 
d="M334 586h-134v-134q36 69 115 69q147 0 147 -209v-312h-144v288q0 55 -11 78.5t-43 23.5q-64 0 -64 -109v-281h-144v586h-48v84h48v70h144v-70h134v-84z" />
    <glyph glyph-name="uni045C" unicode="&#x45c;" horiz-adv-x="498" 
d="M190 0h-144v520h144v-196h46l96 196h150l-129 -244l139 -276h-153l-102 205h-47v-205zM283 594h-128l107 156h160z" />
    <glyph glyph-name="uni045D" unicode="&#x45d;" horiz-adv-x="503" 
d="M46 520h139v-285l137 285h135v-520h-139v279l-137 -279h-135v520zM213 594l-139 156h160l107 -156h-128z" />
    <glyph glyph-name="uni045E" unicode="&#x45e;" horiz-adv-x="492" 
d="M32 -210l15 119q23 -13 60 -13q28 0 41.5 15t27.5 55l-170 554h156l82 -377l92 377h150l-172 -544q-23 -73 -47 -118.5t-58 -66t-87 -20.5q-28 0 -48.5 4.5t-41.5 14.5zM246 591q-69 0 -111.5 33.5t-52.5 121.5l116 15q2 -53 14.5 -71.5t33.5 -18.5t34 18.5t14 71.5
l116 -15q-10 -88 -52.5 -121.5t-111.5 -33.5z" />
    <glyph glyph-name="uni045F" unicode="&#x45f;" horiz-adv-x="495" 
d="M183 -142v142h-137v520h144v-401h115v401h144v-520h-137v-142h-129z" />
    <glyph glyph-name="uni0462" unicode="&#x462;" horiz-adv-x="533" 
d="M299 0h-243v536h-68v99h68v65h150v-65h128v-99h-128v-64h85q100 0 157.5 -64t57.5 -174q0 -112 -54 -173t-153 -61zM206 352v-232h74q38 0 58.5 30.5t20.5 85.5q0 56 -20.5 86t-58.5 30h-74z" />
    <glyph glyph-name="uni0463" unicode="&#x463;" horiz-adv-x="453" 
d="M45 0v431h-59v89h59v220h144v-220h133v-89h-133v-75h57q91 0 141 -44.5t50 -126.5q0 -87 -51.5 -136t-140.5 -49h-200zM189 97h44q60 0 60 81t-59 81h-45v-162z" />
    <glyph glyph-name="uni0472" unicode="&#x472;" horiz-adv-x="655" 
d="M327 -16q-90 0 -156.5 45.5t-103 128t-36.5 192.5t36.5 192.5t103 128t156.5 45.5t156.5 -45.5t103 -128t36.5 -192.5t-36.5 -192.5t-103 -128t-156.5 -45.5zM321 399q26 -13 43.5 -17t31.5 -4q27 0 70 29q-9 83 -45 130.5t-94 47.5t-94 -48t-45 -132q28 15 53 15
q37 0 80 -21zM327 115q60 0 96.5 51.5t43.5 140.5q-44 -33 -80 -33q-16 0 -36.5 5t-43.5 17q-23 11 -41.5 15.5t-32.5 4.5q-20 0 -46 -13q8 -88 44 -138t96 -50z" />
    <glyph glyph-name="uni0473" unicode="&#x473;" horiz-adv-x="504" 
d="M252 -13q-67 0 -117.5 34t-78 95.5t-27.5 143.5t27.5 143.5t78 95.5t117.5 34q68 0 118 -34t77.5 -95.5t27.5 -143.5t-27.5 -143.5t-77.5 -95.5t-118 -34zM256 297q19 -10 31 -13t23 -3q12 0 24 5q-3 59 -24 92.5t-58 33.5q-34 0 -54 -27.5t-26 -76.5q14 5 28 5
q11 0 25.5 -3.5t30.5 -12.5zM252 108q32 0 52 25.5t27 70.5q-14 -6 -28 -6q-11 0 -25.5 3.5t-31.5 12.5t-29.5 12.5t-24.5 3.5t-22 -3q5 -55 25.5 -87t56.5 -32z" />
    <glyph glyph-name="uni0474" unicode="&#x474;" horiz-adv-x="624" 
d="M619 695l-19 -121q-4 1 -8.5 1.5t-9.5 0.5q-22 0 -33.5 -23.5t-30.5 -85.5l-142 -467h-155l-213 700h164l129 -523l83 334q25 100 60 148t105 48q17 0 35.5 -2.5t34.5 -9.5z" />
    <glyph glyph-name="uni0475" unicode="&#x475;" horiz-adv-x="502" 
d="M318 0h-152l-160 520h156l85 -367l56 232q17 69 45.5 104t90.5 35q15 0 31.5 -1.5t26.5 -4.5l-17 -110q-3 1 -13 1q-12 0 -18.5 -11t-17.5 -46z" />
    <glyph glyph-name="uni0490" unicode="&#x490;" horiz-adv-x="448" 
d="M52 0v700h245v140h140v-274h-234v-566h-151z" />
    <glyph glyph-name="uni0491" unicode="&#x491;" horiz-adv-x="362" 
d="M190 0h-144v520h183v114h129v-238h-168v-396z" />
    <glyph glyph-name="uni0492" unicode="&#x492;" horiz-adv-x="473" 
d="M77 0v283h-74v121h74v296h369l16 -134h-234v-162h156v-121h-156v-283h-151z" />
    <glyph glyph-name="uni0493" unicode="&#x493;" horiz-adv-x="378" 
d="M206 0h-144v171h-55v105h55v244h298l14 -124h-168v-120h107v-105h-107v-171z" />
    <glyph glyph-name="uni0496" unicode="&#x496;" horiz-adv-x="926" 
d="M8 0l183 369l-157 331h164l119 -277h56v277h150v-277h56l119 277h165l-158 -331l116 -235h83v-304h-139v170h-50l-131 287h-61v-287h-150v287h-61l-131 -287h-173z" />
    <glyph glyph-name="uni0497" unicode="&#x497;" horiz-adv-x="749" 
d="M159 0h-153l131 276l-121 244h150l87 -196h45v196h139v-196h45l87 196h150l-121 -244l75 -157h67v-261h-129v142h-35l-94 205h-45v-205h-139v205h-45z" />
    <glyph glyph-name="uni049A" unicode="&#x49a;" horiz-adv-x="610" 
d="M52 0v700h150v-277h62l119 277h164l-157 -331l116 -235h82v-304h-139v170h-49l-131 287h-67v-287h-150z" />
    <glyph glyph-name="uni049B" unicode="&#x49b;" horiz-adv-x="509" 
d="M190 0h-144v520h144v-196h46l96 196h150l-129 -244l79 -157h68v-261h-129v142h-32l-102 205h-47v-205z" />
    <glyph glyph-name="uni04A2" unicode="&#x4a2;" horiz-adv-x="650" 
d="M52 0v700h151v-277h197v277h151v-566h77v-304h-139v170h-89v287h-197v-287h-151z" />
    <glyph glyph-name="uni04A3" unicode="&#x4a3;" horiz-adv-x="528" 
d="M190 0h-144v520h144v-192h117v192h144v-401h68v-261h-129v142h-83v209h-117v-209z" />
    <glyph glyph-name="uni04AE" unicode="&#x4ae;" horiz-adv-x="587" 
d="M218 0v277l-209 423h173l114 -295l115 295h167l-209 -423v-277h-151z" />
    <glyph glyph-name="uni04AF" unicode="&#x4af;" horiz-adv-x="489" 
d="M172 30l-166 490h156l85 -355l86 355h150l-167 -490v-246h-144v246z" />
    <glyph glyph-name="uni04B0" unicode="&#x4b0;" horiz-adv-x="587" 
d="M218 0v151h-136v122h136v4l-209 423h173l114 -295l115 295h167l-209 -423v-4h137v-122h-137v-151h-151z" />
    <glyph glyph-name="uni04B1" unicode="&#x4b1;" horiz-adv-x="489" 
d="M172 -216v216h-120v110h93l-139 410h156l85 -355l86 355h150l-140 -410h95v-110h-122v-216h-144z" />
    <glyph glyph-name="uni04BA" unicode="&#x4ba;" horiz-adv-x="578" 
d="M52 0v700h150v-274q38 15 70 21.5t66 6.5q108 0 152 -58.5t44 -160.5v-235h-150v220q0 53 -20 78t-67 25q-22 0 -46.5 -5t-48.5 -16v-302h-150z" />
    <glyph glyph-name="uni04BB" unicode="&#x4bb;" horiz-adv-x="492" 
d="M189 293v-293h-144v740h144v-276q36 69 115 69q147 0 147 -209v-324h-144v300q0 55 -11 78.5t-43 23.5q-64 0 -64 -109z" />
    <glyph glyph-name="uni04D8" unicode="&#x4d8;" horiz-adv-x="593" 
d="M562 351q0 -111 -34 -193.5t-96.5 -128t-147.5 -45.5q-123 0 -188 94.5t-65 271.5q0 21 5 53h371q-8 92 -44 135.5t-106 43.5q-40 0 -74 -10.5t-65 -30.5l-38 122q42 26 93 39.5t107 13.5q89 0 152 -44t96.5 -126t33.5 -195zM288 118q103 0 119 163h-225q6 -85 31.5 -124
t74.5 -39z" />
    <glyph glyph-name="uni04D9" unicode="&#x4d9;" horiz-adv-x="468" 
d="M225 -13q-96 0 -147.5 70.5t-51.5 201.5q0 11 1 21.5t3 20.5h272q-15 113 -115 113q-33 0 -60 -8t-58 -29l-23 115q68 41 160 41q109 0 171 -73t62 -200q0 -83 -26 -144.5t-74 -95t-114 -33.5zM227 96q64 0 74 114h-144q4 -61 20 -87.5t50 -26.5z" />
    <glyph glyph-name="uni04E8" unicode="&#x4e8;" horiz-adv-x="655" 
d="M327 -16q-90 0 -156.5 45.5t-103 128t-36.5 192.5t36.5 192.5t103 128t156.5 45.5t156.5 -45.5t103 -128t36.5 -192.5t-36.5 -192.5t-103 -128t-156.5 -45.5zM327 585q-58 0 -93.5 -46.5t-45.5 -128.5h278q-10 82 -45.5 128.5t-93.5 46.5zM327 115q59 0 95 49t45 135
h-280q9 -86 45 -135t95 -49z" />
    <glyph glyph-name="uni04E9" unicode="&#x4e9;" horiz-adv-x="504" 
d="M252 -13q-67 0 -117.5 34t-78 95.5t-27.5 143.5t27.5 143.5t78 95.5t117.5 34q68 0 118 -34t77.5 -95.5t27.5 -143.5t-27.5 -143.5t-77.5 -95.5t-118 -34zM252 412q-34 0 -54 -28t-26 -78h160q-6 50 -26 78t-54 28zM252 108q35 0 55 29.5t26 80.5h-162q6 -51 26 -80.5
t55 -29.5z" />
    <glyph glyph-name="uni0E3F" unicode="&#xe3f;" horiz-adv-x="484" 
d="M473 197q0 -91 -55 -144t-148 -53v-110h-63v110h-174v684h174v110h63v-111q81 -5 128.5 -52t47.5 -125q0 -50 -24.5 -89t-63.5 -57q51 -12 83 -55.5t32 -107.5zM163 401h44v176h-44v-176zM315 494q0 61 -45 78v-165q45 19 45 87zM163 107h44v198h-44v-198zM338 207
q0 83 -68 96v-195q34 6 51 31.5t17 67.5z" />
    <glyph glyph-name="uni1E24" unicode="&#x1e24;" horiz-adv-x="603" 
d="M52 0v700h151v-277h197v277h151v-700h-151v287h-197v-287h-151zM302 -221q-35 0 -56 21.5t-21 55.5q0 35 21 57t56 22t56 -22t21 -57q0 -34 -21 -55.5t-56 -21.5z" />
    <glyph glyph-name="uni1E25" unicode="&#x1e25;" horiz-adv-x="492" 
d="M189 293v-293h-144v740h144v-276q36 69 115 69q147 0 147 -209v-324h-144v300q0 55 -11 78.5t-43 23.5q-64 0 -64 -109zM248 -219q-34 0 -55 21.5t-21 54.5q0 35 21 56.5t55 21.5q35 0 55.5 -21.5t20.5 -56.5q0 -33 -20.5 -54.5t-55.5 -21.5z" />
    <glyph glyph-name="uni1E36" unicode="&#x1e36;" horiz-adv-x="471" 
d="M52 0v700h151v-566h262l-16 -134h-397zM268 -221q-35 0 -56 21.5t-21 55.5q0 35 21 57t56 22t56 -22t21 -57q0 -34 -21 -55.5t-56 -21.5z" />
    <glyph glyph-name="uni1E37" unicode="&#x1e37;" horiz-adv-x="234" 
d="M45 0v740h144v-740h-144zM117 -219q-34 0 -55 21.5t-21 54.5q0 35 21 56.5t55 21.5q35 0 55.5 -21.5t20.5 -56.5q0 -33 -20.5 -54.5t-55.5 -21.5z" />
    <glyph glyph-name="Wgrave" unicode="&#x1e80;" horiz-adv-x="821" 
d="M509 0l-98 520l-99 -520h-154l-147 700h160l77 -507l90 507h150l89 -505l78 505h155l-147 -700h-154zM360 772l-147 130h176l124 -130h-153z" />
    <glyph glyph-name="wgrave" unicode="&#x1e81;" horiz-adv-x="695" 
d="M131 0l-122 520h146l60 -369l63 369h144l62 -365l61 365h141l-122 -520h-147l-69 388l-70 -388h-147zM311 594l-139 156h160l107 -156h-128z" />
    <glyph glyph-name="Wacute" unicode="&#x1e82;" horiz-adv-x="821" 
d="M509 0l-98 520l-99 -520h-154l-147 700h160l77 -507l90 507h150l89 -505l78 505h155l-147 -700h-154zM466 772h-153l124 130h176z" />
    <glyph glyph-name="wacute" unicode="&#x1e83;" horiz-adv-x="695" 
d="M131 0l-122 520h146l60 -369l63 369h144l62 -365l61 365h141l-122 -520h-147l-69 388l-70 -388h-147zM389 594h-128l107 156h160z" />
    <glyph glyph-name="Wdieresis" unicode="&#x1e84;" horiz-adv-x="821" 
d="M509 0l-98 520l-99 -520h-154l-147 700h160l77 -507l90 507h150l89 -505l78 505h155l-147 -700h-154zM300 769q-33 0 -53 21t-20 54t20 53.5t53 20.5t53 -20.5t20 -53.5t-20 -54t-53 -21zM526 769q-33 0 -53 21t-20 54t20 53.5t53 20.5t53 -20.5t20 -53.5t-20 -54
t-53 -21z" />
    <glyph glyph-name="wdieresis" unicode="&#x1e85;" horiz-adv-x="695" 
d="M131 0l-122 520h146l60 -369l63 369h144l62 -365l61 365h141l-122 -520h-147l-69 388l-70 -388h-147zM243 598q-32 0 -52 21t-20 53q0 33 20 53.5t52 20.5t52 -20.5t20 -53.5q0 -32 -20 -53t-52 -21zM457 598q-32 0 -52 21t-20 53q0 33 20 53.5t52 20.5t52 -20.5
t20 -53.5q0 -32 -20 -53t-52 -21z" />
    <glyph glyph-name="uni1E9E" unicode="&#x1e9e;" horiz-adv-x="599" 
d="M572 201q0 -100 -56.5 -158.5t-153.5 -58.5q-77 0 -128 31l34 123q29 -25 74 -25q37 0 57.5 24t20.5 66q0 49 -28 72.5t-93 27.5l-15 1v104l113 159q-35 17 -80 17q-117 0 -117 -161v-423h-151v437q0 137 69 208t196 71q120 0 218 -63v-113l-102 -147q142 -33 142 -192z
" />
    <glyph glyph-name="Ygrave" unicode="&#x1ef2;" horiz-adv-x="587" 
d="M218 0v277l-209 423h173l114 -295l115 295h167l-209 -423v-277h-151zM245 772l-147 130h176l124 -130h-153z" />
    <glyph glyph-name="ygrave" unicode="&#x1ef3;" horiz-adv-x="492" 
d="M32 -210l15 119q23 -13 60 -13q28 0 41.5 15t27.5 55l-170 554h156l82 -377l92 377h150l-172 -544q-23 -73 -47 -118.5t-58 -66t-87 -20.5q-28 0 -48.5 4.5t-41.5 14.5zM207 594l-139 156h160l107 -156h-128z" />
    <glyph glyph-name="uni2000" unicode="&#x2000;" horiz-adv-x="390" 
 />
    <glyph glyph-name="uni2001" unicode="&#x2001;" horiz-adv-x="780" 
 />
    <glyph glyph-name="uni2002" unicode="&#x2002;" horiz-adv-x="390" 
 />
    <glyph glyph-name="uni2003" unicode="&#x2003;" horiz-adv-x="780" 
 />
    <glyph glyph-name="uni2004" unicode="&#x2004;" horiz-adv-x="260" 
 />
    <glyph glyph-name="uni2005" unicode="&#x2005;" horiz-adv-x="195" 
 />
    <glyph glyph-name="uni2006" unicode="&#x2006;" horiz-adv-x="130" 
 />
    <glyph glyph-name="uni2007" unicode="&#x2007;" horiz-adv-x="484" 
 />
    <glyph glyph-name="uni2008" unicode="&#x2008;" horiz-adv-x="242" 
 />
    <glyph glyph-name="uni2009" unicode="&#x2009;" horiz-adv-x="156" 
 />
    <glyph glyph-name="uni200A" unicode="&#x200a;" horiz-adv-x="48" 
 />
    <glyph glyph-name="uni200B" unicode="&#x200b;" 
 />
    <glyph glyph-name="endash" unicode="&#x2013;" horiz-adv-x="390" 
d="M0 232v125h390v-125h-390z" />
    <glyph glyph-name="emdash" unicode="&#x2014;" horiz-adv-x="780" 
d="M0 232v125h780v-125h-780z" />
    <glyph glyph-name="quoteleft" unicode="&#x2018;" horiz-adv-x="242" 
d="M33 497q0 74 40.5 135.5t106.5 88.5l40 -56q-39 -14 -66.5 -43t-39.5 -66q6 1 12 1q36 0 59.5 -23t23.5 -61q0 -40 -24 -64t-62 -24q-42 0 -66 30t-24 82z" />
    <glyph glyph-name="quoteright" unicode="&#x2019;" horiz-adv-x="242" 
d="M209 600q0 -74 -40.5 -135.5t-106.5 -88.5l-40 56q39 14 66.5 43t39.5 66q-6 -1 -12 -1q-36 0 -59.5 23t-23.5 61q0 40 24.5 64t61.5 24q42 0 66 -29.5t24 -82.5z" />
    <glyph glyph-name="quotesinglbase" unicode="&#x201a;" horiz-adv-x="242" 
d="M209 58q0 -74 -40.5 -135.5t-106.5 -88.5l-40 56q39 14 66.5 43t39.5 66q-6 -1 -12 -1q-36 0 -59.5 23t-23.5 61q0 40 24.5 64t61.5 24q42 0 66 -29.5t24 -82.5z" />
    <glyph glyph-name="quotedblleft" unicode="&#x201c;" horiz-adv-x="469" 
d="M33 497q0 74 40.5 135.5t106.5 88.5l40 -56q-39 -14 -66.5 -43t-39.5 -66q6 1 12 1q36 0 59.5 -23t23.5 -61q0 -40 -24 -64t-62 -24q-42 0 -66 30t-24 82zM260 497q0 74 40.5 135.5t106.5 88.5l40 -56q-39 -14 -66.5 -43t-39.5 -66q6 1 12 1q36 0 59.5 -23t23.5 -61
q0 -40 -24 -64t-62 -24q-42 0 -66 30t-24 82z" />
    <glyph glyph-name="quotedblright" unicode="&#x201d;" horiz-adv-x="469" 
d="M209 600q0 -74 -40.5 -135.5t-106.5 -88.5l-40 56q39 14 66.5 43t39.5 66q-6 -1 -12 -1q-36 0 -59.5 23t-23.5 61q0 40 24.5 64t61.5 24q42 0 66 -29.5t24 -82.5zM436 600q0 -74 -40.5 -135.5t-106.5 -88.5l-40 56q39 14 66.5 43t39.5 66q-6 -1 -12 -1q-36 0 -59.5 23
t-23.5 61q0 40 24.5 64t61.5 24q42 0 66 -29.5t24 -82.5z" />
    <glyph glyph-name="quotedblbase" unicode="&#x201e;" horiz-adv-x="469" 
d="M209 58q0 -74 -40.5 -135.5t-106.5 -88.5l-40 56q39 14 66.5 43t39.5 66q-6 -1 -12 -1q-36 0 -59.5 23t-23.5 61q0 40 24.5 64t61.5 24q42 0 66 -29.5t24 -82.5zM436 58q0 -74 -40.5 -135.5t-106.5 -88.5l-40 56q39 14 66.5 43t39.5 66q-6 -1 -12 -1q-36 0 -59.5 23
t-23.5 61q0 40 24.5 64t61.5 24q42 0 66 -29.5t24 -82.5z" />
    <glyph glyph-name="dagger" unicode="&#x2020;" horiz-adv-x="392" 
d="M270 -98h-148l12 517l-119 -5v125l119 -5l-12 206h148l-12 -206l119 5v-125l-119 5z" />
    <glyph glyph-name="daggerdbl" unicode="&#x2021;" horiz-adv-x="406" 
d="M129 321l12 114l-119 -5v123l119 -5l-12 192h148l-12 -192l119 5v-123l-119 5l12 -114l-12 -114l119 5v-123l-119 5l12 -192h-148l12 192l-119 -5v123l119 -5z" />
    <glyph glyph-name="bullet" unicode="&#x2022;" horiz-adv-x="310" 
d="M155 407q56 0 92 -37.5t36 -95.5q0 -57 -36 -95t-92 -38q-57 0 -92.5 38t-35.5 95q0 58 35.5 95.5t92.5 37.5z" />
    <glyph glyph-name="ellipsis" unicode="&#x2026;" horiz-adv-x="760" 
d="M126 -11q-39 0 -63.5 25.5t-24.5 64.5q0 40 24.5 64.5t63.5 24.5t63.5 -24.5t24.5 -64.5q0 -39 -24.5 -64.5t-63.5 -25.5zM381 -11q-39 0 -63.5 25.5t-24.5 64.5q0 40 24.5 64.5t63.5 24.5t63.5 -24.5t24.5 -64.5q0 -39 -24.5 -64.5t-63.5 -25.5zM635 -11
q-39 0 -63.5 25.5t-24.5 64.5q0 40 24.5 64.5t63.5 24.5t63.5 -24.5t24.5 -64.5q0 -39 -24.5 -64.5t-63.5 -25.5z" />
    <glyph glyph-name="perthousand" unicode="&#x2030;" horiz-adv-x="1030" 
d="M290 0h-102l244 684h102zM568 -8q-66 0 -100.5 52t-34.5 149t34.5 149t100.5 52t100.5 -52t34.5 -149t-34.5 -149t-100.5 -52zM568 74q38 0 38 119t-38 119t-38 -119t38 -119zM876 -8q-66 0 -100.5 52t-34.5 149t34.5 149t100.5 52t100.5 -52t34.5 -149t-34.5 -149
t-100.5 -52zM876 74q38 0 38 119t-38 119t-38 -119t38 -119zM154 290q-66 0 -100.5 52t-34.5 149t34.5 149t100.5 52t100.5 -52t34.5 -149t-34.5 -149t-100.5 -52zM154 372q38 0 38 119t-38 119t-38 -119t38 -119z" />
    <glyph glyph-name="guilsinglleft" unicode="&#x2039;" horiz-adv-x="307" 
d="M133 52l-106 210l106 210h144l-99 -209l99 -211h-144z" />
    <glyph glyph-name="guilsinglright" unicode="&#x203a;" horiz-adv-x="307" 
d="M174 52h-144l99 211l-99 209h144l106 -210z" />
    <glyph glyph-name="fraction" unicode="&#x2044;" horiz-adv-x="106" 
d="M-18 0h-102l244 684h102z" />
    <glyph glyph-name="uni2070" unicode="&#x2070;" horiz-adv-x="308" 
d="M154 380q-66 0 -100.5 52t-34.5 149t34.5 149t100.5 52t100.5 -52t34.5 -149t-34.5 -149t-100.5 -52zM154 462q38 0 38 119t-38 119t-38 -119t38 -119z" />
    <glyph glyph-name="uni2074" unicode="&#x2074;" horiz-adv-x="308" 
d="M254 388h-86v72h-157v72l151 242h92v-239h42l-9 -75h-33v-72zM168 535v124l-77 -124h77z" />
    <glyph glyph-name="uni2075" unicode="&#x2075;" horiz-adv-x="308" 
d="M276 511q0 -61 -38.5 -96t-107.5 -35q-30 0 -57.5 7t-46.5 20l20 75q33 -24 77 -24q60 0 60 50q0 49 -55 49q-25 0 -51 -9l-34 18l16 208h195l10 -81h-131l-5 -72q19 7 38 7q51 0 80.5 -30.5t29.5 -86.5z" />
    <glyph glyph-name="uni2076" unicode="&#x2076;" horiz-adv-x="308" 
d="M277 764l-23 -75q-14 6 -26.5 9.5t-29.5 3.5q-82 0 -85 -114q23 47 76 47q45 0 71 -33.5t26 -87.5q0 -61 -34 -97.5t-91 -36.5q-136 0 -136 187q0 101 44.5 158t123.5 57q45 0 84 -18zM161 564q-36 0 -36 -54t35 -54q37 0 37 54t-36 54z" />
    <glyph glyph-name="uni2077" unicode="&#x2077;" horiz-adv-x="308" 
d="M153 388h-101l133 304h-160l10 82h245v-77z" />
    <glyph glyph-name="uni2078" unicode="&#x2078;" horiz-adv-x="308" 
d="M154 380q-62 0 -98 31t-36 82q0 70 60 93q-51 25 -51 86q0 51 34.5 80.5t90.5 29.5t90.5 -29.5t34.5 -80.5q0 -61 -51 -86q60 -23 60 -93q0 -51 -36 -82t-98 -31zM154 619q38 0 38 43q0 47 -38 47t-38 -47q0 -43 38 -43zM154 454q42 0 42 48q0 47 -42 47t-42 -47
q0 -48 42 -48z" />
    <glyph glyph-name="uni2079" unicode="&#x2079;" horiz-adv-x="308" 
d="M34 398l23 75q14 -7 26.5 -10t28.5 -3q79 0 82 114q-23 -47 -75 -47q-45 0 -71 34t-26 87q0 62 34 98t90 36q137 0 137 -186q0 -101 -43.5 -158.5t-121.5 -57.5q-45 0 -84 18zM147 598q36 0 36 54t-36 54t-36 -54t36 -54z" />
    <glyph glyph-name="uni2080" unicode="&#x2080;" horiz-adv-x="308" 
d="M154 -98q-66 0 -100.5 52t-34.5 149t34.5 149t100.5 52t100.5 -52t34.5 -149t-34.5 -149t-100.5 -52zM154 -16q38 0 38 119t-38 119t-38 -119t38 -119z" />
    <glyph glyph-name="uni2081" unicode="&#x2081;" horiz-adv-x="308" 
d="M223 -90h-92v281l-58 -43l-44 68l111 80h83v-386z" />
    <glyph glyph-name="uni2082" unicode="&#x2082;" horiz-adv-x="308" 
d="M277 -9l-10 -81h-237v67q51 50 81 84q35 41 48 63.5t13 48.5q0 49 -48 49q-40 0 -71 -31l-27 73q23 20 52 30t60 10q61 0 95 -31.5t34 -87.5q0 -34 -14.5 -64.5t-56.5 -80.5q-9 -10 -20.5 -22.5t-24.5 -26.5h126z" />
    <glyph glyph-name="uni2083" unicode="&#x2083;" horiz-adv-x="308" 
d="M24 -69l19 72q34 -24 81 -24q26 0 41 11.5t15 33.5q0 44 -60 44h-33v78h31q59 0 59 43q0 17 -13.5 27.5t-36.5 10.5q-22 0 -42 -6t-34 -18l-19 70q19 15 47.5 23t60.5 8q59 0 93.5 -28t34.5 -77q0 -63 -63 -88q32 -10 50.5 -34t18.5 -58q0 -55 -38.5 -86t-106.5 -31
q-66 0 -105 29z" />
    <glyph glyph-name="uni2084" unicode="&#x2084;" horiz-adv-x="308" 
d="M254 -90h-86v72h-157v72l151 242h92v-239h42l-9 -75h-33v-72zM168 57v124l-77 -124h77z" />
    <glyph glyph-name="uni2085" unicode="&#x2085;" horiz-adv-x="308" 
d="M276 33q0 -61 -38.5 -96t-107.5 -35q-30 0 -57.5 7t-46.5 20l20 75q33 -24 77 -24q60 0 60 50q0 49 -55 49q-25 0 -51 -9l-34 18l16 208h195l10 -81h-131l-5 -72q19 7 38 7q51 0 80.5 -30.5t29.5 -86.5z" />
    <glyph glyph-name="uni2086" unicode="&#x2086;" horiz-adv-x="308" 
d="M277 286l-23 -75q-14 6 -26.5 9.5t-29.5 3.5q-82 0 -85 -114q23 47 76 47q45 0 71 -33.5t26 -87.5q0 -61 -34 -97.5t-91 -36.5q-136 0 -136 187q0 101 44.5 158t123.5 57q45 0 84 -18zM161 86q-36 0 -36 -54t35 -54q37 0 37 54t-36 54z" />
    <glyph glyph-name="uni2087" unicode="&#x2087;" horiz-adv-x="308" 
d="M153 -90h-101l133 304h-160l10 82h245v-77z" />
    <glyph glyph-name="uni2088" unicode="&#x2088;" horiz-adv-x="308" 
d="M154 -98q-62 0 -98 31t-36 82q0 70 60 93q-51 25 -51 86q0 51 34.5 80.5t90.5 29.5t90.5 -29.5t34.5 -80.5q0 -61 -51 -86q60 -23 60 -93q0 -51 -36 -82t-98 -31zM154 141q38 0 38 43q0 47 -38 47t-38 -47q0 -43 38 -43zM154 -24q42 0 42 48q0 47 -42 47t-42 -47
q0 -48 42 -48z" />
    <glyph glyph-name="uni2089" unicode="&#x2089;" horiz-adv-x="308" 
d="M34 -80l23 75q14 -7 26.5 -10t28.5 -3q79 0 82 114q-23 -47 -75 -47q-45 0 -71 34t-26 87q0 62 34 98t90 36q137 0 137 -186q0 -101 -43.5 -158.5t-121.5 -57.5q-45 0 -84 18zM147 120q36 0 36 54t-36 54t-36 -54t36 -54z" />
    <glyph glyph-name="uni20A9" unicode="&#x20a9;" horiz-adv-x="819" 
d="M319 0h-153l-62 290h-92v84h74l-14 67h-60v84h42l-34 159h152l25 -159h117l24 159h147l26 -159h116l24 159h148l-34 -159h42v-84h-60l-14 -67h74v-84h-92l-62 -290h-153l-49 290h-85zM380 374h56l-28 169zM535 374h69l10 67h-90zM220 374h70l11 67h-92zM233 290l22 -146
l23 146h-45zM549 290l21 -133l21 133h-42z" />
    <glyph glyph-name="dong" unicode="&#x20ab;" horiz-adv-x="484" 
d="M484 546h-51v-546h-123l-4 71q-38 -84 -126 -84q-51 0 -89.5 32t-59.5 89t-21 133q0 75 22 132.5t61.5 90t91.5 32.5q70 0 108 -61v111h-117v84h117v54h140v-54h51v-84zM303 242q0 62 -19.5 97t-57.5 35q-37 0 -56 -35t-19 -97q0 -63 19 -98t56 -35q38 0 57.5 34.5
t19.5 98.5zM433 -154h-413v84h413v-84z" />
    <glyph glyph-name="Euro" unicode="&#x20ac;" horiz-adv-x="484" 
d="M372 226h-156q25 -112 118 -112q38 0 63 10t56 35l27 -123q-35 -25 -74.5 -37.5t-89.5 -12.5q-104 0 -167.5 61.5t-83.5 178.5h-57l11 84h38q-1 15 -1 32q0 18 1 35h-49l11 84h47q21 115 85.5 176t167.5 61q47 0 83 -10.5t68 -33.5l-27 -125q-28 23 -51.5 32t-55.5 9
q-93 0 -119 -109h186l-11 -84h-186q-1 -17 -1 -36q0 -16 1 -31h177z" />
    <glyph glyph-name="uni20B4" unicode="&#x20b4;" horiz-adv-x="484" 
d="M467 380h-450v84h277q9 16 9 40q0 35 -21.5 54t-61.5 19t-72 -10.5t-72 -36.5l-26 115q79 53 191 53q93 0 147 -44.5t54 -122.5q0 -35 -18 -67h43v-84zM42 155q0 37 21 74h-46v84h450v-84h-270q-13 -19 -13 -47q0 -74 91 -74q43 0 77.5 12t76.5 41l28 -117
q-82 -58 -203 -58q-100 0 -156 45t-56 124z" />
    <glyph glyph-name="uni20B9" unicode="&#x20b9;" horiz-adv-x="484" 
d="M463 431h-63q-10 -69 -60.5 -111t-135.5 -51l236 -269h-189l-210 258v87h99q96 0 112 86h-211v84h210q-17 85 -111 85h-99v84h422v-80h-127q45 -34 60 -89h67v-84z" />
    <glyph glyph-name="uni20BA" unicode="&#x20ba;" horiz-adv-x="484" 
d="M210 0h-147v205l-51 -30v101l51 30v76l-51 -30v101l51 30v201h143v-115l120 71v-101l-120 -71v-76l120 71v-101l-120 -71v-164h15q107 0 107 186l141 -17q-2 -144 -68.5 -220t-190.5 -76z" />
    <glyph glyph-name="uni20BD" unicode="&#x20bd;" horiz-adv-x="484" 
d="M326 112h-118v-112h-143v112h-51v84h51v67h-51v84h51v337h200q95 0 151 -57t56 -153q0 -97 -56.5 -154t-154.5 -57h-53v-67h118v-84zM254 566h-46v-219h46q36 0 55 29.5t19 81.5t-19 80t-55 28z" />
    <glyph glyph-name="trademark" unicode="&#x2122;" horiz-adv-x="733" 
d="M203 308h-104v299h-91v93h286v-93h-91v-299zM425 308h-98v392h130l55 -225l57 225h127v-392h-98v241l-47 -175h-79l-47 178v-244z" />
    <glyph glyph-name="uni2150" unicode="&#x2150;" horiz-adv-x="722" 
d="M268 0h-102l244 684h102zM567 0h-101l133 304h-160l10 82h245v-77zM223 298h-92v281l-58 -43l-44 68l111 80h83v-386z" />
    <glyph glyph-name="uni2151" unicode="&#x2151;" horiz-adv-x="722" 
d="M280 0h-102l244 684h102zM448 10l23 75q14 -7 26.5 -10t28.5 -3q79 0 82 114q-23 -47 -75 -47q-45 0 -71 34t-26 87q0 62 34 98t90 36q137 0 137 -186q0 -101 -43.5 -158.5t-121.5 -57.5q-45 0 -84 18zM561 210q36 0 36 54t-36 54t-36 -54t36 -54zM223 298h-92v281
l-58 -43l-44 68l111 80h83v-386z" />
    <glyph glyph-name="onethird" unicode="&#x2153;" horiz-adv-x="722" 
d="M275 0h-102l244 684h102zM438 21l19 72q34 -24 81 -24q26 0 41 11.5t15 33.5q0 44 -60 44h-33v78h31q59 0 59 43q0 17 -13.5 27.5t-36.5 10.5q-22 0 -42 -6t-34 -18l-19 70q19 15 47.5 23t60.5 8q59 0 93.5 -28t34.5 -77q0 -63 -63 -88q32 -10 50.5 -34t18.5 -58
q0 -55 -38.5 -86t-106.5 -31q-66 0 -105 29zM223 298h-92v281l-58 -43l-44 68l111 80h83v-386z" />
    <glyph glyph-name="twothirds" unicode="&#x2154;" horiz-adv-x="722" 
d="M292 0h-102l244 684h102zM438 21l19 72q34 -24 81 -24q26 0 41 11.5t15 33.5q0 44 -60 44h-33v78h31q59 0 59 43q0 17 -13.5 27.5t-36.5 10.5q-22 0 -42 -6t-34 -18l-19 70q19 15 47.5 23t60.5 8q59 0 93.5 -28t34.5 -77q0 -63 -63 -88q32 -10 50.5 -34t18.5 -58
q0 -55 -38.5 -86t-106.5 -31q-66 0 -105 29zM277 379l-10 -81h-237v67q51 50 81 84q35 41 48 63.5t13 48.5q0 49 -48 49q-40 0 -71 -31l-27 73q23 20 52 30t60 10q61 0 95 -31.5t34 -87.5q0 -34 -14.5 -64.5t-56.5 -80.5q-9 -10 -20.5 -22.5t-24.5 -26.5h126z" />
    <glyph glyph-name="uni2155" unicode="&#x2155;" horiz-adv-x="722" 
d="M280 0h-102l244 684h102zM690 123q0 -61 -38.5 -96t-107.5 -35q-30 0 -57.5 7t-46.5 20l20 75q33 -24 77 -24q60 0 60 50q0 49 -55 49q-25 0 -51 -9l-34 18l16 208h195l10 -81h-131l-5 -72q19 7 38 7q51 0 80.5 -30.5t29.5 -86.5zM223 298h-92v281l-58 -43l-44 68l111 80
h83v-386z" />
    <glyph glyph-name="uni2156" unicode="&#x2156;" horiz-adv-x="722" 
d="M300 0h-102l244 684h102zM690 123q0 -61 -38.5 -96t-107.5 -35q-30 0 -57.5 7t-46.5 20l20 75q33 -24 77 -24q60 0 60 50q0 49 -55 49q-25 0 -51 -9l-34 18l16 208h195l10 -81h-131l-5 -72q19 7 38 7q51 0 80.5 -30.5t29.5 -86.5zM277 379l-10 -81h-237v67q51 50 81 84
q35 41 48 63.5t13 48.5q0 49 -48 49q-40 0 -71 -31l-27 73q23 20 52 30t60 10q61 0 95 -31.5t34 -87.5q0 -34 -14.5 -64.5t-56.5 -80.5q-9 -10 -20.5 -22.5t-24.5 -26.5h126z" />
    <glyph glyph-name="uni2157" unicode="&#x2157;" horiz-adv-x="722" 
d="M290 0h-102l244 684h102zM690 123q0 -61 -38.5 -96t-107.5 -35q-30 0 -57.5 7t-46.5 20l20 75q33 -24 77 -24q60 0 60 50q0 49 -55 49q-25 0 -51 -9l-34 18l16 208h195l10 -81h-131l-5 -72q19 7 38 7q51 0 80.5 -30.5t29.5 -86.5zM24 319l19 72q34 -24 81 -24
q26 0 41 11.5t15 33.5q0 44 -60 44h-33v78h31q59 0 59 43q0 17 -13.5 27.5t-36.5 10.5q-22 0 -42 -6t-34 -18l-19 70q19 15 47.5 23t60.5 8q59 0 93.5 -28t34.5 -77q0 -63 -63 -88q32 -10 50.5 -34t18.5 -58q0 -55 -38.5 -86t-106.5 -31q-66 0 -105 29z" />
    <glyph glyph-name="uni2158" unicode="&#x2158;" horiz-adv-x="722" 
d="M295 0h-102l244 684h102zM690 123q0 -61 -38.5 -96t-107.5 -35q-30 0 -57.5 7t-46.5 20l20 75q33 -24 77 -24q60 0 60 50q0 49 -55 49q-25 0 -51 -9l-34 18l16 208h195l10 -81h-131l-5 -72q19 7 38 7q51 0 80.5 -30.5t29.5 -86.5zM254 298h-86v72h-157v72l151 242h92
v-239h42l-9 -75h-33v-72zM168 445v124l-77 -124h77z" />
    <glyph glyph-name="uni2159" unicode="&#x2159;" horiz-adv-x="722" 
d="M285 0h-102l244 684h102zM691 376l-23 -75q-14 6 -26.5 9.5t-29.5 3.5q-82 0 -85 -114q23 47 76 47q45 0 71 -33.5t26 -87.5q0 -61 -34 -97.5t-91 -36.5q-136 0 -136 187q0 101 44.5 158t123.5 57q45 0 84 -18zM575 176q-36 0 -36 -54t35 -54q37 0 37 54t-36 54zM223 298
h-92v281l-58 -43l-44 68l111 80h83v-386z" />
    <glyph glyph-name="uni215A" unicode="&#x215a;" horiz-adv-x="722" 
d="M295 0h-102l244 684h102zM691 376l-23 -75q-14 6 -26.5 9.5t-29.5 3.5q-82 0 -85 -114q23 47 76 47q45 0 71 -33.5t26 -87.5q0 -61 -34 -97.5t-91 -36.5q-136 0 -136 187q0 101 44.5 158t123.5 57q45 0 84 -18zM575 176q-36 0 -36 -54t35 -54q37 0 37 54t-36 54zM276 421
q0 -61 -38.5 -96t-107.5 -35q-30 0 -57.5 7t-46.5 20l20 75q33 -24 77 -24q60 0 60 50q0 49 -55 49q-25 0 -51 -9l-34 18l16 208h195l10 -81h-131l-5 -72q19 7 38 7q51 0 80.5 -30.5t29.5 -86.5z" />
    <glyph glyph-name="oneeighth" unicode="&#x215b;" horiz-adv-x="722" 
d="M278 0h-102l244 684h102zM568 -8q-62 0 -98 31t-36 82q0 70 60 93q-51 25 -51 86q0 51 34.5 80.5t90.5 29.5t90.5 -29.5t34.5 -80.5q0 -61 -51 -86q60 -23 60 -93q0 -51 -36 -82t-98 -31zM568 231q38 0 38 43q0 47 -38 47t-38 -47q0 -43 38 -43zM568 66q42 0 42 48
q0 47 -42 47t-42 -47q0 -48 42 -48zM223 298h-92v281l-58 -43l-44 68l111 80h83v-386z" />
    <glyph glyph-name="threeeighths" unicode="&#x215c;" horiz-adv-x="722" 
d="M288 0h-102l244 684h102zM568 -8q-62 0 -98 31t-36 82q0 70 60 93q-51 25 -51 86q0 51 34.5 80.5t90.5 29.5t90.5 -29.5t34.5 -80.5q0 -61 -51 -86q60 -23 60 -93q0 -51 -36 -82t-98 -31zM568 231q38 0 38 43q0 47 -38 47t-38 -47q0 -43 38 -43zM568 66q42 0 42 48
q0 47 -42 47t-42 -47q0 -48 42 -48zM24 319l19 72q34 -24 81 -24q26 0 41 11.5t15 33.5q0 44 -60 44h-33v78h31q59 0 59 43q0 17 -13.5 27.5t-36.5 10.5q-22 0 -42 -6t-34 -18l-19 70q19 15 47.5 23t60.5 8q59 0 93.5 -28t34.5 -77q0 -63 -63 -88q32 -10 50.5 -34t18.5 -58
q0 -55 -38.5 -86t-106.5 -31q-66 0 -105 29z" />
    <glyph glyph-name="fiveeighths" unicode="&#x215d;" horiz-adv-x="722" 
d="M288 0h-102l244 684h102zM568 -8q-62 0 -98 31t-36 82q0 70 60 93q-51 25 -51 86q0 51 34.5 80.5t90.5 29.5t90.5 -29.5t34.5 -80.5q0 -61 -51 -86q60 -23 60 -93q0 -51 -36 -82t-98 -31zM568 231q38 0 38 43q0 47 -38 47t-38 -47q0 -43 38 -43zM568 66q42 0 42 48
q0 47 -42 47t-42 -47q0 -48 42 -48zM276 421q0 -61 -38.5 -96t-107.5 -35q-30 0 -57.5 7t-46.5 20l20 75q33 -24 77 -24q60 0 60 50q0 49 -55 49q-25 0 -51 -9l-34 18l16 208h195l10 -81h-131l-5 -72q19 7 38 7q51 0 80.5 -30.5t29.5 -86.5z" />
    <glyph glyph-name="seveneighths" unicode="&#x215e;" horiz-adv-x="722" 
d="M270 0h-102l244 684h102zM568 -8q-62 0 -98 31t-36 82q0 70 60 93q-51 25 -51 86q0 51 34.5 80.5t90.5 29.5t90.5 -29.5t34.5 -80.5q0 -61 -51 -86q60 -23 60 -93q0 -51 -36 -82t-98 -31zM568 231q38 0 38 43q0 47 -38 47t-38 -47q0 -43 38 -43zM568 66q42 0 42 48
q0 47 -42 47t-42 -47q0 -48 42 -48zM153 298h-101l133 304h-160l10 82h245v-77z" />
    <glyph glyph-name="minus" unicode="&#x2212;" horiz-adv-x="484" 
d="M26 283v118h432v-118h-432z" />
    <glyph glyph-name="uniFEFF" unicode="&#xfeff;" 
 />
    <glyph glyph-name="uniFFFD" unicode="&#xfffd;" horiz-adv-x="1000" 
d="M500 828l475 -475l-475 -474l-475 474zM342 583l19 -59q28 20 64.5 30.5t73.5 10.5q56 0 87.5 -25t31.5 -70q0 -35 -18.5 -61.5t-61.5 -56.5q-45 -31 -63.5 -63t-18.5 -73v-18h70v18q0 27 15.5 49.5t54.5 48.5q56 38 78.5 74.5t22.5 85.5q0 71 -51 113t-140 42
q-42 0 -88 -13t-76 -33zM490 19q23 0 38.5 15.5t15.5 37.5q0 23 -15.5 37.5t-38.5 14.5t-38.5 -14.5t-15.5 -37.5q0 -22 15.5 -37.5t38.5 -15.5z" />
    <glyph glyph-name="zero.pnum" horiz-adv-x="508" 
d="M254 -14q-109 0 -166 92t-57 264q0 173 57 264.5t166 91.5t166 -91.5t57 -264.5q0 -172 -57 -264t-166 -92zM254 569q-39 0 -55.5 -55.5t-16.5 -171.5q0 -115 16.5 -171t55.5 -56t55.5 56t16.5 171q0 116 -16.5 171.5t-55.5 55.5z" />
    <glyph glyph-name="one.pnum" horiz-adv-x="389" 
d="M183 0v520l-98 -73l-72 104l185 133h131v-684h-146z" />
    <glyph glyph-name="two.pnum" horiz-adv-x="466" 
d="M20 630q40 34 88 51t98 17q103 0 160.5 -53.5t57.5 -148.5q0 -42 -12 -80t-41.5 -82.5t-81.5 -107.5q-17 -21 -38.5 -45.5t-47.5 -52.5h237l-15 -128h-402v107q47 48 83 87.5t62 73.5q41 51 64 85t33 63t10 63q0 44 -23 67t-64 23q-35 0 -67.5 -14.5t-60.5 -40.5z" />
    <glyph glyph-name="three.pnum" horiz-adv-x="471" 
d="M21 36l30 114q56 -42 140 -42q49 0 76 24.5t27 67.5q0 89 -112 89h-56v121h53q51 0 78.5 23.5t27.5 65.5q0 36 -23 56.5t-65 20.5q-38 0 -72.5 -11t-59.5 -31l-31 110q32 26 80 40t102 14q99 0 156 -49t57 -134q0 -54 -27.5 -96t-78.5 -63q55 -19 86.5 -61.5t31.5 -103.5
q0 -97 -64.5 -151t-177.5 -54q-55 0 -101.5 13.5t-76.5 36.5z" />
    <glyph glyph-name="four.pnum" horiz-adv-x="502" 
d="M278 0v137h-262v115l254 432h144v-425h69l-14 -122h-55v-137h-136zM278 259v239l-139 -239h139z" />
    <glyph glyph-name="five.pnum" horiz-adv-x="477" 
d="M200 -14q-49 0 -95.5 12.5t-77.5 33.5l31 118q58 -42 134 -42q53 0 81.5 27t28.5 76q0 50 -27.5 75.5t-78.5 25.5q-21 0 -45 -3.5t-47 -11.5l-46 23l24 364h329l15 -128h-227l-9 -137q29 7 58 7q94 0 147 -56t53 -155q0 -108 -66 -168.5t-182 -60.5z" />
    <glyph glyph-name="six.pnum" horiz-adv-x="490" 
d="M257 -14q-112 0 -169 84t-57 247q0 119 33.5 204.5t96 131t150.5 45.5q75 0 140 -31l-37 -118q-25 12 -46.5 17.5t-50.5 5.5q-140 0 -146 -221q38 88 129 88q51 0 88 -27.5t57 -76.5t20 -114q0 -71 -25.5 -124t-72.5 -82t-110 -29zM256 106q66 0 66 110q0 52 -16 81
t-48 29q-33 0 -49.5 -29t-16.5 -81t16.5 -81t47.5 -29z" />
    <glyph glyph-name="seven.pnum" horiz-adv-x="450" 
d="M83 0l205 555h-276l15 129h409v-121l-199 -563h-154z" />
    <glyph glyph-name="eight.pnum" horiz-adv-x="498" 
d="M249 -14q-101 0 -160 54.5t-59 143.5q0 63 29.5 106.5t81.5 60.5q-94 43 -94 156q0 89 55.5 140t146.5 51t146.5 -51t55.5 -140q0 -113 -94 -156q52 -17 81.5 -60.5t29.5 -106.5q0 -89 -59 -143.5t-160 -54.5zM249 406q66 0 66 87q0 41 -17 64t-49 23q-31 0 -48.5 -23
t-17.5 -64q0 -87 66 -87zM249 105q75 0 75 93q0 45 -19 69.5t-56 24.5t-56 -24.5t-19 -69.5q0 -93 75 -93z" />
    <glyph glyph-name="nine.pnum" horiz-adv-x="490" 
d="M43 17l36 119q25 -12 47 -18t50 -6q70 0 104.5 56t37.5 164q-38 -87 -128 -87q-51 0 -88 27.5t-57 77t-20 113.5q0 72 26 124.5t72.5 81.5t109.5 29q113 0 169.5 -83.5t56.5 -247.5q0 -118 -33 -203.5t-94.5 -131.5t-149.5 -46q-76 0 -139 31zM232 358q33 0 49.5 29
t16.5 81q0 53 -16.5 81.5t-48.5 28.5q-33 0 -49 -28.5t-16 -81.5q0 -52 16 -81t48 -29z" />
    <glyph glyph-name="zero.dnom" horiz-adv-x="308" 
d="M154 -8q-66 0 -100.5 52t-34.5 149t34.5 149t100.5 52t100.5 -52t34.5 -149t-34.5 -149t-100.5 -52zM154 74q38 0 38 119t-38 119t-38 -119t38 -119z" />
    <glyph glyph-name="one.dnom" horiz-adv-x="308" 
d="M223 0h-92v281l-58 -43l-44 68l111 80h83v-386z" />
    <glyph glyph-name="two.dnom" horiz-adv-x="308" 
d="M277 81l-10 -81h-237v67q51 50 81 84q35 41 48 63.5t13 48.5q0 49 -48 49q-40 0 -71 -31l-27 73q23 20 52 30t60 10q61 0 95 -31.5t34 -87.5q0 -34 -14.5 -64.5t-56.5 -80.5q-9 -10 -20.5 -22.5t-24.5 -26.5h126z" />
    <glyph glyph-name="three.dnom" horiz-adv-x="308" 
d="M24 21l19 72q34 -24 81 -24q26 0 41 11.5t15 33.5q0 44 -60 44h-33v78h31q59 0 59 43q0 17 -13.5 27.5t-36.5 10.5q-22 0 -42 -6t-34 -18l-19 70q19 15 47.5 23t60.5 8q59 0 93.5 -28t34.5 -77q0 -63 -63 -88q32 -10 50.5 -34t18.5 -58q0 -55 -38.5 -86t-106.5 -31
q-66 0 -105 29z" />
    <glyph glyph-name="four.dnom" horiz-adv-x="308" 
d="M254 0h-86v72h-157v72l151 242h92v-239h42l-9 -75h-33v-72zM168 147v124l-77 -124h77z" />
    <glyph glyph-name="five.dnom" horiz-adv-x="308" 
d="M276 123q0 -61 -38.5 -96t-107.5 -35q-30 0 -57.5 7t-46.5 20l20 75q33 -24 77 -24q60 0 60 50q0 49 -55 49q-25 0 -51 -9l-34 18l16 208h195l10 -81h-131l-5 -72q19 7 38 7q51 0 80.5 -30.5t29.5 -86.5z" />
    <glyph glyph-name="six.dnom" horiz-adv-x="308" 
d="M277 376l-23 -75q-14 6 -26.5 9.5t-29.5 3.5q-82 0 -85 -114q23 47 76 47q45 0 71 -33.5t26 -87.5q0 -61 -34 -97.5t-91 -36.5q-136 0 -136 187q0 101 44.5 158t123.5 57q45 0 84 -18zM161 176q-36 0 -36 -54t35 -54q37 0 37 54t-36 54z" />
    <glyph glyph-name="seven.dnom" horiz-adv-x="308" 
d="M153 0h-101l133 304h-160l10 82h245v-77z" />
    <glyph glyph-name="eight.dnom" horiz-adv-x="308" 
d="M154 -8q-62 0 -98 31t-36 82q0 70 60 93q-51 25 -51 86q0 51 34.5 80.5t90.5 29.5t90.5 -29.5t34.5 -80.5q0 -61 -51 -86q60 -23 60 -93q0 -51 -36 -82t-98 -31zM154 231q38 0 38 43q0 47 -38 47t-38 -47q0 -43 38 -43zM154 66q42 0 42 48q0 47 -42 47t-42 -47
q0 -48 42 -48z" />
    <glyph glyph-name="nine.dnom" horiz-adv-x="308" 
d="M34 10l23 75q14 -7 26.5 -10t28.5 -3q79 0 82 114q-23 -47 -75 -47q-45 0 -71 34t-26 87q0 62 34 98t90 36q137 0 137 -186q0 -101 -43.5 -158.5t-121.5 -57.5q-45 0 -84 18zM147 210q36 0 36 54t-36 54t-36 -54t36 -54z" />
    <glyph glyph-name="zero.numr" horiz-adv-x="308" 
d="M154 290q-66 0 -100.5 52t-34.5 149t34.5 149t100.5 52t100.5 -52t34.5 -149t-34.5 -149t-100.5 -52zM154 372q38 0 38 119t-38 119t-38 -119t38 -119z" />
    <glyph glyph-name="one.numr" horiz-adv-x="308" 
d="M223 298h-92v281l-58 -43l-44 68l111 80h83v-386z" />
    <glyph glyph-name="two.numr" horiz-adv-x="308" 
d="M277 379l-10 -81h-237v67q51 50 81 84q35 41 48 63.5t13 48.5q0 49 -48 49q-40 0 -71 -31l-27 73q23 20 52 30t60 10q61 0 95 -31.5t34 -87.5q0 -34 -14.5 -64.5t-56.5 -80.5q-9 -10 -20.5 -22.5t-24.5 -26.5h126z" />
    <glyph glyph-name="three.numr" horiz-adv-x="308" 
d="M24 319l19 72q34 -24 81 -24q26 0 41 11.5t15 33.5q0 44 -60 44h-33v78h31q59 0 59 43q0 17 -13.5 27.5t-36.5 10.5q-22 0 -42 -6t-34 -18l-19 70q19 15 47.5 23t60.5 8q59 0 93.5 -28t34.5 -77q0 -63 -63 -88q32 -10 50.5 -34t18.5 -58q0 -55 -38.5 -86t-106.5 -31
q-66 0 -105 29z" />
    <glyph glyph-name="four.numr" horiz-adv-x="308" 
d="M254 298h-86v72h-157v72l151 242h92v-239h42l-9 -75h-33v-72zM168 445v124l-77 -124h77z" />
    <glyph glyph-name="five.numr" horiz-adv-x="308" 
d="M276 421q0 -61 -38.5 -96t-107.5 -35q-30 0 -57.5 7t-46.5 20l20 75q33 -24 77 -24q60 0 60 50q0 49 -55 49q-25 0 -51 -9l-34 18l16 208h195l10 -81h-131l-5 -72q19 7 38 7q51 0 80.5 -30.5t29.5 -86.5z" />
    <glyph glyph-name="six.numr" horiz-adv-x="308" 
d="M277 674l-23 -75q-14 6 -26.5 9.5t-29.5 3.5q-82 0 -85 -114q23 47 76 47q45 0 71 -33.5t26 -87.5q0 -61 -34 -97.5t-91 -36.5q-136 0 -136 187q0 101 44.5 158t123.5 57q45 0 84 -18zM161 474q-36 0 -36 -54t35 -54q37 0 37 54t-36 54z" />
    <glyph glyph-name="seven.numr" horiz-adv-x="308" 
d="M153 298h-101l133 304h-160l10 82h245v-77z" />
    <glyph glyph-name="eight.numr" horiz-adv-x="308" 
d="M154 290q-62 0 -98 31t-36 82q0 70 60 93q-51 25 -51 86q0 51 34.5 80.5t90.5 29.5t90.5 -29.5t34.5 -80.5q0 -61 -51 -86q60 -23 60 -93q0 -51 -36 -82t-98 -31zM154 529q38 0 38 43q0 47 -38 47t-38 -47q0 -43 38 -43zM154 364q42 0 42 48q0 47 -42 47t-42 -47
q0 -48 42 -48z" />
    <glyph glyph-name="nine.numr" horiz-adv-x="308" 
d="M34 308l23 75q14 -7 26.5 -10t28.5 -3q79 0 82 114q-23 -47 -75 -47q-45 0 -71 34t-26 87q0 62 34 98t90 36q137 0 137 -186q0 -101 -43.5 -158.5t-121.5 -57.5q-45 0 -84 18zM147 508q36 0 36 54t-36 54t-36 -54t36 -54z" />
    <glyph glyph-name="twosevenths" horiz-adv-x="722" 
d="M288 0h-102l244 684h102zM567 0h-101l133 304h-160l10 82h245v-77zM277 379l-10 -81h-237v67q51 50 81 84q35 41 48 63.5t13 48.5q0 49 -48 49q-40 0 -71 -31l-27 73q23 20 52 30t60 10q61 0 95 -31.5t34 -87.5q0 -34 -14.5 -64.5t-56.5 -80.5q-9 -10 -20.5 -22.5
t-24.5 -26.5h126z" />
    <glyph glyph-name="threesevenths" horiz-adv-x="722" 
d="M280 0h-102l244 684h102zM567 0h-101l133 304h-160l10 82h245v-77zM24 319l19 72q34 -24 81 -24q26 0 41 11.5t15 33.5q0 44 -60 44h-33v78h31q59 0 59 43q0 17 -13.5 27.5t-36.5 10.5q-22 0 -42 -6t-34 -18l-19 70q19 15 47.5 23t60.5 8q59 0 93.5 -28t34.5 -77
q0 -63 -63 -88q32 -10 50.5 -34t18.5 -58q0 -55 -38.5 -86t-106.5 -31q-66 0 -105 29z" />
    <glyph glyph-name="foursevenths" horiz-adv-x="722" 
d="M288 0h-102l244 684h102zM567 0h-101l133 304h-160l10 82h245v-77zM254 298h-86v72h-157v72l151 242h92v-239h42l-9 -75h-33v-72zM168 445v124l-77 -124h77z" />
    <glyph glyph-name="fivesevenths" horiz-adv-x="722" 
d="M280 0h-102l244 684h102zM567 0h-101l133 304h-160l10 82h245v-77zM276 421q0 -61 -38.5 -96t-107.5 -35q-30 0 -57.5 7t-46.5 20l20 75q33 -24 77 -24q60 0 60 50q0 49 -55 49q-25 0 -51 -9l-34 18l16 208h195l10 -81h-131l-5 -72q19 7 38 7q51 0 80.5 -30.5t29.5 -86.5
z" />
    <glyph glyph-name="sixsevenths" horiz-adv-x="722" 
d="M285 0h-102l244 684h102zM567 0h-101l133 304h-160l10 82h245v-77zM277 674l-23 -75q-14 6 -26.5 9.5t-29.5 3.5q-82 0 -85 -114q23 47 76 47q45 0 71 -33.5t26 -87.5q0 -61 -34 -97.5t-91 -36.5q-136 0 -136 187q0 101 44.5 158t123.5 57q45 0 84 -18zM161 474
q-36 0 -36 -54t35 -54q37 0 37 54t-36 54z" />
    <glyph glyph-name="twoninths" horiz-adv-x="722" 
d="M295 0h-102l244 684h102zM448 10l23 75q14 -7 26.5 -10t28.5 -3q79 0 82 114q-23 -47 -75 -47q-45 0 -71 34t-26 87q0 62 34 98t90 36q137 0 137 -186q0 -101 -43.5 -158.5t-121.5 -57.5q-45 0 -84 18zM561 210q36 0 36 54t-36 54t-36 -54t36 -54zM277 379l-10 -81h-237
v67q51 50 81 84q35 41 48 63.5t13 48.5q0 49 -48 49q-40 0 -71 -31l-27 73q23 20 52 30t60 10q61 0 95 -31.5t34 -87.5q0 -34 -14.5 -64.5t-56.5 -80.5q-9 -10 -20.5 -22.5t-24.5 -26.5h126z" />
    <glyph glyph-name="fourninths" horiz-adv-x="722" 
d="M295 0h-102l244 684h102zM448 10l23 75q14 -7 26.5 -10t28.5 -3q79 0 82 114q-23 -47 -75 -47q-45 0 -71 34t-26 87q0 62 34 98t90 36q137 0 137 -186q0 -101 -43.5 -158.5t-121.5 -57.5q-45 0 -84 18zM561 210q36 0 36 54t-36 54t-36 -54t36 -54zM254 298h-86v72h-157
v72l151 242h92v-239h42l-9 -75h-33v-72zM168 445v124l-77 -124h77z" />
    <glyph glyph-name="fiveninths" horiz-adv-x="722" 
d="M285 0h-102l244 684h102zM448 10l23 75q14 -7 26.5 -10t28.5 -3q79 0 82 114q-23 -47 -75 -47q-45 0 -71 34t-26 87q0 62 34 98t90 36q137 0 137 -186q0 -101 -43.5 -158.5t-121.5 -57.5q-45 0 -84 18zM561 210q36 0 36 54t-36 54t-36 -54t36 -54zM276 421
q0 -61 -38.5 -96t-107.5 -35q-30 0 -57.5 7t-46.5 20l20 75q33 -24 77 -24q60 0 60 50q0 49 -55 49q-25 0 -51 -9l-34 18l16 208h195l10 -81h-131l-5 -72q19 7 38 7q51 0 80.5 -30.5t29.5 -86.5z" />
    <glyph glyph-name="sevenninths" horiz-adv-x="722" 
d="M270 0h-102l244 684h102zM448 10l23 75q14 -7 26.5 -10t28.5 -3q79 0 82 114q-23 -47 -75 -47q-45 0 -71 34t-26 87q0 62 34 98t90 36q137 0 137 -186q0 -101 -43.5 -158.5t-121.5 -57.5q-45 0 -84 18zM561 210q36 0 36 54t-36 54t-36 -54t36 -54zM153 298h-101l133 304
h-160l10 82h245v-77z" />
    <glyph glyph-name="eightninths" horiz-adv-x="722" 
d="M293 0h-102l244 684h102zM448 10l23 75q14 -7 26.5 -10t28.5 -3q79 0 82 114q-23 -47 -75 -47q-45 0 -71 34t-26 87q0 62 34 98t90 36q137 0 137 -186q0 -101 -43.5 -158.5t-121.5 -57.5q-45 0 -84 18zM561 210q36 0 36 54t-36 54t-36 -54t36 -54zM154 290q-62 0 -98 31
t-36 82q0 70 60 93q-51 25 -51 86q0 51 34.5 80.5t90.5 29.5t90.5 -29.5t34.5 -80.5q0 -61 -51 -86q60 -23 60 -93q0 -51 -36 -82t-98 -31zM154 529q38 0 38 43q0 47 -38 47t-38 -47q0 -43 38 -43zM154 364q42 0 42 48q0 47 -42 47t-42 -47q0 -48 42 -48z" />
    <glyph glyph-name="shekel" horiz-adv-x="784" 
d="M554 169h-133v290q0 59 -22 84.5t-75 25.5h-144v-569h-133v684h270q123 0 180 -56.5t57 -175.5v-283zM741 232q0 -119 -57.5 -175.5t-179.5 -56.5h-270v515h133v-400h144q53 0 75 25.5t22 84.5v459h133v-452z" />
    <glyph glyph-name="hyphen.case" horiz-adv-x="320" 
d="M27 288v125h266v-125h-266z" />
    <glyph glyph-name="endash.case" horiz-adv-x="390" 
d="M0 288v125h390v-125h-390z" />
    <glyph glyph-name="emdash.case" horiz-adv-x="780" 
d="M0 288v125h780v-125h-780z" />
    <glyph glyph-name="parenleft.case" horiz-adv-x="309" 
d="M31 350q0 154 45 276t131 213l90 -73q-115 -159 -115 -416t115 -416l-90 -73q-86 91 -131 213t-45 276z" />
    <glyph glyph-name="parenright.case" horiz-adv-x="309" 
d="M278 350q0 -154 -45 -276t-131 -213l-90 73q115 159 115 416t-115 416l90 73q86 -91 131 -213t45 -276z" />
    <glyph glyph-name="slash.case" horiz-adv-x="396" 
d="M9 -98l230 896h148l-230 -896h-148z" />
    <glyph glyph-name="backslash.case" horiz-adv-x="396" 
d="M387 -98h-148l-230 896h148z" />
    <glyph glyph-name="bracketleft.case" horiz-adv-x="309" 
d="M52 -98v896h231l14 -119h-101v-658h101l-14 -119h-231z" />
    <glyph glyph-name="bracketright.case" horiz-adv-x="309" 
d="M257 -98h-231l-14 119h101v658h-101l14 119h231v-896z" />
    <glyph glyph-name="braceleft.case" horiz-adv-x="312" 
d="M300 21l-14 -119h-70q-69 0 -110 43t-41 119q0 46 7.5 78t7.5 66q0 85 -64 85v114q64 0 64 85q0 34 -7.5 66.5t-7.5 78.5q0 75 41 118t110 43h70l14 -119h-34q-33 0 -47.5 -18t-14.5 -61q0 -31 4 -54t7.5 -44.5t3.5 -47.5q0 -40 -26 -67t-73 -37q47 -10 73 -36.5
t26 -66.5q0 -26 -3.5 -48t-7.5 -45t-4 -53q0 -43 14.5 -61.5t47.5 -18.5h34z" />
    <glyph glyph-name="braceright.case" horiz-adv-x="312" 
d="M247 64q0 -76 -41 -119t-110 -43h-70l-14 119h34q33 0 47.5 18.5t14.5 61.5q0 30 -3.5 53t-7.5 45t-4 48q0 40 26 66.5t73 36.5q-47 10 -73 37t-26 67q0 26 4 47.5t7.5 44.5t3.5 54q0 43 -14.5 61t-47.5 18h-34l14 119h70q69 0 110 -43t41 -118q0 -46 -7.5 -78.5
t-7.5 -66.5q0 -85 64 -85v-114q-64 0 -64 -85q0 -34 7.5 -66t7.5 -78z" />
    <glyph glyph-name="bullet.case" horiz-adv-x="310" 
d="M155 483q56 0 92 -37.5t36 -95.5q0 -57 -36 -95t-92 -38q-57 0 -92.5 38t-35.5 95q0 58 35.5 95.5t92.5 37.5z" />
    <glyph glyph-name="guilsinglleft.case" horiz-adv-x="307" 
d="M133 140l-106 210l106 210h144l-99 -209l99 -211h-144z" />
    <glyph glyph-name="guilsinglright.case" horiz-adv-x="307" 
d="M174 140h-144l99 211l-99 209h144l106 -210z" />
    <glyph glyph-name="guillemotleft.case" horiz-adv-x="546" 
d="M133 140l-106 210l106 210h144l-99 -209l99 -211h-144zM372 140l-106 210l106 210h144l-99 -209l99 -211h-144z" />
    <glyph glyph-name="guillemotright.case" horiz-adv-x="546" 
d="M174 140h-144l99 211l-99 209h144l106 -210zM413 140h-144l99 211l-99 209h144l106 -210z" />
    <glyph glyph-name="at.case" horiz-adv-x="806" 
d="M564 301q-3 -18 -3 -33q0 -26 8 -37.5t26 -11.5q38 0 61.5 59t23.5 153q0 138 -64.5 210t-183.5 72q-93 0 -161 -49t-105.5 -135.5t-37.5 -199.5q0 -163 69.5 -252.5t199.5 -89.5q47 0 94.5 11.5t84.5 32.5l20 -86q-40 -21 -96.5 -33.5t-111.5 -12.5q-112 0 -192 51.5
t-122.5 147.5t-42.5 229q0 105 30 191.5t84 150t127.5 98t161.5 34.5q105 0 181.5 -44t118 -125.5t41.5 -194.5q0 -93 -24 -162.5t-68 -108t-104 -38.5q-99 0 -110 96q-16 -45 -49 -70.5t-76 -25.5q-60 0 -95 53.5t-35 144.5q0 71 22 126.5t60 87.5t85 32q38 0 64.5 -23
t36.5 -63l16 73h103zM386 233q31 0 51.5 40t20.5 100q0 44 -13 69t-39 25q-31 0 -50 -39.5t-19 -96.5q0 -46 13 -72t36 -26z" />
    <glyph glyph-name="periodcentered.loclCAT" horiz-adv-x="176" 
d="M88 278q-39 0 -63.5 25.5t-24.5 64.5q0 40 24.5 64.5t63.5 24.5t63.5 -24.5t24.5 -64.5q0 -39 -24.5 -64.5t-63.5 -25.5z" />
    <glyph glyph-name="periodcentered.loclCAT.cap" 
d="M-107 329q-39 0 -63.5 25.5t-24.5 64.5q0 40 24.5 64.5t63.5 24.5t63.5 -24.5t24.5 -64.5q0 -39 -24.5 -64.5t-63.5 -25.5z" />
    <glyph glyph-name="dotlessij" horiz-adv-x="486" 
d="M73 -66q25 -17 56.5 -28t64.5 -11q58 0 80.5 29t22.5 95v44q-37 -63 -112 -63q-144 0 -144 209v311h144v-287q0 -55 10.5 -78.5t40.5 -23.5q61 0 61 109v280h144v-486q0 -134 -58 -198.5t-182 -64.5q-44 0 -86 12t-69 31z" />
    <glyph glyph-name="IJacute" horiz-adv-x="549" 
d="M203 245h-151v455h151v-455zM57 36l30 126q60 -46 129 -46q52 0 81 20t41 65t12 120v379h151v-390q0 -168 -66.5 -247t-207.5 -79q-49 0 -95 14.5t-75 37.5zM181 772h-153l124 130h176zM479 772h-153l124 130h176z" />
    <glyph glyph-name="ijacute" horiz-adv-x="486" 
d="M73 -66q25 -17 56.5 -28t64.5 -11q58 0 80.5 29t22.5 95v44q-37 -63 -112 -63q-144 0 -144 209v311h144v-287q0 -55 10.5 -78.5t40.5 -23.5q61 0 61 109v280h144v-486q0 -134 -58 -198.5t-182 -64.5q-44 0 -86 12t-69 31zM152 594h-128l107 156h160zM408 594h-128
l107 156h160z" />
    <glyph glyph-name="uni0327.cap" 
d="M-10 -229q-28 0 -48.5 4t-39.5 11l18 70q23 -12 57 -12q53 0 53 28q0 25 -48 25q-23 0 -41 -5l25 123h75l-15 -61h1q44 0 69 -23t25 -64q0 -45 -35 -70.5t-96 -25.5z" />
    <glyph glyph-name="uni0326.cap" 
d="M-78 -243q55 15 81 51q-8 -2 -16 -2q-26 0 -43 17.5t-17 45.5q0 29 20 47.5t51 18.5q36 0 55.5 -20.5t19.5 -57.5q0 -48 -31.5 -86t-88.5 -56z" />
    <glyph glyph-name="uni0328.cap" 
d="M-53 -109q0 -37 43 -37q27 0 45 11l17 -78q-33 -16 -82 -16q-55 0 -86 25t-31 68q0 48 39 90.5t111 72.5l49 -27q-105 -49 -105 -109z" />
    <glyph glyph-name="uni0328.round" 
d="M-35 -110q0 -38 42 -38q24 0 40 11l17 -76q-32 -16 -78 -16q-55 0 -84 25t-29 67q0 54 42 102t120 82l49 -27q-58 -28 -88.5 -61.5t-30.5 -68.5z" />
    <glyph glyph-name="uni0328.round.cap" 
d="M-38 -109q0 -37 43 -37q27 0 45 11l17 -78q-33 -16 -82 -16q-55 0 -86 25t-31 68q0 54 44 102t126 81l49 -27q-61 -28 -93 -61t-32 -68z" />
    <glyph glyph-name="acutecomb.cap" 
d="M53 772h-153l124 130h176z" />
    <glyph glyph-name="uni030B.cap" 
d="M-29 772h-142l124 130h167zM193 772h-142l124 130h167z" />
    <glyph glyph-name="gravecomb.cap" 
d="M-53 772l-147 130h176l124 -130h-153z" />
    <glyph glyph-name="uni0302.cap" 
d="M-64 772h-126l123 130h134l123 -130h-128l-63 57z" />
    <glyph glyph-name="tildecomb.cap" 
d="M180 909q-1 -67 -29.5 -103t-80.5 -36q-24 0 -44 8t-49 29q-25 18 -36 18q-30 0 -30 -55l-91 11q2 67 30 103t80 36q24 0 43.5 -7.5t49.5 -29.5q13 -9 21 -13.5t15 -4.5q30 0 30 55z" />
    <glyph glyph-name="uni030C.cap" 
d="M64 902h126l-123 -130h-134l-123 130h128l63 -57z" />
    <glyph glyph-name="uni0315.short" 
d="M35 566h-109q5 42 7 83.5t3 90.5h128q-4 -53 -11 -94.5t-18 -79.5z" />
    <glyph glyph-name="uni0304.cap" 
d="M-175 886h350v-98h-350v98z" />
    <glyph glyph-name="uni0308.cap" 
d="M-113 769q-33 0 -53 21t-20 54t20 53.5t53 20.5t53 -20.5t20 -53.5t-20 -54t-53 -21zM113 769q-33 0 -53 21t-20 54t20 53.5t53 20.5t53 -20.5t20 -53.5t-20 -54t-53 -21z" />
    <glyph glyph-name="uni0306.cap" 
d="M0 852q35 0 50.5 16t17.5 50l96 -11q0 -64 -43.5 -101t-120.5 -37t-120.5 37t-43.5 101l96 11q2 -34 18 -50t50 -16z" />
    <glyph glyph-name="uni0307.cap" 
d="M0 765q-35 0 -56 21.5t-21 55.5q0 35 21 57t56 22t56 -22t21 -57q0 -34 -21 -55.5t-56 -21.5z" />
    <glyph glyph-name="uni030A.cap" 
d="M0 977q52 0 85 -30t33 -77q0 -46 -33 -76.5t-85 -30.5t-85 30.5t-33 76.5q0 47 33 77t85 30zM0 820q25 0 38.5 14t13.5 36q0 23 -13.5 36.5t-38.5 13.5t-38.5 -13.5t-13.5 -36.5q0 -22 13.5 -36t38.5 -14z" />
    <glyph glyph-name="dotbelowcomb.cap" 
d="M0 -221q-35 0 -56 21.5t-21 55.5q0 35 21 57t56 22t56 -22t21 -57q0 -34 -21 -55.5t-56 -21.5z" />
    <glyph glyph-name="uni0414.loclBGR" horiz-adv-x="674" 
d="M22 -170v304h62l171 566h167l171 -566h59v-304h-142v170h-346v-170h-142zM231 134h210l-104 399z" />
    <glyph glyph-name="uni041B.loclBGR" horiz-adv-x="605" 
d="M8 0l211 700h168l210 -700h-157l-139 531l-141 -531h-152z" />
    <glyph glyph-name="uni0424.loclBGR" horiz-adv-x="727" 
d="M289 -71v82q-124 18 -191 101t-67 237t67 238t191 102v82h149v-82q124 -18 191 -101.5t67 -238.5t-67 -237.5t-191 -100.5v-82h-149zM545 349q0 99 -28.5 152t-84.5 69v-439q56 16 84.5 68t28.5 150zM182 349q0 -99 28.5 -150.5t84.5 -67.5v439q-56 -17 -84.5 -69.5
t-28.5 -151.5z" />
    <glyph glyph-name="uni0431.loclMKDSRB" horiz-adv-x="502" 
d="M251 -13q-66 0 -116 30.5t-78 84.5t-28 126t26 124.5t81 91.5q-34 30 -51.5 62t-17.5 71q0 53 34 90t97 45q35 5 76.5 8t81.5 6t70 6l19 -116q-51 -5 -103.5 -7.5t-83.5 -6.5q-46 -6 -46 -38q0 -19 23.5 -36t75.5 -42q73 -35 117.5 -94t44.5 -157q0 -75 -27.5 -130.5
t-77.5 -86.5t-117 -31zM175 225q0 -52 20.5 -82t55.5 -30q36 0 56.5 33t20.5 89q0 48 -16.5 78.5t-54.5 50.5q-14 8 -27 15q-55 -55 -55 -154z" />
    <glyph glyph-name="uni0432.loclBGR" horiz-adv-x="485" 
d="M456 222q0 -108 -56 -171.5t-151 -63.5q-121 0 -170.5 90.5t-49.5 259.5v104q0 149 58.5 230.5t164.5 81.5q82 0 130.5 -50t48.5 -134q0 -50 -22.5 -90.5t-59.5 -68.5q107 -43 107 -188zM173 447v-11q17 2 34 3.5t32 2.5q27 11 40 34.5t13 65.5q0 41 -13 63.5t-39 22.5
q-32 0 -49.5 -40t-17.5 -141zM242 324q-31 0 -69 -5q1 -111 18.5 -159t57.5 -48q34 0 51 29t17 77q0 106 -75 106z" />
    <glyph glyph-name="uni0433.loclBGR" horiz-adv-x="407" 
d="M384 27q-38 -19 -81 -29.5t-83 -10.5q-88 0 -142.5 45.5t-54.5 120.5q0 53 22.5 83t61 47.5t85.5 30.5q23 6 36 17t13 34q0 28 -18 40.5t-50 12.5q-25 0 -52.5 -8.5t-57.5 -30.5l-21 114q35 23 73.5 31.5t77.5 8.5q85 0 136 -44t51 -116q0 -51 -21 -83t-55 -49.5
t-73 -26.5q-31 -7 -48 -20.5t-17 -37.5q0 -28 19.5 -41t48.5 -13q34 0 63.5 10t62.5 29z" />
    <glyph glyph-name="uni0434.loclBGR" horiz-adv-x="512" 
d="M62 -184l27 120q26 -19 58 -30t66 -11q60 0 85 31t25 102v43q-40 -71 -119 -71q-53 0 -92.5 33.5t-61 93.5t-21.5 140q0 78 22.5 138t63 94t94.5 34q88 0 127 -82l4 69h127v-477q0 -139 -60.5 -205.5t-186.5 -66.5q-45 0 -87.5 12.5t-70.5 32.5zM333 267q0 65 -20 102
t-60 37q-39 0 -58.5 -37t-19.5 -102q0 -66 19.5 -103t58.5 -37q40 0 60 36.5t20 103.5z" />
    <glyph glyph-name="uni0436.loclBGR" horiz-adv-x="735" 
d="M159 0h-153l131 276l-121 244h150l87 -196h45v416h139v-416h45l87 196h150l-121 -244l131 -276h-153l-94 205h-45v-205h-139v205h-45z" />
    <glyph glyph-name="uni0437.loclBGR" horiz-adv-x="401" 
d="M176 -229q-48 0 -93 10t-74 26l16 122q27 -14 56.5 -23t58.5 -9q105 0 105 101q0 45 -27.5 70.5t-74.5 25.5h-58v126h57q39 0 64 24.5t25 67.5q0 45 -25.5 70t-69.5 25q-29 0 -54 -9t-51 -23l-16 122q34 17 75 26.5t76 9.5q60 0 106.5 -24t73 -69t26.5 -109
q0 -121 -100 -167q114 -38 114 -179q0 -72 -28 -119.5t-75.5 -71t-106.5 -23.5z" />
    <glyph glyph-name="uni0438.loclBGR" horiz-adv-x="486" 
d="M314 0l-5 77q-16 -44 -48 -67t-76 -23q-144 0 -144 209v324h144v-300q0 -55 10.5 -78.5t40.5 -23.5q61 0 61 109v293h144v-520h-127z" />
    <glyph glyph-name="uni043A.loclBGR" horiz-adv-x="498" 
d="M190 0h-144v740h144v-416h46l96 196h150l-129 -244l139 -276h-153l-102 205h-47v-205z" />
    <glyph glyph-name="uni043B.loclBGR" horiz-adv-x="489" 
d="M155 0h-148l165 519h143l167 -519h-152l-87 350z" />
    <glyph glyph-name="uni043F.loclBGR" horiz-adv-x="492" 
d="M451 324v-324h-144v300q0 55 -11 78.5t-43 23.5q-64 0 -64 -109v-293h-144v520h127l5 -79q16 44 49 68t78 24q147 0 147 -209z" />
    <glyph glyph-name="uni0442.loclBGR" horiz-adv-x="732" 
d="M189 293v-293h-144v520h127l5 -76q15 43 47 66t75 23q93 0 124 -94q17 46 50 70t77 24q141 0 141 -209v-324h-144v300q0 55 -10 78.5t-38 23.5q-59 0 -59 -109v-293h-144v300q0 55 -10 78.5t-38 23.5q-59 0 -59 -109z" />
    <glyph glyph-name="uni0444.loclBGR" horiz-adv-x="657" 
d="M258 -216v208q-115 17 -172 88.5t-57 179.5t56 179.5t173 88.5v172h142v-172q117 -17 172.5 -89t55.5 -180q0 -107 -56.5 -178t-171.5 -89v-208h-142zM487 259q0 67 -25 105t-71 51v-310q53 14 74.5 53.5t21.5 100.5zM170 260q0 -62 21.5 -102t74.5 -53v310
q-96 -29 -96 -155z" />
    <glyph glyph-name="uni0446.loclBGR" horiz-adv-x="520" 
d="M382 -142v142h-68l-5 77q-16 -44 -48 -67t-76 -23q-144 0 -144 209v324h144v-300q0 -55 10.5 -78.5t40.5 -23.5q61 0 61 109v293h144v-401h70v-261h-129z" />
    <glyph glyph-name="uni0448.loclBGR" horiz-adv-x="734" 
d="M183 -13q-141 0 -141 209v324h144v-300q0 -55 10 -78.5t38 -23.5q59 0 59 109v293h144v-300q0 -55 10 -78.5t38 -23.5q59 0 59 109v293h144v-520h-127l-5 76q-15 -43 -47 -66t-75 -23q-93 0 -124 94q-17 -46 -50 -70t-77 -24z" />
    <glyph glyph-name="uni0449.loclBGR" horiz-adv-x="761" 
d="M183 -13q-141 0 -141 209v324h144v-300q0 -55 10 -78.5t38 -23.5q59 0 59 109v293h144v-300q0 -55 10 -78.5t38 -23.5q59 0 59 109v293h144v-401h64v-261h-129v142h-62l-5 76q-15 -43 -47 -66t-75 -23q-93 0 -124 94q-17 -46 -50 -70t-77 -24z" />
    <glyph glyph-name="uni044A.loclBGR" horiz-adv-x="542" 
d="M526 197q0 -96 -55 -153t-148 -57q-96 0 -151 59.5t-55 163.5v191h-110l14 119h240v-166q39 53 108 53q75 0 116 -55t41 -155zM261 197q0 -49 17 -77t46 -28q28 0 44 28.5t16 76.5q0 50 -15.5 77.5t-44.5 27.5q-30 0 -46.5 -27.5t-16.5 -77.5z" />
    <glyph glyph-name="uni044C.loclBGR" horiz-adv-x="472" 
d="M456 197q0 -96 -55.5 -153t-148.5 -57q-96 0 -151 59.5t-55 163.5v310h144v-166q39 53 108 53q75 0 116.5 -55t41.5 -155zM190 197q0 -49 17 -77t46 -28q28 0 44 28.5t16 76.5q0 50 -15.5 77.5t-44.5 27.5t-46 -27.5t-17 -77.5z" />
    <glyph glyph-name="uni044E.loclBGR" horiz-adv-x="705" 
d="M190 0h-144v740h144v-412h45q16 94 74 149.5t144 55.5q68 0 118 -34t77.5 -95.5t27.5 -143.5t-27.5 -143.5t-77.5 -95.5t-118 -34q-90 0 -149 60.5t-71 161.5h-43v-209zM453 114q39 0 58 38.5t19 107.5t-19 107.5t-58 38.5t-58 -38.5t-19 -107.5t19 -107.5t58 -38.5z" />
    <glyph glyph-name="uni045D.loclBGR" horiz-adv-x="486" 
d="M314 0l-5 77q-16 -44 -48 -67t-76 -23q-144 0 -144 209v324h144v-300q0 -55 10.5 -78.5t40.5 -23.5q61 0 61 109v293h144v-520h-127zM202 594l-139 156h160l107 -156h-128z" />
    <glyph glyph-name="uni0306.cyrl" 
d="M0 583q-69 0 -111.5 33.5t-52.5 121.5l116 15q2 -53 14.5 -71.5t33.5 -18.5t34 18.5t14 71.5l116 -15q-10 -88 -52.5 -121.5t-111.5 -33.5z" />
    <glyph glyph-name="uni0306.cyrl.cap" 
d="M177 891q-10 -76 -57.5 -109t-119.5 -33t-119 33t-58 109l122 15q2 -42 17 -58.5t38 -16.5t38 16.5t17 58.5z" />
    <glyph glyph-name="uni0439.loclBGR" horiz-adv-x="486" 
d="M314 0l-5 77q-16 -44 -48 -67t-76 -23q-144 0 -144 209v324h144v-300q0 -55 10.5 -78.5t40.5 -23.5q61 0 61 109v293h144v-520h-127zM241 591q-69 0 -111.5 33.5t-52.5 121.5l116 15q2 -53 14.5 -71.5t33.5 -18.5t34 18.5t14 71.5l116 -15q-10 -88 -52.5 -121.5
t-111.5 -33.5z" />
    <glyph glyph-name="acutecomb.grek" 
d="M-62 602l50 206h152l-91 -206h-111z" />
    <glyph glyph-name="acutecomb.grek.cap" 
d="M-71 458l34 242h159l-68 -242h-125z" />
    <glyph glyph-name="highdef" 
d="M0 1075l-25 50h50zM-25 -552l25 50l25 -50h-50z" />
    </font>
</defs>
</svg>
