<?xml version="1.0" standalone="no"?>
<!DOCTYPE svg PUBLIC "-//W3C//DTD SVG 1.1//EN" "http://www.w3.org/Graphics/SVG/1.1/DTD/svg11.dtd" >
<svg xmlns="http://www.w3.org/2000/svg" xmlns:xlink="http://www.w3.org/1999/xlink" version="1.1">
<metadata>
Created by FontForge 20170731 at Thu Nov  7 21:04:28 2019
 By Aleksey,,,
Copyright 2019 FedEx Corporation. This font may not be altered in any way without prior permission of the FedEx Corporation.
</metadata>
<defs>
<font id="FedExSans-Condensed" horiz-adv-x="0" >
  <font-face 
    font-family="FedEx Sans Cd"
    font-weight="400"
    font-stretch="condensed"
    units-per-em="1000"
    panose-1="2 11 6 6 2 2 3 2 2 4"
    ascent="740"
    descent="-260"
    x-height="512"
    cap-height="700"
    bbox="-175 -552 1068 1125"
    underline-thickness="76"
    underline-position="-222"
    unicode-range="U+000D-FFFD"
  />
<missing-glyph horiz-adv-x="500" 
d="M0 0v700h500v-700h-500zM87 654l162 -260l162 260h-324zM278 350l168 -268v536zM221 350l-167 266v-533zM249 305l-162 -259h324z" />
    <glyph glyph-name="uniFB00" unicode="ff" horiz-adv-x="604" 
d="M9 442l9 70h77v42q0 199 145 199q51 0 89 -23l-15 -73q-18 12 -32.5 16.5t-31.5 4.5q-37 0 -53 -26.5t-16 -87.5v-52h198v38q0 203 152 203q56 0 96 -24l-15 -73q-20 13 -36 17.5t-35 4.5q-41 0 -58.5 -27.5t-17.5 -90.5v-48h130v-70h-130v-442h-86v442h-198v-442h-86
v442h-86z" />
    <glyph glyph-name="uniFB01" unicode="fi" horiz-adv-x="524" 
d="M465 0h-86v442h-198v-442h-86v442h-86l9 70h77v42q0 199 145 199q51 0 89 -23l-15 -73q-18 12 -32.5 16.5t-31.5 4.5q-37 0 -53 -26.5t-16 -87.5v-52h284v-512zM422 617q-25 0 -41 16.5t-16 43.5t16 43.5t41 16.5q26 0 41.5 -16.5t15.5 -43.5t-15.5 -43.5t-41.5 -16.5z
" />
    <glyph glyph-name="uniFB02" unicode="fl" horiz-adv-x="524" 
d="M297 442h-116v-442h-86v442h-86l9 70h77v42q0 199 145 199q51 0 89 -23l-15 -73q-18 12 -32.5 16.5t-31.5 4.5q-37 0 -53 -26.5t-16 -87.5v-52h116v-70zM465 0h-86v740h86v-740z" />
    <glyph glyph-name="uniFB03" unicode="ffi" horiz-adv-x="808" 
d="M749 0h-86v442h-198v-442h-86v442h-198v-442h-86v442h-86l9 70h77v42q0 199 145 199q51 0 89 -23l-15 -73q-18 12 -32.5 16.5t-31.5 4.5q-37 0 -53 -26.5t-16 -87.5v-52h198v42q0 199 145 199q51 0 89 -23l-15 -73q-18 12 -32.5 16.5t-31.5 4.5q-37 0 -53 -26.5
t-16 -87.5v-52h284v-512zM706 617q-25 0 -41 16.5t-16 43.5t16 43.5t41 16.5q26 0 41.5 -16.5t15.5 -43.5t-15.5 -43.5t-41.5 -16.5z" />
    <glyph glyph-name="uniFB04" unicode="ffl" horiz-adv-x="808" 
d="M581 442h-116v-442h-86v442h-198v-442h-86v442h-86l9 70h77v42q0 199 145 199q51 0 89 -23l-15 -73q-18 12 -32.5 16.5t-31.5 4.5q-37 0 -53 -26.5t-16 -87.5v-52h198v42q0 199 145 199q51 0 89 -23l-15 -73q-18 12 -32.5 16.5t-31.5 4.5q-37 0 -53 -26.5t-16 -87.5v-52
h116v-70zM749 0h-86v740h86v-740z" />
    <glyph glyph-name="f_b" unicode="fb" horiz-adv-x="822" 
d="M297 442h-116v-442h-86v442h-86l9 70h77v42q0 199 145 199q51 0 89 -23l-15 -73q-18 12 -32.5 16.5t-31.5 4.5q-37 0 -53 -26.5t-16 -87.5v-52h116v-70zM597 -13q-99 0 -137 95l-3 -82h-78v740h86v-306q41 91 139 91q54 0 94.5 -34.5t63 -95t22.5 -139.5t-23.5 -139.5
t-65.5 -95t-98 -34.5zM578 62q56 0 86.5 52t30.5 142q0 89 -30 141.5t-86 52.5q-57 0 -88.5 -51.5t-31.5 -142.5q0 -90 31.5 -142t87.5 -52z" />
    <glyph glyph-name="f_h" unicode="fh" horiz-adv-x="795" 
d="M297 442h-116v-442h-86v442h-86l9 70h77v42q0 199 145 199q51 0 89 -23l-15 -73q-18 12 -32.5 16.5t-31.5 4.5q-37 0 -53 -26.5t-16 -87.5v-52h116v-70zM740 0h-86v295q0 80 -19 116.5t-67 36.5q-51 0 -77 -42t-26 -122v-284h-86v740h86v-297q36 82 126 82
q149 0 149 -215v-310z" />
    <glyph glyph-name="f_j" unicode="fj" horiz-adv-x="524" 
d="M465 -66q0 -83 -33.5 -123t-105.5 -40q-23 0 -44 5t-39 16l16 70q16 -10 29 -13.5t31 -3.5q34 0 47 23t13 76v498h-198v-442h-86v442h-86l9 70h77v42q0 199 145 199q51 0 89 -23l-15 -73q-18 12 -32.5 16.5t-31.5 4.5q-37 0 -53 -26.5t-16 -87.5v-52h284v-578zM422 617
q-25 0 -41 16.5t-16 43.5t16 43.5t41 16.5q26 0 41.5 -16.5t15.5 -43.5t-15.5 -43.5t-41.5 -16.5z" />
    <glyph glyph-name="f_k" unicode="fk" horiz-adv-x="775" 
d="M297 442h-116v-442h-86v442h-86l9 70h77v42q0 199 145 199q51 0 89 -23l-15 -73q-18 12 -32.5 16.5t-31.5 4.5q-37 0 -53 -26.5t-16 -87.5v-52h116v-70zM379 0v740h86v-471l186 243h98l-160 -202l178 -310h-98l-134 242l-70 -88v-154h-86z" />
    <glyph glyph-name="f_t" unicode="ft" horiz-adv-x="619" 
d="M9 442l9 70h77v42q0 199 145 199q51 0 89 -23l-15 -73q-18 12 -32.5 16.5t-31.5 4.5q-37 0 -53 -26.5t-16 -87.5v-52h194v167h86v-167h124v-70h-124v-274q0 -56 14 -79.5t48 -23.5q17 0 30 4t31 15l14 -71q-40 -23 -87 -23q-70 0 -103 40.5t-33 127.5v284h-194v-442h-86
v442h-86z" />
    <glyph glyph-name="f_f_b" unicode="ffb" horiz-adv-x="1106" 
d="M581 442h-116v-442h-86v442h-198v-442h-86v442h-86l9 70h77v42q0 199 145 199q51 0 89 -23l-15 -73q-18 12 -32.5 16.5t-31.5 4.5q-37 0 -53 -26.5t-16 -87.5v-52h198v42q0 199 145 199q51 0 89 -23l-15 -73q-18 12 -32.5 16.5t-31.5 4.5q-37 0 -53 -26.5t-16 -87.5v-52
h116v-70zM881 -13q-99 0 -137 95l-3 -82h-78v740h86v-306q41 91 139 91q54 0 94.5 -34.5t63 -95t22.5 -139.5t-23.5 -139.5t-65.5 -95t-98 -34.5zM862 62q56 0 86.5 52t30.5 142q0 89 -30 141.5t-86 52.5q-57 0 -88.5 -51.5t-31.5 -142.5q0 -90 31.5 -142t87.5 -52z" />
    <glyph glyph-name="f_f_h" unicode="ffh" horiz-adv-x="1079" 
d="M581 442h-116v-442h-86v442h-198v-442h-86v442h-86l9 70h77v42q0 199 145 199q51 0 89 -23l-15 -73q-18 12 -32.5 16.5t-31.5 4.5q-37 0 -53 -26.5t-16 -87.5v-52h198v42q0 199 145 199q51 0 89 -23l-15 -73q-18 12 -32.5 16.5t-31.5 4.5q-37 0 -53 -26.5t-16 -87.5v-52
h116v-70zM1024 0h-86v295q0 80 -19 116.5t-67 36.5q-51 0 -77 -42t-26 -122v-284h-86v740h86v-297q36 82 126 82q149 0 149 -215v-310z" />
    <glyph glyph-name="f_f_j" unicode="ffj" horiz-adv-x="808" 
d="M749 -66q0 -83 -33.5 -123t-105.5 -40q-23 0 -44 5t-39 16l16 70q16 -10 29 -13.5t31 -3.5q34 0 47 23t13 76v498h-198v-442h-86v442h-198v-442h-86v442h-86l9 70h77v42q0 199 145 199q51 0 89 -23l-15 -73q-18 12 -32.5 16.5t-31.5 4.5q-37 0 -53 -26.5t-16 -87.5v-52
h198v42q0 199 145 199q51 0 89 -23l-15 -73q-18 12 -32.5 16.5t-31.5 4.5q-37 0 -53 -26.5t-16 -87.5v-52h284v-578zM706 617q-25 0 -41 16.5t-16 43.5t16 43.5t41 16.5q26 0 41.5 -16.5t15.5 -43.5t-15.5 -43.5t-41.5 -16.5z" />
    <glyph glyph-name="f_f_k" unicode="ffk" horiz-adv-x="1059" 
d="M581 442h-116v-442h-86v442h-198v-442h-86v442h-86l9 70h77v42q0 199 145 199q51 0 89 -23l-15 -73q-18 12 -32.5 16.5t-31.5 4.5q-37 0 -53 -26.5t-16 -87.5v-52h198v42q0 199 145 199q51 0 89 -23l-15 -73q-18 12 -32.5 16.5t-31.5 4.5q-37 0 -53 -26.5t-16 -87.5v-52
h116v-70zM749 0h-86v740h86v-471l186 243h98l-160 -202l178 -310h-98l-134 242l-70 -88v-154z" />
    <glyph glyph-name="f_f_t" unicode="fft" horiz-adv-x="903" 
d="M329 730l-15 -73q-18 12 -32.5 16.5t-31.5 4.5q-37 0 -53 -26.5t-16 -87.5v-52h198v42q0 199 145 199q51 0 89 -23l-15 -73q-18 12 -32.5 16.5t-31.5 4.5q-37 0 -53 -26.5t-16 -87.5v-52h194v167h86v-167h124v-70h-124v-274q0 -56 14 -79.5t48 -23.5q17 0 30 4t31 15
l14 -71q-40 -23 -87 -23q-70 0 -103 40.5t-33 127.5v284h-194v-442h-86v442h-198v-442h-86v442h-86l9 70h77v42q0 199 145 199q51 0 89 -23z" />
    <glyph glyph-name=".notdef" horiz-adv-x="500" 
d="M0 0v700h500v-700h-500zM87 654l162 -260l162 260h-324zM278 350l168 -268v536zM221 350l-167 266v-533zM249 305l-162 -259h324z" />
    <glyph glyph-name="uni0000" 
 />
    <glyph glyph-name="uni0000" 
 />
    <glyph glyph-name="uni000D" unicode="&#xd;" horiz-adv-x="172" 
 />
    <glyph glyph-name="space" unicode=" " horiz-adv-x="172" 
 />
    <glyph glyph-name="exclam" unicode="!" horiz-adv-x="214" 
d="M154 700l-11 -496h-71l-11 496h93zM107 -8q-27 0 -43.5 17t-16.5 44q0 28 16.5 44.5t43.5 16.5t43.5 -16.5t16.5 -44.5q0 -27 -16.5 -44t-43.5 -17z" />
    <glyph glyph-name="quotedbl" unicode="&#x22;" horiz-adv-x="313" 
d="M117 447h-72l-8 253h88zM268 447h-72l-8 253h88z" />
    <glyph glyph-name="numbersign" unicode="#" horiz-adv-x="484" 
d="M58 0l27 182h-55v66h65l29 192h-71v66h81l27 178h66l-27 -178h135l25 178h66l-25 -178h53v-66h-63l-27 -192h67v-66h-76l-26 -182h-66l26 182h-138l-27 -182h-66zM161 248h137l27 192h-135z" />
    <glyph glyph-name="dollar" unicode="$" horiz-adv-x="484" 
d="M274 -110h-64v97q-104 6 -178 66l21 77q43 -34 79 -50t78 -18v249q-83 25 -122.5 72.5t-39.5 123.5q0 78 43.5 127.5t118.5 60.5v99h64v-97q86 -7 148 -61l-19 -74q-36 29 -65.5 43t-63.5 17v-239q83 -27 122 -75.5t39 -123.5q0 -80 -43 -131.5t-118 -63.5v-99zM134 516
q0 -47 16.5 -73t59.5 -45v221q-76 -19 -76 -103zM346 179q0 44 -15.5 70.5t-56.5 46.5v-229q72 21 72 112z" />
    <glyph glyph-name="percent" unicode="%" horiz-adv-x="722" 
d="M265 0h-75l267 684h75zM568 -8q-61 0 -93 52t-32 149t32 149t93 52q62 0 93.5 -52t31.5 -149t-31.5 -149t-93.5 -52zM568 50q57 0 57 143t-57 143t-57 -143t57 -143zM154 290q-61 0 -93 52t-32 149t32 149t93 52q62 0 93.5 -52t31.5 -149t-31.5 -149t-93.5 -52zM154 348
q57 0 57 143t-57 143t-57 -143t57 -143z" />
    <glyph glyph-name="ampersand" unicode="&#x26;" horiz-adv-x="587" 
d="M244 -14q-93 0 -147.5 50.5t-54.5 143.5q0 110 125 195q-41 57 -57.5 95.5t-16.5 77.5q0 77 43 121.5t117 44.5t114 -43.5t40 -116.5q0 -58 -32 -105t-102 -92l141 -177q26 69 27 174l83 -12q-4 -139 -57 -229l90 -113h-102l-38 50q-70 -64 -173 -64zM174 550
q0 -33 12 -64t48 -78q49 29 70.5 62.5t21.5 78.5q0 46 -18 70.5t-56 24.5t-58 -25t-20 -69zM133 186q0 -126 121 -126q72 0 117 49l-163 212q-40 -28 -57.5 -60.5t-17.5 -74.5z" />
    <glyph glyph-name="quotesingle" unicode="'" horiz-adv-x="162" 
d="M117 447h-72l-8 253h88z" />
    <glyph glyph-name="parenleft" unicode="(" horiz-adv-x="283" 
d="M42 292q0 145 43 265t125 208l56 -49q-65 -79 -98.5 -187t-33.5 -237t33.5 -237t98.5 -187l-56 -49q-82 89 -125 208.5t-43 264.5z" />
    <glyph glyph-name="parenright" unicode=")" horiz-adv-x="283" 
d="M241 292q0 -145 -42.5 -264.5t-125.5 -208.5l-56 49q65 79 98.5 187t33.5 237t-33.5 237t-98.5 187l56 49q83 -88 125.5 -208t42.5 -265z" />
    <glyph glyph-name="asterisk" unicode="*" horiz-adv-x="383" 
d="M110 368l-53 42l98 110l-128 38l25 65l116 -58l-10 135h67l-10 -135l116 58l25 -65l-127 -38l97 -110l-53 -42l-82 116z" />
    <glyph glyph-name="plus" unicode="+" horiz-adv-x="484" 
d="M203 132v173h-166v74h166v173h78v-173h166v-74h-166v-173h-78z" />
    <glyph glyph-name="comma" unicode="," horiz-adv-x="208" 
d="M27 -118q31 17 51.5 46.5t24.5 63.5h-1q-26 0 -43 16.5t-17 44.5t17 44.5t43 16.5q32 0 48 -21.5t16 -59.5q0 -64 -29 -115.5t-79 -77.5z" />
    <glyph glyph-name="hyphen" unicode="-" horiz-adv-x="314" 
d="M36 250v81h242v-81h-242z" />
    <glyph glyph-name="hyphen" unicode="&#x2011;" horiz-adv-x="314" 
d="M36 250v81h242v-81h-242z" />
    <glyph glyph-name="hyphen" unicode="&#x2010;" horiz-adv-x="314" 
d="M36 250v81h242v-81h-242z" />
    <glyph glyph-name="hyphen" unicode="&#xad;" horiz-adv-x="314" 
d="M36 250v81h242v-81h-242z" />
    <glyph glyph-name="period" unicode="." horiz-adv-x="208" 
d="M104 -8q-27 0 -43.5 17t-16.5 44q0 28 16.5 44.5t43.5 16.5t43.5 -16.5t16.5 -44.5q0 -27 -16.5 -44t-43.5 -17z" />
    <glyph glyph-name="slash" unicode="/" horiz-adv-x="368" 
d="M12 -156l253 896h91l-253 -896h-91z" />
    <glyph glyph-name="zero" unicode="0" horiz-adv-x="484" 
d="M242 -14q-101 0 -154 91t-53 265t53 265t154 91t154 -91t53 -265t-53 -265t-154 -91zM242 621q-60 0 -88 -69.5t-28 -209.5q0 -139 28 -209t88 -70t88 70t28 209q0 140 -28 209.5t-88 69.5z" />
    <glyph glyph-name="one" unicode="1" horiz-adv-x="484" 
d="M230 0v585l-107 -80l-43 61l160 118h78v-684h-88z" />
    <glyph glyph-name="two" unicode="2" horiz-adv-x="484" 
d="M46 632q75 66 173 66q92 0 144 -52t52 -144q0 -46 -13 -86.5t-44.5 -88t-87.5 -115.5q-23 -28 -53 -62t-68 -73h280l-10 -77h-373v65q51 56 91.5 102t69.5 84q45 59 70.5 99t36 74t10.5 73q0 62 -30 93t-84 31q-39 0 -73.5 -15.5t-63.5 -43.5z" />
    <glyph glyph-name="three" unicode="3" horiz-adv-x="484" 
d="M44 34l21 72q26 -22 61 -33.5t74 -11.5q63 0 98 35t35 96q0 128 -135 128h-68v71h64q62 0 95.5 32t33.5 92q0 51 -30 79.5t-84 28.5q-38 0 -72.5 -11.5t-59.5 -33.5l-21 69q29 24 71.5 37.5t90.5 13.5q90 0 142 -47.5t52 -129.5q0 -57 -29.5 -99.5t-83.5 -63.5
q58 -18 91.5 -62.5t33.5 -107.5q0 -95 -59.5 -148.5t-165.5 -53.5q-47 0 -88 13t-67 35z" />
    <glyph glyph-name="four" unicode="4" horiz-adv-x="484" 
d="M301 0v171h-273v68l267 445h90v-441h76l-9 -72h-67v-171h-84zM301 243v318l-191 -318h191z" />
    <glyph glyph-name="five" unicode="5" horiz-adv-x="484" 
d="M205 -14q-46 0 -89.5 13t-71.5 35l21 72q28 -21 63.5 -33t74.5 -12q67 0 102.5 37t35.5 105q0 139 -140 139q-56 0 -113 -17l-14 13l25 346h300l10 -78h-234l-14 -200q36 8 73 8q92 0 144.5 -56t52.5 -155q0 -102 -60.5 -159.5t-165.5 -57.5z" />
    <glyph glyph-name="six" unicode="6" horiz-adv-x="484" 
d="M252 -14q-104 0 -156.5 83t-52.5 244q0 120 30.5 206.5t88.5 132.5t138 46q70 0 129 -31l-24 -71q-26 14 -49 20t-53 6q-83 0 -126.5 -72.5t-47.5 -214.5q42 107 147 107q52 0 89.5 -28t58.5 -78t21 -115q0 -107 -52.5 -171t-140.5 -64zM252 60q52 0 78.5 41t26.5 115
q0 72 -26.5 113.5t-76.5 41.5t-78 -41.5t-28 -113.5t27.5 -114t76.5 -42z" />
    <glyph glyph-name="seven" unicode="7" horiz-adv-x="484" 
d="M125 0l222 606h-302l10 78h380v-73l-220 -611h-90z" />
    <glyph glyph-name="eight" unicode="8" horiz-adv-x="484" 
d="M242 -14q-64 0 -110 25.5t-70.5 69.5t-24.5 101q0 64 31 110.5t83 63.5q-46 19 -72 60.5t-26 96.5q0 58 24.5 99t67.5 63.5t97 22.5q55 0 97.5 -22.5t67 -63.5t24.5 -99q0 -55 -26 -96.5t-72 -60.5q52 -17 83 -63.5t31 -110.5q0 -57 -24.5 -101t-70 -69.5t-110.5 -25.5z
M242 390q50 0 77 31t27 86q0 56 -28 87.5t-76 31.5t-76 -31.5t-28 -87.5q0 -55 27.5 -86t76.5 -31zM242 59q56 0 86.5 34.5t30.5 94.5q0 61 -30.5 96t-86.5 35q-55 0 -86 -35t-31 -96q0 -60 31 -94.5t86 -34.5z" />
    <glyph glyph-name="nine" unicode="9" horiz-adv-x="484" 
d="M58 17l22 71q26 -13 49.5 -19.5t53.5 -6.5q83 0 125.5 73t46.5 214q-42 -107 -147 -107q-51 0 -89 28t-59 78t-21 115q0 107 52.5 171t140.5 64q104 0 156.5 -83t52.5 -244q0 -120 -30.5 -206.5t-87.5 -132.5t-138 -46q-69 0 -127 31zM230 313q50 0 78 41.5t28 113.5
t-27.5 114t-76.5 42q-52 0 -78.5 -41t-26.5 -115q0 -72 26.5 -113.5t76.5 -41.5z" />
    <glyph glyph-name="colon" unicode=":" horiz-adv-x="208" 
d="M104 -8q-27 0 -43.5 17t-16.5 44q0 28 16.5 44.5t43.5 16.5t43.5 -16.5t16.5 -44.5q0 -27 -16.5 -44t-43.5 -17zM104 398q-27 0 -43.5 17t-16.5 44q0 28 16.5 44.5t43.5 16.5t43.5 -16.5t16.5 -44.5q0 -27 -16.5 -44t-43.5 -17z" />
    <glyph glyph-name="semicolon" unicode=";" horiz-adv-x="208" 
d="M27 -118q31 17 51.5 46.5t24.5 63.5h-1q-26 0 -43 16.5t-17 44.5t17 44.5t43 16.5q32 0 48 -21.5t16 -59.5q0 -64 -29 -115.5t-79 -77.5zM104 398q-27 0 -43.5 17t-16.5 44q0 28 16.5 44.5t43.5 16.5t43.5 -16.5t16.5 -44.5q0 -27 -16.5 -44t-43.5 -17z" />
    <glyph glyph-name="less" unicode="&#x3c;" horiz-adv-x="484" 
d="M447 120l-410 186v72l410 186v-88l-326 -133l326 -133v-90z" />
    <glyph glyph-name="equal" unicode="=" horiz-adv-x="484" 
d="M37 185v74h410v-74h-410zM37 425v74h410v-74h-410z" />
    <glyph glyph-name="greater" unicode="&#x3e;" horiz-adv-x="484" 
d="M37 120v90l326 133l-326 133v88l410 -186v-72z" />
    <glyph glyph-name="question" unicode="?" horiz-adv-x="407" 
d="M212 226v-22h-79v22q0 49 17 86t57 75q38 35 55 67t17 73q0 115 -106 115q-34 0 -64.5 -12t-55.5 -33l-23 68q31 24 70.5 37.5t82.5 13.5q88 0 137 -49t49 -135q0 -58 -22 -100t-73 -88q-36 -32 -49 -59t-13 -59zM172 -8q-27 0 -43.5 17t-16.5 44q0 28 16.5 44.5
t43.5 16.5t43.5 -16.5t16.5 -44.5q0 -27 -16.5 -44t-43.5 -17z" />
    <glyph glyph-name="at" unicode="@" horiz-adv-x="809" 
d="M552 198q-2 -16 -3 -29t-1 -24q0 -35 10 -50t34 -15q44 0 71.5 64t27.5 167q0 158 -70 233.5t-186 75.5q-95 0 -166 -51.5t-110 -142.5t-39 -210q0 -171 72 -264.5t205 -93.5q47 0 91.5 11t79.5 31l17 -68q-38 -20 -91 -32t-105 -12q-109 0 -186.5 51t-119 146.5
t-41.5 228.5q0 105 29 192.5t82 151t125 98t158 34.5q100 0 174.5 -44.5t115.5 -128t41 -200.5q0 -90 -23 -157.5t-65 -105t-98 -37.5q-86 0 -97 93q-16 -44 -48.5 -68.5t-75.5 -24.5q-61 0 -96.5 53.5t-35.5 144.5q0 71 22.5 126.5t61.5 87.5t88 32q43 0 71.5 -26.5
t37.5 -72.5l15 86h62zM381 85q31 0 54.5 24t37.5 65.5t14 93.5q0 59 -20 92.5t-58 33.5q-31 0 -54 -24t-35 -64.5t-12 -90.5q0 -62 19 -96t54 -34z" />
    <glyph glyph-name="A" unicode="A" horiz-adv-x="565" 
d="M456 0l-56 189h-238l-57 -189h-94l224 700h95l224 -700h-98zM185 267h191l-95 320z" />
    <glyph glyph-name="B" unicode="B" horiz-adv-x="525" 
d="M489 201q0 -92 -53.5 -146.5t-145.5 -54.5h-222v700h204q88 0 138.5 -48.5t50.5 -131.5q0 -55 -30.5 -96t-81.5 -56q63 -7 101.5 -52t38.5 -115zM259 400q57 0 85 31.5t28 88.5q0 105 -111 105h-104v-225h102zM280 75q59 0 88.5 33t29.5 93q0 59 -31.5 92t-95.5 33h-114
v-251h123z" />
    <glyph glyph-name="C" unicode="C" horiz-adv-x="548" 
d="M42 346q0 113 36.5 196t103.5 128.5t158 45.5q45 0 88 -13.5t77 -36.5l-21 -79q-69 48 -143 48q-96 0 -150 -74.5t-54 -208.5q0 -138 53 -212.5t152 -74.5q71 0 150 50l20 -76q-36 -27 -81 -41t-94 -14q-91 0 -157.5 43t-102 124t-35.5 195z" />
    <glyph glyph-name="D" unicode="D" horiz-adv-x="601" 
d="M267 0h-199v700h199q90 0 155.5 -41t101 -119t35.5 -190t-35.5 -190t-101 -119t-155.5 -41zM258 79q100 0 153 66.5t53 204.5t-53 204.5t-153 66.5h-100v-542h100z" />
    <glyph glyph-name="E" unicode="E" horiz-adv-x="478" 
d="M68 0v700h357l10 -81h-276v-223h252v-81h-252v-234h292l-10 -81h-373z" />
    <glyph glyph-name="F" unicode="F" horiz-adv-x="454" 
d="M68 0v700h353l10 -81h-272v-235h245v-81h-245v-303h-91z" />
    <glyph glyph-name="G" unicode="G" horiz-adv-x="595" 
d="M540 32q-93 -48 -198 -48q-94 0 -161 43.5t-103 124.5t-36 194t38 196t108.5 128.5t165.5 45.5q47 0 93 -14t81 -38l-21 -79q-74 50 -152 50q-103 0 -160.5 -74.5t-57.5 -208.5q0 -138 55 -212.5t158 -74.5q54 0 104 18v214h-126v76h212v-341z" />
    <glyph glyph-name="H" unicode="H" horiz-adv-x="589" 
d="M68 0v700h91v-304h271v304h91v-700h-91v315h-271v-315h-91z" />
    <glyph glyph-name="I" unicode="I" horiz-adv-x="227" 
d="M68 0v700h91v-700h-91z" />
    <glyph glyph-name="J" unicode="J" horiz-adv-x="441" 
d="M167 -16q-41 0 -79.5 13t-60.5 32l20 76q50 -41 116 -41q70 0 96 46t26 157v433h91v-441q0 -142 -50 -208.5t-159 -66.5z" />
    <glyph glyph-name="K" unicode="K" horiz-adv-x="548" 
d="M68 0v700h91v-351l253 351h100l-217 -294l242 -406h-106l-191 332l-81 -110v-222h-91z" />
    <glyph glyph-name="L" unicode="L" horiz-adv-x="451" 
d="M68 0v700h91v-619h281l-10 -81h-362z" />
    <glyph glyph-name="M" unicode="M" horiz-adv-x="704" 
d="M68 0v700h114l173 -477l172 477h109v-700h-85v553l-160 -435h-78l-160 435v-553h-85z" />
    <glyph glyph-name="N" unicode="N" horiz-adv-x="588" 
d="M68 0v700h91l274 -533v533h87v-700h-87l-278 535v-535h-87z" />
    <glyph glyph-name="O" unicode="O" horiz-adv-x="646" 
d="M323 -16q-85 0 -148 45.5t-98 128t-35 192.5t35 192.5t98 128t148 45.5t148 -45.5t98 -128t35 -192.5t-35 -192.5t-98 -128t-148 -45.5zM323 65q90 0 138 76.5t48 208.5q0 131 -48 208t-138 77t-138 -77t-48 -208q0 -132 48 -208.5t138 -76.5z" />
    <glyph glyph-name="P" unicode="P" horiz-adv-x="493" 
d="M249 264h-91v-264h-90v700h181q97 0 153 -59t56 -159t-56 -159t-153 -59zM241 340q62 0 93.5 37.5t31.5 104.5q0 68 -31.5 105t-93.5 37h-83v-284h83z" />
    <glyph glyph-name="Q" unicode="Q" horiz-adv-x="646" 
d="M323 -16q-85 0 -148 45.5t-98 128t-35 192.5t35 192.5t98 128t148 45.5t148 -45.5t98 -128t35 -192.5q0 -80 -19 -146t-53 -114l88 -110l-60 -48l-82 103q-67 -51 -155 -51zM323 65q60 0 102 35l-110 138l60 48l98 -123q36 73 36 187q0 131 -48 208t-138 77t-138 -77
t-48 -208q0 -132 48 -208.5t138 -76.5z" />
    <glyph glyph-name="R" unicode="R" horiz-adv-x="523" 
d="M396 0l-127 277q-9 -1 -18 -1h-93v-276h-90v700h183q98 0 155.5 -57.5t57.5 -154.5q0 -66 -29.5 -115.5t-81.5 -73.5l143 -299h-100zM243 624h-85v-272h85q65 0 97 36t32 100q0 65 -32 100.5t-97 35.5z" />
    <glyph glyph-name="S" unicode="S" horiz-adv-x="478" 
d="M439 182q0 -90 -57.5 -144t-154.5 -54q-119 0 -202 68l22 81q48 -39 87 -55t88 -16q59 0 92 29.5t33 82.5q0 34 -9.5 60t-37 47t-80.5 38q-89 29 -131 78t-42 123q0 89 55.5 142.5t151.5 53.5q103 0 176 -62l-20 -79q-43 35 -77.5 49t-78.5 14q-56 0 -87 -28t-31 -81
q0 -34 11 -57.5t38.5 -41t77.5 -34.5q91 -30 133.5 -82t42.5 -132z" />
    <glyph glyph-name="T" unicode="T" horiz-adv-x="489" 
d="M199 0v619h-184v81h459v-81h-184v-619h-91z" />
    <glyph glyph-name="U" unicode="U" horiz-adv-x="581" 
d="M65 273v427h91v-419q0 -112 32 -164t102 -52q71 0 103 52t32 164v419h91v-427q0 -141 -58 -215t-171 -74q-222 0 -222 289z" />
    <glyph glyph-name="V" unicode="V" horiz-adv-x="555" 
d="M544 700l-219 -700h-95l-219 700h98l171 -586l170 586h94z" />
    <glyph glyph-name="W" unicode="W" horiz-adv-x="792" 
d="M522 0l-126 558l-126 -558h-95l-161 700h97l116 -566l125 566h93l124 -563l117 563h92l-161 -700h-95z" />
    <glyph glyph-name="X" unicode="X" horiz-adv-x="540" 
d="M11 0l207 364l-191 336h101l144 -266l143 266h98l-191 -336l207 -364h-101l-160 294l-159 -294h-98z" />
    <glyph glyph-name="Y" unicode="Y" horiz-adv-x="537" 
d="M223 0v287l-210 413h100l158 -333l158 333h95l-210 -413v-287h-91z" />
    <glyph glyph-name="Z" unicode="Z" horiz-adv-x="520" 
d="M42 0v75l330 545h-317l10 80h406v-75l-329 -545h340l-10 -80h-430z" />
    <glyph glyph-name="bracketleft" unicode="[" horiz-adv-x="281" 
d="M68 -156v896h187l9 -70h-110v-756h110l-9 -70h-187z" />
    <glyph glyph-name="backslash" unicode="\" horiz-adv-x="368" 
d="M356 -156h-91l-253 896h91z" />
    <glyph glyph-name="bracketright" unicode="]" horiz-adv-x="281" 
d="M213 -156h-187l-9 70h110v756h-110l9 70h187v-896z" />
    <glyph glyph-name="asciicircum" unicode="^" horiz-adv-x="484" 
d="M25 290l181 394h72l181 -394h-87l-132 304l-132 -304h-83z" />
    <glyph glyph-name="underscore" unicode="_" horiz-adv-x="390" 
d="M0 -145v74h390v-74h-390z" />
    <glyph glyph-name="grave" unicode="`" horiz-adv-x="380" 
d="M180 594l-122 153h99l99 -153h-76z" />
    <glyph glyph-name="a" unicode="a" horiz-adv-x="445" 
d="M390 328v-328h-77l-3 78q-34 -91 -136 -91q-64 0 -101.5 42t-37.5 113q0 87 57.5 130.5t176.5 45.5l36 1v4q0 69 -23 99t-79 30q-35 0 -63.5 -11t-62.5 -38l-19 70q35 28 74.5 40t79.5 12q178 0 178 -197zM119 145q0 -87 79 -87q54 0 80.5 40t26.5 116v43l-30 -1
q-84 -1 -120 -26.5t-36 -84.5z" />
    <glyph glyph-name="b" unicode="b" horiz-adv-x="502" 
d="M464 256q0 -79 -23.5 -139.5t-65.5 -95t-98 -34.5q-99 0 -137 95l-3 -82h-78v740h86v-306q41 91 139 91q54 0 94.5 -34.5t63 -95t22.5 -139.5zM139 256q0 -90 31.5 -142t87.5 -52t86.5 52t30.5 142q0 89 -30 141.5t-86 52.5q-57 0 -88.5 -51.5t-31.5 -142.5z" />
    <glyph glyph-name="c" unicode="c" horiz-adv-x="424" 
d="M38 253q0 81 27 142.5t78 95.5t122 34q32 0 64 -8.5t57 -25.5l-19 -72q-47 31 -99 31q-67 0 -104 -50.5t-37 -142.5q0 -94 36.5 -144.5t106.5 -50.5q24 0 49.5 8t52.5 25l19 -70q-26 -19 -60 -28.5t-69 -9.5q-106 0 -165 71t-59 195z" />
    <glyph glyph-name="d" unicode="d" horiz-adv-x="502" 
d="M443 0h-78l-3 88q-40 -101 -144 -101q-54 0 -94.5 34.5t-63 95.5t-22.5 139q0 79 23.5 139.5t65.5 95t98 34.5q92 0 132 -83v298h86v-740zM363 256q0 90 -31.5 142t-87.5 52t-86.5 -52t-30.5 -142q0 -89 30.5 -141.5t85.5 -52.5q57 0 88.5 51.5t31.5 142.5z" />
    <glyph glyph-name="e" unicode="e" horiz-adv-x="454" 
d="M419 253q0 -4 -0.5 -11t-1.5 -12h-294q6 -83 41 -126.5t100 -43.5q33 0 60.5 9.5t60.5 33.5l18 -71q-64 -45 -149 -45q-102 0 -159 72t-57 196q0 82 24.5 142.5t69 94t104.5 33.5q92 0 137.5 -70t45.5 -202zM234 454q-48 0 -76 -40.5t-33 -117.5h211q-4 81 -27.5 119.5
t-74.5 38.5z" />
    <glyph glyph-name="f" unicode="f" horiz-adv-x="320" 
d="M9 442l9 70h77v38q0 203 152 203q56 0 96 -24l-15 -73q-20 13 -36 17.5t-35 4.5q-41 0 -58.5 -27.5t-17.5 -90.5v-48h130v-70h-130v-442h-86v442h-86z" />
    <glyph glyph-name="g" unicode="g" horiz-adv-x="502" 
d="M70 -183l20 73q26 -20 59.5 -32.5t68.5 -12.5q76 0 107.5 47.5t31.5 151.5v43q-42 -87 -139 -87q-54 0 -94.5 33.5t-63 93t-22.5 136.5t23.5 136t65.5 92.5t98 33.5q99 0 137 -93l3 80h78v-459q0 -144 -54.5 -213t-170.5 -69q-43 0 -82.5 12.5t-65.5 33.5zM363 263
q0 86 -31.5 136.5t-87.5 50.5t-86.5 -50.5t-30.5 -136.5q0 -87 30.5 -137.5t85.5 -50.5q57 0 88.5 50t31.5 138z" />
    <glyph glyph-name="h" unicode="h" horiz-adv-x="475" 
d="M145 284v-284h-86v740h86v-297q36 82 126 82q149 0 149 -215v-310h-86v295q0 80 -19 116.5t-67 36.5q-51 0 -77 -42t-26 -122z" />
    <glyph glyph-name="i" unicode="i" horiz-adv-x="204" 
d="M102 617q-25 0 -41 16.5t-16 43.5t16 43.5t41 16.5q26 0 41.5 -16.5t15.5 -43.5t-15.5 -43.5t-41.5 -16.5zM59 0v512h86v-512h-86z" />
    <glyph glyph-name="j" unicode="j" horiz-adv-x="204" 
d="M102 617q-25 0 -41 16.5t-16 43.5t16 43.5t41 16.5q26 0 41.5 -16.5t15.5 -43.5t-15.5 -43.5t-41.5 -16.5zM-77 -208l16 70q16 -10 29 -13.5t31 -3.5q34 0 47 23t13 76v568h86v-578q0 -83 -33.5 -123t-105.5 -40q-23 0 -44 5t-39 16z" />
    <glyph glyph-name="k" unicode="k" horiz-adv-x="455" 
d="M59 0v740h86v-471l186 243h98l-160 -202l178 -310h-98l-134 242l-70 -88v-154h-86z" />
    <glyph glyph-name="l" unicode="l" horiz-adv-x="204" 
d="M59 0v740h86v-740h-86z" />
    <glyph glyph-name="m" unicode="m" horiz-adv-x="720" 
d="M145 284v-284h-86v512h78l3 -80q32 93 123 93q98 0 128 -105q32 105 132 105q142 0 142 -215v-310h-86v295q0 80 -17.5 116.5t-61.5 36.5q-47 0 -71 -42t-24 -122v-284h-86v295q0 80 -17.5 116.5t-61.5 36.5q-47 0 -71 -42t-24 -122z" />
    <glyph glyph-name="n" unicode="n" horiz-adv-x="475" 
d="M420 310v-310h-86v295q0 80 -19 116.5t-67 36.5q-51 0 -77 -42t-26 -122v-284h-86v512h78l3 -82q33 95 131 95q149 0 149 -215z" />
    <glyph glyph-name="o" unicode="o" horiz-adv-x="490" 
d="M245 -13q-62 0 -109 33.5t-72.5 94.5t-25.5 141q0 81 25.5 141.5t72.5 94t109 33.5q63 0 109.5 -33.5t72 -94t25.5 -141.5q0 -80 -25.5 -141t-72 -94.5t-109.5 -33.5zM245 62q57 0 87.5 52t30.5 142q0 89 -30.5 141.5t-87.5 52.5t-87.5 -52.5t-30.5 -141.5
q0 -90 30.5 -142t87.5 -52z" />
    <glyph glyph-name="p" unicode="p" horiz-adv-x="502" 
d="M277 -13q-92 0 -132 83v-286h-86v728h78l3 -88q40 101 144 101q54 0 94.5 -34.5t63 -95t22.5 -139.5t-23.5 -139.5t-65.5 -95t-98 -34.5zM139 256q0 -90 31.5 -142t87.5 -52t86.5 52t30.5 142q0 89 -30 141.5t-86 52.5q-57 0 -88.5 -51.5t-31.5 -142.5z" />
    <glyph glyph-name="q" unicode="q" horiz-adv-x="502" 
d="M443 512v-728h-86v292q-42 -89 -139 -89q-54 0 -94.5 34.5t-63 95.5t-22.5 139q0 79 23.5 139.5t65.5 95t98 34.5q99 0 137 -95l3 82h78zM363 256q0 90 -31.5 142t-87.5 52t-86.5 -52t-30.5 -142q0 -89 30.5 -141.5t85.5 -52.5q57 0 88.5 51.5t31.5 142.5z" />
    <glyph glyph-name="r" unicode="r" horiz-adv-x="322" 
d="M145 269v-269h-86v512h78l3 -93q15 50 46.5 76.5t76.5 26.5q31 0 50 -13l-8 -82q-23 14 -49 14q-55 0 -83 -45t-28 -127z" />
    <glyph glyph-name="s" unicode="s" horiz-adv-x="383" 
d="M173 -13q-90 0 -153 49l21 73q36 -28 65 -39t65 -11q44 0 68 19.5t24 53.5q0 33 -17 55t-73 38q-70 20 -102.5 58t-32.5 93q0 68 45.5 108.5t124.5 40.5q80 0 135 -45l-20 -72q-31 25 -57 35t-58 10q-41 0 -63.5 -18t-22.5 -52q0 -33 17.5 -51t69.5 -34q73 -22 107 -61.5
t34 -98.5q0 -69 -48.5 -110t-128.5 -41z" />
    <glyph glyph-name="t" unicode="t" horiz-adv-x="339" 
d="M318 13q-40 -23 -87 -23q-70 0 -103 40.5t-33 127.5v284h-86l9 70h77v167h86v-167h124v-70h-124v-274q0 -56 14 -79.5t48 -23.5q17 0 30 4t31 15z" />
    <glyph glyph-name="u" unicode="u" horiz-adv-x="469" 
d="M332 0l-3 82q-33 -95 -128 -95q-146 0 -146 215v310h86v-295q0 -79 18.5 -116t64.5 -37q50 0 75 42t25 122v284h86v-512h-78z" />
    <glyph glyph-name="v" unicode="v" horiz-adv-x="440" 
d="M432 512l-167 -512h-90l-167 512h95l119 -408l120 408h90z" />
    <glyph glyph-name="w" unicode="w" horiz-adv-x="648" 
d="M143 0l-132 512h88l93 -411l89 411h88l89 -407l93 407h86l-132 -512h-90l-91 406l-91 -406h-90z" />
    <glyph glyph-name="x" unicode="x" horiz-adv-x="450" 
d="M18 0l161 263l-155 249h99l104 -182l106 182h93l-153 -246l159 -266h-99l-109 198l-113 -198h-93z" />
    <glyph glyph-name="y" unicode="y" horiz-adv-x="442" 
d="M24 -212l11 71q18 -13 50 -13q24 0 37.5 11t25.5 39t29 80l3 10l-172 526h95l119 -409l122 409h90l-178 -546q-23 -71 -45 -114t-50.5 -62t-72.5 -19q-41 0 -64 17z" />
    <glyph glyph-name="z" unicode="z" horiz-adv-x="416" 
d="M38 0v66l242 376h-238l9 70h320v-66l-241 -376h251l-9 -70h-334z" />
    <glyph glyph-name="braceleft" unicode="{" horiz-adv-x="270" 
d="M253 -86l-9 -70h-41q-64 0 -100.5 40.5t-36.5 113.5q0 37 5 64.5t9.5 52t4.5 51.5q0 93 -64 93v66q64 0 64 93q0 28 -4.5 52t-9.5 51.5t-5 64.5q0 73 36.5 113.5t100.5 40.5h41l9 -70h-27q-40 0 -57 -22.5t-17 -79.5q0 -49 9.5 -87.5t9.5 -82.5q0 -38 -21 -67t-55 -39
q34 -10 55 -39t21 -67q0 -43 -9.5 -82t-9.5 -88q0 -57 17 -79.5t57 -22.5h27z" />
    <glyph glyph-name="bar" unicode="|" horiz-adv-x="234" 
d="M74 -216v956h86v-956h-86z" />
    <glyph glyph-name="braceright" unicode="}" horiz-adv-x="270" 
d="M204 -2q0 -73 -36.5 -113.5t-100.5 -40.5h-41l-9 70h27q41 0 57.5 22.5t16.5 79.5q0 49 -9.5 88t-9.5 82q0 38 21 67t55 39q-34 10 -55 39t-21 67q0 44 9.5 82.5t9.5 87.5q0 57 -16.5 79.5t-57.5 22.5h-27l9 70h41q64 0 100.5 -40.5t36.5 -113.5q0 -37 -4.5 -64.5
t-9.5 -51.5t-5 -52q0 -93 64 -93v-66q-64 0 -64 -93q0 -27 5 -51.5t9.5 -52t4.5 -64.5z" />
    <glyph glyph-name="asciitilde" unicode="~" horiz-adv-x="484" 
d="M229 305q-30 26 -45 38.5t-24 16.5t-20 4q-23 0 -32 -26.5t-11 -91.5l-72 11q5 101 30.5 141t84.5 40q28 0 53 -13.5t62 -46.5l45 -37.5t24 -16.5t20 -4q23 0 32 27t11 91l72 -11q-4 -100 -30 -140.5t-85 -40.5q-28 0 -53 13t-62 46z" />
    <glyph glyph-name="uni00A0" unicode="&#xa0;" horiz-adv-x="172" 
 />
    <glyph glyph-name="exclamdown" unicode="&#xa1;" horiz-adv-x="214" 
d="M107 398q-27 0 -43.5 16.5t-16.5 44.5q0 27 16.5 44t43.5 17t43.5 -17t16.5 -44q0 -28 -16.5 -44.5t-43.5 -16.5zM153 -188h-93l11 496h71z" />
    <glyph glyph-name="cent" unicode="&#xa2;" horiz-adv-x="484" 
d="M234 -35h-63l23 135q-65 26 -100.5 89.5t-35.5 157.5q0 81 27.5 141t78 93.5t119.5 35.5l20 118h63l-21 -124q42 -10 74 -30l-19 -72q-33 21 -67 28l-64 -377q12 -2 24 -2q53 0 111 35l19 -70q-28 -19 -63 -29.5t-73 -10.5q-17 0 -32 2zM147 351q0 -123 63 -169l61 359
q-59 -8 -91.5 -57t-32.5 -133z" />
    <glyph glyph-name="sterling" unicode="&#xa3;" horiz-adv-x="484" 
d="M351 320h-147q4 -18 6 -36t2 -36q0 -109 -66 -171h302l-10 -77h-380v65q35 29 51.5 70.5t16.5 103.5q0 20 -2.5 40.5t-6.5 40.5h-74v67h60q-5 25 -9 51.5t-4 53.5q0 97 54.5 151.5t148.5 54.5q85 0 144 -46l-20 -76q-33 26 -59.5 35.5t-61.5 9.5q-117 0 -117 -136
q0 -25 3.5 -49.5t7.5 -48.5h161v-67z" />
    <glyph glyph-name="currency" unicode="&#xa4;" horiz-adv-x="484" 
d="M464 132l-52 -46l-81 90q-40 -20 -89 -20q-48 0 -88 20l-82 -90l-52 46l80 86q-22 24 -33.5 55.5t-11.5 68.5t11.5 68.5t33.5 55.5l-80 86l52 46l82 -90q40 20 88 20q49 0 89 -20l81 90l52 -46l-79 -86q21 -24 32.5 -55.5t11.5 -68.5t-11.5 -68.5t-32.5 -55.5zM242 227
q49 0 79 32t30 83q0 50 -30 82.5t-79 32.5q-48 0 -78 -32.5t-30 -82.5q0 -51 30 -83t78 -32z" />
    <glyph glyph-name="yen" unicode="&#xa5;" horiz-adv-x="484" 
d="M286 0h-88v116h-137v67h137v90h-137v67h104l-170 344h101l148 -330l148 330h97l-170 -344h105v-67h-138v-90h138v-67h-138v-116z" />
    <glyph glyph-name="brokenbar" unicode="&#xa6;" horiz-adv-x="234" 
d="M74 363v377h86v-377h-86zM74 -216v396h86v-396h-86z" />
    <glyph glyph-name="section" unicode="&#xa7;" horiz-adv-x="428" 
d="M375 -8q0 -74 -48.5 -118t-128.5 -44q-92 0 -154 50l21 71q36 -28 65.5 -39t65.5 -11q44 0 68.5 22.5t24.5 62.5q0 34 -14.5 55.5t-53.5 40.5l-75 38q-62 32 -86.5 66t-24.5 89q0 99 95 150q-39 27 -55 59t-16 75q0 72 45.5 114.5t124.5 42.5q38 0 73 -11.5t63 -34.5
l-20 -70q-31 25 -57.5 35t-58.5 10q-42 0 -64.5 -21t-22.5 -59q0 -33 14.5 -52.5t57.5 -42.5l71 -37q62 -32 86 -66t24 -90q0 -97 -90 -148q37 -27 53.5 -59t16.5 -78zM119 289q0 -37 14 -57t55 -41l65 -33q58 36 58 105q0 38 -13 58.5t-53 40.5l-65 33q-61 -36 -61 -106z
" />
    <glyph glyph-name="dieresis" unicode="&#xa8;" horiz-adv-x="380" 
d="M98 618q-23 0 -37.5 15t-14.5 38q0 24 14.5 38.5t37.5 14.5t37.5 -14.5t14.5 -38.5q0 -23 -14.5 -38t-37.5 -15zM282 618q-23 0 -37.5 15t-14.5 38q0 24 14.5 38.5t37.5 14.5t37.5 -14.5t14.5 -38.5q0 -23 -14.5 -38t-37.5 -15z" />
    <glyph glyph-name="copyright" unicode="&#xa9;" horiz-adv-x="682" 
d="M341 -16q-90 0 -157.5 46t-104.5 128.5t-37 191.5t37 191t104.5 128.5t157.5 46.5q91 0 158 -46.5t104 -128.5t37 -191q0 -108 -37 -190.5t-104 -129t-158 -46.5zM341 47q72 0 124 37.5t80.5 105.5t28.5 161t-28.5 161t-80.5 105.5t-124 37.5q-71 0 -123.5 -37.5
t-81 -105.5t-28.5 -161q0 -92 28.5 -160.5t81 -106t123.5 -37.5zM269 351q0 -70 27 -107.5t79 -37.5q37 0 75 26l17 -63q-20 -15 -46.5 -22.5t-53.5 -7.5q-83 0 -130 56t-47 153q0 95 47.5 154t132.5 59q24 0 49 -7t44 -20l-17 -64q-34 24 -73 24q-49 0 -76.5 -37.5
t-27.5 -105.5z" />
    <glyph glyph-name="ordfeminine" unicode="&#xaa;" horiz-adv-x="342" 
d="M30 424q0 65 42 96.5t130 33.5l26 1v3q0 50 -16.5 71.5t-56.5 21.5q-26 0 -47.5 -8t-47.5 -28l-12 53q26 21 55 30t58 9q133 0 133 -145v-244h-60l-2 55q-26 -65 -99 -65q-47 0 -75 31.5t-28 84.5zM95 426q0 -64 56 -64q39 0 58 30t19 85v31l-22 -1q-60 -1 -85.5 -19.5
t-25.5 -61.5z" />
    <glyph glyph-name="guillemotleft" unicode="&#xab;" horiz-adv-x="457" 
d="M148 52l-112 210l112 210h86l-107 -210l107 -210h-86zM331 52l-112 210l112 210h86l-107 -210l107 -210h-86z" />
    <glyph glyph-name="logicalnot" unicode="&#xac;" horiz-adv-x="484" 
d="M37 422h410v-255h-78v181h-332v74z" />
    <glyph glyph-name="registered" unicode="&#xae;" horiz-adv-x="406" 
d="M203 306q-76 0 -121.5 56t-45.5 149t45.5 149t121.5 56q77 0 122 -56t45 -149t-45 -149t-122 -56zM203 345q60 0 92.5 44t32.5 122q0 77 -32.5 121.5t-92.5 44.5t-92.5 -44.5t-32.5 -121.5q0 -78 32.5 -122t92.5 -44zM178 407h-42v207h67q33 0 52 -18t19 -48
q0 -38 -29 -56l40 -85h-47l-32 74h-3h-25v-74zM178 516h21q33 0 33 32q0 31 -33 31h-21v-63z" />
    <glyph glyph-name="macron" unicode="&#xaf;" horiz-adv-x="380" 
d="M57 703h266v-63h-266v63z" />
    <glyph glyph-name="degree" unicode="&#xb0;" horiz-adv-x="393" 
d="M196 698q49 0 85.5 -20.5t57.5 -57t21 -83.5t-21 -83.5t-57.5 -57t-85.5 -20.5q-48 0 -84.5 20.5t-57.5 57t-21 83.5t21 83.5t57.5 57t84.5 20.5zM196 436q43 0 68 28t25 73q0 46 -25 73.5t-68 27.5q-42 0 -67 -27.5t-25 -73.5q0 -45 25 -73t67 -28z" />
    <glyph glyph-name="plusminus" unicode="&#xb1;" horiz-adv-x="484" 
d="M37 0v74h410v-74h-410zM203 164v173h-166v74h166v173h78v-173h166v-74h-166v-173h-78z" />
    <glyph glyph-name="uni00B2" unicode="&#xb2;" horiz-adv-x="308" 
d="M267 445l-7 -57h-225v48q29 29 51.5 53t38.5 44q37 46 51 71.5t14 56.5q0 63 -60 63q-42 0 -76 -32l-19 52q21 19 47.5 28.5t54.5 9.5q58 0 89.5 -31t31.5 -86q0 -24 -7.5 -46t-24.5 -47.5t-48 -62.5q-11 -13 -25.5 -29.5t-32.5 -34.5h147z" />
    <glyph glyph-name="uni00B3" unicode="&#xb3;" horiz-adv-x="308" 
d="M34 408l14 51q34 -24 83 -24q32 0 50 16.5t18 45.5q0 61 -67 61h-42v55h39q31 0 48 16t17 45q0 25 -16 39t-44 14q-48 0 -79 -25l-14 50q39 30 100 30q53 0 84.5 -28t31.5 -75q0 -65 -60 -89q31 -11 49 -36t18 -60q0 -54 -36 -84t-98 -30q-29 0 -54 7.5t-42 20.5z" />
    <glyph glyph-name="acute" unicode="&#xb4;" horiz-adv-x="380" 
d="M200 594h-76l99 153h99z" />
    <glyph glyph-name="paragraph" unicode="&#xb6;" horiz-adv-x="512" 
d="M30 502q0 95 53 146.5t148 51.5h213v-847h-82v776h-80v-776h-82v452q-82 9 -126 60t-44 137z" />
    <glyph glyph-name="periodcentered" unicode="&#xb7;" horiz-adv-x="208" 
d="M104 193q-27 0 -43.5 17t-16.5 44q0 28 16.5 44.5t43.5 16.5t43.5 -16.5t16.5 -44.5q0 -27 -16.5 -44t-43.5 -17z" />
    <glyph glyph-name="cedilla" unicode="&#xb8;" horiz-adv-x="380" 
d="M108 -213l14 48q25 -13 57 -13q21 0 35 9.5t14 28.5q0 35 -48 35q-19 0 -37 -5l25 125h50l-16 -76h4q41 0 63 -21.5t22 -59.5q0 -41 -28 -64t-78 -23q-25 0 -42.5 4t-34.5 12z" />
    <glyph glyph-name="uni00B9" unicode="&#xb9;" horiz-adv-x="308" 
d="M208 388h-66v311l-65 -47l-32 49l104 73h59v-386z" />
    <glyph glyph-name="ordmasculine" unicode="&#xba;" horiz-adv-x="374" 
d="M187 308q-70 0 -112.5 55t-42.5 145q0 89 42.5 144t112.5 55q71 0 113 -55t42 -144q0 -90 -42 -145t-113 -55zM187 366q41 0 63.5 38t22.5 104q0 65 -22.5 103t-63.5 38t-63.5 -38t-22.5 -103q0 -66 22.5 -104t63.5 -38z" />
    <glyph glyph-name="guillemotright" unicode="&#xbb;" horiz-adv-x="457" 
d="M126 52h-86l107 210l-107 210h86l112 -210zM309 52h-86l107 210l-107 210h86l112 -210z" />
    <glyph glyph-name="onequarter" unicode="&#xbc;" horiz-adv-x="722" 
d="M265 0h-75l267 684h75zM657 0h-62v84h-161v53l157 249h66v-246h44l-7 -56h-37v-84zM595 140v163l-102 -163h102zM208 298h-66v311l-65 -47l-32 49l104 73h59v-386z" />
    <glyph glyph-name="onehalf" unicode="&#xbd;" horiz-adv-x="722" 
d="M245 0h-75l267 684h75zM681 57l-7 -57h-225v48q29 29 51.5 53t38.5 44q37 46 51 71.5t14 56.5q0 63 -60 63q-42 0 -76 -32l-19 52q21 19 47.5 28.5t54.5 9.5q58 0 89.5 -31t31.5 -86q0 -24 -7.5 -46t-24.5 -47.5t-48 -62.5q-11 -13 -25.5 -29.5t-32.5 -34.5h147zM208 298
h-66v311l-65 -47l-32 49l104 73h59v-386z" />
    <glyph glyph-name="threequarters" unicode="&#xbe;" horiz-adv-x="722" 
d="M285 0h-75l267 684h75zM657 0h-62v84h-161v53l157 249h66v-246h44l-7 -56h-37v-84zM595 140v163l-102 -163h102zM34 318l14 51q34 -24 83 -24q32 0 50 16.5t18 45.5q0 61 -67 61h-42v55h39q31 0 48 16t17 45q0 25 -16 39t-44 14q-48 0 -79 -25l-14 50q39 30 100 30
q53 0 84.5 -28t31.5 -75q0 -65 -60 -89q31 -11 49 -36t18 -60q0 -54 -36 -84t-98 -30q-29 0 -54 7.5t-42 20.5z" />
    <glyph glyph-name="questiondown" unicode="&#xbf;" horiz-adv-x="407" 
d="M235 398q-27 0 -43.5 16.5t-16.5 44.5q0 27 16.5 44t43.5 17t43.5 -17t16.5 -44q0 -28 -16.5 -44.5t-43.5 -16.5zM195 286v22h79v-22q0 -49 -16.5 -86t-57.5 -75q-38 -35 -55 -67t-17 -73q0 -115 106 -115q34 0 64.5 12t55.5 33l23 -68q-31 -24 -70 -37.5t-83 -13.5
q-88 0 -137 49t-49 135q0 59 22 100.5t73 87.5q36 32 49 59t13 59z" />
    <glyph glyph-name="Agrave" unicode="&#xc0;" horiz-adv-x="565" 
d="M456 0l-56 189h-238l-57 -189h-94l224 700h95l224 -700h-98zM185 267h191l-95 320zM270 772l-141 127h113l118 -127h-90z" />
    <glyph glyph-name="Aacute" unicode="&#xc1;" horiz-adv-x="565" 
d="M456 0l-56 189h-238l-57 -189h-94l224 700h95l224 -700h-98zM185 267h191l-95 320zM296 772h-90l118 127h113z" />
    <glyph glyph-name="Acircumflex" unicode="&#xc2;" horiz-adv-x="565" 
d="M456 0l-56 189h-238l-57 -189h-94l224 700h95l224 -700h-98zM185 267h191l-95 320zM207 772h-83l115 127h88l115 -127h-85l-75 75z" />
    <glyph glyph-name="Atilde" unicode="&#xc3;" horiz-adv-x="565" 
d="M456 0l-56 189h-238l-57 -189h-94l224 700h95l224 -700h-98zM185 267h191l-95 320zM441 890q-3 -118 -93 -118q-44 0 -80 36q-17 17 -25.5 23t-19.5 6q-34 0 -34 -65l-64 9q3 118 94 118q44 0 80 -36q17 -17 26 -23t19 -6q33 0 33 65z" />
    <glyph glyph-name="Adieresis" unicode="&#xc4;" horiz-adv-x="565" 
d="M456 0l-56 189h-238l-57 -189h-94l224 700h95l224 -700h-98zM185 267h191l-95 320zM184 780q-24 0 -38.5 15t-14.5 39q0 25 14.5 39.5t38.5 14.5t38.5 -14.5t14.5 -39.5q0 -24 -14.5 -39t-38.5 -15zM382 780q-24 0 -38.5 15t-14.5 39q0 25 14.5 39.5t38.5 14.5
t38.5 -14.5t14.5 -39.5q0 -24 -14.5 -39t-38.5 -15z" />
    <glyph glyph-name="Aring" unicode="&#xc5;" horiz-adv-x="565" 
d="M456 0l-56 189h-238l-57 -189h-94l224 700h95l224 -700h-98zM185 267h191l-95 320zM283 965q48 0 79 -28.5t31 -72.5t-31 -72.5t-79 -28.5q-49 0 -79.5 28.5t-30.5 72.5t30.5 72.5t79.5 28.5zM283 808q26 0 42 15.5t16 40.5t-16 40.5t-42 15.5t-42 -15.5t-16 -40.5
t16 -40.5t42 -15.5z" />
    <glyph glyph-name="AE" unicode="&#xc6;" horiz-adv-x="818" 
d="M419 0v189h-224l-85 -189h-99l326 700h429l10 -81h-266v-223h242v-81h-242v-234h281l-9 -81h-363zM419 619h-31l-158 -352h189v352z" />
    <glyph glyph-name="Ccedilla" unicode="&#xc7;" horiz-adv-x="548" 
d="M42 346q0 113 36.5 196t103.5 128.5t158 45.5q45 0 88 -13.5t77 -36.5l-21 -79q-69 48 -143 48q-96 0 -150 -74.5t-54 -208.5q0 -138 53 -212.5t152 -74.5q71 0 150 50l20 -76q-36 -27 -81 -41t-94 -14q-91 0 -157.5 43t-102 124t-35.5 195zM332 -229q-48 0 -81 17l14 50
q25 -14 61 -14q22 0 36.5 9t14.5 27q0 34 -50 34q-20 0 -38 -5l25 126h52l-16 -75h3q43 0 66 -21.5t23 -60.5q0 -41 -29.5 -64t-80.5 -23z" />
    <glyph glyph-name="Egrave" unicode="&#xc8;" horiz-adv-x="478" 
d="M68 0v700h357l10 -81h-276v-223h252v-81h-252v-234h292l-10 -81h-373zM246 772l-141 127h113l118 -127h-90z" />
    <glyph glyph-name="Eacute" unicode="&#xc9;" horiz-adv-x="478" 
d="M68 0v700h357l10 -81h-276v-223h252v-81h-252v-234h292l-10 -81h-373zM272 772h-90l118 127h113z" />
    <glyph glyph-name="Ecircumflex" unicode="&#xca;" horiz-adv-x="478" 
d="M68 0v700h357l10 -81h-276v-223h252v-81h-252v-234h292l-10 -81h-373zM183 772h-83l115 127h88l115 -127h-85l-75 75z" />
    <glyph glyph-name="Edieresis" unicode="&#xcb;" horiz-adv-x="478" 
d="M68 0v700h357l10 -81h-276v-223h252v-81h-252v-234h292l-10 -81h-373zM160 780q-24 0 -38.5 15t-14.5 39q0 25 14.5 39.5t38.5 14.5t38.5 -14.5t14.5 -39.5q0 -24 -14.5 -39t-38.5 -15zM358 780q-24 0 -38.5 15t-14.5 39q0 25 14.5 39.5t38.5 14.5t38.5 -14.5t14.5 -39.5
q0 -24 -14.5 -39t-38.5 -15z" />
    <glyph glyph-name="Igrave" unicode="&#xcc;" horiz-adv-x="227" 
d="M68 0v700h91v-700h-91zM101 772l-141 127h113l118 -127h-90z" />
    <glyph glyph-name="Iacute" unicode="&#xcd;" horiz-adv-x="227" 
d="M68 0v700h91v-700h-91zM127 772h-90l118 127h113z" />
    <glyph glyph-name="Icircumflex" unicode="&#xce;" horiz-adv-x="227" 
d="M68 0v700h91v-700h-91zM38 772h-83l115 127h88l115 -127h-85l-75 75z" />
    <glyph glyph-name="Idieresis" unicode="&#xcf;" horiz-adv-x="227" 
d="M68 0v700h91v-700h-91zM15 780q-24 0 -38.5 15t-14.5 39q0 25 14.5 39.5t38.5 14.5t38.5 -14.5t14.5 -39.5q0 -24 -14.5 -39t-38.5 -15zM213 780q-24 0 -38.5 15t-14.5 39q0 25 14.5 39.5t38.5 14.5t38.5 -14.5t14.5 -39.5q0 -24 -14.5 -39t-38.5 -15z" />
    <glyph glyph-name="Eth" unicode="&#xd0;" horiz-adv-x="614" 
d="M280 0h-199v328h-66v75h66v297h199q90 0 155.5 -41t101 -119t35.5 -190t-35.5 -190t-101 -119t-155.5 -41zM271 79q100 0 153 66.5t53 204.5t-53 204.5t-153 66.5h-100v-218h146v-75h-146v-249h100z" />
    <glyph glyph-name="Ntilde" unicode="&#xd1;" horiz-adv-x="588" 
d="M68 0v700h91l274 -533v533h87v-700h-87l-278 535v-535h-87zM460 890q-3 -118 -93 -118q-44 0 -80 36q-17 17 -25.5 23t-19.5 6q-34 0 -34 -65l-64 9q3 118 94 118q44 0 80 -36q17 -17 26 -23t19 -6q33 0 33 65z" />
    <glyph glyph-name="Ograve" unicode="&#xd2;" horiz-adv-x="646" 
d="M323 -16q-85 0 -148 45.5t-98 128t-35 192.5t35 192.5t98 128t148 45.5t148 -45.5t98 -128t35 -192.5t-35 -192.5t-98 -128t-148 -45.5zM323 65q90 0 138 76.5t48 208.5q0 131 -48 208t-138 77t-138 -77t-48 -208q0 -132 48 -208.5t138 -76.5zM310 772l-141 127h113
l118 -127h-90z" />
    <glyph glyph-name="Oacute" unicode="&#xd3;" horiz-adv-x="646" 
d="M323 -16q-85 0 -148 45.5t-98 128t-35 192.5t35 192.5t98 128t148 45.5t148 -45.5t98 -128t35 -192.5t-35 -192.5t-98 -128t-148 -45.5zM323 65q90 0 138 76.5t48 208.5q0 131 -48 208t-138 77t-138 -77t-48 -208q0 -132 48 -208.5t138 -76.5zM336 772h-90l118 127h113z
" />
    <glyph glyph-name="Ocircumflex" unicode="&#xd4;" horiz-adv-x="646" 
d="M323 -16q-85 0 -148 45.5t-98 128t-35 192.5t35 192.5t98 128t148 45.5t148 -45.5t98 -128t35 -192.5t-35 -192.5t-98 -128t-148 -45.5zM323 65q90 0 138 76.5t48 208.5q0 131 -48 208t-138 77t-138 -77t-48 -208q0 -132 48 -208.5t138 -76.5zM247 772h-83l115 127h88
l115 -127h-85l-75 75z" />
    <glyph glyph-name="Otilde" unicode="&#xd5;" horiz-adv-x="646" 
d="M323 -16q-85 0 -148 45.5t-98 128t-35 192.5t35 192.5t98 128t148 45.5t148 -45.5t98 -128t35 -192.5t-35 -192.5t-98 -128t-148 -45.5zM323 65q90 0 138 76.5t48 208.5q0 131 -48 208t-138 77t-138 -77t-48 -208q0 -132 48 -208.5t138 -76.5zM481 890q-3 -118 -93 -118
q-44 0 -80 36q-17 17 -25.5 23t-19.5 6q-34 0 -34 -65l-64 9q3 118 94 118q44 0 80 -36q17 -17 26 -23t19 -6q33 0 33 65z" />
    <glyph glyph-name="Odieresis" unicode="&#xd6;" horiz-adv-x="646" 
d="M323 -16q-85 0 -148 45.5t-98 128t-35 192.5t35 192.5t98 128t148 45.5t148 -45.5t98 -128t35 -192.5t-35 -192.5t-98 -128t-148 -45.5zM323 65q90 0 138 76.5t48 208.5q0 131 -48 208t-138 77t-138 -77t-48 -208q0 -132 48 -208.5t138 -76.5zM224 780q-24 0 -38.5 15
t-14.5 39q0 25 14.5 39.5t38.5 14.5t38.5 -14.5t14.5 -39.5q0 -24 -14.5 -39t-38.5 -15zM422 780q-24 0 -38.5 15t-14.5 39q0 25 14.5 39.5t38.5 14.5t38.5 -14.5t14.5 -39.5q0 -24 -14.5 -39t-38.5 -15z" />
    <glyph glyph-name="multiply" unicode="&#xd7;" horiz-adv-x="484" 
d="M378 153l-136 137l-136 -137l-53 53l137 136l-137 136l53 53l136 -137l136 137l53 -53l-137 -136l137 -136z" />
    <glyph glyph-name="Oslash" unicode="&#xd8;" horiz-adv-x="646" 
d="M323 -16q-85 0 -149 47l-45 -74l-62 39l52 88q-37 48 -57 115.5t-20 150.5q0 110 35 192.5t98 128t148 45.5t150 -47l44 74l62 -39l-53 -87q38 -48 58 -116t20 -151q0 -110 -35 -192.5t-98 -128t-148 -45.5zM137 350q0 -111 34 -183l258 429q-43 39 -106 39
q-90 0 -138 -77t-48 -208zM323 65q90 0 138 76.5t48 208.5q0 111 -34 183l-258 -429q43 -39 106 -39z" />
    <glyph glyph-name="Ugrave" unicode="&#xd9;" horiz-adv-x="581" 
d="M65 273v427h91v-419q0 -112 32 -164t102 -52q71 0 103 52t32 164v419h91v-427q0 -141 -58 -215t-171 -74q-222 0 -222 289zM278 772l-141 127h113l118 -127h-90z" />
    <glyph glyph-name="Uacute" unicode="&#xda;" horiz-adv-x="581" 
d="M65 273v427h91v-419q0 -112 32 -164t102 -52q71 0 103 52t32 164v419h91v-427q0 -141 -58 -215t-171 -74q-222 0 -222 289zM304 772h-90l118 127h113z" />
    <glyph glyph-name="Ucircumflex" unicode="&#xdb;" horiz-adv-x="581" 
d="M65 273v427h91v-419q0 -112 32 -164t102 -52q71 0 103 52t32 164v419h91v-427q0 -141 -58 -215t-171 -74q-222 0 -222 289zM215 772h-83l115 127h88l115 -127h-85l-75 75z" />
    <glyph glyph-name="Udieresis" unicode="&#xdc;" horiz-adv-x="581" 
d="M65 273v427h91v-419q0 -112 32 -164t102 -52q71 0 103 52t32 164v419h91v-427q0 -141 -58 -215t-171 -74q-222 0 -222 289zM192 780q-24 0 -38.5 15t-14.5 39q0 25 14.5 39.5t38.5 14.5t38.5 -14.5t14.5 -39.5q0 -24 -14.5 -39t-38.5 -15zM390 780q-24 0 -38.5 15
t-14.5 39q0 25 14.5 39.5t38.5 14.5t38.5 -14.5t14.5 -39.5q0 -24 -14.5 -39t-38.5 -15z" />
    <glyph glyph-name="Yacute" unicode="&#xdd;" horiz-adv-x="537" 
d="M223 0v287l-210 413h100l158 -333l158 333h95l-210 -413v-287h-91zM286 772h-90l118 127h113z" />
    <glyph glyph-name="Thorn" unicode="&#xde;" horiz-adv-x="493" 
d="M158 700v-126h91q97 0 153 -59t56 -159t-56 -159t-153 -59h-91v-138h-90v700h90zM241 214q62 0 93.5 37.5t31.5 104.5q0 68 -31.5 105t-93.5 37h-83v-284h83z" />
    <glyph glyph-name="germandbls" unicode="&#xdf;" horiz-adv-x="505" 
d="M283 -13q-33 0 -57 5.5t-46 16.5l20 73q31 -20 78 -20q102 0 102 136q0 141 -129 141h-30v70h20q51 0 78 36t27 104q0 129 -98 129q-52 0 -79 -40t-27 -114v-524h-86v520q0 110 51.5 171.5t143.5 61.5q86 0 134 -52.5t48 -143.5q0 -64 -26 -109t-71 -65q64 -16 98.5 -64
t34.5 -123q0 -97 -49 -153t-137 -56z" />
    <glyph glyph-name="agrave" unicode="&#xe0;" horiz-adv-x="445" 
d="M390 328v-328h-77l-3 78q-34 -91 -136 -91q-64 0 -101.5 42t-37.5 113q0 87 57.5 130.5t176.5 45.5l36 1v4q0 69 -23 99t-79 30q-35 0 -63.5 -11t-62.5 -38l-19 70q35 28 74.5 40t79.5 12q178 0 178 -197zM119 145q0 -87 79 -87q54 0 80.5 40t26.5 116v43l-30 -1
q-84 -1 -120 -26.5t-36 -84.5zM204 594l-122 153h99l99 -153h-76z" />
    <glyph glyph-name="aacute" unicode="&#xe1;" horiz-adv-x="445" 
d="M390 328v-328h-77l-3 78q-34 -91 -136 -91q-64 0 -101.5 42t-37.5 113q0 87 57.5 130.5t176.5 45.5l36 1v4q0 69 -23 99t-79 30q-35 0 -63.5 -11t-62.5 -38l-19 70q35 28 74.5 40t79.5 12q178 0 178 -197zM119 145q0 -87 79 -87q54 0 80.5 40t26.5 116v43l-30 -1
q-84 -1 -120 -26.5t-36 -84.5zM224 594h-76l99 153h99z" />
    <glyph glyph-name="acircumflex" unicode="&#xe2;" horiz-adv-x="445" 
d="M390 328v-328h-77l-3 78q-34 -91 -136 -91q-64 0 -101.5 42t-37.5 113q0 87 57.5 130.5t176.5 45.5l36 1v4q0 69 -23 99t-79 30q-35 0 -63.5 -11t-62.5 -38l-19 70q35 28 74.5 40t79.5 12q178 0 178 -197zM119 145q0 -87 79 -87q54 0 80.5 40t26.5 116v43l-30 -1
q-84 -1 -120 -26.5t-36 -84.5zM146 594h-74l102 153h80l102 -153h-76l-67 93z" />
    <glyph glyph-name="atilde" unicode="&#xe3;" horiz-adv-x="445" 
d="M390 328v-328h-77l-3 78q-34 -91 -136 -91q-64 0 -101.5 42t-37.5 113q0 87 57.5 130.5t176.5 45.5l36 1v4q0 69 -23 99t-79 30q-35 0 -63.5 -11t-62.5 -38l-19 70q35 28 74.5 40t79.5 12q178 0 178 -197zM119 145q0 -87 79 -87q54 0 80.5 40t26.5 116v43l-30 -1
q-84 -1 -120 -26.5t-36 -84.5zM62 607q3 136 90 136q24 0 40.5 -10t35.5 -34q20 -25 28 -32t18 -7q16 0 23 19.5t7 63.5l62 -9q-3 -136 -90 -136q-24 0 -40.5 10t-35.5 34q-19 25 -27.5 32t-18.5 7q-16 0 -23 -19.5t-7 -63.5z" />
    <glyph glyph-name="adieresis" unicode="&#xe4;" horiz-adv-x="445" 
d="M390 328v-328h-77l-3 78q-34 -91 -136 -91q-64 0 -101.5 42t-37.5 113q0 87 57.5 130.5t176.5 45.5l36 1v4q0 69 -23 99t-79 30q-35 0 -63.5 -11t-62.5 -38l-19 70q35 28 74.5 40t79.5 12q178 0 178 -197zM119 145q0 -87 79 -87q54 0 80.5 40t26.5 116v43l-30 -1
q-84 -1 -120 -26.5t-36 -84.5zM122 618q-23 0 -37.5 15t-14.5 38q0 24 14.5 38.5t37.5 14.5t37.5 -14.5t14.5 -38.5q0 -23 -14.5 -38t-37.5 -15zM306 618q-23 0 -37.5 15t-14.5 38q0 24 14.5 38.5t37.5 14.5t37.5 -14.5t14.5 -38.5q0 -23 -14.5 -38t-37.5 -15z" />
    <glyph glyph-name="aring" unicode="&#xe5;" horiz-adv-x="445" 
d="M390 328v-328h-77l-3 78q-34 -91 -136 -91q-64 0 -101.5 42t-37.5 113q0 87 57.5 130.5t176.5 45.5l36 1v4q0 69 -23 99t-79 30q-35 0 -63.5 -11t-62.5 -38l-19 70q35 28 74.5 40t79.5 12q178 0 178 -197zM119 145q0 -87 79 -87q54 0 80.5 40t26.5 116v43l-30 -1
q-84 -1 -120 -26.5t-36 -84.5zM214 788q45 0 74.5 -28.5t29.5 -72.5q0 -43 -29.5 -72t-74.5 -29q-46 0 -75 29t-29 72q0 44 29 72.5t75 28.5zM214 629q24 0 39 16.5t15 41.5q0 26 -15 42t-39 16t-39 -16t-15 -42q0 -25 15 -41.5t39 -16.5z" />
    <glyph glyph-name="ae" unicode="&#xe6;" horiz-adv-x="708" 
d="M657 32q-62 -45 -146 -45q-64 0 -108.5 33t-65.5 93q-16 -59 -60 -92.5t-106 -33.5q-61 0 -98.5 40.5t-37.5 107.5q0 83 54 122.5t169 41.5l41 1v23q0 69 -22.5 99t-76.5 30q-34 0 -62 -11t-61 -38l-19 70q34 28 73 40t78 12q106 0 143 -87q22 42 58 64.5t83 22.5
q90 0 135 -69.5t45 -200.5q0 -4 -0.5 -11t-1.5 -12h-288q4 -84 39 -128t99 -44q32 0 59 9.5t59 33.5zM491 454q-92 0 -106 -156h205q-5 80 -27.5 118t-71.5 38zM119 138q0 -37 20 -58.5t56 -21.5q50 0 77 40t27 115v25l-35 -1q-78 -1 -111.5 -24t-33.5 -75z" />
    <glyph glyph-name="ccedilla" unicode="&#xe7;" horiz-adv-x="424" 
d="M38 253q0 81 27 142.5t78 95.5t122 34q32 0 64 -8.5t57 -25.5l-19 -72q-47 31 -99 31q-67 0 -104 -50.5t-37 -142.5q0 -94 36.5 -144.5t106.5 -50.5q24 0 49.5 8t52.5 25l19 -70q-26 -19 -60 -28.5t-69 -9.5q-106 0 -165 71t-59 195zM180 -213l14 48q25 -13 57 -13
q21 0 35 9.5t14 28.5q0 35 -48 35q-19 0 -37 -5l25 125h50l-16 -76h4q41 0 63 -21.5t22 -59.5q0 -41 -28 -64t-78 -23q-25 0 -42.5 4t-34.5 12z" />
    <glyph glyph-name="egrave" unicode="&#xe8;" horiz-adv-x="454" 
d="M419 253q0 -4 -0.5 -11t-1.5 -12h-294q6 -83 41 -126.5t100 -43.5q33 0 60.5 9.5t60.5 33.5l18 -71q-64 -45 -149 -45q-102 0 -159 72t-57 196q0 82 24.5 142.5t69 94t104.5 33.5q92 0 137.5 -70t45.5 -202zM234 454q-48 0 -76 -40.5t-33 -117.5h211q-4 81 -27.5 119.5
t-74.5 38.5zM226 594l-122 153h99l99 -153h-76z" />
    <glyph glyph-name="eacute" unicode="&#xe9;" horiz-adv-x="454" 
d="M419 253q0 -4 -0.5 -11t-1.5 -12h-294q6 -83 41 -126.5t100 -43.5q33 0 60.5 9.5t60.5 33.5l18 -71q-64 -45 -149 -45q-102 0 -159 72t-57 196q0 82 24.5 142.5t69 94t104.5 33.5q92 0 137.5 -70t45.5 -202zM234 454q-48 0 -76 -40.5t-33 -117.5h211q-4 81 -27.5 119.5
t-74.5 38.5zM246 594h-76l99 153h99z" />
    <glyph glyph-name="ecircumflex" unicode="&#xea;" horiz-adv-x="454" 
d="M419 253q0 -4 -0.5 -11t-1.5 -12h-294q6 -83 41 -126.5t100 -43.5q33 0 60.5 9.5t60.5 33.5l18 -71q-64 -45 -149 -45q-102 0 -159 72t-57 196q0 82 24.5 142.5t69 94t104.5 33.5q92 0 137.5 -70t45.5 -202zM234 454q-48 0 -76 -40.5t-33 -117.5h211q-4 81 -27.5 119.5
t-74.5 38.5zM168 594h-74l102 153h80l102 -153h-76l-67 93z" />
    <glyph glyph-name="edieresis" unicode="&#xeb;" horiz-adv-x="454" 
d="M419 253q0 -4 -0.5 -11t-1.5 -12h-294q6 -83 41 -126.5t100 -43.5q33 0 60.5 9.5t60.5 33.5l18 -71q-64 -45 -149 -45q-102 0 -159 72t-57 196q0 82 24.5 142.5t69 94t104.5 33.5q92 0 137.5 -70t45.5 -202zM234 454q-48 0 -76 -40.5t-33 -117.5h211q-4 81 -27.5 119.5
t-74.5 38.5zM144 618q-23 0 -37.5 15t-14.5 38q0 24 14.5 38.5t37.5 14.5t37.5 -14.5t14.5 -38.5q0 -23 -14.5 -38t-37.5 -15zM328 618q-23 0 -37.5 15t-14.5 38q0 24 14.5 38.5t37.5 14.5t37.5 -14.5t14.5 -38.5q0 -23 -14.5 -38t-37.5 -15z" />
    <glyph glyph-name="igrave" unicode="&#xec;" horiz-adv-x="204" 
d="M59 0v512h86v-512h-86zM92 594l-122 153h99l99 -153h-76z" />
    <glyph glyph-name="iacute" unicode="&#xed;" horiz-adv-x="204" 
d="M59 0v512h86v-512h-86zM112 594h-76l99 153h99z" />
    <glyph glyph-name="icircumflex" unicode="&#xee;" horiz-adv-x="204" 
d="M59 0v512h86v-512h-86zM34 594h-74l102 153h80l102 -153h-76l-67 93z" />
    <glyph glyph-name="idieresis" unicode="&#xef;" horiz-adv-x="204" 
d="M59 0v512h86v-512h-86zM10 618q-23 0 -37.5 15t-14.5 38q0 24 14.5 38.5t37.5 14.5t37.5 -14.5t14.5 -38.5q0 -23 -14.5 -38t-37.5 -15zM194 618q-23 0 -37.5 15t-14.5 38q0 24 14.5 38.5t37.5 14.5t37.5 -14.5t14.5 -38.5q0 -23 -14.5 -38t-37.5 -15z" />
    <glyph glyph-name="eth" unicode="&#xf0;" horiz-adv-x="490" 
d="M421 679l-92 -45q59 -81 91 -177.5t32 -195.5q0 -83 -25 -145t-71.5 -95.5t-110.5 -33.5q-96 0 -151.5 68t-55.5 183q0 74 23.5 130.5t66 88.5t97.5 32q42 0 73.5 -20.5t50.5 -57.5q-24 101 -88 189l-125 -62l-28 59l110 54q-31 33 -68 63l67 39q38 -30 71 -67l105 52z
M245 61q57 0 87.5 47.5t30.5 129.5t-30.5 129.5t-87.5 47.5t-87.5 -47.5t-30.5 -129.5t30.5 -129.5t87.5 -47.5z" />
    <glyph glyph-name="ntilde" unicode="&#xf1;" horiz-adv-x="475" 
d="M420 310v-310h-86v295q0 80 -19 116.5t-67 36.5q-51 0 -77 -42t-26 -122v-284h-86v512h78l3 -82q33 95 131 95q149 0 149 -215zM96 607q3 136 90 136q24 0 40.5 -10t35.5 -34q20 -25 28 -32t18 -7q16 0 23 19.5t7 63.5l62 -9q-3 -136 -90 -136q-24 0 -40.5 10t-35.5 34
q-19 25 -27.5 32t-18.5 7q-16 0 -23 -19.5t-7 -63.5z" />
    <glyph glyph-name="ograve" unicode="&#xf2;" horiz-adv-x="490" 
d="M245 -13q-62 0 -109 33.5t-72.5 94.5t-25.5 141q0 81 25.5 141.5t72.5 94t109 33.5q63 0 109.5 -33.5t72 -94t25.5 -141.5q0 -80 -25.5 -141t-72 -94.5t-109.5 -33.5zM245 62q57 0 87.5 52t30.5 142q0 89 -30.5 141.5t-87.5 52.5t-87.5 -52.5t-30.5 -141.5
q0 -90 30.5 -142t87.5 -52zM235 594l-122 153h99l99 -153h-76z" />
    <glyph glyph-name="oacute" unicode="&#xf3;" horiz-adv-x="490" 
d="M245 -13q-62 0 -109 33.5t-72.5 94.5t-25.5 141q0 81 25.5 141.5t72.5 94t109 33.5q63 0 109.5 -33.5t72 -94t25.5 -141.5q0 -80 -25.5 -141t-72 -94.5t-109.5 -33.5zM245 62q57 0 87.5 52t30.5 142q0 89 -30.5 141.5t-87.5 52.5t-87.5 -52.5t-30.5 -141.5
q0 -90 30.5 -142t87.5 -52zM255 594h-76l99 153h99z" />
    <glyph glyph-name="ocircumflex" unicode="&#xf4;" horiz-adv-x="490" 
d="M245 -13q-62 0 -109 33.5t-72.5 94.5t-25.5 141q0 81 25.5 141.5t72.5 94t109 33.5q63 0 109.5 -33.5t72 -94t25.5 -141.5q0 -80 -25.5 -141t-72 -94.5t-109.5 -33.5zM245 62q57 0 87.5 52t30.5 142q0 89 -30.5 141.5t-87.5 52.5t-87.5 -52.5t-30.5 -141.5
q0 -90 30.5 -142t87.5 -52zM177 594h-74l102 153h80l102 -153h-76l-67 93z" />
    <glyph glyph-name="otilde" unicode="&#xf5;" horiz-adv-x="490" 
d="M245 -13q-62 0 -109 33.5t-72.5 94.5t-25.5 141q0 81 25.5 141.5t72.5 94t109 33.5q63 0 109.5 -33.5t72 -94t25.5 -141.5q0 -80 -25.5 -141t-72 -94.5t-109.5 -33.5zM245 62q57 0 87.5 52t30.5 142q0 89 -30.5 141.5t-87.5 52.5t-87.5 -52.5t-30.5 -141.5
q0 -90 30.5 -142t87.5 -52zM93 607q3 136 90 136q24 0 40.5 -10t35.5 -34q20 -25 28 -32t18 -7q16 0 23 19.5t7 63.5l62 -9q-3 -136 -90 -136q-24 0 -40.5 10t-35.5 34q-19 25 -27.5 32t-18.5 7q-16 0 -23 -19.5t-7 -63.5z" />
    <glyph glyph-name="odieresis" unicode="&#xf6;" horiz-adv-x="490" 
d="M245 -13q-62 0 -109 33.5t-72.5 94.5t-25.5 141q0 81 25.5 141.5t72.5 94t109 33.5q63 0 109.5 -33.5t72 -94t25.5 -141.5q0 -80 -25.5 -141t-72 -94.5t-109.5 -33.5zM245 62q57 0 87.5 52t30.5 142q0 89 -30.5 141.5t-87.5 52.5t-87.5 -52.5t-30.5 -141.5
q0 -90 30.5 -142t87.5 -52zM153 618q-23 0 -37.5 15t-14.5 38q0 24 14.5 38.5t37.5 14.5t37.5 -14.5t14.5 -38.5q0 -23 -14.5 -38t-37.5 -15zM337 618q-23 0 -37.5 15t-14.5 38q0 24 14.5 38.5t37.5 14.5t37.5 -14.5t14.5 -38.5q0 -23 -14.5 -38t-37.5 -15z" />
    <glyph glyph-name="divide" unicode="&#xf7;" horiz-adv-x="484" 
d="M242 467q-27 0 -43 16.5t-16 43.5t16 43.5t43 16.5t43 -16.5t16 -43.5t-16 -43.5t-43 -16.5zM447 305h-410v74h410v-74zM242 97q-27 0 -43 16.5t-16 43.5t16 43.5t43 16.5t43 -16.5t16 -43.5t-16 -43.5t-43 -16.5z" />
    <glyph glyph-name="oslash" unicode="&#xf8;" horiz-adv-x="490" 
d="M245 -13q-60 0 -107 32l-32 -54l-51 34l38 64q-26 35 -40.5 84t-14.5 109q0 81 25.5 141.5t72.5 94t109 33.5q60 0 106 -32l32 54l52 -34l-38 -64q26 -35 40.5 -84t14.5 -109q0 -80 -25.5 -141t-72 -94.5t-109.5 -33.5zM127 256q0 -66 16 -111l168 280q-27 25 -66 25
q-57 0 -87.5 -52.5t-30.5 -141.5zM245 62q57 0 87.5 52t30.5 142q0 65 -16 111l-168 -279q27 -26 66 -26z" />
    <glyph glyph-name="ugrave" unicode="&#xf9;" horiz-adv-x="469" 
d="M332 0l-3 82q-33 -95 -128 -95q-146 0 -146 215v310h86v-295q0 -79 18.5 -116t64.5 -37q50 0 75 42t25 122v284h86v-512h-78zM223 594l-122 153h99l99 -153h-76z" />
    <glyph glyph-name="uacute" unicode="&#xfa;" horiz-adv-x="469" 
d="M332 0l-3 82q-33 -95 -128 -95q-146 0 -146 215v310h86v-295q0 -79 18.5 -116t64.5 -37q50 0 75 42t25 122v284h86v-512h-78zM243 594h-76l99 153h99z" />
    <glyph glyph-name="ucircumflex" unicode="&#xfb;" horiz-adv-x="469" 
d="M332 0l-3 82q-33 -95 -128 -95q-146 0 -146 215v310h86v-295q0 -79 18.5 -116t64.5 -37q50 0 75 42t25 122v284h86v-512h-78zM165 594h-74l102 153h80l102 -153h-76l-67 93z" />
    <glyph glyph-name="udieresis" unicode="&#xfc;" horiz-adv-x="469" 
d="M332 0l-3 82q-33 -95 -128 -95q-146 0 -146 215v310h86v-295q0 -79 18.5 -116t64.5 -37q50 0 75 42t25 122v284h86v-512h-78zM141 618q-23 0 -37.5 15t-14.5 38q0 24 14.5 38.5t37.5 14.5t37.5 -14.5t14.5 -38.5q0 -23 -14.5 -38t-37.5 -15zM325 618q-23 0 -37.5 15
t-14.5 38q0 24 14.5 38.5t37.5 14.5t37.5 -14.5t14.5 -38.5q0 -23 -14.5 -38t-37.5 -15z" />
    <glyph glyph-name="yacute" unicode="&#xfd;" horiz-adv-x="442" 
d="M24 -212l11 71q18 -13 50 -13q24 0 37.5 11t25.5 39t29 80l3 10l-172 526h95l119 -409l122 409h90l-178 -546q-23 -71 -45 -114t-50.5 -62t-72.5 -19q-41 0 -64 17zM231 594h-76l99 153h99z" />
    <glyph glyph-name="thorn" unicode="&#xfe;" horiz-adv-x="502" 
d="M277 -13q-92 0 -132 83v-286h-86v956h86v-304q42 89 139 89q54 0 94.5 -34.5t63 -95t22.5 -139.5t-23.5 -139.5t-65.5 -95t-98 -34.5zM139 256q0 -90 31.5 -142t87.5 -52t86.5 52t30.5 142q0 89 -30 141.5t-86 52.5q-57 0 -88.5 -51.5t-31.5 -142.5z" />
    <glyph glyph-name="ydieresis" unicode="&#xff;" horiz-adv-x="442" 
d="M24 -212l11 71q18 -13 50 -13q24 0 37.5 11t25.5 39t29 80l3 10l-172 526h95l119 -409l122 409h90l-178 -546q-23 -71 -45 -114t-50.5 -62t-72.5 -19q-41 0 -64 17zM129 618q-23 0 -37.5 15t-14.5 38q0 24 14.5 38.5t37.5 14.5t37.5 -14.5t14.5 -38.5q0 -23 -14.5 -38
t-37.5 -15zM313 618q-23 0 -37.5 15t-14.5 38q0 24 14.5 38.5t37.5 14.5t37.5 -14.5t14.5 -38.5q0 -23 -14.5 -38t-37.5 -15z" />
    <glyph glyph-name="Amacron" unicode="&#x100;" horiz-adv-x="565" 
d="M456 0l-56 189h-238l-57 -189h-94l224 700h95l224 -700h-98zM185 267h191l-95 320zM135 867h296v-64h-296v64z" />
    <glyph glyph-name="amacron" unicode="&#x101;" horiz-adv-x="445" 
d="M390 328v-328h-77l-3 78q-34 -91 -136 -91q-64 0 -101.5 42t-37.5 113q0 87 57.5 130.5t176.5 45.5l36 1v4q0 69 -23 99t-79 30q-35 0 -63.5 -11t-62.5 -38l-19 70q35 28 74.5 40t79.5 12q178 0 178 -197zM119 145q0 -87 79 -87q54 0 80.5 40t26.5 116v43l-30 -1
q-84 -1 -120 -26.5t-36 -84.5zM81 703h266v-63h-266v63z" />
    <glyph glyph-name="Abreve" unicode="&#x102;" horiz-adv-x="565" 
d="M456 0l-56 189h-238l-57 -189h-94l224 700h95l224 -700h-98zM185 267h191l-95 320zM283 831q36 0 53 16.5t19 51.5l64 -9q0 -55 -36 -86.5t-100 -31.5t-100 31.5t-36 86.5l64 9q2 -35 19 -51.5t53 -16.5z" />
    <glyph glyph-name="abreve" unicode="&#x103;" horiz-adv-x="445" 
d="M390 328v-328h-77l-3 78q-34 -91 -136 -91q-64 0 -101.5 42t-37.5 113q0 87 57.5 130.5t176.5 45.5l36 1v4q0 69 -23 99t-79 30q-35 0 -63.5 -11t-62.5 -38l-19 70q35 28 74.5 40t79.5 12q178 0 178 -197zM119 145q0 -87 79 -87q54 0 80.5 40t26.5 116v43l-30 -1
q-84 -1 -120 -26.5t-36 -84.5zM214 656q32 0 47.5 21t17.5 66l62 -9q0 -64 -34 -100t-93 -36t-93 36t-34 100l62 9q2 -45 17.5 -66t47.5 -21z" />
    <glyph glyph-name="Aogonek" unicode="&#x104;" horiz-adv-x="565" 
d="M456 0l-56 189h-238l-57 -189h-94l224 700h95l224 -700h-98zM185 267h191l-95 320zM451 -125q0 -48 44 -48q26 0 47 12l13 -52q-29 -16 -71 -16q-48 0 -73 24.5t-25 66.5q0 99 135 165l33 -27q-103 -55 -103 -125z" />
    <glyph glyph-name="aogonek" unicode="&#x105;" horiz-adv-x="445" 
d="M390 328v-328h-77l-3 78q-34 -91 -136 -91q-64 0 -101.5 42t-37.5 113q0 87 57.5 130.5t176.5 45.5l36 1v4q0 69 -23 99t-79 30q-35 0 -63.5 -11t-62.5 -38l-19 70q35 28 74.5 40t79.5 12q178 0 178 -197zM119 145q0 -87 79 -87q54 0 80.5 40t26.5 116v43l-30 -1
q-84 -1 -120 -26.5t-36 -84.5zM230 -139q0 48 32.5 91t94.5 75l33 -27q-97 -55 -97 -126q0 -49 42 -49q24 0 43 12l13 -50q-28 -16 -67 -16q-46 0 -70 24.5t-24 65.5z" />
    <glyph glyph-name="Cacute" unicode="&#x106;" horiz-adv-x="548" 
d="M42 346q0 113 36.5 196t103.5 128.5t158 45.5q45 0 88 -13.5t77 -36.5l-21 -79q-69 48 -143 48q-96 0 -150 -74.5t-54 -208.5q0 -138 53 -212.5t152 -74.5q71 0 150 50l20 -76q-36 -27 -81 -41t-94 -14q-91 0 -157.5 43t-102 124t-35.5 195zM350 772h-90l118 127h113z
" />
    <glyph glyph-name="cacute" unicode="&#x107;" horiz-adv-x="424" 
d="M38 253q0 81 27 142.5t78 95.5t122 34q32 0 64 -8.5t57 -25.5l-19 -72q-47 31 -99 31q-67 0 -104 -50.5t-37 -142.5q0 -94 36.5 -144.5t106.5 -50.5q24 0 49.5 8t52.5 25l19 -70q-26 -19 -60 -28.5t-69 -9.5q-106 0 -165 71t-59 195zM263 594h-76l99 153h99z" />
    <glyph glyph-name="Cdotaccent" unicode="&#x10a;" horiz-adv-x="548" 
d="M42 346q0 113 36.5 196t103.5 128.5t158 45.5q45 0 88 -13.5t77 -36.5l-21 -79q-69 48 -143 48q-96 0 -150 -74.5t-54 -208.5q0 -138 53 -212.5t152 -74.5q71 0 150 50l20 -76q-36 -27 -81 -41t-94 -14q-91 0 -157.5 43t-102 124t-35.5 195zM337 779q-25 0 -40.5 16
t-15.5 41q0 26 15.5 41.5t40.5 15.5q26 0 41 -15.5t15 -41.5q0 -25 -15 -41t-41 -16z" />
    <glyph glyph-name="cdotaccent" unicode="&#x10b;" horiz-adv-x="424" 
d="M38 253q0 81 27 142.5t78 95.5t122 34q32 0 64 -8.5t57 -25.5l-19 -72q-47 31 -99 31q-67 0 -104 -50.5t-37 -142.5q0 -94 36.5 -144.5t106.5 -50.5q24 0 49.5 8t52.5 25l19 -70q-26 -19 -60 -28.5t-69 -9.5q-106 0 -165 71t-59 195zM253 615q-25 0 -40 15.5t-15 40.5
q0 26 15 41t40 15t40 -15t15 -41q0 -25 -15 -40.5t-40 -15.5z" />
    <glyph glyph-name="Ccaron" unicode="&#x10c;" horiz-adv-x="548" 
d="M42 346q0 113 36.5 196t103.5 128.5t158 45.5q45 0 88 -13.5t77 -36.5l-21 -79q-69 48 -143 48q-96 0 -150 -74.5t-54 -208.5q0 -138 53 -212.5t152 -74.5q71 0 150 50l20 -76q-36 -27 -81 -41t-94 -14q-91 0 -157.5 43t-102 124t-35.5 195zM413 899h83l-115 -127h-88
l-115 127h85l75 -75z" />
    <glyph glyph-name="ccaron" unicode="&#x10d;" horiz-adv-x="424" 
d="M38 253q0 81 27 142.5t78 95.5t122 34q32 0 64 -8.5t57 -25.5l-19 -72q-47 31 -99 31q-67 0 -104 -50.5t-37 -142.5q0 -94 36.5 -144.5t106.5 -50.5q24 0 49.5 8t52.5 25l19 -70q-26 -19 -60 -28.5t-69 -9.5q-106 0 -165 71t-59 195zM321 747h74l-102 -153h-80l-102 153
h76l67 -93z" />
    <glyph glyph-name="Dcaron" unicode="&#x10e;" horiz-adv-x="601" 
d="M267 0h-199v700h199q90 0 155.5 -41t101 -119t35.5 -190t-35.5 -190t-101 -119t-155.5 -41zM258 79q100 0 153 66.5t53 204.5t-53 204.5t-153 66.5h-100v-542h100zM346 899h83l-115 -127h-88l-115 127h85l75 -75z" />
    <glyph glyph-name="dcaron" unicode="&#x10f;" horiz-adv-x="576" 
d="M443 0h-78l-3 88q-40 -101 -144 -101q-54 0 -94.5 34.5t-63 95.5t-22.5 139q0 79 23.5 139.5t65.5 95t98 34.5q92 0 132 -83v298h86v-740zM363 256q0 90 -31.5 142t-87.5 52t-86.5 -52t-30.5 -142q0 -89 30.5 -141.5t85.5 -52.5q57 0 88.5 51.5t31.5 142.5zM586 740
q-4 -58 -11 -103.5t-18 -86.5h-59q5 45 8 90.5t4 99.5h76z" />
    <glyph glyph-name="Dcroat" unicode="&#x110;" horiz-adv-x="614" 
d="M280 0h-199v328h-66v75h66v297h199q90 0 155.5 -41t101 -119t35.5 -190t-35.5 -190t-101 -119t-155.5 -41zM271 79q100 0 153 66.5t53 204.5t-53 204.5t-153 66.5h-100v-218h146v-75h-146v-249h100z" />
    <glyph glyph-name="dcroat" unicode="&#x111;" horiz-adv-x="512" 
d="M218 -13q-54 0 -94.5 34t-63 93.5t-22.5 135.5q0 77 23.5 136.5t65.5 93t98 33.5q92 0 132 -81v156h-144v66h144v86h86v-86h58v-66h-58v-588h-78l-3 86q-40 -99 -144 -99zM363 250q0 87 -31.5 137.5t-87.5 50.5t-86.5 -50.5t-30.5 -137.5q0 -86 30.5 -137t85.5 -51
q57 0 88.5 50t31.5 138z" />
    <glyph glyph-name="Emacron" unicode="&#x112;" horiz-adv-x="478" 
d="M68 0v700h357l10 -81h-276v-223h252v-81h-252v-234h292l-10 -81h-373zM111 867h296v-64h-296v64z" />
    <glyph glyph-name="emacron" unicode="&#x113;" horiz-adv-x="454" 
d="M419 253q0 -4 -0.5 -11t-1.5 -12h-294q6 -83 41 -126.5t100 -43.5q33 0 60.5 9.5t60.5 33.5l18 -71q-64 -45 -149 -45q-102 0 -159 72t-57 196q0 82 24.5 142.5t69 94t104.5 33.5q92 0 137.5 -70t45.5 -202zM234 454q-48 0 -76 -40.5t-33 -117.5h211q-4 81 -27.5 119.5
t-74.5 38.5zM103 703h266v-63h-266v63z" />
    <glyph glyph-name="Edotaccent" unicode="&#x116;" horiz-adv-x="478" 
d="M68 0v700h357l10 -81h-276v-223h252v-81h-252v-234h292l-10 -81h-373zM259 779q-25 0 -40.5 16t-15.5 41q0 26 15.5 41.5t40.5 15.5q26 0 41 -15.5t15 -41.5q0 -25 -15 -41t-41 -16z" />
    <glyph glyph-name="edotaccent" unicode="&#x117;" horiz-adv-x="454" 
d="M419 253q0 -4 -0.5 -11t-1.5 -12h-294q6 -83 41 -126.5t100 -43.5q33 0 60.5 9.5t60.5 33.5l18 -71q-64 -45 -149 -45q-102 0 -159 72t-57 196q0 82 24.5 142.5t69 94t104.5 33.5q92 0 137.5 -70t45.5 -202zM234 454q-48 0 -76 -40.5t-33 -117.5h211q-4 81 -27.5 119.5
t-74.5 38.5zM236 615q-25 0 -40 15.5t-15 40.5q0 26 15 41t40 15t40 -15t15 -41q0 -25 -15 -40.5t-40 -15.5z" />
    <glyph glyph-name="Eogonek" unicode="&#x118;" horiz-adv-x="478" 
d="M68 0v700h357l10 -81h-276v-223h252v-81h-252v-234h292l-10 -81h-373zM338 -125q0 -48 44 -48q26 0 47 12l13 -52q-29 -16 -71 -16q-48 0 -73 24.5t-25 66.5q0 99 135 165l33 -27q-103 -55 -103 -125z" />
    <glyph glyph-name="eogonek" unicode="&#x119;" horiz-adv-x="454" 
d="M419 253q0 -4 -0.5 -11t-1.5 -12h-294q6 -83 41 -126.5t100 -43.5q33 0 60.5 9.5t60.5 33.5l18 -71q-64 -45 -149 -45q-102 0 -159 72t-57 196q0 82 24.5 142.5t69 94t104.5 33.5q92 0 137.5 -70t45.5 -202zM234 454q-48 0 -76 -40.5t-33 -117.5h211q-4 81 -27.5 119.5
t-74.5 38.5zM267 -126q0 -49 42 -49q24 0 43 12l13 -50q-28 -16 -67 -16q-46 0 -70 24.5t-24 65.5q0 54 37.5 102t109.5 84l33 -27q-117 -65 -117 -146z" />
    <glyph glyph-name="Ecaron" unicode="&#x11a;" horiz-adv-x="478" 
d="M68 0v700h357l10 -81h-276v-223h252v-81h-252v-234h292l-10 -81h-373zM335 899h83l-115 -127h-88l-115 127h85l75 -75z" />
    <glyph glyph-name="ecaron" unicode="&#x11b;" horiz-adv-x="454" 
d="M419 253q0 -4 -0.5 -11t-1.5 -12h-294q6 -83 41 -126.5t100 -43.5q33 0 60.5 9.5t60.5 33.5l18 -71q-64 -45 -149 -45q-102 0 -159 72t-57 196q0 82 24.5 142.5t69 94t104.5 33.5q92 0 137.5 -70t45.5 -202zM234 454q-48 0 -76 -40.5t-33 -117.5h211q-4 81 -27.5 119.5
t-74.5 38.5zM304 747h74l-102 -153h-80l-102 153h76l67 -93z" />
    <glyph glyph-name="Gbreve" unicode="&#x11e;" horiz-adv-x="595" 
d="M540 32q-93 -48 -198 -48q-94 0 -161 43.5t-103 124.5t-36 194t38 196t108.5 128.5t165.5 45.5q47 0 93 -14t81 -38l-21 -79q-74 50 -152 50q-103 0 -160.5 -74.5t-57.5 -208.5q0 -138 55 -212.5t158 -74.5q54 0 104 18v214h-126v76h212v-341zM347 831q36 0 53 16.5
t19 51.5l64 -9q0 -55 -36 -86.5t-100 -31.5t-100 31.5t-36 86.5l64 9q2 -35 19 -51.5t53 -16.5z" />
    <glyph glyph-name="gbreve" unicode="&#x11f;" horiz-adv-x="502" 
d="M70 -183l20 73q26 -20 59.5 -32.5t68.5 -12.5q76 0 107.5 47.5t31.5 151.5v43q-42 -87 -139 -87q-54 0 -94.5 33.5t-63 93t-22.5 136.5t23.5 136t65.5 92.5t98 33.5q99 0 137 -93l3 80h78v-459q0 -144 -54.5 -213t-170.5 -69q-43 0 -82.5 12.5t-65.5 33.5zM363 263
q0 86 -31.5 136.5t-87.5 50.5t-86.5 -50.5t-30.5 -136.5q0 -87 30.5 -137.5t85.5 -50.5q57 0 88.5 50t31.5 138zM245 656q32 0 47.5 21t17.5 66l62 -9q0 -64 -34 -100t-93 -36t-93 36t-34 100l62 9q2 -45 17.5 -66t47.5 -21z" />
    <glyph glyph-name="Gdotaccent" unicode="&#x120;" horiz-adv-x="595" 
d="M540 32q-93 -48 -198 -48q-94 0 -161 43.5t-103 124.5t-36 194t38 196t108.5 128.5t165.5 45.5q47 0 93 -14t81 -38l-21 -79q-74 50 -152 50q-103 0 -160.5 -74.5t-57.5 -208.5q0 -138 55 -212.5t158 -74.5q54 0 104 18v214h-126v76h212v-341zM347 779q-25 0 -40.5 16
t-15.5 41q0 26 15.5 41.5t40.5 15.5q26 0 41 -15.5t15 -41.5q0 -25 -15 -41t-41 -16z" />
    <glyph glyph-name="gdotaccent" unicode="&#x121;" horiz-adv-x="502" 
d="M70 -183l20 73q26 -20 59.5 -32.5t68.5 -12.5q76 0 107.5 47.5t31.5 151.5v43q-42 -87 -139 -87q-54 0 -94.5 33.5t-63 93t-22.5 136.5t23.5 136t65.5 92.5t98 33.5q99 0 137 -93l3 80h78v-459q0 -144 -54.5 -213t-170.5 -69q-43 0 -82.5 12.5t-65.5 33.5zM363 263
q0 86 -31.5 136.5t-87.5 50.5t-86.5 -50.5t-30.5 -136.5q0 -87 30.5 -137.5t85.5 -50.5q57 0 88.5 50t31.5 138zM245 615q-25 0 -40 15.5t-15 40.5q0 26 15 41t40 15t40 -15t15 -41q0 -25 -15 -40.5t-40 -15.5z" />
    <glyph glyph-name="uni0122" unicode="&#x122;" horiz-adv-x="595" 
d="M540 32q-93 -48 -198 -48q-94 0 -161 43.5t-103 124.5t-36 194t38 196t108.5 128.5t165.5 45.5q47 0 93 -14t81 -38l-21 -79q-74 50 -152 50q-103 0 -160.5 -74.5t-57.5 -208.5q0 -138 55 -212.5t158 -74.5q54 0 104 18v214h-126v76h212v-341zM285 -213q38 13 58 46h-5
q-19 0 -31.5 14t-12.5 36q0 23 14.5 37.5t37.5 14.5q54 0 54 -61q0 -40 -24.5 -74.5t-63.5 -48.5z" />
    <glyph glyph-name="uni0123" unicode="&#x123;" horiz-adv-x="502" 
d="M70 -183l20 73q26 -20 59.5 -32.5t68.5 -12.5q76 0 107.5 47.5t31.5 151.5v43q-42 -87 -139 -87q-54 0 -94.5 33.5t-63 93t-22.5 136.5t23.5 136t65.5 92.5t98 33.5q99 0 137 -93l3 80h78v-459q0 -144 -54.5 -213t-170.5 -69q-43 0 -82.5 12.5t-65.5 33.5zM363 263
q0 86 -31.5 136.5t-87.5 50.5t-86.5 -50.5t-30.5 -136.5q0 -87 30.5 -137.5t85.5 -50.5q57 0 88.5 50t31.5 138zM306 743q-41 -13 -60 -50q4 1 8 1q19 0 31 -13t12 -36q0 -22 -13.5 -36.5t-36.5 -14.5q-54 0 -54 61q0 40 24.5 74.5t62.5 48.5z" />
    <glyph glyph-name="Hbar" unicode="&#x126;" horiz-adv-x="615" 
d="M81 0v508h-66v71h66v121h91v-121h271v121h91v-121h66v-71h-66v-508h-91v305h-271v-305h-91zM172 386h271v122h-271v-122z" />
    <glyph glyph-name="hbar" unicode="&#x127;" horiz-adv-x="485" 
d="M299 588h-144v-157q36 82 126 82q149 0 149 -215v-298h-86v283q0 80 -19 116.5t-67 36.5q-51 0 -77 -42t-26 -122v-272h-86v588h-58v66h58v86h86v-86h144v-66z" />
    <glyph glyph-name="Itilde" unicode="&#x128;" horiz-adv-x="227" 
d="M68 0v700h91v-700h-91zM272 890q-3 -118 -93 -118q-44 0 -80 36q-17 17 -25.5 23t-19.5 6q-34 0 -34 -65l-64 9q3 118 94 118q44 0 80 -36q17 -17 26 -23t19 -6q33 0 33 65z" />
    <glyph glyph-name="itilde" unicode="&#x129;" horiz-adv-x="204" 
d="M59 0v512h86v-512h-86zM-50 607q3 136 90 136q24 0 40.5 -10t35.5 -34q20 -25 28 -32t18 -7q16 0 23 19.5t7 63.5l62 -9q-3 -136 -90 -136q-24 0 -40.5 10t-35.5 34q-19 25 -27.5 32t-18.5 7q-16 0 -23 -19.5t-7 -63.5z" />
    <glyph glyph-name="Imacron" unicode="&#x12a;" horiz-adv-x="227" 
d="M68 0v700h91v-700h-91zM-34 867h296v-64h-296v64z" />
    <glyph glyph-name="imacron" unicode="&#x12b;" horiz-adv-x="204" 
d="M59 0v512h86v-512h-86zM-31 703h266v-63h-266v63z" />
    <glyph glyph-name="Iogonek" unicode="&#x12e;" horiz-adv-x="227" 
d="M68 0v700h91v-700h-91zM56 -125q0 -48 44 -48q26 0 47 12l13 -52q-29 -16 -71 -16q-48 0 -73 24.5t-25 66.5q0 99 135 165l33 -27q-103 -55 -103 -125z" />
    <glyph glyph-name="iogonek" unicode="&#x12f;" horiz-adv-x="204" 
d="M102 617q-25 0 -41 16.5t-16 43.5t16 43.5t41 16.5q26 0 41.5 -16.5t15.5 -43.5t-15.5 -43.5t-41.5 -16.5zM59 0v512h86v-512h-86zM-15 -139q0 48 32.5 91t94.5 75l33 -27q-97 -55 -97 -126q0 -49 42 -49q24 0 43 12l13 -50q-28 -16 -67 -16q-46 0 -70 24.5t-24 65.5z
" />
    <glyph glyph-name="Idotaccent" unicode="&#x130;" horiz-adv-x="227" 
d="M68 0v700h91v-700h-91zM114 779q-25 0 -40.5 16t-15.5 41q0 26 15.5 41.5t40.5 15.5q26 0 41 -15.5t15 -41.5q0 -25 -15 -41t-41 -16z" />
    <glyph glyph-name="dotlessi" unicode="&#x131;" horiz-adv-x="204" 
d="M59 0v512h86v-512h-86z" />
    <glyph glyph-name="IJ" unicode="&#x132;" horiz-adv-x="540" 
d="M159 203h-91v497h91v-497zM73 41l22 76q29 -25 66.5 -39t74.5 -14q57 0 89 22t45.5 71t13.5 130v413h91v-421q0 -152 -56.5 -223.5t-179.5 -71.5q-48 0 -94 16t-72 41z" />
    <glyph glyph-name="ij" unicode="&#x133;" horiz-adv-x="469" 
d="M98 617q-25 0 -41 16.5t-16 43.5t16 43.5t41 16.5q26 0 41.5 -16.5t15.5 -43.5t-15.5 -43.5t-41.5 -16.5zM367 617q-25 0 -41 16.5t-16 43.5t16 43.5t41 16.5q26 0 41.5 -16.5t15.5 -43.5t-15.5 -43.5t-41.5 -16.5zM410 36q0 -135 -51 -200t-160 -65q-40 0 -77.5 12
t-61.5 31l20 73q24 -19 55 -30.5t64 -11.5q68 0 96.5 43.5t28.5 138.5v54q-36 -81 -123 -81q-146 0 -146 215v297h86v-282q0 -79 18.5 -116t64.5 -37q50 0 75 42t25 122v271h86v-476z" />
    <glyph glyph-name="uni0136" unicode="&#x136;" horiz-adv-x="548" 
d="M68 0v700h91v-351l253 351h100l-217 -294l242 -406h-106l-191 332l-81 -110v-222h-91zM235 -213q38 13 58 46h-5q-19 0 -31.5 14t-12.5 36q0 23 14.5 37.5t37.5 14.5q54 0 54 -61q0 -40 -24.5 -74.5t-63.5 -48.5z" />
    <glyph glyph-name="uni0137" unicode="&#x137;" horiz-adv-x="455" 
d="M59 0v740h86v-471l186 243h98l-160 -202l178 -310h-98l-134 242l-70 -88v-154h-86zM186 -214q41 13 60 50q-4 -1 -8 -1q-19 0 -31 13.5t-12 35.5q0 23 14.5 37t36.5 14q53 0 53 -61q0 -40 -24.5 -74.5t-62.5 -48.5z" />
    <glyph glyph-name="Lacute" unicode="&#x139;" horiz-adv-x="451" 
d="M68 0v700h91v-619h281l-10 -81h-362zM127 772h-90l118 127h113z" />
    <glyph glyph-name="lacute" unicode="&#x13a;" horiz-adv-x="204" 
d="M59 0v740h86v-740h-86zM115 817h-90l118 127h113z" />
    <glyph glyph-name="uni013B" unicode="&#x13b;" horiz-adv-x="451" 
d="M68 0v700h91v-619h281l-10 -81h-362zM203 -213q38 13 58 46h-5q-19 0 -31.5 14t-12.5 36q0 23 14.5 37.5t37.5 14.5q54 0 54 -61q0 -40 -24.5 -74.5t-63.5 -48.5z" />
    <glyph glyph-name="uni013C" unicode="&#x13c;" horiz-adv-x="204" 
d="M59 0v740h86v-740h-86zM41 -214q41 13 60 50q-4 -1 -8 -1q-19 0 -31 13.5t-12 35.5q0 23 14.5 37t36.5 14q53 0 53 -61q0 -40 -24.5 -74.5t-62.5 -48.5z" />
    <glyph glyph-name="Lcaron" unicode="&#x13d;" horiz-adv-x="451" 
d="M68 0v700h91v-619h281l-10 -81h-362zM339 700q-4 -58 -11 -103.5t-18 -86.5h-59q5 45 8 90.5t4 99.5h76z" />
    <glyph glyph-name="lcaron" unicode="&#x13e;" horiz-adv-x="278" 
d="M59 0v740h86v-740h-86zM288 740q-4 -58 -11 -103.5t-18 -86.5h-59q5 45 8 90.5t4 99.5h76z" />
    <glyph glyph-name="Ldot" unicode="&#x13f;" horiz-adv-x="451" 
d="M68 0v700h91v-619h281l-10 -81h-362zM339 330q-27 0 -43.5 17t-16.5 44q0 28 16.5 44.5t43.5 16.5t43.5 -16.5t16.5 -44.5q0 -27 -16.5 -44t-43.5 -17z" />
    <glyph glyph-name="ldot" unicode="&#x140;" horiz-adv-x="324" 
d="M59 0v740h86v-740h-86zM264 308q-27 0 -43.5 17t-16.5 44q0 28 16.5 44.5t43.5 16.5t43.5 -16.5t16.5 -44.5q0 -27 -16.5 -44t-43.5 -17z" />
    <glyph glyph-name="Lslash" unicode="&#x141;" horiz-adv-x="464" 
d="M81 0v244l-66 -44v85l66 44v371h91v-311l168 112v-85l-168 -112v-223h281l-10 -81h-362z" />
    <glyph glyph-name="lslash" unicode="&#x142;" horiz-adv-x="224" 
d="M69 0v328l-58 -32v77l58 32v335h86v-287l58 32v-77l-58 -32v-376h-86z" />
    <glyph glyph-name="Nacute" unicode="&#x143;" horiz-adv-x="588" 
d="M68 0v700h91l274 -533v533h87v-700h-87l-278 535v-535h-87zM315 772h-90l118 127h113z" />
    <glyph glyph-name="nacute" unicode="&#x144;" horiz-adv-x="475" 
d="M420 310v-310h-86v295q0 80 -19 116.5t-67 36.5q-51 0 -77 -42t-26 -122v-284h-86v512h78l3 -82q33 95 131 95q149 0 149 -215zM258 594h-76l99 153h99z" />
    <glyph glyph-name="uni0145" unicode="&#x145;" horiz-adv-x="588" 
d="M68 0v700h91l274 -533v533h87v-700h-87l-278 535v-535h-87zM240 -213q38 13 58 46h-5q-19 0 -31.5 14t-12.5 36q0 23 14.5 37.5t37.5 14.5q54 0 54 -61q0 -40 -24.5 -74.5t-63.5 -48.5z" />
    <glyph glyph-name="uni0146" unicode="&#x146;" horiz-adv-x="475" 
d="M420 310v-310h-86v295q0 80 -19 116.5t-67 36.5q-51 0 -77 -42t-26 -122v-284h-86v512h78l3 -82q33 95 131 95q149 0 149 -215zM179 -214q41 13 60 50q-4 -1 -8 -1q-19 0 -31 13.5t-12 35.5q0 23 14.5 37t36.5 14q53 0 53 -61q0 -40 -24.5 -74.5t-62.5 -48.5z" />
    <glyph glyph-name="Ncaron" unicode="&#x147;" horiz-adv-x="588" 
d="M68 0v700h91l274 -533v533h87v-700h-87l-278 535v-535h-87zM378 899h83l-115 -127h-88l-115 127h85l75 -75z" />
    <glyph glyph-name="ncaron" unicode="&#x148;" horiz-adv-x="475" 
d="M420 310v-310h-86v295q0 80 -19 116.5t-67 36.5q-51 0 -77 -42t-26 -122v-284h-86v512h78l3 -82q33 95 131 95q149 0 149 -215zM316 747h74l-102 -153h-80l-102 153h76l67 -93z" />
    <glyph glyph-name="Eng" unicode="&#x14a;" horiz-adv-x="585" 
d="M249 -202l19 75q20 -13 36 -18t38 -5q50 0 69 33.5t19 110.5v431q0 109 -27 159.5t-96 50.5q-73 0 -110.5 -58t-37.5 -168v-409h-91v700h80l4 -112q22 62 67.5 95t111.5 33q190 0 190 -275v-457q0 -109 -41 -161t-129 -52q-28 0 -54 6.5t-48 20.5z" />
    <glyph glyph-name="eng" unicode="&#x14b;" horiz-adv-x="475" 
d="M420 -66q0 -83 -33.5 -123t-105.5 -40q-23 0 -44 5t-39 16l16 70q16 -10 29 -13.5t31 -3.5q34 0 47 23t13 76v351q0 80 -19 116.5t-67 36.5q-51 0 -77 -42t-26 -122v-284h-86v512h78l3 -82q33 95 131 95q149 0 149 -215v-376z" />
    <glyph glyph-name="Omacron" unicode="&#x14c;" horiz-adv-x="646" 
d="M323 -16q-85 0 -148 45.5t-98 128t-35 192.5t35 192.5t98 128t148 45.5t148 -45.5t98 -128t35 -192.5t-35 -192.5t-98 -128t-148 -45.5zM323 65q90 0 138 76.5t48 208.5q0 131 -48 208t-138 77t-138 -77t-48 -208q0 -132 48 -208.5t138 -76.5zM175 867h296v-64h-296v64z
" />
    <glyph glyph-name="omacron" unicode="&#x14d;" horiz-adv-x="490" 
d="M245 -13q-62 0 -109 33.5t-72.5 94.5t-25.5 141q0 81 25.5 141.5t72.5 94t109 33.5q63 0 109.5 -33.5t72 -94t25.5 -141.5q0 -80 -25.5 -141t-72 -94.5t-109.5 -33.5zM245 62q57 0 87.5 52t30.5 142q0 89 -30.5 141.5t-87.5 52.5t-87.5 -52.5t-30.5 -141.5
q0 -90 30.5 -142t87.5 -52zM112 703h266v-63h-266v63z" />
    <glyph glyph-name="Ohungarumlaut" unicode="&#x150;" horiz-adv-x="646" 
d="M323 -16q-85 0 -148 45.5t-98 128t-35 192.5t35 192.5t98 128t148 45.5t148 -45.5t98 -128t35 -192.5t-35 -192.5t-98 -128t-148 -45.5zM323 65q90 0 138 76.5t48 208.5q0 131 -48 208t-138 77t-138 -77t-48 -208q0 -132 48 -208.5t138 -76.5zM276 772h-90l118 127h113z
M455 772h-90l118 127h113z" />
    <glyph glyph-name="ohungarumlaut" unicode="&#x151;" horiz-adv-x="490" 
d="M245 -13q-62 0 -109 33.5t-72.5 94.5t-25.5 141q0 81 25.5 141.5t72.5 94t109 33.5q63 0 109.5 -33.5t72 -94t25.5 -141.5q0 -80 -25.5 -141t-72 -94.5t-109.5 -33.5zM245 62q57 0 87.5 52t30.5 142q0 89 -30.5 141.5t-87.5 52.5t-87.5 -52.5t-30.5 -141.5
q0 -90 30.5 -142t87.5 -52zM204 594h-76l99 153h99zM356 594h-76l99 153h99z" />
    <glyph glyph-name="OE" unicode="&#x152;" horiz-adv-x="841" 
d="M352 -16q-97 0 -166.5 43.5t-106.5 125.5t-37 196q0 112 38 194.5t107.5 127.5t164.5 45q55 0 106 -16h330l10 -81h-266v-223h242v-81h-242v-234h282l-10 -81h-346q-51 -16 -106 -16zM137 349q0 -136 57 -210t161 -74q48 0 86 14v541q-33 15 -86 15q-104 0 -161 -74.5
t-57 -211.5z" />
    <glyph glyph-name="oe" unicode="&#x153;" horiz-adv-x="761" 
d="M710 32q-62 -45 -146 -45q-62 0 -106 31t-65 88q-23 -56 -63.5 -87.5t-92.5 -31.5q-93 0 -146 72.5t-53 196.5q0 82 24.5 142t69 93.5t105.5 33.5q53 0 93 -31t62 -86q20 55 59.5 86t94.5 31q90 0 135 -69.5t45 -200.5q0 -4 -0.5 -11t-1.5 -12h-288q4 -84 39 -128t99 -44
q32 0 59 9.5t59 33.5zM544 454q-92 0 -106 -156h205q-5 80 -27.5 118t-71.5 38zM240 62q54 0 83 52t29 142q0 89 -29 141.5t-83 52.5q-55 0 -84 -52.5t-29 -141.5q0 -90 29 -142t84 -52z" />
    <glyph glyph-name="Racute" unicode="&#x154;" horiz-adv-x="523" 
d="M396 0l-127 277q-9 -1 -18 -1h-93v-276h-90v700h183q98 0 155.5 -57.5t57.5 -154.5q0 -66 -29.5 -115.5t-81.5 -73.5l143 -299h-100zM243 624h-85v-272h85q65 0 97 36t32 100q0 65 -32 100.5t-97 35.5zM273 772h-90l118 127h113z" />
    <glyph glyph-name="racute" unicode="&#x155;" horiz-adv-x="322" 
d="M145 269v-269h-86v512h78l3 -93q15 50 46.5 76.5t76.5 26.5q31 0 50 -13l-8 -82q-23 14 -49 14q-55 0 -83 -45t-28 -127zM204 594h-76l99 153h99z" />
    <glyph glyph-name="uni0156" unicode="&#x156;" horiz-adv-x="523" 
d="M396 0l-127 277q-9 -1 -18 -1h-93v-276h-90v700h183q98 0 155.5 -57.5t57.5 -154.5q0 -66 -29.5 -115.5t-81.5 -73.5l143 -299h-100zM243 624h-85v-272h85q65 0 97 36t32 100q0 65 -32 100.5t-97 35.5zM220 -213q38 13 58 46h-5q-19 0 -31.5 14t-12.5 36q0 23 14.5 37.5
t37.5 14.5q54 0 54 -61q0 -40 -24.5 -74.5t-63.5 -48.5z" />
    <glyph glyph-name="uni0157" unicode="&#x157;" horiz-adv-x="322" 
d="M145 269v-269h-86v512h78l3 -93q15 50 46.5 76.5t76.5 26.5q31 0 50 -13l-8 -82q-23 14 -49 14q-55 0 -83 -45t-28 -127zM41 -214q41 13 60 50q-4 -1 -8 -1q-19 0 -31 13.5t-12 35.5q0 23 14.5 37t36.5 14q53 0 53 -61q0 -40 -24.5 -74.5t-62.5 -48.5z" />
    <glyph glyph-name="Rcaron" unicode="&#x158;" horiz-adv-x="523" 
d="M396 0l-127 277q-9 -1 -18 -1h-93v-276h-90v700h183q98 0 155.5 -57.5t57.5 -154.5q0 -66 -29.5 -115.5t-81.5 -73.5l143 -299h-100zM243 624h-85v-272h85q65 0 97 36t32 100q0 65 -32 100.5t-97 35.5zM336 899h83l-115 -127h-88l-115 127h85l75 -75z" />
    <glyph glyph-name="rcaron" unicode="&#x159;" horiz-adv-x="322" 
d="M145 269v-269h-86v512h78l3 -93q15 50 46.5 76.5t76.5 26.5q31 0 50 -13l-8 -82q-23 14 -49 14q-55 0 -83 -45t-28 -127zM262 747h74l-102 -153h-80l-102 153h76l67 -93z" />
    <glyph glyph-name="Sacute" unicode="&#x15a;" horiz-adv-x="478" 
d="M439 182q0 -90 -57.5 -144t-154.5 -54q-119 0 -202 68l22 81q48 -39 87 -55t88 -16q59 0 92 29.5t33 82.5q0 34 -9.5 60t-37 47t-80.5 38q-89 29 -131 78t-42 123q0 89 55.5 142.5t151.5 53.5q103 0 176 -62l-20 -79q-43 35 -77.5 49t-78.5 14q-56 0 -87 -28t-31 -81
q0 -34 11 -57.5t38.5 -41t77.5 -34.5q91 -30 133.5 -82t42.5 -132zM270 772h-90l118 127h113z" />
    <glyph glyph-name="sacute" unicode="&#x15b;" horiz-adv-x="383" 
d="M173 -13q-90 0 -153 49l21 73q36 -28 65 -39t65 -11q44 0 68 19.5t24 53.5q0 33 -17 55t-73 38q-70 20 -102.5 58t-32.5 93q0 68 45.5 108.5t124.5 40.5q80 0 135 -45l-20 -72q-31 25 -57 35t-58 10q-41 0 -63.5 -18t-22.5 -52q0 -33 17.5 -51t69.5 -34q73 -22 107 -61.5
t34 -98.5q0 -69 -48.5 -110t-128.5 -41zM211 594h-76l99 153h99z" />
    <glyph glyph-name="Scedilla" unicode="&#x15e;" horiz-adv-x="478" 
d="M439 182q0 -90 -57.5 -144t-154.5 -54q-119 0 -202 68l22 81q48 -39 87 -55t88 -16q59 0 92 29.5t33 82.5q0 34 -9.5 60t-37 47t-80.5 38q-89 29 -131 78t-42 123q0 89 55.5 142.5t151.5 53.5q103 0 176 -62l-20 -79q-43 35 -77.5 49t-78.5 14q-56 0 -87 -28t-31 -81
q0 -34 11 -57.5t38.5 -41t77.5 -34.5q91 -30 133.5 -82t42.5 -132zM237 -229q-48 0 -81 17l14 50q25 -14 61 -14q22 0 36.5 9t14.5 27q0 34 -50 34q-20 0 -38 -5l25 126h52l-16 -75h3q43 0 66 -21.5t23 -60.5q0 -41 -29.5 -64t-80.5 -23z" />
    <glyph glyph-name="scedilla" unicode="&#x15f;" horiz-adv-x="383" 
d="M173 -13q-90 0 -153 49l21 73q36 -28 65 -39t65 -11q44 0 68 19.5t24 53.5q0 33 -17 55t-73 38q-70 20 -102.5 58t-32.5 93q0 68 45.5 108.5t124.5 40.5q80 0 135 -45l-20 -72q-31 25 -57 35t-58 10q-41 0 -63.5 -18t-22.5 -52q0 -33 17.5 -51t69.5 -34q73 -22 107 -61.5
t34 -98.5q0 -69 -48.5 -110t-128.5 -41zM112 -213l14 48q25 -13 57 -13q21 0 35 9.5t14 28.5q0 35 -48 35q-19 0 -37 -5l25 125h50l-16 -76h4q41 0 63 -21.5t22 -59.5q0 -41 -28 -64t-78 -23q-25 0 -42.5 4t-34.5 12z" />
    <glyph glyph-name="Scaron" unicode="&#x160;" horiz-adv-x="478" 
d="M439 182q0 -90 -57.5 -144t-154.5 -54q-119 0 -202 68l22 81q48 -39 87 -55t88 -16q59 0 92 29.5t33 82.5q0 34 -9.5 60t-37 47t-80.5 38q-89 29 -131 78t-42 123q0 89 55.5 142.5t151.5 53.5q103 0 176 -62l-20 -79q-43 35 -77.5 49t-78.5 14q-56 0 -87 -28t-31 -81
q0 -34 11 -57.5t38.5 -41t77.5 -34.5q91 -30 133.5 -82t42.5 -132zM333 899h83l-115 -127h-88l-115 127h85l75 -75z" />
    <glyph glyph-name="scaron" unicode="&#x161;" horiz-adv-x="383" 
d="M173 -13q-90 0 -153 49l21 73q36 -28 65 -39t65 -11q44 0 68 19.5t24 53.5q0 33 -17 55t-73 38q-70 20 -102.5 58t-32.5 93q0 68 45.5 108.5t124.5 40.5q80 0 135 -45l-20 -72q-31 25 -57 35t-58 10q-41 0 -63.5 -18t-22.5 -52q0 -33 17.5 -51t69.5 -34q73 -22 107 -61.5
t34 -98.5q0 -69 -48.5 -110t-128.5 -41zM269 747h74l-102 -153h-80l-102 153h76l67 -93z" />
    <glyph glyph-name="uni0162" unicode="&#x162;" horiz-adv-x="489" 
d="M199 0v619h-184v81h459v-81h-184v-619h-91zM240 -229q-48 0 -81 17l14 50q25 -14 61 -14q22 0 36.5 9t14.5 27q0 34 -50 34q-20 0 -38 -5l25 126h52l-16 -75h3q43 0 66 -21.5t23 -60.5q0 -41 -29.5 -64t-80.5 -23z" />
    <glyph glyph-name="uni0163" unicode="&#x163;" horiz-adv-x="339" 
d="M318 13q-40 -23 -87 -23q-70 0 -103 40.5t-33 127.5v284h-86l9 70h77v167h86v-167h124v-70h-124v-274q0 -56 14 -79.5t48 -23.5q17 0 30 4t31 15zM133 -213l14 48q25 -13 57 -13q21 0 35 9.5t14 28.5q0 35 -48 35q-19 0 -37 -5l25 125h50l-16 -76h4q41 0 63 -21.5
t22 -59.5q0 -41 -28 -64t-78 -23q-25 0 -42.5 4t-34.5 12z" />
    <glyph glyph-name="Tcaron" unicode="&#x164;" horiz-adv-x="489" 
d="M199 0v619h-184v81h459v-81h-184v-619h-91zM321 899h83l-115 -127h-88l-115 127h85l75 -75z" />
    <glyph glyph-name="tcaron" unicode="&#x165;" horiz-adv-x="339" 
d="M318 13q-40 -23 -87 -23q-70 0 -103 40.5t-33 127.5v284h-86l9 70h77v167h86v-167h124v-70h-124v-274q0 -56 14 -79.5t48 -23.5q17 0 30 4t31 15zM290 566h-59q5 41 8 83t4 91h76q-4 -53 -11 -94.5t-18 -79.5z" />
    <glyph glyph-name="Tbar" unicode="&#x166;" horiz-adv-x="489" 
d="M199 0v301h-111v75h111v243h-184v81h459v-81h-184v-243h111v-75h-111v-301h-91z" />
    <glyph glyph-name="tbar" unicode="&#x167;" horiz-adv-x="339" 
d="M13 236v66h82v140h-86l9 70h77v167h86v-167h124v-70h-124v-140h124v-66h-124v-68q0 -56 14 -79.5t48 -23.5q17 0 30 4t31 15l14 -71q-40 -23 -87 -23q-70 0 -103 40.5t-33 127.5v78h-82z" />
    <glyph glyph-name="Utilde" unicode="&#x168;" horiz-adv-x="581" 
d="M65 273v427h91v-419q0 -112 32 -164t102 -52q71 0 103 52t32 164v419h91v-427q0 -141 -58 -215t-171 -74q-222 0 -222 289zM449 890q-3 -118 -93 -118q-44 0 -80 36q-17 17 -25.5 23t-19.5 6q-34 0 -34 -65l-64 9q3 118 94 118q44 0 80 -36q17 -17 26 -23t19 -6
q33 0 33 65z" />
    <glyph glyph-name="utilde" unicode="&#x169;" horiz-adv-x="469" 
d="M332 0l-3 82q-33 -95 -128 -95q-146 0 -146 215v310h86v-295q0 -79 18.5 -116t64.5 -37q50 0 75 42t25 122v284h86v-512h-78zM81 607q3 136 90 136q24 0 40.5 -10t35.5 -34q20 -25 28 -32t18 -7q16 0 23 19.5t7 63.5l62 -9q-3 -136 -90 -136q-24 0 -40.5 10t-35.5 34
q-19 25 -27.5 32t-18.5 7q-16 0 -23 -19.5t-7 -63.5z" />
    <glyph glyph-name="Umacron" unicode="&#x16a;" horiz-adv-x="581" 
d="M65 273v427h91v-419q0 -112 32 -164t102 -52q71 0 103 52t32 164v419h91v-427q0 -141 -58 -215t-171 -74q-222 0 -222 289zM143 867h296v-64h-296v64z" />
    <glyph glyph-name="umacron" unicode="&#x16b;" horiz-adv-x="469" 
d="M332 0l-3 82q-33 -95 -128 -95q-146 0 -146 215v310h86v-295q0 -79 18.5 -116t64.5 -37q50 0 75 42t25 122v284h86v-512h-78zM100 703h266v-63h-266v63z" />
    <glyph glyph-name="Uring" unicode="&#x16e;" horiz-adv-x="581" 
d="M65 273v427h91v-419q0 -112 32 -164t102 -52q71 0 103 52t32 164v419h91v-427q0 -141 -58 -215t-171 -74q-222 0 -222 289zM291 965q48 0 79 -28.5t31 -72.5t-31 -72.5t-79 -28.5q-49 0 -79.5 28.5t-30.5 72.5t30.5 72.5t79.5 28.5zM291 808q26 0 42 15.5t16 40.5
t-16 40.5t-42 15.5t-42 -15.5t-16 -40.5t16 -40.5t42 -15.5z" />
    <glyph glyph-name="uring" unicode="&#x16f;" horiz-adv-x="469" 
d="M332 0l-3 82q-33 -95 -128 -95q-146 0 -146 215v310h86v-295q0 -79 18.5 -116t64.5 -37q50 0 75 42t25 122v284h86v-512h-78zM233 788q45 0 74.5 -28.5t29.5 -72.5q0 -43 -29.5 -72t-74.5 -29q-46 0 -75 29t-29 72q0 44 29 72.5t75 28.5zM233 629q24 0 39 16.5t15 41.5
q0 26 -15 42t-39 16t-39 -16t-15 -42q0 -25 15 -41.5t39 -16.5z" />
    <glyph glyph-name="Uhungarumlaut" unicode="&#x170;" horiz-adv-x="581" 
d="M65 273v427h91v-419q0 -112 32 -164t102 -52q71 0 103 52t32 164v419h91v-427q0 -141 -58 -215t-171 -74q-222 0 -222 289zM244 772h-90l118 127h113zM423 772h-90l118 127h113z" />
    <glyph glyph-name="uhungarumlaut" unicode="&#x171;" horiz-adv-x="469" 
d="M332 0l-3 82q-33 -95 -128 -95q-146 0 -146 215v310h86v-295q0 -79 18.5 -116t64.5 -37q50 0 75 42t25 122v284h86v-512h-78zM192 594h-76l99 153h99zM344 594h-76l99 153h99z" />
    <glyph glyph-name="Uogonek" unicode="&#x172;" horiz-adv-x="581" 
d="M65 273v427h91v-419q0 -112 32 -164t102 -52q71 0 103 52t32 164v419h91v-427q0 -141 -58 -215t-171 -74q-222 0 -222 289zM294 -125q0 -48 44 -48q26 0 47 12l13 -52q-29 -16 -71 -16q-48 0 -73 24.5t-25 66.5q0 54 39.5 101.5t115.5 83.5l33 -27q-123 -65 -123 -145z
" />
    <glyph glyph-name="uogonek" unicode="&#x173;" horiz-adv-x="469" 
d="M332 0l-3 82q-33 -95 -128 -95q-146 0 -146 215v310h86v-295q0 -79 18.5 -116t64.5 -37q50 0 75 42t25 122v284h86v-512h-78zM250 -139q0 48 32.5 91t94.5 75l33 -27q-97 -55 -97 -126q0 -49 42 -49q24 0 43 12l13 -50q-28 -16 -67 -16q-46 0 -70 24.5t-24 65.5z" />
    <glyph glyph-name="Wcircumflex" unicode="&#x174;" horiz-adv-x="792" 
d="M522 0l-126 558l-126 -558h-95l-161 700h97l116 -566l125 566h93l124 -563l117 563h92l-161 -700h-95zM323 772h-83l115 127h88l115 -127h-85l-75 75z" />
    <glyph glyph-name="wcircumflex" unicode="&#x175;" horiz-adv-x="648" 
d="M143 0l-132 512h88l93 -411l89 411h88l89 -407l93 407h86l-132 -512h-90l-91 406l-91 -406h-90zM257 594h-74l102 153h80l102 -153h-76l-67 93z" />
    <glyph glyph-name="Ycircumflex" unicode="&#x176;" horiz-adv-x="537" 
d="M223 0v287l-210 413h100l158 -333l158 333h95l-210 -413v-287h-91zM197 772h-83l115 127h88l115 -127h-85l-75 75z" />
    <glyph glyph-name="ycircumflex" unicode="&#x177;" horiz-adv-x="442" 
d="M24 -212l11 71q18 -13 50 -13q24 0 37.5 11t25.5 39t29 80l3 10l-172 526h95l119 -409l122 409h90l-178 -546q-23 -71 -45 -114t-50.5 -62t-72.5 -19q-41 0 -64 17zM153 594h-74l102 153h80l102 -153h-76l-67 93z" />
    <glyph glyph-name="Ydieresis" unicode="&#x178;" horiz-adv-x="537" 
d="M223 0v287l-210 413h100l158 -333l158 333h95l-210 -413v-287h-91zM174 780q-24 0 -38.5 15t-14.5 39q0 25 14.5 39.5t38.5 14.5t38.5 -14.5t14.5 -39.5q0 -24 -14.5 -39t-38.5 -15zM372 780q-24 0 -38.5 15t-14.5 39q0 25 14.5 39.5t38.5 14.5t38.5 -14.5t14.5 -39.5
q0 -24 -14.5 -39t-38.5 -15z" />
    <glyph glyph-name="Zacute" unicode="&#x179;" horiz-adv-x="520" 
d="M42 0v75l330 545h-317l10 80h406v-75l-329 -545h340l-10 -80h-430zM281 772h-90l118 127h113z" />
    <glyph glyph-name="zacute" unicode="&#x17a;" horiz-adv-x="416" 
d="M38 0v66l242 376h-238l9 70h320v-66l-241 -376h251l-9 -70h-334zM221 594h-76l99 153h99z" />
    <glyph glyph-name="Zdotaccent" unicode="&#x17b;" horiz-adv-x="520" 
d="M42 0v75l330 545h-317l10 80h406v-75l-329 -545h340l-10 -80h-430zM268 779q-25 0 -40.5 16t-15.5 41q0 26 15.5 41.5t40.5 15.5q26 0 41 -15.5t15 -41.5q0 -25 -15 -41t-41 -16z" />
    <glyph glyph-name="zdotaccent" unicode="&#x17c;" horiz-adv-x="416" 
d="M38 0v66l242 376h-238l9 70h320v-66l-241 -376h251l-9 -70h-334zM211 615q-25 0 -40 15.5t-15 40.5q0 26 15 41t40 15t40 -15t15 -41q0 -25 -15 -40.5t-40 -15.5z" />
    <glyph glyph-name="Zcaron" unicode="&#x17d;" horiz-adv-x="520" 
d="M42 0v75l330 545h-317l10 80h406v-75l-329 -545h340l-10 -80h-430zM344 899h83l-115 -127h-88l-115 127h85l75 -75z" />
    <glyph glyph-name="zcaron" unicode="&#x17e;" horiz-adv-x="416" 
d="M38 0v66l242 376h-238l9 70h320v-66l-241 -376h251l-9 -70h-334zM279 747h74l-102 -153h-80l-102 153h76l67 -93z" />
    <glyph glyph-name="uni0218" unicode="&#x218;" horiz-adv-x="478" 
d="M439 182q0 -90 -57.5 -144t-154.5 -54q-119 0 -202 68l22 81q48 -39 87 -55t88 -16q59 0 92 29.5t33 82.5q0 34 -9.5 60t-37 47t-80.5 38q-89 29 -131 78t-42 123q0 89 55.5 142.5t151.5 53.5q103 0 176 -62l-20 -79q-43 35 -77.5 49t-78.5 14q-56 0 -87 -28t-31 -81
q0 -34 11 -57.5t38.5 -41t77.5 -34.5q91 -30 133.5 -82t42.5 -132zM180 -213q38 13 58 46h-5q-19 0 -31.5 14t-12.5 36q0 23 14.5 37.5t37.5 14.5q54 0 54 -61q0 -40 -24.5 -74.5t-63.5 -48.5z" />
    <glyph glyph-name="uni0219" unicode="&#x219;" horiz-adv-x="383" 
d="M173 -13q-90 0 -153 49l21 73q36 -28 65 -39t65 -11q44 0 68 19.5t24 53.5q0 33 -17 55t-73 38q-70 20 -102.5 58t-32.5 93q0 68 45.5 108.5t124.5 40.5q80 0 135 -45l-20 -72q-31 25 -57 35t-58 10q-41 0 -63.5 -18t-22.5 -52q0 -33 17.5 -51t69.5 -34q73 -22 107 -61.5
t34 -98.5q0 -69 -48.5 -110t-128.5 -41zM133 -214q41 13 60 50q-4 -1 -8 -1q-19 0 -31 13.5t-12 35.5q0 23 14.5 37t36.5 14q53 0 53 -61q0 -40 -24.5 -74.5t-62.5 -48.5z" />
    <glyph glyph-name="uni021A" unicode="&#x21a;" horiz-adv-x="489" 
d="M199 0v619h-184v81h459v-81h-184v-619h-91zM183 -213q38 13 58 46h-5q-19 0 -31.5 14t-12.5 36q0 23 14.5 37.5t37.5 14.5q54 0 54 -61q0 -40 -24.5 -74.5t-63.5 -48.5z" />
    <glyph glyph-name="uni021B" unicode="&#x21b;" horiz-adv-x="339" 
d="M318 13q-40 -23 -87 -23q-70 0 -103 40.5t-33 127.5v284h-86l9 70h77v167h86v-167h124v-70h-124v-274q0 -56 14 -79.5t48 -23.5q17 0 30 4t31 15zM154 -214q41 13 60 50q-4 -1 -8 -1q-19 0 -31 13.5t-12 35.5q0 23 14.5 37t36.5 14q53 0 53 -61q0 -40 -24.5 -74.5
t-62.5 -48.5z" />
    <glyph glyph-name="uni0237" unicode="&#x237;" horiz-adv-x="204" 
d="M-77 -208l16 70q16 -10 29 -13.5t31 -3.5q34 0 47 23t13 76v568h86v-578q0 -83 -33.5 -123t-105.5 -40q-23 0 -44 5t-39 16z" />
    <glyph glyph-name="circumflex" unicode="&#x2c6;" horiz-adv-x="380" 
d="M122 594h-74l102 153h80l102 -153h-76l-67 93z" />
    <glyph glyph-name="caron" unicode="&#x2c7;" horiz-adv-x="380" 
d="M258 747h74l-102 -153h-80l-102 153h76l67 -93z" />
    <glyph glyph-name="breve" unicode="&#x2d8;" horiz-adv-x="380" 
d="M190 656q32 0 47.5 21t17.5 66l62 -9q0 -64 -34 -100t-93 -36t-93 36t-34 100l62 9q2 -45 17.5 -66t47.5 -21z" />
    <glyph glyph-name="dotaccent" unicode="&#x2d9;" horiz-adv-x="380" 
d="M190 615q-25 0 -40 15.5t-15 40.5q0 26 15 41t40 15t40 -15t15 -41q0 -25 -15 -40.5t-40 -15.5z" />
    <glyph glyph-name="ring" unicode="&#x2da;" horiz-adv-x="380" 
d="M190 788q45 0 74.5 -28.5t29.5 -72.5q0 -43 -29.5 -72t-74.5 -29q-46 0 -75 29t-29 72q0 44 29 72.5t75 28.5zM190 629q24 0 39 16.5t15 41.5q0 26 -15 42t-39 16t-39 -16t-15 -42q0 -25 15 -41.5t39 -16.5z" />
    <glyph glyph-name="ogonek" unicode="&#x2db;" horiz-adv-x="380" 
d="M68 -139q0 48 32.5 91t94.5 75l33 -27q-97 -55 -97 -126q0 -49 42 -49q24 0 43 12l13 -50q-28 -16 -67 -16q-46 0 -70 24.5t-24 65.5z" />
    <glyph glyph-name="tilde" unicode="&#x2dc;" horiz-adv-x="380" 
d="M38 607q3 136 90 136q24 0 40.5 -10t35.5 -34q20 -25 28 -32t18 -7q16 0 23 19.5t7 63.5l62 -9q-3 -136 -90 -136q-24 0 -40.5 10t-35.5 34q-19 25 -27.5 32t-18.5 7q-16 0 -23 -19.5t-7 -63.5z" />
    <glyph glyph-name="hungarumlaut" unicode="&#x2dd;" horiz-adv-x="380" 
d="M149 594h-76l99 153h99zM301 594h-76l99 153h99z" />
    <glyph glyph-name="gravecomb" unicode="&#x300;" 
d="M-10 594l-122 153h99l99 -153h-76z" />
    <glyph glyph-name="acutecomb" unicode="&#x301;" 
d="M10 594h-76l99 153h99z" />
    <glyph glyph-name="uni0302" unicode="&#x302;" 
d="M-68 594h-74l102 153h80l102 -153h-76l-67 93z" />
    <glyph glyph-name="tildecomb" unicode="&#x303;" 
d="M-152 607q3 136 90 136q24 0 40.5 -10t35.5 -34q20 -25 28 -32t18 -7q16 0 23 19.5t7 63.5l62 -9q-3 -136 -90 -136q-24 0 -40.5 10t-35.5 34q-19 25 -27.5 32t-18.5 7q-16 0 -23 -19.5t-7 -63.5z" />
    <glyph glyph-name="uni0304" unicode="&#x304;" 
d="M-133 703h266v-63h-266v63z" />
    <glyph glyph-name="uni0306" unicode="&#x306;" 
d="M0 656q32 0 47.5 21t17.5 66l62 -9q0 -64 -34 -100t-93 -36t-93 36t-34 100l62 9q2 -45 17.5 -66t47.5 -21z" />
    <glyph glyph-name="uni0307" unicode="&#x307;" 
d="M0 615q-25 0 -40 15.5t-15 40.5q0 26 15 41t40 15t40 -15t15 -41q0 -25 -15 -40.5t-40 -15.5z" />
    <glyph glyph-name="uni0308" unicode="&#x308;" 
d="M-92 618q-23 0 -37.5 15t-14.5 38q0 24 14.5 38.5t37.5 14.5t37.5 -14.5t14.5 -38.5q0 -23 -14.5 -38t-37.5 -15zM92 618q-23 0 -37.5 15t-14.5 38q0 24 14.5 38.5t37.5 14.5t37.5 -14.5t14.5 -38.5q0 -23 -14.5 -38t-37.5 -15z" />
    <glyph glyph-name="uni030A" unicode="&#x30a;" 
d="M0 788q45 0 74.5 -28.5t29.5 -72.5q0 -43 -29.5 -72t-74.5 -29q-46 0 -75 29t-29 72q0 44 29 72.5t75 28.5zM0 629q24 0 39 16.5t15 41.5q0 26 -15 42t-39 16t-39 -16t-15 -42q0 -25 15 -41.5t39 -16.5z" />
    <glyph glyph-name="uni030B" unicode="&#x30b;" 
d="M-41 594h-76l99 153h99zM111 594h-76l99 153h99z" />
    <glyph glyph-name="uni030C" unicode="&#x30c;" 
d="M68 747h74l-102 -153h-80l-102 153h76l67 -93z" />
    <glyph glyph-name="uni0312" unicode="&#x312;" 
d="M61 743q-41 -13 -60 -50q4 1 8 1q19 0 31 -13t12 -36q0 -22 -13.5 -36.5t-36.5 -14.5q-54 0 -54 61q0 40 24.5 74.5t62.5 48.5z" />
    <glyph glyph-name="uni0315" unicode="&#x315;" 
d="M38 740q-4 -58 -11 -103.5t-18 -86.5h-59q5 45 8 90.5t4 99.5h76z" />
    <glyph glyph-name="dotbelowcomb" unicode="&#x323;" 
d="M0 -177q-25 0 -40 15.5t-15 40.5q0 26 15 41t40 15t40 -15t15 -41q0 -25 -15 -40.5t-40 -15.5z" />
    <glyph glyph-name="uni0326" unicode="&#x326;" 
d="M-61 -214q41 13 60 50q-4 -1 -8 -1q-19 0 -31 13.5t-12 35.5q0 23 14.5 37t36.5 14q53 0 53 -61q0 -40 -24.5 -74.5t-62.5 -48.5z" />
    <glyph glyph-name="uni0327" unicode="&#x327;" 
d="M-82 -213l14 48q25 -13 57 -13q21 0 35 9.5t14 28.5q0 35 -48 35q-19 0 -37 -5l25 125h50l-16 -76h4q41 0 63 -21.5t22 -59.5q0 -41 -28 -64t-78 -23q-25 0 -42.5 4t-34.5 12z" />
    <glyph glyph-name="uni0328" unicode="&#x328;" 
d="M-122 -139q0 48 32.5 91t94.5 75l33 -27q-97 -55 -97 -126q0 -49 42 -49q24 0 43 12l13 -50q-28 -16 -67 -16q-46 0 -70 24.5t-24 65.5z" />
    <glyph glyph-name="uni0344" unicode="&#x344;" 
d="M-38 608l46 188h92l-73 -188h-65zM-104 618q-23 0 -37.5 15t-14.5 38q0 24 14.5 38.5t37.5 14.5t37.5 -14.5t14.5 -38.5q0 -23 -14.5 -38t-37.5 -15zM136 618q-23 0 -37.5 15t-14.5 38q0 24 14.5 38.5t37.5 14.5t37.5 -14.5t14.5 -38.5q0 -23 -14.5 -38t-37.5 -15z" />
    <glyph glyph-name="uni0374" unicode="&#x374;" horiz-adv-x="182" 
d="M27 467l54 273h101l-78 -273h-77z" />
    <glyph glyph-name="uni0375" unicode="&#x375;" horiz-adv-x="182" 
d="M0 -104l78 273h77l-54 -273h-101z" />
    <glyph glyph-name="uni037E" unicode="&#x37e;" horiz-adv-x="208" 
d="M27 -118q31 17 51.5 46.5t24.5 63.5h-1q-26 0 -43 16.5t-17 44.5t17 44.5t43 16.5q32 0 48 -21.5t16 -59.5q0 -64 -29 -115.5t-79 -77.5zM104 398q-27 0 -43.5 17t-16.5 44q0 28 16.5 44.5t43.5 16.5t43.5 -16.5t16.5 -44.5q0 -27 -16.5 -44t-43.5 -17z" />
    <glyph glyph-name="tonos" unicode="&#x384;" horiz-adv-x="380" 
d="M119 608l48 188h103l-76 -188h-75z" />
    <glyph glyph-name="dieresistonos" unicode="&#x385;" horiz-adv-x="380" 
d="M136 608l46 188h92l-73 -188h-65zM70 618q-23 0 -37.5 15t-14.5 38q0 24 14.5 38.5t37.5 14.5t37.5 -14.5t14.5 -38.5q0 -23 -14.5 -38t-37.5 -15zM310 618q-23 0 -37.5 15t-14.5 38q0 24 14.5 38.5t37.5 14.5t37.5 -14.5t14.5 -38.5q0 -23 -14.5 -38t-37.5 -15z" />
    <glyph glyph-name="Alphatonos" unicode="&#x386;" horiz-adv-x="578" 
d="M469 0l-56 189h-238l-57 -189h-94l224 700h95l224 -700h-98zM198 267h191l-95 320zM20 478l30 222h101l-58 -222h-73z" />
    <glyph glyph-name="anoteleia" unicode="&#x387;" horiz-adv-x="208" 
d="M104 398q-27 0 -43.5 17t-16.5 44q0 28 16.5 44.5t43.5 16.5t43.5 -16.5t16.5 -44.5q0 -27 -16.5 -44t-43.5 -17z" />
    <glyph glyph-name="Epsilontonos" unicode="&#x388;" horiz-adv-x="616" 
d="M206 0v700h357l10 -81h-276v-223h252v-81h-252v-234h292l-10 -81h-373zM20 478l30 222h101l-58 -222h-73z" />
    <glyph glyph-name="Etatonos" unicode="&#x389;" horiz-adv-x="727" 
d="M206 0v700h91v-304h271v304h91v-700h-91v315h-271v-315h-91zM20 478l30 222h101l-58 -222h-73z" />
    <glyph glyph-name="Iotatonos" unicode="&#x38a;" horiz-adv-x="365" 
d="M206 0v700h91v-700h-91zM20 478l30 222h101l-58 -222h-73z" />
    <glyph glyph-name="Omicrontonos" unicode="&#x38c;" horiz-adv-x="759" 
d="M436 -16q-85 0 -148 45.5t-98 128t-35 192.5t35 192.5t98 128t148 45.5t148 -45.5t98 -128t35 -192.5t-35 -192.5t-98 -128t-148 -45.5zM436 65q90 0 138 76.5t48 208.5q0 131 -48 208t-138 77t-138 -77t-48 -208q0 -132 48 -208.5t138 -76.5zM20 478l30 222h101
l-58 -222h-73z" />
    <glyph glyph-name="Upsilontonos" unicode="&#x38e;" horiz-adv-x="718" 
d="M404 0v287l-210 413h100l158 -333l158 333h95l-210 -413v-287h-91zM20 478l30 222h101l-58 -222h-73z" />
    <glyph glyph-name="Omegatonos" unicode="&#x38f;" horiz-adv-x="765" 
d="M159 0v81h133q-59 47 -93 121t-34 168q0 99 32.5 177t93 123.5t144.5 45.5q85 0 145 -45.5t92.5 -123.5t32.5 -177q0 -94 -34 -168t-93 -121h135l-10 -81h-220v75q34 20 62.5 60.5t46.5 100t18 134.5q0 77 -19.5 136.5t-58.5 94t-97 34.5t-97 -34.5t-58.5 -94
t-19.5 -136.5q0 -75 18 -134.5t47 -100t62 -60.5v-75h-228zM20 478l30 222h101l-58 -222h-73z" />
    <glyph glyph-name="iotadieresistonos" unicode="&#x390;" horiz-adv-x="258" 
d="M164 -10q-55 0 -83 37t-28 120v365h86v-355q0 -43 8.5 -67.5t42.5 -24.5q12 0 20.5 3.5t20.5 10.5l16 -69q-36 -20 -83 -20zM55 608l46 188h92l-73 -188h-65zM-11 618q-23 0 -37.5 15t-14.5 38q0 24 14.5 38.5t37.5 14.5t37.5 -14.5t14.5 -38.5q0 -23 -14.5 -38
t-37.5 -15zM229 618q-23 0 -37.5 15t-14.5 38q0 24 14.5 38.5t37.5 14.5t37.5 -14.5t14.5 -38.5q0 -23 -14.5 -38t-37.5 -15z" />
    <glyph glyph-name="Alpha" unicode="&#x391;" horiz-adv-x="565" 
d="M456 0l-56 189h-238l-57 -189h-94l224 700h95l224 -700h-98zM185 267h191l-95 320z" />
    <glyph glyph-name="Beta" unicode="&#x392;" horiz-adv-x="525" 
d="M489 201q0 -92 -53.5 -146.5t-145.5 -54.5h-222v700h204q88 0 138.5 -48.5t50.5 -131.5q0 -55 -30.5 -96t-81.5 -56q63 -7 101.5 -52t38.5 -115zM259 400q57 0 85 31.5t28 88.5q0 105 -111 105h-104v-225h102zM280 75q59 0 88.5 33t29.5 93q0 59 -31.5 92t-95.5 33h-114
v-251h123z" />
    <glyph glyph-name="Gamma" unicode="&#x393;" horiz-adv-x="430" 
d="M68 0v700h337l10 -81h-256v-619h-91z" />
    <glyph glyph-name="uni0394" unicode="&#x394;" horiz-adv-x="567" 
d="M31 0v77l205 623h95l205 -623v-77h-505zM125 81h313l-156 509z" />
    <glyph glyph-name="Epsilon" unicode="&#x395;" horiz-adv-x="478" 
d="M68 0v700h357l10 -81h-276v-223h252v-81h-252v-234h292l-10 -81h-373z" />
    <glyph glyph-name="Zeta" unicode="&#x396;" horiz-adv-x="520" 
d="M42 0v75l330 545h-317l10 80h406v-75l-329 -545h340l-10 -80h-430z" />
    <glyph glyph-name="Eta" unicode="&#x397;" horiz-adv-x="589" 
d="M68 0v700h91v-304h271v304h91v-700h-91v315h-271v-315h-91z" />
    <glyph glyph-name="Theta" unicode="&#x398;" horiz-adv-x="646" 
d="M323 -16q-85 0 -148 45.5t-98 128t-35 192.5t35 192.5t98 128t148 45.5t148 -45.5t98 -128t35 -192.5t-35 -192.5t-98 -128t-148 -45.5zM323 65q90 0 138 76.5t48 208.5q0 131 -48 208t-138 77t-138 -77t-48 -208q0 -132 48 -208.5t138 -76.5zM198 318v81h249v-81h-249z
" />
    <glyph glyph-name="Iota" unicode="&#x399;" horiz-adv-x="227" 
d="M68 0v700h91v-700h-91z" />
    <glyph glyph-name="Kappa" unicode="&#x39a;" horiz-adv-x="548" 
d="M68 0v700h91v-351l253 351h100l-217 -294l242 -406h-106l-191 332l-81 -110v-222h-91z" />
    <glyph glyph-name="Lambda" unicode="&#x39b;" horiz-adv-x="535" 
d="M11 0l209 700h95l209 -700h-98l-160 583l-161 -583h-94z" />
    <glyph glyph-name="Mu" unicode="&#x39c;" horiz-adv-x="704" 
d="M68 0v700h114l173 -477l172 477h109v-700h-85v553l-160 -435h-78l-160 435v-553h-85z" />
    <glyph glyph-name="Nu" unicode="&#x39d;" horiz-adv-x="588" 
d="M68 0v700h91l274 -533v533h87v-700h-87l-278 535v-535h-87z" />
    <glyph glyph-name="Xi" unicode="&#x39e;" horiz-adv-x="482" 
d="M38 617v83h406v-83h-406zM104 314v83h274v-83h-274zM30 0v83h422v-83h-422z" />
    <glyph glyph-name="Omicron" unicode="&#x39f;" horiz-adv-x="646" 
d="M323 -16q-85 0 -148 45.5t-98 128t-35 192.5t35 192.5t98 128t148 45.5t148 -45.5t98 -128t35 -192.5t-35 -192.5t-98 -128t-148 -45.5zM323 65q90 0 138 76.5t48 208.5q0 131 -48 208t-138 77t-138 -77t-48 -208q0 -132 48 -208.5t138 -76.5z" />
    <glyph glyph-name="Pi" unicode="&#x3a0;" horiz-adv-x="584" 
d="M68 0v700h448v-700h-91v619h-266v-619h-91z" />
    <glyph glyph-name="Rho" unicode="&#x3a1;" horiz-adv-x="493" 
d="M249 264h-91v-264h-90v700h181q97 0 153 -59t56 -159t-56 -159t-153 -59zM241 340q62 0 93.5 37.5t31.5 104.5q0 68 -31.5 105t-93.5 37h-83v-284h83z" />
    <glyph glyph-name="Sigma" unicode="&#x3a3;" horiz-adv-x="492" 
d="M42 0v75l185 283l-178 267v75h392l9 -80h-298l172 -257l-186 -283h329l-9 -80h-416z" />
    <glyph glyph-name="Tau" unicode="&#x3a4;" horiz-adv-x="489" 
d="M199 0v619h-184v81h459v-81h-184v-619h-91z" />
    <glyph glyph-name="Upsilon" unicode="&#x3a5;" horiz-adv-x="537" 
d="M223 0v287l-210 413h100l158 -333l158 333h95l-210 -413v-287h-91z" />
    <glyph glyph-name="Phi" unicode="&#x3a6;" horiz-adv-x="670" 
d="M291 0v60q-117 12 -183 86t-66 207t66 207t183 86v70h87v-70q117 -11 183.5 -85t66.5 -208t-66.5 -208t-183.5 -85v-60h-87zM533 353q0 102 -40.5 155t-116.5 63v-436q75 10 116 63t41 155zM137 353q0 -101 40.5 -154.5t115.5 -63.5v436q-75 -11 -115.5 -64t-40.5 -154z
" />
    <glyph glyph-name="Chi" unicode="&#x3a7;" horiz-adv-x="540" 
d="M11 0l207 364l-191 336h101l144 -266l143 266h98l-191 -336l207 -364h-101l-160 294l-159 -294h-98z" />
    <glyph glyph-name="Psi" unicode="&#x3a8;" horiz-adv-x="614" 
d="M263 0v178q-79 9 -128.5 47t-73 99.5t-23.5 140.5v235h91v-227q0 -88 30.5 -145t103.5 -70v442h88v-442q73 13 103.5 70t30.5 145v227h91v-235q0 -79 -23.5 -140.5t-73 -99.5t-128.5 -47v-178h-88z" />
    <glyph glyph-name="uni03A9" unicode="&#x3a9;" horiz-adv-x="658" 
d="M52 0v81h133q-59 47 -93 121t-34 168q0 99 32.5 177t93 123.5t144.5 45.5q85 0 145 -45.5t92.5 -123.5t32.5 -177q0 -94 -34 -168t-93 -121h135l-10 -81h-220v75q34 20 62.5 60.5t46.5 100t18 134.5q0 77 -19.5 136.5t-58.5 94t-97 34.5t-97 -34.5t-58.5 -94
t-19.5 -136.5q0 -75 18 -134.5t47 -100t62 -60.5v-75h-228z" />
    <glyph glyph-name="Iotadieresis" unicode="&#x3aa;" horiz-adv-x="227" 
d="M68 0v700h91v-700h-91zM15 780q-24 0 -38.5 15t-14.5 39q0 25 14.5 39.5t38.5 14.5t38.5 -14.5t14.5 -39.5q0 -24 -14.5 -39t-38.5 -15zM213 780q-24 0 -38.5 15t-14.5 39q0 25 14.5 39.5t38.5 14.5t38.5 -14.5t14.5 -39.5q0 -24 -14.5 -39t-38.5 -15z" />
    <glyph glyph-name="Upsilondieresis" unicode="&#x3ab;" horiz-adv-x="537" 
d="M223 0v287l-210 413h100l158 -333l158 333h95l-210 -413v-287h-91zM174 780q-24 0 -38.5 15t-14.5 39q0 25 14.5 39.5t38.5 14.5t38.5 -14.5t14.5 -39.5q0 -24 -14.5 -39t-38.5 -15zM372 780q-24 0 -38.5 15t-14.5 39q0 25 14.5 39.5t38.5 14.5t38.5 -14.5t14.5 -39.5
q0 -24 -14.5 -39t-38.5 -15z" />
    <glyph glyph-name="alphatonos" unicode="&#x3ac;" horiz-adv-x="519" 
d="M218 -13q-55 0 -95.5 34.5t-62.5 95t-22 138.5q0 81 23 142t64.5 94.5t97.5 33.5q52 0 87 -29.5t52 -82.5q8 57 16 99h86q-11 -67 -17.5 -116t-10 -90.5t-6.5 -87.5q-1 -30 -1.5 -47.5t-0.5 -37.5q0 -37 8 -49t25 -12q8 0 13 1.5t13 7.5l15 -71q-13 -7 -29 -11t-36 -4
q-32 0 -54 20.5t-30 68.5q-19 -46 -53.5 -71.5t-81.5 -25.5zM237 62q53 0 82.5 52t29.5 142q0 91 -29 142.5t-82 51.5q-52 0 -81.5 -52t-29.5 -142q0 -91 29 -142.5t81 -51.5zM219 608l48 188h103l-76 -188h-75z" />
    <glyph glyph-name="epsilontonos" unicode="&#x3ad;" horiz-adv-x="412" 
d="M229 -13q-91 0 -138.5 41t-47.5 108q0 45 24.5 79t65.5 52q-40 16 -61 43.5t-21 68.5q0 61 45.5 103.5t131.5 42.5q90 0 141 -39l-18 -68q-24 17 -51.5 25t-62.5 8q-49 0 -73 -20t-24 -56q0 -40 25 -59t67 -19h82v-68h-100q-34 0 -58 -20t-24 -60q0 -43 27 -65.5
t76 -22.5q41 0 69.5 9.5t56.5 27.5l18 -68q-26 -20 -63 -31.5t-87 -11.5zM175 608l48 188h103l-76 -188h-75z" />
    <glyph glyph-name="etatonos" unicode="&#x3ae;" horiz-adv-x="503" 
d="M362 -216v511q0 80 -19 116.5t-67 36.5q-51 0 -77 -42t-26 -122v-284h-86v380q0 35 -5.5 48.5t-24.5 13.5q-15 0 -26 -9l-13 68q26 16 62 16q32 0 54 -19.5t31 -68.5q16 47 51 71.5t83 24.5q149 0 149 -215v-526h-86zM215 608l48 188h103l-76 -188h-75z" />
    <glyph glyph-name="iotatonos" unicode="&#x3af;" horiz-adv-x="258" 
d="M164 -10q-55 0 -83 37t-28 120v365h86v-355q0 -43 8.5 -67.5t42.5 -24.5q12 0 20.5 3.5t20.5 10.5l16 -69q-36 -20 -83 -20zM51 608l48 188h103l-76 -188h-75z" />
    <glyph glyph-name="upsilondieresistonos" unicode="&#x3b0;" horiz-adv-x="476" 
d="M243 -13q-88 0 -126.5 64t-38.5 186v143q0 35 -5.5 48.5t-19.5 13.5q-15 0 -26 -9l-13 68q23 16 62 16q47 0 67.5 -33.5t20.5 -111.5v-138q0 -88 17 -130t66 -42q53 0 74 48.5t21 157.5q0 61 -6 118.5t-18 125.5h85q12 -61 18.5 -111t6.5 -109q0 -155 -43.5 -230
t-141.5 -75zM204 608l46 188h92l-73 -188h-65zM138 618q-23 0 -37.5 15t-14.5 38q0 24 14.5 38.5t37.5 14.5t37.5 -14.5t14.5 -38.5q0 -23 -14.5 -38t-37.5 -15zM378 618q-23 0 -37.5 15t-14.5 38q0 24 14.5 38.5t37.5 14.5t37.5 -14.5t14.5 -38.5q0 -23 -14.5 -38
t-37.5 -15z" />
    <glyph glyph-name="alpha" unicode="&#x3b1;" horiz-adv-x="519" 
d="M218 -13q-55 0 -95.5 34.5t-62.5 95t-22 138.5q0 81 23 142t64.5 94.5t97.5 33.5q52 0 87 -29.5t52 -82.5q8 57 16 99h86q-11 -67 -17.5 -116t-10 -90.5t-6.5 -87.5q-1 -30 -1.5 -47.5t-0.5 -37.5q0 -37 8 -49t25 -12q8 0 13 1.5t13 7.5l15 -71q-13 -7 -29 -11t-36 -4
q-32 0 -54 20.5t-30 68.5q-19 -46 -53.5 -71.5t-81.5 -25.5zM237 62q53 0 82.5 52t29.5 142q0 91 -29 142.5t-82 51.5q-52 0 -81.5 -52t-29.5 -142q0 -91 29 -142.5t81 -51.5z" />
    <glyph glyph-name="beta" unicode="&#x3b2;" horiz-adv-x="489" 
d="M59 -216v731q0 125 50 181.5t133 56.5q55 0 92.5 -26t57.5 -69t20 -93q0 -113 -90 -162q61 -24 95 -76t34 -131q0 -93 -45.5 -151t-122.5 -58q-46 0 -81.5 16.5t-56.5 55.5v-275h-86zM264 62q98 0 98 144q0 151 -113 151h-57v75h54q41 0 60.5 36t19.5 86t-21 87t-68 37
q-43 0 -67.5 -35.5t-24.5 -127.5v-287q0 -91 33.5 -128.5t85.5 -37.5z" />
    <glyph glyph-name="gamma" unicode="&#x3b3;" horiz-adv-x="457" 
d="M191 -216v223l-113 391q-7 26 -13.5 35t-20.5 9q-13 0 -25 -8l-14 67q26 16 61 16q36 0 56.5 -19.5t33.5 -66.5l88 -323q38 99 67.5 201.5t40.5 202.5h90q-21 -126 -64.5 -254.5t-100.5 -256.5v-217h-86z" />
    <glyph glyph-name="delta" unicode="&#x3b4;" horiz-adv-x="474" 
d="M236 -13q-59 0 -103.5 30t-69.5 84t-25 126q0 85 34 142.5t98 81.5q-49 27 -70 61.5t-21 85.5q0 70 50.5 112.5t132.5 42.5q40 0 78.5 -14t66.5 -39l-19 -69q-30 25 -61 36t-60 11q-101 0 -101 -79q0 -34 19 -54t63 -43l40 -20q81 -40 114.5 -103.5t33.5 -142.5
q0 -76 -25.5 -132t-70.5 -86.5t-104 -30.5zM237 62q49 0 79.5 47.5t30.5 128.5q0 82 -28.5 129t-81.5 47q-49 0 -79.5 -47.5t-30.5 -128.5q0 -82 28.5 -129t81.5 -47z" />
    <glyph glyph-name="epsilon" unicode="&#x3b5;" horiz-adv-x="412" 
d="M229 -13q-91 0 -138.5 41t-47.5 108q0 45 24.5 79t65.5 52q-40 16 -61 43.5t-21 68.5q0 61 45.5 103.5t131.5 42.5q90 0 141 -39l-18 -68q-24 17 -51.5 25t-62.5 8q-49 0 -73 -20t-24 -56q0 -40 25 -59t67 -19h82v-68h-100q-34 0 -58 -20t-24 -60q0 -43 27 -65.5
t76 -22.5q41 0 69.5 9.5t56.5 27.5l18 -68q-26 -20 -63 -31.5t-87 -11.5z" />
    <glyph glyph-name="zeta" unicode="&#x3b6;" horiz-adv-x="376" 
d="M296 -209l-47 62q26 18 37.5 37.5t11.5 43.5q0 36 -17 50.5t-55 25.5l-37 11q-69 20 -107 69t-38 128q0 85 52.5 194t173.5 258h-216l9 70h302v-66q-85 -108 -136 -188.5t-74 -142.5t-23 -116q0 -51 22 -81t70 -45l42 -13q58 -18 89.5 -52.5t31.5 -95.5q0 -46 -21.5 -83
t-69.5 -66z" />
    <glyph glyph-name="eta" unicode="&#x3b7;" horiz-adv-x="503" 
d="M362 -216v511q0 80 -19 116.5t-67 36.5q-51 0 -77 -42t-26 -122v-284h-86v380q0 35 -5.5 48.5t-24.5 13.5q-15 0 -26 -9l-13 68q26 16 62 16q32 0 54 -19.5t31 -68.5q16 47 51 71.5t83 24.5q149 0 149 -215v-526h-86z" />
    <glyph glyph-name="theta" unicode="&#x3b8;" horiz-adv-x="507" 
d="M254 -13q-55 0 -94.5 29.5t-64 82t-36 122t-11.5 149.5t11.5 149.5t36 122t63.5 82t94 29.5q56 0 95 -29.5t63.5 -82t36 -122t11.5 -149.5q0 -107 -20.5 -194t-65.5 -138t-119 -51zM253 676q-43 0 -67.5 -36.5t-35 -95t-12.5 -126.5h231q-2 67 -12.5 126t-35 95.5
t-68.5 36.5zM254 64q35 0 57 23.5t34.5 63.5t18 91t6.5 106h-233q1 -55 6.5 -105.5t18 -91t35 -64t57.5 -23.5z" />
    <glyph glyph-name="iota" unicode="&#x3b9;" horiz-adv-x="258" 
d="M164 -10q-55 0 -83 37t-28 120v365h86v-355q0 -43 8.5 -67.5t42.5 -24.5q12 0 20.5 3.5t20.5 10.5l16 -69q-36 -20 -83 -20z" />
    <glyph glyph-name="kappa" unicode="&#x3ba;" horiz-adv-x="455" 
d="M59 0v512h86v-243l186 243h98l-160 -202l178 -310h-98l-134 242l-70 -88v-154h-86z" />
    <glyph glyph-name="lambda" unicode="&#x3bb;" horiz-adv-x="449" 
d="M18 0l180 531l-17 55q-15 51 -33.5 71.5t-44.5 20.5t-51 -17l-19 68q17 11 39 17.5t46 6.5q53 0 87.5 -37t59.5 -128l166 -588h-93l-102 407l-127 -407h-91z" />
    <glyph glyph-name="uni03BC" unicode="&#x3bc;" horiz-adv-x="500" 
d="M59 -216v728h86v-295q0 -72 18 -112.5t67 -40.5q104 0 104 164v284h86v-380q0 -35 5.5 -48.5t24.5 -13.5q16 0 26 9l13 -68q-26 -16 -62 -16q-32 0 -54.5 20t-30.5 70q-17 -49 -48.5 -73.5t-67.5 -24.5q-52 0 -81 37v-240h-86z" />
    <glyph glyph-name="nu" unicode="&#x3bd;" horiz-adv-x="450" 
d="M189 0l-111 399q-7 24 -13.5 33.5t-20.5 9.5q-13 0 -25 -8l-14 67q26 16 61 16q36 0 56.5 -19t33.5 -67l84 -327q37 102 65 202t40 206h90q-22 -132 -64.5 -256t-99.5 -256h-82z" />
    <glyph glyph-name="xi" unicode="&#x3be;" horiz-adv-x="418" 
d="M318 -209l-47 62q26 18 37.5 37.5t11.5 43.5q0 36 -17 50.5t-55 25.5l-37 11q-88 26 -131 68.5t-43 121.5q0 69 32.5 115t89.5 69q-49 19 -77.5 62t-28.5 98q0 94 52 146t140 52q78 0 139 -43l-18 -71q-55 39 -114 39q-110 0 -110 -123q0 -55 27 -88.5t75 -33.5h95v-77
h-102q-50 0 -80.5 -34t-30.5 -94q0 -40 11.5 -63t37.5 -37t69 -27l40 -12q62 -19 93.5 -54t31.5 -95q0 -46 -21.5 -83t-69.5 -66z" />
    <glyph glyph-name="omicron" unicode="&#x3bf;" horiz-adv-x="490" 
d="M245 -13q-62 0 -109 33.5t-72.5 94.5t-25.5 141q0 81 25.5 141.5t72.5 94t109 33.5q63 0 109.5 -33.5t72 -94t25.5 -141.5q0 -80 -25.5 -141t-72 -94.5t-109.5 -33.5zM245 62q57 0 87.5 52t30.5 142q0 89 -30.5 141.5t-87.5 52.5t-87.5 -52.5t-30.5 -141.5
q0 -90 30.5 -142t87.5 -52z" />
    <glyph glyph-name="pi" unicode="&#x3c0;" horiz-adv-x="547" 
d="M102 0v436h-85l10 76h485v-76h-84v-304q0 -35 5.5 -48.5t24.5 -13.5q16 0 26 9l13 -68q-26 -16 -63 -16q-40 0 -59.5 19.5t-26 52t-6.5 71.5v298h-153v-436h-87z" />
    <glyph glyph-name="rho" unicode="&#x3c1;" horiz-adv-x="497" 
d="M55 -216v463q0 130 53.5 204t146.5 74q96 0 150 -71t54 -198q0 -80 -22.5 -141t-64 -94.5t-98.5 -33.5q-47 0 -80.5 21.5t-52.5 60.5v-285h-86zM255 62q56 0 85.5 50.5t29.5 143.5q0 92 -29 143t-85 51q-55 0 -85 -50.5t-30 -143.5q0 -89 29.5 -141.5t84.5 -52.5z" />
    <glyph glyph-name="sigma1" unicode="&#x3c2;" horiz-adv-x="404" 
d="M221 -115q26 18 40.5 35t14.5 41q0 30 -12.5 45t-38.5 24l-31 11q-156 55 -156 240q0 72 24.5 127t70 86t107.5 31q46 0 80 -11t65 -37l-19 -71q-34 26 -59 35t-62 9q-56 0 -87 -44t-31 -115q0 -72 23 -111.5t83 -60.5l29 -10q50 -17 76.5 -47.5t26.5 -80.5
q0 -48 -24.5 -88.5t-72.5 -69.5z" />
    <glyph glyph-name="sigma" unicode="&#x3c3;" horiz-adv-x="505" 
d="M241 -13q-62 0 -107.5 33.5t-70.5 94t-25 140.5q0 79 25.5 136.5t71.5 89t107 31.5h243l-10 -76h-113q32 -28 56 -78t24 -115q0 -74 -25.5 -132t-70.5 -91t-105 -33zM241 62q55 0 83.5 48.5t28.5 134.5q0 124 -61 191h-50q-55 0 -85 -47.5t-30 -133.5q0 -90 30.5 -141.5
t83.5 -51.5z" />
    <glyph glyph-name="tau" unicode="&#x3c4;" horiz-adv-x="407" 
d="M256 -10q-44 0 -68 20t-33.5 55.5t-9.5 81.5v289h-132l10 76h352v-76h-144v-279q0 -52 11.5 -72t39.5 -20q20 0 45 15l15 -68q-19 -11 -39 -16.5t-47 -5.5z" />
    <glyph glyph-name="upsilon" unicode="&#x3c5;" horiz-adv-x="476" 
d="M243 -13q-88 0 -126.5 64t-38.5 186v143q0 35 -5.5 48.5t-19.5 13.5q-15 0 -26 -9l-13 68q23 16 62 16q47 0 67.5 -33.5t20.5 -111.5v-138q0 -88 17 -130t66 -42q53 0 74 48.5t21 157.5q0 61 -6 118.5t-18 125.5h85q12 -61 18.5 -111t6.5 -109q0 -155 -43.5 -230
t-141.5 -75z" />
    <glyph glyph-name="phi" unicode="&#x3c6;" horiz-adv-x="616" 
d="M265 -216v205q-113 13 -170 85.5t-57 181.5t56.5 181.5t170.5 85.5v177h86v-177q113 -13 170 -86t57 -182q0 -108 -56.5 -180.5t-170.5 -85.5v-205h-86zM489 255q0 91 -35.5 138t-105.5 56v-386q69 10 105 58t36 134zM127 256q0 -91 35.5 -137.5t105.5 -55.5v386
q-69 -10 -105 -58.5t-36 -134.5z" />
    <glyph glyph-name="chi" unicode="&#x3c7;" horiz-adv-x="443" 
d="M371 -229q-36 0 -53 18.5t-34 67.5l-71 205l-116 -278h-86l164 381l-82 233q-10 28 -18 36t-19 8q-13 0 -25 -8l-14 67q26 16 61 16q37 0 55 -18.5t34 -67.5l60 -181l108 262h85l-156 -362l92 -260q10 -28 18 -36t18 -8q14 0 26 8l14 -67q-26 -16 -61 -16z" />
    <glyph glyph-name="psi" unicode="&#x3c8;" horiz-adv-x="593" 
d="M254 -216v205q-100 11 -155 76t-55 183v264h86v-259q0 -88 30.5 -132t93.5 -54v633h86v-633q63 10 93 54t30 132v259h86v-264q0 -118 -55 -182.5t-154 -76.5v-205h-86z" />
    <glyph glyph-name="omega" unicode="&#x3c9;" horiz-adv-x="656" 
d="M197 -13q-46 0 -75.5 22.5t-45.5 59t-22 80t-6 86.5q0 59 15 132t49 145h88q-37 -86 -50 -150.5t-13 -129.5q0 -87 16.5 -127.5t53.5 -40.5q38 0 58 53.5t20 180.5v93h86v-93q0 -127 20.5 -180.5t57.5 -53.5q38 0 54 40.5t16 127.5q0 65 -13 129.5t-50 150.5h88
q34 -72 49 -145t15 -132q0 -43 -6 -86.5t-22 -80t-45 -59t-76 -22.5q-41 0 -77.5 33.5t-53.5 96.5q-17 -63 -53.5 -96.5t-77.5 -33.5z" />
    <glyph glyph-name="iotadieresis" unicode="&#x3ca;" horiz-adv-x="258" 
d="M164 -10q-55 0 -83 37t-28 120v365h86v-355q0 -43 8.5 -67.5t42.5 -24.5q12 0 20.5 3.5t20.5 10.5l16 -69q-36 -20 -83 -20zM1 618q-23 0 -37.5 15t-14.5 38q0 24 14.5 38.5t37.5 14.5t37.5 -14.5t14.5 -38.5q0 -23 -14.5 -38t-37.5 -15zM185 618q-23 0 -37.5 15
t-14.5 38q0 24 14.5 38.5t37.5 14.5t37.5 -14.5t14.5 -38.5q0 -23 -14.5 -38t-37.5 -15z" />
    <glyph glyph-name="upsilondieresis" unicode="&#x3cb;" horiz-adv-x="476" 
d="M243 -13q-88 0 -126.5 64t-38.5 186v143q0 35 -5.5 48.5t-19.5 13.5q-15 0 -26 -9l-13 68q23 16 62 16q47 0 67.5 -33.5t20.5 -111.5v-138q0 -88 17 -130t66 -42q53 0 74 48.5t21 157.5q0 61 -6 118.5t-18 125.5h85q12 -61 18.5 -111t6.5 -109q0 -155 -43.5 -230
t-141.5 -75zM150 618q-23 0 -37.5 15t-14.5 38q0 24 14.5 38.5t37.5 14.5t37.5 -14.5t14.5 -38.5q0 -23 -14.5 -38t-37.5 -15zM334 618q-23 0 -37.5 15t-14.5 38q0 24 14.5 38.5t37.5 14.5t37.5 -14.5t14.5 -38.5q0 -23 -14.5 -38t-37.5 -15z" />
    <glyph glyph-name="omicrontonos" unicode="&#x3cc;" horiz-adv-x="490" 
d="M245 -13q-62 0 -109 33.5t-72.5 94.5t-25.5 141q0 81 25.5 141.5t72.5 94t109 33.5q63 0 109.5 -33.5t72 -94t25.5 -141.5q0 -80 -25.5 -141t-72 -94.5t-109.5 -33.5zM245 62q57 0 87.5 52t30.5 142q0 89 -30.5 141.5t-87.5 52.5t-87.5 -52.5t-30.5 -141.5
q0 -90 30.5 -142t87.5 -52zM203 608l48 188h103l-76 -188h-75z" />
    <glyph glyph-name="upsilontonos" unicode="&#x3cd;" horiz-adv-x="476" 
d="M243 -13q-88 0 -126.5 64t-38.5 186v143q0 35 -5.5 48.5t-19.5 13.5q-15 0 -26 -9l-13 68q23 16 62 16q47 0 67.5 -33.5t20.5 -111.5v-138q0 -88 17 -130t66 -42q53 0 74 48.5t21 157.5q0 61 -6 118.5t-18 125.5h85q12 -61 18.5 -111t6.5 -109q0 -155 -43.5 -230
t-141.5 -75zM190 608l48 188h103l-76 -188h-75z" />
    <glyph glyph-name="omegatonos" unicode="&#x3ce;" horiz-adv-x="656" 
d="M197 -13q-46 0 -75.5 22.5t-45.5 59t-22 80t-6 86.5q0 59 15 132t49 145h88q-37 -86 -50 -150.5t-13 -129.5q0 -87 16.5 -127.5t53.5 -40.5q38 0 58 53.5t20 180.5v93h86v-93q0 -127 20.5 -180.5t57.5 -53.5q38 0 54 40.5t16 127.5q0 65 -13 129.5t-50 150.5h88
q34 -72 49 -145t15 -132q0 -43 -6 -86.5t-22 -80t-45 -59t-76 -22.5q-41 0 -77.5 33.5t-53.5 96.5q-17 -63 -53.5 -96.5t-77.5 -33.5zM286 608l48 188h103l-76 -188h-75z" />
    <glyph glyph-name="kaiSymbol" unicode="&#x3d7;" horiz-adv-x="463" 
d="M59 0v512h86v-243l186 243h98l-160 -201l120 -193q32 -51 49 -90t17 -86q0 -79 -48 -125t-127 -46q-43 0 -78.5 9t-70.5 30l20 70q28 -17 54 -25.5t66 -8.5q48 0 71.5 25.5t23.5 68.5q0 28 -11.5 60t-40.5 78l-101 162l-68 -86v-154h-86z" />
    <glyph glyph-name="uni0400" unicode="&#x400;" horiz-adv-x="478" 
d="M68 0v700h357l10 -81h-276v-223h252v-81h-252v-234h292l-10 -81h-373zM246 772l-141 127h113l118 -127h-90z" />
    <glyph glyph-name="uni0401" unicode="&#x401;" horiz-adv-x="478" 
d="M68 0v700h357l10 -81h-276v-223h252v-81h-252v-234h292l-10 -81h-373zM160 780q-24 0 -38.5 15t-14.5 39q0 25 14.5 39.5t38.5 14.5t38.5 -14.5t14.5 -39.5q0 -24 -14.5 -39t-38.5 -15zM358 780q-24 0 -38.5 15t-14.5 39q0 25 14.5 39.5t38.5 14.5t38.5 -14.5t14.5 -39.5
q0 -24 -14.5 -39t-38.5 -15z" />
    <glyph glyph-name="uni0402" unicode="&#x402;" horiz-adv-x="647" 
d="M417 -6q-10 0 -23.5 1.5t-23.5 4.5l8 77q10 -2 18 -3t15 -1q45 0 69 36.5t24 104.5q0 73 -28 107t-88 34q-33 0 -69 -8.5t-73 -29.5v-317h-91v619h-140v81h467v-81h-236v-229q42 25 81 34.5t79 9.5q91 0 140 -56.5t49 -161.5q0 -103 -47.5 -162.5t-130.5 -59.5z" />
    <glyph glyph-name="uni0403" unicode="&#x403;" horiz-adv-x="430" 
d="M68 0v700h337l10 -81h-256v-619h-91zM260 772h-90l118 127h113z" />
    <glyph glyph-name="uni0404" unicode="&#x404;" horiz-adv-x="547" 
d="M319 -16q-84 0 -146 43t-96.5 125t-34.5 199q0 124 35 205t97.5 120.5t144.5 39.5q50 0 97.5 -12t85.5 -38l-19 -79q-38 25 -79 36t-82 11q-80 0 -129 -57.5t-57 -182.5h282v-80h-282q6 -122 54.5 -185.5t132.5 -63.5q47 0 91.5 11.5t76.5 38.5l20 -76q-36 -29 -83 -42
t-109 -13z" />
    <glyph glyph-name="uni0405" unicode="&#x405;" horiz-adv-x="478" 
d="M439 182q0 -90 -57.5 -144t-154.5 -54q-119 0 -202 68l22 81q48 -39 87 -55t88 -16q59 0 92 29.5t33 82.5q0 34 -9.5 60t-37 47t-80.5 38q-89 29 -131 78t-42 123q0 89 55.5 142.5t151.5 53.5q103 0 176 -62l-20 -79q-43 35 -77.5 49t-78.5 14q-56 0 -87 -28t-31 -81
q0 -34 11 -57.5t38.5 -41t77.5 -34.5q91 -30 133.5 -82t42.5 -132z" />
    <glyph glyph-name="uni0406" unicode="&#x406;" horiz-adv-x="227" 
d="M68 0v700h91v-700h-91z" />
    <glyph glyph-name="uni0407" unicode="&#x407;" horiz-adv-x="227" 
d="M68 0v700h91v-700h-91zM15 780q-24 0 -38.5 15t-14.5 39q0 25 14.5 39.5t38.5 14.5t38.5 -14.5t14.5 -39.5q0 -24 -14.5 -39t-38.5 -15zM213 780q-24 0 -38.5 15t-14.5 39q0 25 14.5 39.5t38.5 14.5t38.5 -14.5t14.5 -39.5q0 -24 -14.5 -39t-38.5 -15z" />
    <glyph glyph-name="uni0408" unicode="&#x408;" horiz-adv-x="441" 
d="M167 -16q-41 0 -79.5 13t-60.5 32l20 76q50 -41 116 -41q70 0 96 46t26 157v433h91v-441q0 -142 -50 -208.5t-159 -66.5z" />
    <glyph glyph-name="uni0409" unicode="&#x409;" horiz-adv-x="850" 
d="M52 -6q-11 0 -23 2t-19 4l10 90q5 -2 11.5 -3.5t7.5 -1.5q18 0 32.5 6t26.5 25.5t21 59.5t16.5 108.5t12.5 171.5q3 57 4.5 95.5t3 72.5t2.5 76h354v-274h102q94 0 147 -56.5t53 -156.5q0 -99 -52 -156t-143 -57h-198v619h-179q-3 -51 -5 -90.5t-4 -79.5
q-7 -146 -21.5 -236t-36.5 -137.5t-53 -64.5t-70 -17zM609 351h-97v-276h97q55 0 84 35.5t29 102.5q0 68 -29 103t-84 35z" />
    <glyph glyph-name="uni040A" unicode="&#x40a;" horiz-adv-x="834" 
d="M798 213q0 -99 -52 -156t-143 -57h-198v315h-246v-315h-91v700h91v-304h246v304h91v-274h102q94 0 147 -56.5t53 -156.5zM593 351h-97v-276h97q55 0 84 35.5t29 102.5q0 68 -29 103t-84 35z" />
    <glyph glyph-name="uni040B" unicode="&#x40b;" horiz-adv-x="647" 
d="M155 0v619h-140v81h467v-81h-236v-229q42 25 81 34.5t79 9.5q93 0 141 -49.5t48 -134.5v-250h-91v238q0 117 -116 117q-33 0 -69 -8.5t-73 -29.5v-317h-91z" />
    <glyph glyph-name="uni040C" unicode="&#x40c;" horiz-adv-x="533" 
d="M68 0v700h91v-305h86l152 305h99l-173 -336l199 -364h-107l-166 314h-90v-314h-91zM290 772h-90l118 127h113z" />
    <glyph glyph-name="uni040D" unicode="&#x40d;" horiz-adv-x="593" 
d="M68 0v700h87v-541l281 541h89v-700h-87v540l-281 -540h-89zM284 772l-141 127h113l118 -127h-90z" />
    <glyph glyph-name="uni040E" unicode="&#x40e;" horiz-adv-x="536" 
d="M146 -16q-23 0 -38 3.5t-31 10.5l8 80q30 -15 56 -15q34 0 52.5 15.5t31.5 42.5l9 19l-221 560h103l165 -440l143 440h99l-206 -574q-26 -74 -69 -108t-102 -34zM414 879q-7 -67 -45 -103t-103 -36t-102.5 36t-45.5 103l75 10q7 -91 73 -91t73 91z" />
    <glyph glyph-name="uni040F" unicode="&#x40f;" horiz-adv-x="581" 
d="M68 0v700h91v-619h263v619h91v-700h-180v-170h-85v170h-180z" />
    <glyph glyph-name="uni0410" unicode="&#x410;" horiz-adv-x="565" 
d="M456 0l-56 189h-238l-57 -189h-94l224 700h95l224 -700h-98zM185 267h191l-95 320z" />
    <glyph glyph-name="uni0411" unicode="&#x411;" horiz-adv-x="506" 
d="M68 0v700h356l10 -81h-277v-205h107q97 0 151.5 -55t54.5 -152t-52 -152t-144 -55h-206zM157 339v-264h108q59 0 86.5 34.5t27.5 97.5t-30 97.5t-93 34.5h-99z" />
    <glyph glyph-name="uni0412" unicode="&#x412;" horiz-adv-x="525" 
d="M489 201q0 -92 -53.5 -146.5t-145.5 -54.5h-222v700h204q88 0 138.5 -48.5t50.5 -131.5q0 -55 -30.5 -96t-81.5 -56q63 -7 101.5 -52t38.5 -115zM259 400q57 0 85 31.5t28 88.5q0 105 -111 105h-104v-225h102zM280 75q59 0 88.5 33t29.5 93q0 59 -31.5 92t-95.5 33h-114
v-251h123z" />
    <glyph glyph-name="uni0413" unicode="&#x413;" horiz-adv-x="430" 
d="M68 0v700h337l10 -81h-256v-619h-91z" />
    <glyph glyph-name="uni0414" unicode="&#x414;" horiz-adv-x="628" 
d="M26 -170v251h60q32 62 44.5 160.5t21.5 252.5q3 53 4 103.5t2 102.5h367v-619h77v-251h-85v170h-406v-170h-85zM236 479q-7 -135 -19.5 -233t-39.5 -165h257v538h-191q-2 -41 -3.5 -72.5t-3.5 -67.5z" />
    <glyph glyph-name="uni0415" unicode="&#x415;" horiz-adv-x="478" 
d="M68 0v700h357l10 -81h-276v-223h252v-81h-252v-234h292l-10 -81h-373z" />
    <glyph glyph-name="uni0416" unicode="&#x416;" horiz-adv-x="825" 
d="M11 0l199 364l-173 336h99l152 -305h79v305h91v-305h79l152 305h99l-173 -336l199 -364h-107l-166 314h-83v-314h-91v314h-83l-166 -314h-107z" />
    <glyph glyph-name="uni0417" unicode="&#x417;" horiz-adv-x="467" 
d="M220 -16q-52 0 -100.5 12t-92.5 37l21 80q37 -25 81 -38t85 -13q59 0 92.5 35t33.5 103q0 62 -35.5 94t-91.5 32h-100v75h95q50 0 83 30t33 88q0 56 -31.5 87.5t-87.5 31.5q-80 0 -148 -40l-17 78q35 20 76 30t93 10q60 0 106 -23t72 -65t26 -101q0 -54 -26.5 -96
t-67.5 -62q55 -24 83.5 -70t28.5 -107q0 -64 -26.5 -110.5t-74 -72t-110.5 -25.5z" />
    <glyph glyph-name="uni0418" unicode="&#x418;" horiz-adv-x="593" 
d="M68 0v700h87v-541l281 541h89v-700h-87v540l-281 -540h-89z" />
    <glyph glyph-name="uni0419" unicode="&#x419;" horiz-adv-x="593" 
d="M68 0v700h87v-541l281 541h89v-700h-87v540l-281 -540h-89zM445 879q-7 -67 -45 -103t-103 -36t-102.5 36t-45.5 103l75 10q7 -91 73 -91t73 91z" />
    <glyph glyph-name="uni041A" unicode="&#x41a;" horiz-adv-x="533" 
d="M68 0v700h91v-305h86l152 305h99l-173 -336l199 -364h-107l-166 314h-90v-314h-91z" />
    <glyph glyph-name="uni041B" unicode="&#x41b;" horiz-adv-x="602" 
d="M52 -6q-11 0 -23 2t-19 4l10 90q5 -2 11.5 -3.5t7.5 -1.5q18 0 32.5 6t26.5 25.5t21 59.5t16.5 108.5t12.5 171.5q3 57 4.5 95.5t3 72.5t2.5 76h376v-700h-91v619h-201q-3 -51 -5 -90.5t-4 -79.5q-7 -146 -21.5 -236t-36.5 -137.5t-53 -64.5t-70 -17z" />
    <glyph glyph-name="uni041C" unicode="&#x41c;" horiz-adv-x="704" 
d="M68 0v700h114l173 -477l172 477h109v-700h-85v553l-160 -435h-78l-160 435v-553h-85z" />
    <glyph glyph-name="uni041D" unicode="&#x41d;" horiz-adv-x="589" 
d="M68 0v700h91v-304h271v304h91v-700h-91v315h-271v-315h-91z" />
    <glyph glyph-name="uni041E" unicode="&#x41e;" horiz-adv-x="646" 
d="M323 -16q-85 0 -148 45.5t-98 128t-35 192.5t35 192.5t98 128t148 45.5t148 -45.5t98 -128t35 -192.5t-35 -192.5t-98 -128t-148 -45.5zM323 65q90 0 138 76.5t48 208.5q0 131 -48 208t-138 77t-138 -77t-48 -208q0 -132 48 -208.5t138 -76.5z" />
    <glyph glyph-name="uni041F" unicode="&#x41f;" horiz-adv-x="583" 
d="M68 0v700h447v-700h-91v619h-265v-619h-91z" />
    <glyph glyph-name="uni0420" unicode="&#x420;" horiz-adv-x="493" 
d="M249 264h-91v-264h-90v700h181q97 0 153 -59t56 -159t-56 -159t-153 -59zM241 340q62 0 93.5 37.5t31.5 104.5q0 68 -31.5 105t-93.5 37h-83v-284h83z" />
    <glyph glyph-name="uni0421" unicode="&#x421;" horiz-adv-x="548" 
d="M42 346q0 113 36.5 196t103.5 128.5t158 45.5q45 0 88 -13.5t77 -36.5l-21 -79q-69 48 -143 48q-96 0 -150 -74.5t-54 -208.5q0 -138 53 -212.5t152 -74.5q71 0 150 50l20 -76q-36 -27 -81 -41t-94 -14q-91 0 -157.5 43t-102 124t-35.5 195z" />
    <glyph glyph-name="uni0422" unicode="&#x422;" horiz-adv-x="489" 
d="M199 0v619h-184v81h459v-81h-184v-619h-91z" />
    <glyph glyph-name="uni0423" unicode="&#x423;" horiz-adv-x="536" 
d="M146 -16q-23 0 -38 3.5t-31 10.5l8 80q30 -15 56 -15q34 0 52.5 15.5t31.5 42.5l9 19l-221 560h103l165 -440l143 440h99l-206 -574q-26 -74 -69 -108t-102 -34z" />
    <glyph glyph-name="uni0424" unicode="&#x424;" horiz-adv-x="670" 
d="M291 0v60q-117 12 -183 86t-66 207t66 207t183 86v70h87v-70q117 -11 183.5 -85t66.5 -208t-66.5 -208t-183.5 -85v-60h-87zM533 353q0 102 -40.5 155t-116.5 63v-436q75 10 116 63t41 155zM137 353q0 -101 40.5 -154.5t115.5 -63.5v436q-75 -11 -115.5 -64t-40.5 -154z
" />
    <glyph glyph-name="uni0425" unicode="&#x425;" horiz-adv-x="540" 
d="M11 0l207 364l-191 336h101l144 -266l143 266h98l-191 -336l207 -364h-101l-160 294l-159 -294h-98z" />
    <glyph glyph-name="uni0426" unicode="&#x426;" horiz-adv-x="611" 
d="M585 81v-251h-85v170h-432v700h91v-619h259v619h91v-619h76z" />
    <glyph glyph-name="uni0427" unicode="&#x427;" horiz-adv-x="564" 
d="M496 0h-91v284q-47 -25 -85.5 -32.5t-82.5 -7.5q-88 0 -138.5 54t-50.5 148v254h91v-243q0 -134 114 -134q34 0 71.5 8.5t80.5 32.5v336h91v-700z" />
    <glyph glyph-name="uni0428" unicode="&#x428;" horiz-adv-x="797" 
d="M729 0h-661v700h91v-619h194v619h91v-619h194v619h91v-700z" />
    <glyph glyph-name="uni0429" unicode="&#x429;" horiz-adv-x="832" 
d="M806 81v-251h-85v170h-653v700h91v-619h194v619h91v-619h194v619h91v-619h77z" />
    <glyph glyph-name="uni042A" unicode="&#x42a;" horiz-adv-x="623" 
d="M383 0h-206v619h-166l9 81h248v-256h113q95 0 150.5 -60t55.5 -162q0 -104 -54.5 -163t-149.5 -59zM268 369v-294h106q59 0 90.5 38t31.5 109t-31.5 109t-90.5 38h-106z" />
    <glyph glyph-name="uni042B" unicode="&#x42b;" horiz-adv-x="718" 
d="M68 0v700h91v-256h113q95 0 150.5 -60t55.5 -162q0 -104 -54.5 -163t-149.5 -59h-206zM559 0v700h91v-700h-91zM159 75h106q59 0 90.5 38t31.5 109t-31.5 109t-90.5 38h-106v-294z" />
    <glyph glyph-name="uni042C" unicode="&#x42c;" horiz-adv-x="514" 
d="M274 0h-206v700h91v-256h113q95 0 150.5 -60t55.5 -162q0 -104 -54.5 -163t-149.5 -59zM159 369v-294h106q59 0 90.5 38t31.5 109t-31.5 109t-90.5 38h-106z" />
    <glyph glyph-name="uni042D" unicode="&#x42d;" horiz-adv-x="547" 
d="M505 351q0 -117 -34.5 -199t-96.5 -125t-146 -43q-61 0 -108.5 13t-83.5 42l20 76q32 -27 77 -38.5t91 -11.5q84 0 132.5 63.5t54.5 185.5h-282v80h282q-8 125 -57 182.5t-129 57.5q-41 0 -82 -11t-79 -36l-19 79q38 26 85.5 38t97.5 12q82 0 144.5 -39.5t97.5 -120.5
t35 -205z" />
    <glyph glyph-name="uni042E" unicode="&#x42e;" horiz-adv-x="842" 
d="M159 0h-91v700h91v-304h89q7 97 42.5 169t95 111.5t137.5 39.5q84 0 146.5 -45.5t96.5 -128t34 -192.5t-34 -192.5t-96.5 -128t-146.5 -45.5q-79 0 -139.5 41t-96 115.5t-40.5 174.5h-88v-315zM523 65q88 0 135 76.5t47 208.5q0 131 -47 208t-135 77t-135 -77t-47 -208
q0 -132 47 -208.5t135 -76.5z" />
    <glyph glyph-name="uni042F" unicode="&#x42f;" horiz-adv-x="529" 
d="M132 0h-99l146 302q-55 23 -83.5 72.5t-28.5 115.5q0 97 55.5 153.5t151.5 56.5h187v-700h-90v280h-97h-12zM159 490q0 -64 32.5 -99t90.5 -35h89v268h-89q-59 0 -91 -35t-32 -99z" />
    <glyph glyph-name="uni0430" unicode="&#x430;" horiz-adv-x="445" 
d="M390 328v-328h-77l-3 78q-34 -91 -136 -91q-64 0 -101.5 42t-37.5 113q0 87 57.5 130.5t176.5 45.5l36 1v4q0 69 -23 99t-79 30q-35 0 -63.5 -11t-62.5 -38l-19 70q35 28 74.5 40t79.5 12q178 0 178 -197zM119 145q0 -87 79 -87q54 0 80.5 40t26.5 116v43l-30 -1
q-84 -1 -120 -26.5t-36 -84.5z" />
    <glyph glyph-name="uni0431" unicode="&#x431;" horiz-adv-x="493" 
d="M455 245q0 -74 -25 -132.5t-71 -92t-108 -33.5q-111 0 -160.5 91t-49.5 257q0 170 42 263t128 117q61 17 108 24.5t99 13.5l12 -84q-42 -4 -93.5 -12t-95.5 -21q-33 -10 -58.5 -35t-41 -76.5t-17.5 -138.5q20 47 58 80.5t96 33.5q79 0 128 -66.5t49 -188.5zM136 260
q0 -94 28.5 -146t85.5 -52q56 0 86 50.5t30 132.5q0 78 -28.5 129t-86.5 51q-34 0 -60 -22.5t-40.5 -59.5t-14.5 -83z" />
    <glyph glyph-name="uni0432" unicode="&#x432;" horiz-adv-x="439" 
d="M240 0h-181v512h170q74 0 120.5 -32.5t46.5 -96.5q0 -45 -19.5 -72.5t-50.5 -41.5q39 -12 61.5 -42.5t22.5 -76.5q0 -73 -48 -111.5t-122 -38.5zM143 442v-144h81q44 0 65.5 20t21.5 57q0 67 -87 67h-81zM143 228v-158h93q45 0 67 21t22 58q0 38 -23.5 58.5t-72.5 20.5
h-86z" />
    <glyph glyph-name="uni0433" unicode="&#x433;" horiz-adv-x="345" 
d="M145 0h-86v512h272l8 -70h-194v-442z" />
    <glyph glyph-name="uni0434" unicode="&#x434;" horiz-adv-x="504" 
d="M12 -142v212h51q14 37 23 67.5t15 62t9.5 70t5.5 90.5q2 36 2.5 60.5t1 45.5t0.5 46h304v-442h68v-212h-80v142h-320v-142h-80zM194 350q-4 -72 -11 -120.5t-17 -85.5t-24 -74h196v372h-140q0 -26 -1.5 -47t-2.5 -45z" />
    <glyph glyph-name="uni0435" unicode="&#x435;" horiz-adv-x="454" 
d="M419 253q0 -4 -0.5 -11t-1.5 -12h-294q6 -83 41 -126.5t100 -43.5q33 0 60.5 9.5t60.5 33.5l18 -71q-64 -45 -149 -45q-102 0 -159 72t-57 196q0 82 24.5 142.5t69 94t104.5 33.5q92 0 137.5 -70t45.5 -202zM234 454q-48 0 -76 -40.5t-33 -117.5h211q-4 81 -27.5 119.5
t-74.5 38.5z" />
    <glyph glyph-name="uni0436" unicode="&#x436;" horiz-adv-x="660" 
d="M103 0h-95l144 265l-127 247h91l105 -216h67v216h84v-216h67l105 216h91l-127 -247l144 -265h-95l-118 226h-67v-226h-84v226h-67z" />
    <glyph glyph-name="uni0437" unicode="&#x437;" horiz-adv-x="399" 
d="M179 453q-37 0 -69.5 -12t-60.5 -33l-18 70q35 26 75.5 37t83.5 11q80 0 122.5 -40.5t42.5 -105.5q0 -38 -19 -66.5t-50 -44.5q83 -29 83 -122q0 -73 -50.5 -116.5t-134.5 -43.5q-95 0 -158 47l19 72q22 -19 58 -33t74 -14q52 0 79.5 23t27.5 66q0 35 -20 57t-57 22h-86
v72h71q35 0 56.5 21t21.5 53q0 80 -91 80z" />
    <glyph glyph-name="uni0438" unicode="&#x438;" horiz-adv-x="485" 
d="M59 512h84v-362l202 362h81v-512h-84v362l-202 -362h-81v512z" />
    <glyph glyph-name="uni0439" unicode="&#x439;" horiz-adv-x="485" 
d="M59 512h84v-362l202 362h81v-512h-84v362l-202 -362h-81v512zM243 586q-64 0 -99 34t-43 113l73 10q3 -55 20.5 -78t48.5 -23t48.5 23t20.5 78l73 -10q-7 -79 -42.5 -113t-99.5 -34z" />
    <glyph glyph-name="uni043A" unicode="&#x43a;" horiz-adv-x="444" 
d="M145 0h-86v512h86v-216h65l118 216h91l-139 -247l156 -265h-95l-130 226h-66v-226z" />
    <glyph glyph-name="uni043B" unicode="&#x43b;" horiz-adv-x="485" 
d="M119 512h307v-512h-86v442h-143q-2 -59 -4 -108t-5 -88q-7 -96 -20.5 -150.5t-39.5 -77t-71 -22.5q-27 0 -43 7l8 75q9 -4 23 -4t24.5 4.5t17.5 21.5t12.5 53.5t9.5 100.5q5 62 7 125t3 133z" />
    <glyph glyph-name="uni043C" unicode="&#x43c;" horiz-adv-x="600" 
d="M266 78l-127 304v-382h-80v512h106l137 -338l137 338h102v-512h-80v382l-127 -304h-68z" />
    <glyph glyph-name="uni043D" unicode="&#x43d;" horiz-adv-x="479" 
d="M145 0h-86v512h86v-212h189v212h86v-512h-86v230h-189v-230z" />
    <glyph glyph-name="uni043E" unicode="&#x43e;" horiz-adv-x="490" 
d="M245 -13q-62 0 -109 33.5t-72.5 94.5t-25.5 141q0 81 25.5 141.5t72.5 94t109 33.5q63 0 109.5 -33.5t72 -94t25.5 -141.5q0 -80 -25.5 -141t-72 -94.5t-109.5 -33.5zM245 62q57 0 87.5 52t30.5 142q0 89 -30.5 141.5t-87.5 52.5t-87.5 -52.5t-30.5 -141.5
q0 -90 30.5 -142t87.5 -52z" />
    <glyph glyph-name="uni043F" unicode="&#x43f;" horiz-adv-x="476" 
d="M145 0h-86v512h358v-512h-86v442h-186v-442z" />
    <glyph glyph-name="uni0440" unicode="&#x440;" horiz-adv-x="502" 
d="M277 -13q-92 0 -132 83v-286h-86v728h78l3 -88q40 101 144 101q54 0 94.5 -34.5t63 -95t22.5 -139.5t-23.5 -139.5t-65.5 -95t-98 -34.5zM139 256q0 -90 31.5 -142t87.5 -52t86.5 52t30.5 142q0 89 -30 141.5t-86 52.5q-57 0 -88.5 -51.5t-31.5 -142.5z" />
    <glyph glyph-name="uni0441" unicode="&#x441;" horiz-adv-x="424" 
d="M38 253q0 81 27 142.5t78 95.5t122 34q32 0 64 -8.5t57 -25.5l-19 -72q-47 31 -99 31q-67 0 -104 -50.5t-37 -142.5q0 -94 36.5 -144.5t106.5 -50.5q24 0 49.5 8t52.5 25l19 -70q-26 -19 -60 -28.5t-69 -9.5q-106 0 -165 71t-59 195z" />
    <glyph glyph-name="uni0442" unicode="&#x442;" horiz-adv-x="386" 
d="M236 0h-86v442h-139v70h364v-70h-139v-442z" />
    <glyph glyph-name="uni0443" unicode="&#x443;" horiz-adv-x="442" 
d="M24 -212l11 71q18 -13 50 -13q24 0 37.5 11t25.5 39t29 80l3 10l-172 526h95l119 -409l122 409h90l-178 -546q-23 -71 -45 -114t-50.5 -62t-72.5 -19q-41 0 -64 17z" />
    <glyph glyph-name="uni0444" unicode="&#x444;" horiz-adv-x="616" 
d="M265 -216v205q-113 13 -170 85.5t-57 181.5t56.5 181.5t170.5 85.5v177h86v-177q113 -13 170 -86t57 -182q0 -108 -56.5 -180.5t-170.5 -85.5v-205h-86zM489 255q0 91 -35.5 138t-105.5 56v-386q69 10 105 58t36 134zM127 256q0 -91 35.5 -137.5t105.5 -55.5v386
q-69 -10 -105 -58.5t-36 -134.5z" />
    <glyph glyph-name="uni0445" unicode="&#x445;" horiz-adv-x="450" 
d="M18 0l161 263l-155 249h99l104 -182l106 182h93l-153 -246l159 -266h-99l-109 198l-113 -198h-93z" />
    <glyph glyph-name="uni0446" unicode="&#x446;" horiz-adv-x="494" 
d="M482 70v-212h-80v142h-343v512h86v-442h183v442h86v-442h68z" />
    <glyph glyph-name="uni0447" unicode="&#x447;" horiz-adv-x="448" 
d="M28 323v189h86v-181q0 -90 80 -90q66 0 109 38v233h86v-512h-86v207q-30 -19 -60.5 -27.5t-62.5 -8.5q-70 0 -111 41t-41 111z" />
    <glyph glyph-name="uni0448" unicode="&#x448;" horiz-adv-x="672" 
d="M613 0h-554v512h86v-442h148v442h86v-442h148v442h86v-512z" />
    <glyph glyph-name="uni0449" unicode="&#x449;" horiz-adv-x="693" 
d="M681 70v-212h-80v142h-542v512h86v-442h148v442h86v-442h148v442h86v-442h68z" />
    <glyph glyph-name="uni044A" unicode="&#x44a;" horiz-adv-x="489" 
d="M296 0h-173v442h-113l9 70h190v-170h87q81 0 126.5 -45t45.5 -126q0 -82 -44.5 -126.5t-127.5 -44.5zM209 272v-203h80q92 0 92 102q0 101 -92 101h-80z" />
    <glyph glyph-name="uni044B" unicode="&#x44b;" horiz-adv-x="615" 
d="M59 0v512h86v-170h87q81 0 126.5 -45t45.5 -126q0 -82 -44.5 -126.5t-127.5 -44.5h-173zM470 0v512h86v-512h-86zM145 69h80q92 0 92 102q0 101 -92 101h-80v-203z" />
    <glyph glyph-name="uni044C" unicode="&#x44c;" horiz-adv-x="425" 
d="M232 0h-173v512h86v-170h87q81 0 126.5 -45t45.5 -126q0 -82 -44.5 -126.5t-127.5 -44.5zM145 272v-203h80q92 0 92 102q0 101 -92 101h-80z" />
    <glyph glyph-name="uni044D" unicode="&#x44d;" horiz-adv-x="426" 
d="M179 -13q-44 0 -83.5 11t-68.5 33l19 72q28 -22 59.5 -31.5t68.5 -9.5q120 0 129 167h-204v68h203q-7 74 -41 113.5t-93 39.5q-31 0 -58.5 -7t-60.5 -27l-19 72q33 20 68.5 28.5t76.5 8.5q100 0 156.5 -72.5t56.5 -197.5q0 -124 -55.5 -196t-153.5 -72z" />
    <glyph glyph-name="uni044E" unicode="&#x44e;" horiz-adv-x="666" 
d="M145 0h-86v512h86v-212h71q10 102 65 163.5t140 61.5q63 0 109.5 -33.5t72 -94t25.5 -141.5q0 -80 -25.5 -141t-72 -94.5t-109.5 -33.5q-59 0 -104 30t-71.5 85t-30.5 128h-70v-230zM421 62q57 0 87.5 52t30.5 142q0 89 -30.5 141.5t-87.5 52.5t-87.5 -52.5t-30.5 -141.5
q0 -90 30.5 -142t87.5 -52z" />
    <glyph glyph-name="uni044F" unicode="&#x44f;" horiz-adv-x="441" 
d="M35 0l97 197q-40 19 -62.5 57t-22.5 91q0 79 46 123t131 44h158v-512h-86v179h-79h-4l-85 -179h-93zM296 442h-68q-44 0 -70 -24.5t-26 -72.5t25 -72t71 -24h68v193z" />
    <glyph glyph-name="uni0450" unicode="&#x450;" horiz-adv-x="454" 
d="M419 253q0 -4 -0.5 -11t-1.5 -12h-294q6 -83 41 -126.5t100 -43.5q33 0 60.5 9.5t60.5 33.5l18 -71q-64 -45 -149 -45q-102 0 -159 72t-57 196q0 82 24.5 142.5t69 94t104.5 33.5q92 0 137.5 -70t45.5 -202zM234 454q-48 0 -76 -40.5t-33 -117.5h211q-4 81 -27.5 119.5
t-74.5 38.5zM226 594l-122 153h99l99 -153h-76z" />
    <glyph glyph-name="uni0451" unicode="&#x451;" horiz-adv-x="454" 
d="M419 253q0 -4 -0.5 -11t-1.5 -12h-294q6 -83 41 -126.5t100 -43.5q33 0 60.5 9.5t60.5 33.5l18 -71q-64 -45 -149 -45q-102 0 -159 72t-57 196q0 82 24.5 142.5t69 94t104.5 33.5q92 0 137.5 -70t45.5 -202zM234 454q-48 0 -76 -40.5t-33 -117.5h211q-4 81 -27.5 119.5
t-74.5 38.5zM144 618q-23 0 -37.5 15t-14.5 38q0 24 14.5 38.5t37.5 14.5t37.5 -14.5t14.5 -38.5q0 -23 -14.5 -38t-37.5 -15zM328 618q-23 0 -37.5 15t-14.5 38q0 24 14.5 38.5t37.5 14.5t37.5 -14.5t14.5 -38.5q0 -23 -14.5 -38t-37.5 -15z" />
    <glyph glyph-name="uni0452" unicode="&#x452;" horiz-adv-x="472" 
d="M266 -136q-11 0 -23.5 2t-23.5 5l9 74q8 -1 18 -2.5t20 -1.5q44 0 63 59.5t19 193.5q0 131 -20.5 186.5t-69.5 55.5q-51 0 -77 -42t-26 -122v-272h-86v588h-58v66h58v86h86v-86h144v-66h-144v-157q36 82 126 82q76 0 114.5 -80t38.5 -237q0 -332 -168 -332z" />
    <glyph glyph-name="uni0453" unicode="&#x453;" horiz-adv-x="345" 
d="M145 0h-86v512h272l8 -70h-194v-442zM209 594h-76l99 153h99z" />
    <glyph glyph-name="uni0454" unicode="&#x454;" horiz-adv-x="426" 
d="M247 -13q-97 0 -153 72t-56 196q0 125 56.5 197.5t156.5 72.5q41 0 76.5 -8.5t68.5 -28.5l-19 -72q-33 20 -60.5 27t-58.5 7q-59 0 -93 -39.5t-41 -113.5h203v-68h-204q9 -167 129 -167q38 0 69 9.5t59 31.5l19 -72q-28 -22 -68 -33t-84 -11z" />
    <glyph glyph-name="uni0455" unicode="&#x455;" horiz-adv-x="383" 
d="M173 -13q-90 0 -153 49l21 73q36 -28 65 -39t65 -11q44 0 68 19.5t24 53.5q0 33 -17 55t-73 38q-70 20 -102.5 58t-32.5 93q0 68 45.5 108.5t124.5 40.5q80 0 135 -45l-20 -72q-31 25 -57 35t-58 10q-41 0 -63.5 -18t-22.5 -52q0 -33 17.5 -51t69.5 -34q73 -22 107 -61.5
t34 -98.5q0 -69 -48.5 -110t-128.5 -41z" />
    <glyph glyph-name="uni0456" unicode="&#x456;" horiz-adv-x="204" 
d="M102 617q-25 0 -41 16.5t-16 43.5t16 43.5t41 16.5q26 0 41.5 -16.5t15.5 -43.5t-15.5 -43.5t-41.5 -16.5zM59 0v512h86v-512h-86z" />
    <glyph glyph-name="uni0457" unicode="&#x457;" horiz-adv-x="204" 
d="M59 0v512h86v-512h-86zM10 618q-23 0 -37.5 15t-14.5 38q0 24 14.5 38.5t37.5 14.5t37.5 -14.5t14.5 -38.5q0 -23 -14.5 -38t-37.5 -15zM194 618q-23 0 -37.5 15t-14.5 38q0 24 14.5 38.5t37.5 14.5t37.5 -14.5t14.5 -38.5q0 -23 -14.5 -38t-37.5 -15z" />
    <glyph glyph-name="uni0458" unicode="&#x458;" horiz-adv-x="204" 
d="M102 617q-25 0 -41 16.5t-16 43.5t16 43.5t41 16.5q26 0 41.5 -16.5t15.5 -43.5t-15.5 -43.5t-41.5 -16.5zM-77 -208l16 70q16 -10 29 -13.5t31 -3.5q34 0 47 23t13 76v568h86v-578q0 -83 -33.5 -123t-105.5 -40q-23 0 -44 5t-39 16z" />
    <glyph glyph-name="uni0459" unicode="&#x459;" horiz-adv-x="686" 
d="M119 512h297v-170h77q81 0 126.5 -45t45.5 -126q0 -82 -44.5 -126.5t-127.5 -44.5h-163v442h-133q-2 -59 -4 -108t-5 -88q-7 -96 -20.5 -150.5t-39.5 -77t-71 -22.5q-27 0 -43 7l8 75q9 -4 23 -4t24.5 4.5t17.5 21.5t12.5 53.5t9.5 100.5q5 62 7 125t3 133zM486 272h-70
v-203h70q92 0 92 102q0 101 -92 101z" />
    <glyph glyph-name="uni045A" unicode="&#x45a;" horiz-adv-x="682" 
d="M145 0h-86v512h86v-212h181v212h86v-170h77q81 0 126.5 -45t45.5 -126q0 -82 -44.5 -126.5t-127.5 -44.5h-163v230h-181v-230zM482 272h-70v-203h70q92 0 92 102q0 101 -92 101z" />
    <glyph glyph-name="uni045B" unicode="&#x45b;" horiz-adv-x="485" 
d="M299 588h-144v-157q36 82 126 82q149 0 149 -215v-298h-86v283q0 80 -19 116.5t-67 36.5q-51 0 -77 -42t-26 -122v-272h-86v588h-58v66h58v86h86v-86h144v-66z" />
    <glyph glyph-name="uni045C" unicode="&#x45c;" horiz-adv-x="444" 
d="M145 0h-86v512h86v-216h65l118 216h91l-139 -247l156 -265h-95l-130 226h-66v-226zM236 594h-76l99 153h99z" />
    <glyph glyph-name="uni045D" unicode="&#x45d;" horiz-adv-x="485" 
d="M59 512h84v-362l202 362h81v-512h-84v362l-202 -362h-81v512zM233 594l-122 153h99l99 -153h-76z" />
    <glyph glyph-name="uni045E" unicode="&#x45e;" horiz-adv-x="442" 
d="M24 -212l11 71q18 -13 50 -13q24 0 37.5 11t25.5 39t29 80l3 10l-172 526h95l119 -409l122 409h90l-178 -546q-23 -71 -45 -114t-50.5 -62t-72.5 -19q-41 0 -64 17zM221 586q-64 0 -99 34t-43 113l73 10q3 -55 20.5 -78t48.5 -23t48.5 23t20.5 78l73 -10
q-7 -79 -42.5 -113t-99.5 -34z" />
    <glyph glyph-name="uni045F" unicode="&#x45f;" horiz-adv-x="476" 
d="M198 -142v142h-139v512h86v-442h186v442h86v-512h-139v-142h-80z" />
    <glyph glyph-name="uni0462" unicode="&#x462;" horiz-adv-x="526" 
d="M286 0h-206v535h-85v73h85v92h91v-92h153v-73h-153v-91h113q95 0 150.5 -60t55.5 -162q0 -104 -54.5 -163t-149.5 -59zM171 369v-294h106q59 0 90.5 38t31.5 109t-31.5 109t-90.5 38h-106z" />
    <glyph glyph-name="uni0463" unicode="&#x463;" horiz-adv-x="425" 
d="M59 0v446h-66v66h66v228h86v-228h152v-66h-152v-104h87q81 0 126.5 -45t45.5 -126q0 -82 -44.5 -126.5t-127.5 -44.5h-173zM145 69h80q92 0 92 102q0 101 -92 101h-80v-203z" />
    <glyph glyph-name="uni0472" unicode="&#x472;" horiz-adv-x="646" 
d="M323 -16q-85 0 -148 45.5t-98 128t-35 192.5t35 192.5t98 128t148 45.5t148 -45.5t98 -128t35 -192.5t-35 -192.5t-98 -128t-148 -45.5zM321 378q40 -19 63 -23t45 -4q39 0 79 39q-7 114 -54.5 179.5t-130.5 65.5q-84 0 -131.5 -67t-53.5 -182q36 23 68 23q24 0 54 -7.5
t61 -23.5zM323 65q83 0 130.5 65.5t54.5 180.5q-46 -37 -87 -37q-23 0 -52 7t-63 24t-61 22.5t-47 5.5q-28 0 -60 -24q7 -114 54.5 -179t130.5 -65z" />
    <glyph glyph-name="uni0473" unicode="&#x473;" horiz-adv-x="490" 
d="M245 -13q-62 0 -109 33.5t-72.5 94.5t-25.5 141q0 81 25.5 141.5t72.5 94t109 33.5q63 0 109.5 -33.5t72 -94t25.5 -141.5q0 -80 -25.5 -141t-72 -94.5t-109.5 -33.5zM247 281q27 -17 43 -20t29 -3q25 0 44 17q-4 81 -34 128t-84 47q-50 0 -80 -41.5t-36 -113.5
q11 7 22 9.5t20 2.5q16 0 35.5 -6t40.5 -20zM245 62q49 0 78.5 38t36.5 106q-12 -7 -24 -10.5t-22 -3.5q-17 0 -35.5 6t-41.5 20q-22 14 -39.5 18.5t-32.5 4.5q-9 0 -18.5 -2.5t-18.5 -9.5q4 -78 34 -122.5t83 -44.5z" />
    <glyph glyph-name="uni0474" unicode="&#x474;" horiz-adv-x="588" 
d="M581 697l-12 -72q-7 3 -20 3q-19 0 -31.5 -24.5t-32.5 -90.5l-160 -513h-95l-219 700h98l171 -586l125 430q19 64 36 99t39 49t54 14q26 0 47 -9z" />
    <glyph glyph-name="uni0475" unicode="&#x475;" horiz-adv-x="458" 
d="M265 0h-90l-167 512h95l119 -408l82 278q20 68 41.5 101t69.5 33q8 0 20 -0.5t18 -2.5l-11 -74q-6 2 -13 2q-14 0 -22 -14.5t-23 -61.5z" />
    <glyph glyph-name="uni0490" unicode="&#x490;" horiz-adv-x="430" 
d="M68 0v700h262v140h85v-221h-256v-619h-91z" />
    <glyph glyph-name="uni0491" unicode="&#x491;" horiz-adv-x="345" 
d="M145 0h-86v512h200v122h80v-192h-194v-442z" />
    <glyph glyph-name="uni0492" unicode="&#x492;" horiz-adv-x="463" 
d="M101 0v316h-95v73h95v311h337l10 -81h-256v-230h157v-73h-157v-316h-91z" />
    <glyph glyph-name="uni0493" unicode="&#x493;" horiz-adv-x="366" 
d="M166 0h-86v212h-72v67h72v233h272l8 -70h-194v-163h122v-67h-122v-212z" />
    <glyph glyph-name="uni0496" unicode="&#x496;" horiz-adv-x="881" 
d="M11 0l199 364l-173 336h99l152 -305h79v305h91v-305h79l152 305h99l-173 -336l155 -283h85v-251h-85v170h-63l-166 314h-83v-314h-91v314h-83l-166 -314h-107z" />
    <glyph glyph-name="uni0497" unicode="&#x497;" horiz-adv-x="693" 
d="M103 0h-95l144 265l-127 247h91l105 -216h67v216h84v-216h67l105 216h91l-127 -247l106 -195h67v-212h-80v142h-44l-118 226h-67v-226h-84v226h-67z" />
    <glyph glyph-name="uni049A" unicode="&#x49a;" horiz-adv-x="589" 
d="M68 0v700h91v-305h86l152 305h99l-173 -336l155 -283h85v-251h-85v170h-63l-166 314h-90v-314h-91z" />
    <glyph glyph-name="uni049B" unicode="&#x49b;" horiz-adv-x="474" 
d="M145 0h-86v512h86v-216h65l118 216h91l-139 -247l115 -195h67v-212h-80v142h-41l-130 226h-66v-226z" />
    <glyph glyph-name="uni04A2" unicode="&#x4a2;" horiz-adv-x="624" 
d="M68 0v700h91v-304h271v304h91v-619h77v-251h-85v169h-40v1h-43v315h-271v-315h-91z" />
    <glyph glyph-name="uni04A3" unicode="&#x4a3;" horiz-adv-x="500" 
d="M145 0h-86v512h86v-212h189v212h86v-442h68v-212h-80v142h-74v230h-189v-230z" />
    <glyph glyph-name="uni04AE" unicode="&#x4ae;" horiz-adv-x="537" 
d="M223 0v287l-210 413h100l158 -333l158 333h95l-210 -413v-287h-91z" />
    <glyph glyph-name="uni04AF" unicode="&#x4af;" horiz-adv-x="440" 
d="M177 30l-169 482h95l119 -381l120 381h90l-169 -482v-246h-86v246z" />
    <glyph glyph-name="uni04B0" unicode="&#x4b0;" horiz-adv-x="537" 
d="M223 0v213h-150v73h150v1l-210 413h100l158 -333l158 333h95l-210 -413v-1h150v-73h-150v-213h-91z" />
    <glyph glyph-name="uni04B1" unicode="&#x4b1;" horiz-adv-x="440" 
d="M177 -216v216h-125v67h112l-156 445h95l119 -381l120 381h90l-156 -445h112v-67h-125v-216h-86z" />
    <glyph glyph-name="uni04BA" unicode="&#x4ba;" horiz-adv-x="560" 
d="M68 0v700h91v-304q42 25 81 34.5t79 9.5q93 0 141 -49.5t48 -134.5v-256h-91v244q0 117 -116 117q-33 0 -69 -8.5t-73 -29.5v-323h-91z" />
    <glyph glyph-name="uni04BB" unicode="&#x4bb;" horiz-adv-x="475" 
d="M145 284v-284h-86v740h86v-297q36 82 126 82q149 0 149 -215v-310h-86v295q0 80 -19 116.5t-67 36.5q-51 0 -77 -42t-26 -122z" />
    <glyph glyph-name="uni04D8" unicode="&#x4d8;" horiz-adv-x="588" 
d="M546 351q0 -111 -32 -193t-91 -126.5t-139 -44.5q-242 0 -242 366q0 13 3 29h409q-7 121 -56 185t-133 64q-42 0 -84.5 -12t-84.5 -41l-24 74q43 29 90 44.5t112 15.5q85 0 146 -43t93.5 -124t32.5 -194zM286 68q75 0 117.5 59.5t51.5 173.5h-324q7 -125 44.5 -179
t110.5 -54z" />
    <glyph glyph-name="uni04D9" unicode="&#x4d9;" horiz-adv-x="454" 
d="M218 -13q-91 0 -137 70t-46 202q0 5 0.5 11.5t1.5 11.5h294q-6 83 -41 126.5t-100 43.5q-33 0 -60.5 -9.5t-60.5 -33.5l-18 71q64 45 149 45q102 0 159 -72t57 -196q0 -82 -24.5 -142.5t-68.5 -94t-105 -33.5zM220 58q48 0 76 40.5t33 117.5h-211q4 -81 27.5 -119.5
t74.5 -38.5z" />
    <glyph glyph-name="uni04E8" unicode="&#x4e8;" horiz-adv-x="646" 
d="M323 -16q-85 0 -148 45.5t-98 128t-35 192.5t35 192.5t98 128t148 45.5t148 -45.5t98 -128t35 -192.5t-35 -192.5t-98 -128t-148 -45.5zM323 635q-82 0 -129.5 -65t-55.5 -177h370q-8 112 -55.5 177t-129.5 65zM323 65q84 0 131.5 67t53.5 184h-370q6 -117 53.5 -184
t131.5 -67z" />
    <glyph glyph-name="uni04E9" unicode="&#x4e9;" horiz-adv-x="490" 
d="M245 -13q-62 0 -109 33.5t-72.5 94.5t-25.5 141q0 81 25.5 141.5t72.5 94t109 33.5q63 0 109.5 -33.5t72 -94t25.5 -141.5q0 -80 -25.5 -141t-72 -94.5t-109.5 -33.5zM245 450q-51 0 -81 -43t-36 -117h234q-6 74 -36 117t-81 43zM245 62q52 0 82 43t35 119h-234
q5 -76 35 -119t82 -43z" />
    <glyph glyph-name="uni0E3F" unicode="&#xe3f;" horiz-adv-x="484" 
d="M458 196q0 -90 -51 -143t-137 -53v-110h-64v110h-157v684h157v110h64v-111q75 -7 117.5 -53.5t42.5 -121.5q0 -51 -26 -90.5t-69 -56.5q55 -11 89 -55t34 -110zM135 391h71v220h-71v-220zM344 508q0 84 -74 100v-213q37 9 55.5 38t18.5 75zM135 73h71v246h-71v-246z
M370 196q0 53 -25 84.5t-75 37.5v-244q50 4 75 35.5t25 86.5z" />
    <glyph glyph-name="uni1E24" unicode="&#x1e24;" horiz-adv-x="589" 
d="M68 0v700h91v-304h271v304h91v-700h-91v315h-271v-315h-91zM295 -179q-25 0 -40.5 16t-15.5 41q0 26 15.5 41.5t40.5 15.5q26 0 41 -15.5t15 -41.5q0 -25 -15 -41t-41 -16z" />
    <glyph glyph-name="uni1E25" unicode="&#x1e25;" horiz-adv-x="475" 
d="M145 284v-284h-86v740h86v-297q36 82 126 82q149 0 149 -215v-310h-86v295q0 80 -19 116.5t-67 36.5q-51 0 -77 -42t-26 -122zM240 -177q-25 0 -40 15.5t-15 40.5q0 26 15 41t40 15t40 -15t15 -41q0 -25 -15 -40.5t-40 -15.5z" />
    <glyph glyph-name="uni1E36" unicode="&#x1e36;" horiz-adv-x="451" 
d="M68 0v700h91v-619h281l-10 -81h-362zM265 -179q-25 0 -40.5 16t-15.5 41q0 26 15.5 41.5t40.5 15.5q26 0 41 -15.5t15 -41.5q0 -25 -15 -41t-41 -16z" />
    <glyph glyph-name="uni1E37" unicode="&#x1e37;" horiz-adv-x="204" 
d="M59 0v740h86v-740h-86zM102 -177q-25 0 -40 15.5t-15 40.5q0 26 15 41t40 15t40 -15t15 -41q0 -25 -15 -40.5t-40 -15.5z" />
    <glyph glyph-name="Wgrave" unicode="&#x1e80;" horiz-adv-x="792" 
d="M522 0l-126 558l-126 -558h-95l-161 700h97l116 -566l125 566h93l124 -563l117 563h92l-161 -700h-95zM386 772l-141 127h113l118 -127h-90z" />
    <glyph glyph-name="wgrave" unicode="&#x1e81;" horiz-adv-x="648" 
d="M143 0l-132 512h88l93 -411l89 411h88l89 -407l93 407h86l-132 -512h-90l-91 406l-91 -406h-90zM315 594l-122 153h99l99 -153h-76z" />
    <glyph glyph-name="Wacute" unicode="&#x1e82;" horiz-adv-x="792" 
d="M522 0l-126 558l-126 -558h-95l-161 700h97l116 -566l125 566h93l124 -563l117 563h92l-161 -700h-95zM412 772h-90l118 127h113z" />
    <glyph glyph-name="wacute" unicode="&#x1e83;" horiz-adv-x="648" 
d="M143 0l-132 512h88l93 -411l89 411h88l89 -407l93 407h86l-132 -512h-90l-91 406l-91 -406h-90zM335 594h-76l99 153h99z" />
    <glyph glyph-name="Wdieresis" unicode="&#x1e84;" horiz-adv-x="792" 
d="M522 0l-126 558l-126 -558h-95l-161 700h97l116 -566l125 566h93l124 -563l117 563h92l-161 -700h-95zM300 780q-24 0 -38.5 15t-14.5 39q0 25 14.5 39.5t38.5 14.5t38.5 -14.5t14.5 -39.5q0 -24 -14.5 -39t-38.5 -15zM498 780q-24 0 -38.5 15t-14.5 39q0 25 14.5 39.5
t38.5 14.5t38.5 -14.5t14.5 -39.5q0 -24 -14.5 -39t-38.5 -15z" />
    <glyph glyph-name="wdieresis" unicode="&#x1e85;" horiz-adv-x="648" 
d="M143 0l-132 512h88l93 -411l89 411h88l89 -407l93 407h86l-132 -512h-90l-91 406l-91 -406h-90zM233 618q-23 0 -37.5 15t-14.5 38q0 24 14.5 38.5t37.5 14.5t37.5 -14.5t14.5 -38.5q0 -23 -14.5 -38t-37.5 -15zM417 618q-23 0 -37.5 15t-14.5 38q0 24 14.5 38.5
t37.5 14.5t37.5 -14.5t14.5 -38.5q0 -23 -14.5 -38t-37.5 -15z" />
    <glyph glyph-name="uni1E9E" unicode="&#x1e9e;" horiz-adv-x="591" 
d="M555 195q0 -97 -55.5 -154t-152.5 -57q-85 0 -142 44l25 79q23 -22 50 -32.5t63 -10.5q56 0 86.5 35t30.5 97q0 65 -34 97t-109 36l-20 1v68l138 205q-55 33 -126 33q-79 0 -116 -48.5t-37 -147.5v-440h-91v448q0 132 63 200t181 68q113 0 206 -65v-73l-125 -187
q165 -23 165 -196z" />
    <glyph glyph-name="Ygrave" unicode="&#x1ef2;" horiz-adv-x="537" 
d="M223 0v287l-210 413h100l158 -333l158 333h95l-210 -413v-287h-91zM260 772l-141 127h113l118 -127h-90z" />
    <glyph glyph-name="ygrave" unicode="&#x1ef3;" horiz-adv-x="442" 
d="M24 -212l11 71q18 -13 50 -13q24 0 37.5 11t25.5 39t29 80l3 10l-172 526h95l119 -409l122 409h90l-178 -546q-23 -71 -45 -114t-50.5 -62t-72.5 -19q-41 0 -64 17zM211 594l-122 153h99l99 -153h-76z" />
    <glyph glyph-name="uni2000" unicode="&#x2000;" horiz-adv-x="390" 
 />
    <glyph glyph-name="uni2001" unicode="&#x2001;" horiz-adv-x="780" 
 />
    <glyph glyph-name="uni2002" unicode="&#x2002;" horiz-adv-x="390" 
 />
    <glyph glyph-name="uni2003" unicode="&#x2003;" horiz-adv-x="780" 
 />
    <glyph glyph-name="uni2004" unicode="&#x2004;" horiz-adv-x="260" 
 />
    <glyph glyph-name="uni2005" unicode="&#x2005;" horiz-adv-x="195" 
 />
    <glyph glyph-name="uni2006" unicode="&#x2006;" horiz-adv-x="130" 
 />
    <glyph glyph-name="uni2007" unicode="&#x2007;" horiz-adv-x="484" 
 />
    <glyph glyph-name="uni2008" unicode="&#x2008;" horiz-adv-x="208" 
 />
    <glyph glyph-name="uni2009" unicode="&#x2009;" horiz-adv-x="156" 
 />
    <glyph glyph-name="uni200A" unicode="&#x200a;" horiz-adv-x="48" 
 />
    <glyph glyph-name="uni200B" unicode="&#x200b;" 
 />
    <glyph glyph-name="endash" unicode="&#x2013;" horiz-adv-x="390" 
d="M0 250v81h390v-81h-390z" />
    <glyph glyph-name="emdash" unicode="&#x2014;" horiz-adv-x="780" 
d="M0 250v81h780v-81h-780z" />
    <glyph glyph-name="quoteleft" unicode="&#x2018;" horiz-adv-x="208" 
d="M44 528q0 62 28 112.5t74 75.5l28 -38q-32 -17 -52.5 -48t-24.5 -65q6 1 11 1q25 0 40.5 -16t15.5 -42q0 -28 -16 -44.5t-42 -16.5q-31 0 -46.5 21.5t-15.5 59.5z" />
    <glyph glyph-name="quoteright" unicode="&#x2019;" horiz-adv-x="208" 
d="M164 627q0 -62 -27.5 -112.5t-74.5 -75.5l-28 38q32 17 52.5 48t24.5 65q-6 -1 -11 -1q-25 0 -40.5 16t-15.5 42q0 28 16.5 44.5t41.5 16.5q31 0 46.5 -21.5t15.5 -59.5z" />
    <glyph glyph-name="quotesinglbase" unicode="&#x201a;" horiz-adv-x="208" 
d="M164 33q0 -62 -27.5 -112.5t-74.5 -75.5l-28 38q32 17 52.5 48t24.5 65q-6 -1 -11 -1q-25 0 -40.5 16t-15.5 42q0 28 16.5 44.5t41.5 16.5q31 0 46.5 -21.5t15.5 -59.5z" />
    <glyph glyph-name="quotedblleft" unicode="&#x201c;" horiz-adv-x="380" 
d="M44 528q0 62 28 112.5t74 75.5l28 -38q-32 -17 -52.5 -48t-24.5 -65q6 1 11 1q25 0 40.5 -16t15.5 -42q0 -28 -16 -44.5t-42 -16.5q-31 0 -46.5 21.5t-15.5 59.5zM216 528q0 62 28 112.5t74 75.5l28 -38q-32 -17 -52.5 -48t-24.5 -65q6 1 11 1q25 0 40.5 -16t15.5 -42
q0 -28 -16 -44.5t-42 -16.5q-31 0 -46.5 21.5t-15.5 59.5z" />
    <glyph glyph-name="quotedblright" unicode="&#x201d;" horiz-adv-x="380" 
d="M164 627q0 -62 -27.5 -112.5t-74.5 -75.5l-28 38q32 17 52.5 48t24.5 65q-6 -1 -11 -1q-25 0 -40.5 16t-15.5 42q0 28 16.5 44.5t41.5 16.5q31 0 46.5 -21.5t15.5 -59.5zM336 627q0 -62 -27.5 -112.5t-74.5 -75.5l-28 38q32 17 52.5 48t24.5 65q-6 -1 -11 -1
q-25 0 -40.5 16t-15.5 42q0 28 16.5 44.5t41.5 16.5q31 0 46.5 -21.5t15.5 -59.5z" />
    <glyph glyph-name="quotedblbase" unicode="&#x201e;" horiz-adv-x="380" 
d="M164 33q0 -62 -27.5 -112.5t-74.5 -75.5l-28 38q32 17 52.5 48t24.5 65q-6 -1 -11 -1q-25 0 -40.5 16t-15.5 42q0 28 16.5 44.5t41.5 16.5q31 0 46.5 -21.5t15.5 -59.5zM336 33q0 -62 -27.5 -112.5t-74.5 -75.5l-28 38q32 17 52.5 48t24.5 65q-6 -1 -11 -1
q-25 0 -40.5 16t-15.5 42q0 28 16.5 44.5t41.5 16.5q31 0 46.5 -21.5t15.5 -59.5z" />
    <glyph glyph-name="dagger" unicode="&#x2020;" horiz-adv-x="377" 
d="M234 -98h-91l8 553l-131 -4v77l131 -4l-8 216h91l-8 -216l131 4v-77l-131 4z" />
    <glyph glyph-name="daggerdbl" unicode="&#x2021;" horiz-adv-x="391" 
d="M150 321l8 138l-131 -4v77l131 -4l-8 212h91l-8 -212l131 4v-77l-131 4l8 -138l-8 -138l131 4v-77l-131 4l8 -212h-91l8 212l-131 -4v77l131 -4z" />
    <glyph glyph-name="bullet" unicode="&#x2022;" horiz-adv-x="310" 
d="M155 395q53 0 86 -34t33 -87q0 -52 -33 -86.5t-86 -34.5q-52 0 -85.5 34.5t-33.5 86.5q0 53 33.5 87t85.5 34z" />
    <glyph glyph-name="ellipsis" unicode="&#x2026;" horiz-adv-x="760" 
d="M127 -8q-27 0 -43.5 17t-16.5 44q0 28 16.5 44.5t43.5 16.5t43.5 -16.5t16.5 -44.5q0 -27 -16.5 -44t-43.5 -17zM380 -8q-27 0 -43.5 17t-16.5 44q0 28 16.5 44.5t43.5 16.5t43.5 -16.5t16.5 -44.5q0 -27 -16.5 -44t-43.5 -17zM633 -8q-27 0 -43.5 17t-16.5 44
q0 28 16.5 44.5t43.5 16.5t43.5 -16.5t16.5 -44.5q0 -27 -16.5 -44t-43.5 -17z" />
    <glyph glyph-name="perthousand" unicode="&#x2030;" horiz-adv-x="1030" 
d="M265 0h-75l267 684h75zM568 -8q-61 0 -93 52t-32 149t32 149t93 52q62 0 93.5 -52t31.5 -149t-31.5 -149t-93.5 -52zM568 50q57 0 57 143t-57 143t-57 -143t57 -143zM876 -8q-61 0 -93 52t-32 149t32 149t93 52q62 0 93.5 -52t31.5 -149t-31.5 -149t-93.5 -52zM876 50
q57 0 57 143t-57 143t-57 -143t57 -143zM154 290q-61 0 -93 52t-32 149t32 149t93 52q62 0 93.5 -52t31.5 -149t-31.5 -149t-93.5 -52zM154 348q57 0 57 143t-57 143t-57 -143t57 -143z" />
    <glyph glyph-name="guilsinglleft" unicode="&#x2039;" horiz-adv-x="274" 
d="M148 52l-112 210l112 210h86l-107 -210l107 -210h-86z" />
    <glyph glyph-name="guilsinglright" unicode="&#x203a;" horiz-adv-x="274" 
d="M126 52h-86l107 210l-107 210h86l112 -210z" />
    <glyph glyph-name="fraction" unicode="&#x2044;" horiz-adv-x="106" 
d="M-43 0h-75l267 684h75z" />
    <glyph glyph-name="uni2070" unicode="&#x2070;" horiz-adv-x="308" 
d="M154 380q-61 0 -93 52t-32 149t32 149t93 52q62 0 93.5 -52t31.5 -149t-31.5 -149t-93.5 -52zM154 438q57 0 57 143t-57 143t-57 -143t57 -143z" />
    <glyph glyph-name="uni2074" unicode="&#x2074;" horiz-adv-x="308" 
d="M243 388h-62v84h-161v53l157 249h66v-246h44l-7 -56h-37v-84zM181 528v163l-102 -163h102z" />
    <glyph glyph-name="uni2075" unicode="&#x2075;" horiz-adv-x="308" 
d="M267 507q0 -59 -36 -93t-100 -34q-59 0 -96 26l14 53q36 -24 81 -24q35 0 53.5 18t18.5 51q0 67 -65 67q-30 0 -57 -13l-28 16l14 200h182l7 -57h-138l-7 -106q22 11 48 11q50 0 79.5 -30.5t29.5 -84.5z" />
    <glyph glyph-name="uni2076" unicode="&#x2076;" horiz-adv-x="308" 
d="M266 764l-16 -53q-15 8 -27.5 11.5t-29.5 3.5q-92 0 -96 -146q23 49 79 49q46 0 73 -33t27 -86q0 -59 -32 -94.5t-85 -35.5q-124 0 -124 178q0 105 41 164.5t113 59.5q43 0 77 -18zM160 579q-25 0 -39.5 -19.5t-14.5 -52.5q0 -34 14 -53.5t39 -19.5q27 0 40.5 19.5
t13.5 53.5q0 33 -13.5 52.5t-39.5 19.5z" />
    <glyph glyph-name="uni2077" unicode="&#x2077;" horiz-adv-x="308" 
d="M151 388h-68l122 328h-171l7 58h229v-54z" />
    <glyph glyph-name="uni2078" unicode="&#x2078;" horiz-adv-x="308" 
d="M154 380q-59 0 -92 31.5t-33 79.5q0 34 16.5 59t45.5 35q-52 24 -52 89q0 50 33 79t82 29q50 0 82.5 -29t32.5 -79q0 -64 -52 -89q29 -10 45.5 -35t16.5 -59q0 -49 -33 -80t-92 -31zM154 610q26 0 40 15.5t14 43.5q0 29 -14.5 45t-39.5 16t-39.5 -16t-14.5 -45
q0 -28 14.5 -43.5t39.5 -15.5zM154 433q29 0 44.5 17t15.5 46t-15.5 46t-44.5 17q-28 0 -44 -17t-16 -46t16 -46t44 -17z" />
    <glyph glyph-name="uni2079" unicode="&#x2079;" horiz-adv-x="308" 
d="M44 398l16 53q15 -7 28 -11t29 -4q90 0 94 146q-23 -49 -79 -49q-46 0 -73 33.5t-27 85.5q0 59 32 94.5t85 35.5q124 0 124 -178q0 -106 -40 -165t-112 -59q-42 0 -77 18zM148 583q26 0 40 19.5t14 52.5q0 34 -14 53.5t-39 19.5q-27 0 -40.5 -19t-13.5 -54
q0 -33 13.5 -52.5t39.5 -19.5z" />
    <glyph glyph-name="uni2080" unicode="&#x2080;" horiz-adv-x="308" 
d="M154 -98q-61 0 -93 52t-32 149t32 149t93 52q62 0 93.5 -52t31.5 -149t-31.5 -149t-93.5 -52zM154 -40q57 0 57 143t-57 143t-57 -143t57 -143z" />
    <glyph glyph-name="uni2081" unicode="&#x2081;" horiz-adv-x="308" 
d="M208 -90h-66v311l-65 -47l-32 49l104 73h59v-386z" />
    <glyph glyph-name="uni2082" unicode="&#x2082;" horiz-adv-x="308" 
d="M267 -33l-7 -57h-225v48q29 29 51.5 53t38.5 44q37 46 51 71.5t14 56.5q0 63 -60 63q-42 0 -76 -32l-19 52q21 19 47.5 28.5t54.5 9.5q58 0 89.5 -31t31.5 -86q0 -24 -7.5 -46t-24.5 -47.5t-48 -62.5q-11 -13 -25.5 -29.5t-32.5 -34.5h147z" />
    <glyph glyph-name="uni2083" unicode="&#x2083;" horiz-adv-x="308" 
d="M34 -70l14 51q34 -24 83 -24q32 0 50 16.5t18 45.5q0 61 -67 61h-42v55h39q31 0 48 16t17 45q0 25 -16 39t-44 14q-48 0 -79 -25l-14 50q39 30 100 30q53 0 84.5 -28t31.5 -75q0 -65 -60 -89q31 -11 49 -36t18 -60q0 -54 -36 -84t-98 -30q-29 0 -54 7.5t-42 20.5z" />
    <glyph glyph-name="uni2084" unicode="&#x2084;" horiz-adv-x="308" 
d="M243 -90h-62v84h-161v53l157 249h66v-246h44l-7 -56h-37v-84zM181 50v163l-102 -163h102z" />
    <glyph glyph-name="uni2085" unicode="&#x2085;" horiz-adv-x="308" 
d="M267 29q0 -59 -36 -93t-100 -34q-59 0 -96 26l14 53q36 -24 81 -24q35 0 53.5 18t18.5 51q0 67 -65 67q-30 0 -57 -13l-28 16l14 200h182l7 -57h-138l-7 -106q22 11 48 11q50 0 79.5 -30.5t29.5 -84.5z" />
    <glyph glyph-name="uni2086" unicode="&#x2086;" horiz-adv-x="308" 
d="M266 286l-16 -53q-15 8 -27.5 11.5t-29.5 3.5q-92 0 -96 -146q23 49 79 49q46 0 73 -33t27 -86q0 -59 -32 -94.5t-85 -35.5q-124 0 -124 178q0 105 41 164.5t113 59.5q43 0 77 -18zM160 101q-25 0 -39.5 -19.5t-14.5 -52.5q0 -34 14 -53.5t39 -19.5q27 0 40.5 19.5
t13.5 53.5q0 33 -13.5 52.5t-39.5 19.5z" />
    <glyph glyph-name="uni2087" unicode="&#x2087;" horiz-adv-x="308" 
d="M151 -90h-68l122 328h-171l7 58h229v-54z" />
    <glyph glyph-name="uni2088" unicode="&#x2088;" horiz-adv-x="308" 
d="M154 -98q-59 0 -92 31.5t-33 79.5q0 34 16.5 59t45.5 35q-52 24 -52 89q0 50 33 79t82 29q50 0 82.5 -29t32.5 -79q0 -64 -52 -89q29 -10 45.5 -35t16.5 -59q0 -49 -33 -80t-92 -31zM154 132q26 0 40 15.5t14 43.5q0 29 -14.5 45t-39.5 16t-39.5 -16t-14.5 -45
q0 -28 14.5 -43.5t39.5 -15.5zM154 -45q29 0 44.5 17t15.5 46t-15.5 46t-44.5 17q-28 0 -44 -17t-16 -46t16 -46t44 -17z" />
    <glyph glyph-name="uni2089" unicode="&#x2089;" horiz-adv-x="308" 
d="M44 -80l16 53q15 -7 28 -11t29 -4q90 0 94 146q-23 -49 -79 -49q-46 0 -73 33.5t-27 85.5q0 59 32 94.5t85 35.5q124 0 124 -178q0 -106 -40 -165t-112 -59q-42 0 -77 18zM148 105q26 0 40 19.5t14 52.5q0 34 -14 53.5t-39 19.5q-27 0 -40.5 -19t-13.5 -54
q0 -33 13.5 -52.5t39.5 -19.5z" />
    <glyph glyph-name="uni20A9" unicode="&#x20a9;" horiz-adv-x="794" 
d="M274 0h-94l-64 278h-101v67h86l-21 90h-65v67h50l-42 182h96l38 -182h157l38 182h94l39 -182h156l38 182h92l-42 -182h50v-67h-65l-21 -90h86v-67h-101l-64 -278h-94l-61 278h-125zM348 345h96l-49 218zM519 345h90l18 90h-127zM189 345h92l19 90h-130zM203 278l31 -153
l32 153h-63zM534 278l31 -143l30 143h-61z" />
    <glyph glyph-name="dong" unicode="&#x20ab;" horiz-adv-x="484" 
d="M476 554h-60v-554h-77l-3 84q-37 -97 -138 -97q-51 0 -90 32t-60.5 88.5t-21.5 129.5q0 74 22.5 130.5t63 88.5t93.5 32q89 0 126 -81v147h-139v67h139v63h85v-63h60v-67zM336 238q0 82 -29.5 129t-82.5 47q-52 0 -81 -47t-29 -129t28.5 -129.5t80.5 -47.5q54 0 83.5 47
t29.5 130zM416 -149h-380v67h380v-67z" />
    <glyph glyph-name="Euro" unicode="&#x20ac;" horiz-adv-x="484" 
d="M362 230h-192q26 -167 148 -167q41 0 68 10.5t61 38.5l20 -76q-33 -25 -70 -37.5t-84 -12.5q-97 0 -155.5 62.5t-76.5 181.5h-65l9 69h49q-1 20 -1 42q0 24 1 46h-58l9 69h56q19 118 79 180t156 62q46 0 79.5 -11.5t61.5 -33.5l-20 -76q-31 25 -56.5 34.5t-59.5 9.5
q-123 0 -150 -165h220l-9 -69h-218q-1 -22 -1 -47q0 -22 1 -41h207z" />
    <glyph glyph-name="uni20B4" unicode="&#x20b4;" horiz-adv-x="484" 
d="M453 392h-423v67h299q13 23 13 57q0 52 -28.5 79.5t-83.5 27.5q-40 0 -73.5 -13.5t-75.5 -48.5l-18 71q74 66 177 66q88 0 138 -46t50 -127q0 -31 -16 -66h41v-67zM55 161q0 19 4 36t13 38h-42v67h423v-67h-294q-15 -26 -15 -64q0 -110 120 -110q44 0 80 15.5t79 52.5
l20 -75q-77 -68 -192 -68q-92 0 -144 46.5t-52 128.5z" />
    <glyph glyph-name="uni20B9" unicode="&#x20b9;" horiz-adv-x="484" 
d="M175 273h-9l260 -273h-126l-245 271v69h112q117 0 132 104h-244v67h244q-14 106 -132 106h-112v67h393v-65h-118q46 -42 55 -108h63v-67h-63q-10 -81 -64.5 -126t-145.5 -45z" />
    <glyph glyph-name="uni20BA" unicode="&#x20ba;" horiz-adv-x="484" 
d="M190 0h-111v207l-60 -35v76l60 35v100l-60 -35v76l60 35v225h88v-175l145 84v-76l-145 -84v-100l145 84v-76l-145 -84v-180h26q178 0 178 232l84 -10q-2 -143 -71 -221t-194 -78z" />
    <glyph glyph-name="uni20BD" unicode="&#x20bd;" horiz-adv-x="484" 
d="M311 116h-143v-116h-87v116h-60v67h60v90h-60v67h60v344h174q93 0 147 -55.5t54 -150.5q0 -94 -54 -149.5t-147 -55.5h-87v-90h143v-67zM248 608h-80v-268h80q59 0 89 35.5t30 99.5q0 63 -30 98t-89 35z" />
    <glyph glyph-name="trademark" unicode="&#x2122;" horiz-adv-x="705" 
d="M179 308h-70v330h-99v62h268v-62h-99v-330zM383 308h-66v392h88l82 -263l84 263h85v-392h-66v284l-72 -218h-63l-72 221v-287z" />
    <glyph glyph-name="uni2150" unicode="&#x2150;" horiz-adv-x="722" 
d="M245 0h-75l267 684h75zM565 0h-68l122 328h-171l7 58h229v-54zM208 298h-66v311l-65 -47l-32 49l104 73h59v-386z" />
    <glyph glyph-name="uni2151" unicode="&#x2151;" horiz-adv-x="722" 
d="M250 0h-75l267 684h75zM458 10l16 53q15 -7 28 -11t29 -4q90 0 94 146q-23 -49 -79 -49q-46 0 -73 33.5t-27 85.5q0 59 32 94.5t85 35.5q124 0 124 -178q0 -106 -40 -165t-112 -59q-42 0 -77 18zM562 195q26 0 40 19.5t14 52.5q0 34 -14 53.5t-39 19.5q-27 0 -40.5 -19
t-13.5 -54q0 -33 13.5 -52.5t39.5 -19.5zM208 298h-66v311l-65 -47l-32 49l104 73h59v-386z" />
    <glyph glyph-name="onethird" unicode="&#x2153;" horiz-adv-x="722" 
d="M245 0h-75l267 684h75zM448 20l14 51q34 -24 83 -24q32 0 50 16.5t18 45.5q0 61 -67 61h-42v55h39q31 0 48 16t17 45q0 25 -16 39t-44 14q-48 0 -79 -25l-14 50q39 30 100 30q53 0 84.5 -28t31.5 -75q0 -65 -60 -89q31 -11 49 -36t18 -60q0 -54 -36 -84t-98 -30
q-29 0 -54 7.5t-42 20.5zM208 298h-66v311l-65 -47l-32 49l104 73h59v-386z" />
    <glyph glyph-name="twothirds" unicode="&#x2154;" horiz-adv-x="722" 
d="M270 0h-75l267 684h75zM448 20l14 51q34 -24 83 -24q32 0 50 16.5t18 45.5q0 61 -67 61h-42v55h39q31 0 48 16t17 45q0 25 -16 39t-44 14q-48 0 -79 -25l-14 50q39 30 100 30q53 0 84.5 -28t31.5 -75q0 -65 -60 -89q31 -11 49 -36t18 -60q0 -54 -36 -84t-98 -30
q-29 0 -54 7.5t-42 20.5zM267 355l-7 -57h-225v48q29 29 51.5 53t38.5 44q37 46 51 71.5t14 56.5q0 63 -60 63q-42 0 -76 -32l-19 52q21 19 47.5 28.5t54.5 9.5q58 0 89.5 -31t31.5 -86q0 -24 -7.5 -46t-24.5 -47.5t-48 -62.5q-11 -13 -25.5 -29.5t-32.5 -34.5h147z" />
    <glyph glyph-name="uni2155" unicode="&#x2155;" horiz-adv-x="722" 
d="M245 0h-75l267 684h75zM681 119q0 -59 -36 -93t-100 -34q-59 0 -96 26l14 53q36 -24 81 -24q35 0 53.5 18t18.5 51q0 67 -65 67q-30 0 -57 -13l-28 16l14 200h182l7 -57h-138l-7 -106q22 11 48 11q50 0 79.5 -30.5t29.5 -84.5zM208 298h-66v311l-65 -47l-32 49l104 73h59
v-386z" />
    <glyph glyph-name="uni2156" unicode="&#x2156;" horiz-adv-x="722" 
d="M275 0h-75l267 684h75zM681 119q0 -59 -36 -93t-100 -34q-59 0 -96 26l14 53q36 -24 81 -24q35 0 53.5 18t18.5 51q0 67 -65 67q-30 0 -57 -13l-28 16l14 200h182l7 -57h-138l-7 -106q22 11 48 11q50 0 79.5 -30.5t29.5 -84.5zM267 355l-7 -57h-225v48q29 29 51.5 53
t38.5 44q37 46 51 71.5t14 56.5q0 63 -60 63q-42 0 -76 -32l-19 52q21 19 47.5 28.5t54.5 9.5q58 0 89.5 -31t31.5 -86q0 -24 -7.5 -46t-24.5 -47.5t-48 -62.5q-11 -13 -25.5 -29.5t-32.5 -34.5h147z" />
    <glyph glyph-name="uni2157" unicode="&#x2157;" horiz-adv-x="722" 
d="M265 0h-75l267 684h75zM681 119q0 -59 -36 -93t-100 -34q-59 0 -96 26l14 53q36 -24 81 -24q35 0 53.5 18t18.5 51q0 67 -65 67q-30 0 -57 -13l-28 16l14 200h182l7 -57h-138l-7 -106q22 11 48 11q50 0 79.5 -30.5t29.5 -84.5zM34 318l14 51q34 -24 83 -24q32 0 50 16.5
t18 45.5q0 61 -67 61h-42v55h39q31 0 48 16t17 45q0 25 -16 39t-44 14q-48 0 -79 -25l-14 50q39 30 100 30q53 0 84.5 -28t31.5 -75q0 -65 -60 -89q31 -11 49 -36t18 -60q0 -54 -36 -84t-98 -30q-29 0 -54 7.5t-42 20.5z" />
    <glyph glyph-name="uni2158" unicode="&#x2158;" horiz-adv-x="722" 
d="M265 0h-75l267 684h75zM681 119q0 -59 -36 -93t-100 -34q-59 0 -96 26l14 53q36 -24 81 -24q35 0 53.5 18t18.5 51q0 67 -65 67q-30 0 -57 -13l-28 16l14 200h182l7 -57h-138l-7 -106q22 11 48 11q50 0 79.5 -30.5t29.5 -84.5zM243 298h-62v84h-161v53l157 249h66v-246
h44l-7 -56h-37v-84zM181 438v163l-102 -163h102z" />
    <glyph glyph-name="uni2159" unicode="&#x2159;" horiz-adv-x="722" 
d="M255 0h-75l267 684h75zM680 376l-16 -53q-15 8 -27.5 11.5t-29.5 3.5q-92 0 -96 -146q23 49 79 49q46 0 73 -33t27 -86q0 -59 -32 -94.5t-85 -35.5q-124 0 -124 178q0 105 41 164.5t113 59.5q43 0 77 -18zM574 191q-25 0 -39.5 -19.5t-14.5 -52.5q0 -34 14 -53.5
t39 -19.5q27 0 40.5 19.5t13.5 53.5q0 33 -13.5 52.5t-39.5 19.5zM208 298h-66v311l-65 -47l-32 49l104 73h59v-386z" />
    <glyph glyph-name="uni215A" unicode="&#x215a;" horiz-adv-x="722" 
d="M270 0h-75l267 684h75zM680 376l-16 -53q-15 8 -27.5 11.5t-29.5 3.5q-92 0 -96 -146q23 49 79 49q46 0 73 -33t27 -86q0 -59 -32 -94.5t-85 -35.5q-124 0 -124 178q0 105 41 164.5t113 59.5q43 0 77 -18zM574 191q-25 0 -39.5 -19.5t-14.5 -52.5q0 -34 14 -53.5
t39 -19.5q27 0 40.5 19.5t13.5 53.5q0 33 -13.5 52.5t-39.5 19.5zM267 417q0 -59 -36 -93t-100 -34q-59 0 -96 26l14 53q36 -24 81 -24q35 0 53.5 18t18.5 51q0 67 -65 67q-30 0 -57 -13l-28 16l14 200h182l7 -57h-138l-7 -106q22 11 48 11q50 0 79.5 -30.5t29.5 -84.5z" />
    <glyph glyph-name="oneeighth" unicode="&#x215b;" horiz-adv-x="722" 
d="M250 0h-75l267 684h75zM568 -8q-59 0 -92 31.5t-33 79.5q0 34 16.5 59t45.5 35q-52 24 -52 89q0 50 33 79t82 29q50 0 82.5 -29t32.5 -79q0 -64 -52 -89q29 -10 45.5 -35t16.5 -59q0 -49 -33 -80t-92 -31zM568 222q26 0 40 15.5t14 43.5q0 29 -14.5 45t-39.5 16
t-39.5 -16t-14.5 -45q0 -28 14.5 -43.5t39.5 -15.5zM568 45q29 0 44.5 17t15.5 46t-15.5 46t-44.5 17q-28 0 -44 -17t-16 -46t16 -46t44 -17zM208 298h-66v311l-65 -47l-32 49l104 73h59v-386z" />
    <glyph glyph-name="threeeighths" unicode="&#x215c;" horiz-adv-x="722" 
d="M265 0h-75l267 684h75zM568 -8q-59 0 -92 31.5t-33 79.5q0 34 16.5 59t45.5 35q-52 24 -52 89q0 50 33 79t82 29q50 0 82.5 -29t32.5 -79q0 -64 -52 -89q29 -10 45.5 -35t16.5 -59q0 -49 -33 -80t-92 -31zM568 222q26 0 40 15.5t14 43.5q0 29 -14.5 45t-39.5 16
t-39.5 -16t-14.5 -45q0 -28 14.5 -43.5t39.5 -15.5zM568 45q29 0 44.5 17t15.5 46t-15.5 46t-44.5 17q-28 0 -44 -17t-16 -46t16 -46t44 -17zM34 318l14 51q34 -24 83 -24q32 0 50 16.5t18 45.5q0 61 -67 61h-42v55h39q31 0 48 16t17 45q0 25 -16 39t-44 14q-48 0 -79 -25
l-14 50q39 30 100 30q53 0 84.5 -28t31.5 -75q0 -65 -60 -89q31 -11 49 -36t18 -60q0 -54 -36 -84t-98 -30q-29 0 -54 7.5t-42 20.5z" />
    <glyph glyph-name="fiveeighths" unicode="&#x215d;" horiz-adv-x="722" 
d="M265 0h-75l267 684h75zM568 -8q-59 0 -92 31.5t-33 79.5q0 34 16.5 59t45.5 35q-52 24 -52 89q0 50 33 79t82 29q50 0 82.5 -29t32.5 -79q0 -64 -52 -89q29 -10 45.5 -35t16.5 -59q0 -49 -33 -80t-92 -31zM568 222q26 0 40 15.5t14 43.5q0 29 -14.5 45t-39.5 16
t-39.5 -16t-14.5 -45q0 -28 14.5 -43.5t39.5 -15.5zM568 45q29 0 44.5 17t15.5 46t-15.5 46t-44.5 17q-28 0 -44 -17t-16 -46t16 -46t44 -17zM267 417q0 -59 -36 -93t-100 -34q-59 0 -96 26l14 53q36 -24 81 -24q35 0 53.5 18t18.5 51q0 67 -65 67q-30 0 -57 -13l-28 16
l14 200h182l7 -57h-138l-7 -106q22 11 48 11q50 0 79.5 -30.5t29.5 -84.5z" />
    <glyph glyph-name="seveneighths" unicode="&#x215e;" horiz-adv-x="722" 
d="M245 0h-75l267 684h75zM568 -8q-59 0 -92 31.5t-33 79.5q0 34 16.5 59t45.5 35q-52 24 -52 89q0 50 33 79t82 29q50 0 82.5 -29t32.5 -79q0 -64 -52 -89q29 -10 45.5 -35t16.5 -59q0 -49 -33 -80t-92 -31zM568 222q26 0 40 15.5t14 43.5q0 29 -14.5 45t-39.5 16
t-39.5 -16t-14.5 -45q0 -28 14.5 -43.5t39.5 -15.5zM568 45q29 0 44.5 17t15.5 46t-15.5 46t-44.5 17q-28 0 -44 -17t-16 -46t16 -46t44 -17zM151 298h-68l122 328h-171l7 58h229v-54z" />
    <glyph glyph-name="minus" unicode="&#x2212;" horiz-adv-x="484" 
d="M37 305v74h410v-74h-410z" />
    <glyph glyph-name="uniFEFF" unicode="&#xfeff;" 
 />
    <glyph glyph-name="uniFFFD" unicode="&#xfffd;" horiz-adv-x="1000" 
d="M500 828l475 -475l-475 -474l-475 474zM342 583l19 -59q28 20 64.5 30.5t73.5 10.5q56 0 87.5 -25t31.5 -70q0 -35 -18.5 -61.5t-61.5 -56.5q-45 -31 -63.5 -63t-18.5 -73v-18h70v18q0 27 15.5 49.5t54.5 48.5q56 38 78.5 74.5t22.5 85.5q0 71 -51 113t-140 42
q-42 0 -88 -13t-76 -33zM490 19q23 0 38.5 15.5t15.5 37.5q0 23 -15.5 37.5t-38.5 14.5t-38.5 -14.5t-15.5 -37.5q0 -22 15.5 -37.5t38.5 -15.5z" />
    <glyph glyph-name="zero.pnum" horiz-adv-x="494" 
d="M247 -14q-101 0 -154 91t-53 265t53 265t154 91t154 -91t53 -265t-53 -265t-154 -91zM247 621q-60 0 -88 -69.5t-28 -209.5q0 -139 28 -209t88 -70t88 70t28 209q0 140 -28 209.5t-88 69.5z" />
    <glyph glyph-name="one.pnum" horiz-adv-x="334" 
d="M167 0v585l-107 -80l-43 61l160 118h78v-684h-88z" />
    <glyph glyph-name="two.pnum" horiz-adv-x="445" 
d="M27 632q75 66 173 66q92 0 144 -52t52 -144q0 -46 -13 -86.5t-44.5 -88t-87.5 -115.5q-23 -28 -53 -62t-68 -73h280l-10 -77h-373v65q51 56 91.5 102t69.5 84q45 59 70.5 99t36 74t10.5 73q0 62 -30 93t-84 31q-39 0 -73.5 -15.5t-63.5 -43.5z" />
    <glyph glyph-name="three.pnum" horiz-adv-x="446" 
d="M27 34l21 72q26 -22 61 -33.5t74 -11.5q63 0 98 35t35 96q0 128 -135 128h-68v71h64q62 0 95.5 32t33.5 92q0 51 -30 79.5t-84 28.5q-38 0 -72.5 -11.5t-59.5 -33.5l-21 69q29 24 71.5 37.5t90.5 13.5q90 0 142 -47.5t52 -129.5q0 -57 -29.5 -99.5t-83.5 -63.5
q58 -18 91.5 -62.5t33.5 -107.5q0 -95 -59.5 -148.5t-165.5 -53.5q-47 0 -88 13t-67 35z" />
    <glyph glyph-name="four.pnum" horiz-adv-x="479" 
d="M294 0v171h-273v68l267 445h90v-441h76l-9 -72h-67v-171h-84zM294 243v318l-191 -318h191z" />
    <glyph glyph-name="five.pnum" horiz-adv-x="458" 
d="M196 -14q-46 0 -89.5 13t-71.5 35l21 72q28 -21 63.5 -33t74.5 -12q67 0 102.5 37t35.5 105q0 139 -140 139q-56 0 -113 -17l-14 13l25 346h300l10 -78h-234l-14 -200q36 8 73 8q92 0 144.5 -56t52.5 -155q0 -102 -60.5 -159.5t-165.5 -57.5z" />
    <glyph glyph-name="six.pnum" horiz-adv-x="475" 
d="M249 -14q-104 0 -156.5 83t-52.5 244q0 120 30.5 206.5t88.5 132.5t138 46q70 0 129 -31l-24 -71q-26 14 -49 20t-53 6q-83 0 -126.5 -72.5t-47.5 -214.5q42 107 147 107q52 0 89.5 -28t58.5 -78t21 -115q0 -107 -52.5 -171t-140.5 -64zM249 60q52 0 78.5 41t26.5 115
q0 72 -26.5 113.5t-76.5 41.5t-78 -41.5t-28 -113.5t27.5 -114t76.5 -42z" />
    <glyph glyph-name="seven.pnum" horiz-adv-x="423" 
d="M95 0l222 606h-302l10 78h380v-73l-220 -611h-90z" />
    <glyph glyph-name="eight.pnum" horiz-adv-x="488" 
d="M244 -14q-64 0 -110 25.5t-70.5 69.5t-24.5 101q0 64 31 110.5t83 63.5q-46 19 -72 60.5t-26 96.5q0 58 24.5 99t67.5 63.5t97 22.5q55 0 97.5 -22.5t67 -63.5t24.5 -99q0 -55 -26 -96.5t-72 -60.5q52 -17 83 -63.5t31 -110.5q0 -57 -24.5 -101t-70 -69.5t-110.5 -25.5z
M244 390q50 0 77 31t27 86q0 56 -28 87.5t-76 31.5t-76 -31.5t-28 -87.5q0 -55 27.5 -86t76.5 -31zM244 59q56 0 86.5 34.5t30.5 94.5q0 61 -30.5 96t-86.5 35q-55 0 -86 -35t-31 -96q0 -60 31 -94.5t86 -34.5z" />
    <glyph glyph-name="nine.pnum" horiz-adv-x="475" 
d="M52 17l22 71q26 -13 49.5 -19.5t53.5 -6.5q83 0 125.5 73t46.5 214q-42 -107 -147 -107q-51 0 -89 28t-59 78t-21 115q0 107 52.5 171t140.5 64q104 0 156.5 -83t52.5 -244q0 -120 -30.5 -206.5t-87.5 -132.5t-138 -46q-69 0 -127 31zM224 313q50 0 78 41.5t28 113.5
t-27.5 114t-76.5 42q-52 0 -78.5 -41t-26.5 -115q0 -72 26.5 -113.5t76.5 -41.5z" />
    <glyph glyph-name="zero.dnom" horiz-adv-x="308" 
d="M154 -8q-61 0 -93 52t-32 149t32 149t93 52q62 0 93.5 -52t31.5 -149t-31.5 -149t-93.5 -52zM154 50q57 0 57 143t-57 143t-57 -143t57 -143z" />
    <glyph glyph-name="one.dnom" horiz-adv-x="308" 
d="M208 0h-66v311l-65 -47l-32 49l104 73h59v-386z" />
    <glyph glyph-name="two.dnom" horiz-adv-x="308" 
d="M267 57l-7 -57h-225v48q29 29 51.5 53t38.5 44q37 46 51 71.5t14 56.5q0 63 -60 63q-42 0 -76 -32l-19 52q21 19 47.5 28.5t54.5 9.5q58 0 89.5 -31t31.5 -86q0 -24 -7.5 -46t-24.5 -47.5t-48 -62.5q-11 -13 -25.5 -29.5t-32.5 -34.5h147z" />
    <glyph glyph-name="three.dnom" horiz-adv-x="308" 
d="M34 20l14 51q34 -24 83 -24q32 0 50 16.5t18 45.5q0 61 -67 61h-42v55h39q31 0 48 16t17 45q0 25 -16 39t-44 14q-48 0 -79 -25l-14 50q39 30 100 30q53 0 84.5 -28t31.5 -75q0 -65 -60 -89q31 -11 49 -36t18 -60q0 -54 -36 -84t-98 -30q-29 0 -54 7.5t-42 20.5z" />
    <glyph glyph-name="four.dnom" horiz-adv-x="308" 
d="M243 0h-62v84h-161v53l157 249h66v-246h44l-7 -56h-37v-84zM181 140v163l-102 -163h102z" />
    <glyph glyph-name="five.dnom" horiz-adv-x="308" 
d="M267 119q0 -59 -36 -93t-100 -34q-59 0 -96 26l14 53q36 -24 81 -24q35 0 53.5 18t18.5 51q0 67 -65 67q-30 0 -57 -13l-28 16l14 200h182l7 -57h-138l-7 -106q22 11 48 11q50 0 79.5 -30.5t29.5 -84.5z" />
    <glyph glyph-name="six.dnom" horiz-adv-x="308" 
d="M266 376l-16 -53q-15 8 -27.5 11.5t-29.5 3.5q-92 0 -96 -146q23 49 79 49q46 0 73 -33t27 -86q0 -59 -32 -94.5t-85 -35.5q-124 0 -124 178q0 105 41 164.5t113 59.5q43 0 77 -18zM160 191q-25 0 -39.5 -19.5t-14.5 -52.5q0 -34 14 -53.5t39 -19.5q27 0 40.5 19.5
t13.5 53.5q0 33 -13.5 52.5t-39.5 19.5z" />
    <glyph glyph-name="seven.dnom" horiz-adv-x="308" 
d="M151 0h-68l122 328h-171l7 58h229v-54z" />
    <glyph glyph-name="eight.dnom" horiz-adv-x="308" 
d="M154 -8q-59 0 -92 31.5t-33 79.5q0 34 16.5 59t45.5 35q-52 24 -52 89q0 50 33 79t82 29q50 0 82.5 -29t32.5 -79q0 -64 -52 -89q29 -10 45.5 -35t16.5 -59q0 -49 -33 -80t-92 -31zM154 222q26 0 40 15.5t14 43.5q0 29 -14.5 45t-39.5 16t-39.5 -16t-14.5 -45
q0 -28 14.5 -43.5t39.5 -15.5zM154 45q29 0 44.5 17t15.5 46t-15.5 46t-44.5 17q-28 0 -44 -17t-16 -46t16 -46t44 -17z" />
    <glyph glyph-name="nine.dnom" horiz-adv-x="308" 
d="M44 10l16 53q15 -7 28 -11t29 -4q90 0 94 146q-23 -49 -79 -49q-46 0 -73 33.5t-27 85.5q0 59 32 94.5t85 35.5q124 0 124 -178q0 -106 -40 -165t-112 -59q-42 0 -77 18zM148 195q26 0 40 19.5t14 52.5q0 34 -14 53.5t-39 19.5q-27 0 -40.5 -19t-13.5 -54
q0 -33 13.5 -52.5t39.5 -19.5z" />
    <glyph glyph-name="zero.numr" horiz-adv-x="308" 
d="M154 290q-61 0 -93 52t-32 149t32 149t93 52q62 0 93.5 -52t31.5 -149t-31.5 -149t-93.5 -52zM154 348q57 0 57 143t-57 143t-57 -143t57 -143z" />
    <glyph glyph-name="one.numr" horiz-adv-x="308" 
d="M208 298h-66v311l-65 -47l-32 49l104 73h59v-386z" />
    <glyph glyph-name="two.numr" horiz-adv-x="308" 
d="M267 355l-7 -57h-225v48q29 29 51.5 53t38.5 44q37 46 51 71.5t14 56.5q0 63 -60 63q-42 0 -76 -32l-19 52q21 19 47.5 28.5t54.5 9.5q58 0 89.5 -31t31.5 -86q0 -24 -7.5 -46t-24.5 -47.5t-48 -62.5q-11 -13 -25.5 -29.5t-32.5 -34.5h147z" />
    <glyph glyph-name="three.numr" horiz-adv-x="308" 
d="M34 318l14 51q34 -24 83 -24q32 0 50 16.5t18 45.5q0 61 -67 61h-42v55h39q31 0 48 16t17 45q0 25 -16 39t-44 14q-48 0 -79 -25l-14 50q39 30 100 30q53 0 84.5 -28t31.5 -75q0 -65 -60 -89q31 -11 49 -36t18 -60q0 -54 -36 -84t-98 -30q-29 0 -54 7.5t-42 20.5z" />
    <glyph glyph-name="four.numr" horiz-adv-x="308" 
d="M243 298h-62v84h-161v53l157 249h66v-246h44l-7 -56h-37v-84zM181 438v163l-102 -163h102z" />
    <glyph glyph-name="five.numr" horiz-adv-x="308" 
d="M267 417q0 -59 -36 -93t-100 -34q-59 0 -96 26l14 53q36 -24 81 -24q35 0 53.5 18t18.5 51q0 67 -65 67q-30 0 -57 -13l-28 16l14 200h182l7 -57h-138l-7 -106q22 11 48 11q50 0 79.5 -30.5t29.5 -84.5z" />
    <glyph glyph-name="six.numr" horiz-adv-x="308" 
d="M266 674l-16 -53q-15 8 -27.5 11.5t-29.5 3.5q-92 0 -96 -146q23 49 79 49q46 0 73 -33t27 -86q0 -59 -32 -94.5t-85 -35.5q-124 0 -124 178q0 105 41 164.5t113 59.5q43 0 77 -18zM160 489q-25 0 -39.5 -19.5t-14.5 -52.5q0 -34 14 -53.5t39 -19.5q27 0 40.5 19.5
t13.5 53.5q0 33 -13.5 52.5t-39.5 19.5z" />
    <glyph glyph-name="seven.numr" horiz-adv-x="308" 
d="M151 298h-68l122 328h-171l7 58h229v-54z" />
    <glyph glyph-name="eight.numr" horiz-adv-x="308" 
d="M154 290q-59 0 -92 31.5t-33 79.5q0 34 16.5 59t45.5 35q-52 24 -52 89q0 50 33 79t82 29q50 0 82.5 -29t32.5 -79q0 -64 -52 -89q29 -10 45.5 -35t16.5 -59q0 -49 -33 -80t-92 -31zM154 520q26 0 40 15.5t14 43.5q0 29 -14.5 45t-39.5 16t-39.5 -16t-14.5 -45
q0 -28 14.5 -43.5t39.5 -15.5zM154 343q29 0 44.5 17t15.5 46t-15.5 46t-44.5 17q-28 0 -44 -17t-16 -46t16 -46t44 -17z" />
    <glyph glyph-name="nine.numr" horiz-adv-x="308" 
d="M44 308l16 53q15 -7 28 -11t29 -4q90 0 94 146q-23 -49 -79 -49q-46 0 -73 33.5t-27 85.5q0 59 32 94.5t85 35.5q124 0 124 -178q0 -106 -40 -165t-112 -59q-42 0 -77 18zM148 493q26 0 40 19.5t14 52.5q0 34 -14 53.5t-39 19.5q-27 0 -40.5 -19t-13.5 -54
q0 -33 13.5 -52.5t39.5 -19.5z" />
    <glyph glyph-name="twosevenths" horiz-adv-x="722" 
d="M265 0h-75l267 684h75zM565 0h-68l122 328h-171l7 58h229v-54zM267 355l-7 -57h-225v48q29 29 51.5 53t38.5 44q37 46 51 71.5t14 56.5q0 63 -60 63q-42 0 -76 -32l-19 52q21 19 47.5 28.5t54.5 9.5q58 0 89.5 -31t31.5 -86q0 -24 -7.5 -46t-24.5 -47.5t-48 -62.5
q-11 -13 -25.5 -29.5t-32.5 -34.5h147z" />
    <glyph glyph-name="threesevenths" horiz-adv-x="722" 
d="M255 0h-75l267 684h75zM565 0h-68l122 328h-171l7 58h229v-54zM34 318l14 51q34 -24 83 -24q32 0 50 16.5t18 45.5q0 61 -67 61h-42v55h39q31 0 48 16t17 45q0 25 -16 39t-44 14q-48 0 -79 -25l-14 50q39 30 100 30q53 0 84.5 -28t31.5 -75q0 -65 -60 -89q31 -11 49 -36
t18 -60q0 -54 -36 -84t-98 -30q-29 0 -54 7.5t-42 20.5z" />
    <glyph glyph-name="foursevenths" horiz-adv-x="722" 
d="M255 0h-75l267 684h75zM565 0h-68l122 328h-171l7 58h229v-54zM243 298h-62v84h-161v53l157 249h66v-246h44l-7 -56h-37v-84zM181 438v163l-102 -163h102z" />
    <glyph glyph-name="fivesevenths" horiz-adv-x="722" 
d="M255 0h-75l267 684h75zM565 0h-68l122 328h-171l7 58h229v-54zM267 417q0 -59 -36 -93t-100 -34q-59 0 -96 26l14 53q36 -24 81 -24q35 0 53.5 18t18.5 51q0 67 -65 67q-30 0 -57 -13l-28 16l14 200h182l7 -57h-138l-7 -106q22 11 48 11q50 0 79.5 -30.5t29.5 -84.5z" />
    <glyph glyph-name="sixsevenths" horiz-adv-x="722" 
d="M255 0h-75l267 684h75zM565 0h-68l122 328h-171l7 58h229v-54zM266 674l-16 -53q-15 8 -27.5 11.5t-29.5 3.5q-92 0 -96 -146q23 49 79 49q46 0 73 -33t27 -86q0 -59 -32 -94.5t-85 -35.5q-124 0 -124 178q0 105 41 164.5t113 59.5q43 0 77 -18zM160 489
q-25 0 -39.5 -19.5t-14.5 -52.5q0 -34 14 -53.5t39 -19.5q27 0 40.5 19.5t13.5 53.5q0 33 -13.5 52.5t-39.5 19.5z" />
    <glyph glyph-name="twoninths" horiz-adv-x="722" 
d="M270 0h-75l267 684h75zM458 10l16 53q15 -7 28 -11t29 -4q90 0 94 146q-23 -49 -79 -49q-46 0 -73 33.5t-27 85.5q0 59 32 94.5t85 35.5q124 0 124 -178q0 -106 -40 -165t-112 -59q-42 0 -77 18zM562 195q26 0 40 19.5t14 52.5q0 34 -14 53.5t-39 19.5q-27 0 -40.5 -19
t-13.5 -54q0 -33 13.5 -52.5t39.5 -19.5zM267 355l-7 -57h-225v48q29 29 51.5 53t38.5 44q37 46 51 71.5t14 56.5q0 63 -60 63q-42 0 -76 -32l-19 52q21 19 47.5 28.5t54.5 9.5q58 0 89.5 -31t31.5 -86q0 -24 -7.5 -46t-24.5 -47.5t-48 -62.5q-11 -13 -25.5 -29.5
t-32.5 -34.5h147z" />
    <glyph glyph-name="fourninths" horiz-adv-x="722" 
d="M265 0h-75l267 684h75zM458 10l16 53q15 -7 28 -11t29 -4q90 0 94 146q-23 -49 -79 -49q-46 0 -73 33.5t-27 85.5q0 59 32 94.5t85 35.5q124 0 124 -178q0 -106 -40 -165t-112 -59q-42 0 -77 18zM562 195q26 0 40 19.5t14 52.5q0 34 -14 53.5t-39 19.5q-27 0 -40.5 -19
t-13.5 -54q0 -33 13.5 -52.5t39.5 -19.5zM243 298h-62v84h-161v53l157 249h66v-246h44l-7 -56h-37v-84zM181 438v163l-102 -163h102z" />
    <glyph glyph-name="fiveninths" horiz-adv-x="722" 
d="M260 0h-75l267 684h75zM458 10l16 53q15 -7 28 -11t29 -4q90 0 94 146q-23 -49 -79 -49q-46 0 -73 33.5t-27 85.5q0 59 32 94.5t85 35.5q124 0 124 -178q0 -106 -40 -165t-112 -59q-42 0 -77 18zM562 195q26 0 40 19.5t14 52.5q0 34 -14 53.5t-39 19.5q-27 0 -40.5 -19
t-13.5 -54q0 -33 13.5 -52.5t39.5 -19.5zM267 417q0 -59 -36 -93t-100 -34q-59 0 -96 26l14 53q36 -24 81 -24q35 0 53.5 18t18.5 51q0 67 -65 67q-30 0 -57 -13l-28 16l14 200h182l7 -57h-138l-7 -106q22 11 48 11q50 0 79.5 -30.5t29.5 -84.5z" />
    <glyph glyph-name="sevenninths" horiz-adv-x="722" 
d="M245 0h-75l267 684h75zM458 10l16 53q15 -7 28 -11t29 -4q90 0 94 146q-23 -49 -79 -49q-46 0 -73 33.5t-27 85.5q0 59 32 94.5t85 35.5q124 0 124 -178q0 -106 -40 -165t-112 -59q-42 0 -77 18zM562 195q26 0 40 19.5t14 52.5q0 34 -14 53.5t-39 19.5q-27 0 -40.5 -19
t-13.5 -54q0 -33 13.5 -52.5t39.5 -19.5zM151 298h-68l122 328h-171l7 58h229v-54z" />
    <glyph glyph-name="eightninths" horiz-adv-x="722" 
d="M265 0h-75l267 684h75zM458 10l16 53q15 -7 28 -11t29 -4q90 0 94 146q-23 -49 -79 -49q-46 0 -73 33.5t-27 85.5q0 59 32 94.5t85 35.5q124 0 124 -178q0 -106 -40 -165t-112 -59q-42 0 -77 18zM562 195q26 0 40 19.5t14 52.5q0 34 -14 53.5t-39 19.5q-27 0 -40.5 -19
t-13.5 -54q0 -33 13.5 -52.5t39.5 -19.5zM154 290q-59 0 -92 31.5t-33 79.5q0 34 16.5 59t45.5 35q-52 24 -52 89q0 50 33 79t82 29q50 0 82.5 -29t32.5 -79q0 -64 -52 -89q29 -10 45.5 -35t16.5 -59q0 -49 -33 -80t-92 -31zM154 520q26 0 40 15.5t14 43.5q0 29 -14.5 45
t-39.5 16t-39.5 -16t-14.5 -45q0 -28 14.5 -43.5t39.5 -15.5zM154 343q29 0 44.5 17t15.5 46t-15.5 46t-44.5 17q-28 0 -44 -17t-16 -46t16 -46t44 -17z" />
    <glyph glyph-name="shekel" horiz-adv-x="669" 
d="M458 144h-87v332q0 71 -27 102t-91 31h-107v-609h-87v684h189q107 0 158.5 -52.5t51.5 -160.5v-327zM614 213q0 -108 -51.5 -160.5t-158.5 -52.5h-189v540h87v-465h107q64 0 91 31t27 102v476h87v-471z" />
    <glyph glyph-name="hyphen.case" horiz-adv-x="314" 
d="M36 309v81h242v-81h-242z" />
    <glyph glyph-name="endash.case" horiz-adv-x="390" 
d="M0 309v81h390v-81h-390z" />
    <glyph glyph-name="emdash.case" horiz-adv-x="780" 
d="M0 309v81h780v-81h-780z" />
    <glyph glyph-name="parenleft.case" horiz-adv-x="283" 
d="M42 350q0 145 43 265t125 208l56 -49q-65 -79 -98.5 -187t-33.5 -237t33.5 -237t98.5 -187l-56 -49q-82 89 -125 208.5t-43 264.5z" />
    <glyph glyph-name="parenright.case" horiz-adv-x="283" 
d="M241 350q0 -145 -42.5 -264.5t-125.5 -208.5l-56 49q65 79 98.5 187t33.5 237t-33.5 237t-98.5 187l56 49q83 -88 125.5 -208t42.5 -265z" />
    <glyph glyph-name="slash.case" horiz-adv-x="368" 
d="M12 -98l253 896h91l-253 -896h-91z" />
    <glyph glyph-name="backslash.case" horiz-adv-x="368" 
d="M356 -98h-91l-253 896h91z" />
    <glyph glyph-name="bracketleft.case" horiz-adv-x="281" 
d="M68 -98v896h187l9 -70h-110v-756h110l-9 -70h-187z" />
    <glyph glyph-name="bracketright.case" horiz-adv-x="281" 
d="M213 -98h-187l-9 70h110v756h-110l9 70h187v-896z" />
    <glyph glyph-name="braceleft.case" horiz-adv-x="270" 
d="M253 -28l-9 -70h-41q-64 0 -100.5 40.5t-36.5 113.5q0 37 5 64.5t9.5 52t4.5 51.5q0 93 -64 93v66q64 0 64 93q0 28 -4.5 52t-9.5 51.5t-5 64.5q0 73 36.5 113.5t100.5 40.5h41l9 -70h-27q-40 0 -57 -22.5t-17 -79.5q0 -49 9.5 -87.5t9.5 -82.5q0 -38 -21 -67t-55 -39
q34 -10 55 -39t21 -67q0 -43 -9.5 -82t-9.5 -88q0 -57 17 -79.5t57 -22.5h27z" />
    <glyph glyph-name="braceright.case" horiz-adv-x="270" 
d="M204 56q0 -73 -36.5 -113.5t-100.5 -40.5h-41l-9 70h27q41 0 57.5 22.5t16.5 79.5q0 49 -9.5 88t-9.5 82q0 38 21 67t55 39q-34 10 -55 39t-21 67q0 44 9.5 82.5t9.5 87.5q0 57 -16.5 79.5t-57.5 22.5h-27l9 70h41q64 0 100.5 -40.5t36.5 -113.5q0 -37 -4.5 -64.5
t-9.5 -51.5t-5 -52q0 -93 64 -93v-66q-64 0 -64 -93q0 -27 5 -51.5t9.5 -52t4.5 -64.5z" />
    <glyph glyph-name="bullet.case" horiz-adv-x="310" 
d="M155 471q53 0 86 -34t33 -87q0 -52 -33 -86.5t-86 -34.5q-52 0 -85.5 34.5t-33.5 86.5q0 53 33.5 87t85.5 34z" />
    <glyph glyph-name="guilsinglleft.case" horiz-adv-x="274" 
d="M148 140l-112 210l112 210h86l-107 -210l107 -210h-86z" />
    <glyph glyph-name="guilsinglright.case" horiz-adv-x="274" 
d="M126 140h-86l107 210l-107 210h86l112 -210z" />
    <glyph glyph-name="guillemotleft.case" horiz-adv-x="457" 
d="M148 140l-112 210l112 210h86l-107 -210l107 -210h-86zM331 140l-112 210l112 210h86l-107 -210l107 -210h-86z" />
    <glyph glyph-name="guillemotright.case" horiz-adv-x="457" 
d="M126 140h-86l107 210l-107 210h86l112 -210zM309 140h-86l107 210l-107 210h86l112 -210z" />
    <glyph glyph-name="at.case" horiz-adv-x="809" 
d="M552 309q-2 -16 -3 -29t-1 -24q0 -35 10 -50t34 -15q44 0 71.5 64t27.5 167q0 158 -70 233.5t-186 75.5q-95 0 -166 -51.5t-110 -142.5t-39 -210q0 -171 72 -264.5t205 -93.5q47 0 91.5 11t79.5 31l17 -68q-38 -20 -91 -32t-105 -12q-109 0 -186.5 51t-119 146.5
t-41.5 228.5q0 105 29 192.5t82 151t125 98t158 34.5q100 0 174.5 -44.5t115.5 -128t41 -200.5q0 -90 -23 -157.5t-65 -105t-98 -37.5q-86 0 -97 93q-16 -44 -48.5 -68.5t-75.5 -24.5q-61 0 -96.5 53.5t-35.5 144.5q0 71 22.5 126.5t61.5 87.5t88 32q43 0 71.5 -26.5
t37.5 -72.5l15 86h62zM381 196q31 0 54.5 24t37.5 65.5t14 93.5q0 59 -20 92.5t-58 33.5q-31 0 -54 -24t-35 -64.5t-12 -90.5q0 -62 19 -96t54 -34z" />
    <glyph glyph-name="periodcentered.loclCAT" horiz-adv-x="120" 
d="M60 308q-27 0 -43.5 17t-16.5 44q0 28 16.5 44.5t43.5 16.5t43.5 -16.5t16.5 -44.5q0 -27 -16.5 -44t-43.5 -17z" />
    <glyph glyph-name="periodcentered.loclCAT.cap" 
d="M-115 330q-27 0 -43.5 17t-16.5 44q0 28 16.5 44.5t43.5 16.5t43.5 -16.5t16.5 -44.5q0 -27 -16.5 -44t-43.5 -17z" />
    <glyph glyph-name="dotlessij" horiz-adv-x="469" 
d="M80 -113q24 -19 55 -30.5t64 -11.5q68 0 96.5 43.5t28.5 138.5v54q-36 -81 -123 -81q-146 0 -146 215v297h86v-282q0 -79 18.5 -116t64.5 -37q50 0 75 42t25 122v271h86v-476q0 -135 -51 -200t-160 -65q-40 0 -77.5 12t-61.5 31z" />
    <glyph glyph-name="IJacute" horiz-adv-x="540" 
d="M159 203h-91v497h91v-497zM73 41l22 76q29 -25 66.5 -39t74.5 -14q57 0 89 22t45.5 71t13.5 130v413h91v-421q0 -152 -56.5 -223.5t-179.5 -71.5q-48 0 -94 16t-72 41zM127 772h-90l118 127h113zM443 772h-90l118 127h113z" />
    <glyph glyph-name="ijacute" horiz-adv-x="469" 
d="M80 -113q24 -19 55 -30.5t64 -11.5q68 0 96.5 43.5t28.5 138.5v54q-36 -81 -123 -81q-146 0 -146 215v297h86v-282q0 -79 18.5 -116t64.5 -37q50 0 75 42t25 122v271h86v-476q0 -135 -51 -200t-160 -65q-40 0 -77.5 12t-61.5 31zM108 594h-76l99 153h99zM377 594h-76
l99 153h99z" />
    <glyph glyph-name="uni0327.cap" 
d="M-5 -229q-48 0 -81 17l14 50q25 -14 61 -14q22 0 36.5 9t14.5 27q0 34 -50 34q-20 0 -38 -5l25 126h52l-16 -75h3q43 0 66 -21.5t23 -60.5q0 -41 -29.5 -64t-80.5 -23z" />
    <glyph glyph-name="uni0326.cap" 
d="M-62 -213q38 13 58 46h-5q-19 0 -31.5 14t-12.5 36q0 23 14.5 37.5t37.5 14.5q54 0 54 -61q0 -40 -24.5 -74.5t-63.5 -48.5z" />
    <glyph glyph-name="uni0328.cap" 
d="M-63 -125q0 -48 44 -48q26 0 47 12l13 -52q-29 -16 -71 -16q-48 0 -73 24.5t-25 66.5q0 99 135 165l33 -27q-103 -55 -103 -125z" />
    <glyph glyph-name="uni0328.round" 
d="M-48 -126q0 -49 42 -49q24 0 43 12l13 -50q-28 -16 -67 -16q-46 0 -70 24.5t-24 65.5q0 54 37.5 102t109.5 84l33 -27q-117 -65 -117 -146z" />
    <glyph glyph-name="uni0328.round.cap" 
d="M-51 -125q0 -48 44 -48q26 0 47 12l13 -52q-29 -16 -71 -16q-48 0 -73 24.5t-25 66.5q0 54 39.5 101.5t115.5 83.5l33 -27q-123 -65 -123 -145z" />
    <glyph glyph-name="acutecomb.cap" 
d="M13 772h-90l118 127h113z" />
    <glyph glyph-name="uni030B.cap" 
d="M-47 772h-90l118 127h113zM132 772h-90l118 127h113z" />
    <glyph glyph-name="gravecomb.cap" 
d="M-13 772l-141 127h113l118 -127h-90z" />
    <glyph glyph-name="uni0302.cap" 
d="M-76 772h-83l115 127h88l115 -127h-85l-75 75z" />
    <glyph glyph-name="tildecomb.cap" 
d="M158 890q-3 -118 -93 -118q-44 0 -80 36q-17 17 -25.5 23t-19.5 6q-34 0 -34 -65l-64 9q3 118 94 118q44 0 80 -36q17 -17 26 -23t19 -6q33 0 33 65z" />
    <glyph glyph-name="uni030C.cap" 
d="M76 899h83l-115 -127h-88l-115 127h85l75 -75z" />
    <glyph glyph-name="uni0315.short" 
d="M9 566h-59q5 41 8 83t4 91h76q-4 -53 -11 -94.5t-18 -79.5z" />
    <glyph glyph-name="uni0304.cap" 
d="M-148 867h296v-64h-296v64z" />
    <glyph glyph-name="uni0308.cap" 
d="M-99 780q-24 0 -38.5 15t-14.5 39q0 25 14.5 39.5t38.5 14.5t38.5 -14.5t14.5 -39.5q0 -24 -14.5 -39t-38.5 -15zM99 780q-24 0 -38.5 15t-14.5 39q0 25 14.5 39.5t38.5 14.5t38.5 -14.5t14.5 -39.5q0 -24 -14.5 -39t-38.5 -15z" />
    <glyph glyph-name="uni0306.cap" 
d="M0 831q36 0 53 16.5t19 51.5l64 -9q0 -55 -36 -86.5t-100 -31.5t-100 31.5t-36 86.5l64 9q2 -35 19 -51.5t53 -16.5z" />
    <glyph glyph-name="uni0307.cap" 
d="M0 779q-25 0 -40.5 16t-15.5 41q0 26 15.5 41.5t40.5 15.5q26 0 41 -15.5t15 -41.5q0 -25 -15 -41t-41 -16z" />
    <glyph glyph-name="uni030A.cap" 
d="M0 965q48 0 79 -28.5t31 -72.5t-31 -72.5t-79 -28.5q-49 0 -79.5 28.5t-30.5 72.5t30.5 72.5t79.5 28.5zM0 808q26 0 42 15.5t16 40.5t-16 40.5t-42 15.5t-42 -15.5t-16 -40.5t16 -40.5t42 -15.5z" />
    <glyph glyph-name="dotbelowcomb.cap" 
d="M0 -179q-25 0 -40.5 16t-15.5 41q0 26 15.5 41.5t40.5 15.5q26 0 41 -15.5t15 -41.5q0 -25 -15 -41t-41 -16z" />
    <glyph glyph-name="uni0414.loclBGR" horiz-adv-x="663" 
d="M26 -170v251h60l198 619h95l198 -619h60v-251h-85v170h-441v-170h-85zM178 81h303l-151 506z" />
    <glyph glyph-name="uni041B.loclBGR" horiz-adv-x="565" 
d="M11 0l224 700h95l224 -700h-98l-175 587l-176 -587h-94z" />
    <glyph glyph-name="uni0424.loclBGR" horiz-adv-x="710" 
d="M312 -71v76q-126 12 -198 99t-72 246t72 246t198 99v76h87v-76q126 -13 197.5 -100t71.5 -245t-71.5 -245t-197.5 -100v-76h-87zM137 350q0 -126 46 -191.5t131 -76.5v536q-85 -11 -131 -76.5t-46 -191.5zM573 350q0 126 -45.5 191t-130.5 77v-536q84 12 130 77t46 191z
" />
    <glyph glyph-name="uni0431.loclMKDSRB" horiz-adv-x="484" 
d="M242 -13q-94 0 -149 62t-55 168q0 82 31.5 140t97.5 102q-49 33 -70 65t-21 69q0 50 32.5 82.5t97.5 39.5q53 5 101.5 8t93.5 9l13 -72q-61 -7 -105 -8t-76 -5q-41 -4 -56.5 -17.5t-15.5 -36.5q0 -52 111 -106q51 -24 90 -58.5t61.5 -83.5t22.5 -120q0 -115 -54 -176.5
t-150 -61.5zM127 215q0 -73 30.5 -113t84.5 -40q56 0 85.5 41.5t29.5 120.5q0 73 -26.5 116.5t-78.5 69.5q-11 6 -22 11q-103 -66 -103 -206z" />
    <glyph glyph-name="uni0432.loclBGR" horiz-adv-x="477" 
d="M439 211q0 -104 -54 -164t-146 -60q-104 0 -152.5 87t-48.5 270v96q0 147 56.5 230t152.5 83q77 0 121 -50t44 -136q0 -53 -23.5 -95.5t-62.5 -68.5q53 -20 83 -70t30 -122zM124 440v-32q26 6 56.5 10t51.5 5q46 12 69 43.5t23 92.5q0 58 -22 88.5t-63 30.5
q-53 0 -84 -61t-31 -177zM238 351q-25 0 -56.5 -3t-57.5 -9q0 -138 25.5 -207.5t90.5 -69.5q52 0 81.5 40t29.5 109q0 140 -113 140z" />
    <glyph glyph-name="uni0433.loclBGR" horiz-adv-x="381" 
d="M351 32q-32 -24 -69.5 -34.5t-78.5 -10.5q-79 0 -126 41.5t-47 111.5q0 47 19 76t53 47.5t79 31.5q41 12 61.5 30t20.5 59q0 69 -83 69q-57 0 -116 -45l-15 72q30 24 66.5 34.5t76.5 10.5q71 0 113 -40t42 -105q0 -46 -20 -76t-53 -48t-72 -28q-40 -10 -62.5 -28.5
t-22.5 -56.5q0 -84 94 -84q32 0 61 11t63 36z" />
    <glyph glyph-name="uni0434.loclBGR" horiz-adv-x="502" 
d="M70 -183l20 73q26 -20 59.5 -32.5t68.5 -12.5q76 0 107.5 47.5t31.5 151.5v43q-42 -87 -139 -87q-54 0 -94.5 33.5t-63 93t-22.5 136.5t23.5 136t65.5 92.5t98 33.5q99 0 137 -93l3 80h78v-459q0 -144 -54.5 -213t-170.5 -69q-43 0 -82.5 12.5t-65.5 33.5zM363 263
q0 86 -31.5 136.5t-87.5 50.5t-86.5 -50.5t-30.5 -136.5q0 -87 30.5 -137.5t85.5 -50.5q57 0 88.5 50t31.5 138z" />
    <glyph glyph-name="uni0436.loclBGR" horiz-adv-x="660" 
d="M103 0h-95l144 265l-127 247h91l105 -216h67v444h84v-444h67l105 216h91l-127 -247l144 -265h-95l-118 226h-67v-226h-84v226h-67z" />
    <glyph glyph-name="uni0437.loclBGR" horiz-adv-x="385" 
d="M178 -229q-49 0 -91 12t-71 31l16 70q23 -15 57.5 -28t74.5 -13q56 0 86 36.5t30 104.5q0 62 -30 99.5t-82 37.5h-76v72h69q47 0 76 37.5t29 98.5q0 56 -28.5 90t-75.5 34q-35 0 -66.5 -12t-57.5 -29l-16 70q31 18 66.5 30.5t79.5 12.5q54 0 95.5 -25t64.5 -69t23 -101
q0 -62 -25 -103t-62 -63q45 -24 73 -69.5t28 -116.5q0 -94 -51 -150.5t-136 -56.5z" />
    <glyph glyph-name="uni0438.loclBGR" horiz-adv-x="469" 
d="M332 0l-3 82q-33 -95 -128 -95q-146 0 -146 215v310h86v-295q0 -79 18.5 -116t64.5 -37q50 0 75 42t25 122v284h86v-512h-78z" />
    <glyph glyph-name="uni043A.loclBGR" horiz-adv-x="444" 
d="M145 0h-86v740h86v-444h65l118 216h91l-139 -247l156 -265h-95l-130 226h-66v-226z" />
    <glyph glyph-name="uni043B.loclBGR" horiz-adv-x="439" 
d="M96 0h-88l166 512h90l167 -512h-90l-124 422z" />
    <glyph glyph-name="uni043F.loclBGR" horiz-adv-x="475" 
d="M420 310v-310h-86v295q0 80 -19 116.5t-67 36.5q-51 0 -77 -42t-26 -122v-284h-86v512h78l3 -82q33 95 131 95q149 0 149 -215z" />
    <glyph glyph-name="uni0442.loclBGR" horiz-adv-x="720" 
d="M145 284v-284h-86v512h78l3 -80q32 93 123 93q98 0 128 -105q32 105 132 105q142 0 142 -215v-310h-86v295q0 80 -17.5 116.5t-61.5 36.5q-47 0 -71 -42t-24 -122v-284h-86v295q0 80 -17.5 116.5t-61.5 36.5q-47 0 -71 -42t-24 -122z" />
    <glyph glyph-name="uni0444.loclBGR" horiz-adv-x="616" 
d="M265 -216v205q-113 13 -170 85.5t-57 181.5t56.5 181.5t170.5 85.5v177h86v-177q113 -13 170 -86t57 -182q0 -108 -56.5 -180.5t-170.5 -85.5v-205h-86zM489 255q0 91 -35.5 138t-105.5 56v-386q69 10 105 58t36 134zM127 256q0 -91 35.5 -137.5t105.5 -55.5v386
q-69 -10 -105 -58.5t-36 -134.5z" />
    <glyph glyph-name="uni0446.loclBGR" horiz-adv-x="490" 
d="M398 -142v142h-66l-3 82q-33 -95 -128 -95q-146 0 -146 215v310h86v-295q0 -79 18.5 -116t64.5 -37q50 0 75 42t25 122v284h86v-442h68v-212h-80z" />
    <glyph glyph-name="uni0448.loclBGR" horiz-adv-x="720" 
d="M197 -13q-142 0 -142 215v310h86v-295q0 -79 17.5 -116t61.5 -37q47 0 71 42t24 122v284h86v-295q0 -79 17.5 -116t61.5 -37q47 0 71 42t24 122v284h86v-512h-78l-3 80q-32 -93 -123 -93q-98 0 -128 105q-32 -105 -132 -105z" />
    <glyph glyph-name="uni0449.loclBGR" horiz-adv-x="741" 
d="M197 -13q-142 0 -142 215v310h86v-295q0 -79 17.5 -116t61.5 -37q47 0 71 42t24 122v284h86v-295q0 -79 17.5 -116t61.5 -37q47 0 71 42t24 122v284h86v-442h68v-212h-80v142h-66l-3 80q-32 -93 -123 -93q-98 0 -128 105q-32 -105 -132 -105z" />
    <glyph glyph-name="uni044A.loclBGR" horiz-adv-x="504" 
d="M483 190q0 -94 -48.5 -148.5t-132.5 -54.5q-82 0 -131 56t-49 148v251h-112l9 70h189v-180q40 61 116 61q75 0 117 -54t42 -149zM208 190q0 -58 26 -94.5t69 -36.5t68 35.5t25 95.5q0 62 -24.5 96.5t-67.5 34.5q-44 0 -70 -35.5t-26 -95.5z" />
    <glyph glyph-name="uni044C.loclBGR" horiz-adv-x="441" 
d="M420 190q0 -94 -48.5 -148.5t-132.5 -54.5q-82 0 -131 56t-49 148v321h86v-180q40 61 116 61q75 0 117 -54t42 -149zM145 190q0 -58 26 -94.5t69 -36.5t68 35.5t25 95.5q0 62 -24.5 96.5t-67.5 34.5q-44 0 -70 -35.5t-26 -95.5z" />
    <glyph glyph-name="uni044E.loclBGR" horiz-adv-x="666" 
d="M145 0h-86v739h86v-439h71q10 102 65 163.5t140 61.5q63 0 109.5 -33.5t72 -94t25.5 -141.5q0 -80 -25.5 -141t-72 -94.5t-109.5 -33.5q-59 0 -104 30t-71.5 85t-30.5 128h-70v-230zM421 62q57 0 87.5 52t30.5 142q0 89 -30.5 141.5t-87.5 52.5t-87.5 -52.5t-30.5 -141.5
q0 -90 30.5 -142t87.5 -52z" />
    <glyph glyph-name="uni045D.loclBGR" horiz-adv-x="469" 
d="M332 0l-3 82q-33 -95 -128 -95q-146 0 -146 215v310h86v-295q0 -79 18.5 -116t64.5 -37q50 0 75 42t25 122v284h86v-512h-78zM223 594l-122 153h99l99 -153h-76z" />
    <glyph glyph-name="uni0306.cyrl" 
d="M0 586q-64 0 -99 34t-43 113l73 10q3 -55 20.5 -78t48.5 -23t48.5 23t20.5 78l73 -10q-7 -79 -42.5 -113t-99.5 -34z" />
    <glyph glyph-name="uni0306.cyrl.cap" 
d="M148 879q-7 -67 -45 -103t-103 -36t-102.5 36t-45.5 103l75 10q7 -91 73 -91t73 91z" />
    <glyph glyph-name="uni0439.loclBGR" horiz-adv-x="469" 
d="M332 0l-3 82q-33 -95 -128 -95q-146 0 -146 215v310h86v-295q0 -79 18.5 -116t64.5 -37q50 0 75 42t25 122v284h86v-512h-78zM233 586q-64 0 -99 34t-43 113l73 10q3 -55 20.5 -78t48.5 -23t48.5 23t20.5 78l73 -10q-7 -79 -42.5 -113t-99.5 -34z" />
    <glyph glyph-name="acutecomb.grek" 
d="M-42 608l48 188h103l-76 -188h-75z" />
    <glyph glyph-name="acutecomb.grek.cap" 
d="M-45 478l30 222h101l-58 -222h-73z" />
    <glyph glyph-name="highdef" 
d="M0 1075l-25 50h50zM-25 -552l25 50l25 -50h-50z" />
    </font>
</defs>
</svg>
