<?xml version="1.0" standalone="no"?>
<!DOCTYPE svg PUBLIC "-//W3C//DTD SVG 1.1//EN" "http://www.w3.org/Graphics/SVG/1.1/DTD/svg11.dtd" >
<svg xmlns="http://www.w3.org/2000/svg" xmlns:xlink="http://www.w3.org/1999/xlink" version="1.1">
<metadata>
Created by FontForge 20170731 at Thu Nov  7 21:04:28 2019
 By Aleksey,,,
Copyright 2019 FedEx Corporation. This font may not be altered in any way without prior permission of the FedEx Corporation.
</metadata>
<defs>
<font id="FedExSans-CondensedItalic" horiz-adv-x="0" >
  <font-face 
    font-family="FedEx Sans Cd"
    font-weight="400"
    font-style="italic"
    font-stretch="condensed"
    units-per-em="1000"
    panose-1="2 11 6 6 2 2 3 9 2 4"
    ascent="740"
    descent="-260"
    x-height="512"
    cap-height="700"
    bbox="-206 -552 1067 1125"
    underline-thickness="76"
    underline-position="-222"
    slope="-11"
    unicode-range="U+000D-FFFD"
  />
<missing-glyph horiz-adv-x="500" 
d="M0 0v700h500v-700h-500zM249 394l162 260h-324zM446 82v536l-168 -268zM54 83l167 267l-167 266v-533zM87 46h324l-162 259z" />
    <glyph glyph-name="uniFB00" unicode="ff" horiz-adv-x="583" 
d="M43 0l87 444h-84l23 68h74l9 47q20 101 60.5 147.5t109.5 46.5q23 0 46 -8t39 -22l-24 -65q-29 22 -58 22q-43 0 -60.5 -32t-29.5 -93l-8 -43h194l9 47q20 101 63 147.5t112 46.5q24 0 49.5 -9t41.5 -23l-24 -65q-32 24 -64 24q-43 0 -63 -32t-32 -93l-8 -43h125l-13 -68
h-126l-86 -444h-84l87 444h-195l-86 -444h-84z" />
    <glyph glyph-name="uniFB01" unicode="fi" horiz-adv-x="514" 
d="M43 0l87 444h-84l23 68h74l9 47q20 101 60.5 147.5t109.5 46.5q49 0 85 -31l-24 -65q-28 23 -58 23q-43 0 -60.5 -32t-29.5 -93l-8 -43h278l-100 -512h-84l87 444h-195l-86 -444h-84zM486 617q-22 0 -35 13t-13 35q0 29 19 50.5t46 21.5q21 0 34.5 -14t13.5 -36
q0 -28 -19 -49t-46 -21z" />
    <glyph glyph-name="uniFB02" unicode="fl" horiz-adv-x="522" 
d="M43 0l87 444h-84l23 68h74l9 47q20 101 60.5 147.5t109.5 46.5q49 0 85 -31l-24 -65q-28 23 -58 23q-43 0 -60.5 -32t-29.5 -93l-8 -43h113l-13 -68h-114l-86 -444h-84zM329 0l144 740h84l-144 -740h-84z" />
    <glyph glyph-name="uniFB03" unicode="ffi" horiz-adv-x="792" 
d="M43 0l87 444h-84l23 68h74l9 47q20 101 60.5 147.5t109.5 46.5q49 0 85 -31l-24 -65q-28 23 -58 23q-43 0 -60.5 -32t-29.5 -93l-8 -43h194l9 47q20 101 60.5 147.5t109.5 46.5q49 0 85 -31l-24 -65q-28 23 -58 23q-43 0 -60.5 -32t-29.5 -93l-8 -43h278l-100 -512h-84
l87 444h-195l-86 -444h-84l87 444h-195l-86 -444h-84zM764 617q-22 0 -35 13t-13 35q0 29 19 50.5t46 21.5q21 0 34.5 -14t13.5 -36q0 -28 -19 -49t-46 -21z" />
    <glyph glyph-name="uniFB04" unicode="ffl" horiz-adv-x="800" 
d="M43 0l87 444h-84l23 68h74l9 47q20 101 60.5 147.5t109.5 46.5q49 0 85 -31l-24 -65q-28 23 -58 23q-43 0 -60.5 -32t-29.5 -93l-8 -43h194l9 47q20 101 60.5 147.5t109.5 46.5q49 0 85 -31l-24 -65q-28 23 -58 23q-43 0 -60.5 -32t-29.5 -93l-8 -43h113l-13 -68h-114
l-86 -444h-84l87 444h-195l-86 -444h-84zM607 0l144 740h84l-144 -740h-84z" />
    <glyph glyph-name="f_b" unicode="fb" horiz-adv-x="811" 
d="M43 0l87 444h-84l23 68h74l9 47q20 101 60.5 147.5t109.5 46.5q49 0 85 -31l-24 -65q-28 23 -58 23q-43 0 -60.5 -32t-29.5 -93l-8 -43h113l-13 -68h-114l-86 -444h-84zM552 -13q-104 0 -125 113l-23 -100h-75l144 740h84l-58 -296q23 36 57.5 58.5t80.5 22.5
q65 0 103 -54t38 -144q0 -40 -8.5 -86t-26 -91t-44 -82t-63.5 -59t-84 -22zM539 60q34 0 59 19t43 49.5t28.5 66.5t15.5 70t5 59q0 62 -22 95t-63 33q-43 0 -72.5 -28t-47.5 -70.5t-26 -87t-8 -76.5q0 -130 88 -130z" />
    <glyph glyph-name="f_h" unicode="fh" horiz-adv-x="783" 
d="M43 0l87 444h-84l23 68h74l9 47q20 101 60.5 147.5t109.5 46.5q49 0 85 -31l-24 -65q-28 23 -58 23q-43 0 -60.5 -32t-29.5 -93l-8 -43h113l-13 -68h-114l-86 -444h-84zM329 0l144 740h84l-58 -297q27 42 63 62t73 20q51 0 81.5 -32.5t30.5 -101.5q0 -22 -3 -45t-7 -43
l-59 -303h-84l57 292q4 20 8 45t4 45q0 68 -61 68q-45 0 -82 -44.5t-51 -118.5l-56 -287h-84z" />
    <glyph glyph-name="f_j" unicode="fj" horiz-adv-x="514" 
d="M43 0l87 444h-84l23 68h74l9 47q20 101 60.5 147.5t109.5 46.5q49 0 85 -31l-24 -65q-28 23 -58 23q-43 0 -60.5 -32t-29.5 -93l-8 -43h278l-112 -575q-15 -78 -50.5 -122t-106.5 -44q-52 0 -84 22l22 68q29 -18 60 -18q34 0 50.5 26t25.5 74l98 501h-195l-86 -444h-84z
M486 617q-22 0 -35 13t-13 35q0 29 19 50.5t46 21.5q21 0 34.5 -14t13.5 -36q0 -28 -19 -49t-46 -21z" />
    <glyph glyph-name="f_k" unicode="fk" horiz-adv-x="759" 
d="M43 0l87 444h-84l23 68h74l9 47q20 101 60.5 147.5t109.5 46.5q49 0 85 -31l-24 -65q-28 23 -58 23q-43 0 -60.5 -32t-29.5 -93l-8 -43h113l-13 -68h-114l-86 -444h-84zM329 0l144 740h84l-90 -462l222 234h100l-196 -204l108 -308h-93l-77 244l-88 -91l-30 -153h-84z
" />
    <glyph glyph-name="f_t" unicode="ft" horiz-adv-x="606" 
d="M43 0l87 444h-84l23 68h74l9 47q20 101 60.5 147.5t109.5 46.5q49 0 85 -31l-24 -65q-28 23 -58 23q-43 0 -60.5 -32t-29.5 -93l-8 -43h190l32 167h84l-32 -167h121l-13 -68h-122l-53 -276q-1 -8 -3.5 -23t-2.5 -31q0 -30 13 -39.5t33 -9.5q34 0 69 19l-6 -74
q-37 -20 -91 -20q-48 0 -76 27t-28 85q0 17 2.5 33.5t5.5 32.5l53 276h-190l-86 -444h-84z" />
    <glyph glyph-name="f_f_b" unicode="ffb" horiz-adv-x="1089" 
d="M43 0l87 444h-84l23 68h74l9 47q20 101 60.5 147.5t109.5 46.5q49 0 85 -31l-24 -65q-28 23 -58 23q-43 0 -60.5 -32t-29.5 -93l-8 -43h194l9 47q20 101 60.5 147.5t109.5 46.5q49 0 85 -31l-24 -65q-28 23 -58 23q-43 0 -60.5 -32t-29.5 -93l-8 -43h113l-13 -68h-114
l-86 -444h-84l87 444h-195l-86 -444h-84zM830 -13q-104 0 -125 113l-23 -100h-75l144 740h84l-58 -296q23 36 57.5 58.5t80.5 22.5q65 0 103 -54t38 -144q0 -40 -8.5 -86t-26 -91t-44 -82t-63.5 -59t-84 -22zM817 60q34 0 59 19t43 49.5t28.5 66.5t15.5 70t5 59q0 62 -22 95
t-63 33q-43 0 -72.5 -28t-47.5 -70.5t-26 -87t-8 -76.5q0 -130 88 -130z" />
    <glyph glyph-name="f_f_h" unicode="ffh" horiz-adv-x="1061" 
d="M43 0l87 444h-84l23 68h74l9 47q20 101 60.5 147.5t109.5 46.5q49 0 85 -31l-24 -65q-28 23 -58 23q-43 0 -60.5 -32t-29.5 -93l-8 -43h194l9 47q20 101 60.5 147.5t109.5 46.5q49 0 85 -31l-24 -65q-28 23 -58 23q-43 0 -60.5 -32t-29.5 -93l-8 -43h113l-13 -68h-114
l-86 -444h-84l87 444h-195l-86 -444h-84zM607 0l144 740h84l-58 -297q27 42 63 62t73 20q51 0 81.5 -32.5t30.5 -101.5q0 -22 -3 -45t-7 -43l-59 -303h-84l57 292q4 20 8 45t4 45q0 68 -61 68q-45 0 -82 -44.5t-51 -118.5l-56 -287h-84z" />
    <glyph glyph-name="f_f_j" unicode="ffj" horiz-adv-x="792" 
d="M43 0l87 444h-84l23 68h74l9 47q20 101 60.5 147.5t109.5 46.5q49 0 85 -31l-24 -65q-28 23 -58 23q-43 0 -60.5 -32t-29.5 -93l-8 -43h194l9 47q20 101 60.5 147.5t109.5 46.5q49 0 85 -31l-24 -65q-28 23 -58 23q-43 0 -60.5 -32t-29.5 -93l-8 -43h278l-112 -575
q-15 -78 -50.5 -122t-106.5 -44q-52 0 -84 22l22 68q29 -18 60 -18q34 0 50.5 26t25.5 74l98 501h-195l-86 -444h-84l87 444h-195l-86 -444h-84zM764 617q-22 0 -35 13t-13 35q0 29 19 50.5t46 21.5q21 0 34.5 -14t13.5 -36q0 -28 -19 -49t-46 -21z" />
    <glyph glyph-name="f_f_k" unicode="ffk" horiz-adv-x="1037" 
d="M43 0l87 444h-84l23 68h74l9 47q20 101 60.5 147.5t109.5 46.5q49 0 85 -31l-24 -65q-28 23 -58 23q-43 0 -60.5 -32t-29.5 -93l-8 -43h194l9 47q20 101 60.5 147.5t109.5 46.5q49 0 85 -31l-24 -65q-28 23 -58 23q-43 0 -60.5 -32t-29.5 -93l-8 -43h113l-13 -68h-114
l-86 -444h-84l87 444h-195l-86 -444h-84zM607 0l144 740h84l-90 -462l222 234h100l-196 -204l108 -308h-93l-77 244l-88 -91l-30 -153h-84z" />
    <glyph glyph-name="f_f_t" unicode="fft" horiz-adv-x="884" 
d="M43 0l87 444h-84l23 68h74l9 47q20 101 60.5 147.5t109.5 46.5q49 0 85 -31l-24 -65q-28 23 -58 23q-43 0 -60.5 -32t-29.5 -93l-8 -43h194l9 47q20 101 60.5 147.5t109.5 46.5q49 0 85 -31l-24 -65q-28 23 -58 23q-43 0 -60.5 -32t-29.5 -93l-8 -43h190l32 167h84
l-32 -167h121l-13 -68h-122l-53 -276q-1 -8 -3.5 -23t-2.5 -31q0 -30 13 -39.5t33 -9.5q34 0 69 19l-6 -74q-37 -20 -91 -20q-48 0 -76 27t-28 85q0 17 2.5 33.5t5.5 32.5l53 276h-190l-86 -444h-84l87 444h-195l-86 -444h-84z" />
    <glyph glyph-name=".notdef" horiz-adv-x="500" 
d="M0 0v700h500v-700h-500zM249 394l162 260h-324zM446 82v536l-168 -268zM54 83l167 267l-167 266v-533zM87 46h324l-162 259z" />
    <glyph glyph-name="uni0000" 
 />
    <glyph glyph-name="uni0000" 
 />
    <glyph glyph-name="uni000D" unicode="&#xd;" horiz-adv-x="172" 
 />
    <glyph glyph-name="space" unicode=" " horiz-adv-x="172" 
 />
    <glyph glyph-name="exclam" unicode="!" horiz-adv-x="211" 
d="M50 204l86 496h90l-106 -496h-70zM60 -8q-25 0 -38.5 15.5t-13.5 38.5q0 26 18 47t47 21q25 0 38.5 -15.5t13.5 -38.5q0 -26 -18 -47t-47 -21z" />
    <glyph glyph-name="quotedbl" unicode="&#x22;" horiz-adv-x="312" 
d="M82 447l41 253h87l-57 -253h-71zM233 447l41 253h87l-57 -253h-71z" />
    <glyph glyph-name="numbersign" unicode="#" horiz-adv-x="484" 
d="M31 0l63 183h-69l14 64h78l67 194h-81l14 64h89l62 179h69l-62 -179h98l62 179h69l-62 -179h69l-14 -64h-77l-67 -194h80l-14 -64h-88l-63 -183h-70l63 183h-97l-63 -183h-70zM186 247h98l67 194h-98z" />
    <glyph glyph-name="dollar" unicode="$" horiz-adv-x="484" 
d="M134 -110l19 96q-46 5 -82 22.5t-69 48.5l35 73q21 -26 54.5 -44t76.5 -24l50 256q-124 55 -124 169q0 59 25 105t69.5 73.5t103.5 30.5l19 98h60l-19 -100q37 -5 70 -20t59 -41l-32 -71q-24 26 -52 39.5t-60 17.5l-47 -241q69 -32 98 -71.5t29 -95.5q0 -99 -54.5 -159
t-149.5 -67l-18 -95h-61zM180 497q0 -33 14 -54.5t41 -39.5l42 216q-46 -8 -71.5 -40t-25.5 -82zM329 197q0 33 -12.5 55.5t-42.5 41.5l-46 -232q101 15 101 135z" />
    <glyph glyph-name="percent" unicode="%" horiz-adv-x="722" 
d="M134 0l391 684h74l-391 -684h-74zM171 290q-47 0 -73.5 32.5t-26.5 90.5q0 80 20.5 143t56 99.5t81.5 36.5t72 -32.5t26 -90.5q0 -79 -20.5 -142.5t-55.5 -100t-80 -36.5zM172 346q23 0 43 33.5t33 86t13 108.5q0 62 -34 62q-23 0 -43.5 -33.5t-33.5 -85.5t-13 -109
q0 -62 35 -62zM527 -8q-47 0 -73.5 32.5t-26.5 90.5q0 80 20.5 143t56 99.5t81.5 36.5t72 -32.5t26 -90.5q0 -79 -20.5 -142.5t-55.5 -100t-80 -36.5zM528 48q23 0 43 33.5t33 86t13 108.5q0 62 -34 62q-23 0 -43.5 -33.5t-33.5 -85.5t-13 -109q0 -62 35 -62z" />
    <glyph glyph-name="ampersand" unicode="&#x26;" horiz-adv-x="573" 
d="M202 -14q-82 0 -128.5 45t-46.5 125q0 143 152 221q-17 36 -25 69.5t-8 66.5q0 58 21 103t59 71.5t88 26.5q58 0 93 -36.5t35 -102.5q0 -56 -20.5 -95.5t-56 -68.5t-81.5 -54l103 -176q20 35 34 78.5t20 94.5l78 -12q-11 -69 -35 -126.5t-57 -102.5l66 -113h-94l-30 52
q-78 -66 -167 -66zM225 520q0 -27 7 -54t23 -58q55 29 82.5 65.5t27.5 95.5q0 37 -14 57t-43 20q-39 0 -61 -36.5t-22 -89.5zM116 167q0 -49 24 -79t70 -30q66 0 123 54l-123 211q-49 -30 -71.5 -69t-22.5 -87z" />
    <glyph glyph-name="quotesingle" unicode="'" horiz-adv-x="161" 
d="M82 447l41 253h87l-57 -253h-71z" />
    <glyph glyph-name="parenleft" unicode="(" horiz-adv-x="281" 
d="M132 -179q-43 62 -68.5 149.5t-25.5 184.5q0 121 33.5 233t93.5 208t141 169l46 -42q-72 -71 -122 -162.5t-76 -196.5t-26 -217q0 -74 14.5 -149.5t44.5 -136.5z" />
    <glyph glyph-name="parenright" unicode=")" horiz-adv-x="281" 
d="M-11 -181l-46 42q73 71 122.5 162.5t75.5 197t26 216.5q0 74 -14.5 149.5t-44.5 136.5l55 40q43 -62 68.5 -149.5t25.5 -184.5q0 -121 -33 -233t-93.5 -207.5t-141.5 -169.5z" />
    <glyph glyph-name="asterisk" unicode="*" horiz-adv-x="383" 
d="M169 368l-53 42l98 110l-128 38l25 65l116 -58l-10 135h67l-10 -135l116 58l25 -65l-127 -38l97 -110l-53 -42l-82 116z" />
    <glyph glyph-name="plus" unicode="+" horiz-adv-x="484" 
d="M220 104v202h-166v74h166v200h78v-200h166v-74h-166v-202h-78z" />
    <glyph glyph-name="comma" unicode="," horiz-adv-x="208" 
d="M-23 -158l-22 42q33 17 60 46t40 62q-23 1 -35.5 16.5t-12.5 37.5q0 26 18 47t47 21q24 0 38 -16t14 -45q0 -39 -20 -81t-53 -76.5t-74 -53.5z" />
    <glyph glyph-name="hyphen" unicode="-" horiz-adv-x="304" 
d="M35 252l17 79h231l-17 -79h-231z" />
    <glyph glyph-name="hyphen" unicode="&#x2011;" horiz-adv-x="304" 
d="M35 252l17 79h231l-17 -79h-231z" />
    <glyph glyph-name="hyphen" unicode="&#x2010;" horiz-adv-x="304" 
d="M35 252l17 79h231l-17 -79h-231z" />
    <glyph glyph-name="hyphen" unicode="&#xad;" horiz-adv-x="304" 
d="M35 252l17 79h231l-17 -79h-231z" />
    <glyph glyph-name="period" unicode="." horiz-adv-x="208" 
d="M58 -8q-25 0 -38.5 15.5t-13.5 38.5q0 26 18 47t47 21q25 0 38.5 -15.5t13.5 -38.5q0 -26 -18 -47t-47 -21z" />
    <glyph glyph-name="slash" unicode="/" horiz-adv-x="362" 
d="M-68 -156l417 896h95l-417 -896h-95z" />
    <glyph glyph-name="zero" unicode="0" horiz-adv-x="484" 
d="M209 -14q-77 0 -118.5 56.5t-41.5 164.5q0 49 9 113t28 130t50.5 122.5t76.5 91t106 34.5q77 0 118.5 -56.5t41.5 -164.5q0 -49 -9 -113t-28 -130t-50.5 -122.5t-76.5 -91t-106 -34.5zM214 61q37 0 66.5 32t50.5 83.5t34.5 110t20 112.5t6.5 91q0 65 -19.5 99t-58.5 34
q-37 0 -66.5 -32t-50.5 -83.5t-34.5 -110t-20 -112.5t-6.5 -91q0 -64 19.5 -98.5t58.5 -34.5z" />
    <glyph glyph-name="one" unicode="1" horiz-adv-x="484" 
d="M189 0l111 574l-111 -77l-35 67l176 120h78l-133 -684h-86z" />
    <glyph glyph-name="two" unicode="2" horiz-adv-x="484" 
d="M7 0l13 67q47 44 83.5 79t68 66t61.5 63q47 50 76 90t42.5 78.5t13.5 82.5q0 46 -22.5 71.5t-62.5 25.5q-37 0 -70 -15.5t-69 -45.5l-13 70q38 32 79 49t87 17q74 0 116.5 -45t42.5 -119q0 -56 -18.5 -104.5t-54.5 -96.5t-88 -103q-31 -32 -68 -67t-98 -88h261l-24 -75
h-356z" />
    <glyph glyph-name="three" unicode="3" horiz-adv-x="484" 
d="M174 -14q-46 0 -89 13.5t-75 38.5l30 68q62 -47 136 -47q68 0 104 44.5t36 114.5q0 103 -103 103h-69l14 69h68q62 0 102 41t40 106q0 41 -26.5 64.5t-66.5 23.5q-37 0 -67.5 -12.5t-67.5 -35.5l-6 69q74 52 151 52q76 0 123.5 -42t47.5 -111q0 -70 -36 -120.5t-95 -71.5
q37 -15 57.5 -51.5t20.5 -85.5q0 -68 -28.5 -120t-79.5 -81t-121 -29z" />
    <glyph glyph-name="four" unicode="4" horiz-adv-x="484" 
d="M250 0l33 170h-263l13 68l346 446h86l-86 -444h71l-22 -70h-63l-33 -170h-82zM121 240h175l59 302z" />
    <glyph glyph-name="five" unicode="5" horiz-adv-x="484" 
d="M175 -14q-45 0 -88.5 14t-74.5 38l30 68q26 -22 63 -34.5t74 -12.5q70 0 108.5 48.5t38.5 125.5q0 108 -107 108q-30 0 -56 -4t-50 -11l-21 13l92 345h287l-6 -76h-223l-54 -204q34 7 69 7q76 0 117 -45t41 -127q0 -75 -29.5 -132t-83.5 -89t-127 -32z" />
    <glyph glyph-name="six" unicode="6" horiz-adv-x="484" 
d="M224 -14q-82 0 -126 59.5t-44 175.5q0 101 22.5 187.5t64.5 151.5t101 101.5t133 36.5q34 0 67.5 -8.5t55.5 -23.5l-29 -70q-19 14 -45 21t-54 7q-83 0 -140.5 -75.5t-79.5 -210.5q56 105 153 105q63 0 100.5 -45.5t37.5 -125.5q0 -82 -28 -147t-77 -102t-112 -37z
M226 58q36 0 65.5 27.5t46.5 75t17 105.5q0 50 -20.5 79t-55.5 29q-38 0 -70 -27t-50.5 -72t-18.5 -101q0 -55 22.5 -85.5t63.5 -30.5z" />
    <glyph glyph-name="seven" unicode="7" horiz-adv-x="484" 
d="M74 0l333 608h-283l24 76h364l-14 -73l-330 -611h-94z" />
    <glyph glyph-name="eight" unicode="8" horiz-adv-x="484" 
d="M201 -14q-80 0 -125.5 45t-45.5 121q0 73 38.5 129.5t102.5 79.5q-56 35 -56 124q0 60 26.5 108t73 76.5t105.5 28.5q74 0 115.5 -42t41.5 -113q0 -66 -32.5 -116t-89.5 -72q34 -15 52 -51.5t18 -85.5q0 -66 -29.5 -118.5t-80 -83t-114.5 -30.5zM277 390q32 0 58 18.5
t41 51t15 72.5q0 43 -20.5 68.5t-57.5 25.5q-48 0 -80 -40.5t-32 -100.5q0 -44 20 -69.5t56 -25.5zM207 58q56 0 92 44.5t36 112.5q0 50 -23.5 77t-64.5 27q-36 0 -64.5 -20.5t-45.5 -56.5t-17 -81q0 -48 23 -75.5t64 -27.5z" />
    <glyph glyph-name="nine" unicode="9" horiz-adv-x="484" 
d="M144 -14q-42 0 -72 8t-56 24l29 70q44 -28 105 -28q75 0 130 71.5t84 210.5q-56 -101 -151 -101q-66 0 -101.5 48t-35.5 122q0 54 15 105t43.5 92t69.5 65.5t93 24.5q56 0 93 -26t55.5 -69.5t18.5 -97.5q0 -76 -14 -151t-41 -141t-66 -117t-89 -80.5t-110 -29.5zM240 310
q34 0 59.5 18.5t43 48.5t26 66t8.5 70q0 53 -22.5 83t-65.5 30q-32 0 -56 -19t-39.5 -50t-23.5 -67.5t-8 -71.5q0 -49 20 -78.5t58 -29.5z" />
    <glyph glyph-name="colon" unicode=":" horiz-adv-x="208" 
d="M58 -8q-25 0 -38.5 15.5t-13.5 38.5q0 26 18 47t47 21q25 0 38.5 -15.5t13.5 -38.5q0 -26 -18 -47t-47 -21zM137 399q-25 0 -38.5 15.5t-13.5 38.5q0 26 18 47t47 21q25 0 38.5 -15.5t13.5 -38.5q0 -26 -18 -47t-47 -21z" />
    <glyph glyph-name="semicolon" unicode=";" horiz-adv-x="208" 
d="M-23 -158l-22 42q33 17 60 46t40 62q-23 1 -35.5 16.5t-12.5 37.5q0 26 18 47t47 21q24 0 38 -16t14 -45q0 -39 -20 -81t-53 -76.5t-74 -53.5zM138 399q-25 0 -38.5 15.5t-13.5 38.5q0 26 18 47t47 21q25 0 38.5 -15.5t13.5 -38.5q0 -26 -18 -47t-47 -21z" />
    <glyph glyph-name="less" unicode="&#x3c;" horiz-adv-x="484" 
d="M446 120l-410 186v72l410 186v-88l-326 -133l326 -133v-90z" />
    <glyph glyph-name="equal" unicode="=" horiz-adv-x="484" 
d="M54 180v74h409v-74h-409zM54 428v74h409v-74h-409z" />
    <glyph glyph-name="greater" unicode="&#x3e;" horiz-adv-x="484" 
d="M72 120v90l326 133l-326 133v88l410 -186v-72z" />
    <glyph glyph-name="question" unicode="?" horiz-adv-x="397" 
d="M121 204l3 25q5 46 27.5 82.5t75.5 80.5q37 31 58 55.5t30 50t9 58.5q0 88 -80 88q-61 0 -129 -42l-5 68q34 22 74 34t76 12q72 0 113 -40t41 -108q0 -47 -13 -82.5t-40.5 -67.5t-72.5 -71q-36 -31 -53 -51.5t-23.5 -36t-9.5 -33.5l-4 -22h-77zM146 -8q-25 0 -38.5 15.5
t-13.5 38.5q0 26 18 47t47 21q25 0 38.5 -15.5t13.5 -38.5q0 -26 -18 -47t-47 -21z" />
    <glyph glyph-name="at" unicode="@" horiz-adv-x="791" 
d="M341 -212q-142 0 -223.5 91.5t-81.5 267.5q0 123 33 223t91.5 171.5t138 110t172.5 38.5q86 0 151 -37.5t101.5 -108.5t36.5 -173q0 -73 -16 -137.5t-45 -114t-68 -77.5t-84 -28q-39 0 -61.5 24t-25.5 66q-20 -40 -52.5 -63t-69.5 -23q-55 0 -85.5 43.5t-30.5 124.5
q0 78 25 140.5t66.5 98.5t91.5 36q41 0 67 -26t32 -70l21 83h64l-56 -252q-3 -12 -6 -33.5t-3 -38.5q0 -26 9.5 -37.5t25.5 -11.5q35 0 63 40.5t44.5 106.5t16.5 142q0 127 -58 192t-162 65q-100 0 -179.5 -57.5t-125.5 -163.5t-46 -253q0 -144 62.5 -217t177.5 -73
q49 0 84.5 11t69.5 29l9 -66q-36 -19 -77 -31t-97 -12zM365 84q33 0 59.5 26.5t42 74t15.5 109.5q0 54 -17 78t-49 24t-58.5 -26.5t-41.5 -74t-15 -109.5q0 -55 17.5 -78.5t46.5 -23.5z" />
    <glyph glyph-name="A" unicode="A" horiz-adv-x="543" 
d="M-39 0l350 700h93l78 -700h-90l-18 190h-225l-92 -190h-96zM185 266h182l-30 315z" />
    <glyph glyph-name="B" unicode="B" horiz-adv-x="512" 
d="M18 0l136 700h170q85 0 131.5 -41.5t46.5 -115.5q0 -69 -37.5 -117t-102.5 -64q49 -11 76.5 -44.5t27.5 -83.5q0 -108 -70 -171t-192 -63h-186zM307 627h-81l-44 -228h81q72 0 112 38.5t40 108.5q0 81 -108 81zM258 327h-90l-50 -254h91q80 0 124 42.5t44 121.5
q0 44 -30.5 67t-88.5 23z" />
    <glyph glyph-name="C" unicode="C" horiz-adv-x="540" 
d="M299 -16q-118 0 -181.5 72t-63.5 208q0 59 14 122.5t42.5 122t71.5 105.5t102 74.5t133 27.5q89 0 155 -54l-34 -73q-30 26 -59.5 37t-65.5 11q-57 0 -100.5 -23.5t-75 -63t-51.5 -88t-29.5 -99.5t-9.5 -96q0 -204 165 -204q67 0 141 50l7 -83q-71 -46 -161 -46z" />
    <glyph glyph-name="D" unicode="D" horiz-adv-x="587" 
d="M18 0l136 700h176q67 0 121 -26t85.5 -83.5t31.5 -151.5q0 -129 -44 -228t-124 -155t-190 -56h-192zM311 623h-83l-106 -546h97q77 0 134.5 44t90 126t32.5 194q0 92 -39.5 137t-125.5 45z" />
    <glyph glyph-name="E" unicode="E" horiz-adv-x="465" 
d="M18 0l136 700h340l-3 -79h-264l-44 -226h243l-15 -79h-243l-46 -237h282l-25 -79h-361z" />
    <glyph glyph-name="F" unicode="F" horiz-adv-x="444" 
d="M18 0l136 700h341l-3 -79h-264l-46 -238h237l-15 -79h-238l-59 -304h-89z" />
    <glyph glyph-name="G" unicode="G" horiz-adv-x="578" 
d="M306 -16q-119 0 -185.5 69t-66.5 211q0 59 13.5 122.5t41 122t70 105.5t101.5 74.5t135 27.5q56 0 97.5 -15t73.5 -41l-34 -73q-30 26 -61.5 38t-79.5 12q-58 0 -102 -23.5t-75 -63t-50 -88t-28 -99.5t-9 -96q0 -106 45 -155t119 -49q30 0 52 3t40 9l43 223h-119l14 74
h204l-67 -348q-36 -18 -75 -29t-97 -11z" />
    <glyph glyph-name="H" unicode="H" horiz-adv-x="572" 
d="M18 0l136 700h89l-59 -305h258l59 305h89l-136 -700h-89l61 316h-258l-61 -316h-89z" />
    <glyph glyph-name="I" unicode="I" horiz-adv-x="225" 
d="M18 0l136 700h89l-136 -700h-89z" />
    <glyph glyph-name="J" unicode="J" horiz-adv-x="425" 
d="M124 -16q-43 0 -79.5 14t-60.5 37l26 70q26 -20 53.5 -31.5t61.5 -11.5q39 0 66 17.5t47 63.5t36 130l83 427h89l-85 -436q-16 -85 -42.5 -148t-72.5 -97.5t-122 -34.5z" />
    <glyph glyph-name="K" unicode="K" horiz-adv-x="526" 
d="M18 0l136 700h89l-67 -344l302 344h106l-266 -296l147 -404h-96l-115 332l-105 -116l-42 -216h-89z" />
    <glyph glyph-name="L" unicode="L" horiz-adv-x="437" 
d="M18 0l136 700h89l-121 -621h270l-25 -79h-349z" />
    <glyph glyph-name="M" unicode="M" horiz-adv-x="681" 
d="M18 0l136 700h110l69 -477l256 477h110l-136 -700h-83l107 554l-236 -436h-75l-66 441l-109 -559h-83z" />
    <glyph glyph-name="N" unicode="N" horiz-adv-x="570" 
d="M18 0l136 700h86l158 -538l105 538h85l-136 -700h-86l-159 538l-104 -538h-85z" />
    <glyph glyph-name="O" unicode="O" horiz-adv-x="632" 
d="M284 -16q-70 0 -121.5 34.5t-80 97.5t-28.5 149q0 56 12.5 118.5t38.5 121.5t65.5 106.5t92.5 76t121 28.5q70 0 121.5 -34.5t80 -97.5t28.5 -149q0 -56 -12.5 -118.5t-38.5 -121.5t-65.5 -106.5t-92.5 -76t-121 -28.5zM289 63q51 0 89.5 26t66 68.5t44 93t24.5 100.5
t8 89q0 94 -37 145.5t-105 51.5q-51 0 -89.5 -26t-66 -68.5t-44 -93t-24.5 -100.5t-8 -89q0 -94 37 -145.5t105 -51.5z" />
    <glyph glyph-name="P" unicode="P" horiz-adv-x="480" 
d="M18 0l137 700h164q80 0 125.5 -46.5t45.5 -132.5q0 -118 -67 -187t-183 -69h-82l-52 -265h-88zM302 626h-74l-56 -287h73q74 0 115 48.5t41 136.5q0 102 -99 102z" />
    <glyph glyph-name="Q" unicode="Q" horiz-adv-x="632" 
d="M284 -16q-70 0 -121.5 34.5t-80 97.5t-28.5 149q0 56 12.5 118.5t38.5 121.5t65.5 106.5t92.5 76t121 28.5q70 0 121.5 -34.5t80 -97.5t28.5 -149q0 -57 -13 -120t-39 -122.5t-66 -106.5l61 -111l-65 -43l-55 100q-32 -22 -70 -35t-83 -13zM289 63q32 0 59.5 11t49.5 30
l-73 134l64 43l62 -113q25 42 40.5 90.5t22.5 96t7 85.5q0 94 -37 145.5t-105 51.5q-51 0 -89.5 -26t-66 -68.5t-44 -93t-24.5 -100.5t-8 -89q0 -94 37 -145.5t105 -51.5z" />
    <glyph glyph-name="R" unicode="R" horiz-adv-x="510" 
d="M18 0l137 700h166q80 0 128 -45.5t48 -128.5q0 -85 -37 -141.5t-108 -84.5l81 -300h-92l-68 278q-13 -1 -31 -1h-82l-54 -277h-88zM304 626h-75l-54 -275h72q76 0 118 46t42 131q0 98 -103 98z" />
    <glyph glyph-name="S" unicode="S" horiz-adv-x="462" 
d="M176 -16q-51 0 -100.5 19t-87.5 56l36 74q32 -34 72.5 -53.5t84.5 -19.5q65 0 100.5 34.5t35.5 99.5q0 42 -23.5 72.5t-78.5 58.5q-64 32 -97 77.5t-33 111.5q0 61 27 106.5t76.5 70.5t115.5 25q47 0 91 -17.5t78 -49.5l-33 -74q-34 35 -67 50t-77 15q-53 0 -87.5 -32
t-34.5 -85q0 -45 22.5 -75t77.5 -57q65 -32 99.5 -77t34.5 -110q0 -105 -61.5 -162.5t-170.5 -57.5z" />
    <glyph glyph-name="T" unicode="T" horiz-adv-x="471" 
d="M141 0l121 621h-176l15 79h441l-15 -79h-176l-121 -621h-89z" />
    <glyph glyph-name="U" unicode="U" horiz-adv-x="568" 
d="M248 -16q-92 0 -140.5 46.5t-48.5 140.5q0 28 3.5 59.5t7.5 50.5l82 419h89l-82 -419q-5 -28 -8 -51t-3 -52q0 -60 27 -87.5t80 -27.5q72 0 107.5 55t57.5 166l81 416h88l-82 -423q-12 -60 -30.5 -113t-48 -93.5t-73.5 -63.5t-107 -23z" />
    <glyph glyph-name="V" unicode="V" horiz-adv-x="534" 
d="M170 0l-73 700h95l48 -578l273 578h96l-345 -700h-94z" />
    <glyph glyph-name="W" unicode="W" horiz-adv-x="761" 
d="M117 0l-17 700h92l1 -567l229 567h90l10 -565l220 565h91l-290 -700h-94l-7 557l-231 -557h-94z" />
    <glyph glyph-name="X" unicode="X" horiz-adv-x="522" 
d="M-39 0l273 368l-121 332h94l88 -264l185 264h101l-252 -342l132 -358h-94l-99 291l-206 -291h-101z" />
    <glyph glyph-name="Y" unicode="Y" horiz-adv-x="512" 
d="M160 0l56 287l-117 413h92l85 -331l209 331h100l-280 -413l-56 -287h-89z" />
    <glyph glyph-name="Z" unicode="Z" horiz-adv-x="504" 
d="M-7 0l14 75l416 547h-296l24 78h390l-15 -75l-415 -547h320l-24 -78h-414z" />
    <glyph glyph-name="bracketleft" unicode="[" horiz-adv-x="275" 
d="M-12 -156l174 896h183l-14 -68h-101l-140 -760h101l-14 -68h-189z" />
    <glyph glyph-name="backslash" unicode="\" horiz-adv-x="362" 
d="M174 -156l-68 896h85l68 -896h-85z" />
    <glyph glyph-name="bracketright" unicode="]" horiz-adv-x="275" 
d="M-56 -156l14 68h101l140 760h-101l14 68h189l-174 -896h-183z" />
    <glyph glyph-name="asciicircum" unicode="^" horiz-adv-x="484" 
d="M51 290l162 394h72l162 -394h-89l-111 299l-113 -299h-83z" />
    <glyph glyph-name="underscore" unicode="_" horiz-adv-x="376" 
d="M-78 -145l15 74h375l-15 -74h-375z" />
    <glyph glyph-name="grave" unicode="`" horiz-adv-x="380" 
d="M234 594l-81 153h91l60 -153h-70z" />
    <glyph glyph-name="a" unicode="a" horiz-adv-x="440" 
d="M137 -13q-57 0 -90.5 36t-33.5 96q0 95 67.5 146t194.5 53l40 1q3 14 4.5 26t1.5 25q0 84 -92 84q-66 0 -125 -49l-8 73q29 23 67 35t79 12q76 0 117.5 -39t41.5 -108q0 -38 -8 -81l-58 -297h-75l12 73q-47 -86 -135 -86zM96 124q0 -32 18 -50t49 -18q51 0 84.5 43
t47.5 116l8 43l-28 -1q-179 -3 -179 -133z" />
    <glyph glyph-name="b" unicode="b" horiz-adv-x="491" 
d="M232 -13q-104 0 -125 113l-23 -100h-75l144 740h84l-58 -296q23 36 57.5 58.5t80.5 22.5q65 0 103 -54t38 -144q0 -40 -8.5 -86t-26 -91t-44 -82t-63.5 -59t-84 -22zM219 60q34 0 59 19t43 49.5t28.5 66.5t15.5 70t5 59q0 62 -22 95t-63 33q-43 0 -72.5 -28t-47.5 -70.5
t-26 -87t-8 -76.5q0 -130 88 -130z" />
    <glyph glyph-name="c" unicode="c" horiz-adv-x="417" 
d="M226 -13q-93 0 -142.5 54.5t-49.5 154.5q0 54 16.5 111.5t50 107t85 80t121.5 30.5q67 0 116 -38l-31 -66q-39 31 -88 31t-84 -24.5t-57 -63.5t-32 -82.5t-10 -82.5q0 -139 114 -139q45 0 97 33l6 -75q-50 -31 -112 -31z" />
    <glyph glyph-name="d" unicode="d" horiz-adv-x="491" 
d="M174 -13q-64 0 -102.5 54t-38.5 144q0 40 8.5 86t26 91t44 82t63.5 59t84 22q97 0 122 -99l61 314h84l-144 -740h-75l14 85q-22 -42 -58.5 -70t-88.5 -28zM206 60q43 0 72.5 28t47.5 70.5t26 87t8 76.5q0 130 -88 130q-34 0 -59 -19t-43 -49.5t-28.5 -66.5t-15.5 -70
t-5 -59q0 -61 22 -94.5t63 -33.5z" />
    <glyph glyph-name="e" unicode="e" horiz-adv-x="444" 
d="M223 -13q-92 0 -141 53.5t-49 151.5q0 51 14 108.5t43.5 108.5t74.5 83.5t106 32.5q70 0 108 -47t38 -133q0 -22 -3.5 -53.5t-9.5 -60.5h-288q-2 -20 -2 -36q0 -137 118 -137q55 0 118 43l6 -75q-59 -39 -133 -39zM264 456q-37 0 -64 -24t-44.5 -61t-27.5 -76h207
q4 30 4 54q0 107 -75 107z" />
    <glyph glyph-name="f" unicode="f" horiz-adv-x="305" 
d="M43 0l87 444h-84l23 68h74l9 47q20 101 63 147.5t112 46.5q24 0 49.5 -9t41.5 -23l-24 -65q-32 24 -64 24q-43 0 -63 -32t-32 -93l-8 -43h125l-13 -68h-126l-86 -444h-84z" />
    <glyph glyph-name="g" unicode="g" horiz-adv-x="492" 
d="M147 -229q-41 0 -82.5 13t-67.5 34l22 72q31 -25 63 -36t70 -11q46 0 76.5 25.5t49.5 69.5t30 101l10 51q-23 -39 -58.5 -64.5t-84.5 -25.5q-64 0 -102.5 55t-38.5 140q0 49 13.5 106t41 108t70 83.5t101.5 32.5q104 0 125 -113l23 100h75l-90 -464q-10 -54 -27 -103.5
t-44.5 -89t-70 -62t-104.5 -22.5zM207 73q43 0 72.5 27t47.5 67t26 83t8 74q0 62 -22.5 95t-65.5 33q-42 0 -71 -27.5t-46.5 -69t-25.5 -84t-8 -73.5q0 -57 22 -91t63 -34z" />
    <glyph glyph-name="h" unicode="h" horiz-adv-x="463" 
d="M9 0l144 740h84l-58 -297q27 42 63 62t73 20q51 0 81.5 -32.5t30.5 -101.5q0 -22 -3 -45t-7 -43l-59 -303h-84l57 292q4 20 8 45t4 45q0 68 -61 68q-45 0 -82 -44.5t-51 -118.5l-56 -287h-84z" />
    <glyph glyph-name="i" unicode="i" horiz-adv-x="202" 
d="M174 617q-22 0 -35 13t-13 35q0 29 19 50.5t46 21.5q21 0 34.5 -14t13.5 -36q0 -28 -19 -49t-46 -21zM9 0l100 512h84l-100 -512h-84z" />
    <glyph glyph-name="j" unicode="j" horiz-adv-x="202" 
d="M174 617q-22 0 -35 13t-13 35q0 29 19 50.5t46 21.5q21 0 34.5 -14t13.5 -36q0 -28 -19 -49t-46 -21zM-76 -229q-52 0 -84 22l22 68q29 -18 60 -18q34 0 50.5 26t25.5 74l111 569h84l-112 -575q-15 -78 -50.5 -122t-106.5 -44z" />
    <glyph glyph-name="k" unicode="k" horiz-adv-x="439" 
d="M9 0l144 740h84l-90 -462l222 234h100l-196 -204l108 -308h-93l-77 244l-88 -91l-30 -153h-84z" />
    <glyph glyph-name="l" unicode="l" horiz-adv-x="202" 
d="M9 0l144 740h84l-144 -740h-84z" />
    <glyph glyph-name="m" unicode="m" horiz-adv-x="700" 
d="M9 0l100 512h75l-13 -79q27 47 64 69.5t73 22.5q44 0 71 -28t32 -79q27 55 67.5 81t80.5 26q48 0 76.5 -32.5t28.5 -101.5q0 -22 -3 -45t-7 -43l-59 -303h-84l57 292q4 19 8 46.5t4 43.5q0 68 -54 68q-42 0 -77 -44.5t-49 -118.5l-56 -287h-84l57 292q4 20 8 45t4 45
q0 68 -54 68q-42 0 -77 -44.5t-49 -118.5l-56 -287h-84z" />
    <glyph glyph-name="n" unicode="n" horiz-adv-x="463" 
d="M9 0l100 512h75l-13 -80q27 48 65.5 70.5t78.5 22.5q51 0 81.5 -32.5t30.5 -101.5q0 -21 -3 -44.5t-7 -43.5l-59 -303h-84l57 292q4 20 8 45t4 45q0 68 -61 68q-45 0 -82 -44.5t-51 -118.5l-56 -287h-84z" />
    <glyph glyph-name="o" unicode="o" horiz-adv-x="480" 
d="M202 -13q-77 0 -122.5 56t-45.5 150q0 52 14.5 110t44.5 108.5t76 82t109 31.5q77 0 122.5 -55.5t45.5 -150.5q0 -52 -14.5 -110t-44.5 -108.5t-76 -82t-109 -31.5zM207 60q40 0 68.5 26.5t47 67.5t27.5 86t9 83q0 62 -22 95.5t-64 33.5q-40 0 -68.5 -26.5t-47 -67.5
t-27.5 -86t-9 -83q0 -62 22 -95.5t64 -33.5z" />
    <glyph glyph-name="p" unicode="p" horiz-adv-x="491" 
d="M-33 -216l142 728h75l-13 -83q23 42 59 69t87 27q65 0 103 -54t38 -144q0 -40 -8.5 -86t-26 -91t-44 -82t-63.5 -59t-84 -22q-97 0 -122 99l-59 -302h-84zM219 60q34 0 59 19t43 49.5t28.5 66.5t15.5 70t5 59q0 62 -22 95t-63 33q-43 0 -72.5 -28t-47.5 -70.5t-26 -87
t-8 -76.5q0 -130 88 -130z" />
    <glyph glyph-name="q" unicode="q" horiz-adv-x="491" 
d="M256 -216l55 284q-23 -36 -57 -58.5t-80 -22.5q-64 0 -102.5 54t-38.5 144q0 40 8.5 86t26 91t44 82t63.5 59t84 22q104 0 125 -113l23 100h75l-142 -728h-84zM206 60q43 0 72.5 28t47.5 70.5t26 87t8 76.5q0 130 -88 130q-34 0 -59 -19t-43 -49.5t-28.5 -66.5t-15.5 -70
t-5 -59q0 -61 22 -94.5t63 -33.5z" />
    <glyph glyph-name="r" unicode="r" horiz-adv-x="319" 
d="M9 0l100 512h75l-17 -102q27 53 64.5 82.5t78.5 29.5q17 0 30 -3.5t20 -7.5l-26 -76q-19 8 -41 8q-35 0 -65.5 -26.5t-52.5 -69.5t-32 -91l-50 -256h-84z" />
    <glyph glyph-name="s" unicode="s" horiz-adv-x="362" 
d="M129 -13q-88 0 -148 57l31 65q55 -52 121 -52q41 0 65.5 22.5t24.5 62.5q0 29 -17.5 49t-59.5 39q-47 21 -73.5 55t-26.5 83q0 72 47.5 114.5t123.5 42.5q39 0 74 -14.5t60 -37.5l-26 -65q-50 47 -110 47q-39 0 -64 -22.5t-25 -58.5q0 -26 16.5 -45.5t58.5 -38.5
q54 -24 79 -57t25 -83q0 -75 -47.5 -119t-128.5 -44z" />
    <glyph glyph-name="t" unicode="t" horiz-adv-x="332" 
d="M172 -10q-48 0 -76 27t-28 85q0 17 2.5 33.5t5.5 32.5l53 276h-83l23 68h74l32 167h84l-32 -167h121l-13 -68h-122l-53 -276q-1 -8 -3.5 -23t-2.5 -31q0 -30 13 -39.5t33 -9.5q34 0 69 19l-6 -74q-37 -20 -91 -20z" />
    <glyph glyph-name="u" unicode="u" horiz-adv-x="458" 
d="M146 -13q-50 0 -80 32.5t-30 101.5q0 23 3 46t7 42l59 303h84l-57 -292q-4 -23 -8 -48t-4 -42q0 -68 59 -68q43 0 79.5 44.5t50.5 118.5l56 287h84l-100 -512h-75l13 82q-26 -48 -64 -71.5t-77 -23.5z" />
    <glyph glyph-name="v" unicode="v" horiz-adv-x="423" 
d="M117 0l-59 512h88l35 -410l194 410h90l-260 -512h-88z" />
    <glyph glyph-name="w" unicode="w" horiz-adv-x="625" 
d="M88 0l-27 512h86l9 -402l163 402h85l8 -402l164 402h88l-227 -512h-90l-7 399l-162 -399h-90z" />
    <glyph glyph-name="x" unicode="x" horiz-adv-x="433" 
d="M-32 0l206 264l-101 248h87l68 -185l135 185h96l-199 -256l105 -256h-87l-71 195l-143 -195h-96z" />
    <glyph glyph-name="y" unicode="y" horiz-adv-x="425" 
d="M4 -229q-40 0 -68 16l19 69q17 -12 45 -12q32 0 55.5 23.5t54.5 88.5l19 39l-71 517h88l42 -415l189 415h90l-285 -580q-30 -61 -56 -96.5t-55 -50t-67 -14.5z" />
    <glyph glyph-name="z" unicode="z" horiz-adv-x="404" 
d="M-11 0l12 64l299 380h-225l22 68h309l-12 -64l-299 -380h237l-22 -68h-321z" />
    <glyph glyph-name="braceleft" unicode="{" horiz-adv-x="261" 
d="M114 -156q-47 0 -72.5 30.5t-25.5 79.5q0 48 13.5 90.5t27 82t13.5 78.5q0 54 -48 54l14 66q35 0 52.5 23t27.5 72q4 18 6 48t5 64t8 61q14 72 53.5 109.5t99.5 37.5h37l-1 -68h-29q-36 0 -54 -25t-29 -82q-6 -35 -7.5 -57.5t-2.5 -45.5t-8 -60q-7 -40 -31.5 -70
t-58.5 -40q25 -8 38 -29t13 -50q0 -33 -13 -74.5t-26.5 -84.5t-13.5 -83q0 -34 14.5 -46.5t37.5 -12.5h23l-18 -68h-45z" />
    <glyph glyph-name="bar" unicode="|" horiz-adv-x="232" 
d="M-18 -216l186 956h84l-186 -956h-84z" />
    <glyph glyph-name="braceright" unicode="}" horiz-adv-x="261" 
d="M-50 -156l1 68h29q36 0 54.5 25t28.5 82q7 35 8 57.5t2.5 46t7.5 59.5q7 40 31.5 70t58.5 40q-25 8 -38 29t-13 50q0 34 13.5 75t26.5 84.5t13 82.5q0 35 -14.5 47t-37.5 12h-23l18 68h45q47 0 72.5 -30.5t25.5 -79.5q0 -48 -13.5 -90.5t-27 -82t-13.5 -78.5
q0 -54 48 -54l-14 -66q-34 0 -52 -22.5t-28 -72.5q-3 -17 -5.5 -47.5t-5 -64t-8.5 -61.5q-13 -72 -53 -109.5t-100 -37.5h-37z" />
    <glyph glyph-name="asciitilde" unicode="~" horiz-adv-x="484" 
d="M116 246l-72 8q4 98 30.5 141t82.5 43q25 0 50 -11.5t62 -46.5q36 -33 57 -46.5t35 -13.5q20 0 29 25.5t12 92.5l72 -8q-4 -98 -30.5 -141t-82.5 -43q-28 0 -54.5 13.5t-63.5 46.5q-30 27 -50 42.5t-37 15.5q-20 0 -28.5 -25t-11.5 -93z" />
    <glyph glyph-name="uni00A0" unicode="&#xa0;" horiz-adv-x="172" 
 />
    <glyph glyph-name="exclamdown" unicode="&#xa1;" horiz-adv-x="211" 
d="M138 398q-25 0 -38.5 15.5t-13.5 38.5q0 26 18 47t47 21q25 0 38.5 -15.5t13.5 -38.5q0 -26 -18 -47t-47 -21zM-15 -188l106 496h70l-86 -496h-90z" />
    <glyph glyph-name="cent" unicode="&#xa2;" horiz-adv-x="484" 
d="M117 -35l51 142q-40 25 -62 72.5t-22 116.5q0 96 32.5 168.5t89.5 112.5t130 40h15l42 118h63l-46 -129q38 -11 61 -31l-32 -66q-22 19 -53 28l-135 -378q13 -3 29 -3q32 0 59.5 8.5t59.5 28.5l4 -73q-29 -19 -65 -28t-74 -9q-21 0 -40 3l-44 -121h-63zM171 300
q0 -73 27 -109l126 353q-70 -4 -111.5 -68.5t-41.5 -175.5z" />
    <glyph glyph-name="sterling" unicode="&#xa3;" horiz-adv-x="484" 
d="M17 0l16 65q57 41 80.5 92.5t23.5 124.5v40h-71l12 65h58v32v33q0 120 58.5 183t168.5 63q86 0 142 -50l-31 -72q-28 26 -55 36.5t-58 10.5q-68 0 -104.5 -44t-36.5 -133v-26v-33h153l-11 -65h-141v-22.5v-19.5q0 -76 -23.5 -125.5t-63.5 -79.5h274l-23 -75h-368z" />
    <glyph glyph-name="currency" unicode="&#xa4;" horiz-adv-x="484" 
d="M138 86l-52 46l80 86q-22 24 -33.5 55.5t-11.5 68.5t11.5 68.5t33.5 55.5l-80 86l52 46l82 -90q40 20 88 20q49 0 89 -20l81 90l52 -46l-79 -86q21 -24 32.5 -55.5t11.5 -68.5t-11.5 -68.5t-32.5 -55.5l79 -86l-52 -46l-81 90q-40 -20 -89 -20q-48 0 -88 20zM308 227
q49 0 79 32t30 83q0 50 -30 82.5t-79 32.5q-48 0 -78 -32.5t-30 -82.5q0 -51 30 -83t78 -32z" />
    <glyph glyph-name="yen" unicode="&#xa5;" horiz-adv-x="484" 
d="M42 118l13 65h129l18 92h-130l13 65h103l-98 344h89l84 -319l201 319h99l-234 -344h105l-13 -65h-132l-18 -92h133l-13 -65h-133l-23 -118h-87l23 118h-129z" />
    <glyph glyph-name="brokenbar" unicode="&#xa6;" horiz-adv-x="232" 
d="M95 363l73 377h84l-74 -377h-83zM-18 -216l77 396h84l-77 -396h-84z" />
    <glyph glyph-name="section" unicode="&#xa7;" horiz-adv-x="421" 
d="M126 -170q-92 0 -150 52l34 69q29 -28 57 -40t64 -12q50 0 76.5 27.5t26.5 76.5q0 30 -13 49.5t-40 35.5l-64 39q-35 21 -57 50.5t-22 74.5q0 62 32.5 103.5t94.5 70.5q-49 45 -49 111q0 82 49 130.5t131 48.5q41 0 74.5 -11.5t63.5 -38.5l-30 -66q-24 25 -49.5 36
t-60.5 11q-46 0 -70.5 -26t-24.5 -73q0 -30 14 -50t40 -36l61 -36q41 -24 60 -53t19 -71q0 -61 -32.5 -104.5t-92.5 -71.5q25 -22 38 -48t13 -59q0 -86 -52.5 -137.5t-140.5 -51.5zM218 162q5 -3 9 -5q83 41 83 124q0 35 -15 52.5t-37 30.5l-47 28q-4 2 -7 4
q-40 -18 -61.5 -48.5t-21.5 -76.5q0 -32 15 -50.5t38 -32.5z" />
    <glyph glyph-name="dieresis" unicode="&#xa8;" horiz-adv-x="380" 
d="M351 618q-22 0 -33.5 13.5t-11.5 33.5q0 23 15.5 41t40.5 18q22 0 33.5 -13.5t11.5 -33.5q0 -22 -15 -40.5t-41 -18.5zM180 618q-22 0 -33.5 13.5t-11.5 33.5q0 23 15.5 41t40.5 18q22 0 33.5 -13.5t11.5 -33.5q0 -22 -15 -40.5t-41 -18.5z" />
    <glyph glyph-name="copyright" unicode="&#xa9;" horiz-adv-x="703" 
d="M370 -16q-90 0 -157.5 46t-104.5 128.5t-37 191.5t37 191t104.5 128.5t157.5 46.5q91 0 158 -46.5t104 -128.5t37 -191q0 -108 -37 -190.5t-104 -129t-158 -46.5zM370 47q72 0 124 37.5t80.5 105.5t28.5 161t-28.5 161t-80.5 105.5t-124 37.5q-71 0 -123.5 -37.5
t-81 -105.5t-28.5 -161q0 -92 28.5 -160.5t81 -106t123.5 -37.5zM396 139q-83 0 -130 56t-47 153q0 95 47.5 154t132.5 59q24 0 49 -7t44 -20l-17 -64q-34 24 -73 24q-49 0 -76.5 -37.5t-27.5 -105.5q0 -70 27 -107.5t79 -37.5q37 0 75 26l17 -63q-20 -15 -46.5 -22.5
t-53.5 -7.5z" />
    <glyph glyph-name="ordfeminine" unicode="&#xaa;" horiz-adv-x="335" 
d="M147 308q-39 0 -61.5 26.5t-22.5 72.5q0 69 45.5 107.5t144.5 40.5l28 1q2 10 3 21t1 21q0 55 -54 55q-47 0 -100 -38l-4 55q28 20 58 28.5t61 8.5q51 0 77 -26.5t26 -76.5q0 -14 -2 -30t-6 -36l-42 -220h-57l10 58q-38 -68 -105 -68zM126 414q0 -54 46 -54q33 0 59 32
t36 87l6 31l-26 -1q-61 -1 -91 -26t-30 -69z" />
    <glyph glyph-name="guillemotleft" unicode="&#xab;" horiz-adv-x="459" 
d="M104 52l-67 210l149 210h92l-150 -219l61 -201h-85zM287 52l-67 210l149 210h92l-150 -219l61 -201h-85z" />
    <glyph glyph-name="logicalnot" unicode="&#xac;" horiz-adv-x="484" 
d="M404 146v202h-332v74h410v-276h-78z" />
    <glyph glyph-name="registered" unicode="&#xae;" horiz-adv-x="418" 
d="M259 306q-76 0 -121.5 56t-45.5 149t45.5 149t121.5 56q77 0 122 -56t45 -149t-45 -149t-122 -56zM259 345q60 0 92.5 44t32.5 122q0 77 -32.5 121.5t-92.5 44.5t-92.5 -44.5t-32.5 -121.5q0 -78 32.5 -122t92.5 -44zM192 407v207h67q33 0 52 -18t19 -48q0 -38 -29 -56
l40 -85h-47l-32 74h-3h-25v-74h-42zM234 516h21q33 0 33 32q0 31 -33 31h-21v-63z" />
    <glyph glyph-name="macron" unicode="&#xaf;" horiz-adv-x="380" 
d="M132 640l13 63h257l-13 -63h-257z" />
    <glyph glyph-name="degree" unicode="&#xb0;" horiz-adv-x="400" 
d="M254 376q-48 0 -84.5 20.5t-57.5 57t-21 83.5t21 83.5t57.5 57t84.5 20.5q49 0 85.5 -20.5t57.5 -57t21 -83.5t-21 -83.5t-57.5 -57t-85.5 -20.5zM254 436q43 0 68 28t25 73q0 46 -25 73.5t-68 27.5q-42 0 -67 -27.5t-25 -73.5q0 -45 25 -73t67 -28z" />
    <glyph glyph-name="plusminus" unicode="&#xb1;" horiz-adv-x="484" 
d="M28 -1v74h409v-74h-409zM194 136v202h-166v74h166v200h78v-200h166v-74h-166v-202h-78z" />
    <glyph glyph-name="uni00B2" unicode="&#xb2;" horiz-adv-x="308" 
d="M69 388l10 48q37 29 74.5 64t57.5 58q30 34 46 60t16 56q0 52 -45 52t-86 -34l-7 50q23 19 50.5 29.5t56.5 10.5q47 0 73 -27t26 -71q0 -47 -26.5 -86t-64.5 -77q-12 -12 -35.5 -33.5t-51.5 -44.5h141l-17 -55h-218z" />
    <glyph glyph-name="uni00B3" unicode="&#xb3;" horiz-adv-x="308" 
d="M173 380q-32 0 -58.5 7t-46.5 22l20 50q17 -13 39.5 -19t45.5 -6q32 0 50 20.5t18 56.5q0 25 -14 36t-37 11h-42l11 56h42q32 0 51 20t19 51q0 43 -47 43q-19 0 -40.5 -6t-44.5 -20l-3 52q22 14 50 21t53 7q45 0 69.5 -22.5t24.5 -63.5q0 -40 -22.5 -70t-64.5 -41
q59 -16 59 -74t-36.5 -94.5t-95.5 -36.5z" />
    <glyph glyph-name="acute" unicode="&#xb4;" horiz-adv-x="380" 
d="M190 594l123 153h104l-144 -153h-83z" />
    <glyph glyph-name="paragraph" unicode="&#xb6;" horiz-adv-x="501" 
d="M118 -147l89 454q-62 9 -96.5 49t-34.5 105q0 111 64 175t173 64h206l-165 -847h-78l152 780h-78l-152 -780h-80z" />
    <glyph glyph-name="periodcentered" unicode="&#xb7;" horiz-adv-x="208" 
d="M99 193q-25 0 -38.5 15.5t-13.5 38.5q0 26 18 47t47 21q25 0 38.5 -15.5t13.5 -38.5q0 -26 -18 -47t-47 -21z" />
    <glyph glyph-name="cedilla" unicode="&#xb8;" horiz-adv-x="380" 
d="M93 -229q-24 0 -40 5.5t-35 15.5l21 45q29 -18 58 -18q23 0 37.5 12.5t14.5 32.5q0 34 -40 34q-13 0 -21.5 -1.5t-16.5 -3.5l48 122h48l-31 -76h7q30 0 47.5 -17t17.5 -48q0 -47 -31 -75t-84 -28z" />
    <glyph glyph-name="uni00B9" unicode="&#xb9;" horiz-adv-x="308" 
d="M172 388l60 311l-72 -47l-18 50l114 72h56l-76 -386h-64z" />
    <glyph glyph-name="ordmasculine" unicode="&#xba;" horiz-adv-x="365" 
d="M207 308q-59 0 -93 40.5t-34 117.5q0 70 23 124t63 85.5t90 31.5q59 0 93 -40.5t34 -117.5q0 -69 -23 -123.5t-63 -86t-90 -31.5zM214 364q26 0 49 22.5t37 63.5t14 96q0 105 -65 105q-26 0 -49 -22.5t-37 -63.5t-14 -96q0 -105 65 -105z" />
    <glyph glyph-name="guillemotright" unicode="&#xbb;" horiz-adv-x="459" 
d="M0 52l150 219l-61 201h85l67 -210l-149 -210h-92zM183 52l150 219l-61 201h85l67 -210l-149 -210h-92z" />
    <glyph glyph-name="onequarter" unicode="&#xbc;" horiz-adv-x="722" 
d="M147 0l391 684h74l-391 -684h-74zM549 0l16 83h-160l11 53l204 250h64l-53 -249h46l-17 -54h-40l-18 -83h-53zM474 137h101l32 162zM155 298l60 311l-72 -47l-18 50l114 72h56l-76 -386h-64z" />
    <glyph glyph-name="onehalf" unicode="&#xbd;" horiz-adv-x="722" 
d="M122 0l391 684h74l-391 -684h-74zM408 0l10 48q37 29 74.5 64t57.5 58q30 34 46 60t16 56q0 52 -45 52t-86 -34l-7 50q23 19 50.5 29.5t56.5 10.5q47 0 73 -27t26 -71q0 -47 -26.5 -86t-64.5 -77q-12 -12 -35.5 -33.5t-51.5 -44.5h141l-17 -55h-218zM155 298l60 311
l-72 -47l-18 50l114 72h56l-76 -386h-64z" />
    <glyph glyph-name="threequarters" unicode="&#xbe;" horiz-adv-x="722" 
d="M157 0l391 684h74l-391 -684h-74zM549 0l16 83h-160l11 53l204 250h64l-53 -249h46l-17 -54h-40l-18 -83h-53zM474 137h101l32 162zM156 290q-32 0 -58.5 7t-46.5 22l20 50q17 -13 39.5 -19t45.5 -6q32 0 50 20.5t18 56.5q0 25 -14 36t-37 11h-42l11 56h42q32 0 51 20
t19 51q0 43 -47 43q-19 0 -40.5 -6t-44.5 -20l-3 52q22 14 50 21t53 7q45 0 69.5 -22.5t24.5 -63.5q0 -40 -22.5 -70t-64.5 -41q59 -16 59 -74t-36.5 -94.5t-95.5 -36.5z" />
    <glyph glyph-name="questiondown" unicode="&#xbf;" horiz-adv-x="397" 
d="M238 398q-25 0 -38.5 15.5t-13.5 38.5q0 26 18 47t47 21q25 0 38.5 -15.5t13.5 -38.5q0 -26 -18 -47t-47 -21zM137 -204q-72 0 -113 40t-41 108q0 47 13 82.5t41 68t72 70.5q36 32 53.5 52t23.5 36t9 33l4 22h77l-3 -25q-5 -46 -27.5 -82.5t-75.5 -80.5
q-37 -31 -58 -55.5t-30 -49.5t-9 -59q0 -88 80 -88q61 0 129 42l5 -68q-34 -22 -74 -34t-76 -12z" />
    <glyph glyph-name="Agrave" unicode="&#xc0;" horiz-adv-x="543" 
d="M-39 0l350 700h93l78 -700h-90l-18 190h-225l-92 -190h-96zM185 266h182l-30 315zM371 772l-117 127h110l92 -127h-85z" />
    <glyph glyph-name="Aacute" unicode="&#xc1;" horiz-adv-x="543" 
d="M-39 0l350 700h93l78 -700h-90l-18 190h-225l-92 -190h-96zM185 266h182l-30 315zM306 772l132 127h116l-154 -127h-94z" />
    <glyph glyph-name="Acircumflex" unicode="&#xc2;" horiz-adv-x="543" 
d="M-39 0l350 700h93l78 -700h-90l-18 190h-225l-92 -190h-96zM185 266h182l-30 315zM224 772l135 127h85l85 -127h-89l-50 73l-82 -73h-84z" />
    <glyph glyph-name="Atilde" unicode="&#xc3;" horiz-adv-x="543" 
d="M-39 0l350 700h93l78 -700h-90l-18 190h-225l-92 -190h-96zM185 266h182l-30 315zM289 772l-62 9q14 57 43 87.5t71 30.5q19 0 33.5 -8t33.5 -28q17 -18 24.5 -23.5t16.5 -5.5q28 0 41 65l62 -9q-13 -57 -42.5 -87.5t-71.5 -30.5q-19 0 -33.5 8t-33.5 28q-16 18 -24 23.5
t-17 5.5q-28 0 -41 -65z" />
    <glyph glyph-name="Adieresis" unicode="&#xc4;" horiz-adv-x="543" 
d="M-39 0l350 700h93l78 -700h-90l-18 190h-225l-92 -190h-96zM185 266h182l-30 315zM490 780q-23 0 -34.5 14t-11.5 34q0 23 15.5 41.5t40.5 18.5q21 0 33 -13.5t12 -34.5q0 -23 -15.5 -41.5t-39.5 -18.5zM288 780q-21 0 -33 14t-12 34q0 23 15.5 41.5t39.5 18.5
q23 0 34.5 -13.5t11.5 -34.5q0 -23 -15 -41.5t-41 -18.5z" />
    <glyph glyph-name="Aring" unicode="&#xc5;" horiz-adv-x="543" 
d="M-39 0l350 700h93l78 -700h-90l-18 190h-225l-92 -190h-96zM185 266h182l-30 315zM383 759q-43 0 -68 23.5t-25 60.5q0 53 34 85.5t83 32.5q43 0 68 -23.5t25 -60.5q0 -52 -34 -85t-83 -33zM388 802q27 0 45.5 18.5t18.5 49.5q0 48 -50 48q-27 0 -45.5 -18.5t-18.5 -49.5
q0 -48 50 -48z" />
    <glyph glyph-name="AE" unicode="&#xc6;" horiz-adv-x="791" 
d="M-39 0l456 700h403l-3 -79h-254l-44 -226h233l-15 -79h-233l-46 -237h272l-25 -79h-351l37 190h-213l-120 -190h-97zM226 266h180l69 355h-25z" />
    <glyph glyph-name="Ccedilla" unicode="&#xc7;" horiz-adv-x="540" 
d="M299 -16q-118 0 -181.5 72t-63.5 208q0 59 14 122.5t42.5 122t71.5 105.5t102 74.5t133 27.5q89 0 155 -54l-34 -73q-30 26 -59.5 37t-65.5 11q-57 0 -100.5 -23.5t-75 -63t-51.5 -88t-29.5 -99.5t-9.5 -96q0 -204 165 -204q67 0 141 50l7 -83q-71 -46 -161 -46z
M236 -229q-22 0 -38 4.5t-38 14.5l22 48q26 -14 56 -14q21 0 37.5 10t16.5 28q0 15 -11.5 23t-25.5 8q-13 0 -22 -1.5t-18 -3.5l50 127h48l-31 -76h9q30 0 48 -16.5t18 -46.5q0 -48 -34 -76.5t-87 -28.5z" />
    <glyph glyph-name="Egrave" unicode="&#xc8;" horiz-adv-x="465" 
d="M18 0l136 700h340l-3 -79h-264l-44 -226h243l-15 -79h-243l-46 -237h282l-25 -79h-361zM347 772l-117 127h110l92 -127h-85z" />
    <glyph glyph-name="Eacute" unicode="&#xc9;" horiz-adv-x="465" 
d="M18 0l136 700h340l-3 -79h-264l-44 -226h243l-15 -79h-243l-46 -237h282l-25 -79h-361zM282 772l132 127h116l-154 -127h-94z" />
    <glyph glyph-name="Ecircumflex" unicode="&#xca;" horiz-adv-x="465" 
d="M18 0l136 700h340l-3 -79h-264l-44 -226h243l-15 -79h-243l-46 -237h282l-25 -79h-361zM200 772l135 127h85l85 -127h-89l-50 73l-82 -73h-84z" />
    <glyph glyph-name="Edieresis" unicode="&#xcb;" horiz-adv-x="465" 
d="M18 0l136 700h340l-3 -79h-264l-44 -226h243l-15 -79h-243l-46 -237h282l-25 -79h-361zM466 780q-23 0 -34.5 14t-11.5 34q0 23 15.5 41.5t40.5 18.5q21 0 33 -13.5t12 -34.5q0 -23 -15.5 -41.5t-39.5 -18.5zM264 780q-21 0 -33 14t-12 34q0 23 15.5 41.5t39.5 18.5
q23 0 34.5 -13.5t11.5 -34.5q0 -23 -15 -41.5t-41 -18.5z" />
    <glyph glyph-name="Igrave" unicode="&#xcc;" horiz-adv-x="225" 
d="M18 0l136 700h89l-136 -700h-89zM202 772l-117 127h110l92 -127h-85z" />
    <glyph glyph-name="Iacute" unicode="&#xcd;" horiz-adv-x="225" 
d="M18 0l136 700h89l-136 -700h-89zM137 772l132 127h116l-154 -127h-94z" />
    <glyph glyph-name="Icircumflex" unicode="&#xce;" horiz-adv-x="225" 
d="M18 0l136 700h89l-136 -700h-89zM55 772l135 127h85l85 -127h-89l-50 73l-82 -73h-84z" />
    <glyph glyph-name="Idieresis" unicode="&#xcf;" horiz-adv-x="225" 
d="M18 0l136 700h89l-136 -700h-89zM321 780q-23 0 -34.5 14t-11.5 34q0 23 15.5 41.5t40.5 18.5q21 0 33 -13.5t12 -34.5q0 -23 -15.5 -41.5t-39.5 -18.5zM119 780q-21 0 -33 14t-12 34q0 23 15.5 41.5t39.5 18.5q23 0 34.5 -13.5t11.5 -34.5q0 -23 -15 -41.5t-41 -18.5z
" />
    <glyph glyph-name="Eth" unicode="&#xd0;" horiz-adv-x="598" 
d="M29 0l64 329h-63l14 75h63l58 296h176q68 0 121.5 -26.5t85 -83.5t31.5 -148q0 -132 -44.5 -231.5t-124.5 -155t-189 -55.5h-192zM320 329h-138l-49 -252h97q77 0 134.5 44t90 125t32.5 190q0 96 -39.5 141.5t-125.5 45.5h-83l-43 -219h138z" />
    <glyph glyph-name="Ntilde" unicode="&#xd1;" horiz-adv-x="570" 
d="M18 0l136 700h86l158 -538l105 538h85l-136 -700h-86l-159 538l-104 -538h-85zM308 772l-62 9q14 57 43 87.5t71 30.5q19 0 33.5 -8t33.5 -28q17 -18 24.5 -23.5t16.5 -5.5q28 0 41 65l62 -9q-13 -57 -42.5 -87.5t-71.5 -30.5q-19 0 -33.5 8t-33.5 28q-16 18 -24 23.5
t-17 5.5q-28 0 -41 -65z" />
    <glyph glyph-name="Ograve" unicode="&#xd2;" horiz-adv-x="632" 
d="M284 -16q-70 0 -121.5 34.5t-80 97.5t-28.5 149q0 56 12.5 118.5t38.5 121.5t65.5 106.5t92.5 76t121 28.5q70 0 121.5 -34.5t80 -97.5t28.5 -149q0 -56 -12.5 -118.5t-38.5 -121.5t-65.5 -106.5t-92.5 -76t-121 -28.5zM289 63q51 0 89.5 26t66 68.5t44 93t24.5 100.5
t8 89q0 94 -37 145.5t-105 51.5q-51 0 -89.5 -26t-66 -68.5t-44 -93t-24.5 -100.5t-8 -89q0 -94 37 -145.5t105 -51.5zM411 772l-117 127h110l92 -127h-85z" />
    <glyph glyph-name="Oacute" unicode="&#xd3;" horiz-adv-x="632" 
d="M284 -16q-70 0 -121.5 34.5t-80 97.5t-28.5 149q0 56 12.5 118.5t38.5 121.5t65.5 106.5t92.5 76t121 28.5q70 0 121.5 -34.5t80 -97.5t28.5 -149q0 -56 -12.5 -118.5t-38.5 -121.5t-65.5 -106.5t-92.5 -76t-121 -28.5zM289 63q51 0 89.5 26t66 68.5t44 93t24.5 100.5
t8 89q0 94 -37 145.5t-105 51.5q-51 0 -89.5 -26t-66 -68.5t-44 -93t-24.5 -100.5t-8 -89q0 -94 37 -145.5t105 -51.5zM346 772l132 127h116l-154 -127h-94z" />
    <glyph glyph-name="Ocircumflex" unicode="&#xd4;" horiz-adv-x="632" 
d="M284 -16q-70 0 -121.5 34.5t-80 97.5t-28.5 149q0 56 12.5 118.5t38.5 121.5t65.5 106.5t92.5 76t121 28.5q70 0 121.5 -34.5t80 -97.5t28.5 -149q0 -56 -12.5 -118.5t-38.5 -121.5t-65.5 -106.5t-92.5 -76t-121 -28.5zM289 63q51 0 89.5 26t66 68.5t44 93t24.5 100.5
t8 89q0 94 -37 145.5t-105 51.5q-51 0 -89.5 -26t-66 -68.5t-44 -93t-24.5 -100.5t-8 -89q0 -94 37 -145.5t105 -51.5zM264 772l135 127h85l85 -127h-89l-50 73l-82 -73h-84z" />
    <glyph glyph-name="Otilde" unicode="&#xd5;" horiz-adv-x="632" 
d="M284 -16q-70 0 -121.5 34.5t-80 97.5t-28.5 149q0 56 12.5 118.5t38.5 121.5t65.5 106.5t92.5 76t121 28.5q70 0 121.5 -34.5t80 -97.5t28.5 -149q0 -56 -12.5 -118.5t-38.5 -121.5t-65.5 -106.5t-92.5 -76t-121 -28.5zM289 63q51 0 89.5 26t66 68.5t44 93t24.5 100.5
t8 89q0 94 -37 145.5t-105 51.5q-51 0 -89.5 -26t-66 -68.5t-44 -93t-24.5 -100.5t-8 -89q0 -94 37 -145.5t105 -51.5zM329 772l-62 9q14 57 43 87.5t71 30.5q19 0 33.5 -8t33.5 -28q17 -18 24.5 -23.5t16.5 -5.5q28 0 41 65l62 -9q-13 -57 -42.5 -87.5t-71.5 -30.5
q-19 0 -33.5 8t-33.5 28q-16 18 -24 23.5t-17 5.5q-28 0 -41 -65z" />
    <glyph glyph-name="Odieresis" unicode="&#xd6;" horiz-adv-x="632" 
d="M284 -16q-70 0 -121.5 34.5t-80 97.5t-28.5 149q0 56 12.5 118.5t38.5 121.5t65.5 106.5t92.5 76t121 28.5q70 0 121.5 -34.5t80 -97.5t28.5 -149q0 -56 -12.5 -118.5t-38.5 -121.5t-65.5 -106.5t-92.5 -76t-121 -28.5zM289 63q51 0 89.5 26t66 68.5t44 93t24.5 100.5
t8 89q0 94 -37 145.5t-105 51.5q-51 0 -89.5 -26t-66 -68.5t-44 -93t-24.5 -100.5t-8 -89q0 -94 37 -145.5t105 -51.5zM530 780q-23 0 -34.5 14t-11.5 34q0 23 15.5 41.5t40.5 18.5q21 0 33 -13.5t12 -34.5q0 -23 -15.5 -41.5t-39.5 -18.5zM328 780q-21 0 -33 14t-12 34
q0 23 15.5 41.5t39.5 18.5q23 0 34.5 -13.5t11.5 -34.5q0 -23 -15 -41.5t-41 -18.5z" />
    <glyph glyph-name="multiply" unicode="&#xd7;" horiz-adv-x="484" 
d="M123 153l-53 53l137 136l-137 136l53 53l136 -137l136 137l53 -53l-137 -136l137 -136l-53 -53l-136 137z" />
    <glyph glyph-name="Oslash" unicode="&#xd8;" horiz-adv-x="632" 
d="M84 -43l-50 48l63 84q-43 71 -43 176q0 56 12.5 118.5t38.5 121.5t65.5 106.5t92.5 76t121 28.5q87 0 146 -54l61 81l50 -48l-66 -89q39 -70 39 -171q0 -56 -12.5 -118.5t-38.5 -121.5t-65.5 -106.5t-92.5 -76t-121 -28.5q-84 0 -142 50zM147 260q0 -52 12 -91l321 422
q-37 46 -101 46q-51 0 -89.5 -26t-66 -68.5t-44 -93t-24.5 -100.5t-8 -89zM289 63q51 0 89.5 26t66 68.5t44 93t24.5 100.5t8 89q0 48 -10 85l-318 -422q36 -40 96 -40z" />
    <glyph glyph-name="Ugrave" unicode="&#xd9;" horiz-adv-x="568" 
d="M248 -16q-92 0 -140.5 46.5t-48.5 140.5q0 28 3.5 59.5t7.5 50.5l82 419h89l-82 -419q-5 -28 -8 -51t-3 -52q0 -60 27 -87.5t80 -27.5q72 0 107.5 55t57.5 166l81 416h88l-82 -423q-12 -60 -30.5 -113t-48 -93.5t-73.5 -63.5t-107 -23zM379 772l-117 127h110l92 -127h-85
z" />
    <glyph glyph-name="Uacute" unicode="&#xda;" horiz-adv-x="568" 
d="M248 -16q-92 0 -140.5 46.5t-48.5 140.5q0 28 3.5 59.5t7.5 50.5l82 419h89l-82 -419q-5 -28 -8 -51t-3 -52q0 -60 27 -87.5t80 -27.5q72 0 107.5 55t57.5 166l81 416h88l-82 -423q-12 -60 -30.5 -113t-48 -93.5t-73.5 -63.5t-107 -23zM314 772l132 127h116l-154 -127
h-94z" />
    <glyph glyph-name="Ucircumflex" unicode="&#xdb;" horiz-adv-x="568" 
d="M248 -16q-92 0 -140.5 46.5t-48.5 140.5q0 28 3.5 59.5t7.5 50.5l82 419h89l-82 -419q-5 -28 -8 -51t-3 -52q0 -60 27 -87.5t80 -27.5q72 0 107.5 55t57.5 166l81 416h88l-82 -423q-12 -60 -30.5 -113t-48 -93.5t-73.5 -63.5t-107 -23zM232 772l135 127h85l85 -127h-89
l-50 73l-82 -73h-84z" />
    <glyph glyph-name="Udieresis" unicode="&#xdc;" horiz-adv-x="568" 
d="M248 -16q-92 0 -140.5 46.5t-48.5 140.5q0 28 3.5 59.5t7.5 50.5l82 419h89l-82 -419q-5 -28 -8 -51t-3 -52q0 -60 27 -87.5t80 -27.5q72 0 107.5 55t57.5 166l81 416h88l-82 -423q-12 -60 -30.5 -113t-48 -93.5t-73.5 -63.5t-107 -23zM498 780q-23 0 -34.5 14t-11.5 34
q0 23 15.5 41.5t40.5 18.5q21 0 33 -13.5t12 -34.5q0 -23 -15.5 -41.5t-39.5 -18.5zM296 780q-21 0 -33 14t-12 34q0 23 15.5 41.5t39.5 18.5q23 0 34.5 -13.5t11.5 -34.5q0 -23 -15 -41.5t-41 -18.5z" />
    <glyph glyph-name="Yacute" unicode="&#xdd;" horiz-adv-x="512" 
d="M160 0l56 287l-117 413h92l85 -331l209 331h100l-280 -413l-56 -287h-89zM296 772l132 127h116l-154 -127h-94z" />
    <glyph glyph-name="Thorn" unicode="&#xde;" horiz-adv-x="482" 
d="M18 0l137 700h88l-25 -127h78q80 0 125.5 -46.5t45.5 -132.5q0 -118 -67 -187t-183 -69h-84l-27 -138h-88zM279 499h-75l-57 -287h75q74 0 115 48.5t41 136.5q0 102 -99 102z" />
    <glyph glyph-name="germandbls" unicode="&#xdf;" horiz-adv-x="495" 
d="M236 -13q-60 0 -100 26l21 69q14 -10 34.5 -16t46.5 -6q35 0 63 22.5t44 60.5t16 86q0 56 -27.5 83.5t-76.5 27.5h-23l13 68h23q36 0 64 23t44.5 61.5t16.5 86.5q0 101 -81 101q-91 0 -121 -151l-102 -529h-85l102 525q23 118 78 173t138 55q74 0 116.5 -44t42.5 -118
q0 -47 -17.5 -90.5t-48 -76t-69.5 -47.5q51 -13 76 -50t25 -91q0 -72 -26.5 -128.5t-74.5 -88.5t-112 -32z" />
    <glyph glyph-name="agrave" unicode="&#xe0;" horiz-adv-x="440" 
d="M137 -13q-57 0 -90.5 36t-33.5 96q0 95 67.5 146t194.5 53l40 1q3 14 4.5 26t1.5 25q0 84 -92 84q-66 0 -125 -49l-8 73q29 23 67 35t79 12q76 0 117.5 -39t41.5 -108q0 -38 -8 -81l-58 -297h-75l12 73q-47 -86 -135 -86zM96 124q0 -32 18 -50t49 -18q51 0 84.5 43
t47.5 116l8 43l-28 -1q-179 -3 -179 -133zM258 594l-81 153h91l60 -153h-70z" />
    <glyph glyph-name="aacute" unicode="&#xe1;" horiz-adv-x="440" 
d="M137 -13q-57 0 -90.5 36t-33.5 96q0 95 67.5 146t194.5 53l40 1q3 14 4.5 26t1.5 25q0 84 -92 84q-66 0 -125 -49l-8 73q29 23 67 35t79 12q76 0 117.5 -39t41.5 -108q0 -38 -8 -81l-58 -297h-75l12 73q-47 -86 -135 -86zM96 124q0 -32 18 -50t49 -18q51 0 84.5 43
t47.5 116l8 43l-28 -1q-179 -3 -179 -133zM214 594l123 153h104l-144 -153h-83z" />
    <glyph glyph-name="acircumflex" unicode="&#xe2;" horiz-adv-x="440" 
d="M137 -13q-57 0 -90.5 36t-33.5 96q0 95 67.5 146t194.5 53l40 1q3 14 4.5 26t1.5 25q0 84 -92 84q-66 0 -125 -49l-8 73q29 23 67 35t79 12q76 0 117.5 -39t41.5 -108q0 -38 -8 -81l-58 -297h-75l12 73q-47 -86 -135 -86zM96 124q0 -32 18 -50t49 -18q51 0 84.5 43
t47.5 116l8 43l-28 -1q-179 -3 -179 -133zM136 594l140 153h76l72 -153h-76l-46 93l-87 -93h-79z" />
    <glyph glyph-name="atilde" unicode="&#xe3;" horiz-adv-x="440" 
d="M137 -13q-57 0 -90.5 36t-33.5 96q0 95 67.5 146t194.5 53l40 1q3 14 4.5 26t1.5 25q0 84 -92 84q-66 0 -125 -49l-8 73q29 23 67 35t79 12q76 0 117.5 -39t41.5 -108q0 -38 -8 -81l-58 -297h-75l12 73q-47 -86 -135 -86zM96 124q0 -32 18 -50t49 -18q51 0 84.5 43
t47.5 116l8 43l-28 -1q-179 -3 -179 -133zM186 598l-56 9q30 136 106 136q20 0 35.5 -9.5t32.5 -33.5q16 -21 24.5 -31.5t16.5 -10.5q29 0 47 85l56 -9q-30 -136 -106 -136q-35 0 -70 48q-18 24 -24.5 30.5t-14.5 6.5q-29 0 -47 -85z" />
    <glyph glyph-name="adieresis" unicode="&#xe4;" horiz-adv-x="440" 
d="M137 -13q-57 0 -90.5 36t-33.5 96q0 95 67.5 146t194.5 53l40 1q3 14 4.5 26t1.5 25q0 84 -92 84q-66 0 -125 -49l-8 73q29 23 67 35t79 12q76 0 117.5 -39t41.5 -108q0 -38 -8 -81l-58 -297h-75l12 73q-47 -86 -135 -86zM96 124q0 -32 18 -50t49 -18q51 0 84.5 43
t47.5 116l8 43l-28 -1q-179 -3 -179 -133zM367 618q-22 0 -33.5 13.5t-11.5 33.5q0 23 15.5 41t40.5 18q22 0 33.5 -13.5t11.5 -33.5q0 -22 -15 -40.5t-41 -18.5zM196 618q-22 0 -33.5 13.5t-11.5 33.5q0 23 15.5 41t40.5 18q22 0 33.5 -13.5t11.5 -33.5q0 -22 -15 -40.5
t-41 -18.5z" />
    <glyph glyph-name="aring" unicode="&#xe5;" horiz-adv-x="440" 
d="M137 -13q-57 0 -90.5 36t-33.5 96q0 95 67.5 146t194.5 53l40 1q3 14 4.5 26t1.5 25q0 84 -92 84q-66 0 -125 -49l-8 73q29 23 67 35t79 12q76 0 117.5 -39t41.5 -108q0 -38 -8 -81l-58 -297h-75l12 73q-47 -86 -135 -86zM96 124q0 -32 18 -50t49 -18q51 0 84.5 43
t47.5 116l8 43l-28 -1q-179 -3 -179 -133zM279 581q-40 0 -63.5 23.5t-23.5 60.5q0 53 32.5 85.5t78.5 32.5q40 0 63.5 -23.5t23.5 -60.5q0 -52 -32 -85t-79 -33zM284 622q26 0 43 19.5t17 50.5q0 23 -11.5 36.5t-34.5 13.5q-25 0 -42.5 -19t-17.5 -51q0 -23 11.5 -36.5
t34.5 -13.5z" />
    <glyph glyph-name="ae" unicode="&#xe6;" horiz-adv-x="690" 
d="M137 -13q-57 0 -90.5 36t-33.5 96q0 86 66 132.5t196 48.5l37 1l1 6q4 19 6 33.5t2 29.5q0 84 -92 84q-66 0 -125 -49l-8 73q29 23 67 35t79 12q99 0 132 -76q63 76 146 76q70 0 106.5 -47.5t36.5 -131.5q0 -23 -4.5 -53t-11.5 -60h-280q-1 -16 -1 -33q0 -142 103 -142
q34 0 63.5 10t63.5 35l3 -72q-32 -25 -70.5 -34.5t-76.5 -9.5q-119 0 -156 112q-25 -54 -65.5 -83t-93.5 -29zM509 455q-45 0 -80.5 -44t-51.5 -113h204q3 20 3 46q0 54 -18 82.5t-57 28.5zM96 124q0 -32 18 -50t49 -18q51 0 84.5 43t47.5 116l5 24h-25q-92 -1 -135.5 -30
t-43.5 -85z" />
    <glyph glyph-name="ccedilla" unicode="&#xe7;" horiz-adv-x="417" 
d="M226 -13q-93 0 -142.5 54.5t-49.5 154.5q0 54 16.5 111.5t50 107t85 80t121.5 30.5q67 0 116 -38l-31 -66q-39 31 -88 31t-84 -24.5t-57 -63.5t-32 -82.5t-10 -82.5q0 -139 114 -139q45 0 97 33l6 -75q-50 -31 -112 -31zM165 -229q-24 0 -40 5.5t-35 15.5l21 45
q29 -18 58 -18q23 0 37.5 12.5t14.5 32.5q0 34 -40 34q-13 0 -21.5 -1.5t-16.5 -3.5l48 122h48l-31 -76h7q30 0 47.5 -17t17.5 -48q0 -47 -31 -75t-84 -28z" />
    <glyph glyph-name="egrave" unicode="&#xe8;" horiz-adv-x="444" 
d="M223 -13q-92 0 -141 53.5t-49 151.5q0 51 14 108.5t43.5 108.5t74.5 83.5t106 32.5q70 0 108 -47t38 -133q0 -22 -3.5 -53.5t-9.5 -60.5h-288q-2 -20 -2 -36q0 -137 118 -137q55 0 118 43l6 -75q-59 -39 -133 -39zM264 456q-37 0 -64 -24t-44.5 -61t-27.5 -76h207
q4 30 4 54q0 107 -75 107zM280 594l-81 153h91l60 -153h-70z" />
    <glyph glyph-name="eacute" unicode="&#xe9;" horiz-adv-x="444" 
d="M223 -13q-92 0 -141 53.5t-49 151.5q0 51 14 108.5t43.5 108.5t74.5 83.5t106 32.5q70 0 108 -47t38 -133q0 -22 -3.5 -53.5t-9.5 -60.5h-288q-2 -20 -2 -36q0 -137 118 -137q55 0 118 43l6 -75q-59 -39 -133 -39zM264 456q-37 0 -64 -24t-44.5 -61t-27.5 -76h207
q4 30 4 54q0 107 -75 107zM236 594l123 153h104l-144 -153h-83z" />
    <glyph glyph-name="ecircumflex" unicode="&#xea;" horiz-adv-x="444" 
d="M223 -13q-92 0 -141 53.5t-49 151.5q0 51 14 108.5t43.5 108.5t74.5 83.5t106 32.5q70 0 108 -47t38 -133q0 -22 -3.5 -53.5t-9.5 -60.5h-288q-2 -20 -2 -36q0 -137 118 -137q55 0 118 43l6 -75q-59 -39 -133 -39zM264 456q-37 0 -64 -24t-44.5 -61t-27.5 -76h207
q4 30 4 54q0 107 -75 107zM158 594l140 153h76l72 -153h-76l-46 93l-87 -93h-79z" />
    <glyph glyph-name="edieresis" unicode="&#xeb;" horiz-adv-x="444" 
d="M223 -13q-92 0 -141 53.5t-49 151.5q0 51 14 108.5t43.5 108.5t74.5 83.5t106 32.5q70 0 108 -47t38 -133q0 -22 -3.5 -53.5t-9.5 -60.5h-288q-2 -20 -2 -36q0 -137 118 -137q55 0 118 43l6 -75q-59 -39 -133 -39zM264 456q-37 0 -64 -24t-44.5 -61t-27.5 -76h207
q4 30 4 54q0 107 -75 107zM389 618q-22 0 -33.5 13.5t-11.5 33.5q0 23 15.5 41t40.5 18q22 0 33.5 -13.5t11.5 -33.5q0 -22 -15 -40.5t-41 -18.5zM218 618q-22 0 -33.5 13.5t-11.5 33.5q0 23 15.5 41t40.5 18q22 0 33.5 -13.5t11.5 -33.5q0 -22 -15 -40.5t-41 -18.5z" />
    <glyph glyph-name="igrave" unicode="&#xec;" horiz-adv-x="202" 
d="M9 0l100 512h84l-100 -512h-84zM151 594l-81 153h91l60 -153h-70z" />
    <glyph glyph-name="iacute" unicode="&#xed;" horiz-adv-x="202" 
d="M9 0l100 512h84l-100 -512h-84zM107 594l123 153h104l-144 -153h-83z" />
    <glyph glyph-name="icircumflex" unicode="&#xee;" horiz-adv-x="202" 
d="M9 0l100 512h84l-100 -512h-84zM19 594l140 153h76l72 -153h-76l-46 93l-87 -93h-79z" />
    <glyph glyph-name="idieresis" unicode="&#xef;" horiz-adv-x="202" 
d="M9 0l100 512h84l-100 -512h-84zM255 618q-22 0 -33.5 13.5t-11.5 33.5q0 23 15.5 41t40.5 18q22 0 33.5 -13.5t11.5 -33.5q0 -22 -15 -40.5t-41 -18.5zM84 618q-22 0 -33.5 13.5t-11.5 33.5q0 23 15.5 41t40.5 18q22 0 33.5 -13.5t11.5 -33.5q0 -22 -15 -40.5t-41 -18.5z
" />
    <glyph glyph-name="eth" unicode="&#xf0;" horiz-adv-x="480" 
d="M196 -13q-70 0 -117 51t-47 142q0 63 16.5 119t46 99t69 67t85.5 24q44 0 75.5 -23t44.5 -59q-4 103 -50 191l-137 -64l-11 63l115 54q-23 33 -52 62l67 40q32 -32 57 -69l114 54l11 -63l-94 -44q57 -111 57 -253q0 -119 -31 -207t-87 -136t-132 -48zM213 59
q39 0 71.5 33t52 87t19.5 117q0 59 -25.5 90t-71.5 31q-40 0 -71.5 -32t-50 -85t-18.5 -117q0 -60 27 -92t67 -32z" />
    <glyph glyph-name="ntilde" unicode="&#xf1;" horiz-adv-x="463" 
d="M9 0l100 512h75l-13 -80q27 48 65.5 70.5t78.5 22.5q51 0 81.5 -32.5t30.5 -101.5q0 -21 -3 -44.5t-7 -43.5l-59 -303h-84l57 292q4 20 8 45t4 45q0 68 -61 68q-45 0 -82 -44.5t-51 -118.5l-56 -287h-84zM219 598l-56 9q30 136 106 136q20 0 35.5 -9.5t32.5 -33.5
q16 -21 24.5 -31.5t16.5 -10.5q29 0 47 85l56 -9q-30 -136 -106 -136q-35 0 -70 48q-18 24 -24.5 30.5t-14.5 6.5q-29 0 -47 -85z" />
    <glyph glyph-name="ograve" unicode="&#xf2;" horiz-adv-x="480" 
d="M202 -13q-77 0 -122.5 56t-45.5 150q0 52 14.5 110t44.5 108.5t76 82t109 31.5q77 0 122.5 -55.5t45.5 -150.5q0 -52 -14.5 -110t-44.5 -108.5t-76 -82t-109 -31.5zM207 60q40 0 68.5 26.5t47 67.5t27.5 86t9 83q0 62 -22 95.5t-64 33.5q-40 0 -68.5 -26.5t-47 -67.5
t-27.5 -86t-9 -83q0 -62 22 -95.5t64 -33.5zM289 594l-81 153h91l60 -153h-70z" />
    <glyph glyph-name="oacute" unicode="&#xf3;" horiz-adv-x="480" 
d="M202 -13q-77 0 -122.5 56t-45.5 150q0 52 14.5 110t44.5 108.5t76 82t109 31.5q77 0 122.5 -55.5t45.5 -150.5q0 -52 -14.5 -110t-44.5 -108.5t-76 -82t-109 -31.5zM207 60q40 0 68.5 26.5t47 67.5t27.5 86t9 83q0 62 -22 95.5t-64 33.5q-40 0 -68.5 -26.5t-47 -67.5
t-27.5 -86t-9 -83q0 -62 22 -95.5t64 -33.5zM245 594l123 153h104l-144 -153h-83z" />
    <glyph glyph-name="ocircumflex" unicode="&#xf4;" horiz-adv-x="480" 
d="M202 -13q-77 0 -122.5 56t-45.5 150q0 52 14.5 110t44.5 108.5t76 82t109 31.5q77 0 122.5 -55.5t45.5 -150.5q0 -52 -14.5 -110t-44.5 -108.5t-76 -82t-109 -31.5zM207 60q40 0 68.5 26.5t47 67.5t27.5 86t9 83q0 62 -22 95.5t-64 33.5q-40 0 -68.5 -26.5t-47 -67.5
t-27.5 -86t-9 -83q0 -62 22 -95.5t64 -33.5zM167 594l140 153h76l72 -153h-76l-46 93l-87 -93h-79z" />
    <glyph glyph-name="otilde" unicode="&#xf5;" horiz-adv-x="480" 
d="M202 -13q-77 0 -122.5 56t-45.5 150q0 52 14.5 110t44.5 108.5t76 82t109 31.5q77 0 122.5 -55.5t45.5 -150.5q0 -52 -14.5 -110t-44.5 -108.5t-76 -82t-109 -31.5zM207 60q40 0 68.5 26.5t47 67.5t27.5 86t9 83q0 62 -22 95.5t-64 33.5q-40 0 -68.5 -26.5t-47 -67.5
t-27.5 -86t-9 -83q0 -62 22 -95.5t64 -33.5zM217 598l-56 9q30 136 106 136q20 0 35.5 -9.5t32.5 -33.5q16 -21 24.5 -31.5t16.5 -10.5q29 0 47 85l56 -9q-30 -136 -106 -136q-35 0 -70 48q-18 24 -24.5 30.5t-14.5 6.5q-29 0 -47 -85z" />
    <glyph glyph-name="odieresis" unicode="&#xf6;" horiz-adv-x="480" 
d="M202 -13q-77 0 -122.5 56t-45.5 150q0 52 14.5 110t44.5 108.5t76 82t109 31.5q77 0 122.5 -55.5t45.5 -150.5q0 -52 -14.5 -110t-44.5 -108.5t-76 -82t-109 -31.5zM207 60q40 0 68.5 26.5t47 67.5t27.5 86t9 83q0 62 -22 95.5t-64 33.5q-40 0 -68.5 -26.5t-47 -67.5
t-27.5 -86t-9 -83q0 -62 22 -95.5t64 -33.5zM398 618q-22 0 -33.5 13.5t-11.5 33.5q0 23 15.5 41t40.5 18q22 0 33.5 -13.5t11.5 -33.5q0 -22 -15 -40.5t-41 -18.5zM227 618q-22 0 -33.5 13.5t-11.5 33.5q0 23 15.5 41t40.5 18q22 0 33.5 -13.5t11.5 -33.5q0 -22 -15 -40.5
t-41 -18.5z" />
    <glyph glyph-name="divide" unicode="&#xf7;" horiz-adv-x="484" 
d="M259 467q-27 0 -43 16.5t-16 43.5t16 43.5t43 16.5t43 -16.5t16 -43.5t-16 -43.5t-43 -16.5zM54 305v74h410v-74h-410zM259 97q-27 0 -43 16.5t-16 43.5t16 43.5t43 16.5t43 -16.5t16 -43.5t-16 -43.5t-43 -16.5z" />
    <glyph glyph-name="oslash" unicode="&#xf8;" horiz-adv-x="480" 
d="M51 -35l-41 41l52 63q-28 51 -28 124q0 52 14.5 110t44.5 108.5t76 82t109 31.5q66 0 110 -42l54 64l41 -41l-60 -72q23 -49 23 -115q0 -52 -14.5 -110t-44.5 -108.5t-76 -82t-109 -31.5q-61 0 -102 35zM121 189q0 -25 4 -46l213 274q-22 35 -65 35q-40 0 -68.5 -26.5
t-47 -67.5t-27.5 -86t-9 -83zM207 60q40 0 68.5 26.5t47 67.5t27.5 86t9 83q0 18 -2 33l-209 -269q22 -27 59 -27z" />
    <glyph glyph-name="ugrave" unicode="&#xf9;" horiz-adv-x="458" 
d="M146 -13q-50 0 -80 32.5t-30 101.5q0 23 3 46t7 42l59 303h84l-57 -292q-4 -23 -8 -48t-4 -42q0 -68 59 -68q43 0 79.5 44.5t50.5 118.5l56 287h84l-100 -512h-75l13 82q-26 -48 -64 -71.5t-77 -23.5zM277 594l-81 153h91l60 -153h-70z" />
    <glyph glyph-name="uacute" unicode="&#xfa;" horiz-adv-x="458" 
d="M146 -13q-50 0 -80 32.5t-30 101.5q0 23 3 46t7 42l59 303h84l-57 -292q-4 -23 -8 -48t-4 -42q0 -68 59 -68q43 0 79.5 44.5t50.5 118.5l56 287h84l-100 -512h-75l13 82q-26 -48 -64 -71.5t-77 -23.5zM233 594l123 153h104l-144 -153h-83z" />
    <glyph glyph-name="ucircumflex" unicode="&#xfb;" horiz-adv-x="458" 
d="M146 -13q-50 0 -80 32.5t-30 101.5q0 23 3 46t7 42l59 303h84l-57 -292q-4 -23 -8 -48t-4 -42q0 -68 59 -68q43 0 79.5 44.5t50.5 118.5l56 287h84l-100 -512h-75l13 82q-26 -48 -64 -71.5t-77 -23.5zM147 594l140 153h76l72 -153h-76l-46 93l-87 -93h-79z" />
    <glyph glyph-name="udieresis" unicode="&#xfc;" horiz-adv-x="458" 
d="M146 -13q-50 0 -80 32.5t-30 101.5q0 23 3 46t7 42l59 303h84l-57 -292q-4 -23 -8 -48t-4 -42q0 -68 59 -68q43 0 79.5 44.5t50.5 118.5l56 287h84l-100 -512h-75l13 82q-26 -48 -64 -71.5t-77 -23.5zM378 618q-22 0 -33.5 13.5t-11.5 33.5q0 23 15.5 41t40.5 18
q22 0 33.5 -13.5t11.5 -33.5q0 -22 -15 -40.5t-41 -18.5zM207 618q-22 0 -33.5 13.5t-11.5 33.5q0 23 15.5 41t40.5 18q22 0 33.5 -13.5t11.5 -33.5q0 -22 -15 -40.5t-41 -18.5z" />
    <glyph glyph-name="yacute" unicode="&#xfd;" horiz-adv-x="425" 
d="M4 -229q-40 0 -68 16l19 69q17 -12 45 -12q32 0 55.5 23.5t54.5 88.5l19 39l-71 517h88l42 -415l189 415h90l-285 -580q-30 -61 -56 -96.5t-55 -50t-67 -14.5zM221 594l123 153h104l-144 -153h-83z" />
    <glyph glyph-name="thorn" unicode="&#xfe;" horiz-adv-x="491" 
d="M-33 -216l186 956h84l-58 -296q23 36 57.5 58.5t80.5 22.5q65 0 103 -54t38 -144q0 -40 -8.5 -86t-26 -91t-44 -82t-63.5 -59t-84 -22q-97 0 -122 100l-59 -303h-84zM219 60q34 0 59 19t43 49.5t28.5 66.5t15.5 70t5 59q0 62 -22 95t-63 33q-43 0 -72.5 -28t-47.5 -70.5
t-26 -87t-8 -76.5q0 -130 88 -130z" />
    <glyph glyph-name="ydieresis" unicode="&#xff;" horiz-adv-x="425" 
d="M4 -229q-40 0 -68 16l19 69q17 -12 45 -12q32 0 55.5 23.5t54.5 88.5l19 39l-71 517h88l42 -415l189 415h90l-285 -580q-30 -61 -56 -96.5t-55 -50t-67 -14.5zM374 618q-22 0 -33.5 13.5t-11.5 33.5q0 23 15.5 41t40.5 18q22 0 33.5 -13.5t11.5 -33.5q0 -22 -15 -40.5
t-41 -18.5zM203 618q-22 0 -33.5 13.5t-11.5 33.5q0 23 15.5 41t40.5 18q22 0 33.5 -13.5t11.5 -33.5q0 -22 -15 -40.5t-41 -18.5z" />
    <glyph glyph-name="Amacron" unicode="&#x100;" horiz-adv-x="543" 
d="M-39 0l350 700h93l78 -700h-90l-18 190h-225l-92 -190h-96zM185 266h182l-30 315zM242 803l12 64h283l-12 -64h-283z" />
    <glyph glyph-name="amacron" unicode="&#x101;" horiz-adv-x="440" 
d="M137 -13q-57 0 -90.5 36t-33.5 96q0 95 67.5 146t194.5 53l40 1q3 14 4.5 26t1.5 25q0 84 -92 84q-66 0 -125 -49l-8 73q29 23 67 35t79 12q76 0 117.5 -39t41.5 -108q0 -38 -8 -81l-58 -297h-75l12 73q-47 -86 -135 -86zM96 124q0 -32 18 -50t49 -18q51 0 84.5 43
t47.5 116l8 43l-28 -1q-179 -3 -179 -133zM156 640l13 63h257l-13 -63h-257z" />
    <glyph glyph-name="Abreve" unicode="&#x102;" horiz-adv-x="543" 
d="M-39 0l350 700h93l78 -700h-90l-18 190h-225l-92 -190h-96zM185 266h182l-30 315zM368 772q-43 0 -71.5 27t-28.5 69q0 13 2 23l61 8q-1 -7 -1 -10v-5q0 -53 55 -53q23 0 41 17.5t28 50.5l59 -9q-10 -52 -48 -85t-97 -33z" />
    <glyph glyph-name="abreve" unicode="&#x103;" horiz-adv-x="440" 
d="M137 -13q-57 0 -90.5 36t-33.5 96q0 95 67.5 146t194.5 53l40 1q3 14 4.5 26t1.5 25q0 84 -92 84q-66 0 -125 -49l-8 73q29 23 67 35t79 12q76 0 117.5 -39t41.5 -108q0 -38 -8 -81l-58 -297h-75l12 73q-47 -86 -135 -86zM96 124q0 -32 18 -50t49 -18q51 0 84.5 43
t47.5 116l8 43l-28 -1q-179 -3 -179 -133zM280 598q-48 0 -75.5 26.5t-27.5 74.5q0 7 1 18t2 18l60 8q-1 -10 -1 -17.5v-14.5q0 -56 49 -56q29 0 48 21t29 67l60 -8q-14 -67 -52 -102t-93 -35z" />
    <glyph glyph-name="Aogonek" unicode="&#x104;" horiz-adv-x="543" 
d="M-39 0l350 700h93l78 -700h-90l-18 190h-225l-92 -190h-96zM185 266h182l-30 315zM370 -229q-35 0 -55 19.5t-20 54.5q0 53 43.5 101.5t115.5 80.5l28 -27q-58 -29 -90 -66t-32 -72t33 -35q24 0 49 12l3 -51q-34 -17 -75 -17z" />
    <glyph glyph-name="aogonek" unicode="&#x105;" horiz-adv-x="440" 
d="M137 -13q-57 0 -90.5 36t-33.5 96q0 95 67.5 146t194.5 53l40 1q3 14 4.5 26t1.5 25q0 84 -92 84q-66 0 -125 -49l-8 73q29 23 67 35t79 12q76 0 117.5 -39t41.5 -108q0 -38 -8 -81l-58 -297h-75l12 73q-47 -86 -135 -86zM96 124q0 -32 18 -50t49 -18q51 0 84.5 43
t47.5 116l8 43l-28 -1q-179 -3 -179 -133zM224 -229q-33 0 -51 19t-18 53q0 53 42 102t112 82l26 -27q-56 -31 -86.5 -68.5t-30.5 -73.5q0 -35 28 -35q14 0 25 3.5t24 10.5l3 -48q-19 -9 -36 -13.5t-38 -4.5z" />
    <glyph glyph-name="Cacute" unicode="&#x106;" horiz-adv-x="540" 
d="M299 -16q-118 0 -181.5 72t-63.5 208q0 59 14 122.5t42.5 122t71.5 105.5t102 74.5t133 27.5q89 0 155 -54l-34 -73q-30 26 -59.5 37t-65.5 11q-57 0 -100.5 -23.5t-75 -63t-51.5 -88t-29.5 -99.5t-9.5 -96q0 -204 165 -204q67 0 141 50l7 -83q-71 -46 -161 -46zM360 772
l132 127h116l-154 -127h-94z" />
    <glyph glyph-name="cacute" unicode="&#x107;" horiz-adv-x="417" 
d="M226 -13q-93 0 -142.5 54.5t-49.5 154.5q0 54 16.5 111.5t50 107t85 80t121.5 30.5q67 0 116 -38l-31 -66q-39 31 -88 31t-84 -24.5t-57 -63.5t-32 -82.5t-10 -82.5q0 -139 114 -139q45 0 97 33l6 -75q-50 -31 -112 -31zM253 594l123 153h104l-144 -153h-83z" />
    <glyph glyph-name="Cdotaccent" unicode="&#x10a;" horiz-adv-x="540" 
d="M299 -16q-118 0 -181.5 72t-63.5 208q0 59 14 122.5t42.5 122t71.5 105.5t102 74.5t133 27.5q89 0 155 -54l-34 -73q-30 26 -59.5 37t-65.5 11q-57 0 -100.5 -23.5t-75 -63t-51.5 -88t-29.5 -99.5t-9.5 -96q0 -204 165 -204q67 0 141 50l7 -83q-71 -46 -161 -46zM443 779
q-24 0 -36.5 14.5t-12.5 36.5q0 23 17 43t42 20q24 0 36.5 -14t12.5 -37t-16.5 -43t-42.5 -20z" />
    <glyph glyph-name="cdotaccent" unicode="&#x10b;" horiz-adv-x="417" 
d="M226 -13q-93 0 -142.5 54.5t-49.5 154.5q0 54 16.5 111.5t50 107t85 80t121.5 30.5q67 0 116 -38l-31 -66q-39 31 -88 31t-84 -24.5t-57 -63.5t-32 -82.5t-10 -82.5q0 -139 114 -139q45 0 97 33l6 -75q-50 -31 -112 -31zM327 615q-23 0 -35.5 14t-12.5 36q0 23 16.5 42.5
t42.5 19.5q23 0 35.5 -14t12.5 -36q0 -23 -16.5 -42.5t-42.5 -19.5z" />
    <glyph glyph-name="Ccaron" unicode="&#x10c;" horiz-adv-x="540" 
d="M299 -16q-118 0 -181.5 72t-63.5 208q0 59 14 122.5t42.5 122t71.5 105.5t102 74.5t133 27.5q89 0 155 -54l-34 -73q-30 26 -59.5 37t-65.5 11q-57 0 -100.5 -23.5t-75 -63t-51.5 -88t-29.5 -99.5t-9.5 -96q0 -204 165 -204q67 0 141 50l7 -83q-71 -46 -161 -46zM388 772
l-85 127h89l50 -73l82 73h84l-135 -127h-85z" />
    <glyph glyph-name="ccaron" unicode="&#x10d;" horiz-adv-x="417" 
d="M226 -13q-93 0 -142.5 54.5t-49.5 154.5q0 54 16.5 111.5t50 107t85 80t121.5 30.5q67 0 116 -38l-31 -66q-39 31 -88 31t-84 -24.5t-57 -63.5t-32 -82.5t-10 -82.5q0 -139 114 -139q45 0 97 33l6 -75q-50 -31 -112 -31zM276 594l-72 153h76l46 -93l87 93h79l-140 -153
h-76z" />
    <glyph glyph-name="Dcaron" unicode="&#x10e;" horiz-adv-x="587" 
d="M18 0l136 700h176q67 0 121 -26t85.5 -83.5t31.5 -151.5q0 -129 -44 -228t-124 -155t-190 -56h-192zM311 623h-83l-106 -546h97q77 0 134.5 44t90 126t32.5 194q0 92 -39.5 137t-125.5 45zM321 772l-85 127h89l50 -73l82 73h84l-135 -127h-85z" />
    <glyph glyph-name="dcaron" unicode="&#x10f;" horiz-adv-x="573" 
d="M174 -13q-64 0 -102.5 54t-38.5 144q0 40 8.5 86t26 91t44 82t63.5 59t84 22q97 0 122 -99l61 314h84l-144 -740h-75l14 85q-22 -42 -58.5 -70t-88.5 -28zM206 60q43 0 72.5 28t47.5 70.5t26 87t8 76.5q0 130 -88 130q-34 0 -59 -19t-43 -49.5t-28.5 -66.5t-15.5 -70
t-5 -59q0 -61 22 -94.5t63 -33.5zM555 550q14 50 26.5 99t19.5 91h76q-10 -49 -25.5 -99t-32.5 -91h-64z" />
    <glyph glyph-name="Dcroat" unicode="&#x110;" horiz-adv-x="598" 
d="M29 0l64 329h-63l14 75h63l58 296h176q68 0 121.5 -26.5t85 -83.5t31.5 -148q0 -132 -44.5 -231.5t-124.5 -155t-189 -55.5h-192zM320 329h-138l-49 -252h97q77 0 134.5 44t90 125t32.5 190q0 96 -39.5 141.5t-125.5 45.5h-83l-43 -219h138z" />
    <glyph glyph-name="dcroat" unicode="&#x111;" horiz-adv-x="495" 
d="M173 0q-43 0 -74.5 24t-49 66t-17.5 95q0 38 8.5 82.5t26 88t44 79t63.5 57t84 21.5q94 0 121 -94l33 169h-137l12 66h137l17 86h84l-17 -86h53l-12 -66h-54l-114 -588h-75l18 104q-23 -45 -60.5 -74.5t-90.5 -29.5zM205 73q43 0 72.5 26.5t47.5 67t26 82.5t8 73
q0 57 -22.5 87.5t-65.5 30.5q-42 0 -71 -27.5t-46.5 -68.5t-25.5 -83.5t-8 -72.5q0 -52 22 -83.5t63 -31.5z" />
    <glyph glyph-name="Emacron" unicode="&#x112;" horiz-adv-x="465" 
d="M18 0l136 700h340l-3 -79h-264l-44 -226h243l-15 -79h-243l-46 -237h282l-25 -79h-361zM218 803l12 64h283l-12 -64h-283z" />
    <glyph glyph-name="emacron" unicode="&#x113;" horiz-adv-x="444" 
d="M223 -13q-92 0 -141 53.5t-49 151.5q0 51 14 108.5t43.5 108.5t74.5 83.5t106 32.5q70 0 108 -47t38 -133q0 -22 -3.5 -53.5t-9.5 -60.5h-288q-2 -20 -2 -36q0 -137 118 -137q55 0 118 43l6 -75q-59 -39 -133 -39zM264 456q-37 0 -64 -24t-44.5 -61t-27.5 -76h207
q4 30 4 54q0 107 -75 107zM178 640l13 63h257l-13 -63h-257z" />
    <glyph glyph-name="Edotaccent" unicode="&#x116;" horiz-adv-x="465" 
d="M18 0l136 700h340l-3 -79h-264l-44 -226h243l-15 -79h-243l-46 -237h282l-25 -79h-361zM365 779q-24 0 -36.5 14.5t-12.5 36.5q0 23 17 43t42 20q24 0 36.5 -14t12.5 -37t-16.5 -43t-42.5 -20z" />
    <glyph glyph-name="edotaccent" unicode="&#x117;" horiz-adv-x="444" 
d="M223 -13q-92 0 -141 53.5t-49 151.5q0 51 14 108.5t43.5 108.5t74.5 83.5t106 32.5q70 0 108 -47t38 -133q0 -22 -3.5 -53.5t-9.5 -60.5h-288q-2 -20 -2 -36q0 -137 118 -137q55 0 118 43l6 -75q-59 -39 -133 -39zM264 456q-37 0 -64 -24t-44.5 -61t-27.5 -76h207
q4 30 4 54q0 107 -75 107zM310 615q-23 0 -35.5 14t-12.5 36q0 23 16.5 42.5t42.5 19.5q23 0 35.5 -14t12.5 -36q0 -23 -16.5 -42.5t-42.5 -19.5z" />
    <glyph glyph-name="Eogonek" unicode="&#x118;" horiz-adv-x="465" 
d="M18 0l136 700h340l-3 -79h-264l-44 -226h243l-15 -79h-243l-46 -237h282l-25 -79h-361zM267 -229q-35 0 -55 19.5t-20 54.5q0 53 43.5 101.5t115.5 80.5l28 -27q-58 -29 -90 -66t-32 -72t33 -35q24 0 49 12l3 -51q-34 -17 -75 -17z" />
    <glyph glyph-name="eogonek" unicode="&#x119;" horiz-adv-x="444" 
d="M223 -13q-92 0 -141 53.5t-49 151.5q0 51 14 108.5t43.5 108.5t74.5 83.5t106 32.5q70 0 108 -47t38 -133q0 -22 -3.5 -53.5t-9.5 -60.5h-288q-2 -20 -2 -36q0 -137 118 -137q55 0 118 43l6 -75q-59 -39 -133 -39zM264 456q-37 0 -64 -24t-44.5 -61t-27.5 -76h207
q4 30 4 54q0 107 -75 107zM200 -229q-33 0 -51 19t-18 53q0 50 48 102.5t141 101.5l26 -27q-77 -43 -115 -84t-38 -77t29 -36q15 0 26 3.5t25 10.5l3 -48q-19 -9 -36.5 -13.5t-39.5 -4.5z" />
    <glyph glyph-name="Ecaron" unicode="&#x11a;" horiz-adv-x="465" 
d="M18 0l136 700h340l-3 -79h-264l-44 -226h243l-15 -79h-243l-46 -237h282l-25 -79h-361zM310 772l-85 127h89l50 -73l82 73h84l-135 -127h-85z" />
    <glyph glyph-name="ecaron" unicode="&#x11b;" horiz-adv-x="444" 
d="M223 -13q-92 0 -141 53.5t-49 151.5q0 51 14 108.5t43.5 108.5t74.5 83.5t106 32.5q70 0 108 -47t38 -133q0 -22 -3.5 -53.5t-9.5 -60.5h-288q-2 -20 -2 -36q0 -137 118 -137q55 0 118 43l6 -75q-59 -39 -133 -39zM264 456q-37 0 -64 -24t-44.5 -61t-27.5 -76h207
q4 30 4 54q0 107 -75 107zM259 594l-72 153h76l46 -93l87 93h79l-140 -153h-76z" />
    <glyph glyph-name="Gbreve" unicode="&#x11e;" horiz-adv-x="578" 
d="M306 -16q-119 0 -185.5 69t-66.5 211q0 59 13.5 122.5t41 122t70 105.5t101.5 74.5t135 27.5q56 0 97.5 -15t73.5 -41l-34 -73q-30 26 -61.5 38t-79.5 12q-58 0 -102 -23.5t-75 -63t-50 -88t-28 -99.5t-9 -96q0 -106 45 -155t119 -49q30 0 52 3t40 9l43 223h-119l14 74
h204l-67 -348q-36 -18 -75 -29t-97 -11zM432 772q-43 0 -71.5 27t-28.5 69q0 13 2 23l61 8q-1 -7 -1 -10v-5q0 -53 55 -53q23 0 41 17.5t28 50.5l59 -9q-10 -52 -48 -85t-97 -33z" />
    <glyph glyph-name="gbreve" unicode="&#x11f;" horiz-adv-x="492" 
d="M147 -229q-41 0 -82.5 13t-67.5 34l22 72q31 -25 63 -36t70 -11q46 0 76.5 25.5t49.5 69.5t30 101l10 51q-23 -39 -58.5 -64.5t-84.5 -25.5q-64 0 -102.5 55t-38.5 140q0 49 13.5 106t41 108t70 83.5t101.5 32.5q104 0 125 -113l23 100h75l-90 -464q-10 -54 -27 -103.5
t-44.5 -89t-70 -62t-104.5 -22.5zM207 73q43 0 72.5 27t47.5 67t26 83t8 74q0 62 -22.5 95t-65.5 33q-42 0 -71 -27.5t-46.5 -69t-25.5 -84t-8 -73.5q0 -57 22 -91t63 -34zM311 598q-48 0 -75.5 26.5t-27.5 74.5q0 7 1 18t2 18l60 8q-1 -10 -1 -17.5v-14.5q0 -56 49 -56
q29 0 48 21t29 67l60 -8q-14 -67 -52 -102t-93 -35z" />
    <glyph glyph-name="Gdotaccent" unicode="&#x120;" horiz-adv-x="578" 
d="M306 -16q-119 0 -185.5 69t-66.5 211q0 59 13.5 122.5t41 122t70 105.5t101.5 74.5t135 27.5q56 0 97.5 -15t73.5 -41l-34 -73q-30 26 -61.5 38t-79.5 12q-58 0 -102 -23.5t-75 -63t-50 -88t-28 -99.5t-9 -96q0 -106 45 -155t119 -49q30 0 52 3t40 9l43 223h-119l14 74
h204l-67 -348q-36 -18 -75 -29t-97 -11zM453 779q-24 0 -36.5 14.5t-12.5 36.5q0 23 17 43t42 20q24 0 36.5 -14t12.5 -37t-16.5 -43t-42.5 -20z" />
    <glyph glyph-name="gdotaccent" unicode="&#x121;" horiz-adv-x="492" 
d="M147 -229q-41 0 -82.5 13t-67.5 34l22 72q31 -25 63 -36t70 -11q46 0 76.5 25.5t49.5 69.5t30 101l10 51q-23 -39 -58.5 -64.5t-84.5 -25.5q-64 0 -102.5 55t-38.5 140q0 49 13.5 106t41 108t70 83.5t101.5 32.5q104 0 125 -113l23 100h75l-90 -464q-10 -54 -27 -103.5
t-44.5 -89t-70 -62t-104.5 -22.5zM207 73q43 0 72.5 27t47.5 67t26 83t8 74q0 62 -22.5 95t-65.5 33q-42 0 -71 -27.5t-46.5 -69t-25.5 -84t-8 -73.5q0 -57 22 -91t63 -34zM319 615q-23 0 -35.5 14t-12.5 36q0 23 16.5 42.5t42.5 19.5q23 0 35.5 -14t12.5 -36
q0 -23 -16.5 -42.5t-42.5 -19.5z" />
    <glyph glyph-name="uni0122" unicode="&#x122;" horiz-adv-x="578" 
d="M306 -16q-119 0 -185.5 69t-66.5 211q0 59 13.5 122.5t41 122t70 105.5t101.5 74.5t135 27.5q56 0 97.5 -15t73.5 -41l-34 -73q-30 26 -61.5 38t-79.5 12q-58 0 -102 -23.5t-75 -63t-50 -88t-28 -99.5t-9 -96q0 -106 45 -155t119 -49q30 0 52 3t40 9l43 223h-119l14 74
h204l-67 -348q-36 -18 -75 -29t-97 -11zM209 -249l-15 35q53 16 73 51h-3q-40 0 -40 42q0 25 17 40.5t40 15.5q20 0 32 -12.5t12 -35.5q0 -46 -31.5 -84t-84.5 -52z" />
    <glyph glyph-name="uni0123" unicode="&#x123;" horiz-adv-x="492" 
d="M147 -229q-41 0 -82.5 13t-67.5 34l22 72q31 -25 63 -36t70 -11q46 0 76.5 25.5t49.5 69.5t30 101l10 51q-23 -39 -58.5 -64.5t-84.5 -25.5q-64 0 -102.5 55t-38.5 140q0 49 13.5 106t41 108t70 83.5t101.5 32.5q104 0 125 -113l23 100h75l-90 -464q-10 -54 -27 -103.5
t-44.5 -89t-70 -62t-104.5 -22.5zM207 73q43 0 72.5 27t47.5 67t26 83t8 74q0 62 -22.5 95t-65.5 33q-42 0 -71 -27.5t-46.5 -69t-25.5 -84t-8 -73.5q0 -57 22 -91t63 -34zM314 599q-19 0 -31 13t-12 35q0 46 31.5 84t83.5 52l15 -35q-54 -16 -74 -51h4q18 0 28.5 -11
t10.5 -31q0 -25 -16.5 -40.5t-39.5 -15.5z" />
    <glyph glyph-name="Hbar" unicode="&#x126;" horiz-adv-x="588" 
d="M28 0l99 510h-63l14 69h62l24 121h89l-24 -121h258l24 121h89l-24 -121h60l-14 -69h-59l-99 -510h-89l59 305h-258l-59 -305h-89zM192 384h258l24 126h-258z" />
    <glyph glyph-name="hbar" unicode="&#x127;" horiz-adv-x="468" 
d="M14 0l114 588h-52l12 66h53l17 86h84l-17 -86h137l-12 -66h-138l-30 -158q26 43 62.5 63t73.5 20q51 0 81.5 -32.5t30.5 -101.5q0 -22 -3 -45t-7 -43l-57 -291h-84l55 280q4 20 8 45t4 45q0 68 -61 68q-45 0 -82 -44.5t-51 -118.5l-54 -275h-84z" />
    <glyph glyph-name="Itilde" unicode="&#x128;" horiz-adv-x="225" 
d="M18 0l136 700h89l-136 -700h-89zM120 772l-62 9q14 57 43 87.5t71 30.5q19 0 33.5 -8t33.5 -28q17 -18 24.5 -23.5t16.5 -5.5q28 0 41 65l62 -9q-13 -57 -42.5 -87.5t-71.5 -30.5q-19 0 -33.5 8t-33.5 28q-16 18 -24 23.5t-17 5.5q-28 0 -41 -65z" />
    <glyph glyph-name="itilde" unicode="&#x129;" horiz-adv-x="202" 
d="M9 0l100 512h84l-100 -512h-84zM79 598l-56 9q30 136 106 136q20 0 35.5 -9.5t32.5 -33.5q16 -21 24.5 -31.5t16.5 -10.5q29 0 47 85l56 -9q-30 -136 -106 -136q-35 0 -70 48q-18 24 -24.5 30.5t-14.5 6.5q-29 0 -47 -85z" />
    <glyph glyph-name="Imacron" unicode="&#x12a;" horiz-adv-x="225" 
d="M18 0l136 700h89l-136 -700h-89zM73 803l12 64h283l-12 -64h-283z" />
    <glyph glyph-name="imacron" unicode="&#x12b;" horiz-adv-x="202" 
d="M9 0l100 512h84l-100 -512h-84zM44 640l13 63h257l-13 -63h-257z" />
    <glyph glyph-name="Iogonek" unicode="&#x12e;" horiz-adv-x="225" 
d="M18 0l136 700h89l-136 -700h-89zM-5 -229q-35 0 -55 19.5t-20 54.5q0 53 43.5 101.5t115.5 80.5l28 -27q-58 -29 -90 -66t-32 -72t33 -35q24 0 49 12l3 -51q-34 -17 -75 -17z" />
    <glyph glyph-name="iogonek" unicode="&#x12f;" horiz-adv-x="202" 
d="M174 617q-22 0 -35 13t-13 35q0 29 19 50.5t46 21.5q21 0 34.5 -14t13.5 -36q0 -28 -19 -49t-46 -21zM9 0l100 512h84l-100 -512h-84zM-18 -229q-33 0 -51 19t-18 53q0 53 42 102t112 82l26 -27q-56 -31 -86.5 -68.5t-30.5 -73.5q0 -35 28 -35q14 0 25 3.5t24 10.5l3 -48
q-19 -9 -36 -13.5t-38 -4.5z" />
    <glyph glyph-name="Idotaccent" unicode="&#x130;" horiz-adv-x="225" 
d="M18 0l136 700h89l-136 -700h-89zM220 779q-24 0 -36.5 14.5t-12.5 36.5q0 23 17 43t42 20q24 0 36.5 -14t12.5 -37t-16.5 -43t-42.5 -20z" />
    <glyph glyph-name="dotlessi" unicode="&#x131;" horiz-adv-x="202" 
d="M9 0l100 512h84l-100 -512h-84z" />
    <glyph glyph-name="IJ" unicode="&#x132;" horiz-adv-x="524" 
d="M193 -16q-43 0 -79.5 14t-60.5 37l26 70q26 -20 53.5 -31.5t61.5 -11.5q47 0 81 18t58 64t40 129l83 427h89l-85 -436q-16 -83 -46 -146.5t-83 -98.5t-138 -35zM58 203l97 497h89l-97 -497h-89z" />
    <glyph glyph-name="ij" unicode="&#x133;" horiz-adv-x="456" 
d="M170 619q-22 0 -35 13t-13 35q0 29 19 50.5t46 21.5q21 0 34.5 -14t13.5 -36q0 -28 -19 -49t-46 -21zM429 619q-22 0 -35 13t-13 35q0 29 19 50.5t46 21.5q21 0 34.5 -14t13.5 -36q0 -28 -19 -49t-46 -21zM131 -229q-46 0 -80 11t-62 33l22 72q26 -25 55.5 -34.5
t64.5 -9.5q66 0 98.5 48t50.5 139l10 49q-26 -40 -61.5 -59.5t-70.5 -19.5q-50 0 -80 32.5t-30 101.5q0 23 3 46t7 42l57 290h84l-55 -279q-4 -23 -8 -48t-4 -42q0 -68 59 -68q43 0 79.5 44.5t50.5 118.5l53 274h84l-93 -476q-10 -52 -26 -99.5t-42 -85t-66.5 -59
t-99.5 -21.5z" />
    <glyph glyph-name="uni0136" unicode="&#x136;" horiz-adv-x="526" 
d="M18 0l136 700h89l-67 -344l302 344h106l-266 -296l147 -404h-96l-115 332l-105 -116l-42 -216h-89zM159 -249l-15 35q53 16 73 51h-3q-40 0 -40 42q0 25 17 40.5t40 15.5q20 0 32 -12.5t12 -35.5q0 -46 -31.5 -84t-84.5 -52z" />
    <glyph glyph-name="uni0137" unicode="&#x137;" horiz-adv-x="439" 
d="M9 0l144 740h84l-90 -462l222 234h100l-196 -204l108 -308h-93l-77 244l-88 -91l-30 -153h-84zM110 -249l-15 35q54 16 74 51h-4q-18 0 -28.5 11.5t-10.5 30.5q0 25 17 40.5t39 15.5q20 0 31.5 -12.5t11.5 -35.5q0 -46 -31.5 -84t-83.5 -52z" />
    <glyph glyph-name="Lacute" unicode="&#x139;" horiz-adv-x="437" 
d="M18 0l136 700h89l-121 -621h270l-25 -79h-349zM137 772l132 127h116l-154 -127h-94z" />
    <glyph glyph-name="lacute" unicode="&#x13a;" horiz-adv-x="202" 
d="M9 0l144 740h84l-144 -740h-84zM134 817l132 127h116l-154 -127h-94z" />
    <glyph glyph-name="uni013B" unicode="&#x13b;" horiz-adv-x="437" 
d="M18 0l136 700h89l-121 -621h270l-25 -79h-349zM127 -249l-15 35q53 16 73 51h-3q-40 0 -40 42q0 25 17 40.5t40 15.5q20 0 32 -12.5t12 -35.5q0 -46 -31.5 -84t-84.5 -52z" />
    <glyph glyph-name="uni013C" unicode="&#x13c;" horiz-adv-x="202" 
d="M9 0l144 740h84l-144 -740h-84zM-35 -249l-15 35q54 16 74 51h-4q-18 0 -28.5 11.5t-10.5 30.5q0 25 17 40.5t39 15.5q20 0 31.5 -12.5t11.5 -35.5q0 -46 -31.5 -84t-83.5 -52z" />
    <glyph glyph-name="Lcaron" unicode="&#x13d;" horiz-adv-x="437" 
d="M18 0l136 700h89l-121 -621h270l-25 -79h-349zM300 510q14 50 26.5 99t19.5 91h76q-10 -49 -25.5 -99t-32.5 -91h-64z" />
    <glyph glyph-name="lcaron" unicode="&#x13e;" horiz-adv-x="275" 
d="M9 0l144 740h84l-144 -740h-84zM257 550q14 50 26.5 99t19.5 91h76q-10 -49 -25.5 -99t-32.5 -91h-64z" />
    <glyph glyph-name="Ldot" unicode="&#x13f;" horiz-adv-x="437" 
d="M18 0l136 700h89l-121 -621h270l-25 -79h-349zM348 330q-25 0 -38.5 15.5t-13.5 38.5q0 26 18 47t47 21q25 0 38.5 -15.5t13.5 -38.5q0 -26 -18 -47t-47 -21z" />
    <glyph glyph-name="ldot" unicode="&#x140;" horiz-adv-x="340" 
d="M9 0l144 740h84l-144 -740h-84zM298 308q-25 0 -38.5 15.5t-13.5 38.5q0 26 18 47t47 21q25 0 38.5 -15.5t13.5 -38.5q0 -26 -18 -47t-47 -21z" />
    <glyph glyph-name="Lslash" unicode="&#x141;" horiz-adv-x="445" 
d="M26 0l46 239l-68 -42l16 87l69 43l73 373h89l-61 -311l183 112l-16 -87l-184 -113l-43 -222h270l-25 -79h-349z" />
    <glyph glyph-name="lslash" unicode="&#x142;" horiz-adv-x="216" 
d="M24 0l64 331l-69 -36l15 77l69 36l65 332h84l-55 -283l53 28l-15 -77l-53 -28l-74 -380h-84z" />
    <glyph glyph-name="Nacute" unicode="&#x143;" horiz-adv-x="570" 
d="M18 0l136 700h86l158 -538l105 538h85l-136 -700h-86l-159 538l-104 -538h-85zM325 772l132 127h116l-154 -127h-94z" />
    <glyph glyph-name="nacute" unicode="&#x144;" horiz-adv-x="463" 
d="M9 0l100 512h75l-13 -80q27 48 65.5 70.5t78.5 22.5q51 0 81.5 -32.5t30.5 -101.5q0 -21 -3 -44.5t-7 -43.5l-59 -303h-84l57 292q4 20 8 45t4 45q0 68 -61 68q-45 0 -82 -44.5t-51 -118.5l-56 -287h-84zM247 594l123 153h104l-144 -153h-83z" />
    <glyph glyph-name="uni0145" unicode="&#x145;" horiz-adv-x="570" 
d="M18 0l136 700h86l158 -538l105 538h85l-136 -700h-86l-159 538l-104 -538h-85zM164 -249l-15 35q53 16 73 51h-3q-40 0 -40 42q0 25 17 40.5t40 15.5q20 0 32 -12.5t12 -35.5q0 -46 -31.5 -84t-84.5 -52z" />
    <glyph glyph-name="uni0146" unicode="&#x146;" horiz-adv-x="463" 
d="M9 0l100 512h75l-13 -80q27 48 65.5 70.5t78.5 22.5q51 0 81.5 -32.5t30.5 -101.5q0 -21 -3 -44.5t-7 -43.5l-59 -303h-84l57 292q4 20 8 45t4 45q0 68 -61 68q-45 0 -82 -44.5t-51 -118.5l-56 -287h-84zM102 -249l-15 35q54 16 74 51h-4q-18 0 -28.5 11.5t-10.5 30.5
q0 25 17 40.5t39 15.5q20 0 31.5 -12.5t11.5 -35.5q0 -46 -31.5 -84t-83.5 -52z" />
    <glyph glyph-name="Ncaron" unicode="&#x147;" horiz-adv-x="570" 
d="M18 0l136 700h86l158 -538l105 538h85l-136 -700h-86l-159 538l-104 -538h-85zM353 772l-85 127h89l50 -73l82 73h84l-135 -127h-85z" />
    <glyph glyph-name="ncaron" unicode="&#x148;" horiz-adv-x="463" 
d="M9 0l100 512h75l-13 -80q27 48 65.5 70.5t78.5 22.5q51 0 81.5 -32.5t30.5 -101.5q0 -21 -3 -44.5t-7 -43.5l-59 -303h-84l57 292q4 20 8 45t4 45q0 68 -61 68q-45 0 -82 -44.5t-51 -118.5l-56 -287h-84zM270 594l-72 153h76l46 -93l87 93h79l-140 -153h-76z" />
    <glyph glyph-name="Eng" unicode="&#x14a;" horiz-adv-x="570" 
d="M256 -229q-28 0 -55.5 7t-47.5 23l27 72q21 -16 39.5 -20.5t39.5 -4.5q43 0 66 33t40 118l81 410q6 30 12 65.5t6 64.5q0 96 -92 96q-67 0 -116 -63t-71 -173l-78 -399h-89l137 700h79l-19 -112q33 61 82 94.5t106 33.5q68 0 107.5 -42.5t39.5 -132.5q0 -28 -3.5 -58
t-8.5 -58l-86 -436q-22 -113 -70.5 -165.5t-125.5 -52.5z" />
    <glyph glyph-name="eng" unicode="&#x14b;" horiz-adv-x="463" 
d="M189 -228q-52 0 -84 22l22 68q29 -18 60 -18q34 0 50.5 26t25.5 74l68 348q4 20 8 45t4 45q0 68 -61 68q-45 0 -82 -44.5t-51 -118.5l-56 -287h-84l100 512h75l-13 -80q27 48 65.5 70.5t78.5 22.5q51 0 81.5 -32.5t30.5 -101.5q0 -21 -3 -44.5t-7 -43.5l-71 -365
q-15 -78 -50.5 -122t-106.5 -44z" />
    <glyph glyph-name="Omacron" unicode="&#x14c;" horiz-adv-x="632" 
d="M284 -16q-70 0 -121.5 34.5t-80 97.5t-28.5 149q0 56 12.5 118.5t38.5 121.5t65.5 106.5t92.5 76t121 28.5q70 0 121.5 -34.5t80 -97.5t28.5 -149q0 -56 -12.5 -118.5t-38.5 -121.5t-65.5 -106.5t-92.5 -76t-121 -28.5zM289 63q51 0 89.5 26t66 68.5t44 93t24.5 100.5
t8 89q0 94 -37 145.5t-105 51.5q-51 0 -89.5 -26t-66 -68.5t-44 -93t-24.5 -100.5t-8 -89q0 -94 37 -145.5t105 -51.5zM282 803l12 64h283l-12 -64h-283z" />
    <glyph glyph-name="omacron" unicode="&#x14d;" horiz-adv-x="480" 
d="M202 -13q-77 0 -122.5 56t-45.5 150q0 52 14.5 110t44.5 108.5t76 82t109 31.5q77 0 122.5 -55.5t45.5 -150.5q0 -52 -14.5 -110t-44.5 -108.5t-76 -82t-109 -31.5zM207 60q40 0 68.5 26.5t47 67.5t27.5 86t9 83q0 62 -22 95.5t-64 33.5q-40 0 -68.5 -26.5t-47 -67.5
t-27.5 -86t-9 -83q0 -62 22 -95.5t64 -33.5zM187 640l13 63h257l-13 -63h-257z" />
    <glyph glyph-name="Ohungarumlaut" unicode="&#x150;" horiz-adv-x="632" 
d="M284 -16q-70 0 -121.5 34.5t-80 97.5t-28.5 149q0 56 12.5 118.5t38.5 121.5t65.5 106.5t92.5 76t121 28.5q70 0 121.5 -34.5t80 -97.5t28.5 -149q0 -56 -12.5 -118.5t-38.5 -121.5t-65.5 -106.5t-92.5 -76t-121 -28.5zM289 63q51 0 89.5 26t66 68.5t44 93t24.5 100.5
t8 89q0 94 -37 145.5t-105 51.5q-51 0 -89.5 -26t-66 -68.5t-44 -93t-24.5 -100.5t-8 -89q0 -94 37 -145.5t105 -51.5zM465 772l132 127h116l-154 -127h-94zM286 772l132 127h116l-154 -127h-94z" />
    <glyph glyph-name="ohungarumlaut" unicode="&#x151;" horiz-adv-x="480" 
d="M202 -13q-77 0 -122.5 56t-45.5 150q0 52 14.5 110t44.5 108.5t76 82t109 31.5q77 0 122.5 -55.5t45.5 -150.5q0 -52 -14.5 -110t-44.5 -108.5t-76 -82t-109 -31.5zM207 60q40 0 68.5 26.5t47 67.5t27.5 86t9 83q0 62 -22 95.5t-64 33.5q-40 0 -68.5 -26.5t-47 -67.5
t-27.5 -86t-9 -83q0 -62 22 -95.5t64 -33.5zM354 594l123 153h104l-144 -153h-83zM194 594l123 153h104l-144 -153h-83z" />
    <glyph glyph-name="OE" unicode="&#x152;" horiz-adv-x="813" 
d="M285 -16q-106 0 -168 70.5t-62 206.5q0 100 27 183t76 144t114.5 94.5t141.5 33.5q60 0 113 -16h315l-3 -79h-254l-44 -226h233l-15 -79h-233l-46 -237h272l-25 -79h-318q-55 -16 -124 -16zM148 268q0 -106 38.5 -155.5t116.5 -49.5q50 0 88 16l106 544q-37 14 -91 14
q-73 0 -131.5 -46.5t-92.5 -129.5t-34 -193z" />
    <glyph glyph-name="oe" unicode="&#x153;" horiz-adv-x="748" 
d="M202 -13q-77 0 -122.5 56t-45.5 150q0 52 14.5 110t44.5 108.5t76 82t109 31.5q49 0 85 -24.5t54 -68.5q29 43 67 68t94 25q70 0 106.5 -47.5t36.5 -131.5q0 -23 -4.5 -54t-11.5 -61h-280q-1 -15 -1 -31q0 -142 103 -142q34 0 63.5 10t63.5 35l3 -72q-32 -25 -70.5 -34.5
t-76.5 -9.5q-106 0 -146 92q-28 -41 -68.5 -66.5t-93.5 -25.5zM567 455q-46 0 -81.5 -44.5t-51.5 -114.5h204q4 21 4 48q0 54 -18 82.5t-57 28.5zM207 60q40 0 68.5 26.5t47 67.5t27.5 86t9 83q0 62 -22 95.5t-64 33.5q-40 0 -68.5 -26.5t-47 -67.5t-27.5 -86t-9 -83
q0 -62 22 -95.5t64 -33.5z" />
    <glyph glyph-name="Racute" unicode="&#x154;" horiz-adv-x="510" 
d="M18 0l137 700h166q80 0 128 -45.5t48 -128.5q0 -85 -37 -141.5t-108 -84.5l81 -300h-92l-68 278q-13 -1 -31 -1h-82l-54 -277h-88zM304 626h-75l-54 -275h72q76 0 118 46t42 131q0 98 -103 98zM283 772l132 127h116l-154 -127h-94z" />
    <glyph glyph-name="racute" unicode="&#x155;" horiz-adv-x="319" 
d="M9 0l100 512h75l-17 -102q27 53 64.5 82.5t78.5 29.5q17 0 30 -3.5t20 -7.5l-26 -76q-19 8 -41 8q-35 0 -65.5 -26.5t-52.5 -69.5t-32 -91l-50 -256h-84zM193 594l123 153h104l-144 -153h-83z" />
    <glyph glyph-name="uni0156" unicode="&#x156;" horiz-adv-x="510" 
d="M18 0l137 700h166q80 0 128 -45.5t48 -128.5q0 -85 -37 -141.5t-108 -84.5l81 -300h-92l-68 278q-13 -1 -31 -1h-82l-54 -277h-88zM304 626h-75l-54 -275h72q76 0 118 46t42 131q0 98 -103 98zM144 -249l-15 35q53 16 73 51h-3q-40 0 -40 42q0 25 17 40.5t40 15.5
q20 0 32 -12.5t12 -35.5q0 -46 -31.5 -84t-84.5 -52z" />
    <glyph glyph-name="uni0157" unicode="&#x157;" horiz-adv-x="319" 
d="M9 0l100 512h75l-17 -102q27 53 64.5 82.5t78.5 29.5q17 0 30 -3.5t20 -7.5l-26 -76q-19 8 -41 8q-35 0 -65.5 -26.5t-52.5 -69.5t-32 -91l-50 -256h-84zM-36 -249l-15 35q54 16 74 51h-4q-18 0 -28.5 11.5t-10.5 30.5q0 25 17 40.5t39 15.5q20 0 31.5 -12.5t11.5 -35.5
q0 -46 -31.5 -84t-83.5 -52z" />
    <glyph glyph-name="Rcaron" unicode="&#x158;" horiz-adv-x="510" 
d="M18 0l137 700h166q80 0 128 -45.5t48 -128.5q0 -85 -37 -141.5t-108 -84.5l81 -300h-92l-68 278q-13 -1 -31 -1h-82l-54 -277h-88zM304 626h-75l-54 -275h72q76 0 118 46t42 131q0 98 -103 98zM311 772l-85 127h89l50 -73l82 73h84l-135 -127h-85z" />
    <glyph glyph-name="rcaron" unicode="&#x159;" horiz-adv-x="319" 
d="M9 0l100 512h75l-17 -102q27 53 64.5 82.5t78.5 29.5q17 0 30 -3.5t20 -7.5l-26 -76q-19 8 -41 8q-35 0 -65.5 -26.5t-52.5 -69.5t-32 -91l-50 -256h-84zM216 594l-72 153h76l46 -93l87 93h79l-140 -153h-76z" />
    <glyph glyph-name="Sacute" unicode="&#x15a;" horiz-adv-x="462" 
d="M176 -16q-51 0 -100.5 19t-87.5 56l36 74q32 -34 72.5 -53.5t84.5 -19.5q65 0 100.5 34.5t35.5 99.5q0 42 -23.5 72.5t-78.5 58.5q-64 32 -97 77.5t-33 111.5q0 61 27 106.5t76.5 70.5t115.5 25q47 0 91 -17.5t78 -49.5l-33 -74q-34 35 -67 50t-77 15q-53 0 -87.5 -32
t-34.5 -85q0 -45 22.5 -75t77.5 -57q65 -32 99.5 -77t34.5 -110q0 -105 -61.5 -162.5t-170.5 -57.5zM260 772l132 127h116l-154 -127h-94z" />
    <glyph glyph-name="sacute" unicode="&#x15b;" horiz-adv-x="362" 
d="M129 -13q-88 0 -148 57l31 65q55 -52 121 -52q41 0 65.5 22.5t24.5 62.5q0 29 -17.5 49t-59.5 39q-47 21 -73.5 55t-26.5 83q0 72 47.5 114.5t123.5 42.5q39 0 74 -14.5t60 -37.5l-26 -65q-50 47 -110 47q-39 0 -64 -22.5t-25 -58.5q0 -26 16.5 -45.5t58.5 -38.5
q54 -24 79 -57t25 -83q0 -75 -47.5 -119t-128.5 -44zM201 594l123 153h104l-144 -153h-83z" />
    <glyph glyph-name="Scedilla" unicode="&#x15e;" horiz-adv-x="462" 
d="M176 -16q-51 0 -100.5 19t-87.5 56l36 74q32 -34 72.5 -53.5t84.5 -19.5q65 0 100.5 34.5t35.5 99.5q0 42 -23.5 72.5t-78.5 58.5q-64 32 -97 77.5t-33 111.5q0 61 27 106.5t76.5 70.5t115.5 25q47 0 91 -17.5t78 -49.5l-33 -74q-34 35 -67 50t-77 15q-53 0 -87.5 -32
t-34.5 -85q0 -45 22.5 -75t77.5 -57q65 -32 99.5 -77t34.5 -110q0 -105 -61.5 -162.5t-170.5 -57.5zM141 -229q-22 0 -38 4.5t-38 14.5l22 48q26 -14 56 -14q21 0 37.5 10t16.5 28q0 15 -11.5 23t-25.5 8q-13 0 -22 -1.5t-18 -3.5l50 127h48l-31 -76h9q30 0 48 -16.5
t18 -46.5q0 -48 -34 -76.5t-87 -28.5z" />
    <glyph glyph-name="scedilla" unicode="&#x15f;" horiz-adv-x="362" 
d="M129 -13q-88 0 -148 57l31 65q55 -52 121 -52q41 0 65.5 22.5t24.5 62.5q0 29 -17.5 49t-59.5 39q-47 21 -73.5 55t-26.5 83q0 72 47.5 114.5t123.5 42.5q39 0 74 -14.5t60 -37.5l-26 -65q-50 47 -110 47q-39 0 -64 -22.5t-25 -58.5q0 -26 16.5 -45.5t58.5 -38.5
q54 -24 79 -57t25 -83q0 -75 -47.5 -119t-128.5 -44zM97 -229q-24 0 -40 5.5t-35 15.5l21 45q29 -18 58 -18q23 0 37.5 12.5t14.5 32.5q0 34 -40 34q-13 0 -21.5 -1.5t-16.5 -3.5l48 122h48l-31 -76h7q30 0 47.5 -17t17.5 -48q0 -47 -31 -75t-84 -28z" />
    <glyph glyph-name="Scaron" unicode="&#x160;" horiz-adv-x="462" 
d="M176 -16q-51 0 -100.5 19t-87.5 56l36 74q32 -34 72.5 -53.5t84.5 -19.5q65 0 100.5 34.5t35.5 99.5q0 42 -23.5 72.5t-78.5 58.5q-64 32 -97 77.5t-33 111.5q0 61 27 106.5t76.5 70.5t115.5 25q47 0 91 -17.5t78 -49.5l-33 -74q-34 35 -67 50t-77 15q-53 0 -87.5 -32
t-34.5 -85q0 -45 22.5 -75t77.5 -57q65 -32 99.5 -77t34.5 -110q0 -105 -61.5 -162.5t-170.5 -57.5zM288 772l-85 127h89l50 -73l82 73h84l-135 -127h-85z" />
    <glyph glyph-name="scaron" unicode="&#x161;" horiz-adv-x="362" 
d="M129 -13q-88 0 -148 57l31 65q55 -52 121 -52q41 0 65.5 22.5t24.5 62.5q0 29 -17.5 49t-59.5 39q-47 21 -73.5 55t-26.5 83q0 72 47.5 114.5t123.5 42.5q39 0 74 -14.5t60 -37.5l-26 -65q-50 47 -110 47q-39 0 -64 -22.5t-25 -58.5q0 -26 16.5 -45.5t58.5 -38.5
q54 -24 79 -57t25 -83q0 -75 -47.5 -119t-128.5 -44zM224 594l-72 153h76l46 -93l87 93h79l-140 -153h-76z" />
    <glyph glyph-name="uni0162" unicode="&#x162;" horiz-adv-x="471" 
d="M141 0l121 621h-176l15 79h441l-15 -79h-176l-121 -621h-89zM141 -229q-22 0 -38 4.5t-38 14.5l22 48q26 -14 56 -14q21 0 37.5 10t16.5 28q0 15 -11.5 23t-25.5 8q-13 0 -22 -1.5t-18 -3.5l50 127h48l-31 -76h9q30 0 48 -16.5t18 -46.5q0 -48 -34 -76.5t-87 -28.5z" />
    <glyph glyph-name="uni0163" unicode="&#x163;" horiz-adv-x="332" 
d="M172 -10q-48 0 -76 27t-28 85q0 17 2.5 33.5t5.5 32.5l53 276h-83l23 68h74l32 167h84l-32 -167h121l-13 -68h-122l-53 -276q-1 -8 -3.5 -23t-2.5 -31q0 -30 13 -39.5t33 -9.5q34 0 69 19l-6 -74q-37 -20 -91 -20zM118 -229q-24 0 -40 5.5t-35 15.5l21 45q29 -18 58 -18
q23 0 37.5 12.5t14.5 32.5q0 34 -40 34q-13 0 -21.5 -1.5t-16.5 -3.5l48 122h48l-31 -76h7q30 0 47.5 -17t17.5 -48q0 -47 -31 -75t-84 -28z" />
    <glyph glyph-name="Tcaron" unicode="&#x164;" horiz-adv-x="471" 
d="M141 0l121 621h-176l15 79h441l-15 -79h-176l-121 -621h-89zM296 772l-85 127h89l50 -73l82 73h84l-135 -127h-85z" />
    <glyph glyph-name="tcaron" unicode="&#x165;" horiz-adv-x="332" 
d="M172 -10q-48 0 -76 27t-28 85q0 17 2.5 33.5t5.5 32.5l53 276h-83l23 68h74l32 167h84l-32 -167h121l-13 -68h-122l-53 -276q-1 -8 -3.5 -23t-2.5 -31q0 -30 13 -39.5t33 -9.5q34 0 69 19l-6 -74q-37 -20 -91 -20zM291 566q14 46 26 91.5t19 82.5h76q-11 -47 -25.5 -93
t-31.5 -81h-64z" />
    <glyph glyph-name="Tbar" unicode="&#x166;" horiz-adv-x="471" 
d="M141 0l59 302h-110l14 73h110l48 246h-176l15 79h441l-15 -79h-176l-48 -246h103l-14 -73h-103l-59 -302h-89z" />
    <glyph glyph-name="tbar" unicode="&#x167;" horiz-adv-x="332" 
d="M172 -10q-48 0 -76 27t-28 85q0 17 2.5 33.5t5.5 32.5l13 68h-78l12 66h79l27 142h-83l23 68h74l32 167h84l-32 -167h121l-13 -68h-122l-27 -142h121l-12 -66h-122l-13 -68q-1 -8 -3.5 -23t-2.5 -31q0 -30 13 -39.5t33 -9.5q34 0 69 19l-6 -74q-37 -20 -91 -20z" />
    <glyph glyph-name="Utilde" unicode="&#x168;" horiz-adv-x="568" 
d="M248 -16q-92 0 -140.5 46.5t-48.5 140.5q0 28 3.5 59.5t7.5 50.5l82 419h89l-82 -419q-5 -28 -8 -51t-3 -52q0 -60 27 -87.5t80 -27.5q72 0 107.5 55t57.5 166l81 416h88l-82 -423q-12 -60 -30.5 -113t-48 -93.5t-73.5 -63.5t-107 -23zM297 772l-62 9q14 57 43 87.5
t71 30.5q19 0 33.5 -8t33.5 -28q17 -18 24.5 -23.5t16.5 -5.5q28 0 41 65l62 -9q-13 -57 -42.5 -87.5t-71.5 -30.5q-19 0 -33.5 8t-33.5 28q-16 18 -24 23.5t-17 5.5q-28 0 -41 -65z" />
    <glyph glyph-name="utilde" unicode="&#x169;" horiz-adv-x="458" 
d="M146 -13q-50 0 -80 32.5t-30 101.5q0 23 3 46t7 42l59 303h84l-57 -292q-4 -23 -8 -48t-4 -42q0 -68 59 -68q43 0 79.5 44.5t50.5 118.5l56 287h84l-100 -512h-75l13 82q-26 -48 -64 -71.5t-77 -23.5zM205 598l-56 9q30 136 106 136q20 0 35.5 -9.5t32.5 -33.5
q16 -21 24.5 -31.5t16.5 -10.5q29 0 47 85l56 -9q-30 -136 -106 -136q-35 0 -70 48q-18 24 -24.5 30.5t-14.5 6.5q-29 0 -47 -85z" />
    <glyph glyph-name="Umacron" unicode="&#x16a;" horiz-adv-x="568" 
d="M248 -16q-92 0 -140.5 46.5t-48.5 140.5q0 28 3.5 59.5t7.5 50.5l82 419h89l-82 -419q-5 -28 -8 -51t-3 -52q0 -60 27 -87.5t80 -27.5q72 0 107.5 55t57.5 166l81 416h88l-82 -423q-12 -60 -30.5 -113t-48 -93.5t-73.5 -63.5t-107 -23zM250 803l12 64h283l-12 -64h-283z
" />
    <glyph glyph-name="umacron" unicode="&#x16b;" horiz-adv-x="458" 
d="M146 -13q-50 0 -80 32.5t-30 101.5q0 23 3 46t7 42l59 303h84l-57 -292q-4 -23 -8 -48t-4 -42q0 -68 59 -68q43 0 79.5 44.5t50.5 118.5l56 287h84l-100 -512h-75l13 82q-26 -48 -64 -71.5t-77 -23.5zM167 640l13 63h257l-13 -63h-257z" />
    <glyph glyph-name="Uring" unicode="&#x16e;" horiz-adv-x="568" 
d="M248 -16q-92 0 -140.5 46.5t-48.5 140.5q0 28 3.5 59.5t7.5 50.5l82 419h89l-82 -419q-5 -28 -8 -51t-3 -52q0 -60 27 -87.5t80 -27.5q72 0 107.5 55t57.5 166l81 416h88l-82 -423q-12 -60 -30.5 -113t-48 -93.5t-73.5 -63.5t-107 -23zM391 759q-43 0 -68 23.5t-25 60.5
q0 53 34 85.5t83 32.5q43 0 68 -23.5t25 -60.5q0 -52 -34 -85t-83 -33zM396 802q27 0 45.5 18.5t18.5 49.5q0 48 -50 48q-27 0 -45.5 -18.5t-18.5 -49.5q0 -48 50 -48z" />
    <glyph glyph-name="uring" unicode="&#x16f;" horiz-adv-x="458" 
d="M146 -13q-50 0 -80 32.5t-30 101.5q0 23 3 46t7 42l59 303h84l-57 -292q-4 -23 -8 -48t-4 -42q0 -68 59 -68q43 0 79.5 44.5t50.5 118.5l56 287h84l-100 -512h-75l13 82q-26 -48 -64 -71.5t-77 -23.5zM298 581q-40 0 -63.5 23.5t-23.5 60.5q0 53 32.5 85.5t78.5 32.5
q40 0 63.5 -23.5t23.5 -60.5q0 -52 -32 -85t-79 -33zM303 622q26 0 43 19.5t17 50.5q0 23 -11.5 36.5t-34.5 13.5q-25 0 -42.5 -19t-17.5 -51q0 -23 11.5 -36.5t34.5 -13.5z" />
    <glyph glyph-name="Uhungarumlaut" unicode="&#x170;" horiz-adv-x="568" 
d="M248 -16q-92 0 -140.5 46.5t-48.5 140.5q0 28 3.5 59.5t7.5 50.5l82 419h89l-82 -419q-5 -28 -8 -51t-3 -52q0 -60 27 -87.5t80 -27.5q72 0 107.5 55t57.5 166l81 416h88l-82 -423q-12 -60 -30.5 -113t-48 -93.5t-73.5 -63.5t-107 -23zM433 772l132 127h116l-154 -127
h-94zM254 772l132 127h116l-154 -127h-94z" />
    <glyph glyph-name="uhungarumlaut" unicode="&#x171;" horiz-adv-x="458" 
d="M146 -13q-50 0 -80 32.5t-30 101.5q0 23 3 46t7 42l59 303h84l-57 -292q-4 -23 -8 -48t-4 -42q0 -68 59 -68q43 0 79.5 44.5t50.5 118.5l56 287h84l-100 -512h-75l13 82q-26 -48 -64 -71.5t-77 -23.5zM334 594l123 153h104l-144 -153h-83zM174 594l123 153h104l-144 -153
h-83z" />
    <glyph glyph-name="Uogonek" unicode="&#x172;" horiz-adv-x="568" 
d="M248 -16q-92 0 -140.5 46.5t-48.5 140.5q0 28 3.5 59.5t7.5 50.5l82 419h89l-82 -419q-5 -28 -8 -51t-3 -52q0 -60 27 -87.5t80 -27.5q72 0 107.5 55t57.5 166l81 416h88l-82 -423q-12 -60 -30.5 -113t-48 -93.5t-73.5 -63.5t-107 -23zM238 -229q-35 0 -55 19.5t-20 54.5
q0 114 182 194l26 -22q-73 -43 -108.5 -79.5t-35.5 -75.5q0 -35 34 -35q24 0 49 12l3 -51q-34 -17 -75 -17z" />
    <glyph glyph-name="uogonek" unicode="&#x173;" horiz-adv-x="458" 
d="M146 -13q-50 0 -80 32.5t-30 101.5q0 23 3 46t7 42l59 303h84l-57 -292q-4 -23 -8 -48t-4 -42q0 -68 59 -68q43 0 79.5 44.5t50.5 118.5l56 287h84l-100 -512h-75l13 82q-26 -48 -64 -71.5t-77 -23.5zM238 -229q-33 0 -51 19t-18 53q0 53 42 102t112 82l26 -27
q-56 -31 -86.5 -68.5t-30.5 -73.5q0 -35 28 -35q14 0 25 3.5t24 10.5l3 -48q-19 -9 -36 -13.5t-38 -4.5z" />
    <glyph glyph-name="Wcircumflex" unicode="&#x174;" horiz-adv-x="761" 
d="M117 0l-17 700h92l1 -567l229 567h90l10 -565l220 565h91l-290 -700h-94l-7 557l-231 -557h-94zM340 772l135 127h85l85 -127h-89l-50 73l-82 -73h-84z" />
    <glyph glyph-name="wcircumflex" unicode="&#x175;" horiz-adv-x="625" 
d="M88 0l-27 512h86l9 -402l163 402h85l8 -402l164 402h88l-227 -512h-90l-7 399l-162 -399h-90zM247 594l140 153h76l72 -153h-76l-46 93l-87 -93h-79z" />
    <glyph glyph-name="Ycircumflex" unicode="&#x176;" horiz-adv-x="512" 
d="M160 0l56 287l-117 413h92l85 -331l209 331h100l-280 -413l-56 -287h-89zM214 772l135 127h85l85 -127h-89l-50 73l-82 -73h-84z" />
    <glyph glyph-name="ycircumflex" unicode="&#x177;" horiz-adv-x="425" 
d="M4 -229q-40 0 -68 16l19 69q17 -12 45 -12q32 0 55.5 23.5t54.5 88.5l19 39l-71 517h88l42 -415l189 415h90l-285 -580q-30 -61 -56 -96.5t-55 -50t-67 -14.5zM143 594l140 153h76l72 -153h-76l-46 93l-87 -93h-79z" />
    <glyph glyph-name="Ydieresis" unicode="&#x178;" horiz-adv-x="512" 
d="M160 0l56 287l-117 413h92l85 -331l209 331h100l-280 -413l-56 -287h-89zM480 780q-23 0 -34.5 14t-11.5 34q0 23 15.5 41.5t40.5 18.5q21 0 33 -13.5t12 -34.5q0 -23 -15.5 -41.5t-39.5 -18.5zM278 780q-21 0 -33 14t-12 34q0 23 15.5 41.5t39.5 18.5q23 0 34.5 -13.5
t11.5 -34.5q0 -23 -15 -41.5t-41 -18.5z" />
    <glyph glyph-name="Zacute" unicode="&#x179;" horiz-adv-x="504" 
d="M-7 0l14 75l416 547h-296l24 78h390l-15 -75l-415 -547h320l-24 -78h-414zM291 772l132 127h116l-154 -127h-94z" />
    <glyph glyph-name="zacute" unicode="&#x17a;" horiz-adv-x="404" 
d="M-11 0l12 64l299 380h-225l22 68h309l-12 -64l-299 -380h237l-22 -68h-321zM211 594l123 153h104l-144 -153h-83z" />
    <glyph glyph-name="Zdotaccent" unicode="&#x17b;" horiz-adv-x="504" 
d="M-7 0l14 75l416 547h-296l24 78h390l-15 -75l-415 -547h320l-24 -78h-414zM374 779q-24 0 -36.5 14.5t-12.5 36.5q0 23 17 43t42 20q24 0 36.5 -14t12.5 -37t-16.5 -43t-42.5 -20z" />
    <glyph glyph-name="zdotaccent" unicode="&#x17c;" horiz-adv-x="404" 
d="M-11 0l12 64l299 380h-225l22 68h309l-12 -64l-299 -380h237l-22 -68h-321zM285 615q-23 0 -35.5 14t-12.5 36q0 23 16.5 42.5t42.5 19.5q23 0 35.5 -14t12.5 -36q0 -23 -16.5 -42.5t-42.5 -19.5z" />
    <glyph glyph-name="Zcaron" unicode="&#x17d;" horiz-adv-x="504" 
d="M-7 0l14 75l416 547h-296l24 78h390l-15 -75l-415 -547h320l-24 -78h-414zM319 772l-85 127h89l50 -73l82 73h84l-135 -127h-85z" />
    <glyph glyph-name="zcaron" unicode="&#x17e;" horiz-adv-x="404" 
d="M-11 0l12 64l299 380h-225l22 68h309l-12 -64l-299 -380h237l-22 -68h-321zM234 594l-72 153h76l46 -93l87 93h79l-140 -153h-76z" />
    <glyph glyph-name="uni0218" unicode="&#x218;" horiz-adv-x="462" 
d="M176 -16q-51 0 -100.5 19t-87.5 56l36 74q32 -34 72.5 -53.5t84.5 -19.5q65 0 100.5 34.5t35.5 99.5q0 42 -23.5 72.5t-78.5 58.5q-64 32 -97 77.5t-33 111.5q0 61 27 106.5t76.5 70.5t115.5 25q47 0 91 -17.5t78 -49.5l-33 -74q-34 35 -67 50t-77 15q-53 0 -87.5 -32
t-34.5 -85q0 -45 22.5 -75t77.5 -57q65 -32 99.5 -77t34.5 -110q0 -105 -61.5 -162.5t-170.5 -57.5zM104 -249l-15 35q53 16 73 51h-3q-40 0 -40 42q0 25 17 40.5t40 15.5q20 0 32 -12.5t12 -35.5q0 -46 -31.5 -84t-84.5 -52z" />
    <glyph glyph-name="uni0219" unicode="&#x219;" horiz-adv-x="362" 
d="M129 -13q-88 0 -148 57l31 65q55 -52 121 -52q41 0 65.5 22.5t24.5 62.5q0 29 -17.5 49t-59.5 39q-47 21 -73.5 55t-26.5 83q0 72 47.5 114.5t123.5 42.5q39 0 74 -14.5t60 -37.5l-26 -65q-50 47 -110 47q-39 0 -64 -22.5t-25 -58.5q0 -26 16.5 -45.5t58.5 -38.5
q54 -24 79 -57t25 -83q0 -75 -47.5 -119t-128.5 -44zM57 -249l-15 35q54 16 74 51h-4q-18 0 -28.5 11.5t-10.5 30.5q0 25 17 40.5t39 15.5q20 0 31.5 -12.5t11.5 -35.5q0 -46 -31.5 -84t-83.5 -52z" />
    <glyph glyph-name="uni021A" unicode="&#x21a;" horiz-adv-x="471" 
d="M141 0l121 621h-176l15 79h441l-15 -79h-176l-121 -621h-89zM107 -249l-15 35q53 16 73 51h-3q-40 0 -40 42q0 25 17 40.5t40 15.5q20 0 32 -12.5t12 -35.5q0 -46 -31.5 -84t-84.5 -52z" />
    <glyph glyph-name="uni021B" unicode="&#x21b;" horiz-adv-x="332" 
d="M172 -10q-48 0 -76 27t-28 85q0 17 2.5 33.5t5.5 32.5l53 276h-83l23 68h74l32 167h84l-32 -167h121l-13 -68h-122l-53 -276q-1 -8 -3.5 -23t-2.5 -31q0 -30 13 -39.5t33 -9.5q34 0 69 19l-6 -74q-37 -20 -91 -20zM78 -249l-15 35q54 16 74 51h-4q-18 0 -28.5 11.5
t-10.5 30.5q0 25 17 40.5t39 15.5q20 0 31.5 -12.5t11.5 -35.5q0 -46 -31.5 -84t-83.5 -52z" />
    <glyph glyph-name="uni0237" unicode="&#x237;" horiz-adv-x="202" 
d="M-76 -229q-52 0 -84 22l22 68q29 -18 60 -18q34 0 50.5 26t25.5 74l111 569h84l-112 -575q-15 -78 -50.5 -122t-106.5 -44z" />
    <glyph glyph-name="circumflex" unicode="&#x2c6;" horiz-adv-x="380" 
d="M112 594l140 153h76l72 -153h-76l-46 93l-87 -93h-79z" />
    <glyph glyph-name="caron" unicode="&#x2c7;" horiz-adv-x="380" 
d="M213 594l-72 153h76l46 -93l87 93h79l-140 -153h-76z" />
    <glyph glyph-name="breve" unicode="&#x2d8;" horiz-adv-x="380" 
d="M261 598q-48 0 -75.5 26.5t-27.5 74.5q0 7 1 18t2 18l60 8q-1 -10 -1 -17.5v-14.5q0 -56 49 -56q29 0 48 21t29 67l60 -8q-14 -67 -52 -102t-93 -35z" />
    <glyph glyph-name="dotaccent" unicode="&#x2d9;" horiz-adv-x="380" 
d="M264 615q-23 0 -35.5 14t-12.5 36q0 23 16.5 42.5t42.5 19.5q23 0 35.5 -14t12.5 -36q0 -23 -16.5 -42.5t-42.5 -19.5z" />
    <glyph glyph-name="ring" unicode="&#x2da;" horiz-adv-x="380" 
d="M255 581q-40 0 -63.5 23.5t-23.5 60.5q0 53 32.5 85.5t78.5 32.5q40 0 63.5 -23.5t23.5 -60.5q0 -52 -32 -85t-79 -33zM260 622q26 0 43 19.5t17 50.5q0 23 -11.5 36.5t-34.5 13.5q-25 0 -42.5 -19t-17.5 -51q0 -23 11.5 -36.5t34.5 -13.5z" />
    <glyph glyph-name="ogonek" unicode="&#x2db;" horiz-adv-x="380" 
d="M59 -229q-33 0 -51 19t-18 53q0 53 42 102t112 82l26 -27q-56 -31 -86.5 -68.5t-30.5 -73.5q0 -35 28 -35q14 0 25 3.5t24 10.5l3 -48q-19 -9 -36 -13.5t-38 -4.5z" />
    <glyph glyph-name="tilde" unicode="&#x2dc;" horiz-adv-x="380" 
d="M168 598l-56 9q30 136 106 136q20 0 35.5 -9.5t32.5 -33.5q16 -21 24.5 -31.5t16.5 -10.5q29 0 47 85l56 -9q-30 -136 -106 -136q-35 0 -70 48q-18 24 -24.5 30.5t-14.5 6.5q-29 0 -47 -85z" />
    <glyph glyph-name="hungarumlaut" unicode="&#x2dd;" horiz-adv-x="380" 
d="M299 594l123 153h104l-144 -153h-83zM139 594l123 153h104l-144 -153h-83z" />
    <glyph glyph-name="gravecomb" unicode="&#x300;" 
d="M44 594l-81 153h91l60 -153h-70z" />
    <glyph glyph-name="acutecomb" unicode="&#x301;" 
d="M0 594l123 153h104l-144 -153h-83z" />
    <glyph glyph-name="uni0302" unicode="&#x302;" 
d="M-78 594l140 153h76l72 -153h-76l-46 93l-87 -93h-79z" />
    <glyph glyph-name="tildecomb" unicode="&#x303;" 
d="M-28 598l-56 9q30 136 106 136q20 0 35.5 -9.5t32.5 -33.5q16 -21 24.5 -31.5t16.5 -10.5q29 0 47 85l56 -9q-30 -136 -106 -136q-35 0 -70 48q-18 24 -24.5 30.5t-14.5 6.5q-29 0 -47 -85z" />
    <glyph glyph-name="uni0304" unicode="&#x304;" 
d="M-58 640l13 63h257l-13 -63h-257z" />
    <glyph glyph-name="uni0306" unicode="&#x306;" 
d="M66 598q-48 0 -75.5 26.5t-27.5 74.5q0 7 1 18t2 18l60 8q-1 -10 -1 -17.5v-14.5q0 -56 49 -56q29 0 48 21t29 67l60 -8q-14 -67 -52 -102t-93 -35z" />
    <glyph glyph-name="uni0307" unicode="&#x307;" 
d="M74 615q-23 0 -35.5 14t-12.5 36q0 23 16.5 42.5t42.5 19.5q23 0 35.5 -14t12.5 -36q0 -23 -16.5 -42.5t-42.5 -19.5z" />
    <glyph glyph-name="uni0308" unicode="&#x308;" 
d="M153 618q-22 0 -33.5 13.5t-11.5 33.5q0 23 15.5 41t40.5 18q22 0 33.5 -13.5t11.5 -33.5q0 -22 -15 -40.5t-41 -18.5zM-18 618q-22 0 -33.5 13.5t-11.5 33.5q0 23 15.5 41t40.5 18q22 0 33.5 -13.5t11.5 -33.5q0 -22 -15 -40.5t-41 -18.5z" />
    <glyph glyph-name="uni030A" unicode="&#x30a;" 
d="M65 581q-40 0 -63.5 23.5t-23.5 60.5q0 53 32.5 85.5t78.5 32.5q40 0 63.5 -23.5t23.5 -60.5q0 -52 -32 -85t-79 -33zM70 622q26 0 43 19.5t17 50.5q0 23 -11.5 36.5t-34.5 13.5q-25 0 -42.5 -19t-17.5 -51q0 -23 11.5 -36.5t34.5 -13.5z" />
    <glyph glyph-name="uni030B" unicode="&#x30b;" 
d="M109 594l123 153h104l-144 -153h-83zM-51 594l123 153h104l-144 -153h-83z" />
    <glyph glyph-name="uni030C" unicode="&#x30c;" 
d="M23 594l-72 153h76l46 -93l87 93h79l-140 -153h-76z" />
    <glyph glyph-name="uni0312" unicode="&#x312;" 
d="M69 599q-19 0 -31 13t-12 35q0 46 31.5 84t83.5 52l15 -35q-54 -16 -74 -51h4q18 0 28.5 -11t10.5 -31q0 -25 -16.5 -40.5t-39.5 -15.5z" />
    <glyph glyph-name="uni0315" unicode="&#x315;" 
d="M7 550q14 50 26.5 99t19.5 91h76q-10 -49 -25.5 -99t-32.5 -91h-64z" />
    <glyph glyph-name="dotbelowcomb" unicode="&#x323;" 
d="M-80 -177q-23 0 -35.5 14t-12.5 36q0 23 16 42.5t43 19.5q23 0 35.5 -14t12.5 -36q0 -23 -16 -42.5t-43 -19.5z" />
    <glyph glyph-name="uni0326" unicode="&#x326;" 
d="M-137 -249l-15 35q54 16 74 51h-4q-18 0 -28.5 11.5t-10.5 30.5q0 25 17 40.5t39 15.5q20 0 31.5 -12.5t11.5 -35.5q0 -46 -31.5 -84t-83.5 -52z" />
    <glyph glyph-name="uni0327" unicode="&#x327;" 
d="M-97 -229q-24 0 -40 5.5t-35 15.5l21 45q29 -18 58 -18q23 0 37.5 12.5t14.5 32.5q0 34 -40 34q-13 0 -21.5 -1.5t-16.5 -3.5l48 122h48l-31 -76h7q30 0 47.5 -17t17.5 -48q0 -47 -31 -75t-84 -28z" />
    <glyph glyph-name="uni0328" unicode="&#x328;" 
d="M-131 -229q-33 0 -51 19t-18 53q0 53 42 102t112 82l26 -27q-56 -31 -86.5 -68.5t-30.5 -73.5q0 -35 28 -35q14 0 25 3.5t24 10.5l3 -48q-19 -9 -36 -13.5t-38 -4.5z" />
    <glyph glyph-name="uni0344" unicode="&#x344;" 
d="M30 608l80 188h90l-107 -188h-63zM207 618q-22 0 -33.5 13.5t-11.5 33.5q0 23 15.5 41t40.5 18q22 0 33.5 -13.5t11.5 -33.5q0 -22 -15 -40.5t-41 -18.5zM-31 618q-22 0 -33.5 13.5t-11.5 33.5q0 23 15.5 41t40.5 18q22 0 33.5 -13.5t11.5 -33.5q0 -22 -15 -40.5
t-41 -18.5z" />
    <glyph glyph-name="uni0374" unicode="&#x374;" horiz-adv-x="178" 
d="M68 467l105 273h99l-129 -273h-75z" />
    <glyph glyph-name="uni0375" unicode="&#x375;" horiz-adv-x="178" 
d="M-70 -104l129 273h75l-105 -273h-99z" />
    <glyph glyph-name="uni037E" unicode="&#x37e;" horiz-adv-x="208" 
d="M-23 -158l-22 42q33 17 60 46t40 62q-23 1 -35.5 16.5t-12.5 37.5q0 26 18 47t47 21q24 0 38 -16t14 -45q0 -39 -20 -81t-53 -76.5t-74 -53.5zM138 399q-25 0 -38.5 15.5t-13.5 38.5q0 26 18 47t47 21q25 0 38.5 -15.5t13.5 -38.5q0 -26 -18 -47t-47 -21z" />
    <glyph glyph-name="tonos" unicode="&#x384;" horiz-adv-x="380" 
d="M184 608l83 188h102l-111 -188h-74z" />
    <glyph glyph-name="dieresistonos" unicode="&#x385;" horiz-adv-x="380" 
d="M207 608l80 188h90l-107 -188h-63zM384 618q-22 0 -33.5 13.5t-11.5 33.5q0 23 15.5 41t40.5 18q22 0 33.5 -13.5t11.5 -33.5q0 -22 -15 -40.5t-41 -18.5zM146 618q-22 0 -33.5 13.5t-11.5 33.5q0 23 15.5 41t40.5 18q22 0 33.5 -13.5t11.5 -33.5q0 -22 -15 -40.5
t-41 -18.5z" />
    <glyph glyph-name="Alphatonos" unicode="&#x386;" horiz-adv-x="543" 
d="M-39 0l350 700h93l78 -700h-90l-18 190h-225l-92 -190h-96zM185 266h182l-30 315zM44 478l71 222h99l-99 -222h-71z" />
    <glyph glyph-name="anoteleia" unicode="&#x387;" horiz-adv-x="208" 
d="M137 399q-25 0 -38.5 15.5t-13.5 38.5q0 26 18 47t47 21q25 0 38.5 -15.5t13.5 -38.5q0 -26 -18 -47t-47 -21z" />
    <glyph glyph-name="Epsilontonos" unicode="&#x388;" horiz-adv-x="465" 
d="M18 0l136 700h340l-3 -79h-264l-44 -226h243l-15 -79h-243l-46 -237h282l-25 -79h-361zM-81 478l71 222h99l-99 -222h-71z" />
    <glyph glyph-name="Etatonos" unicode="&#x389;" horiz-adv-x="572" 
d="M18 0l136 700h89l-59 -305h258l59 305h89l-136 -700h-89l61 316h-258l-61 -316h-89zM-81 478l71 222h99l-99 -222h-71z" />
    <glyph glyph-name="Iotatonos" unicode="&#x38a;" horiz-adv-x="225" 
d="M18 0l136 700h89l-136 -700h-89zM-81 478l71 222h99l-99 -222h-71z" />
    <glyph glyph-name="Omicrontonos" unicode="&#x38c;" horiz-adv-x="632" 
d="M284 -16q-70 0 -121.5 34.5t-80 97.5t-28.5 149q0 56 12.5 118.5t38.5 121.5t65.5 106.5t92.5 76t121 28.5q70 0 121.5 -34.5t80 -97.5t28.5 -149q0 -56 -12.5 -118.5t-38.5 -121.5t-65.5 -106.5t-92.5 -76t-121 -28.5zM289 63q51 0 89.5 26t66 68.5t44 93t24.5 100.5
t8 89q0 94 -37 145.5t-105 51.5q-51 0 -89.5 -26t-66 -68.5t-44 -93t-24.5 -100.5t-8 -89q0 -94 37 -145.5t105 -51.5zM-58 478l71 222h99l-99 -222h-71z" />
    <glyph glyph-name="Upsilontonos" unicode="&#x38e;" horiz-adv-x="512" 
d="M160 0l56 287l-117 413h92l85 -331l209 331h100l-280 -413l-56 -287h-89zM-114 478l71 222h99l-99 -222h-71z" />
    <glyph glyph-name="Omegatonos" unicode="&#x38f;" horiz-adv-x="640" 
d="M3 0l15 79h136q-36 37 -59 89t-23 117q0 53 12.5 112.5t38 116t64 102.5t91 73t119.5 27q94 0 154 -62.5t60 -183.5q0 -78 -22.5 -152t-64.5 -135.5t-101 -103.5h131l-25 -79h-215l15 73q39 22 73 62.5t60.5 93t41 111t14.5 117.5q0 94 -32.5 137t-93.5 43q-50 0 -88 -25
t-64.5 -66t-43 -89t-24 -95t-7.5 -84q0 -78 21 -130t52 -75l-15 -73h-220zM-57 478l71 222h99l-99 -222h-71z" />
    <glyph glyph-name="iotadieresistonos" unicode="&#x390;" horiz-adv-x="253" 
d="M119 -10q-50 0 -72 24t-22 69q0 14 1.5 30t5.5 34l71 365h84l-69 -355q-3 -17 -5 -31t-2 -25q0 -19 7 -28.5t24 -9.5q26 0 52 16v-69q-35 -20 -75 -20zM123 608l80 188h90l-107 -188h-63zM300 618q-22 0 -33.5 13.5t-11.5 33.5q0 23 15.5 41t40.5 18q22 0 33.5 -13.5
t11.5 -33.5q0 -22 -15 -40.5t-41 -18.5zM62 618q-22 0 -33.5 13.5t-11.5 33.5q0 23 15.5 41t40.5 18q22 0 33.5 -13.5t11.5 -33.5q0 -22 -15 -40.5t-41 -18.5z" />
    <glyph glyph-name="Alpha" unicode="&#x391;" horiz-adv-x="543" 
d="M-39 0l350 700h93l78 -700h-90l-18 190h-225l-92 -190h-96zM185 266h182l-30 315z" />
    <glyph glyph-name="Beta" unicode="&#x392;" horiz-adv-x="512" 
d="M18 0l136 700h170q85 0 131.5 -41.5t46.5 -115.5q0 -69 -37.5 -117t-102.5 -64q49 -11 76.5 -44.5t27.5 -83.5q0 -108 -70 -171t-192 -63h-186zM307 627h-81l-44 -228h81q72 0 112 38.5t40 108.5q0 81 -108 81zM258 327h-90l-50 -254h91q80 0 124 42.5t44 121.5
q0 44 -30.5 67t-88.5 23z" />
    <glyph glyph-name="Gamma" unicode="&#x393;" horiz-adv-x="415" 
d="M18 0l136 700h320l-3 -79h-243l-121 -621h-89z" />
    <glyph glyph-name="uni0394" unicode="&#x394;" horiz-adv-x="549" 
d="M-19 0l15 77l317 623h95l75 -623l-15 -77h-487zM90 81h296l-49 509z" />
    <glyph glyph-name="Epsilon" unicode="&#x395;" horiz-adv-x="465" 
d="M18 0l136 700h340l-3 -79h-264l-44 -226h243l-15 -79h-243l-46 -237h282l-25 -79h-361z" />
    <glyph glyph-name="Zeta" unicode="&#x396;" horiz-adv-x="504" 
d="M-7 0l14 75l416 547h-296l24 78h390l-15 -75l-415 -547h320l-24 -78h-414z" />
    <glyph glyph-name="Eta" unicode="&#x397;" horiz-adv-x="572" 
d="M18 0l136 700h89l-59 -305h258l59 305h89l-136 -700h-89l61 316h-258l-61 -316h-89z" />
    <glyph glyph-name="Theta" unicode="&#x398;" horiz-adv-x="632" 
d="M284 -16q-70 0 -121.5 34.5t-80 97.5t-28.5 149q0 56 12.5 118.5t38.5 121.5t65.5 106.5t92.5 76t121 28.5q70 0 121.5 -34.5t80 -97.5t28.5 -149q0 -56 -12.5 -118.5t-38.5 -121.5t-65.5 -106.5t-92.5 -76t-121 -28.5zM289 63q51 0 89.5 26t66 68.5t44 93t24.5 100.5
t8 89q0 94 -37 145.5t-105 51.5q-51 0 -89.5 -26t-66 -68.5t-44 -93t-24.5 -100.5t-8 -89q0 -94 37 -145.5t105 -51.5zM209 319l15 79h235l-15 -79h-235z" />
    <glyph glyph-name="Iota" unicode="&#x399;" horiz-adv-x="225" 
d="M18 0l136 700h89l-136 -700h-89z" />
    <glyph glyph-name="Kappa" unicode="&#x39a;" horiz-adv-x="526" 
d="M18 0l136 700h89l-67 -344l302 344h106l-266 -296l147 -404h-96l-115 332l-105 -116l-42 -216h-89z" />
    <glyph glyph-name="Lambda" unicode="&#x39b;" horiz-adv-x="533" 
d="M-39 0l344 700h93l74 -700h-90l-51 578l-274 -578h-96z" />
    <glyph glyph-name="Mu" unicode="&#x39c;" horiz-adv-x="681" 
d="M18 0l136 700h110l69 -477l256 477h110l-136 -700h-83l107 554l-236 -436h-75l-66 441l-109 -559h-83z" />
    <glyph glyph-name="Nu" unicode="&#x39d;" horiz-adv-x="570" 
d="M18 0l136 700h86l158 -538l105 538h85l-136 -700h-86l-159 538l-104 -538h-85z" />
    <glyph glyph-name="Xi" unicode="&#x39e;" horiz-adv-x="467" 
d="M108 619l16 81h391l-16 -81h-391zM112 315l16 81h265l-16 -81h-265zM-20 0l16 81h407l-16 -81h-407z" />
    <glyph glyph-name="Omicron" unicode="&#x39f;" horiz-adv-x="632" 
d="M284 -16q-70 0 -121.5 34.5t-80 97.5t-28.5 149q0 56 12.5 118.5t38.5 121.5t65.5 106.5t92.5 76t121 28.5q70 0 121.5 -34.5t80 -97.5t28.5 -149q0 -56 -12.5 -118.5t-38.5 -121.5t-65.5 -106.5t-92.5 -76t-121 -28.5zM289 63q51 0 89.5 26t66 68.5t44 93t24.5 100.5
t8 89q0 94 -37 145.5t-105 51.5q-51 0 -89.5 -26t-66 -68.5t-44 -93t-24.5 -100.5t-8 -89q0 -94 37 -145.5t105 -51.5z" />
    <glyph glyph-name="Pi" unicode="&#x3a0;" horiz-adv-x="569" 
d="M18 0l136 700h433l-136 -700h-91l120 619h-251l-120 -619h-91z" />
    <glyph glyph-name="Rho" unicode="&#x3a1;" horiz-adv-x="480" 
d="M18 0l137 700h164q80 0 125.5 -46.5t45.5 -132.5q0 -118 -67 -187t-183 -69h-82l-52 -265h-88zM302 626h-74l-56 -287h73q74 0 115 48.5t41 136.5q0 102 -99 102z" />
    <glyph glyph-name="Sigma" unicode="&#x3a3;" horiz-adv-x="479" 
d="M-8 0l14 73l237 297l-122 257l14 73h376l-3 -78h-296l123 -259l-228 -285h310l-25 -78h-400z" />
    <glyph glyph-name="Tau" unicode="&#x3a4;" horiz-adv-x="471" 
d="M141 0l121 621h-176l15 79h441l-15 -79h-176l-121 -621h-89z" />
    <glyph glyph-name="Upsilon" unicode="&#x3a5;" horiz-adv-x="512" 
d="M160 0l56 287l-117 413h92l85 -331l209 331h100l-280 -413l-56 -287h-89z" />
    <glyph glyph-name="Phi" unicode="&#x3a6;" horiz-adv-x="655" 
d="M235 0l13 65q-90 19 -139 82t-49 162q0 101 37.5 176.5t105.5 118t159 44.5l13 68h85l-15 -75q90 -19 139 -82t49 -162q0 -100 -37.5 -175.5t-105.5 -118.5t-159 -45l-11 -58h-85zM153 306q0 -138 112 -168l84 438q-94 -5 -145 -74t-51 -196zM540 400q0 137 -111 168
l-85 -437q90 6 143 78t53 191z" />
    <glyph glyph-name="Chi" unicode="&#x3a7;" horiz-adv-x="522" 
d="M-39 0l273 368l-121 332h94l88 -264l185 264h101l-252 -342l132 -358h-94l-99 291l-206 -291h-101z" />
    <glyph glyph-name="Psi" unicode="&#x3a8;" horiz-adv-x="616" 
d="M215 0l35 180q-88 13 -129.5 65t-41.5 134q0 19 2 39t6 41l47 241h89l-45 -233q-4 -21 -6 -40.5t-2 -36.5q0 -55 22.5 -89.5t72.5 -44.5l86 444h86l-86 -444q71 13 112 68.5t57 142.5l45 233h89l-47 -241q-15 -79 -47.5 -140.5t-87.5 -98.5t-137 -43l-34 -177h-86z" />
    <glyph glyph-name="uni03A9" unicode="&#x3a9;" horiz-adv-x="640" 
d="M3 0l15 79h136q-36 37 -59 89t-23 117q0 53 12.5 112.5t38 116t64 102.5t91 73t119.5 27q94 0 154 -62.5t60 -183.5q0 -78 -22.5 -152t-64.5 -135.5t-101 -103.5h131l-25 -79h-215l15 73q39 22 73 62.5t60.5 93t41 111t14.5 117.5q0 94 -32.5 137t-93.5 43q-50 0 -88 -25
t-64.5 -66t-43 -89t-24 -95t-7.5 -84q0 -78 21 -130t52 -75l-15 -73h-220z" />
    <glyph glyph-name="Iotadieresis" unicode="&#x3aa;" horiz-adv-x="225" 
d="M18 0l136 700h89l-136 -700h-89zM312 780q-23 0 -34.5 14t-11.5 34q0 23 15.5 41.5t40.5 18.5q21 0 33 -13.5t12 -34.5q0 -23 -15.5 -41.5t-39.5 -18.5zM110 780q-21 0 -33 14t-12 34q0 23 15.5 41.5t39.5 18.5q23 0 34.5 -13.5t11.5 -34.5q0 -23 -15 -41.5t-41 -18.5z
" />
    <glyph glyph-name="Upsilondieresis" unicode="&#x3ab;" horiz-adv-x="512" 
d="M160 0l56 287l-117 413h92l85 -331l209 331h100l-280 -413l-56 -287h-89zM479 780q-23 0 -34.5 14t-11.5 34q0 23 15.5 41.5t40.5 18.5q21 0 33 -13.5t12 -34.5q0 -23 -15.5 -41.5t-39.5 -18.5zM277 780q-21 0 -33 14t-12 34q0 23 15.5 41.5t39.5 18.5q23 0 34.5 -13.5
t11.5 -34.5q0 -23 -15 -41.5t-41 -18.5z" />
    <glyph glyph-name="alphatonos" unicode="&#x3ac;" horiz-adv-x="504" 
d="M174 -13q-64 0 -102.5 54t-38.5 144q0 40 8.5 86t25.5 90.5t43.5 81.5t62.5 59.5t82 22.5q51 0 83 -30t40 -87q10 31 19 57t17 47h84q-19 -56 -31.5 -94.5t-21 -67.5t-16 -56t-16.5 -60q-12 -46 -20 -82t-8 -57q0 -13 4 -20t16 -7q8 0 17.5 3.5t16.5 7.5v-68
q-14 -7 -30.5 -11.5t-36.5 -4.5q-28 0 -46.5 19t-18.5 66q-24 -45 -56.5 -69t-76.5 -24zM201 60q30 0 56.5 22.5t46 61.5t31 89t11.5 104q0 53 -18 84t-56 31q-34 0 -59 -19t-43 -49.5t-28.5 -66.5t-15.5 -70t-5 -59q0 -61 21.5 -94.5t58.5 -33.5zM282 608l83 188h102
l-111 -188h-74z" />
    <glyph glyph-name="epsilontonos" unicode="&#x3ad;" horiz-adv-x="403" 
d="M173 -13q-76 0 -115 38.5t-39 91.5q0 56 33.5 95t86.5 57q-31 17 -47.5 42.5t-16.5 55.5q0 49 27 84t72.5 54.5t102.5 19.5q41 0 73.5 -9.5t54.5 -29.5l-31 -68q-39 35 -102 35q-52 0 -81 -19t-29 -64q0 -30 20 -52t55 -22h79l-14 -66h-96q-45 0 -72.5 -25t-27.5 -72
q0 -37 23.5 -55.5t60.5 -18.5q43 0 72 10t60 29l4 -68q-28 -19 -66 -31t-87 -12zM238 608l83 188h102l-111 -188h-74z" />
    <glyph glyph-name="etatonos" unicode="&#x3ae;" horiz-adv-x="490" 
d="M259 -216l99 508q4 20 8 45t4 45q0 68 -61 68q-45 0 -82 -44.5t-51 -118.5l-56 -287h-84l74 380q2 11 3 20.5t1 16.5q0 27 -19 27q-7 0 -14.5 -3t-14.5 -8v68q13 8 27.5 12t32.5 4q31 0 49.5 -19.5t18.5 -66.5v-6q27 51 66.5 75.5t81.5 24.5q51 0 81.5 -32.5t30.5 -101.5
q0 -21 -3 -44.5t-7 -43.5l-101 -519h-84zM272 608l83 188h102l-111 -188h-74z" />
    <glyph glyph-name="iotatonos" unicode="&#x3af;" horiz-adv-x="253" 
d="M119 -10q-50 0 -72 24t-22 69q0 14 1.5 30t5.5 34l71 365h84l-69 -355q-3 -17 -5 -31t-2 -25q0 -19 7 -28.5t24 -9.5q26 0 52 16v-69q-35 -20 -75 -20zM121 608l83 188h102l-111 -188h-74z" />
    <glyph glyph-name="upsilondieresistonos" unicode="&#x3b0;" horiz-adv-x="465" 
d="M195 -13q-66 0 -99 39t-33 112q0 22 3 46.5t8 52.5l28 146q2 11 4 21t2 18q0 22 -17 22q-7 0 -15.5 -3.5t-13.5 -7.5v68q13 8 27.5 12t32.5 4q38 0 53 -22t15 -61q0 -27 -6 -62l-27 -138q-6 -29 -9.5 -54.5t-3.5 -45.5q0 -35 13.5 -54.5t46.5 -19.5q51 0 80.5 47.5
t50.5 160.5q11 62 15.5 121t6.5 123h84q0 -55 -5.5 -120t-14.5 -115q-25 -142 -82.5 -216t-143.5 -74zM245 608l80 188h90l-107 -188h-63zM422 618q-22 0 -33.5 13.5t-11.5 33.5q0 23 15.5 41t40.5 18q22 0 33.5 -13.5t11.5 -33.5q0 -22 -15 -40.5t-41 -18.5zM184 618
q-22 0 -33.5 13.5t-11.5 33.5q0 23 15.5 41t40.5 18q22 0 33.5 -13.5t11.5 -33.5q0 -22 -15 -40.5t-41 -18.5z" />
    <glyph glyph-name="alpha" unicode="&#x3b1;" horiz-adv-x="504" 
d="M174 -13q-64 0 -102.5 54t-38.5 144q0 40 8.5 86t25.5 90.5t43.5 81.5t62.5 59.5t82 22.5q51 0 83 -30t40 -87q10 31 19 57t17 47h84q-19 -56 -31.5 -94.5t-21 -67.5t-16 -56t-16.5 -60q-12 -46 -20 -82t-8 -57q0 -13 4 -20t16 -7q8 0 17.5 3.5t16.5 7.5v-68
q-14 -7 -30.5 -11.5t-36.5 -4.5q-28 0 -46.5 19t-18.5 66q-24 -45 -56.5 -69t-76.5 -24zM201 60q30 0 56.5 22.5t46 61.5t31 89t11.5 104q0 53 -18 84t-56 31q-34 0 -59 -19t-43 -49.5t-28.5 -66.5t-15.5 -70t-5 -59q0 -61 21.5 -94.5t58.5 -33.5z" />
    <glyph glyph-name="beta" unicode="&#x3b2;" horiz-adv-x="478" 
d="M-33 -216l142 731q24 125 77.5 181.5t132.5 56.5q67 0 106.5 -42.5t39.5 -105.5q0 -67 -31.5 -122.5t-89.5 -83.5q42 -19 65.5 -54.5t23.5 -90.5q0 -77 -28.5 -137.5t-76 -95t-104.5 -34.5q-39 0 -72 17t-47 57l-54 -277h-84zM220 60q55 0 91.5 54.5t36.5 147.5
q0 96 -86 96h-53l15 73h50q34 0 57.5 22.5t36 59t12.5 77.5q0 40 -15.5 65t-50.5 25q-47 0 -76.5 -42.5t-44.5 -122.5l-56 -287q-4 -18 -5.5 -33.5t-1.5 -29.5q0 -57 25.5 -81t64.5 -24z" />
    <glyph glyph-name="gamma" unicode="&#x3b3;" horiz-adv-x="440" 
d="M91 -216l43 223l-33 391q-2 28 -7 37t-17 9q-11 0 -24 -10v67q12 8 25 12t31 4q34 0 51.5 -22.5t20.5 -63.5l22 -333q56 106 104.5 208.5t79.5 205.5h88q-45 -127 -112 -254.5t-147 -256.5l-42 -217h-83z" />
    <glyph glyph-name="delta" unicode="&#x3b4;" horiz-adv-x="467" 
d="M198 -13q-78 0 -122.5 53.5t-44.5 140.5q0 65 20.5 122.5t60.5 98t98 55.5q-31 24 -48.5 52.5t-17.5 68.5q0 78 50.5 126t140.5 48q89 0 148 -52l-27 -69q-24 25 -55 38.5t-68 13.5q-53 0 -79 -25t-26 -69q0 -28 15.5 -48.5t49.5 -43.5l34 -23q54 -36 77.5 -85t23.5 -105
q0 -55 -16.5 -107.5t-47 -95.5t-72.5 -68.5t-94 -25.5zM203 61q33 0 58.5 21.5t43.5 57t27 76.5t9 80q0 56 -21 88t-63 32q-34 0 -59.5 -23t-43 -59.5t-26.5 -77.5t-9 -78q0 -54 21.5 -85.5t62.5 -31.5z" />
    <glyph glyph-name="epsilon" unicode="&#x3b5;" horiz-adv-x="403" 
d="M173 -13q-76 0 -115 38.5t-39 91.5q0 56 33.5 95t86.5 57q-31 17 -47.5 42.5t-16.5 55.5q0 49 27 84t72.5 54.5t102.5 19.5q41 0 73.5 -9.5t54.5 -29.5l-31 -68q-39 35 -102 35q-52 0 -81 -19t-29 -64q0 -30 20 -52t55 -22h79l-14 -66h-96q-45 0 -72.5 -25t-27.5 -72
q0 -37 23.5 -55.5t60.5 -18.5q43 0 72 10t60 29l4 -68q-28 -19 -66 -31t-87 -12z" />
    <glyph glyph-name="zeta" unicode="&#x3b6;" horiz-adv-x="367" 
d="M197 -209l-37 62q34 20 52 45.5t18 56.5q0 21 -13 34t-46 25l-34 13q-106 40 -106 139q0 92 77 217.5t235 288.5h-210l22 68h294l-13 -64q-164 -172 -240.5 -289t-76.5 -197q0 -34 16.5 -55t53.5 -35l37 -14q92 -35 92 -119q0 -109 -121 -176z" />
    <glyph glyph-name="eta" unicode="&#x3b7;" horiz-adv-x="490" 
d="M259 -216l99 508q4 20 8 45t4 45q0 68 -61 68q-45 0 -82 -44.5t-51 -118.5l-56 -287h-84l74 380q2 11 3 20.5t1 16.5q0 27 -19 27q-7 0 -14.5 -3t-14.5 -8v68q13 8 27.5 12t32.5 4q31 0 49.5 -19.5t18.5 -66.5v-6q27 51 66.5 75.5t81.5 24.5q51 0 81.5 -32.5t30.5 -101.5
q0 -21 -3 -44.5t-7 -43.5l-101 -519h-84z" />
    <glyph glyph-name="theta" unicode="&#x3b8;" horiz-adv-x="503" 
d="M218 -13q-56 0 -91.5 30t-52 83.5t-16.5 121.5t11.5 141.5t33.5 143t54.5 125t75.5 88.5t95 33q57 0 92.5 -30t52 -82.5t16.5 -121.5q0 -68 -11.5 -142t-33.5 -143.5t-54.5 -125t-75.5 -88.5t-96 -33zM323 680q-35 0 -64.5 -37.5t-52 -97.5t-37.5 -128h225q8 64 8 119
q0 62 -17.5 103t-61.5 41zM223 60q28 0 53 24t45 65.5t36 93t26 106.5h-226q-12 -78 -12 -144q0 -63 17 -104t61 -41z" />
    <glyph glyph-name="iota" unicode="&#x3b9;" horiz-adv-x="253" 
d="M119 -10q-50 0 -72 24t-22 69q0 14 1.5 30t5.5 34l71 365h84l-69 -355q-3 -17 -5 -31t-2 -25q0 -19 7 -28.5t24 -9.5q26 0 52 16v-69q-35 -20 -75 -20z" />
    <glyph glyph-name="kappa" unicode="&#x3ba;" horiz-adv-x="439" 
d="M9 0l100 512h84l-46 -234l222 234h100l-196 -204l108 -308h-93l-77 244l-88 -91l-30 -153h-84z" />
    <glyph glyph-name="lambda" unicode="&#x3bb;" horiz-adv-x="436" 
d="M-32 0l278 536l-3 50q-4 54 -20 74t-40 20q-14 0 -26 -4t-28 -15l-7 68q17 11 38 17.5t43 6.5q51 0 82 -36.5t38 -128.5l45 -588h-89l-18 418l-204 -418h-89z" />
    <glyph glyph-name="uni03BC" unicode="&#x3bc;" horiz-adv-x="487" 
d="M-33 -216l142 728h84l-57 -292q-4 -19 -8 -44.5t-4 -45.5q0 -68 61 -68q45 0 82 44.5t51 118.5l56 287h84l-74 -380q-2 -11 -3 -20t-1 -17q0 -13 4 -20t16 -7q13 0 28 11v-68q-13 -7 -28 -11.5t-33 -4.5q-29 0 -48 19t-19 68v10q-24 -52 -58 -78.5t-69 -26.5
q-24 0 -43.5 10t-31.5 31l-47 -244h-84z" />
    <glyph glyph-name="nu" unicode="&#x3bd;" horiz-adv-x="435" 
d="M133 0l-30 398q-2 28 -7 37t-17 9q-13 0 -26 -10v67q14 8 27 12t31 4q34 0 52 -22.5t20 -63.5l19 -324q55 103 102.5 203.5t77.5 201.5h88q-45 -127 -111 -255t-146 -257h-80z" />
    <glyph glyph-name="xi" unicode="&#x3be;" horiz-adv-x="413" 
d="M223 -209l-37 62q34 20 52 45.5t18 56.5q0 21 -13 33.5t-46 25.5l-34 13q-64 25 -99 64t-35 103q0 70 41.5 124.5t112.5 79.5q-33 19 -52 57t-19 78q0 67 29 116.5t79 76.5t113 27q82 0 133 -43l-31 -71q-24 20 -48 29.5t-54 9.5q-60 0 -97 -34t-37 -105q0 -26 9 -50.5
t27 -40.5t43 -16h90l-15 -75h-96q-38 0 -69.5 -19.5t-50 -53t-18.5 -75.5q0 -49 25.5 -71.5t68.5 -37.5l39 -14q47 -17 69.5 -47.5t22.5 -71.5q0 -109 -121 -176z" />
    <glyph glyph-name="omicron" unicode="&#x3bf;" horiz-adv-x="480" 
d="M202 -13q-77 0 -122.5 56t-45.5 150q0 52 14.5 110t44.5 108.5t76 82t109 31.5q77 0 122.5 -55.5t45.5 -150.5q0 -52 -14.5 -110t-44.5 -108.5t-76 -82t-109 -31.5zM207 60q40 0 68.5 26.5t47 67.5t27.5 86t9 83q0 62 -22 95.5t-64 33.5q-40 0 -68.5 -26.5t-47 -67.5
t-27.5 -86t-9 -83q0 -62 22 -95.5t64 -33.5z" />
    <glyph glyph-name="pi" unicode="&#x3c0;" horiz-adv-x="529" 
d="M48 0l86 438h-82l25 74h466l-14 -74h-81l-59 -306q-2 -11 -3 -20t-1 -17q0 -13 4 -20t16 -7q14 0 28 11v-68q-13 -7 -28 -11.5t-33 -4.5q-34 0 -54 20.5t-20 62.5q0 15 2.5 30t5.5 30l58 300h-146l-86 -438h-84z" />
    <glyph glyph-name="rho" unicode="&#x3c1;" horiz-adv-x="494" 
d="M-36 -216l89 460q26 134 86.5 207.5t157.5 73.5q75 0 119 -55.5t44 -150.5q0 -52 -14.5 -110t-43.5 -108.5t-74 -82t-107 -31.5q-44 0 -74 23t-42 64l-57 -290h-84zM223 60q40 0 68.5 26.5t46.5 67.5t26.5 86t8.5 83q0 62 -20.5 95.5t-63.5 33.5q-40 0 -68.5 -26.5
t-46.5 -67.5t-26.5 -86t-8.5 -83q0 -62 20.5 -95.5t63.5 -33.5z" />
    <glyph glyph-name="sigma1" unicode="&#x3c2;" horiz-adv-x="406" 
d="M186 -177l-36 62q31 18 53 39.5t22 56.5q0 21 -11 33t-31 20l-29 11q-58 21 -87 67t-29 107q0 89 33.5 158t90.5 108.5t128 39.5q41 0 78 -11t62 -37l-33 -71q-28 27 -53.5 36.5t-58.5 9.5q-44 0 -80.5 -30t-58 -80.5t-21.5 -112.5q0 -47 22 -72.5t62 -39.5l27 -10
q39 -14 60 -39t21 -68q0 -49 -36.5 -97.5t-94.5 -79.5z" />
    <glyph glyph-name="sigma" unicode="&#x3c3;" horiz-adv-x="494" 
d="M199 -13q-73 0 -119 56t-46 150q0 89 31 161t89 115t139 43h231l-26 -74h-117q56 -73 56 -175q0 -50 -15.5 -99t-45.5 -89t-74.5 -64t-102.5 -24zM209 60q39 0 66.5 20.5t45 53t26 70.5t8.5 73q0 43 -9.5 86.5t-27.5 74.5h-36q-41 0 -71.5 -22t-50.5 -59t-29.5 -80.5
t-9.5 -87.5q0 -62 25 -95.5t63 -33.5z" />
    <glyph glyph-name="tau" unicode="&#x3c4;" horiz-adv-x="396" 
d="M206 -10q-50 0 -72 24t-22 69q0 14 1.5 30t5.5 34l56 291h-127l26 74h339l-14 -74h-140l-54 -281q-3 -17 -5 -31t-2 -25q0 -19 7 -28.5t24 -9.5q18 0 31 4t26 12v-69q-35 -20 -80 -20z" />
    <glyph glyph-name="upsilon" unicode="&#x3c5;" horiz-adv-x="465" 
d="M195 -13q-66 0 -99 39t-33 112q0 22 3 46.5t8 52.5l28 146q2 11 4 21t2 18q0 22 -17 22q-7 0 -15.5 -3.5t-13.5 -7.5v68q13 8 27.5 12t32.5 4q38 0 53 -22t15 -61q0 -27 -6 -62l-27 -138q-6 -29 -9.5 -54.5t-3.5 -45.5q0 -35 13.5 -54.5t46.5 -19.5q51 0 80.5 47.5
t50.5 160.5q11 62 15.5 121t6.5 123h84q0 -55 -5.5 -120t-14.5 -115q-25 -142 -82.5 -216t-143.5 -74z" />
    <glyph glyph-name="phi" unicode="&#x3c6;" horiz-adv-x="608" 
d="M171 -216l40 211q-80 17 -127 71.5t-47 144.5q0 89 34 160t96 112.5t148 41.5l34 175h84l-36 -182q81 -17 127.5 -72t46.5 -145q0 -88 -34 -159t-96.5 -113t-146.5 -42l-39 -203h-84zM124 205q0 -59 28 -92.5t77 -45.5l75 385q-62 -4 -101.5 -38.5t-59 -89.5t-19.5 -119z
M484 305q0 60 -27.5 94t-76.5 46l-75 -385q61 4 100.5 38.5t59 89t19.5 117.5z" />
    <glyph glyph-name="chi" unicode="&#x3c7;" horiz-adv-x="432" 
d="M272 -229q-36 0 -51.5 18.5t-22.5 67.5l-29 203l-167 -276h-83l232 382l-34 232q-4 29 -10.5 37.5t-17.5 8.5q-13 0 -26 -10v67q14 8 27 12t31 4q36 0 51.5 -18t22.5 -68l24 -183l155 264h83l-221 -364l38 -258q5 -29 12 -37.5t18 -8.5q13 0 26 10v-67
q-13 -7 -26.5 -11.5t-31.5 -4.5z" />
    <glyph glyph-name="psi" unicode="&#x3c8;" horiz-adv-x="577" 
d="M155 -216l40 208q-76 12 -117.5 57.5t-41.5 126.5q0 17 1.5 35t5.5 37l51 264h84l-50 -259q-4 -20 -6 -38t-2 -34q0 -48 21 -77.5t69 -38.5l123 635h84l-123 -635q69 11 104 59.5t50 128.5l50 259h84l-51 -264q-23 -120 -87 -187t-165 -73l-40 -204h-84z" />
    <glyph glyph-name="omega" unicode="&#x3c9;" horiz-adv-x="633" 
d="M150 -13q-62 0 -90 41.5t-28 99.5q0 63 18 132t47 134.5t63 117.5h84q-13 -21 -34 -60.5t-42.5 -91.5t-36 -110t-14.5 -115q0 -73 48 -73q40 0 68 60t49 168l20 101h83l-20 -101q-8 -42 -13 -78.5t-5 -65.5q0 -39 11 -61.5t38 -22.5q22 0 42 24t35.5 65t24.5 93t9 109
q0 32 -4 72.5t-16 86.5h86q18 -73 18 -155q0 -105 -26.5 -189t-71.5 -132.5t-102 -48.5q-41 0 -69 32.5t-32 94.5q-25 -62 -63.5 -94.5t-76.5 -32.5z" />
    <glyph glyph-name="iotadieresis" unicode="&#x3ca;" horiz-adv-x="253" 
d="M119 -10q-50 0 -72 24t-22 69q0 14 1.5 30t5.5 34l71 365h84l-69 -355q-3 -17 -5 -31t-2 -25q0 -19 7 -28.5t24 -9.5q26 0 52 16v-69q-35 -20 -75 -20zM263 618q-22 0 -33.5 13.5t-11.5 33.5q0 23 15.5 41t40.5 18q22 0 33.5 -13.5t11.5 -33.5q0 -22 -15 -40.5t-41 -18.5
zM92 618q-22 0 -33.5 13.5t-11.5 33.5q0 23 15.5 41t40.5 18q22 0 33.5 -13.5t11.5 -33.5q0 -22 -15 -40.5t-41 -18.5z" />
    <glyph glyph-name="upsilondieresis" unicode="&#x3cb;" horiz-adv-x="465" 
d="M195 -13q-66 0 -99 39t-33 112q0 22 3 46.5t8 52.5l28 146q2 11 4 21t2 18q0 22 -17 22q-7 0 -15.5 -3.5t-13.5 -7.5v68q13 8 27.5 12t32.5 4q38 0 53 -22t15 -61q0 -27 -6 -62l-27 -138q-6 -29 -9.5 -54.5t-3.5 -45.5q0 -35 13.5 -54.5t46.5 -19.5q51 0 80.5 47.5
t50.5 160.5q11 62 15.5 121t6.5 123h84q0 -55 -5.5 -120t-14.5 -115q-25 -142 -82.5 -216t-143.5 -74zM385 618q-22 0 -33.5 13.5t-11.5 33.5q0 23 15.5 41t40.5 18q22 0 33.5 -13.5t11.5 -33.5q0 -22 -15 -40.5t-41 -18.5zM214 618q-22 0 -33.5 13.5t-11.5 33.5
q0 23 15.5 41t40.5 18q22 0 33.5 -13.5t11.5 -33.5q0 -22 -15 -40.5t-41 -18.5z" />
    <glyph glyph-name="omicrontonos" unicode="&#x3cc;" horiz-adv-x="480" 
d="M202 -13q-77 0 -122.5 56t-45.5 150q0 52 14.5 110t44.5 108.5t76 82t109 31.5q77 0 122.5 -55.5t45.5 -150.5q0 -52 -14.5 -110t-44.5 -108.5t-76 -82t-109 -31.5zM207 60q40 0 68.5 26.5t47 67.5t27.5 86t9 83q0 62 -22 95.5t-64 33.5q-40 0 -68.5 -26.5t-47 -67.5
t-27.5 -86t-9 -83q0 -62 22 -95.5t64 -33.5zM268 608l83 188h102l-111 -188h-74z" />
    <glyph glyph-name="upsilontonos" unicode="&#x3cd;" horiz-adv-x="465" 
d="M195 -13q-66 0 -99 39t-33 112q0 22 3 46.5t8 52.5l28 146q2 11 4 21t2 18q0 22 -17 22q-7 0 -15.5 -3.5t-13.5 -7.5v68q13 8 27.5 12t32.5 4q38 0 53 -22t15 -61q0 -27 -6 -62l-27 -138q-6 -29 -9.5 -54.5t-3.5 -45.5q0 -35 13.5 -54.5t46.5 -19.5q51 0 80.5 47.5
t50.5 160.5q11 62 15.5 121t6.5 123h84q0 -55 -5.5 -120t-14.5 -115q-25 -142 -82.5 -216t-143.5 -74zM243 608l83 188h102l-111 -188h-74z" />
    <glyph glyph-name="omegatonos" unicode="&#x3ce;" horiz-adv-x="633" 
d="M150 -13q-62 0 -90 41.5t-28 99.5q0 63 18 132t47 134.5t63 117.5h84q-13 -21 -34 -60.5t-42.5 -91.5t-36 -110t-14.5 -115q0 -73 48 -73q40 0 68 60t49 168l20 101h83l-20 -101q-8 -42 -13 -78.5t-5 -65.5q0 -39 11 -61.5t38 -22.5q22 0 42 24t35.5 65t24.5 93t9 109
q0 32 -4 72.5t-16 86.5h86q18 -73 18 -155q0 -105 -26.5 -189t-71.5 -132.5t-102 -48.5q-41 0 -69 32.5t-32 94.5q-25 -62 -63.5 -94.5t-76.5 -32.5zM346 608l83 188h102l-111 -188h-74z" />
    <glyph glyph-name="kaiSymbol" unicode="&#x3d7;" horiz-adv-x="450" 
d="M9 0l100 512h84l-46 -234l222 234h100l-195 -203l76 -191q15 -38 24 -70.5t9 -65.5q0 -94 -54.5 -152.5t-150.5 -58.5q-40 0 -69 9t-59 30l21 70q23 -19 49.5 -28t63.5 -9q117 0 117 125q0 23 -8.5 54t-29.5 86l-53 136l-87 -91l-30 -153h-84z" />
    <glyph glyph-name="uni0400" unicode="&#x400;" horiz-adv-x="465" 
d="M18 0l136 700h340l-3 -79h-264l-44 -226h243l-15 -79h-243l-46 -237h282l-25 -79h-361zM364 772l-117 127h110l92 -127h-85z" />
    <glyph glyph-name="uni0401" unicode="&#x401;" horiz-adv-x="465" 
d="M18 0l136 700h340l-3 -79h-264l-44 -226h243l-15 -79h-243l-46 -237h282l-25 -79h-361zM474 780q-23 0 -34.5 14t-11.5 34q0 23 15.5 41.5t40.5 18.5q21 0 33 -13.5t12 -34.5q0 -23 -15.5 -41.5t-39.5 -18.5zM272 780q-21 0 -33 14t-12 34q0 23 15.5 41.5t39.5 18.5
q23 0 34.5 -13.5t11.5 -34.5q0 -23 -15 -41.5t-41 -18.5z" />
    <glyph glyph-name="uni0402" unicode="&#x402;" horiz-adv-x="629" 
d="M99 0l121 621h-134l16 79h448l-16 -79h-225l-45 -230q44 24 82 33.5t67 9.5q80 0 119 -48t39 -125q0 -71 -25.5 -132t-73.5 -98t-115 -37q-32 0 -54 8l23 75q16 -4 35 -4q42 0 69 29t40 72t13 86q0 50 -24 73.5t-73 23.5q-31 0 -65 -8.5t-71 -28.5l-62 -320h-89z" />
    <glyph glyph-name="uni0403" unicode="&#x403;" horiz-adv-x="415" 
d="M18 0l136 700h320l-3 -79h-243l-121 -621h-89zM270 772l132 127h116l-154 -127h-94z" />
    <glyph glyph-name="uni0404" unicode="&#x404;" horiz-adv-x="538" 
d="M290 -16q-112 0 -174 72t-62 208q0 59 14 122.5t42.5 122t71.5 105.5t102 74.5t134 27.5q86 0 152 -54l-34 -73q-30 26 -59.5 37t-65.5 11q-70 0 -120.5 -35t-82.5 -91t-47 -118h275l-15 -78h-274q-2 -25 -2 -48q0 -101 40 -152.5t116 -51.5q38 0 72.5 12t77.5 38l7 -83
q-34 -22 -78 -34t-90 -12z" />
    <glyph glyph-name="uni0405" unicode="&#x405;" horiz-adv-x="462" 
d="M176 -16q-51 0 -100.5 19t-87.5 56l36 74q32 -34 72.5 -53.5t84.5 -19.5q65 0 100.5 34.5t35.5 99.5q0 42 -23.5 72.5t-78.5 58.5q-64 32 -97 77.5t-33 111.5q0 61 27 106.5t76.5 70.5t115.5 25q47 0 91 -17.5t78 -49.5l-33 -74q-34 35 -67 50t-77 15q-53 0 -87.5 -32
t-34.5 -85q0 -45 22.5 -75t77.5 -57q65 -32 99.5 -77t34.5 -110q0 -105 -61.5 -162.5t-170.5 -57.5z" />
    <glyph glyph-name="uni0406" unicode="&#x406;" horiz-adv-x="225" 
d="M18 0l136 700h89l-136 -700h-89z" />
    <glyph glyph-name="uni0407" unicode="&#x407;" horiz-adv-x="225" 
d="M18 0l136 700h89l-136 -700h-89zM321 780q-23 0 -34.5 14t-11.5 34q0 23 15.5 41.5t40.5 18.5q21 0 33 -13.5t12 -34.5q0 -23 -15.5 -41.5t-39.5 -18.5zM119 780q-21 0 -33 14t-12 34q0 23 15.5 41.5t39.5 18.5q23 0 34.5 -13.5t11.5 -34.5q0 -23 -15 -41.5t-41 -18.5z
" />
    <glyph glyph-name="uni0408" unicode="&#x408;" horiz-adv-x="425" 
d="M124 -16q-43 0 -79.5 14t-60.5 37l26 70q26 -20 53.5 -31.5t61.5 -11.5q39 0 66 17.5t47 63.5t36 130l83 427h89l-85 -436q-16 -85 -42.5 -148t-72.5 -97.5t-122 -34.5z" />
    <glyph glyph-name="uni0409" unicode="&#x409;" horiz-adv-x="820" 
d="M14 -6q-14 0 -31 3t-22 6l26 87q12 -5 28 -5q24 0 43.5 15.5t38.5 56t40 113.5q16 54 33 125.5t33.5 150t30.5 154.5h343l-53 -274h72q86 0 134 -45.5t48 -128.5q0 -117 -70 -184.5t-192 -67.5h-163l120 621h-170q-15 -78 -36 -174.5t-47 -193.5q-26 -98 -53 -154.5
t-63 -80.5t-90 -24zM579 353h-69l-55 -280h66q80 0 124 47.5t44 134.5q0 49 -28.5 73.5t-81.5 24.5z" />
    <glyph glyph-name="uni040A" unicode="&#x40a;" horiz-adv-x="808" 
d="M18 0l136 700h89l-59 -304h234l59 304h89l-53 -274h71q86 0 134 -45.5t48 -128.5q0 -117 -70 -184.5t-192 -67.5h-163l62 317h-234l-62 -317h-89zM567 353h-68l-55 -280h65q80 0 124 47.5t44 134.5q0 49 -28.5 73.5t-81.5 24.5z" />
    <glyph glyph-name="uni040B" unicode="&#x40b;" horiz-adv-x="625" 
d="M96 0l121 621h-131l15 79h448l-15 -79h-228l-44 -224q76 37 146 37q79 0 122.5 -38t43.5 -107q0 -29 -6 -58l-45 -231h-89l43 221q6 29 6 50q0 86 -94 86q-35 0 -70 -9t-72 -29l-62 -319h-89z" />
    <glyph glyph-name="uni040C" unicode="&#x40c;" horiz-adv-x="515" 
d="M18 0l136 700h89l-59 -306h78l202 306h101l-235 -344l124 -356h-97l-103 315h-86l-61 -315h-89zM300 772l132 127h116l-154 -127h-94z" />
    <glyph glyph-name="uni040D" unicode="&#x40d;" horiz-adv-x="575" 
d="M18 0l136 700h85l-105 -538l372 538h87l-136 -700h-85l104 535l-371 -535h-87zM401 772l-117 127h110l92 -127h-85z" />
    <glyph glyph-name="uni040E" unicode="&#x40e;" horiz-adv-x="540" 
d="M134 -16q-51 0 -81 15l23 77q26 -15 56 -15q28 0 51.5 15.5t48.5 56.5l-133 567h92l97 -470l225 470h100l-300 -574q-37 -72 -80 -107t-99 -35zM528 879q-20 -70 -62 -104.5t-111 -34.5q-119 0 -119 120v9.5t1 9.5l76 10q-1 -7 -1.5 -13t-0.5 -12q0 -68 52 -68
q35 0 56.5 23.5t34.5 69.5z" />
    <glyph glyph-name="uni040F" unicode="&#x40f;" horiz-adv-x="568" 
d="M18 0l136 700h89l-120 -619h254l120 619h89l-136 -700h-175l-33 -170h-84l33 170h-173z" />
    <glyph glyph-name="uni0410" unicode="&#x410;" horiz-adv-x="543" 
d="M-39 0l350 700h93l78 -700h-90l-18 190h-225l-92 -190h-96zM185 266h182l-30 315z" />
    <glyph glyph-name="uni0411" unicode="&#x411;" horiz-adv-x="495" 
d="M18 0l136 700h340l-3 -79h-265l-41 -208h85q85 0 132.5 -44.5t47.5 -126.5q0 -112 -68 -177t-186 -65h-178zM119 73h82q77 0 118.5 45t41.5 127q0 95 -108 95h-82z" />
    <glyph glyph-name="uni0412" unicode="&#x412;" horiz-adv-x="512" 
d="M18 0l136 700h170q85 0 131.5 -41.5t46.5 -115.5q0 -69 -37.5 -117t-102.5 -64q49 -11 76.5 -44.5t27.5 -83.5q0 -108 -70 -171t-192 -63h-186zM307 627h-81l-44 -228h81q72 0 112 38.5t40 108.5q0 81 -108 81zM258 327h-90l-50 -254h91q80 0 124 42.5t44 121.5
q0 44 -30.5 67t-88.5 23z" />
    <glyph glyph-name="uni0413" unicode="&#x413;" horiz-adv-x="415" 
d="M18 0l136 700h320l-3 -79h-243l-121 -621h-89z" />
    <glyph glyph-name="uni0414" unicode="&#x414;" horiz-adv-x="612" 
d="M-57 -170l49 249h60q43 58 71 145.5t58 205.5q9 35 19.5 80.5t21 94.5t19.5 95h356l-121 -621h76l-49 -249h-84l33 170h-392l-33 -170h-84zM265 413q-26 -113 -53 -194t-64 -140h239l105 542h-180q-8 -33 -19.5 -84.5t-27.5 -123.5z" />
    <glyph glyph-name="uni0415" unicode="&#x415;" horiz-adv-x="465" 
d="M18 0l136 700h340l-3 -79h-264l-44 -226h243l-15 -79h-243l-46 -237h282l-25 -79h-361z" />
    <glyph glyph-name="uni0416" unicode="&#x416;" horiz-adv-x="793" 
d="M-39 0l265 375l-104 325h91l92 -306h74l59 306h89l-59 -306h72l201 306h102l-235 -346l124 -354h-98l-104 315h-78l-61 -315h-89l61 315h-76l-216 -315h-110z" />
    <glyph glyph-name="uni0417" unicode="&#x417;" horiz-adv-x="449" 
d="M157 -16q-49 0 -92.5 14.5t-78.5 44.5l31 70q26 -25 63 -39t80 -14q74 0 113 47.5t39 117.5q0 45 -23.5 73.5t-67.5 28.5h-100l14 73h96q41 0 70.5 20t45 53t15.5 72q0 44 -25.5 69.5t-76.5 25.5q-36 0 -72 -11t-68 -31l-2 75q37 20 74 31.5t84 11.5q84 0 129 -44.5
t45 -114.5q0 -67 -34.5 -119t-91.5 -75q37 -21 57 -60t20 -85q0 -68 -31 -121t-86 -83t-127 -30z" />
    <glyph glyph-name="uni0418" unicode="&#x418;" horiz-adv-x="575" 
d="M18 0l136 700h85l-105 -538l372 538h87l-136 -700h-85l104 535l-371 -535h-87z" />
    <glyph glyph-name="uni0419" unicode="&#x419;" horiz-adv-x="575" 
d="M18 0l136 700h85l-105 -538l372 538h87l-136 -700h-85l104 535l-371 -535h-87zM549 879q-20 -70 -62 -104.5t-111 -34.5q-119 0 -119 120v9.5t1 9.5l76 10q-1 -7 -1.5 -13t-0.5 -12q0 -68 52 -68q35 0 56.5 23.5t34.5 69.5z" />
    <glyph glyph-name="uni041A" unicode="&#x41a;" horiz-adv-x="515" 
d="M18 0l136 700h89l-59 -306h78l202 306h101l-235 -344l124 -356h-97l-103 315h-86l-61 -315h-89z" />
    <glyph glyph-name="uni041B" unicode="&#x41b;" horiz-adv-x="580" 
d="M14 -6q-14 0 -31 3t-22 6l26 87q12 -5 28 -5q24 0 43.5 15.5t38.5 56t40 113.5q16 54 33 125.5t33.5 150t30.5 154.5h364l-136 -700h-89l121 621h-191q-15 -78 -36 -174.5t-47 -193.5q-26 -98 -53 -154.5t-63 -80.5t-90 -24z" />
    <glyph glyph-name="uni041C" unicode="&#x41c;" horiz-adv-x="681" 
d="M18 0l136 700h110l69 -477l256 477h110l-136 -700h-83l107 554l-236 -436h-75l-66 441l-109 -559h-83z" />
    <glyph glyph-name="uni041D" unicode="&#x41d;" horiz-adv-x="572" 
d="M18 0l136 700h89l-59 -305h258l59 305h89l-136 -700h-89l61 316h-258l-61 -316h-89z" />
    <glyph glyph-name="uni041E" unicode="&#x41e;" horiz-adv-x="632" 
d="M284 -16q-70 0 -121.5 34.5t-80 97.5t-28.5 149q0 56 12.5 118.5t38.5 121.5t65.5 106.5t92.5 76t121 28.5q70 0 121.5 -34.5t80 -97.5t28.5 -149q0 -56 -12.5 -118.5t-38.5 -121.5t-65.5 -106.5t-92.5 -76t-121 -28.5zM289 63q51 0 89.5 26t66 68.5t44 93t24.5 100.5
t8 89q0 94 -37 145.5t-105 51.5q-51 0 -89.5 -26t-66 -68.5t-44 -93t-24.5 -100.5t-8 -89q0 -94 37 -145.5t105 -51.5z" />
    <glyph glyph-name="uni041F" unicode="&#x41f;" horiz-adv-x="565" 
d="M18 0l136 700h429l-136 -700h-89l121 621h-251l-121 -621h-89z" />
    <glyph glyph-name="uni0420" unicode="&#x420;" horiz-adv-x="480" 
d="M18 0l137 700h164q80 0 125.5 -46.5t45.5 -132.5q0 -118 -67 -187t-183 -69h-82l-52 -265h-88zM302 626h-74l-56 -287h73q74 0 115 48.5t41 136.5q0 102 -99 102z" />
    <glyph glyph-name="uni0421" unicode="&#x421;" horiz-adv-x="540" 
d="M299 -16q-118 0 -181.5 72t-63.5 208q0 59 14 122.5t42.5 122t71.5 105.5t102 74.5t133 27.5q89 0 155 -54l-34 -73q-30 26 -59.5 37t-65.5 11q-57 0 -100.5 -23.5t-75 -63t-51.5 -88t-29.5 -99.5t-9.5 -96q0 -204 165 -204q67 0 141 50l7 -83q-71 -46 -161 -46z" />
    <glyph glyph-name="uni0422" unicode="&#x422;" horiz-adv-x="471" 
d="M141 0l121 621h-176l15 79h441l-15 -79h-176l-121 -621h-89z" />
    <glyph glyph-name="uni0423" unicode="&#x423;" horiz-adv-x="540" 
d="M134 -16q-51 0 -81 15l23 77q26 -15 56 -15q28 0 51.5 15.5t48.5 56.5l-133 567h92l97 -470l225 470h100l-300 -574q-37 -72 -80 -107t-99 -35z" />
    <glyph glyph-name="uni0424" unicode="&#x424;" horiz-adv-x="655" 
d="M235 0l13 65q-90 19 -139 82t-49 162q0 101 37.5 176.5t105.5 118t159 44.5l13 68h85l-15 -75q90 -19 139 -82t49 -162q0 -100 -37.5 -175.5t-105.5 -118.5t-159 -45l-11 -58h-85zM153 306q0 -138 112 -168l84 438q-94 -5 -145 -74t-51 -196zM540 400q0 137 -111 168
l-85 -437q90 6 143 78t53 191z" />
    <glyph glyph-name="uni0425" unicode="&#x425;" horiz-adv-x="522" 
d="M-39 0l273 368l-121 332h94l88 -264l185 264h101l-252 -342l132 -358h-94l-99 291l-206 -291h-101z" />
    <glyph glyph-name="uni0426" unicode="&#x426;" horiz-adv-x="592" 
d="M18 0l136 700h89l-121 -621h245l121 621h89l-121 -621h76l-49 -249h-84l33 170h-414z" />
    <glyph glyph-name="uni0427" unicode="&#x427;" horiz-adv-x="546" 
d="M339 0l55 284q-77 -39 -149 -39q-79 0 -122.5 38t-43.5 107q0 30 6 58l49 252h89l-47 -242q-6 -28 -6 -50q0 -86 94 -86q35 0 71.5 9.5t73.5 30.5l66 338h89l-136 -700h-89z" />
    <glyph glyph-name="uni0428" unicode="&#x428;" horiz-adv-x="771" 
d="M18 0l136 700h89l-121 -621h184l121 621h89l-121 -621h184l121 621h89l-136 -700h-635z" />
    <glyph glyph-name="uni0429" unicode="&#x429;" horiz-adv-x="804" 
d="M18 0l136 700h89l-121 -621h184l121 621h89l-121 -621h184l121 621h89l-121 -621h76l-49 -249h-84l33 170h-626z" />
    <glyph glyph-name="uni042A" unicode="&#x42a;" horiz-adv-x="605" 
d="M120 0l121 621h-159l23 79h240l-50 -256h86q86 0 134 -47.5t48 -134.5q0 -121 -70 -191.5t-192 -70.5h-181zM223 73h83q80 0 124 50.5t44 141.5q0 53 -28.5 79.5t-81.5 26.5h-83z" />
    <glyph glyph-name="uni042B" unicode="&#x42b;" horiz-adv-x="696" 
d="M18 0l136 700h89l-50 -256h86q86 0 134 -47.5t48 -134.5q0 -121 -70 -191.5t-192 -70.5h-181zM489 0l136 700h89l-136 -700h-89zM121 73h83q80 0 124 50.5t44 141.5q0 53 -28.5 79.5t-81.5 26.5h-83z" />
    <glyph glyph-name="uni042C" unicode="&#x42c;" horiz-adv-x="503" 
d="M18 0l136 700h89l-50 -256h86q86 0 134 -47.5t48 -134.5q0 -121 -70 -191.5t-192 -70.5h-181zM121 73h83q80 0 124 50.5t44 141.5q0 53 -28.5 79.5t-81.5 26.5h-83z" />
    <glyph glyph-name="uni042D" unicode="&#x42d;" horiz-adv-x="530" 
d="M165 -16q-47 0 -93.5 14.5t-77.5 42.5l32 73q28 -26 66 -38.5t76 -12.5q64 0 112 34.5t80 92t47 125.5h-274l15 78h272q2 27 2 54q0 100 -36.5 144.5t-104.5 44.5q-37 0 -77.5 -12t-82.5 -37l-4 77q39 26 85.5 39t92.5 13q65 0 114 -27.5t76.5 -86.5t27.5 -154
q0 -86 -22.5 -169t-66 -149.5t-108.5 -106t-151 -39.5z" />
    <glyph glyph-name="uni042E" unicode="&#x42e;" horiz-adv-x="816" 
d="M18 0l136 700h89l-59 -305h77q13 60 39 117.5t64.5 103.5t90 73t116.5 27q69 0 120 -34.5t79 -97.5t28 -149q0 -56 -12.5 -118.5t-38 -121.5t-64 -106.5t-91 -76t-119.5 -28.5q-69 0 -120 34.5t-79 97.5t-28 149q0 25 2 51h-80l-61 -316h-89zM478 63q50 0 88 26
t64.5 68.5t43 93t24 100.5t7.5 89q0 94 -36 145.5t-103 51.5q-50 0 -88 -26t-64.5 -68.5t-43 -93t-24 -100.5t-7.5 -89q0 -94 36 -145.5t103 -51.5z" />
    <glyph glyph-name="uni042F" unicode="&#x42f;" horiz-adv-x="518" 
d="M-17 0l202 305q-34 21 -53.5 61t-19.5 90q0 73 29.5 128t83.5 85.5t129 30.5h182l-136 -700h-88l54 280h-94h-7l-179 -280h-103zM297 354h84l53 272h-86q-48 0 -81 -23.5t-49.5 -62t-16.5 -82.5q0 -104 96 -104z" />
    <glyph glyph-name="uni0430" unicode="&#x430;" horiz-adv-x="440" 
d="M137 -13q-57 0 -90.5 36t-33.5 96q0 95 67.5 146t194.5 53l40 1q3 14 4.5 26t1.5 25q0 84 -92 84q-66 0 -125 -49l-8 73q29 23 67 35t79 12q76 0 117.5 -39t41.5 -108q0 -38 -8 -81l-58 -297h-75l12 73q-47 -86 -135 -86zM96 124q0 -32 18 -50t49 -18q51 0 84.5 43
t47.5 116l8 43l-28 -1q-179 -3 -179 -133z" />
    <glyph glyph-name="uni0431" unicode="&#x431;" horiz-adv-x="476" 
d="M199 -13q-73 0 -114 52t-41 155q0 37 4 79.5t15 91.5q25 109 60.5 181t83.5 113.5t112 58.5q20 6 50.5 12t63.5 12.5t61 10.5l-4 -82q-50 -7 -89 -14t-65 -14q-43 -12 -77.5 -38.5t-61.5 -78.5t-49 -138q27 46 67 79t97 33q59 0 94.5 -44.5t35.5 -129.5
q0 -65 -16.5 -125.5t-47.5 -109t-76.5 -76.5t-102.5 -28zM208 60q40 0 73.5 34.5t53.5 90.5t20 122q0 58 -20.5 89t-58.5 31q-41 0 -75.5 -34t-55 -89.5t-20.5 -121.5q0 -60 21.5 -91t61.5 -31z" />
    <glyph glyph-name="uni0432" unicode="&#x432;" horiz-adv-x="431" 
d="M9 0l100 512h150q74 0 114.5 -32t40.5 -91q0 -47 -30 -81t-83 -47q38 -9 59.5 -33t21.5 -59q0 -79 -57 -124t-155 -45h-161zM149 297h66q56 0 86.5 24t30.5 70q0 53 -88 53h-66zM104 68h70q59 0 91.5 27t32.5 76q0 58 -92 58h-70z" />
    <glyph glyph-name="uni0433" unicode="&#x433;" horiz-adv-x="336" 
d="M9 0l100 512h261l-3 -68h-187l-87 -444h-84z" />
    <glyph glyph-name="uni0434" unicode="&#x434;" horiz-adv-x="485" 
d="M-65 -142l41 210h48q37 54 60 117t44 149q13 52 23 101t15 77h292l-87 -444h66l-41 -210h-78l28 142h-305l-28 -142h-78zM195 296q-16 -61 -36 -120t-51 -108h180l72 376h-130q-4 -22 -13 -60.5t-22 -87.5z" />
    <glyph glyph-name="uni0435" unicode="&#x435;" horiz-adv-x="444" 
d="M223 -13q-92 0 -141 53.5t-49 151.5q0 51 14 108.5t43.5 108.5t74.5 83.5t106 32.5q70 0 108 -47t38 -133q0 -22 -3.5 -53.5t-9.5 -60.5h-288q-2 -20 -2 -36q0 -137 118 -137q55 0 118 43l6 -75q-59 -39 -133 -39zM264 456q-37 0 -64 -24t-44.5 -61t-27.5 -76h207
q4 30 4 54q0 107 -75 107z" />
    <glyph glyph-name="uni0436" unicode="&#x436;" horiz-adv-x="634" 
d="M-42 0l193 275l-77 237h82l66 -217h62l42 217h82l-42 -217h61l140 217h93l-173 -257l89 -255h-85l-76 227h-63l-44 -227h-82l44 227h-61l-155 -227h-96z" />
    <glyph glyph-name="uni0437" unicode="&#x437;" horiz-adv-x="386" 
d="M135 -13q-46 0 -85.5 14.5t-62.5 36.5l32 64q15 -16 45.5 -30.5t72.5 -14.5q55 0 85 29t30 75q0 31 -15.5 49t-48.5 18h-78l14 70h68q41 0 65.5 26.5t24.5 63.5q0 67 -76 67q-34 0 -66 -12.5t-61 -32.5l-6 70q36 24 73 35t75 11q65 0 105.5 -33.5t40.5 -92.5
q0 -49 -26.5 -83.5t-64.5 -51.5q25 -13 41.5 -37.5t16.5 -66.5q0 -51 -25 -90t-70 -61.5t-104 -22.5z" />
    <glyph glyph-name="uni0438" unicode="&#x438;" horiz-adv-x="471" 
d="M9 0l100 512h82l-71 -361l262 361h80l-100 -512h-82l70 361l-261 -361h-80z" />
    <glyph glyph-name="uni0439" unicode="&#x439;" horiz-adv-x="471" 
d="M9 0l100 512h82l-71 -361l262 361h80l-100 -512h-82l70 361l-261 -361h-80zM296 586q-55 0 -85 27.5t-30 88.5q0 17 2 31l73 10q-3 -21 -3 -37q0 -34 12.5 -49.5t36.5 -15.5q29 0 51 23.5t35 78.5l70 -10q-22 -79 -61.5 -113t-100.5 -34z" />
    <glyph glyph-name="uni043A" unicode="&#x43a;" horiz-adv-x="428" 
d="M9 0l100 512h84l-42 -217h60l152 217h91l-183 -254l99 -258h-87l-83 227h-63l-44 -227h-84z" />
    <glyph glyph-name="uni043B" unicode="&#x43b;" horiz-adv-x="471" 
d="M5 -4q-26 0 -40 7l21 73q9 -4 22 -4q19 0 32.5 12t28.5 51t36 119q10 37 25 105t30 153h301l-100 -512h-84l86 444h-139q-10 -52 -22 -104t-23 -94q-26 -101 -49.5 -155t-52.5 -74.5t-72 -20.5z" />
    <glyph glyph-name="uni043C" unicode="&#x43c;" horiz-adv-x="581" 
d="M9 0l100 512h103l61 -340l196 340h103l-100 -512h-78l75 385l-181 -307h-65l-60 314l-76 -392h-78z" />
    <glyph glyph-name="uni043D" unicode="&#x43d;" horiz-adv-x="465" 
d="M9 0l100 512h84l-42 -212h179l42 212h84l-100 -512h-84l45 231h-179l-45 -231h-84z" />
    <glyph glyph-name="uni043E" unicode="&#x43e;" horiz-adv-x="480" 
d="M202 -13q-77 0 -122.5 56t-45.5 150q0 52 14.5 110t44.5 108.5t76 82t109 31.5q77 0 122.5 -55.5t45.5 -150.5q0 -52 -14.5 -110t-44.5 -108.5t-76 -82t-109 -31.5zM207 60q40 0 68.5 26.5t47 67.5t27.5 86t9 83q0 62 -22 95.5t-64 33.5q-40 0 -68.5 -26.5t-47 -67.5
t-27.5 -86t-9 -83q0 -62 22 -95.5t64 -33.5z" />
    <glyph glyph-name="uni05E4" unicode="&#x43f;" horiz-adv-x="462" 
d="M9 0l100 512h344l-100 -512h-84l87 444h-176l-87 -444h-84z" />
    <glyph glyph-name="uni0440" unicode="&#x440;" horiz-adv-x="491" 
d="M-33 -216l142 728h75l-13 -83q23 42 59 69t87 27q65 0 103 -54t38 -144q0 -40 -8.5 -86t-26 -91t-44 -82t-63.5 -59t-84 -22q-97 0 -122 99l-59 -302h-84zM219 60q34 0 59 19t43 49.5t28.5 66.5t15.5 70t5 59q0 62 -22 95t-63 33q-43 0 -72.5 -28t-47.5 -70.5t-26 -87
t-8 -76.5q0 -130 88 -130z" />
    <glyph glyph-name="uni0441" unicode="&#x441;" horiz-adv-x="417" 
d="M226 -13q-93 0 -142.5 54.5t-49.5 154.5q0 54 16.5 111.5t50 107t85 80t121.5 30.5q67 0 116 -38l-31 -66q-39 31 -88 31t-84 -24.5t-57 -63.5t-32 -82.5t-10 -82.5q0 -139 114 -139q45 0 97 33l6 -75q-50 -31 -112 -31z" />
    <glyph glyph-name="uni0442" unicode="&#x442;" horiz-adv-x="373" 
d="M95 0l86 444h-133l14 68h350l-14 -68h-133l-86 -444h-84z" />
    <glyph glyph-name="uni0443" unicode="&#x443;" horiz-adv-x="425" 
d="M4 -229q-40 0 -68 16l19 69q17 -12 45 -12q32 0 55.5 23.5t54.5 88.5l19 39l-71 517h88l42 -415l189 415h90l-285 -580q-30 -61 -56 -96.5t-55 -50t-67 -14.5z" />
    <glyph glyph-name="uni0444" unicode="&#x444;" horiz-adv-x="608" 
d="M171 -216l40 211q-80 17 -127 71.5t-47 144.5q0 89 34 160t96 112.5t148 41.5l34 175h84l-36 -182q81 -17 127.5 -72t46.5 -145q0 -88 -34 -159t-96.5 -113t-146.5 -42l-39 -203h-84zM124 205q0 -59 28 -92.5t77 -45.5l75 385q-62 -4 -101.5 -38.5t-59 -89.5t-19.5 -119z
M484 305q0 60 -27.5 94t-76.5 46l-75 -385q61 4 100.5 38.5t59 89t19.5 117.5z" />
    <glyph glyph-name="uni0445" unicode="&#x445;" horiz-adv-x="433" 
d="M-32 0l206 264l-101 248h87l68 -185l135 185h96l-199 -256l105 -256h-87l-71 195l-143 -195h-96z" />
    <glyph glyph-name="uni0446" unicode="&#x446;" horiz-adv-x="477" 
d="M9 0l100 512h84l-87 -444h173l87 444h84l-87 -444h66l-41 -210h-78l28 142h-329z" />
    <glyph glyph-name="uni0447" unicode="&#x447;" horiz-adv-x="437" 
d="M244 0l40 205q-59 -33 -116 -33q-62 0 -96 30t-34 85q0 10 1 20t3 21l36 184h84l-34 -174q-2 -11 -3.5 -20t-1.5 -16q0 -62 66 -62q53 0 109 37l46 235h84l-100 -512h-84z" />
    <glyph glyph-name="uni0448" unicode="&#x448;" horiz-adv-x="650" 
d="M9 0l100 512h84l-87 -444h140l87 444h84l-87 -444h140l87 444h84l-100 -512h-532z" />
    <glyph glyph-name="uni0449" unicode="&#x449;" horiz-adv-x="668" 
d="M9 0l100 512h84l-87 -444h140l87 444h84l-87 -444h140l87 444h84l-87 -444h66l-41 -210h-78l28 142h-520z" />
    <glyph glyph-name="uni044A" unicode="&#x44a;" horiz-adv-x="475" 
d="M69 0l87 444h-109l22 68h184l-33 -170h66q71 0 111.5 -38t40.5 -107q0 -91 -57 -144t-155 -53h-157zM166 67h64q59 0 91.5 35t32.5 98q0 74 -84 74h-64z" />
    <glyph glyph-name="uni044B" unicode="&#x44b;" horiz-adv-x="596" 
d="M9 0l100 512h84l-33 -170h66q71 0 111.5 -38t40.5 -107q0 -91 -57 -144t-155 -53h-157zM403 0l100 512h84l-100 -512h-84zM106 67h64q59 0 91.5 35t32.5 98q0 74 -84 74h-64z" />
    <glyph glyph-name="uni044C" unicode="&#x44c;" horiz-adv-x="415" 
d="M9 0l100 512h84l-33 -170h66q71 0 111.5 -38t40.5 -107q0 -91 -57 -144t-155 -53h-157zM106 67h64q59 0 91.5 35t32.5 98q0 74 -84 74h-64z" />
    <glyph glyph-name="uni044D" unicode="&#x44d;" horiz-adv-x="410" 
d="M124 -13q-87 0 -138 46l31 70q21 -22 48.5 -32.5t61.5 -10.5q46 0 77.5 23t51.5 61.5t29 85.5h-197l13 66h191q1 13 1 27q0 129 -96 129q-29 0 -57 -8t-63 -28l-5 71q65 38 137 38q80 0 123.5 -51.5t43.5 -145.5q0 -66 -15.5 -127t-47 -109.5t-79 -76.5t-110.5 -28z" />
    <glyph glyph-name="uni044E" unicode="&#x44e;" horiz-adv-x="647" 
d="M9 0l100 512h84l-42 -212h64q14 57 44 108.5t76.5 84t109.5 32.5q77 0 122.5 -55.5t45.5 -150.5q0 -52 -14.5 -110t-44.5 -108.5t-76 -82t-109 -31.5q-77 0 -122.5 56t-45.5 150q0 19 2 38h-65l-45 -231h-84zM374 60q40 0 68.5 26.5t47 67.5t27.5 86t9 83q0 62 -22 95.5
t-64 33.5q-40 0 -68.5 -26.5t-47 -67.5t-27.5 -86t-9 -83q0 -62 22 -95.5t64 -33.5z" />
    <glyph glyph-name="uni044F" unicode="&#x44f;" horiz-adv-x="425" 
d="M-15 0l133 200q-26 17 -41.5 47.5t-15.5 74.5q0 86 55 138t150 52h149l-99 -512h-83l35 179h-73l-116 -179h-94zM218 247h63l39 197h-63q-56 0 -84 -33.5t-28 -85.5q0 -36 18 -57t55 -21z" />
    <glyph glyph-name="uni0450" unicode="&#x450;" horiz-adv-x="444" 
d="M223 -13q-92 0 -141 53.5t-49 151.5q0 51 14 108.5t43.5 108.5t74.5 83.5t106 32.5q70 0 108 -47t38 -133q0 -22 -3.5 -53.5t-9.5 -60.5h-288q-2 -20 -2 -36q0 -137 118 -137q55 0 118 43l6 -75q-59 -39 -133 -39zM264 456q-37 0 -64 -24t-44.5 -61t-27.5 -76h207
q4 30 4 54q0 107 -75 107zM298 594l-81 153h91l60 -153h-70z" />
    <glyph glyph-name="uni0451" unicode="&#x451;" horiz-adv-x="444" 
d="M223 -13q-92 0 -141 53.5t-49 151.5q0 51 14 108.5t43.5 108.5t74.5 83.5t106 32.5q70 0 108 -47t38 -133q0 -22 -3.5 -53.5t-9.5 -60.5h-288q-2 -20 -2 -36q0 -137 118 -137q55 0 118 43l6 -75q-59 -39 -133 -39zM264 456q-37 0 -64 -24t-44.5 -61t-27.5 -76h207
q4 30 4 54q0 107 -75 107zM401 618q-22 0 -33.5 13.5t-11.5 33.5q0 23 15.5 41t40.5 18q22 0 33.5 -13.5t11.5 -33.5q0 -22 -15 -40.5t-41 -18.5zM230 618q-22 0 -33.5 13.5t-11.5 33.5q0 23 15.5 41t40.5 18q22 0 33.5 -13.5t11.5 -33.5q0 -22 -15 -40.5t-41 -18.5z" />
    <glyph glyph-name="uni0452" unicode="&#x452;" horiz-adv-x="455" 
d="M188 -136q-16 0 -30 2.5t-24 6.5l23 72q7 -2 16 -4t19 -2q40 0 69.5 53t52.5 172q15 76 20.5 115.5t5.5 67.5q0 37 -14 64t-47 27q-41 0 -77 -44.5t-50 -118.5l-54 -275h-84l115 589h-53l12 64h53l17 87h84l-17 -87h140l-12 -64h-140l-31 -158q26 42 61.5 62t70.5 20
q50 0 79 -40.5t29 -111.5q0 -39 -4.5 -80t-12.5 -85q-25 -130 -56.5 -202t-71 -101t-89.5 -29z" />
    <glyph glyph-name="uni0453" unicode="&#x453;" horiz-adv-x="336" 
d="M9 0l100 512h261l-3 -68h-187l-87 -444h-84zM199 594l123 153h104l-144 -153h-83z" />
    <glyph glyph-name="uni0454" unicode="&#x454;" horiz-adv-x="411" 
d="M226 -13q-93 0 -142.5 54.5t-49.5 154.5q0 54 16.5 111.5t50 107t85 80t121.5 30.5q67 0 116 -38l-31 -66q-39 31 -88 31q-47 0 -81 -22t-56 -58t-34 -76h207l-13 -66h-206q-2 -16 -2 -31q0 -139 116 -139q45 0 97 33l6 -75q-50 -31 -112 -31z" />
    <glyph glyph-name="uni0455" unicode="&#x455;" horiz-adv-x="362" 
d="M129 -13q-88 0 -148 57l31 65q55 -52 121 -52q41 0 65.5 22.5t24.5 62.5q0 29 -17.5 49t-59.5 39q-47 21 -73.5 55t-26.5 83q0 72 47.5 114.5t123.5 42.5q39 0 74 -14.5t60 -37.5l-26 -65q-50 47 -110 47q-39 0 -64 -22.5t-25 -58.5q0 -26 16.5 -45.5t58.5 -38.5
q54 -24 79 -57t25 -83q0 -75 -47.5 -119t-128.5 -44z" />
    <glyph glyph-name="uni0456" unicode="&#x456;" horiz-adv-x="202" 
d="M174 617q-22 0 -35 13t-13 35q0 29 19 50.5t46 21.5q21 0 34.5 -14t13.5 -36q0 -28 -19 -49t-46 -21zM9 0l100 512h84l-100 -512h-84z" />
    <glyph glyph-name="uni0457" unicode="&#x457;" horiz-adv-x="202" 
d="M9 0l100 512h84l-100 -512h-84zM255 618q-22 0 -33.5 13.5t-11.5 33.5q0 23 15.5 41t40.5 18q22 0 33.5 -13.5t11.5 -33.5q0 -22 -15 -40.5t-41 -18.5zM84 618q-22 0 -33.5 13.5t-11.5 33.5q0 23 15.5 41t40.5 18q22 0 33.5 -13.5t11.5 -33.5q0 -22 -15 -40.5t-41 -18.5z
" />
    <glyph glyph-name="uni0458" unicode="&#x458;" horiz-adv-x="202" 
d="M174 617q-22 0 -35 13t-13 35q0 29 19 50.5t46 21.5q21 0 34.5 -14t13.5 -36q0 -28 -19 -49t-46 -21zM-76 -229q-52 0 -84 22l22 68q29 -18 60 -18q34 0 50.5 26t25.5 74l111 569h84l-112 -575q-15 -78 -50.5 -122t-106.5 -44z" />
    <glyph glyph-name="uni0459" unicode="&#x459;" horiz-adv-x="664" 
d="M5 -4q-26 0 -40 7l21 73q9 -4 22 -4q19 0 32.5 12t28.5 51t36 119q10 37 25 105t30 153h291l-33 -170h57q71 0 111.5 -38t40.5 -107q0 -91 -57 -144t-155 -53h-148l86 444h-129q-10 -52 -22 -104t-23 -94q-26 -101 -49.5 -155t-52.5 -74.5t-72 -20.5zM459 274h-54
l-40 -207h54q59 0 91.5 35t32.5 98q0 74 -84 74z" />
    <glyph glyph-name="uni045A" unicode="&#x45a;" horiz-adv-x="664" 
d="M9 0l100 512h84l-42 -212h174l42 212h84l-33 -170h57q71 0 111.5 -38t40.5 -107q0 -91 -57 -144t-155 -53h-148l45 231h-174l-45 -231h-84zM459 274h-54l-41 -207h55q59 0 91.5 35t32.5 98q0 74 -84 74z" />
    <glyph glyph-name="uni045B" unicode="&#x45b;" horiz-adv-x="468" 
d="M14 0l114 588h-52l12 66h53l17 86h84l-17 -86h137l-12 -66h-138l-30 -158q26 43 62.5 63t73.5 20q51 0 81.5 -32.5t30.5 -101.5q0 -22 -3 -45t-7 -43l-57 -291h-84l55 280q4 20 8 45t4 45q0 68 -61 68q-45 0 -82 -44.5t-51 -118.5l-54 -275h-84z" />
    <glyph glyph-name="uni045C" unicode="&#x45c;" horiz-adv-x="428" 
d="M9 0l100 512h84l-42 -217h60l152 217h91l-183 -254l99 -258h-87l-83 227h-63l-44 -227h-84zM230 594l123 153h104l-144 -153h-83z" />
    <glyph glyph-name="uni045D" unicode="&#x45d;" horiz-adv-x="471" 
d="M9 0l100 512h82l-71 -361l262 361h80l-100 -512h-82l70 361l-261 -361h-80zM304 594l-81 153h91l60 -153h-70z" />
    <glyph glyph-name="uni045E" unicode="&#x45e;" horiz-adv-x="425" 
d="M4 -229q-40 0 -68 16l19 69q17 -12 45 -12q32 0 55.5 23.5t54.5 88.5l19 39l-71 517h88l42 -415l189 415h90l-285 -580q-30 -61 -56 -96.5t-55 -50t-67 -14.5zM279 586q-55 0 -85 27.5t-30 88.5q0 17 2 31l73 10q-3 -21 -3 -37q0 -34 12.5 -49.5t36.5 -15.5q29 0 51 23.5
t35 78.5l70 -10q-22 -79 -61.5 -113t-100.5 -34z" />
    <glyph glyph-name="uni045F" unicode="&#x45f;" horiz-adv-x="465" 
d="M9 0l100 512h84l-86 -442h178l87 442h84l-100 -512h-135l-28 -142h-78l28 142h-134z" />
    <glyph glyph-name="uni0462" unicode="&#x462;" horiz-adv-x="512" 
d="M27 0l104 537h-81l14 71h81l18 92h89l-18 -92h146l-14 -71h-146l-18 -93h86q86 0 134 -47.5t48 -134.5q0 -121 -70 -191.5t-192 -70.5h-181zM130 73h83q80 0 124 50.5t44 141.5q0 53 -28.5 79.5t-81.5 26.5h-83z" />
    <glyph glyph-name="uni0463" unicode="&#x463;" horiz-adv-x="411" 
d="M5 0l87 446h-62l13 66h62l44 228h84l-44 -228h146l-13 -66h-146l-20 -104h66q71 0 111.5 -38t40.5 -107q0 -91 -57 -144t-155 -53h-157zM102 67h64q59 0 91.5 35t32.5 98q0 74 -84 74h-64z" />
    <glyph glyph-name="uni0472" unicode="&#x472;" horiz-adv-x="632" 
d="M284 -16q-70 0 -121.5 34.5t-80 97.5t-28.5 149q0 56 12.5 118.5t38.5 121.5t65.5 106.5t92.5 76t121 28.5q70 0 121.5 -34.5t80 -97.5t28.5 -149q0 -56 -12.5 -118.5t-38.5 -121.5t-65.5 -106.5t-92.5 -76t-121 -28.5zM339 376q33 -16 50 -21.5t36 -5.5q47 0 93 37
q3 29 3 54q0 94 -37 145.5t-105 51.5q-47 0 -83.5 -22.5t-63.5 -60t-44.5 -83t-27.5 -91.5q44 27 79 27q23 0 46.5 -8t53.5 -23zM289 63q46 0 82 21.5t62.5 57.5t44.5 80.5t28 89.5q-51 -35 -95 -35q-20 0 -44 7.5t-55 23.5q-31 17 -48.5 22.5t-34.5 5.5q-38 0 -80 -27
q-2 -26 -2 -49q0 -94 37 -145.5t105 -51.5z" />
    <glyph glyph-name="uni0473" unicode="&#x473;" horiz-adv-x="480" 
d="M202 -13q-77 0 -122.5 56t-45.5 150q0 52 14.5 110t44.5 108.5t76 82t109 31.5q77 0 122.5 -55.5t45.5 -150.5q0 -52 -14.5 -110t-44.5 -108.5t-76 -82t-109 -31.5zM247 280q24 -16 36 -19.5t25 -3.5q25 0 48 17q3 26 3 49q0 62 -22 95.5t-64 33.5q-37 0 -64 -22.5
t-45.5 -59t-28.5 -76.5q12 6 23.5 9t20.5 3q28 0 68 -26zM207 60q35 0 61.5 21t45 55t29.5 73q-13 -8 -25.5 -11t-22.5 -3q-16 0 -32 6.5t-37 19.5q-19 13 -33 18t-27 5q-9 0 -20 -3.5t-23 -10.5q-2 -22 -2 -41q0 -62 22 -95.5t64 -33.5z" />
    <glyph glyph-name="uni0474" unicode="&#x474;" horiz-adv-x="583" 
d="M170 0l-73 700h95l48 -583l203 427q32 68 56.5 103t47.5 47t52 12q13 0 26 -2.5t23 -6.5l-25 -71q-7 3 -18 3q-19 0 -36 -25t-49 -91l-254 -513h-96z" />
    <glyph glyph-name="uni0475" unicode="&#x475;" horiz-adv-x="445" 
d="M117 0l-59 512h88l34 -414l137 284q32 68 60 101t72 33q26 0 40 -8l-25 -69q-8 2 -12 2q-13 0 -23.5 -14.5t-34.5 -61.5l-188 -365h-89z" />
    <glyph glyph-name="uni0490" unicode="&#x490;" horiz-adv-x="415" 
d="M18 0l136 700h250l27 140h83l-42 -219h-244l-121 -621h-89z" />
    <glyph glyph-name="uni0491" unicode="&#x491;" horiz-adv-x="337" 
d="M9 0l100 512h194l23 122h78l-36 -190h-188l-87 -444h-84z" />
    <glyph glyph-name="uni0492" unicode="&#x492;" horiz-adv-x="442" 
d="M45 0l62 317h-89l14 71h88l61 312h320l-3 -79h-243l-45 -233h151l-14 -71h-151l-62 -317h-89z" />
    <glyph glyph-name="uni0493" unicode="&#x493;" horiz-adv-x="356" 
d="M29 0l42 213h-71l12 65h71l46 234h261l-3 -68h-187l-33 -166h115l-12 -65h-115l-42 -213h-84z" />
    <glyph glyph-name="uni0496" unicode="&#x496;" horiz-adv-x="843" 
d="M-39 0l265 375l-104 325h91l92 -306h74l59 306h89l-59 -306h72l201 306h102l-235 -346l96 -275h79l-49 -249h-84l33 170h-49l-104 315h-78l-61 -315h-89l61 315h-76l-216 -315h-110z" />
    <glyph glyph-name="uni0497" unicode="&#x497;" horiz-adv-x="665" 
d="M-42 0l193 275l-77 237h82l66 -217h62l42 217h82l-42 -217h61l140 217h93l-173 -257l65 -187h65l-41 -210h-78l28 142h-35l-76 227h-63l-44 -227h-82l44 227h-61l-155 -227h-96z" />
    <glyph glyph-name="uni049A" unicode="&#x49a;" horiz-adv-x="569" 
d="M18 0l136 700h89l-59 -306h78l202 306h101l-235 -344l97 -277h82l-49 -249h-84l33 170h-52l-103 315h-86l-61 -315h-89z" />
    <glyph glyph-name="uni049B" unicode="&#x49b;" horiz-adv-x="456" 
d="M9 0l100 512h84l-42 -217h60l152 217h91l-183 -254l73 -190h64l-41 -210h-78l28 142h-34l-83 227h-63l-44 -227h-84z" />
    <glyph glyph-name="uni04A2" unicode="&#x4a2;" horiz-adv-x="605" 
d="M18 0l136 700h89l-59 -305h258l59 305h89l-121 -621h76l-49 -249h-84l33 170h-80l61 316h-258l-61 -316h-89z" />
    <glyph glyph-name="uni04A3" unicode="&#x4a3;" horiz-adv-x="483" 
d="M9 0l100 512h84l-42 -212h179l42 212h84l-87 -444h66l-41 -210h-78l28 142h-72l45 231h-179l-45 -231h-84z" />
    <glyph glyph-name="uni04AE" unicode="&#x4ae;" horiz-adv-x="512" 
d="M160 0l56 287l-117 413h92l85 -331l209 331h100l-280 -413l-56 -287h-89z" />
    <glyph glyph-name="uni04AF" unicode="&#x4af;" horiz-adv-x="427" 
d="M78 -216l48 246l-68 482h91l40 -382l189 382h91l-260 -485l-47 -243h-84z" />
    <glyph glyph-name="uni04B0" unicode="&#x4b0;" horiz-adv-x="512" 
d="M160 0l42 214h-138l14 71h138v2l-117 413h92l85 -331l209 331h100l-280 -413v-2h148l-14 -71h-148l-42 -214h-89z" />
    <glyph glyph-name="uni04B1" unicode="&#x4b1;" horiz-adv-x="427" 
d="M1 0l12 65h108l-63 447h91l40 -382l189 382h91l-239 -447h106l-12 -65h-120l-42 -216h-84l42 216h-119z" />
    <glyph glyph-name="uni04BA" unicode="&#x4ba;" horiz-adv-x="547" 
d="M18 0l136 700h89l-57 -295q75 36 145 36q79 0 122.5 -38.5t43.5 -107.5q0 -29 -6 -58l-46 -237h-89l44 227q6 29 6 50q0 87 -94 87q-34 0 -69.5 -9t-71.5 -28l-64 -327h-89z" />
    <glyph glyph-name="uni04BB" unicode="&#x4bb;" horiz-adv-x="463" 
d="M9 0l144 740h84l-58 -297q27 42 63 62t73 20q51 0 81.5 -32.5t30.5 -101.5q0 -22 -3 -45t-7 -43l-59 -303h-84l57 292q4 20 8 45t4 45q0 68 -61 68q-45 0 -82 -44.5t-51 -118.5l-56 -287h-84z" />
    <glyph glyph-name="uni04D8" unicode="&#x4d8;" horiz-adv-x="569" 
d="M245 -13q-57 0 -101.5 25t-70 78t-25.5 136q0 22 2.5 51.5t7.5 58t11 45.5h391q3 31 3 61q0 96 -38 143.5t-103 47.5q-38 0 -80 -13.5t-90 -44.5l-5 75q44 30 91 46t97 16q101 0 158.5 -71t57.5 -199q0 -87 -19 -168.5t-57 -146t-95.5 -102.5t-134.5 -38zM133 232
q0 -85 32.5 -125.5t90.5 -40.5q52 0 90.5 33t64 87t38.5 116h-310q-3 -19 -4.5 -36.5t-1.5 -33.5z" />
    <glyph glyph-name="uni04D9" unicode="&#x4d9;" horiz-adv-x="446" 
d="M173 -13q-70 0 -108 47t-38 133q0 23 3.5 54t9.5 60h288q2 19 2 36q0 68 -28.5 102.5t-81.5 34.5q-35 0 -64 -10t-62 -31l-6 71q29 19 64 30t73 11q89 0 137.5 -53.5t48.5 -151.5q0 -58 -14 -117t-43.5 -108t-74 -78.5t-106.5 -29.5zM105 163q0 -107 75 -107
q38 0 65.5 23t45.5 60t28 78h-210q-4 -30 -4 -54z" />
    <glyph glyph-name="uni04E8" unicode="&#x4e8;" horiz-adv-x="632" 
d="M284 -16q-70 0 -121.5 34.5t-80 97.5t-28.5 149q0 56 12.5 118.5t38.5 121.5t65.5 106.5t92.5 76t121 28.5q70 0 121.5 -34.5t80 -97.5t28.5 -149q0 -56 -12.5 -118.5t-38.5 -121.5t-65.5 -106.5t-92.5 -76t-121 -28.5zM379 637q-46 0 -81.5 -21t-62 -56.5t-44.5 -79
t-28 -88.5h356q2 25 2 48q0 94 -37 145.5t-105 51.5zM289 63q47 0 83 22t63 59t44.5 82t27.5 91h-357q-3 -30 -3 -57q0 -94 37 -145.5t105 -51.5z" />
    <glyph glyph-name="uni04E9" unicode="&#x4e9;" horiz-adv-x="480" 
d="M202 -13q-77 0 -122.5 56t-45.5 150q0 52 14.5 110t44.5 108.5t76 82t109 31.5q77 0 122.5 -55.5t45.5 -150.5q0 -52 -14.5 -110t-44.5 -108.5t-76 -82t-109 -31.5zM273 452q-37 0 -64.5 -23.5t-46 -61t-29.5 -78.5h224q2 18 2 34q0 62 -22 95.5t-64 33.5zM207 60
q38 0 65.5 24t46 61.5t28.5 79.5h-224q-2 -19 -2 -36q0 -62 22 -95.5t64 -33.5z" />
    <glyph glyph-name="uni0E3F" unicode="&#xe3f;" horiz-adv-x="484" 
d="M7 0l134 684h153l22 110h60l-22 -112q124 -16 124 -143q0 -70 -35 -118.5t-90 -65.5q42 -11 66 -45t24 -85q0 -67 -28 -116.5t-78 -77.5t-116 -31l-21 -110h-61l22 110h-154zM211 612l-43 -222h69l43 222h-69zM390 526q0 37 -13.5 56t-36.5 26l-42 -214q43 10 67.5 44.5
t24.5 87.5zM106 72h69l48 248h-69zM355 221q0 85 -72 97l-47 -246q56 4 87.5 43.5t31.5 105.5z" />
    <glyph glyph-name="uni1E24" unicode="&#x1e24;" horiz-adv-x="572" 
d="M18 0l136 700h89l-59 -305h258l59 305h89l-136 -700h-89l61 316h-258l-61 -316h-89zM214 -179q-24 0 -36.5 14.5t-12.5 36.5q0 23 17 43t42 20q24 0 36.5 -14t12.5 -37t-16.5 -43t-42.5 -20z" />
    <glyph glyph-name="uni1E25" unicode="&#x1e25;" horiz-adv-x="463" 
d="M9 0l144 740h84l-58 -297q27 42 63 62t73 20q51 0 81.5 -32.5t30.5 -101.5q0 -22 -3 -45t-7 -43l-59 -303h-84l57 292q4 20 8 45t4 45q0 68 -61 68q-45 0 -82 -44.5t-51 -118.5l-56 -287h-84zM160 -177q-23 0 -35.5 14t-12.5 36q0 23 16 42.5t43 19.5q23 0 35.5 -14
t12.5 -36q0 -23 -16 -42.5t-43 -19.5z" />
    <glyph glyph-name="uni1E36" unicode="&#x1e36;" horiz-adv-x="437" 
d="M18 0l136 700h89l-121 -621h270l-25 -79h-349zM184 -179q-24 0 -36.5 14.5t-12.5 36.5q0 23 17 43t42 20q24 0 36.5 -14t12.5 -37t-16.5 -43t-42.5 -20z" />
    <glyph glyph-name="uni1E37" unicode="&#x1e37;" horiz-adv-x="202" 
d="M9 0l144 740h84l-144 -740h-84zM22 -177q-23 0 -35.5 14t-12.5 36q0 23 16 42.5t43 19.5q23 0 35.5 -14t12.5 -36q0 -23 -16 -42.5t-43 -19.5z" />
    <glyph glyph-name="Wgrave" unicode="&#x1e80;" horiz-adv-x="761" 
d="M117 0l-17 700h92l1 -567l229 567h90l10 -565l220 565h91l-290 -700h-94l-7 557l-231 -557h-94zM487 772l-117 127h110l92 -127h-85z" />
    <glyph glyph-name="wgrave" unicode="&#x1e81;" horiz-adv-x="625" 
d="M88 0l-27 512h86l9 -402l163 402h85l8 -402l164 402h88l-227 -512h-90l-7 399l-162 -399h-90zM369 594l-81 153h91l60 -153h-70z" />
    <glyph glyph-name="Wacute" unicode="&#x1e82;" horiz-adv-x="761" 
d="M117 0l-17 700h92l1 -567l229 567h90l10 -565l220 565h91l-290 -700h-94l-7 557l-231 -557h-94zM422 772l132 127h116l-154 -127h-94z" />
    <glyph glyph-name="wacute" unicode="&#x1e83;" horiz-adv-x="625" 
d="M88 0l-27 512h86l9 -402l163 402h85l8 -402l164 402h88l-227 -512h-90l-7 399l-162 -399h-90zM325 594l123 153h104l-144 -153h-83z" />
    <glyph glyph-name="Wdieresis" unicode="&#x1e84;" horiz-adv-x="761" 
d="M117 0l-17 700h92l1 -567l229 567h90l10 -565l220 565h91l-290 -700h-94l-7 557l-231 -557h-94zM606 780q-23 0 -34.5 14t-11.5 34q0 23 15.5 41.5t40.5 18.5q21 0 33 -13.5t12 -34.5q0 -23 -15.5 -41.5t-39.5 -18.5zM404 780q-21 0 -33 14t-12 34q0 23 15.5 41.5
t39.5 18.5q23 0 34.5 -13.5t11.5 -34.5q0 -23 -15 -41.5t-41 -18.5z" />
    <glyph glyph-name="wdieresis" unicode="&#x1e85;" horiz-adv-x="625" 
d="M88 0l-27 512h86l9 -402l163 402h85l8 -402l164 402h88l-227 -512h-90l-7 399l-162 -399h-90zM478 618q-22 0 -33.5 13.5t-11.5 33.5q0 23 15.5 41t40.5 18q22 0 33.5 -13.5t11.5 -33.5q0 -22 -15 -40.5t-41 -18.5zM307 618q-22 0 -33.5 13.5t-11.5 33.5q0 23 15.5 41
t40.5 18q22 0 33.5 -13.5t11.5 -33.5q0 -22 -15 -40.5t-41 -18.5z" />
    <glyph glyph-name="uni1E9E" unicode="&#x1e9e;" horiz-adv-x="576" 
d="M301 -16q-40 0 -76.5 11.5t-63.5 34.5l24 77q23 -24 52 -34.5t68 -10.5q69 0 102 47.5t33 117.5q0 50 -29 74.5t-88 27.5l-18 1l13 68l166 210q-47 30 -103 30q-77 0 -123.5 -47.5t-67.5 -156.5l-84 -434h-91l87 444q28 143 99.5 207.5t180.5 64.5q53 0 101.5 -16
t88.5 -48l-14 -73l-151 -190q60 -12 91.5 -50.5t31.5 -102.5q0 -73 -28.5 -130t-80 -89.5t-120.5 -32.5z" />
    <glyph glyph-name="Ygrave" unicode="&#x1ef2;" horiz-adv-x="512" 
d="M160 0l56 287l-117 413h92l85 -331l209 331h100l-280 -413l-56 -287h-89zM361 772l-117 127h110l92 -127h-85z" />
    <glyph glyph-name="ygrave" unicode="&#x1ef3;" horiz-adv-x="425" 
d="M4 -229q-40 0 -68 16l19 69q17 -12 45 -12q32 0 55.5 23.5t54.5 88.5l19 39l-71 517h88l42 -415l189 415h90l-285 -580q-30 -61 -56 -96.5t-55 -50t-67 -14.5zM265 594l-81 153h91l60 -153h-70z" />
    <glyph glyph-name="uni2000" unicode="&#x2000;" horiz-adv-x="390" 
 />
    <glyph glyph-name="uni2001" unicode="&#x2001;" horiz-adv-x="780" 
 />
    <glyph glyph-name="uni2002" unicode="&#x2002;" horiz-adv-x="390" 
 />
    <glyph glyph-name="uni2003" unicode="&#x2003;" horiz-adv-x="780" 
 />
    <glyph glyph-name="uni2004" unicode="&#x2004;" horiz-adv-x="260" 
 />
    <glyph glyph-name="uni2005" unicode="&#x2005;" horiz-adv-x="195" 
 />
    <glyph glyph-name="uni2006" unicode="&#x2006;" horiz-adv-x="130" 
 />
    <glyph glyph-name="uni2007" unicode="&#x2007;" horiz-adv-x="484" 
 />
    <glyph glyph-name="uni2008" unicode="&#x2008;" horiz-adv-x="205" 
 />
    <glyph glyph-name="uni2009" unicode="&#x2009;" horiz-adv-x="156" 
 />
    <glyph glyph-name="uni200A" unicode="&#x200a;" horiz-adv-x="48" 
 />
    <glyph glyph-name="uni200B" unicode="&#x200b;" 
 />
    <glyph glyph-name="endash" unicode="&#x2013;" horiz-adv-x="390" 
d="M-1 252l16 79h389l-15 -79h-390z" />
    <glyph glyph-name="emdash" unicode="&#x2014;" horiz-adv-x="780" 
d="M0 252l15 79h780l-16 -79h-779z" />
    <glyph glyph-name="quoteleft" unicode="&#x2018;" horiz-adv-x="208" 
d="M142 447q-24 0 -37.5 16t-13.5 44q0 38 19.5 79.5t51.5 76.5t71 53l22 -41q-33 -17 -60 -45.5t-39 -61.5q24 0 37 -15.5t13 -38.5q0 -25 -17.5 -46t-46.5 -21z" />
    <glyph glyph-name="quoteright" unicode="&#x2019;" horiz-adv-x="208" 
d="M100 439l-22 41q33 17 60 45.5t39 61.5q-24 0 -37 15.5t-13 38.5q0 26 17.5 46.5t46.5 20.5q24 0 37.5 -15.5t13.5 -44.5q0 -38 -19.5 -79.5t-51.5 -76.5t-71 -53z" />
    <glyph glyph-name="quotesinglbase" unicode="&#x201a;" horiz-adv-x="208" 
d="M-15 -152l-22 41q33 17 60 45.5t39 61.5q-24 0 -37 15.5t-13 38.5q0 26 17.5 46.5t46.5 20.5q24 0 37.5 -15.5t13.5 -44.5q0 -38 -19.5 -79.5t-51.5 -76.5t-71 -53z" />
    <glyph glyph-name="quotedblleft" unicode="&#x201c;" horiz-adv-x="380" 
d="M142 447q-24 0 -37.5 16t-13.5 44q0 38 19.5 79.5t51.5 76.5t71 53l22 -41q-33 -17 -60 -45.5t-39 -61.5q24 0 37 -15.5t13 -38.5q0 -25 -17.5 -46t-46.5 -21zM309 447q-24 0 -37.5 16t-13.5 44q0 38 19.5 79.5t51.5 76.5t71 53l22 -41q-33 -17 -60 -45.5t-39 -61.5
q24 0 37 -15.5t13 -38.5q0 -25 -17.5 -46t-46.5 -21z" />
    <glyph glyph-name="quotedblright" unicode="&#x201d;" horiz-adv-x="380" 
d="M100 439l-22 41q33 17 60 45.5t39 61.5q-24 0 -37 15.5t-13 38.5q0 26 17.5 46.5t46.5 20.5q24 0 37.5 -15.5t13.5 -44.5q0 -38 -19.5 -79.5t-51.5 -76.5t-71 -53zM267 439l-22 41q33 17 60 45.5t39 61.5q-24 0 -37 15.5t-13 38.5q0 26 17.5 46.5t46.5 20.5
q24 0 37.5 -15.5t13.5 -44.5q0 -38 -19.5 -79.5t-51.5 -76.5t-71 -53z" />
    <glyph glyph-name="quotedblbase" unicode="&#x201e;" horiz-adv-x="380" 
d="M-15 -152l-22 41q33 17 60 45.5t39 61.5q-24 0 -37 15.5t-13 38.5q0 26 17.5 46.5t46.5 20.5q24 0 37.5 -15.5t13.5 -44.5q0 -38 -19.5 -79.5t-51.5 -76.5t-71 -53zM152 -152l-22 41q33 17 60 45.5t39 61.5q-24 0 -37 15.5t-13 38.5q0 26 17.5 46.5t46.5 20.5
q24 0 37.5 -15.5t13.5 -44.5q0 -38 -19.5 -79.5t-51.5 -76.5t-71 -53z" />
    <glyph glyph-name="dagger" unicode="&#x2020;" horiz-adv-x="368" 
d="M71 -98l115 554l-128 -4l15 77l127 -4l33 215h91l-50 -215l127 4l-15 -77l-126 4l-99 -554h-90z" />
    <glyph glyph-name="daggerdbl" unicode="&#x2021;" horiz-adv-x="387" 
d="M77 -98l52 212l-130 -5l15 79l128 -5l20 138l34 138l-130 -5l15 79l128 -5l32 212h91l-49 -212l130 5l-15 -79l-128 5l-19 -138l-35 -138l130 5l-15 -79l-128 5l-37 -212h-89z" />
    <glyph glyph-name="bullet" unicode="&#x2022;" horiz-adv-x="315" 
d="M161 153q-52 0 -85.5 34.5t-33.5 86.5q0 53 33.5 87t85.5 34q53 0 86 -34t33 -87q0 -52 -33 -86.5t-86 -34.5z" />
    <glyph glyph-name="ellipsis" unicode="&#x2026;" horiz-adv-x="667" 
d="M81 -8q-25 0 -38.5 15.5t-13.5 38.5q0 26 18 47t47 21q25 0 38.5 -15.5t13.5 -38.5q0 -26 -18 -47t-47 -21zM289 -8q-25 0 -38.5 15.5t-13.5 38.5q0 26 18 47t47 21q25 0 38.5 -15.5t13.5 -38.5q0 -26 -18 -47t-47 -21zM497 -8q-25 0 -38.5 15.5t-13.5 38.5q0 26 18 47
t47 21q25 0 38.5 -15.5t13.5 -38.5q0 -26 -18 -47t-47 -21z" />
    <glyph glyph-name="perthousand" unicode="&#x2030;" horiz-adv-x="1034" 
d="M134 0l391 684h74l-391 -684h-74zM529 -8q-47 0 -73.5 32.5t-26.5 90.5q0 80 20.5 143t56 99.5t81.5 36.5t72 -32.5t26 -90.5q0 -79 -20.5 -142.5t-55.5 -100t-80 -36.5zM530 48q23 0 43 33.5t33 86t13 108.5q0 62 -34 62q-23 0 -43.5 -33.5t-33.5 -85.5t-13 -109
q0 -62 35 -62zM830 -8q-47 0 -73.5 32.5t-26.5 90.5q0 80 20.5 143t56 99.5t81.5 36.5t72 -32.5t26 -90.5q0 -79 -20.5 -142.5t-55.5 -100t-80 -36.5zM831 48q23 0 43 33.5t33 86t13 108.5q0 62 -34 62q-23 0 -43.5 -33.5t-33.5 -85.5t-13 -109q0 -62 35 -62zM169 290
q-47 0 -73.5 32.5t-26.5 90.5q0 80 20.5 143t56 99.5t81.5 36.5t72 -32.5t26 -90.5q0 -79 -20.5 -142.5t-55.5 -100t-80 -36.5zM170 346q23 0 43 33.5t33 86t13 108.5q0 62 -34 62q-23 0 -43.5 -33.5t-33.5 -85.5t-13 -109q0 -62 35 -62z" />
    <glyph glyph-name="guilsinglleft" unicode="&#x2039;" horiz-adv-x="276" 
d="M104 52l-67 210l149 210h92l-150 -219l61 -201h-85z" />
    <glyph glyph-name="guilsinglright" unicode="&#x203a;" horiz-adv-x="276" 
d="M0 52l150 219l-61 201h85l67 -210l-149 -210h-92z" />
    <glyph glyph-name="fraction" unicode="&#x2044;" horiz-adv-x="96" 
d="M-168 0l391 684h74l-391 -684h-74z" />
    <glyph glyph-name="uni2070" unicode="&#x2070;" horiz-adv-x="308" 
d="M188 380q-47 0 -73.5 32.5t-26.5 90.5q0 80 20.5 143t56 99.5t81.5 36.5t72 -32.5t26 -90.5q0 -79 -20.5 -142.5t-55.5 -100t-80 -36.5zM189 436q23 0 43 33.5t33 86t13 108.5q0 62 -34 62q-23 0 -43.5 -33.5t-33.5 -85.5t-13 -109q0 -62 35 -62z" />
    <glyph glyph-name="uni2074" unicode="&#x2074;" horiz-adv-x="308" 
d="M210 388l16 83h-160l11 53l204 250h64l-53 -249h46l-17 -54h-40l-18 -83h-53zM135 525h101l32 162z" />
    <glyph glyph-name="uni2075" unicode="&#x2075;" horiz-adv-x="308" 
d="M167 380q-58 0 -98 27l21 52q15 -13 36 -19.5t43 -6.5q34 0 55.5 25t21.5 65q0 51 -48 51q-15 0 -27.5 -3t-30.5 -10l-26 12l53 201h174l-3 -56h-132l-28 -105q24 10 48 10q41 0 63.5 -25t22.5 -69q0 -67 -40 -108t-105 -41z" />
    <glyph glyph-name="uni2076" unicode="&#x2076;" horiz-adv-x="308" 
d="M202 380q-104 0 -104 132q0 50 12.5 98t36 87t58 62t79.5 23q26 0 45 -5t36 -15l-22 -51q-30 17 -60 17q-85 0 -118 -143q29 44 79 44q41 0 63 -26.5t22 -69.5q0 -41 -15.5 -76t-44 -56t-67.5 -21zM205 432q22 0 36 14.5t20.5 36.5t6.5 44q0 26 -10.5 41t-33.5 15
q-31 0 -48 -28.5t-17 -65.5q0 -57 46 -57z" />
    <glyph glyph-name="uni2077" unicode="&#x2077;" horiz-adv-x="308" 
d="M104 388l184 328h-159l19 58h218l-10 -54l-178 -332h-74z" />
    <glyph glyph-name="uni2078" unicode="&#x2078;" horiz-adv-x="308" 
d="M188 380q-50 0 -80 24t-30 71q0 39 24.5 71t61.5 40q-42 17 -42 73q0 53 35 88t89 35q44 0 71 -24t27 -70q0 -37 -20 -65t-53 -39q22 -8 35 -29t13 -51q0 -52 -36.5 -88t-94.5 -36zM222 608q26 0 43 21t17 52q0 27 -11 39t-31 12q-25 0 -42.5 -20.5t-17.5 -52.5
q0 -27 11.5 -39t30.5 -12zM192 431q27 0 44 21.5t17 54.5q0 54 -48 54q-26 0 -43.5 -22t-17.5 -53q0 -29 13 -42t35 -13z" />
    <glyph glyph-name="uni2079" unicode="&#x2079;" horiz-adv-x="308" 
d="M232 782q104 0 104 -132q0 -50 -12.5 -98t-36 -87t-58 -62t-79.5 -23q-26 0 -45 5t-36 15l22 51q30 -17 60 -17q85 0 118 143q-29 -44 -79 -44q-41 0 -63 26.5t-22 69.5q0 42 15.5 76.5t44.5 55.5t67 21zM229 730q-22 0 -36 -14.5t-20.5 -36t-6.5 -44.5q0 -26 11 -41
t33 -15q32 0 48.5 28.5t16.5 65.5q0 57 -46 57z" />
    <glyph glyph-name="uni2080" unicode="&#x2080;" horiz-adv-x="308" 
d="M96 -98q-47 0 -73.5 32.5t-26.5 90.5q0 80 20.5 143t56 99.5t81.5 36.5t72 -32.5t26 -90.5q0 -79 -20.5 -142.5t-55.5 -100t-80 -36.5zM97 -42q23 0 43 33.5t33 86t13 108.5q0 62 -34 62q-23 0 -43.5 -33.5t-33.5 -85.5t-13 -109q0 -62 35 -62z" />
    <glyph glyph-name="uni2081" unicode="&#x2081;" horiz-adv-x="308" 
d="M80 -90l60 311l-72 -47l-18 50l114 72h56l-76 -386h-64z" />
    <glyph glyph-name="uni2082" unicode="&#x2082;" horiz-adv-x="308" 
d="M-23 -90l10 48q37 29 74.5 64t57.5 58q30 34 46 60t16 56q0 52 -45 52t-86 -34l-7 50q23 19 50.5 29.5t56.5 10.5q47 0 73 -27t26 -71q0 -47 -26.5 -86t-64.5 -77q-12 -12 -35.5 -33.5t-51.5 -44.5h141l-17 -55h-218z" />
    <glyph glyph-name="uni2083" unicode="&#x2083;" horiz-adv-x="308" 
d="M81 -98q-32 0 -58.5 7t-46.5 22l20 50q17 -13 39.5 -19t45.5 -6q32 0 50 20.5t18 56.5q0 25 -14 36t-37 11h-42l11 56h42q32 0 51 20t19 51q0 43 -47 43q-19 0 -40.5 -6t-44.5 -20l-3 52q22 14 50 21t53 7q45 0 69.5 -22.5t24.5 -63.5q0 -40 -22.5 -70t-64.5 -41
q59 -16 59 -74t-36.5 -94.5t-95.5 -36.5z" />
    <glyph glyph-name="uni2084" unicode="&#x2084;" horiz-adv-x="308" 
d="M118 -90l16 83h-160l11 53l204 250h64l-53 -249h46l-17 -54h-40l-18 -83h-53zM43 47h101l32 162z" />
    <glyph glyph-name="uni2085" unicode="&#x2085;" horiz-adv-x="308" 
d="M75 -98q-58 0 -98 27l21 52q15 -13 36 -19.5t43 -6.5q34 0 55.5 25t21.5 65q0 51 -48 51q-15 0 -27.5 -3t-30.5 -10l-26 12l53 201h174l-3 -56h-132l-28 -105q24 10 48 10q41 0 63.5 -25t22.5 -69q0 -67 -40 -108t-105 -41z" />
    <glyph glyph-name="uni2086" unicode="&#x2086;" horiz-adv-x="308" 
d="M110 -98q-104 0 -104 132q0 50 12.5 98t36 87t58 62t79.5 23q26 0 45 -5t36 -15l-22 -51q-30 17 -60 17q-85 0 -118 -143q29 44 79 44q41 0 63 -26.5t22 -69.5q0 -41 -15.5 -76t-44 -56t-67.5 -21zM113 -46q22 0 36 14.5t20.5 36.5t6.5 44q0 26 -10.5 41t-33.5 15
q-31 0 -48 -28.5t-17 -65.5q0 -57 46 -57z" />
    <glyph glyph-name="uni2087" unicode="&#x2087;" horiz-adv-x="308" 
d="M12 -90l184 328h-159l19 58h218l-10 -54l-178 -332h-74z" />
    <glyph glyph-name="uni2088" unicode="&#x2088;" horiz-adv-x="308" 
d="M96 -98q-50 0 -80 24t-30 71q0 39 24.5 71t61.5 40q-42 17 -42 73q0 53 35 88t89 35q44 0 71 -24t27 -70q0 -37 -20 -65t-53 -39q22 -8 35 -29t13 -51q0 -52 -36.5 -88t-94.5 -36zM130 130q26 0 43 21t17 52q0 27 -11 39t-31 12q-25 0 -42.5 -20.5t-17.5 -52.5
q0 -27 11.5 -39t30.5 -12zM100 -47q27 0 44 21.5t17 54.5q0 54 -48 54q-26 0 -43.5 -22t-17.5 -53q0 -29 13 -42t35 -13z" />
    <glyph glyph-name="uni2089" unicode="&#x2089;" horiz-adv-x="308" 
d="M140 304q104 0 104 -132q0 -50 -12.5 -98t-36 -87t-58 -62t-79.5 -23q-26 0 -45 5t-36 15l22 51q30 -17 60 -17q85 0 118 143q-29 -44 -79 -44q-41 0 -63 26.5t-22 69.5q0 42 15.5 76.5t44.5 55.5t67 21zM137 252q-22 0 -36 -14.5t-20.5 -36t-6.5 -44.5q0 -26 11 -41
t33 -15q32 0 48.5 28.5t16.5 65.5q0 57 -46 57z" />
    <glyph glyph-name="uni20A9" unicode="&#x20a9;" horiz-adv-x="764" 
d="M123 0l-7 280h-96l13 65h81l-2 92h-61l13 65h46l-5 182h90l1 -182h151l72 182h92l2 -182h147l71 182h92l-75 -182h49l-13 -65h-63l-38 -92h83l-13 -65h-97l-115 -280h-93l-4 280h-116l-112 -280h-93zM354 345h90l-3 218zM515 345h84l36 92h-121zM198 345h87l36 92h-124z
M198 280l1 -150l60 150h-61zM515 280l2 -145l56 145h-58z" />
    <glyph glyph-name="dong" unicode="&#x20ab;" horiz-adv-x="484" 
d="M167 -13q-63 0 -100.5 51.5t-37.5 142.5q0 90 29 159.5t77 108.5t105 39q47 0 77 -26.5t42 -71.5l32 166h-134l14 65h133l12 63h84l-12 -63h56l-14 -65h-55l-108 -556h-75l13 75q-25 -40 -61.5 -64t-76.5 -24zM200 57q39 0 71 30.5t51 82.5t19 115q0 62 -23.5 97
t-67.5 35q-37 0 -68.5 -29t-50 -80.5t-18.5 -119.5q0 -131 87 -131zM-28 -149l14 65h364l-13 -65h-365z" />
    <glyph glyph-name="Euro" unicode="&#x20ac;" horiz-adv-x="484" 
d="M17 232l22 67h45q4 46 14 90h-50l23 67h46q24 72 64.5 126.5t93 85t114.5 30.5q75 0 130 -50l-32 -71q-46 46 -104 46q-61 0 -107 -45.5t-73 -121.5h218l-22 -67h-214q-9 -43 -13 -90h203l-22 -67h-183q3 -171 119 -171q35 0 64.5 12t62.5 38l5 -72q-64 -53 -152 -53
t-137.5 64.5t-49.5 181.5h-65z" />
    <glyph glyph-name="uni20B4" unicode="&#x20b4;" horiz-adv-x="484" 
d="M67 394l13 65h278q33 39 33 89q0 77 -86 77q-37 0 -76 -13.5t-85 -50.5l-2 74q41 33 87.5 48t96.5 15q71 0 112 -34.5t41 -96.5q0 -56 -35 -108h42l-13 -65h-406zM203 -14q-76 0 -119 35.5t-43 99.5q0 59 39 114h-45l13 65h406l-13 -65h-272q-37 -43 -37 -96
q0 -41 23 -60t69 -19q44 0 85 14.5t88 54.5l4 -77q-45 -36 -95 -51t-103 -15z" />
    <glyph glyph-name="uni20A8" unicode="&#x20b9;" horiz-adv-x="484" 
d="M253 0l-189 273l13 67h110q57 0 96 27.5t53 78.5h-239l13 65h233q-2 53 -24 80.5t-77 27.5h-112l13 65h376l-13 -63h-124q19 -20 31.5 -48.5t12.5 -61.5h60l-13 -65h-54q-19 -82 -86.5 -126.5t-157.5 -44.5h-14l196 -275h-104z" />
    <glyph glyph-name="uni20BA" unicode="&#x20ba;" horiz-adv-x="484" 
d="M27 0l38 196l-61 -35l16 78l61 34l19 97l-61 -34l15 78l61 34l46 236h85l-35 -181l159 90l-15 -78l-160 -90l-19 -98l159 90l-15 -78l-159 -90l-34 -174h29q89 0 142 59.5t68 174.5l82 -10q-22 -145 -99 -222t-208 -77h-114z" />
    <glyph glyph-name="uni20BD" unicode="&#x20bd;" horiz-adv-x="484" 
d="M30 0l23 118h-56l14 65h55l18 92h-56l14 65h55l67 344h155q83 0 127.5 -44.5t44.5 -124.5q0 -72 -29.5 -126t-83.5 -84t-128 -30h-80l-18 -92h138l-15 -65h-136l-23 -118h-86zM305 612h-69l-53 -272h78q66 0 103.5 45.5t37.5 124.5q0 50 -23.5 76t-73.5 26z" />
    <glyph glyph-name="trademark" unicode="&#x2122;" horiz-adv-x="781" 
d="M403 308v392h88l82 -263l84 263h85v-392h-66v284l-72 -218h-63l-72 221v-287h-66zM195 308v330h-99v62h268v-62h-99v-330h-70z" />
    <glyph glyph-name="uni2150" unicode="&#x2150;" horiz-adv-x="722" 
d="M122 0l391 684h74l-391 -684h-74zM443 0l184 328h-159l19 58h218l-10 -54l-178 -332h-74zM155 298l60 311l-72 -47l-18 50l114 72h56l-76 -386h-64z" />
    <glyph glyph-name="uni2151" unicode="&#x2151;" horiz-adv-x="722" 
d="M132 0l391 684h74l-391 -684h-74zM571 394q104 0 104 -132q0 -50 -12.5 -98t-36 -87t-58 -62t-79.5 -23q-26 0 -45 5t-36 15l22 51q30 -17 60 -17q85 0 118 143q-29 -44 -79 -44q-41 0 -63 26.5t-22 69.5q0 42 15.5 76.5t44.5 55.5t67 21zM568 342q-22 0 -36 -14.5
t-20.5 -36t-6.5 -44.5q0 -26 11 -41t33 -15q32 0 48.5 28.5t16.5 65.5q0 57 -46 57zM155 298l60 311l-72 -47l-18 50l114 72h56l-76 -386h-64z" />
    <glyph glyph-name="uni2153" unicode="&#x2153;" horiz-adv-x="722" 
d="M122 0l391 684h74l-391 -684h-74zM512 -8q-32 0 -58.5 7t-46.5 22l20 50q17 -13 39.5 -19t45.5 -6q32 0 50 20.5t18 56.5q0 25 -14 36t-37 11h-42l11 56h42q32 0 51 20t19 51q0 43 -47 43q-19 0 -40.5 -6t-44.5 -20l-3 52q22 14 50 21t53 7q45 0 69.5 -22.5t24.5 -63.5
q0 -40 -22.5 -70t-64.5 -41q59 -16 59 -74t-36.5 -94.5t-95.5 -36.5zM155 298l60 311l-72 -47l-18 50l114 72h56l-76 -386h-64z" />
    <glyph glyph-name="uni2154" unicode="&#x2154;" horiz-adv-x="722" 
d="M141 0l391 684h74l-391 -684h-74zM512 -8q-32 0 -58.5 7t-46.5 22l20 50q17 -13 39.5 -19t45.5 -6q32 0 50 20.5t18 56.5q0 25 -14 36t-37 11h-42l11 56h42q32 0 51 20t19 51q0 43 -47 43q-19 0 -40.5 -6t-44.5 -20l-3 52q22 14 50 21t53 7q45 0 69.5 -22.5t24.5 -63.5
q0 -40 -22.5 -70t-64.5 -41q59 -16 59 -74t-36.5 -94.5t-95.5 -36.5zM52 298l10 48q37 29 74.5 64t57.5 58q30 34 46 60t16 56q0 52 -45 52t-86 -34l-7 50q23 19 50.5 29.5t56.5 10.5q47 0 73 -27t26 -71q0 -47 -26.5 -86t-64.5 -77q-12 -12 -35.5 -33.5t-51.5 -44.5h141
l-17 -55h-218z" />
    <glyph glyph-name="uni2155" unicode="&#x2155;" horiz-adv-x="722" 
d="M132 0l391 684h74l-391 -684h-74zM506 -8q-58 0 -98 27l21 52q15 -13 36 -19.5t43 -6.5q34 0 55.5 25t21.5 65q0 51 -48 51q-15 0 -27.5 -3t-30.5 -10l-26 12l53 201h174l-3 -56h-132l-28 -105q24 10 48 10q41 0 63.5 -25t22.5 -69q0 -67 -40 -108t-105 -41zM155 298
l60 311l-72 -47l-18 50l114 72h56l-76 -386h-64z" />
    <glyph glyph-name="uni2156" unicode="&#x2156;" horiz-adv-x="722" 
d="M141 0l391 684h74l-391 -684h-74zM506 -8q-58 0 -98 27l21 52q15 -13 36 -19.5t43 -6.5q34 0 55.5 25t21.5 65q0 51 -48 51q-15 0 -27.5 -3t-30.5 -10l-26 12l53 201h174l-3 -56h-132l-28 -105q24 10 48 10q41 0 63.5 -25t22.5 -69q0 -67 -40 -108t-105 -41zM52 298
l10 48q37 29 74.5 64t57.5 58q30 34 46 60t16 56q0 52 -45 52t-86 -34l-7 50q23 19 50.5 29.5t56.5 10.5q47 0 73 -27t26 -71q0 -47 -26.5 -86t-64.5 -77q-12 -12 -35.5 -33.5t-51.5 -44.5h141l-17 -55h-218z" />
    <glyph glyph-name="uni2157" unicode="&#x2157;" horiz-adv-x="722" 
d="M141 0l391 684h74l-391 -684h-74zM506 -8q-58 0 -98 27l21 52q15 -13 36 -19.5t43 -6.5q34 0 55.5 25t21.5 65q0 51 -48 51q-15 0 -27.5 -3t-30.5 -10l-26 12l53 201h174l-3 -56h-132l-28 -105q24 10 48 10q41 0 63.5 -25t22.5 -69q0 -67 -40 -108t-105 -41zM156 290
q-32 0 -58.5 7t-46.5 22l20 50q17 -13 39.5 -19t45.5 -6q32 0 50 20.5t18 56.5q0 25 -14 36t-37 11h-42l11 56h42q32 0 51 20t19 51q0 43 -47 43q-19 0 -40.5 -6t-44.5 -20l-3 52q22 14 50 21t53 7q45 0 69.5 -22.5t24.5 -63.5q0 -40 -22.5 -70t-64.5 -41q59 -16 59 -74
t-36.5 -94.5t-95.5 -36.5z" />
    <glyph glyph-name="uni2158" unicode="&#x2158;" horiz-adv-x="722" 
d="M141 0l391 684h74l-391 -684h-74zM506 -8q-58 0 -98 27l21 52q15 -13 36 -19.5t43 -6.5q34 0 55.5 25t21.5 65q0 51 -48 51q-15 0 -27.5 -3t-30.5 -10l-26 12l53 201h174l-3 -56h-132l-28 -105q24 10 48 10q41 0 63.5 -25t22.5 -69q0 -67 -40 -108t-105 -41zM194 298
l16 83h-160l11 53l204 250h64l-53 -249h46l-17 -54h-40l-18 -83h-53zM119 435h101l32 162z" />
    <glyph glyph-name="uni2159" unicode="&#x2159;" horiz-adv-x="722" 
d="M132 0l391 684h74l-391 -684h-74zM541 -8q-104 0 -104 132q0 50 12.5 98t36 87t58 62t79.5 23q26 0 45 -5t36 -15l-22 -51q-30 17 -60 17q-85 0 -118 -143q29 44 79 44q41 0 63 -26.5t22 -69.5q0 -41 -15.5 -76t-44 -56t-67.5 -21zM544 44q22 0 36 14.5t20.5 36.5t6.5 44
q0 26 -10.5 41t-33.5 15q-31 0 -48 -28.5t-17 -65.5q0 -57 46 -57zM155 298l60 311l-72 -47l-18 50l114 72h56l-76 -386h-64z" />
    <glyph glyph-name="uni215A" unicode="&#x215a;" horiz-adv-x="722" 
d="M142 0l391 684h74l-391 -684h-74zM541 -8q-104 0 -104 132q0 50 12.5 98t36 87t58 62t79.5 23q26 0 45 -5t36 -15l-22 -51q-30 17 -60 17q-85 0 -118 -143q29 44 79 44q41 0 63 -26.5t22 -69.5q0 -41 -15.5 -76t-44 -56t-67.5 -21zM544 44q22 0 36 14.5t20.5 36.5t6.5 44
q0 26 -10.5 41t-33.5 15q-31 0 -48 -28.5t-17 -65.5q0 -57 46 -57zM150 290q-58 0 -98 27l21 52q15 -13 36 -19.5t43 -6.5q34 0 55.5 25t21.5 65q0 51 -48 51q-15 0 -27.5 -3t-30.5 -10l-26 12l53 201h174l-3 -56h-132l-28 -105q24 10 48 10q41 0 63.5 -25t22.5 -69
q0 -67 -40 -108t-105 -41z" />
    <glyph glyph-name="oneeighth" unicode="&#x215b;" horiz-adv-x="722" 
d="M136 0l391 684h74l-391 -684h-74zM527 -8q-50 0 -80 24t-30 71q0 39 24.5 71t61.5 40q-42 17 -42 73q0 53 35 88t89 35q44 0 71 -24t27 -70q0 -37 -20 -65t-53 -39q22 -8 35 -29t13 -51q0 -52 -36.5 -88t-94.5 -36zM561 220q26 0 43 21t17 52q0 27 -11 39t-31 12
q-25 0 -42.5 -20.5t-17.5 -52.5q0 -27 11.5 -39t30.5 -12zM531 43q27 0 44 21.5t17 54.5q0 54 -48 54q-26 0 -43.5 -22t-17.5 -53q0 -29 13 -42t35 -13zM155 298l60 311l-72 -47l-18 50l114 72h56l-76 -386h-64z" />
    <glyph glyph-name="threeeighths" unicode="&#x215c;" horiz-adv-x="722" 
d="M142 0l391 684h74l-391 -684h-74zM527 -8q-50 0 -80 24t-30 71q0 39 24.5 71t61.5 40q-42 17 -42 73q0 53 35 88t89 35q44 0 71 -24t27 -70q0 -37 -20 -65t-53 -39q22 -8 35 -29t13 -51q0 -52 -36.5 -88t-94.5 -36zM561 220q26 0 43 21t17 52q0 27 -11 39t-31 12
q-25 0 -42.5 -20.5t-17.5 -52.5q0 -27 11.5 -39t30.5 -12zM531 43q27 0 44 21.5t17 54.5q0 54 -48 54q-26 0 -43.5 -22t-17.5 -53q0 -29 13 -42t35 -13zM156 290q-32 0 -58.5 7t-46.5 22l20 50q17 -13 39.5 -19t45.5 -6q32 0 50 20.5t18 56.5q0 25 -14 36t-37 11h-42l11 56
h42q32 0 51 20t19 51q0 43 -47 43q-19 0 -40.5 -6t-44.5 -20l-3 52q22 14 50 21t53 7q45 0 69.5 -22.5t24.5 -63.5q0 -40 -22.5 -70t-64.5 -41q59 -16 59 -74t-36.5 -94.5t-95.5 -36.5z" />
    <glyph glyph-name="fiveeighths" unicode="&#x215d;" horiz-adv-x="722" 
d="M142 0l391 684h74l-391 -684h-74zM527 -8q-50 0 -80 24t-30 71q0 39 24.5 71t61.5 40q-42 17 -42 73q0 53 35 88t89 35q44 0 71 -24t27 -70q0 -37 -20 -65t-53 -39q22 -8 35 -29t13 -51q0 -52 -36.5 -88t-94.5 -36zM561 220q26 0 43 21t17 52q0 27 -11 39t-31 12
q-25 0 -42.5 -20.5t-17.5 -52.5q0 -27 11.5 -39t30.5 -12zM531 43q27 0 44 21.5t17 54.5q0 54 -48 54q-26 0 -43.5 -22t-17.5 -53q0 -29 13 -42t35 -13zM150 290q-58 0 -98 27l21 52q15 -13 36 -19.5t43 -6.5q34 0 55.5 25t21.5 65q0 51 -48 51q-15 0 -27.5 -3t-30.5 -10
l-26 12l53 201h174l-3 -56h-132l-28 -105q24 10 48 10q41 0 63.5 -25t22.5 -69q0 -67 -40 -108t-105 -41z" />
    <glyph glyph-name="seveneighths" unicode="&#x215e;" horiz-adv-x="722" 
d="M132 0l391 684h74l-391 -684h-74zM527 -8q-50 0 -80 24t-30 71q0 39 24.5 71t61.5 40q-42 17 -42 73q0 53 35 88t89 35q44 0 71 -24t27 -70q0 -37 -20 -65t-53 -39q22 -8 35 -29t13 -51q0 -52 -36.5 -88t-94.5 -36zM561 220q26 0 43 21t17 52q0 27 -11 39t-31 12
q-25 0 -42.5 -20.5t-17.5 -52.5q0 -27 11.5 -39t30.5 -12zM531 43q27 0 44 21.5t17 54.5q0 54 -48 54q-26 0 -43.5 -22t-17.5 -53q0 -29 13 -42t35 -13zM87 298l184 328h-159l19 58h218l-10 -54l-178 -332h-74z" />
    <glyph glyph-name="minus" unicode="&#x2212;" horiz-adv-x="484" 
d="M54 304v74h409v-74h-409z" />
    <glyph glyph-name="uniFEFF" unicode="&#xfeff;" 
 />
    <glyph glyph-name="uniFFFD" unicode="&#xfffd;" horiz-adv-x="1000" 
d="M519 -121l-475 474l475 475l475 -475zM475 198h70v18q0 28 16 50.5t54 47.5q56 38 78.5 74t22.5 86q0 71 -51 113t-140 42q-42 0 -88 -13t-76 -33l19 -59q26 20 63 30.5t75 10.5q56 0 87.5 -25t31.5 -70q0 -34 -18 -60.5t-62 -57.5t-63 -62.5t-19 -73.5v-18zM509 19
q23 0 38.5 15.5t15.5 37.5q0 23 -15.5 37.5t-38.5 14.5t-38.5 -14.5t-15.5 -37.5q0 -22 15.5 -37.5t38.5 -15.5z" />
    <glyph glyph-name="zero.pnum" horiz-adv-x="487" 
d="M205 -14q-77 0 -118.5 56.5t-41.5 164.5q0 49 9 113t28 130t50.5 122.5t76.5 91t106 34.5q77 0 118.5 -56.5t41.5 -164.5q0 -49 -9 -113t-28 -130t-50.5 -122.5t-76.5 -91t-106 -34.5zM210 61q37 0 66.5 32t50.5 83.5t34.5 110t20 112.5t6.5 91q0 65 -19.5 99t-58.5 34
q-37 0 -66.5 -32t-50.5 -83.5t-34.5 -110t-20 -112.5t-6.5 -91q0 -64 19.5 -98.5t58.5 -34.5z" />
    <glyph glyph-name="one.pnum" horiz-adv-x="327" 
d="M112 0l111 574l-111 -77l-35 67l176 120h78l-133 -684h-86z" />
    <glyph glyph-name="two.pnum" horiz-adv-x="429" 
d="M-21 0l13 67q47 44 83.5 79t68 66t61.5 63q47 50 76 90t42.5 78.5t13.5 82.5q0 46 -22.5 71.5t-62.5 25.5q-37 0 -70 -15.5t-69 -45.5l-13 70q38 32 79 49t87 17q74 0 116.5 -45t42.5 -119q0 -56 -18.5 -104.5t-54.5 -96.5t-88 -103q-31 -32 -68 -67t-98 -88h261l-24 -75
h-356z" />
    <glyph glyph-name="three.pnum" horiz-adv-x="430" 
d="M149 -14q-46 0 -89 13.5t-75 38.5l30 68q62 -47 136 -47q68 0 104 44.5t36 114.5q0 103 -103 103h-69l14 69h68q62 0 102 41t40 106q0 41 -26.5 64.5t-66.5 23.5q-37 0 -67.5 -12.5t-67.5 -35.5l-6 69q74 52 151 52q76 0 123.5 -42t47.5 -111q0 -70 -36 -120.5t-95 -71.5
q37 -15 57.5 -51.5t20.5 -85.5q0 -68 -28.5 -120t-79.5 -81t-121 -29z" />
    <glyph glyph-name="four.pnum" horiz-adv-x="463" 
d="M235 0l33 170h-263l13 68l346 446h86l-86 -444h71l-22 -70h-63l-33 -170h-82zM106 240h175l59 302z" />
    <glyph glyph-name="five.pnum" horiz-adv-x="441" 
d="M156 -14q-45 0 -88.5 14t-74.5 38l30 68q26 -22 63 -34.5t74 -12.5q70 0 108.5 48.5t38.5 125.5q0 108 -107 108q-30 0 -56 -4t-50 -11l-21 13l92 345h287l-6 -76h-223l-54 -204q34 7 69 7q76 0 117 -45t41 -127q0 -75 -29.5 -132t-83.5 -89t-127 -32z" />
    <glyph glyph-name="six.pnum" horiz-adv-x="465" 
d="M211 -14q-82 0 -126 59.5t-44 175.5q0 101 22.5 187.5t64.5 151.5t101 101.5t133 36.5q34 0 67.5 -8.5t55.5 -23.5l-29 -70q-19 14 -45 21t-54 7q-83 0 -140.5 -75.5t-79.5 -210.5q56 105 153 105q63 0 100.5 -45.5t37.5 -125.5q0 -82 -28 -147t-77 -102t-112 -37z
M213 58q36 0 65.5 27.5t46.5 75t17 105.5q0 50 -20.5 79t-55.5 29q-38 0 -70 -27t-50.5 -72t-18.5 -101q0 -55 22.5 -85.5t63.5 -30.5z" />
    <glyph glyph-name="seven.pnum" horiz-adv-x="406" 
d="M33 0l333 608h-283l24 76h364l-14 -73l-330 -611h-94z" />
    <glyph glyph-name="eight.pnum" horiz-adv-x="469" 
d="M194 -14q-80 0 -125.5 45t-45.5 121q0 73 38.5 129.5t102.5 79.5q-56 35 -56 124q0 60 26.5 108t73 76.5t105.5 28.5q74 0 115.5 -42t41.5 -113q0 -66 -32.5 -116t-89.5 -72q34 -15 52 -51.5t18 -85.5q0 -66 -29.5 -118.5t-80 -83t-114.5 -30.5zM270 390q32 0 58 18.5
t41 51t15 72.5q0 43 -20.5 68.5t-57.5 25.5q-48 0 -80 -40.5t-32 -100.5q0 -44 20 -69.5t56 -25.5zM200 58q56 0 92 44.5t36 112.5q0 50 -23.5 77t-64.5 27q-36 0 -64.5 -20.5t-45.5 -56.5t-17 -81q0 -48 23 -75.5t64 -27.5z" />
    <glyph glyph-name="nine.pnum" horiz-adv-x="465" 
d="M138 -14q-42 0 -72 8t-56 24l29 70q44 -28 105 -28q75 0 130 71.5t84 210.5q-56 -101 -151 -101q-66 0 -101.5 48t-35.5 122q0 54 15 105t43.5 92t69.5 65.5t93 24.5q56 0 93 -26t55.5 -69.5t18.5 -97.5q0 -76 -14 -151t-41 -141t-66 -117t-89 -80.5t-110 -29.5zM234 310
q34 0 59.5 18.5t43 48.5t26 66t8.5 70q0 53 -22.5 83t-65.5 30q-32 0 -56 -19t-39.5 -50t-23.5 -67.5t-8 -71.5q0 -49 20 -78.5t58 -29.5z" />
    <glyph glyph-name="zero.dnom" horiz-adv-x="308" 
d="M113 -8q-47 0 -73.5 32.5t-26.5 90.5q0 80 20.5 143t56 99.5t81.5 36.5t72 -32.5t26 -90.5q0 -79 -20.5 -142.5t-55.5 -100t-80 -36.5zM114 48q23 0 43 33.5t33 86t13 108.5q0 62 -34 62q-23 0 -43.5 -33.5t-33.5 -85.5t-13 -109q0 -62 35 -62z" />
    <glyph glyph-name="one.dnom" horiz-adv-x="308" 
d="M97 0l60 311l-72 -47l-18 50l114 72h56l-76 -386h-64z" />
    <glyph glyph-name="two.dnom" horiz-adv-x="308" 
d="M-6 0l10 48q37 29 74.5 64t57.5 58q30 34 46 60t16 56q0 52 -45 52t-86 -34l-7 50q23 19 50.5 29.5t56.5 10.5q47 0 73 -27t26 -71q0 -47 -26.5 -86t-64.5 -77q-12 -12 -35.5 -33.5t-51.5 -44.5h141l-17 -55h-218z" />
    <glyph glyph-name="three.dnom" horiz-adv-x="308" 
d="M98 -8q-32 0 -58.5 7t-46.5 22l20 50q17 -13 39.5 -19t45.5 -6q32 0 50 20.5t18 56.5q0 25 -14 36t-37 11h-42l11 56h42q32 0 51 20t19 51q0 43 -47 43q-19 0 -40.5 -6t-44.5 -20l-3 52q22 14 50 21t53 7q45 0 69.5 -22.5t24.5 -63.5q0 -40 -22.5 -70t-64.5 -41
q59 -16 59 -74t-36.5 -94.5t-95.5 -36.5z" />
    <glyph glyph-name="four.dnom" horiz-adv-x="308" 
d="M135 0l16 83h-160l11 53l204 250h64l-53 -249h46l-17 -54h-40l-18 -83h-53zM60 137h101l32 162z" />
    <glyph glyph-name="five.dnom" horiz-adv-x="308" 
d="M92 -8q-58 0 -98 27l21 52q15 -13 36 -19.5t43 -6.5q34 0 55.5 25t21.5 65q0 51 -48 51q-15 0 -27.5 -3t-30.5 -10l-26 12l53 201h174l-3 -56h-132l-28 -105q24 10 48 10q41 0 63.5 -25t22.5 -69q0 -67 -40 -108t-105 -41z" />
    <glyph glyph-name="six.dnom" horiz-adv-x="308" 
d="M127 -8q-104 0 -104 132q0 50 12.5 98t36 87t58 62t79.5 23q26 0 45 -5t36 -15l-22 -51q-30 17 -60 17q-85 0 -118 -143q29 44 79 44q41 0 63 -26.5t22 -69.5q0 -41 -15.5 -76t-44 -56t-67.5 -21zM130 44q22 0 36 14.5t20.5 36.5t6.5 44q0 26 -10.5 41t-33.5 15
q-31 0 -48 -28.5t-17 -65.5q0 -57 46 -57z" />
    <glyph glyph-name="seven.dnom" horiz-adv-x="308" 
d="M29 0l184 328h-159l19 58h218l-10 -54l-178 -332h-74z" />
    <glyph glyph-name="eight.dnom" horiz-adv-x="308" 
d="M113 -8q-50 0 -80 24t-30 71q0 39 24.5 71t61.5 40q-42 17 -42 73q0 53 35 88t89 35q44 0 71 -24t27 -70q0 -37 -20 -65t-53 -39q22 -8 35 -29t13 -51q0 -52 -36.5 -88t-94.5 -36zM147 220q26 0 43 21t17 52q0 27 -11 39t-31 12q-25 0 -42.5 -20.5t-17.5 -52.5
q0 -27 11.5 -39t30.5 -12zM117 43q27 0 44 21.5t17 54.5q0 54 -48 54q-26 0 -43.5 -22t-17.5 -53q0 -29 13 -42t35 -13z" />
    <glyph glyph-name="nine.dnom" horiz-adv-x="308" 
d="M157 394q104 0 104 -132q0 -50 -12.5 -98t-36 -87t-58 -62t-79.5 -23q-26 0 -45 5t-36 15l22 51q30 -17 60 -17q85 0 118 143q-29 -44 -79 -44q-41 0 -63 26.5t-22 69.5q0 42 15.5 76.5t44.5 55.5t67 21zM154 342q-22 0 -36 -14.5t-20.5 -36t-6.5 -44.5q0 -26 11 -41
t33 -15q32 0 48.5 28.5t16.5 65.5q0 57 -46 57z" />
    <glyph glyph-name="zero.numr" horiz-adv-x="308" 
d="M171 290q-47 0 -73.5 32.5t-26.5 90.5q0 80 20.5 143t56 99.5t81.5 36.5t72 -32.5t26 -90.5q0 -79 -20.5 -142.5t-55.5 -100t-80 -36.5zM172 346q23 0 43 33.5t33 86t13 108.5q0 62 -34 62q-23 0 -43.5 -33.5t-33.5 -85.5t-13 -109q0 -62 35 -62z" />
    <glyph glyph-name="one.numr" horiz-adv-x="308" 
d="M155 298l60 311l-72 -47l-18 50l114 72h56l-76 -386h-64z" />
    <glyph glyph-name="two.numr" horiz-adv-x="308" 
d="M52 298l10 48q37 29 74.5 64t57.5 58q30 34 46 60t16 56q0 52 -45 52t-86 -34l-7 50q23 19 50.5 29.5t56.5 10.5q47 0 73 -27t26 -71q0 -47 -26.5 -86t-64.5 -77q-12 -12 -35.5 -33.5t-51.5 -44.5h141l-17 -55h-218z" />
    <glyph glyph-name="three.numr" horiz-adv-x="308" 
d="M156 290q-32 0 -58.5 7t-46.5 22l20 50q17 -13 39.5 -19t45.5 -6q32 0 50 20.5t18 56.5q0 25 -14 36t-37 11h-42l11 56h42q32 0 51 20t19 51q0 43 -47 43q-19 0 -40.5 -6t-44.5 -20l-3 52q22 14 50 21t53 7q45 0 69.5 -22.5t24.5 -63.5q0 -40 -22.5 -70t-64.5 -41
q59 -16 59 -74t-36.5 -94.5t-95.5 -36.5z" />
    <glyph glyph-name="four.numr" horiz-adv-x="308" 
d="M193 298l16 83h-160l11 53l204 250h64l-53 -249h46l-17 -54h-40l-18 -83h-53zM118 435h101l32 162z" />
    <glyph glyph-name="five.numr" horiz-adv-x="308" 
d="M150 290q-58 0 -98 27l21 52q15 -13 36 -19.5t43 -6.5q34 0 55.5 25t21.5 65q0 51 -48 51q-15 0 -27.5 -3t-30.5 -10l-26 12l53 201h174l-3 -56h-132l-28 -105q24 10 48 10q41 0 63.5 -25t22.5 -69q0 -67 -40 -108t-105 -41z" />
    <glyph glyph-name="six.numr" horiz-adv-x="308" 
d="M185 290q-104 0 -104 132q0 50 12.5 98t36 87t58 62t79.5 23q26 0 45 -5t36 -15l-22 -51q-30 17 -60 17q-85 0 -118 -143q29 44 79 44q41 0 63 -26.5t22 -69.5q0 -41 -15.5 -76t-44 -56t-67.5 -21zM188 342q22 0 36 14.5t20.5 36.5t6.5 44q0 26 -10.5 41t-33.5 15
q-31 0 -48 -28.5t-17 -65.5q0 -57 46 -57z" />
    <glyph glyph-name="seven.numr" horiz-adv-x="308" 
d="M87 298l184 328h-159l19 58h218l-10 -54l-178 -332h-74z" />
    <glyph glyph-name="eight.numr" horiz-adv-x="308" 
d="M171 290q-50 0 -80 24t-30 71q0 39 24.5 71t61.5 40q-42 17 -42 73q0 53 35 88t89 35q44 0 71 -24t27 -70q0 -37 -20 -65t-53 -39q22 -8 35 -29t13 -51q0 -52 -36.5 -88t-94.5 -36zM205 518q26 0 43 21t17 52q0 27 -11 39t-31 12q-25 0 -42.5 -20.5t-17.5 -52.5
q0 -27 11.5 -39t30.5 -12zM175 341q27 0 44 21.5t17 54.5q0 54 -48 54q-26 0 -43.5 -22t-17.5 -53q0 -29 13 -42t35 -13z" />
    <glyph glyph-name="nine.numr" horiz-adv-x="308" 
d="M215 692q104 0 104 -132q0 -50 -12.5 -98t-36 -87t-58 -62t-79.5 -23q-26 0 -45 5t-36 15l22 51q30 -17 60 -17q85 0 118 143q-29 -44 -79 -44q-41 0 -63 26.5t-22 69.5q0 42 15.5 76.5t44.5 55.5t67 21zM212 640q-22 0 -36 -14.5t-20.5 -36t-6.5 -44.5q0 -26 11 -41
t33 -15q32 0 48.5 28.5t16.5 65.5q0 57 -46 57z" />
    <glyph glyph-name="two_fraction_seven" horiz-adv-x="722" 
d="M132 0l391 684h74l-391 -684h-74zM443 0l184 328h-159l19 58h218l-10 -54l-178 -332h-74zM52 298l10 48q37 29 74.5 64t57.5 58q30 34 46 60t16 56q0 52 -45 52t-86 -34l-7 50q23 19 50.5 29.5t56.5 10.5q47 0 73 -27t26 -71q0 -47 -26.5 -86t-64.5 -77
q-12 -12 -35.5 -33.5t-51.5 -44.5h141l-17 -55h-218z" />
    <glyph glyph-name="three_fraction_seven" horiz-adv-x="722" 
d="M132 0l391 684h74l-391 -684h-74zM443 0l184 328h-159l19 58h218l-10 -54l-178 -332h-74zM156 290q-32 0 -58.5 7t-46.5 22l20 50q17 -13 39.5 -19t45.5 -6q32 0 50 20.5t18 56.5q0 25 -14 36t-37 11h-42l11 56h42q32 0 51 20t19 51q0 43 -47 43q-19 0 -40.5 -6
t-44.5 -20l-3 52q22 14 50 21t53 7q45 0 69.5 -22.5t24.5 -63.5q0 -40 -22.5 -70t-64.5 -41q59 -16 59 -74t-36.5 -94.5t-95.5 -36.5z" />
    <glyph glyph-name="four_fraction_seven" horiz-adv-x="722" 
d="M132 0l391 684h74l-391 -684h-74zM443 0l184 328h-159l19 58h218l-10 -54l-178 -332h-74zM194 298l16 83h-160l11 53l204 250h64l-53 -249h46l-17 -54h-40l-18 -83h-53zM119 435h101l32 162z" />
    <glyph glyph-name="five_fraction_seven" horiz-adv-x="722" 
d="M132 0l391 684h74l-391 -684h-74zM443 0l184 328h-159l19 58h218l-10 -54l-178 -332h-74zM150 290q-58 0 -98 27l21 52q15 -13 36 -19.5t43 -6.5q34 0 55.5 25t21.5 65q0 51 -48 51q-15 0 -27.5 -3t-30.5 -10l-26 12l53 201h174l-3 -56h-132l-28 -105q24 10 48 10
q41 0 63.5 -25t22.5 -69q0 -67 -40 -108t-105 -41z" />
    <glyph glyph-name="six_fraction_seven" horiz-adv-x="722" 
d="M132 0l391 684h74l-391 -684h-74zM443 0l184 328h-159l19 58h218l-10 -54l-178 -332h-74zM185 290q-104 0 -104 132q0 50 12.5 98t36 87t58 62t79.5 23q26 0 45 -5t36 -15l-22 -51q-30 17 -60 17q-85 0 -118 -143q29 44 79 44q41 0 63 -26.5t22 -69.5q0 -41 -15.5 -76
t-44 -56t-67.5 -21zM188 342q22 0 36 14.5t20.5 36.5t6.5 44q0 26 -10.5 41t-33.5 15q-31 0 -48 -28.5t-17 -65.5q0 -57 46 -57z" />
    <glyph glyph-name="two_fraction_nine" horiz-adv-x="722" 
d="M151 0l391 684h74l-391 -684h-74zM571 394q104 0 104 -132q0 -50 -12.5 -98t-36 -87t-58 -62t-79.5 -23q-26 0 -45 5t-36 15l22 51q30 -17 60 -17q85 0 118 143q-29 -44 -79 -44q-41 0 -63 26.5t-22 69.5q0 42 15.5 76.5t44.5 55.5t67 21zM568 342q-22 0 -36 -14.5
t-20.5 -36t-6.5 -44.5q0 -26 11 -41t33 -15q32 0 48.5 28.5t16.5 65.5q0 57 -46 57zM52 298l10 48q37 29 74.5 64t57.5 58q30 34 46 60t16 56q0 52 -45 52t-86 -34l-7 50q23 19 50.5 29.5t56.5 10.5q47 0 73 -27t26 -71q0 -47 -26.5 -86t-64.5 -77q-12 -12 -35.5 -33.5
t-51.5 -44.5h141l-17 -55h-218z" />
    <glyph glyph-name="four_fraction_nine" horiz-adv-x="722" 
d="M151 0l391 684h74l-391 -684h-74zM571 394q104 0 104 -132q0 -50 -12.5 -98t-36 -87t-58 -62t-79.5 -23q-26 0 -45 5t-36 15l22 51q30 -17 60 -17q85 0 118 143q-29 -44 -79 -44q-41 0 -63 26.5t-22 69.5q0 42 15.5 76.5t44.5 55.5t67 21zM568 342q-22 0 -36 -14.5
t-20.5 -36t-6.5 -44.5q0 -26 11 -41t33 -15q32 0 48.5 28.5t16.5 65.5q0 57 -46 57zM194 298l16 83h-160l11 53l204 250h64l-53 -249h46l-17 -54h-40l-18 -83h-53zM119 435h101l32 162z" />
    <glyph glyph-name="five_fraction_nine" horiz-adv-x="722" 
d="M136 0l391 684h74l-391 -684h-74zM571 394q104 0 104 -132q0 -50 -12.5 -98t-36 -87t-58 -62t-79.5 -23q-26 0 -45 5t-36 15l22 51q30 -17 60 -17q85 0 118 143q-29 -44 -79 -44q-41 0 -63 26.5t-22 69.5q0 42 15.5 76.5t44.5 55.5t67 21zM568 342q-22 0 -36 -14.5
t-20.5 -36t-6.5 -44.5q0 -26 11 -41t33 -15q32 0 48.5 28.5t16.5 65.5q0 57 -46 57zM150 290q-58 0 -98 27l21 52q15 -13 36 -19.5t43 -6.5q34 0 55.5 25t21.5 65q0 51 -48 51q-15 0 -27.5 -3t-30.5 -10l-26 12l53 201h174l-3 -56h-132l-28 -105q24 10 48 10q41 0 63.5 -25
t22.5 -69q0 -67 -40 -108t-105 -41z" />
    <glyph glyph-name="seven_fraction_nine" horiz-adv-x="722" 
d="M112 0l391 684h74l-391 -684h-74zM571 394q104 0 104 -132q0 -50 -12.5 -98t-36 -87t-58 -62t-79.5 -23q-26 0 -45 5t-36 15l22 51q30 -17 60 -17q85 0 118 143q-29 -44 -79 -44q-41 0 -63 26.5t-22 69.5q0 42 15.5 76.5t44.5 55.5t67 21zM568 342q-22 0 -36 -14.5
t-20.5 -36t-6.5 -44.5q0 -26 11 -41t33 -15q32 0 48.5 28.5t16.5 65.5q0 57 -46 57zM87 298l184 328h-159l19 58h218l-10 -54l-178 -332h-74z" />
    <glyph glyph-name="eight_fraction_nine" horiz-adv-x="722" 
d="M142 0l391 684h74l-391 -684h-74zM571 394q104 0 104 -132q0 -50 -12.5 -98t-36 -87t-58 -62t-79.5 -23q-26 0 -45 5t-36 15l22 51q30 -17 60 -17q85 0 118 143q-29 -44 -79 -44q-41 0 -63 26.5t-22 69.5q0 42 15.5 76.5t44.5 55.5t67 21zM568 342q-22 0 -36 -14.5
t-20.5 -36t-6.5 -44.5q0 -26 11 -41t33 -15q32 0 48.5 28.5t16.5 65.5q0 57 -46 57zM171 290q-50 0 -80 24t-30 71q0 39 24.5 71t61.5 40q-42 17 -42 73q0 53 35 88t89 35q44 0 71 -24t27 -70q0 -37 -20 -65t-53 -39q22 -8 35 -29t13 -51q0 -52 -36.5 -88t-94.5 -36z
M205 518q26 0 43 21t17 52q0 27 -11 39t-31 12q-25 0 -42.5 -20.5t-17.5 -52.5q0 -27 11.5 -39t30.5 -12zM175 341q27 0 44 21.5t17 54.5q0 54 -48 54q-26 0 -43.5 -22t-17.5 -53q0 -29 13 -42t35 -13z" />
    <glyph glyph-name="shekel" horiz-adv-x="645" 
d="M158 0l105 540h84l-91 -467h112q36 0 61.5 14t43.5 49.5t30 99.5l86 448h84l-86 -443q-25 -128 -83.5 -184.5t-156.5 -56.5h-189zM9 0l133 684h179q80 0 122 -32t42 -115q0 -32 -2.5 -54.5t-7.5 -46.5l-57 -292h-84l58 297q5 23 6.5 44t1.5 40q0 52 -22.5 69t-68.5 17
h-98l-118 -611h-84z" />
    <glyph glyph-name="hyphen.case" horiz-adv-x="305" 
d="M47 311l17 79h231l-17 -79h-231z" />
    <glyph glyph-name="endash.case" horiz-adv-x="390" 
d="M11 311l16 79h389l-15 -79h-390z" />
    <glyph glyph-name="emdash.case" horiz-adv-x="780" 
d="M11 311l15 79h780l-16 -79h-779z" />
    <glyph glyph-name="parenleft.case" horiz-adv-x="281" 
d="M143 -121q-43 62 -68.5 149.5t-25.5 184.5q0 121 33.5 233t93.5 208t141 169l46 -42q-72 -71 -122 -162.5t-76 -196.5t-26 -217q0 -74 14.5 -149.5t44.5 -136.5z" />
    <glyph glyph-name="parenright.case" horiz-adv-x="281" 
d="M0 -121l-46 42q73 71 122.5 162.5t75.5 197t26 216.5q0 74 -14.5 149.5t-44.5 136.5l55 40q43 -62 68.5 -149.5t25.5 -184.5q0 -121 -33 -233t-93.5 -207.5t-141.5 -169.5z" />
    <glyph glyph-name="slash.case" horiz-adv-x="362" 
d="M-57 -98l417 896h95l-417 -896h-95z" />
    <glyph glyph-name="backslash.case" horiz-adv-x="362" 
d="M185 -98l-68 896h85l68 -896h-85z" />
    <glyph glyph-name="bracketleft.case" horiz-adv-x="275" 
d="M-1 -98l174 896h183l-14 -68h-101l-140 -760h101l-14 -68h-189z" />
    <glyph glyph-name="bracketright.case" horiz-adv-x="275" 
d="M-45 -98l14 68h101l140 760h-101l14 68h189l-174 -896h-183z" />
    </font>
</defs>
</svg>
