<?xml version="1.0" standalone="no"?>
<!DOCTYPE svg PUBLIC "-//W3C//DTD SVG 1.1//EN" "http://www.w3.org/Graphics/SVG/1.1/DTD/svg11.dtd" >
<svg xmlns="http://www.w3.org/2000/svg" xmlns:xlink="http://www.w3.org/1999/xlink" version="1.1">
<metadata>
Created by FontForge 20170731 at Thu Nov  7 21:04:28 2019
 By Aleksey,,,
Copyright 2019 FedEx Corporation. This font may not be altered in any way without prior permission of the FedEx Corporation.
</metadata>
<defs>
<font id="FedExSans-CondensedMediumItalic" horiz-adv-x="0" >
  <font-face 
    font-family="FedEx Sans Cd Medium"
    font-weight="500"
    font-style="italic"
    font-stretch="condensed"
    units-per-em="1000"
    panose-1="2 11 7 6 2 2 3 9 2 4"
    ascent="740"
    descent="-260"
    x-height="516"
    cap-height="700"
    bbox="-214 -552 1114 1125"
    underline-thickness="76"
    underline-position="-222"
    slope="-11"
    unicode-range="U+000D-FFFD"
  />
<missing-glyph horiz-adv-x="500" 
d="M0 0v700h500v-700h-500zM249 394l162 260h-324zM446 82v536l-168 -268zM54 83l167 267l-167 266v-533zM87 46h324l-162 259z" />
    <glyph glyph-name="uniFB00" unicode="ff" horiz-adv-x="610" 
d="M40 0l82 423h-82l30 93h71l6 33q21 107 65 155.5t120 48.5q25 0 49.5 -8t42.5 -21l-30 -88q-28 19 -54 19q-39 0 -55 -27.5t-27 -80.5l-6 -31h175l6 33q21 107 67.5 155.5t124.5 48.5q57 0 96 -31l-30 -89q-29 22 -61 22q-38 0 -56 -27.5t-29 -80.5l-6 -31h118l-18 -93
h-118l-83 -423h-112l82 423h-174l-82 -423h-112z" />
    <glyph glyph-name="uniFB01" unicode="fi" horiz-adv-x="540" 
d="M40 0l82 423h-81l30 93h70l6 33q21 107 65 155.5t120 48.5q53 0 92 -30l-30 -88q-27 20 -54 20q-39 0 -55 -27.5t-27 -80.5l-6 -31h287l-101 -516h-112l83 423h-175l-82 -423h-112zM502 601q-28 0 -43.5 16.5t-15.5 43.5q0 38 23 62t57 24q27 0 43.5 -17t16.5 -43
q0 -37 -23 -61.5t-58 -24.5z" />
    <glyph glyph-name="uniFB02" unicode="fl" horiz-adv-x="541" 
d="M40 0l82 423h-82l30 93h71l6 33q21 107 65 155.5t120 48.5q53 0 92 -30l-30 -88q-27 20 -54 20q-39 0 -55 -27.5t-27 -80.5l-6 -31h104l-17 -93h-105l-82 -423h-112zM327 0l144 740h112l-144 -740h-112z" />
    <glyph glyph-name="uniFB03" unicode="ffi" horiz-adv-x="826" 
d="M40 0l82 423h-81l30 93h70l6 33q21 107 65 155.5t120 48.5q53 0 92 -30l-30 -88q-27 20 -54 20q-39 0 -55 -27.5t-27 -80.5l-6 -31h175l6 33q21 107 65 155.5t120 48.5q53 0 92 -30l-30 -88q-27 20 -54 20q-39 0 -55 -27.5t-27 -80.5l-6 -31h287l-101 -516h-112l83 423
h-175l-82 -423h-112l82 423h-174l-82 -423h-112zM788 601q-28 0 -43.5 16.5t-15.5 43.5q0 38 23 62t57 24q27 0 43.5 -17t16.5 -43q0 -37 -23 -61.5t-58 -24.5z" />
    <glyph glyph-name="uniFB04" unicode="ffl" horiz-adv-x="827" 
d="M40 0l82 423h-82l30 93h71l6 33q21 107 65 155.5t120 48.5q53 0 92 -30l-30 -88q-27 20 -54 20q-39 0 -55 -27.5t-27 -80.5l-6 -31h175l6 33q21 107 65 155.5t120 48.5q53 0 92 -30l-30 -88q-27 20 -54 20q-39 0 -54.5 -27.5t-26.5 -80.5l-6 -31h104l-18 -93h-104
l-83 -423h-112l82 423h-174l-82 -423h-112zM613 0l144 740h112l-144 -740h-112z" />
    <glyph glyph-name="f_b" unicode="fb" horiz-adv-x="820" 
d="M40 0l82 423h-81l30 93h70l6 33q21 107 65 155.5t120 48.5q53 0 92 -30l-30 -88q-27 20 -54 20q-39 0 -55 -27.5t-27 -80.5l-6 -31h105l-17 -93h-106l-82 -423h-112zM569 -13q-99 0 -120 107l-23 -94h-99l144 740h112l-55 -282q23 33 54.5 52t72.5 19q63 0 100.5 -53.5
t37.5 -144.5q0 -39 -8.5 -85.5t-25.5 -92t-43.5 -83t-63 -60.5t-83.5 -23zM548 85q36 0 60.5 26.5t40 66t22 79.5t6.5 67q0 51 -18 78.5t-52 27.5q-37 0 -62 -26t-40 -64.5t-22 -78.5t-7 -67q0 -109 72 -109z" />
    <glyph glyph-name="f_h" unicode="fh" horiz-adv-x="796" 
d="M40 0l82 423h-82l30 93h71l6 33q21 107 65 155.5t120 48.5q53 0 92 -30l-30 -88q-27 20 -54 20q-39 0 -55 -27.5t-27 -80.5l-6 -31h104l-17 -93h-105l-82 -423h-112zM327 0l144 740h112l-56 -289q24 39 58.5 58.5t71.5 19.5q52 0 81.5 -33t29.5 -101q0 -23 -3 -46t-8 -45
l-59 -304h-112l57 295q7 37 9 52t2 25q0 55 -51 55q-36 0 -65.5 -35.5t-41.5 -98.5l-57 -293h-112z" />
    <glyph glyph-name="f_j" unicode="fj" horiz-adv-x="540" 
d="M40 0l82 423h-81l30 93h70l6 33q21 107 65 155.5t120 48.5q53 0 92 -30l-30 -88q-27 20 -54 20q-39 0 -55 -27.5t-27 -80.5l-6 -31h287l-110 -563q-16 -85 -55 -133.5t-119 -48.5q-53 0 -91 24l32 90q26 -17 55 -17t43.5 23t24.5 73l90 459h-175l-82 -423h-112zM502 601
q-28 0 -43.5 16.5t-15.5 43.5q0 38 23 62t57 24q27 0 43.5 -17t16.5 -43q0 -37 -23 -61.5t-58 -24.5z" />
    <glyph glyph-name="f_k" unicode="fk" horiz-adv-x="788" 
d="M40 0l82 423h-82l30 93h71l6 33q21 107 65 155.5t120 48.5q53 0 92 -30l-30 -88q-27 20 -54 20q-39 0 -55 -27.5t-27 -80.5l-6 -31h104l-17 -93h-105l-82 -423h-112zM327 0l144 740h112l-85 -437l201 213h129l-187 -193l90 -323h-119l-59 232l-86 -88l-28 -144h-112z" />
    <glyph glyph-name="f_t" unicode="ft" horiz-adv-x="629" 
d="M40 0l82 423h-82l30 93h71l6 33q21 107 65 155.5t120 48.5q53 0 92 -30l-30 -88q-27 20 -54 20q-39 0 -55 -27.5t-27 -80.5l-6 -31h171l32 167h112l-32 -167h115l-17 -93h-117l-45 -234q-2 -10 -4 -25.5t-2 -29.5q0 -28 12 -36.5t31 -8.5q17 0 33 5t32 14l-11 -97
q-40 -21 -95 -21t-86 29t-31 90q0 18 2.5 39t6.5 39l46 236h-171l-82 -423h-112z" />
    <glyph glyph-name="f_f_b" unicode="ffb" horiz-adv-x="1106" 
d="M40 0l82 423h-82l30 93h71l6 33q21 107 65 155.5t120 48.5q53 0 92 -30l-30 -88q-27 20 -54 20q-39 0 -55 -27.5t-27 -80.5l-6 -31h175l6 33q21 107 65 155.5t120 48.5q53 0 92 -30l-30 -88q-27 20 -54 20q-39 0 -54.5 -27.5t-26.5 -80.5l-6 -31h104l-18 -93h-104
l-83 -423h-112l82 423h-174l-82 -423h-112zM855 -13q-99 0 -120 107l-23 -94h-99l144 740h112l-55 -282q23 33 54.5 52t72.5 19q63 0 100.5 -53.5t37.5 -144.5q0 -39 -8.5 -85.5t-25.5 -92t-43.5 -83t-63 -60.5t-83.5 -23zM834 85q36 0 60.5 26.5t40 66t22 79.5t6.5 67
q0 51 -18 78.5t-52 27.5q-37 0 -62 -26t-40 -64.5t-22 -78.5t-7 -67q0 -109 72 -109z" />
    <glyph glyph-name="f_f_h" unicode="ffh" horiz-adv-x="1082" 
d="M40 0l82 423h-82l30 93h71l6 33q21 107 65 155.5t120 48.5q53 0 92 -30l-30 -88q-27 20 -54 20q-39 0 -55 -27.5t-27 -80.5l-6 -31h175l6 33q21 107 65 155.5t120 48.5q53 0 92 -30l-30 -88q-27 20 -54 20q-39 0 -54.5 -27.5t-26.5 -80.5l-6 -31h104l-18 -93h-104
l-83 -423h-112l82 423h-174l-82 -423h-112zM613 0l144 740h112l-56 -289q24 39 58.5 58.5t71.5 19.5q52 0 81.5 -33t29.5 -101q0 -23 -3 -46t-8 -45l-59 -304h-112l57 295q7 37 9 52t2 25q0 55 -51 55q-36 0 -65.5 -35.5t-41.5 -98.5l-57 -293h-112z" />
    <glyph glyph-name="f_f_j" unicode="ffj" horiz-adv-x="826" 
d="M40 0l82 423h-81l30 93h70l6 33q21 107 65 155.5t120 48.5q53 0 92 -30l-30 -88q-27 20 -54 20q-39 0 -55 -27.5t-27 -80.5l-6 -31h175l6 33q21 107 65 155.5t120 48.5q53 0 92 -30l-30 -88q-27 20 -54 20q-39 0 -55 -27.5t-27 -80.5l-6 -31h287l-109 -562
q-16 -87 -56 -134.5t-119 -47.5q-53 0 -91 24l32 90q26 -17 56 -17q29 0 43.5 23t24.5 73l89 458h-175l-82 -423h-112l82 423h-174l-82 -423h-112zM788 601q-28 0 -43.5 16.5t-15.5 43.5q0 38 23 62t57 24q27 0 43.5 -17t16.5 -43q0 -37 -23 -61.5t-58 -24.5z" />
    <glyph glyph-name="f_f_k" unicode="ffk" horiz-adv-x="1074" 
d="M40 0l82 423h-82l30 93h71l6 33q21 107 65 155.5t120 48.5q53 0 92 -30l-30 -88q-27 20 -54 20q-39 0 -55 -27.5t-27 -80.5l-6 -31h175l6 33q21 107 65 155.5t120 48.5q53 0 92 -30l-30 -88q-27 20 -54 20q-39 0 -54.5 -27.5t-26.5 -80.5l-6 -31h104l-18 -93h-104
l-83 -423h-112l82 423h-174l-82 -423h-112zM613 0l144 740h112l-85 -437l201 213h129l-187 -193l90 -323h-119l-59 232l-86 -88l-28 -144h-112z" />
    <glyph glyph-name="f_f_t" unicode="fft" horiz-adv-x="916" 
d="M40 0l82 419h-82l30 93h70l7 37q21 107 65 155.5t120 48.5q53 0 92 -30l-30 -88q-27 20 -54 20q-39 0 -55 -27.5t-27 -80.5l-7 -35h175l7 37q21 107 65 155.5t120 48.5q53 0 92 -30l-30 -88q-27 20 -54 20q-39 0 -54.5 -27.5t-26.5 -80.5l-7 -35h171l33 171h111l-33 -171
h117l-18 -93h-117l-44 -230q-2 -10 -4.5 -25.5t-2.5 -29.5q0 -28 12.5 -36.5t31.5 -8.5q31 0 64 19l-11 -97q-40 -21 -95 -21t-85.5 29t-30.5 90q0 40 8 78l45 232h-170l-82 -419h-112l82 419h-175l-81 -419h-112z" />
    <glyph glyph-name=".notdef" horiz-adv-x="500" 
d="M0 0v700h500v-700h-500zM249 394l162 260h-324zM446 82v536l-168 -268zM54 83l167 267l-167 266v-533zM87 46h324l-162 259z" />
    <glyph glyph-name="uni0000" 
 />
    <glyph glyph-name="uni0000" 
 />
    <glyph glyph-name="uni000D" unicode="&#xd;" horiz-adv-x="160" 
 />
    <glyph glyph-name="space" unicode=" " horiz-adv-x="160" 
 />
    <glyph glyph-name="exclam" unicode="!" horiz-adv-x="226" 
d="M55 218l82 482h118l-105 -482h-95zM68 -9q-31 0 -47.5 19t-16.5 47q0 32 22 58t58 26q31 0 47.5 -19t16.5 -48q0 -32 -22 -57.5t-58 -25.5z" />
    <glyph glyph-name="quotedbl" unicode="&#x22;" horiz-adv-x="344" 
d="M75 431l43 269h111l-61 -269h-93zM244 431l43 269h111l-61 -269h-93z" />
    <glyph glyph-name="numbersign" unicode="#" horiz-adv-x="484" 
d="M9 0l58 174h-62l17 81h72l59 178h-71l17 81h81l57 170h86l-57 -170h91l57 170h86l-57 -170h62l-17 -81h-72l-59 -178h72l-17 -81h-82l-58 -174h-86l58 174h-91l-58 -174h-86zM180 255h91l59 178h-91z" />
    <glyph glyph-name="dollar" unicode="$" horiz-adv-x="484" 
d="M141 -110l19 96q-48 3 -86.5 19t-73.5 47l36 87q55 -59 141 -66l46 236q-127 60 -127 175q0 90 55 148t147 65l19 97h59l-19 -98q81 -8 136 -58l-36 -86q-27 28 -55 41t-62 17l-44 -226q68 -33 98 -75t30 -99q0 -97 -55 -156t-150 -68l-19 -96h-59zM194 496
q0 -29 12 -48.5t36 -36.5l39 197q-41 -8 -64 -37t-23 -75zM324 196q0 28 -10.5 48.5t-37.5 37.5l-40 -207q88 18 88 121z" />
    <glyph glyph-name="percent" unicode="%" horiz-adv-x="722" 
d="M133 0l387 684h88l-388 -684h-87zM173 290q-51 0 -78 33.5t-27 95.5q0 77 21 138.5t57.5 98t80.5 36.5q50 0 77 -33.5t27 -95.5q0 -76 -21 -138t-56.5 -98.5t-80.5 -36.5zM176 356q14 0 28 19t25.5 50t18 69t6.5 75q0 57 -29 57q-15 0 -29 -19t-25 -50t-18 -68.5
t-7 -75.5q0 -57 30 -57zM533 -8q-51 0 -78 33.5t-27 95.5q0 77 21 138.5t57.5 98t80.5 36.5q50 0 77 -33.5t27 -95.5q0 -76 -21 -138t-56.5 -98.5t-80.5 -36.5zM536 58q14 0 28 19t25.5 50t18 69t6.5 75q0 57 -29 57q-15 0 -29 -19t-25 -50t-18 -68.5t-7 -75.5q0 -57 30 -57
z" />
    <glyph glyph-name="ampersand" unicode="&#x26;" horiz-adv-x="591" 
d="M202 -14q-86 0 -133.5 45.5t-47.5 126.5q0 142 151 221q-33 68 -33 133q0 60 22 105.5t62 71t93 25.5q64 0 102.5 -37.5t38.5 -105.5q0 -78 -42.5 -128.5t-112.5 -88.5l93 -155q19 33 32 73t18 87l95 -13q-9 -69 -34 -127.5t-61 -103.5l69 -115h-123l-24 41
q-78 -55 -165 -55zM236 519q0 -25 6.5 -49t22.5 -53q48 27 72 59t24 83q0 32 -13.5 50.5t-39.5 18.5q-34 0 -53 -31.5t-19 -77.5zM133 175q0 -44 21.5 -70t64.5 -26q55 0 105 37l-114 195q-77 -52 -77 -136z" />
    <glyph glyph-name="quotesingle" unicode="'" horiz-adv-x="175" 
d="M75 431l43 269h111l-61 -269h-93z" />
    <glyph glyph-name="parenleft" unicode="(" horiz-adv-x="293" 
d="M130 -188q-46 65 -72 155.5t-26 188.5q0 188 74 347t201 271l61 -56q-103 -106 -160 -252.5t-57 -324.5q0 -73 13 -144t39 -130z" />
    <glyph glyph-name="parenright" unicode=")" horiz-adv-x="293" 
d="M-1 -190l-61 56q104 106 160.5 252.5t56.5 324.5q0 74 -13 144.5t-39 129.5l73 55q47 -64 72.5 -155t25.5 -189q0 -187 -73.5 -346t-201.5 -272z" />
    <glyph glyph-name="asterisk" unicode="*" horiz-adv-x="380" 
d="M171 363l-63 49l92 104l-119 35l29 77l106 -54l-9 126h80l-10 -126l107 54l29 -77l-119 -36l91 -103l-62 -49l-76 111z" />
    <glyph glyph-name="plus" unicode="+" horiz-adv-x="484" 
d="M208 107v188h-160v96h160v186h101v-186h160v-96h-160v-188h-101z" />
    <glyph glyph-name="comma" unicode="," horiz-adv-x="226" 
d="M-19 -167l-28 51q36 16 66.5 44t46.5 63q-29 1 -45 19.5t-16 46.5q0 32 22 58t58 26q31 0 47.5 -20.5t16.5 -55.5q0 -43 -22 -89.5t-60 -85t-86 -57.5z" />
    <glyph glyph-name="hyphen" unicode="-" horiz-adv-x="310" 
d="M29 243l21 101h245l-21 -101h-245z" />
    <glyph glyph-name="hyphen" unicode="&#x2011;" horiz-adv-x="310" 
d="M29 243l21 101h245l-21 -101h-245z" />
    <glyph glyph-name="hyphen" unicode="&#x2010;" horiz-adv-x="310" 
d="M29 243l21 101h245l-21 -101h-245z" />
    <glyph glyph-name="hyphen" unicode="&#xad;" horiz-adv-x="310" 
d="M29 243l21 101h245l-21 -101h-245z" />
    <glyph glyph-name="period" unicode="." horiz-adv-x="226" 
d="M68 -9q-31 0 -47.5 19t-16.5 47q0 32 22 58t58 26q31 0 47.5 -19t16.5 -48q0 -32 -22 -57.5t-58 -25.5z" />
    <glyph glyph-name="slash" unicode="/" horiz-adv-x="382" 
d="M-69 -156l407 896h127l-408 -896h-126z" />
    <glyph glyph-name="zero" unicode="0" horiz-adv-x="484" 
d="M211 -14q-82 0 -125.5 58t-43.5 168q0 52 9.5 117t29.5 129.5t52.5 119t78 87.5t105.5 33q83 0 126 -58t43 -168q0 -52 -9.5 -117t-29.5 -129.5t-52 -119t-77.5 -87.5t-106.5 -33zM218 87q31 0 56 31t43 80.5t30 105t18 105.5t6 81q0 107 -60 107q-31 0 -56 -31
t-43.5 -80.5t-30.5 -105t-18 -105.5t-6 -81q0 -107 61 -107z" />
    <glyph glyph-name="one" unicode="1" horiz-adv-x="484" 
d="M179 0l105 545l-112 -75l-41 89l194 125h102l-133 -684h-115z" />
    <glyph glyph-name="two" unicode="2" horiz-adv-x="484" 
d="M3 0l17 87q59 56 107 101t98 97q66 68 95 118.5t29 104.5q0 43 -19 66t-57 23q-69 0 -139 -59l-15 93q39 32 84.5 49.5t97.5 17.5q74 0 119.5 -47t45.5 -127q0 -79 -41 -146t-120 -146q-47 -47 -141 -132h244l-32 -100h-373z" />
    <glyph glyph-name="three" unicode="3" horiz-adv-x="484" 
d="M171 -14q-49 0 -93.5 15t-76.5 40l38 87q62 -46 135 -46q56 0 90 37.5t34 99.5q0 43 -24 65t-68 22h-67l18 94h71q54 0 87 34.5t33 86.5q0 81 -81 81q-67 0 -139 -46l-6 88q37 26 79 40t92 14q77 0 124 -41.5t47 -115.5q0 -66 -35.5 -117t-92.5 -72q36 -14 56.5 -49
t20.5 -83q0 -70 -31.5 -123t-86 -82t-124.5 -29z" />
    <glyph glyph-name="four" unicode="4" horiz-adv-x="484" 
d="M240 0l30 152h-261l17 91l338 441h114l-85 -438h67l-29 -94h-56l-30 -152h-105zM133 246h155l53 271z" />
    <glyph glyph-name="five" unicode="5" horiz-adv-x="484" 
d="M170 -14q-49 0 -92 14.5t-74 39.5l39 88q57 -46 130 -46q63 0 98 40.5t35 105.5q0 47 -25 71t-71 24q-27 0 -49.5 -4t-45.5 -11l-35 19l94 357h299l-8 -101h-218l-47 -177q32 8 67 8q73 0 114.5 -47t41.5 -124q0 -75 -32 -133t-89 -91t-132 -33z" />
    <glyph glyph-name="six" unicode="6" horiz-adv-x="484" 
d="M223 -14q-81 0 -129 58t-48 161q0 105 24.5 195t69 157t105 104t133.5 37q40 0 71 -7.5t61 -25.5l-40 -93q-42 27 -102 27q-46 0 -85 -30.5t-68 -85.5t-42 -129q52 87 140 87q62 0 99 -45.5t37 -122.5q0 -83 -29 -148t-80 -102t-117 -37zM230 81q30 0 54.5 24.5t38.5 66
t14 92.5q0 42 -16.5 65t-46.5 23q-31 0 -57 -24t-41.5 -64.5t-15.5 -90.5q0 -44 18 -68t52 -24z" />
    <glyph glyph-name="seven" unicode="7" horiz-adv-x="484" 
d="M70 0l314 583h-275l32 101h379l-18 -97l-309 -587h-123z" />
    <glyph glyph-name="eight" unicode="8" horiz-adv-x="484" 
d="M204 -14q-85 0 -133 45t-48 121q0 71 38 126.5t102 76.5q-58 34 -58 123q0 63 28.5 113t77 78.5t106.5 28.5q77 0 120.5 -43t43.5 -116q0 -65 -32 -115t-87 -72q35 -14 53.5 -48.5t18.5 -82.5q0 -68 -29 -121t-81 -83.5t-120 -30.5zM278 398q41 0 67.5 36t26.5 91
q0 37 -16.5 58t-48.5 21q-40 0 -66.5 -36t-26.5 -90q0 -37 16.5 -58.5t47.5 -21.5zM212 80q47 0 76.5 39t29.5 100q0 41 -19.5 64t-54.5 23q-45 0 -75 -39.5t-30 -99.5q0 -41 19 -64t54 -23z" />
    <glyph glyph-name="nine" unicode="9" horiz-adv-x="484" 
d="M143 -14q-43 0 -74.5 8t-61.5 25l40 93q41 -27 102 -27q70 0 119.5 62t74.5 181q-53 -85 -139 -85q-64 0 -100 47t-36 121q0 55 15.5 106t44.5 92t71 65t95 24q88 0 132.5 -56.5t44.5 -144.5q0 -94 -22 -185t-64 -165t-103 -117.5t-139 -43.5zM245 332q38 0 62.5 28.5
t37 70t12.5 80.5q0 44 -18.5 68t-53.5 24q-27 0 -46.5 -17t-32.5 -44.5t-19.5 -59.5t-6.5 -62q0 -40 16.5 -64t48.5 -24z" />
    <glyph glyph-name="colon" unicode=":" horiz-adv-x="226" 
d="M68 -9q-31 0 -47.5 19t-16.5 47q0 32 22 58t58 26q31 0 47.5 -19t16.5 -48q0 -32 -22 -57.5t-58 -25.5zM143 375q-31 0 -47.5 19t-16.5 47q0 32 22 58t58 26q31 0 47.5 -19t16.5 -48q0 -32 -22 -57.5t-58 -25.5z" />
    <glyph glyph-name="semicolon" unicode=";" horiz-adv-x="226" 
d="M-19 -167l-28 51q36 16 66.5 44t46.5 63q-29 1 -45 19.5t-16 46.5q0 32 22 58t58 26q31 0 47.5 -20.5t16.5 -55.5q0 -43 -22 -89.5t-60 -85t-86 -57.5zM146 375q-31 0 -47.5 19t-16.5 47q0 32 22 58t58 26q31 0 47.5 -19t16.5 -48q0 -32 -22 -57.5t-58 -25.5z" />
    <glyph glyph-name="less" unicode="&#x3c;" horiz-adv-x="484" 
d="M450 114l-420 181v94l420 181v-112l-315 -115l315 -115v-114z" />
    <glyph glyph-name="equal" unicode="=" horiz-adv-x="484" 
d="M49 169v96h420v-96h-420zM49 417v96h420v-96h-420z" />
    <glyph glyph-name="greater" unicode="&#x3e;" horiz-adv-x="484" 
d="M66 114v114l315 115l-315 115v112l420 -181v-94z" />
    <glyph glyph-name="question" unicode="?" horiz-adv-x="405" 
d="M118 218l2 20q5 50 26.5 88t76.5 82q50 40 68 68.5t18 68.5q0 73 -72 73q-59 0 -124 -41l-7 93q35 22 78 34t83 12q74 0 116.5 -41t42.5 -111q0 -45 -12.5 -80t-39 -66t-67.5 -66q-37 -32 -55 -51.5t-24 -33.5t-9 -30l-3 -19h-98zM145 -9q-31 0 -47.5 19t-16.5 47
q0 32 22 58t58 26q31 0 47.5 -19t16.5 -48q0 -32 -22 -57.5t-58 -25.5z" />
    <glyph glyph-name="at" unicode="@" horiz-adv-x="789" 
d="M341 -212q-145 0 -228 91.5t-83 266.5q0 125 33 225.5t92 171.5t139.5 109t174.5 38q91 0 157 -38.5t102 -110t36 -171.5q0 -73 -17 -137.5t-47 -113.5t-70 -77t-86 -28q-42 0 -67 24t-28 69q-19 -42 -50.5 -65.5t-67.5 -23.5q-55 0 -86 44.5t-31 123.5t25 141t66 98
t89 36q40 0 65 -25.5t31 -69.5l21 82l84 -1l-55 -251q-3 -13 -6 -31.5t-3 -32.5q0 -23 8.5 -33t22.5 -10q32 0 57.5 38.5t41 101.5t15.5 135q0 122 -54.5 185t-160.5 63q-98 0 -176.5 -55t-124 -158t-45.5 -248q0 -141 61.5 -213t174.5 -72q50 0 87 11t74 30l9 -74
q-37 -20 -79.5 -32.5t-100.5 -12.5zM368 102q29 0 51.5 26.5t35 70t12.5 94.5q0 84 -55 84q-27 0 -49.5 -23.5t-35.5 -65t-13 -95.5q0 -48 14.5 -69.5t39.5 -21.5z" />
    <glyph glyph-name="A" unicode="A" horiz-adv-x="564" 
d="M-40 0l347 700h122l75 -700h-120l-13 171h-206l-79 -171h-126zM211 271h153l-21 285z" />
    <glyph glyph-name="B" unicode="B" horiz-adv-x="520" 
d="M10 0l136 700h184q86 0 135 -42.5t49 -116.5q0 -67 -36 -114t-99 -65q46 -12 72.5 -45t26.5 -83q0 -109 -70.5 -171.5t-194.5 -62.5h-203zM308 607h-68l-38 -199h68q65 0 97 36.5t32 92.5q0 70 -91 70zM262 317h-78l-44 -224h78q74 0 109.5 41t35.5 105q0 38 -26 58
t-75 20z" />
    <glyph glyph-name="C" unicode="C" horiz-adv-x="544" 
d="M307 -16q-124 0 -191.5 74t-67.5 210q0 62 15 125.5t44.5 121.5t74 103t104 71.5t133.5 26.5q92 0 160 -54l-42 -98q-54 47 -119 47q-66 0 -113 -32.5t-76.5 -84t-43.5 -110t-14 -109.5q0 -186 155 -186q35 0 67 12t69 37l5 -110q-70 -44 -160 -44z" />
    <glyph glyph-name="D" unicode="D" horiz-adv-x="591" 
d="M10 0l136 700h198q67 0 119.5 -29t83 -88t30.5 -149q0 -95 -25.5 -174.5t-72.5 -137.5t-112.5 -90t-145.5 -32h-211zM313 597h-70l-96 -494h87q65 0 114.5 40.5t77.5 114.5t28 172q0 167 -141 167z" />
    <glyph glyph-name="E" unicode="E" horiz-adv-x="470" 
d="M10 0l136 700h357l-4 -102h-257l-37 -191h234l-20 -102h-234l-39 -203h273l-32 -102h-377z" />
    <glyph glyph-name="F" unicode="F" horiz-adv-x="448" 
d="M10 0l136 700h353l-4 -102h-253l-39 -203h227l-20 -102h-227l-57 -293h-116z" />
    <glyph glyph-name="G" unicode="G" horiz-adv-x="580" 
d="M308 -16q-124 0 -192 72t-68 212q0 62 14.5 125.5t44 121.5t74 103t104 71.5t134.5 26.5q56 0 98.5 -15t76.5 -41l-42 -98q-29 25 -59.5 37t-74.5 12q-67 0 -114.5 -32.5t-76.5 -84t-42.5 -110t-13.5 -109.5q0 -95 39.5 -140.5t109.5 -45.5q39 0 71 7l38 192h-107l18 95
h216l-69 -356q-36 -19 -80 -31t-99 -12z" />
    <glyph glyph-name="H" unicode="H" horiz-adv-x="578" 
d="M10 0l136 700h118l-57 -292h222l57 292h118l-136 -700h-118l59 302h-222l-59 -302h-118z" />
    <glyph glyph-name="I" unicode="I" horiz-adv-x="238" 
d="M10 0l136 700h118l-136 -700h-118z" />
    <glyph glyph-name="J" unicode="J" horiz-adv-x="430" 
d="M127 -16q-46 0 -83.5 13t-63.5 35l35 94q23 -17 49.5 -27.5t60.5 -10.5q36 0 60.5 16t42 56t31.5 113l83 427h118l-84 -432q-18 -93 -46.5 -156.5t-77 -95.5t-125.5 -32z" />
    <glyph glyph-name="K" unicode="K" horiz-adv-x="550" 
d="M10 0l136 700h118l-62 -317l272 317h136l-251 -283l131 -417h-127l-93 316l-103 -116l-39 -200h-118z" />
    <glyph glyph-name="L" unicode="L" horiz-adv-x="447" 
d="M10 0l136 700h117l-115 -595h261l-33 -105h-366z" />
    <glyph glyph-name="M" unicode="M" horiz-adv-x="686" 
d="M10 0l136 700h143l50 -459l230 459h143l-136 -700h-108l103 529l-209 -411h-92l-48 417l-104 -535h-108z" />
    <glyph glyph-name="N" unicode="N" horiz-adv-x="575" 
d="M10 0l136 700h116l131 -500l97 500h111l-136 -700h-115l-132 500l-97 -500h-111z" />
    <glyph glyph-name="O" unicode="O" horiz-adv-x="635" 
d="M286 -16q-72 0 -125.5 35t-83 98.5t-29.5 150.5q0 58 13 120t39.5 120.5t66.5 105.5t94.5 74.5t122.5 27.5q73 0 126 -35t82.5 -98.5t29.5 -150.5q0 -58 -13 -120t-39.5 -120.5t-66.5 -105.5t-94.5 -74.5t-122.5 -27.5zM293 89q45 0 79 24t58.5 63t39.5 86t22 92.5
t7 82.5q0 83 -31.5 128.5t-90.5 45.5q-45 0 -79 -24t-58 -63t-39.5 -86t-22.5 -92.5t-7 -82.5q0 -82 32 -128t90 -46z" />
    <glyph glyph-name="P" unicode="P" horiz-adv-x="490" 
d="M10 0l136 700h180q83 0 130 -48.5t47 -135.5q0 -124 -68 -194.5t-188 -70.5h-73l-49 -251h-115zM304 604h-61l-50 -257h60q68 0 100.5 48t32.5 121q0 88 -82 88z" />
    <glyph glyph-name="Q" unicode="Q" horiz-adv-x="635" 
d="M286 -16q-72 0 -125.5 35t-83 98.5t-29.5 150.5q0 58 13 120t39.5 120.5t66.5 105.5t94.5 74.5t122.5 27.5q73 0 126 -35t82.5 -98.5t29.5 -150.5q0 -56 -12.5 -116.5t-37 -117.5t-62.5 -103l65 -117l-77 -51l-58 104q-32 -22 -70.5 -34.5t-83.5 -12.5zM293 89
q28 0 51.5 10t43.5 27l-67 120l76 51l50 -90q28 55 40 118.5t12 111.5q0 83 -31.5 128.5t-90.5 45.5q-45 0 -79 -24t-58 -63t-39.5 -86t-22.5 -92.5t-7 -82.5q0 -82 32 -128t90 -46z" />
    <glyph glyph-name="R" unicode="R" horiz-adv-x="518" 
d="M10 0l136 700h182q83 0 132 -47t49 -132t-35 -143t-101 -86l72 -292h-121l-55 264h-17h-76l-51 -264h-115zM306 604h-64l-47 -244h60q68 0 102 45t34 115q0 84 -85 84z" />
    <glyph glyph-name="S" unicode="S" horiz-adv-x="470" 
d="M184 -16q-56 0 -107 17.5t-92 52.5l44 99q33 -34 76 -51.5t85 -17.5q56 0 84.5 31.5t28.5 80.5q0 43 -23 66t-73 52q-29 17 -58.5 39.5t-49 58t-19.5 91.5q0 63 28 111t79.5 75t123.5 27q53 0 97 -17t78 -49l-40 -95q-64 61 -135 61q-52 0 -82.5 -27t-30.5 -74
q0 -41 23.5 -65.5t66.5 -48.5q44 -24 74 -49t45.5 -58.5t15.5 -84.5q0 -67 -28.5 -117.5t-82 -79t-128.5 -28.5z" />
    <glyph glyph-name="T" unicode="T" horiz-adv-x="485" 
d="M134 0l115 595h-170l20 105h459l-20 -105h-171l-115 -595h-118z" />
    <glyph glyph-name="U" unicode="U" horiz-adv-x="571" 
d="M250 -16q-97 0 -148.5 48.5t-51.5 145.5q0 25 3 53t7 46l83 423h117l-81 -417q-10 -53 -10 -94q0 -52 23.5 -76t69.5 -24q60 0 91 48t50 148l81 415h117l-83 -425q-17 -86 -48.5 -152t-84.5 -102.5t-135 -36.5z" />
    <glyph glyph-name="V" unicode="V" horiz-adv-x="555" 
d="M165 0l-69 700h125l33 -552l250 552h127l-342 -700h-124z" />
    <glyph glyph-name="W" unicode="W" horiz-adv-x="774" 
d="M110 0l-11 700h121l-12 -539l208 539h116l1 -525l194 525h120l-283 -700h-123l2 523l-209 -523h-124z" />
    <glyph glyph-name="X" unicode="X" horiz-adv-x="549" 
d="M-40 0l271 369l-119 331h123l77 -243l166 243h131l-252 -345l132 -355h-125l-89 265l-182 -265h-133z" />
    <glyph glyph-name="Y" unicode="Y" horiz-adv-x="536" 
d="M159 0l55 282l-117 418h121l73 -314l185 314h135l-279 -418l-56 -282h-117z" />
    <glyph glyph-name="Z" unicode="Z" horiz-adv-x="509" 
d="M-14 0l18 95l392 503h-284l31 102h406l-19 -95l-390 -503h307l-31 -102h-430z" />
    <glyph glyph-name="bracketleft" unicode="[" horiz-adv-x="291" 
d="M-20 -156l174 896h200l-11 -92h-99l-133 -712h102l-24 -92h-209z" />
    <glyph glyph-name="backslash" unicode="\" horiz-adv-x="382" 
d="M163 -156l-58 896h113l58 -896h-113z" />
    <glyph glyph-name="bracketright" unicode="]" horiz-adv-x="290" 
d="M-50 -156l11 92h99l133 712h-102l24 92h209l-174 -896h-200z" />
    <glyph glyph-name="asciicircum" unicode="^" horiz-adv-x="484" 
d="M38 290l165 394h90l165 -394h-116l-96 279l-97 -279h-111z" />
    <glyph glyph-name="underscore" unicode="_" horiz-adv-x="375" 
d="M-80 -153l19 95h375l-19 -95h-375z" />
    <glyph glyph-name="grave" unicode="`" horiz-adv-x="380" 
d="M218 594l-88 155h118l61 -155h-91z" />
    <glyph glyph-name="a" unicode="a" horiz-adv-x="446" 
d="M132 -13q-56 0 -89.5 36.5t-33.5 96.5q0 95 66 147t190 53l38 1q4 23 4 41q0 74 -84 74q-66 0 -122 -46l-9 95q64 44 150 44q81 0 126 -41.5t45 -112.5q0 -40 -8 -80l-57 -295h-96l9 65q-45 -78 -129 -78zM118 134q0 -28 15 -43t40 -15q42 0 69 36.5t39 98.5l8 38h-24
q-147 -3 -147 -115z" />
    <glyph glyph-name="b" unicode="b" horiz-adv-x="495" 
d="M244 -13q-99 0 -120 107l-23 -94h-99l144 740h112l-55 -282q23 33 54.5 52t72.5 19q63 0 100.5 -53.5t37.5 -144.5q0 -39 -8.5 -85.5t-25.5 -92t-43.5 -83t-63 -60.5t-83.5 -23zM223 85q36 0 60.5 26.5t40 66t22 79.5t6.5 67q0 51 -18 78.5t-52 27.5q-37 0 -62 -26
t-40 -64.5t-22 -78.5t-7 -67q0 -109 72 -109z" />
    <glyph glyph-name="c" unicode="c" horiz-adv-x="422" 
d="M232 -13q-97 0 -150 56t-53 158q0 57 17.5 114.5t52.5 106t87.5 78t122.5 29.5q69 0 120 -40l-38 -88q-19 16 -39 22.5t-44 6.5q-44 0 -75 -21.5t-51 -55.5t-29 -72.5t-9 -72.5q0 -123 104 -123q44 0 93 32l4 -100q-49 -30 -113 -30z" />
    <glyph glyph-name="d" unicode="d" horiz-adv-x="493" 
d="M165 -13q-64 0 -101 53.5t-37 143.5q0 40 8 86.5t25.5 92t44 83t62.5 60.5t83 23q89 0 115 -87l58 298h112l-144 -740h-99l12 79q-24 -42 -58.5 -67t-80.5 -25zM212 85q37 0 62 26t40.5 65t22.5 78.5t7 66.5q0 109 -73 109q-36 0 -60.5 -26.5t-39.5 -66t-21.5 -79
t-6.5 -66.5q0 -51 17.5 -79t51.5 -28z" />
    <glyph glyph-name="e" unicode="e" horiz-adv-x="450" 
d="M229 -13q-96 0 -148 54.5t-52 154.5q0 53 14.5 110.5t44.5 108.5t76 82.5t109 31.5q74 0 114 -48.5t40 -137.5q0 -24 -3.5 -55.5t-10.5 -61.5h-277q-1 -13 -1 -24q0 -121 111 -121q53 0 112 40l5 -98q-63 -36 -134 -36zM265 441q-31 0 -53.5 -20.5t-38 -52.5t-24.5 -66
h174q4 31 4 50q0 89 -62 89z" />
    <glyph glyph-name="f" unicode="f" horiz-adv-x="326" 
d="M42 0l82 423h-84l30 93h73l6 33q21 107 67.5 155.5t124.5 48.5q55 0 96 -31l-30 -89q-31 22 -62 22q-37 0 -55.5 -27.5t-29.5 -80.5l-6 -31h118l-17 -93h-119l-82 -423h-112z" />
    <glyph glyph-name="g" unicode="g" horiz-adv-x="496" 
d="M146 -229q-46 0 -88 13.5t-70 34.5l32 94q55 -45 128 -45q62 0 93 45.5t47 120.5l9 44q-23 -36 -55.5 -57t-74.5 -21q-64 0 -101 54t-37 139q0 39 8 84t25.5 89.5t44 81.5t62.5 59t83 22q48 0 79 -27.5t41 -78.5l23 93h99l-91 -470q-15 -80 -44.5 -142t-80.5 -97.5
t-132 -35.5zM214 98q37 0 62 25t40.5 62t22.5 75t7 65q0 50 -19 77.5t-54 27.5q-36 0 -60.5 -25.5t-39.5 -63t-21.5 -76t-6.5 -64.5q0 -46 17.5 -74.5t51.5 -28.5z" />
    <glyph glyph-name="h" unicode="h" horiz-adv-x="471" 
d="M2 0l144 740h112l-56 -289q24 39 58.5 58.5t71.5 19.5q52 0 81.5 -33t29.5 -101q0 -23 -3 -46t-8 -45l-59 -304h-112l57 295q7 37 9 52t2 25q0 55 -51 55q-36 0 -65.5 -35.5t-41.5 -98.5l-57 -293h-112z" />
    <glyph glyph-name="i" unicode="i" horiz-adv-x="216" 
d="M178 601q-28 0 -43.5 16.5t-15.5 43.5q0 38 23 62t57 24q27 0 43.5 -17t16.5 -43q0 -37 -23 -61.5t-58 -24.5zM2 0l101 516h112l-101 -516h-112z" />
    <glyph glyph-name="j" unicode="j" horiz-adv-x="216" 
d="M178 601q-28 0 -43.5 16.5t-15.5 43.5q0 38 23 62t57 24q27 0 43.5 -17t16.5 -43q0 -37 -23 -61.5t-58 -24.5zM-69 -229q-53 0 -91 24l32 90q26 -17 55 -17t43.5 23t24.5 73l108 552h112l-110 -563q-17 -87 -56 -134.5t-118 -47.5z" />
    <glyph glyph-name="k" unicode="k" horiz-adv-x="463" 
d="M2 0l144 740h112l-85 -437l201 213h129l-187 -193l90 -323h-119l-59 232l-86 -88l-28 -144h-112z" />
    <glyph glyph-name="l" unicode="l" horiz-adv-x="216" 
d="M2 0l144 740h112l-144 -740h-112z" />
    <glyph glyph-name="m" unicode="m" horiz-adv-x="707" 
d="M2 0l101 516h99l-11 -76q25 45 61 67t74 22q42 0 69 -24.5t36 -69.5q25 47 62.5 70.5t77.5 23.5q50 0 79 -34.5t29 -102.5q0 -22 -3 -45t-7 -43l-59 -304h-112l58 295q4 20 7 40.5t3 36.5q0 55 -45 55q-34 0 -62 -36.5t-40 -97.5l-57 -293h-112l58 295q4 20 7 40.5
t3 36.5q0 55 -45 55q-34 0 -62 -36.5t-40 -97.5l-57 -293h-112z" />
    <glyph glyph-name="n" unicode="n" horiz-adv-x="471" 
d="M2 0l101 516h99l-11 -76q25 44 62.5 66.5t78.5 22.5q52 0 81.5 -33t29.5 -101q0 -22 -3 -45.5t-8 -45.5l-59 -304h-112l57 295q7 37 9 52t2 25q0 55 -51 55q-36 0 -65.5 -35.5t-41.5 -98.5l-57 -293h-112z" />
    <glyph glyph-name="o" unicode="o" horiz-adv-x="486" 
d="M206 -13q-81 0 -129 57t-48 153q0 54 15.5 112t46.5 108t78 81t111 31q81 0 129 -57t48 -153q0 -54 -15.5 -112t-46.5 -108t-78 -81t-111 -31zM214 85q33 0 57.5 24.5t40 62t23 78.5t7.5 73q0 52 -17.5 79.5t-52.5 27.5q-33 0 -57.5 -24.5t-40 -62t-23 -78t-7.5 -72.5
q0 -108 70 -108z" />
    <glyph glyph-name="p" unicode="p" horiz-adv-x="495" 
d="M-40 -216l143 732h99l-11 -74q24 40 58.5 63.5t80.5 23.5q63 0 100.5 -53.5t37.5 -144.5q0 -39 -8.5 -85.5t-25.5 -92t-43.5 -83t-63 -60.5t-83.5 -23q-89 0 -115 88l-57 -291h-112zM223 85q36 0 60.5 26.5t40 66t22 79.5t6.5 67q0 51 -18 78.5t-52 27.5q-37 0 -62 -26
t-40 -64.5t-22 -78.5t-7 -67q0 -109 72 -109z" />
    <glyph glyph-name="q" unicode="q" horiz-adv-x="494" 
d="M237 -216l54 274q-23 -33 -54.5 -52t-71.5 -19q-64 0 -101 53.5t-37 143.5q0 40 8 86.5t25.5 92t44 83t62.5 60.5t83 23q48 0 79 -27.5t41 -78.5l23 93h99l-143 -732h-112zM212 85q37 0 62 26t40.5 65t22.5 78.5t7 66.5q0 109 -73 109q-36 0 -60.5 -26.5t-39.5 -66
t-21.5 -79t-6.5 -66.5q0 -51 17.5 -79t51.5 -28z" />
    <glyph glyph-name="r" unicode="r" horiz-adv-x="328" 
d="M2 0l101 516h99l-14 -99q24 52 58.5 80.5t76.5 28.5q15 0 27.5 -3.5t19.5 -8.5l-29 -106q-19 9 -44 9q-33 0 -60 -23t-46.5 -61t-28.5 -85l-48 -248h-112z" />
    <glyph glyph-name="s" unicode="s" horiz-adv-x="382" 
d="M137 -13q-43 0 -83.5 14t-71.5 40l37 87q53 -50 120 -50q37 0 58 17t21 47q0 26 -15 43t-57 36q-51 23 -76.5 58.5t-25.5 86.5q0 77 53.5 120t137.5 43q38 0 75.5 -14t65.5 -37l-34 -85q-47 44 -111 44q-35 0 -56 -18.5t-21 -44.5q0 -24 15.5 -41.5t58.5 -37.5
q50 -23 75.5 -55.5t25.5 -79.5q0 -83 -51.5 -128t-140.5 -45z" />
    <glyph glyph-name="t" unicode="t" horiz-adv-x="348" 
d="M186 -10q-55 0 -86 29t-31 90q0 18 2.5 39t6.5 39l46 236h-84l30 93h72l32 167h112l-32 -167h115l-17 -93h-117l-45 -234q-2 -10 -4 -25.5t-2 -29.5q0 -28 12 -36.5t31 -8.5q17 0 33 5t32 14l-11 -97q-40 -21 -95 -21z" />
    <glyph glyph-name="u" unicode="u" horiz-adv-x="466" 
d="M138 -13q-51 0 -80.5 33t-29.5 101q0 23 3.5 46t7.5 45l59 304h112l-57 -295q-4 -22 -7.5 -42.5t-3.5 -34.5q0 -56 49 -56q35 0 63.5 36t40.5 99l57 293h112l-101 -516h-99l11 77q-25 -45 -61.5 -67.5t-75.5 -22.5z" />
    <glyph glyph-name="v" unicode="v" horiz-adv-x="447" 
d="M115 0l-58 516h118l21 -393l174 393h120l-260 -516h-115z" />
    <glyph glyph-name="w" unicode="w" horiz-adv-x="649" 
d="M83 0l-23 516h114l-1 -379l147 379h110l1 -382l145 382h113l-222 -516h-118l1 383l-150 -383h-117z" />
    <glyph glyph-name="x" unicode="x" horiz-adv-x="457" 
d="M-34 0l207 269l-102 247h114l59 -169l119 169h123l-200 -258l105 -258h-115l-62 176l-124 -176h-124z" />
    <glyph glyph-name="y" unicode="y" horiz-adv-x="449" 
d="M14 -229q-45 0 -76 17l23 93q18 -12 50 -12t55 22.5t51 80.5l11 23l-71 521h118l29 -396l168 396h120l-279 -574q-31 -64 -60 -101.5t-62 -53.5t-77 -16z" />
    <glyph glyph-name="z" unicode="z" horiz-adv-x="412" 
d="M-16 0l15 83l278 342h-212l29 91h324l-16 -84l-276 -341h224l-29 -91h-337z" />
    <glyph glyph-name="braceleft" unicode="{" horiz-adv-x="285" 
d="M118 -156q-49 0 -75.5 32t-26.5 82q0 46 12 86t24 76.5t12 72.5q0 28 -10.5 41t-36.5 13l18 90q36 0 54.5 21.5t25.5 68.5q3 19 4.5 47t4 58.5t6.5 55.5q13 74 56 113t106 39h53l-3 -92h-30q-33 0 -51.5 -21t-27.5 -74q-5 -31 -6 -54t-1.5 -45t-6.5 -53q-8 -41 -34 -69.5
t-65 -39.5q28 -8 43 -29t15 -51q0 -33 -11.5 -71t-23.5 -77t-12 -74q0 -30 14 -42t36 -12h26l-26 -92h-63z" />
    <glyph glyph-name="bar" unicode="|" horiz-adv-x="240" 
d="M-28 -216l186 956h112l-186 -956h-112z" />
    <glyph glyph-name="braceright" unicode="}" horiz-adv-x="285" 
d="M-47 -156l3 92h30q33 0 51.5 21.5t27.5 73.5q6 32 6.5 54.5l1 45t6.5 52.5q8 41 34 69.5t65 39.5q-28 8 -43 29t-15 51q0 33 12 71t23.5 77t11.5 74q0 30 -13.5 42t-36.5 12h-26l26 92h63q50 0 76 -32t26 -82q0 -46 -12 -86t-24 -76.5t-12 -72.5q0 -28 11 -41t36 -13
l-18 -90q-36 0 -54 -21.5t-26 -68.5q-3 -19 -4.5 -47t-3.5 -58t-7 -56q-13 -74 -56 -113t-106 -39h-53z" />
    <glyph glyph-name="asciitilde" unicode="~" horiz-adv-x="484" 
d="M128 236l-91 9q4 107 32 154.5t89 47.5q29 0 55.5 -13.5t62.5 -47.5q32 -31 49 -41.5t29 -10.5q18 0 25.5 23.5t9.5 89.5l90 -8q-3 -107 -31.5 -155t-89.5 -48q-31 0 -58.5 14.5t-63.5 48.5q-28 26 -44 38.5t-30 12.5q-18 0 -25 -23.5t-9 -90.5z" />
    <glyph glyph-name="uni00A0" unicode="&#xa0;" horiz-adv-x="160" 
 />
    <glyph glyph-name="exclamdown" unicode="&#xa1;" horiz-adv-x="226" 
d="M142 371q-31 0 -47.5 19t-16.5 48q0 32 22 57.5t58 25.5q31 0 47.5 -18.5t16.5 -47.5q0 -32 -22 -58t-58 -26zM-29 -188l105 482h95l-82 -482h-118z" />
    <glyph glyph-name="cent" unicode="&#xa2;" horiz-adv-x="484" 
d="M131 -35l46 135q-48 23 -75 73.5t-27 123.5q0 96 34 169t94.5 113.5t137.5 40.5h10l40 115h73l-42 -128q32 -11 54 -30l-38 -88q-21 17 -47 25l-111 -334q5 -1 12 -1q30 0 55.5 8t54.5 26l2 -95q-29 -19 -65 -28t-74 -9q-10 0 -20 1l-40 -117h-74zM190 304q0 -61 25 -93
l103 309q-60 -9 -94 -66t-34 -150z" />
    <glyph glyph-name="sterling" unicode="&#xa3;" horiz-adv-x="484" 
d="M11 0l19 86q54 35 76 82.5t22 111.5v37h-70l15 74h54v25.5v24.5q0 257 237 257q89 0 149 -51l-39 -95q-28 24 -55 34.5t-54 10.5q-126 0 -126 -164v-19v-23h144l-15 -74h-127v-35q0 -67 -20 -110.5t-56 -70.5h259l-31 -101h-382z" />
    <glyph glyph-name="currency" unicode="&#xa4;" horiz-adv-x="484" 
d="M139 82l-58 52l77 84q-21 24 -32.5 55.5t-11.5 68.5t11.5 68.5t32.5 55.5l-77 84l58 52l81 -89q40 19 88 19t88 -19l81 89l58 -52l-77 -84q21 -24 32.5 -55.5t11.5 -68.5t-11.5 -68.5t-32.5 -55.5l77 -84l-58 -52l-81 89q-40 -19 -88 -19t-88 19zM308 241q43 0 69.5 28
t26.5 73q0 44 -26.5 72.5t-69.5 28.5t-69 -28.5t-26 -72.5q0 -45 26 -73t69 -28z" />
    <glyph glyph-name="yen" unicode="&#xa5;" horiz-adv-x="484" 
d="M34 116l15 73h121l16 82h-122l15 73h90l-90 340h116l71 -306l179 306h127l-226 -340h94l-15 -73h-124l-16 -82h125l-15 -73h-124l-23 -116h-115l23 116h-122z" />
    <glyph glyph-name="brokenbar" unicode="&#xa6;" horiz-adv-x="240" 
d="M85 363l73 377h112l-74 -377h-111zM-28 -216l77 396h112l-77 -396h-112z" />
    <glyph glyph-name="section" unicode="&#xa7;" horiz-adv-x="430" 
d="M130 -170q-92 0 -155 52l39 88q28 -25 55.5 -37t64.5 -12q44 0 66 22.5t22 62.5q0 43 -50 73l-58 35q-35 22 -57.5 53t-22.5 77q0 60 30.5 103t90.5 72q-44 46 -44 111q0 84 53 135t139 51q41 0 76 -11.5t65 -37.5l-37 -86q-24 23 -49.5 33.5t-55.5 10.5q-39 0 -60 -21.5
t-21 -60.5q0 -24 12.5 -41.5t36.5 -31.5l55 -33q41 -25 61 -55t20 -73q0 -58 -30.5 -102.5t-86.5 -75.5q22 -21 33.5 -46.5t11.5 -57.5q0 -58 -26 -102.5t-72 -69.5t-106 -25zM192 196l41 -24q65 41 65 108q0 30 -14.5 46t-35.5 29l-42 25q-30 -18 -47 -45t-17 -64
q0 -28 14 -44.5t36 -30.5z" />
    <glyph glyph-name="dieresis" unicode="&#xa8;" horiz-adv-x="380" 
d="M356 609q-25 0 -39 16t-14 40q0 27 18 48.5t49 21.5q26 0 39.5 -16t13.5 -40q0 -27 -18 -48.5t-49 -21.5zM171 609q-25 0 -39 16t-14 40q0 27 18 48.5t49 21.5q26 0 39.5 -16t13.5 -40q0 -27 -18 -48.5t-49 -21.5z" />
    <glyph glyph-name="copyright" unicode="&#xa9;" horiz-adv-x="697" 
d="M367 -16q-91 0 -159.5 46t-106 128.5t-37.5 191.5t37.5 191t106 128.5t159.5 46.5q92 0 159.5 -46.5t105 -128.5t37.5 -191q0 -108 -37.5 -190.5t-105 -129t-159.5 -46.5zM367 57q69 0 119 36t77 102t27 156q0 89 -27 155t-77 102t-119 36t-119.5 -36t-77.5 -102
t-27 -155t27 -155.5t77.5 -102.5t119.5 -36zM394 139q-85 0 -133 55.5t-48 152.5t49 155.5t134 58.5q51 0 92 -26l-19 -78q-16 11 -32.5 16t-33.5 5q-44 0 -68.5 -33t-24.5 -94q0 -130 95 -130q17 0 34 5.5t35 18.5l18 -77q-19 -14 -45.5 -21.5t-52.5 -7.5z" />
    <glyph glyph-name="ordfeminine" unicode="&#xaa;" horiz-adv-x="342" 
d="M150 308q-38 0 -62.5 27.5t-24.5 76.5q0 68 43.5 105.5t137.5 39.5l28 1q1 8 2 16.5t1 16.5q0 47 -47 47q-24 0 -46 -7.5t-51 -25.5l-2 69q29 19 60 27.5t64 8.5q106 0 106 -105q0 -15 -3 -33.5t-8 -45.5l-40 -208h-71l8 52q-17 -29 -40.5 -45.5t-54.5 -16.5zM142 421
q0 -23 10.5 -35t27.5 -12q27 0 47 25.5t29 71.5l6 31l-25 -1q-95 -3 -95 -80z" />
    <glyph glyph-name="guillemotleft" unicode="&#xab;" horiz-adv-x="501" 
d="M97 52l-65 210l146 210h118l-148 -217l59 -203h-110zM309 52l-65 210l146 210h118l-148 -217l59 -203h-110z" />
    <glyph glyph-name="logicalnot" unicode="&#xac;" horiz-adv-x="484" 
d="M389 142v188h-319v96h420v-284h-101z" />
    <glyph glyph-name="registered" unicode="&#xae;" horiz-adv-x="415" 
d="M256 302q-77 0 -123 56.5t-46 150.5t46 150.5t123 56.5q78 0 124 -56.5t46 -150.5t-46 -150.5t-124 -56.5zM256 344q60 0 92 44t32 121t-32 121t-92 44q-59 0 -91.5 -44t-32.5 -121t32.5 -121t91.5 -44zM185 404v209h72q35 0 55 -18.5t20 -50.5q0 -38 -29 -57l39 -83h-55
l-30 69v0h-22v-69h-50zM235 514h17q28 0 28 30q0 28 -28 28h-17v-58z" />
    <glyph glyph-name="macron" unicode="&#xaf;" horiz-adv-x="380" 
d="M120 632l17 80h284l-17 -80h-284z" />
    <glyph glyph-name="degree" unicode="&#xb0;" horiz-adv-x="411" 
d="M258 365q-50 0 -89 21.5t-60.5 59t-21.5 85.5q0 49 21.5 86.5t60.5 59t89 21.5q51 0 90 -21.5t60.5 -59t21.5 -86.5q0 -48 -21.5 -85.5t-60.5 -59t-90 -21.5zM258 439q39 0 61.5 25.5t22.5 66.5q0 43 -22.5 68t-61.5 25q-37 0 -60 -25t-23 -68q0 -41 23 -66.5t60 -25.5z
" />
    <glyph glyph-name="plusminus" unicode="&#xb1;" horiz-adv-x="484" 
d="M25 -1v96h420v-96h-420zM185 161v188h-160v96h160v186h101v-186h160v-96h-160v-188h-101z" />
    <glyph glyph-name="uni00B2" unicode="&#xb2;" horiz-adv-x="308" 
d="M67 388l12 58q34 26 68.5 58t56.5 57q29 31 43.5 55t14.5 52q0 46 -41 46q-39 0 -82 -34l-9 62q25 19 54 29.5t59 10.5q47 0 74 -26.5t27 -72.5q0 -44 -22.5 -83.5t-60.5 -74.5q-13 -12 -34.5 -31t-46.5 -39h131l-20 -67h-224z" />
    <glyph glyph-name="uni00B3" unicode="&#xb3;" horiz-adv-x="308" 
d="M169 380q-64 0 -105 31l24 60q35 -26 79 -26q32 0 48.5 18t16.5 49q0 22 -13 31.5t-35 9.5h-42l13 65h42q29 0 46 16.5t17 43.5q0 39 -46 39q-36 0 -79 -26l-4 61q23 15 50 22.5t52 7.5q48 0 76 -23t28 -64q0 -40 -22.5 -69.5t-63.5 -40.5q58 -17 58 -79q0 -57 -39 -91.5
t-101 -34.5z" />
    <glyph glyph-name="acute" unicode="&#xb4;" horiz-adv-x="380" 
d="M178 594l124 155h128l-150 -155h-102z" />
    <glyph glyph-name="paragraph" unicode="&#xb6;" horiz-adv-x="526" 
d="M111 -147l87 449q-60 11 -93 52t-33 106q0 113 65 176.5t177 63.5h238l-165 -847h-100l148 759h-72l-148 -759h-104z" />
    <glyph glyph-name="periodcentered" unicode="&#xb7;" horiz-adv-x="226" 
d="M107 182q-31 0 -47.5 19t-16.5 47q0 32 22 58t58 26q31 0 47.5 -19t16.5 -48q0 -32 -22 -57.5t-58 -25.5z" />
    <glyph glyph-name="cedilla" unicode="&#xb8;" horiz-adv-x="380" 
d="M92 -229q-25 0 -44.5 6t-36.5 15l25 54q15 -9 27.5 -12.5t26.5 -3.5q23 0 37.5 11t14.5 29q0 29 -39 29q-13 0 -22.5 -1.5t-17.5 -3.5l48 121h59l-29 -69h6q32 0 50 -16.5t18 -48.5q0 -49 -33 -79.5t-90 -30.5z" />
    <glyph glyph-name="uni00B9" unicode="&#xb9;" horiz-adv-x="308" 
d="M166 388l58 297l-70 -43l-22 60l120 72h66l-75 -386h-77z" />
    <glyph glyph-name="ordmasculine" unicode="&#xba;" horiz-adv-x="374" 
d="M213 308q-62 0 -98 42t-36 120q0 69 24 123t65 85.5t92 31.5q62 0 97.5 -42.5t35.5 -119.5q0 -68 -23.5 -122.5t-64.5 -86t-92 -31.5zM221 380q35 0 59.5 45.5t24.5 119.5q0 93 -53 93q-34 0 -59.5 -45.5t-25.5 -119.5q0 -93 54 -93z" />
    <glyph glyph-name="guillemotright" unicode="&#xbb;" horiz-adv-x="501" 
d="M-5 52l148 217l-59 203h110l65 -210l-146 -210h-118zM207 52l148 217l-59 203h110l65 -210l-146 -210h-118z" />
    <glyph glyph-name="onequarter" unicode="&#xbc;" horiz-adv-x="722" 
d="M146 0l387 684h88l-388 -684h-87zM543 0l14 75h-157l13 64l199 247h77l-50 -246h42l-20 -65h-36l-15 -75h-67zM483 140h87l27 143zM149 298l58 297l-70 -43l-22 60l120 72h66l-75 -386h-77z" />
    <glyph glyph-name="onehalf" unicode="&#xbd;" horiz-adv-x="722" 
d="M121 0l387 684h88l-388 -684h-87zM406 0l12 58q34 26 68.5 58t56.5 57q29 31 43.5 55t14.5 52q0 46 -41 46q-39 0 -82 -34l-9 62q25 19 54 29.5t59 10.5q47 0 74 -26.5t27 -72.5q0 -44 -22.5 -83.5t-60.5 -74.5q-13 -12 -34.5 -31t-46.5 -39h131l-20 -67h-224zM149 298
l58 297l-70 -43l-22 60l120 72h66l-75 -386h-77z" />
    <glyph glyph-name="threequarters" unicode="&#xbe;" horiz-adv-x="722" 
d="M146 0l387 684h88l-388 -684h-87zM543 0l14 75h-157l13 64l199 247h77l-50 -246h42l-20 -65h-36l-15 -75h-67zM483 140h87l27 143zM152 290q-64 0 -105 31l24 60q35 -26 79 -26q32 0 48.5 18t16.5 49q0 22 -13 31.5t-35 9.5h-42l13 65h42q29 0 46 16.5t17 43.5
q0 39 -46 39q-36 0 -79 -26l-4 61q23 15 50 22.5t52 7.5q48 0 76 -23t28 -64q0 -40 -22.5 -69.5t-63.5 -40.5q58 -17 58 -79q0 -57 -39 -91.5t-101 -34.5z" />
    <glyph glyph-name="questiondown" unicode="&#xbf;" horiz-adv-x="405" 
d="M243 371q-31 0 -47.5 19t-16.5 48q0 32 22 57.5t58 25.5q31 0 47.5 -18.5t16.5 -47.5q0 -32 -22 -58t-58 -26zM137 -204q-74 0 -116.5 41t-42.5 111q0 46 12.5 80.5t39 65.5t67.5 66q38 32 55.5 51.5t24 33.5t8.5 30l3 19h98l-2 -20q-5 -50 -26.5 -88t-76.5 -82
q-49 -40 -67.5 -68t-18.5 -69q0 -73 72 -73q59 0 124 41l7 -93q-34 -22 -77.5 -34t-83.5 -12z" />
    <glyph glyph-name="Agrave" unicode="&#xc0;" horiz-adv-x="564" 
d="M-40 0l347 700h122l75 -700h-120l-13 171h-206l-79 -171h-126zM211 271h153l-21 285zM357 772l-115 129h137l90 -129h-112z" />
    <glyph glyph-name="Aacute" unicode="&#xc1;" horiz-adv-x="564" 
d="M-40 0l347 700h122l75 -700h-120l-13 171h-206l-79 -171h-126zM211 271h153l-21 285zM306 772l134 129h142l-158 -129h-118z" />
    <glyph glyph-name="Acircumflex" unicode="&#xc2;" horiz-adv-x="564" 
d="M-40 0l347 700h122l75 -700h-120l-13 171h-206l-79 -171h-126zM211 271h153l-21 285zM220 772l137 129h109l88 -129h-107l-48 68l-74 -68h-105z" />
    <glyph glyph-name="Atilde" unicode="&#xc3;" horiz-adv-x="564" 
d="M-40 0l347 700h122l75 -700h-120l-13 171h-206l-79 -171h-126zM211 271h153l-21 285zM302 771l-75 10q14 62 46 95.5t78 33.5q21 0 38.5 -9.5t35.5 -26.5q14 -14 22 -19.5t15 -5.5q13 0 21.5 14.5t14.5 46.5l76 -10q-14 -62 -46.5 -95.5t-78.5 -33.5q-21 0 -38.5 9.5
t-35.5 26.5q-14 14 -21.5 19t-15.5 5q-13 0 -21.5 -14t-14.5 -46z" />
    <glyph glyph-name="Adieresis" unicode="&#xc4;" horiz-adv-x="564" 
d="M-40 0l347 700h122l75 -700h-120l-13 171h-206l-79 -171h-126zM211 271h153l-21 285zM486 774q-27 0 -41 16.5t-14 41.5q0 27 18.5 49t49.5 22q26 0 40 -16t14 -41q0 -28 -18.5 -50t-48.5 -22zM271 774q-25 0 -39.5 16.5t-14.5 41.5q0 27 18.5 49t48.5 22q27 0 41 -16
t14 -41q0 -28 -18.5 -50t-49.5 -22z" />
    <glyph glyph-name="Aring" unicode="&#xc5;" horiz-adv-x="564" 
d="M-40 0l347 700h122l75 -700h-120l-13 171h-206l-79 -171h-126zM211 271h153l-21 285zM383 759q-43 0 -69.5 25t-26.5 63q0 52 35.5 86t86.5 34q44 0 70 -25t26 -63q0 -52 -35.5 -86t-86.5 -34zM389 809q26 0 43 17t17 45q0 46 -46 46q-25 0 -42.5 -17t-17.5 -46
q0 -45 46 -45z" />
    <glyph glyph-name="AE" unicode="&#xc6;" horiz-adv-x="816" 
d="M-40 0l453 700h436l-4 -102h-247l-37 -191h224l-20 -102h-224l-39 -203h263l-32 -102h-367l33 171h-204l-105 -171h-130zM257 271h162l63 327h-23z" />
    <glyph glyph-name="Ccedilla" unicode="&#xc7;" horiz-adv-x="544" 
d="M307 -16q-124 0 -191.5 74t-67.5 210q0 62 15 125.5t44.5 121.5t74 103t104 71.5t133.5 26.5q92 0 160 -54l-42 -98q-54 47 -119 47q-66 0 -113 -32.5t-76.5 -84t-43.5 -110t-14 -109.5q0 -186 155 -186q35 0 67 12t69 37l5 -110q-70 -44 -160 -44zM238 -229
q-44 0 -81 19l25 57q26 -13 54 -13q22 0 37.5 9t15.5 25q0 14 -10.5 20.5t-27.5 6.5q-12 0 -21.5 -1.5t-18.5 -3.5l50 125h58l-28 -69h7q32 0 51 -17t19 -49q0 -49 -36 -79t-94 -30z" />
    <glyph glyph-name="Egrave" unicode="&#xc8;" horiz-adv-x="470" 
d="M10 0l136 700h357l-4 -102h-257l-37 -191h234l-20 -102h-234l-39 -203h273l-32 -102h-377zM324 772l-115 129h137l90 -129h-112z" />
    <glyph glyph-name="Eacute" unicode="&#xc9;" horiz-adv-x="470" 
d="M10 0l136 700h357l-4 -102h-257l-37 -191h234l-20 -102h-234l-39 -203h273l-32 -102h-377zM273 772l134 129h142l-158 -129h-118z" />
    <glyph glyph-name="Ecircumflex" unicode="&#xca;" horiz-adv-x="470" 
d="M10 0l136 700h357l-4 -102h-257l-37 -191h234l-20 -102h-234l-39 -203h273l-32 -102h-377zM187 772l137 129h109l88 -129h-107l-48 68l-74 -68h-105z" />
    <glyph glyph-name="Edieresis" unicode="&#xcb;" horiz-adv-x="470" 
d="M10 0l136 700h357l-4 -102h-257l-37 -191h234l-20 -102h-234l-39 -203h273l-32 -102h-377zM473 774q-27 0 -41 16.5t-14 41.5q0 27 18.5 49t49.5 22q26 0 40 -16t14 -41q0 -28 -18.5 -50t-48.5 -22zM258 774q-25 0 -39.5 16.5t-14.5 41.5q0 27 18.5 49t48.5 22
q27 0 41 -16t14 -41q0 -28 -18.5 -50t-49.5 -22z" />
    <glyph glyph-name="Igrave" unicode="&#xcc;" horiz-adv-x="238" 
d="M10 0l136 700h118l-136 -700h-118zM184 772l-115 129h137l90 -129h-112z" />
    <glyph glyph-name="Iacute" unicode="&#xcd;" horiz-adv-x="238" 
d="M10 0l136 700h118l-136 -700h-118zM133 772l134 129h142l-158 -129h-118z" />
    <glyph glyph-name="Icircumflex" unicode="&#xce;" horiz-adv-x="238" 
d="M10 0l136 700h118l-136 -700h-118zM47 772l137 129h109l88 -129h-107l-48 68l-74 -68h-105z" />
    <glyph glyph-name="Idieresis" unicode="&#xcf;" horiz-adv-x="238" 
d="M10 0l136 700h118l-136 -700h-118zM333 774q-27 0 -41 16.5t-14 41.5q0 27 18.5 49t49.5 22q26 0 40 -16t14 -41q0 -28 -18.5 -50t-48.5 -22zM118 774q-25 0 -39.5 16.5t-14.5 41.5q0 27 18.5 49t48.5 22q27 0 41 -16t14 -41q0 -28 -18.5 -50t-49.5 -22z" />
    <glyph glyph-name="Eth" unicode="&#xd0;" horiz-adv-x="600" 
d="M19 0l62 321h-55l17 92h56l56 287h198q67 0 119.5 -29.5t83 -88t30.5 -146.5q0 -129 -45 -227t-125 -153.5t-186 -55.5h-211zM317 321h-119l-42 -218h88q65 0 114.5 40.5t77.5 113.5t28 170q0 170 -142 170h-70l-36 -184h119z" />
    <glyph glyph-name="Ntilde" unicode="&#xd1;" horiz-adv-x="575" 
d="M10 0l136 700h116l131 -500l97 500h111l-136 -700h-115l-132 500l-97 -500h-111zM314 771l-75 10q14 62 46 95.5t78 33.5q21 0 38.5 -9.5t35.5 -26.5q14 -14 22 -19.5t15 -5.5q13 0 21.5 14.5t14.5 46.5l76 -10q-14 -62 -46.5 -95.5t-78.5 -33.5q-21 0 -38.5 9.5
t-35.5 26.5q-14 14 -21.5 19t-15.5 5q-13 0 -21.5 -14t-14.5 -46z" />
    <glyph glyph-name="Ograve" unicode="&#xd2;" horiz-adv-x="635" 
d="M286 -16q-72 0 -125.5 35t-83 98.5t-29.5 150.5q0 58 13 120t39.5 120.5t66.5 105.5t94.5 74.5t122.5 27.5q73 0 126 -35t82.5 -98.5t29.5 -150.5q0 -58 -13 -120t-39.5 -120.5t-66.5 -105.5t-94.5 -74.5t-122.5 -27.5zM293 89q45 0 79 24t58.5 63t39.5 86t22 92.5
t7 82.5q0 83 -31.5 128.5t-90.5 45.5q-45 0 -79 -24t-58 -63t-39.5 -86t-22.5 -92.5t-7 -82.5q0 -82 32 -128t90 -46zM388 772l-115 129h137l90 -129h-112z" />
    <glyph glyph-name="Oacute" unicode="&#xd3;" horiz-adv-x="635" 
d="M286 -16q-72 0 -125.5 35t-83 98.5t-29.5 150.5q0 58 13 120t39.5 120.5t66.5 105.5t94.5 74.5t122.5 27.5q73 0 126 -35t82.5 -98.5t29.5 -150.5q0 -58 -13 -120t-39.5 -120.5t-66.5 -105.5t-94.5 -74.5t-122.5 -27.5zM293 89q45 0 79 24t58.5 63t39.5 86t22 92.5
t7 82.5q0 83 -31.5 128.5t-90.5 45.5q-45 0 -79 -24t-58 -63t-39.5 -86t-22.5 -92.5t-7 -82.5q0 -82 32 -128t90 -46zM337 772l134 129h142l-158 -129h-118z" />
    <glyph glyph-name="Ocircumflex" unicode="&#xd4;" horiz-adv-x="635" 
d="M286 -16q-72 0 -125.5 35t-83 98.5t-29.5 150.5q0 58 13 120t39.5 120.5t66.5 105.5t94.5 74.5t122.5 27.5q73 0 126 -35t82.5 -98.5t29.5 -150.5q0 -58 -13 -120t-39.5 -120.5t-66.5 -105.5t-94.5 -74.5t-122.5 -27.5zM293 89q45 0 79 24t58.5 63t39.5 86t22 92.5
t7 82.5q0 83 -31.5 128.5t-90.5 45.5q-45 0 -79 -24t-58 -63t-39.5 -86t-22.5 -92.5t-7 -82.5q0 -82 32 -128t90 -46zM251 772l137 129h109l88 -129h-107l-48 68l-74 -68h-105z" />
    <glyph glyph-name="Otilde" unicode="&#xd5;" horiz-adv-x="635" 
d="M286 -16q-72 0 -125.5 35t-83 98.5t-29.5 150.5q0 58 13 120t39.5 120.5t66.5 105.5t94.5 74.5t122.5 27.5q73 0 126 -35t82.5 -98.5t29.5 -150.5q0 -58 -13 -120t-39.5 -120.5t-66.5 -105.5t-94.5 -74.5t-122.5 -27.5zM293 89q45 0 79 24t58.5 63t39.5 86t22 92.5
t7 82.5q0 83 -31.5 128.5t-90.5 45.5q-45 0 -79 -24t-58 -63t-39.5 -86t-22.5 -92.5t-7 -82.5q0 -82 32 -128t90 -46zM333 771l-75 10q14 62 46 95.5t78 33.5q21 0 38.5 -9.5t35.5 -26.5q14 -14 22 -19.5t15 -5.5q13 0 21.5 14.5t14.5 46.5l76 -10q-14 -62 -46.5 -95.5
t-78.5 -33.5q-21 0 -38.5 9.5t-35.5 26.5q-14 14 -21.5 19t-15.5 5q-13 0 -21.5 -14t-14.5 -46z" />
    <glyph glyph-name="Odieresis" unicode="&#xd6;" horiz-adv-x="635" 
d="M286 -16q-72 0 -125.5 35t-83 98.5t-29.5 150.5q0 58 13 120t39.5 120.5t66.5 105.5t94.5 74.5t122.5 27.5q73 0 126 -35t82.5 -98.5t29.5 -150.5q0 -58 -13 -120t-39.5 -120.5t-66.5 -105.5t-94.5 -74.5t-122.5 -27.5zM293 89q45 0 79 24t58.5 63t39.5 86t22 92.5
t7 82.5q0 83 -31.5 128.5t-90.5 45.5q-45 0 -79 -24t-58 -63t-39.5 -86t-22.5 -92.5t-7 -82.5q0 -82 32 -128t90 -46zM537 774q-27 0 -41 16.5t-14 41.5q0 27 18.5 49t49.5 22q26 0 40 -16t14 -41q0 -28 -18.5 -50t-48.5 -22zM322 774q-25 0 -39.5 16.5t-14.5 41.5
q0 27 18.5 49t48.5 22q27 0 41 -16t14 -41q0 -28 -18.5 -50t-49.5 -22z" />
    <glyph glyph-name="multiply" unicode="&#xd7;" horiz-adv-x="484" 
d="M127 144l-67 67l131 131l-131 131l67 67l131 -131l131 131l67 -67l-131 -131l131 -131l-67 -67l-131 131z" />
    <glyph glyph-name="Oslash" unicode="&#xd8;" horiz-adv-x="635" 
d="M96 -48l-60 58l58 76q-46 73 -46 182q0 58 13 120t39.5 120.5t66.5 105.5t94.5 74.5t122.5 27.5q89 0 149 -52l63 84l60 -58l-70 -93q36 -69 36 -165q0 -58 -13 -120t-39.5 -120.5t-66.5 -105.5t-94.5 -74.5t-122.5 -27.5q-78 0 -135 41zM171 263q0 -39 7 -71l287 377
q-32 42 -88 42q-45 0 -79 -24t-58 -63t-39.5 -86t-22.5 -92.5t-7 -82.5zM293 89q45 0 79 24t58.5 63t39.5 86t22 92.5t7 82.5q0 26 -3 49l-279 -368q30 -29 76 -29z" />
    <glyph glyph-name="Ugrave" unicode="&#xd9;" horiz-adv-x="571" 
d="M250 -16q-97 0 -148.5 48.5t-51.5 145.5q0 25 3 53t7 46l83 423h117l-81 -417q-10 -53 -10 -94q0 -52 23.5 -76t69.5 -24q60 0 91 48t50 148l81 415h117l-83 -425q-17 -86 -48.5 -152t-84.5 -102.5t-135 -36.5zM355 772l-115 129h137l90 -129h-112z" />
    <glyph glyph-name="Uacute" unicode="&#xda;" horiz-adv-x="571" 
d="M250 -16q-97 0 -148.5 48.5t-51.5 145.5q0 25 3 53t7 46l83 423h117l-81 -417q-10 -53 -10 -94q0 -52 23.5 -76t69.5 -24q60 0 91 48t50 148l81 415h117l-83 -425q-17 -86 -48.5 -152t-84.5 -102.5t-135 -36.5zM304 772l134 129h142l-158 -129h-118z" />
    <glyph glyph-name="Ucircumflex" unicode="&#xdb;" horiz-adv-x="571" 
d="M250 -16q-97 0 -148.5 48.5t-51.5 145.5q0 25 3 53t7 46l83 423h117l-81 -417q-10 -53 -10 -94q0 -52 23.5 -76t69.5 -24q60 0 91 48t50 148l81 415h117l-83 -425q-17 -86 -48.5 -152t-84.5 -102.5t-135 -36.5zM218 772l137 129h109l88 -129h-107l-48 68l-74 -68h-105z
" />
    <glyph glyph-name="Udieresis" unicode="&#xdc;" horiz-adv-x="571" 
d="M250 -16q-97 0 -148.5 48.5t-51.5 145.5q0 25 3 53t7 46l83 423h117l-81 -417q-10 -53 -10 -94q0 -52 23.5 -76t69.5 -24q60 0 91 48t50 148l81 415h117l-83 -425q-17 -86 -48.5 -152t-84.5 -102.5t-135 -36.5zM504 774q-27 0 -41 16.5t-14 41.5q0 27 18.5 49t49.5 22
q26 0 40 -16t14 -41q0 -28 -18.5 -50t-48.5 -22zM289 774q-25 0 -39.5 16.5t-14.5 41.5q0 27 18.5 49t48.5 22q27 0 41 -16t14 -41q0 -28 -18.5 -50t-49.5 -22z" />
    <glyph glyph-name="Yacute" unicode="&#xdd;" horiz-adv-x="536" 
d="M159 0l55 282l-117 418h121l73 -314l185 314h135l-279 -418l-56 -282h-117zM299 772l134 129h142l-158 -129h-118z" />
    <glyph glyph-name="Thorn" unicode="&#xde;" horiz-adv-x="490" 
d="M10 0l136 700h115l-23 -120h65q83 0 130 -48.5t47 -135.5q0 -124 -68.5 -194.5t-187.5 -70.5h-74l-25 -131h-115zM280 484h-61l-50 -257h60q64 0 99 44t35 124q0 89 -83 89z" />
    <glyph glyph-name="germandbls" unicode="&#xdf;" horiz-adv-x="504" 
d="M247 -13q-59 0 -97 23l30 91q25 -18 65 -18q44 0 72.5 42t28.5 106q0 47 -23.5 70.5t-66.5 23.5h-19l18 92h21q30 0 53.5 20.5t37 55t13.5 77.5q0 87 -66 87q-75 0 -100 -132l-102 -525h-113l101 519q23 120 81 177t149 57q77 0 121.5 -44.5t44.5 -118.5q0 -48 -17.5 -91
t-48 -75t-70.5 -48q51 -11 76.5 -46.5t25.5 -89.5q0 -75 -26.5 -132t-74.5 -89t-114 -32z" />
    <glyph glyph-name="agrave" unicode="&#xe0;" horiz-adv-x="446" 
d="M132 -13q-56 0 -89.5 36.5t-33.5 96.5q0 95 66 147t190 53l38 1q4 23 4 41q0 74 -84 74q-66 0 -122 -46l-9 95q64 44 150 44q81 0 126 -41.5t45 -112.5q0 -40 -8 -80l-57 -295h-96l9 65q-45 -78 -129 -78zM118 134q0 -28 15 -43t40 -15q42 0 69 36.5t39 98.5l8 38h-24
q-147 -3 -147 -115zM248 594l-88 155h118l61 -155h-91z" />
    <glyph glyph-name="aacute" unicode="&#xe1;" horiz-adv-x="446" 
d="M132 -13q-56 0 -89.5 36.5t-33.5 96.5q0 95 66 147t190 53l38 1q4 23 4 41q0 74 -84 74q-66 0 -122 -46l-9 95q64 44 150 44q81 0 126 -41.5t45 -112.5q0 -40 -8 -80l-57 -295h-96l9 65q-45 -78 -129 -78zM118 134q0 -28 15 -43t40 -15q42 0 69 36.5t39 98.5l8 38h-24
q-147 -3 -147 -115zM208 594l124 155h128l-150 -155h-102z" />
    <glyph glyph-name="acircumflex" unicode="&#xe2;" horiz-adv-x="446" 
d="M132 -13q-56 0 -89.5 36.5t-33.5 96.5q0 95 66 147t190 53l38 1q4 23 4 41q0 74 -84 74q-66 0 -122 -46l-9 95q64 44 150 44q81 0 126 -41.5t45 -112.5q0 -40 -8 -80l-57 -295h-96l9 65q-45 -78 -129 -78zM118 134q0 -28 15 -43t40 -15q42 0 69 36.5t39 98.5l8 38h-24
q-147 -3 -147 -115zM127 594l139 155h97l74 -155h-92l-44 82l-77 -82h-97z" />
    <glyph glyph-name="atilde" unicode="&#xe3;" horiz-adv-x="446" 
d="M132 -13q-56 0 -89.5 36.5t-33.5 96.5q0 95 66 147t190 53l38 1q4 23 4 41q0 74 -84 74q-66 0 -122 -46l-9 95q64 44 150 44q81 0 126 -41.5t45 -112.5q0 -40 -8 -80l-57 -295h-96l9 65q-45 -78 -129 -78zM118 134q0 -28 15 -43t40 -15q42 0 69 36.5t39 98.5l8 38h-24
q-147 -3 -147 -115zM197 595l-70 10q30 143 115 143q22 0 37 -10.5t31 -30.5q14 -18 22 -26.5t16 -8.5q27 0 43 76l70 -10q-30 -143 -115 -143q-22 0 -37.5 11.5t-32.5 32.5q-15 19 -21.5 25.5t-14.5 6.5q-27 0 -43 -76z" />
    <glyph glyph-name="adieresis" unicode="&#xe4;" horiz-adv-x="446" 
d="M132 -13q-56 0 -89.5 36.5t-33.5 96.5q0 95 66 147t190 53l38 1q4 23 4 41q0 74 -84 74q-66 0 -122 -46l-9 95q64 44 150 44q81 0 126 -41.5t45 -112.5q0 -40 -8 -80l-57 -295h-96l9 65q-45 -78 -129 -78zM118 134q0 -28 15 -43t40 -15q42 0 69 36.5t39 98.5l8 38h-24
q-147 -3 -147 -115zM377 609q-25 0 -39 16t-14 40q0 27 18 48.5t49 21.5q26 0 39.5 -16t13.5 -40q0 -27 -18 -48.5t-49 -21.5zM192 609q-25 0 -39 16t-14 40q0 27 18 48.5t49 21.5q26 0 39.5 -16t13.5 -40q0 -27 -18 -48.5t-49 -21.5z" />
    <glyph glyph-name="aring" unicode="&#xe5;" horiz-adv-x="446" 
d="M132 -13q-56 0 -89.5 36.5t-33.5 96.5q0 95 66 147t190 53l38 1q4 23 4 41q0 74 -84 74q-66 0 -122 -46l-9 95q64 44 150 44q81 0 126 -41.5t45 -112.5q0 -40 -8 -80l-57 -295h-96l9 65q-45 -78 -129 -78zM118 134q0 -28 15 -43t40 -15q42 0 69 36.5t39 98.5l8 38h-24
q-147 -3 -147 -115zM285 581q-41 0 -66.5 25t-25.5 63q0 52 34 86t83 34q42 0 67 -25t25 -63q0 -52 -33.5 -86t-83.5 -34zM291 629q24 0 40.5 18t16.5 46q0 48 -44 48q-23 0 -40 -18t-17 -47q0 -22 11 -34.5t33 -12.5z" />
    <glyph glyph-name="ae" unicode="&#xe6;" horiz-adv-x="684" 
d="M132 -13q-56 0 -89.5 36.5t-33.5 96.5q0 88 65.5 135t190.5 49l34 1l1 3q7 32 7 54q0 74 -85 74q-66 0 -122 -46l-9 95q64 44 150 44q48 0 81.5 -17.5t51.5 -49.5q60 67 138 67q73 0 111 -48t38 -132q0 -28 -5.5 -61t-12.5 -61h-265q-1 -12 -1 -24q0 -123 93 -123
q31 0 60.5 10t63.5 33l1 -93q-32 -24 -72 -33.5t-79 -9.5q-54 0 -94.5 28t-58.5 84q-25 -54 -65 -83t-94 -29zM499 440q-37 0 -66.5 -38.5t-44.5 -99.5h168q3 21 3 47q0 91 -60 91zM118 134q0 -28 15 -43t40 -15q42 0 69 36.5t39 98.5l4 22h-20q-147 -3 -147 -99z" />
    <glyph glyph-name="ccedilla" unicode="&#xe7;" horiz-adv-x="422" 
d="M232 -13q-97 0 -150 56t-53 158q0 57 17.5 114.5t52.5 106t87.5 78t122.5 29.5q69 0 120 -40l-38 -88q-19 16 -39 22.5t-44 6.5q-44 0 -75 -21.5t-51 -55.5t-29 -72.5t-9 -72.5q0 -123 104 -123q44 0 93 32l4 -100q-49 -30 -113 -30zM170 -229q-25 0 -44.5 6t-36.5 15
l25 54q15 -9 27.5 -12.5t26.5 -3.5q23 0 37.5 11t14.5 29q0 29 -39 29q-13 0 -22.5 -1.5t-17.5 -3.5l48 121h59l-29 -69h6q32 0 50 -16.5t18 -48.5q0 -49 -33 -79.5t-90 -30.5z" />
    <glyph glyph-name="egrave" unicode="&#xe8;" horiz-adv-x="450" 
d="M229 -13q-96 0 -148 54.5t-52 154.5q0 53 14.5 110.5t44.5 108.5t76 82.5t109 31.5q74 0 114 -48.5t40 -137.5q0 -24 -3.5 -55.5t-10.5 -61.5h-277q-1 -13 -1 -24q0 -121 111 -121q53 0 112 40l5 -98q-63 -36 -134 -36zM265 441q-31 0 -53.5 -20.5t-38 -52.5t-24.5 -66
h174q4 31 4 50q0 89 -62 89zM267 594l-88 155h118l61 -155h-91z" />
    <glyph glyph-name="eacute" unicode="&#xe9;" horiz-adv-x="450" 
d="M229 -13q-96 0 -148 54.5t-52 154.5q0 53 14.5 110.5t44.5 108.5t76 82.5t109 31.5q74 0 114 -48.5t40 -137.5q0 -24 -3.5 -55.5t-10.5 -61.5h-277q-1 -13 -1 -24q0 -121 111 -121q53 0 112 40l5 -98q-63 -36 -134 -36zM265 441q-31 0 -53.5 -20.5t-38 -52.5t-24.5 -66
h174q4 31 4 50q0 89 -62 89zM227 594l124 155h128l-150 -155h-102z" />
    <glyph glyph-name="ecircumflex" unicode="&#xea;" horiz-adv-x="450" 
d="M229 -13q-96 0 -148 54.5t-52 154.5q0 53 14.5 110.5t44.5 108.5t76 82.5t109 31.5q74 0 114 -48.5t40 -137.5q0 -24 -3.5 -55.5t-10.5 -61.5h-277q-1 -13 -1 -24q0 -121 111 -121q53 0 112 40l5 -98q-63 -36 -134 -36zM265 441q-31 0 -53.5 -20.5t-38 -52.5t-24.5 -66
h174q4 31 4 50q0 89 -62 89zM146 594l139 155h97l74 -155h-92l-44 82l-77 -82h-97z" />
    <glyph glyph-name="edieresis" unicode="&#xeb;" horiz-adv-x="450" 
d="M229 -13q-96 0 -148 54.5t-52 154.5q0 53 14.5 110.5t44.5 108.5t76 82.5t109 31.5q74 0 114 -48.5t40 -137.5q0 -24 -3.5 -55.5t-10.5 -61.5h-277q-1 -13 -1 -24q0 -121 111 -121q53 0 112 40l5 -98q-63 -36 -134 -36zM265 441q-31 0 -53.5 -20.5t-38 -52.5t-24.5 -66
h174q4 31 4 50q0 89 -62 89zM396 609q-25 0 -39 16t-14 40q0 27 18 48.5t49 21.5q26 0 39.5 -16t13.5 -40q0 -27 -18 -48.5t-49 -21.5zM211 609q-25 0 -39 16t-14 40q0 27 18 48.5t49 21.5q26 0 39.5 -16t13.5 -40q0 -27 -18 -48.5t-49 -21.5z" />
    <glyph glyph-name="igrave" unicode="&#xec;" horiz-adv-x="216" 
d="M2 0l101 516h112l-101 -516h-112zM133 594l-88 155h118l61 -155h-91z" />
    <glyph glyph-name="iacute" unicode="&#xed;" horiz-adv-x="216" 
d="M2 0l101 516h112l-101 -516h-112zM93 594l124 155h128l-150 -155h-102z" />
    <glyph glyph-name="icircumflex" unicode="&#xee;" horiz-adv-x="216" 
d="M2 0l101 516h112l-101 -516h-112zM12 594l139 155h97l74 -155h-92l-44 82l-77 -82h-97z" />
    <glyph glyph-name="idieresis" unicode="&#xef;" horiz-adv-x="216" 
d="M2 0l101 516h112l-101 -516h-112zM262 609q-25 0 -39 16t-14 40q0 27 18 48.5t49 21.5q26 0 39.5 -16t13.5 -40q0 -27 -18 -48.5t-49 -21.5zM77 609q-25 0 -39 16t-14 40q0 27 18 48.5t49 21.5q26 0 39.5 -16t13.5 -40q0 -27 -18 -48.5t-49 -21.5z" />
    <glyph glyph-name="eth" unicode="&#xf0;" horiz-adv-x="486" 
d="M199 -13q-76 0 -124 53.5t-48 146.5q0 83 28 152t75.5 110.5t107.5 41.5q44 0 74.5 -20t44.5 -55q-4 95 -46 172l-132 -62l-12 72l106 49q-21 27 -47 51l86 55q30 -29 54 -62l109 51l12 -71l-84 -40q57 -110 57 -252q0 -120 -33 -208t-91.5 -136t-136.5 -48zM216 83
q36 0 63.5 31.5t43.5 81t16 103.5q0 47 -19 72.5t-57 25.5q-36 0 -63 -30.5t-42.5 -79t-15.5 -103.5q0 -48 20 -74.5t54 -26.5z" />
    <glyph glyph-name="ntilde" unicode="&#xf1;" horiz-adv-x="471" 
d="M2 0l101 516h99l-11 -76q25 44 62.5 66.5t78.5 22.5q52 0 81.5 -33t29.5 -101q0 -22 -3 -45.5t-8 -45.5l-59 -304h-112l57 295q7 37 9 52t2 25q0 55 -51 55q-36 0 -65.5 -35.5t-41.5 -98.5l-57 -293h-112zM230 595l-70 10q30 143 115 143q22 0 37 -10.5t31 -30.5
q14 -18 22 -26.5t16 -8.5q27 0 43 76l70 -10q-30 -143 -115 -143q-22 0 -37.5 11.5t-32.5 32.5q-15 19 -21.5 25.5t-14.5 6.5q-27 0 -43 -76z" />
    <glyph glyph-name="ograve" unicode="&#xf2;" horiz-adv-x="486" 
d="M206 -13q-81 0 -129 57t-48 153q0 54 15.5 112t46.5 108t78 81t111 31q81 0 129 -57t48 -153q0 -54 -15.5 -112t-46.5 -108t-78 -81t-111 -31zM214 85q33 0 57.5 24.5t40 62t23 78.5t7.5 73q0 52 -17.5 79.5t-52.5 27.5q-33 0 -57.5 -24.5t-40 -62t-23 -78t-7.5 -72.5
q0 -108 70 -108zM276 594l-88 155h118l61 -155h-91z" />
    <glyph glyph-name="oacute" unicode="&#xf3;" horiz-adv-x="486" 
d="M206 -13q-81 0 -129 57t-48 153q0 54 15.5 112t46.5 108t78 81t111 31q81 0 129 -57t48 -153q0 -54 -15.5 -112t-46.5 -108t-78 -81t-111 -31zM214 85q33 0 57.5 24.5t40 62t23 78.5t7.5 73q0 52 -17.5 79.5t-52.5 27.5q-33 0 -57.5 -24.5t-40 -62t-23 -78t-7.5 -72.5
q0 -108 70 -108zM236 594l124 155h128l-150 -155h-102z" />
    <glyph glyph-name="ocircumflex" unicode="&#xf4;" horiz-adv-x="486" 
d="M206 -13q-81 0 -129 57t-48 153q0 54 15.5 112t46.5 108t78 81t111 31q81 0 129 -57t48 -153q0 -54 -15.5 -112t-46.5 -108t-78 -81t-111 -31zM214 85q33 0 57.5 24.5t40 62t23 78.5t7.5 73q0 52 -17.5 79.5t-52.5 27.5q-33 0 -57.5 -24.5t-40 -62t-23 -78t-7.5 -72.5
q0 -108 70 -108zM155 594l139 155h97l74 -155h-92l-44 82l-77 -82h-97z" />
    <glyph glyph-name="otilde" unicode="&#xf5;" horiz-adv-x="486" 
d="M206 -13q-81 0 -129 57t-48 153q0 54 15.5 112t46.5 108t78 81t111 31q81 0 129 -57t48 -153q0 -54 -15.5 -112t-46.5 -108t-78 -81t-111 -31zM214 85q33 0 57.5 24.5t40 62t23 78.5t7.5 73q0 52 -17.5 79.5t-52.5 27.5q-33 0 -57.5 -24.5t-40 -62t-23 -78t-7.5 -72.5
q0 -108 70 -108zM225 595l-70 10q30 143 115 143q22 0 37 -10.5t31 -30.5q14 -18 22 -26.5t16 -8.5q27 0 43 76l70 -10q-30 -143 -115 -143q-22 0 -37.5 11.5t-32.5 32.5q-15 19 -21.5 25.5t-14.5 6.5q-27 0 -43 -76z" />
    <glyph glyph-name="odieresis" unicode="&#xf6;" horiz-adv-x="486" 
d="M206 -13q-81 0 -129 57t-48 153q0 54 15.5 112t46.5 108t78 81t111 31q81 0 129 -57t48 -153q0 -54 -15.5 -112t-46.5 -108t-78 -81t-111 -31zM214 85q33 0 57.5 24.5t40 62t23 78.5t7.5 73q0 52 -17.5 79.5t-52.5 27.5q-33 0 -57.5 -24.5t-40 -62t-23 -78t-7.5 -72.5
q0 -108 70 -108zM405 609q-25 0 -39 16t-14 40q0 27 18 48.5t49 21.5q26 0 39.5 -16t13.5 -40q0 -27 -18 -48.5t-49 -21.5zM220 609q-25 0 -39 16t-14 40q0 27 18 48.5t49 21.5q26 0 39.5 -16t13.5 -40q0 -27 -18 -48.5t-49 -21.5z" />
    <glyph glyph-name="divide" unicode="&#xf7;" horiz-adv-x="484" 
d="M258 464q-31 0 -50.5 20t-19.5 52t19.5 52t50.5 20q32 0 51.5 -20t19.5 -52t-19.5 -52t-51.5 -20zM48 294v96h421v-96h-421zM258 76q-31 0 -50.5 20t-19.5 52t19.5 52t50.5 20q32 0 51.5 -20t19.5 -52t-19.5 -52t-51.5 -20z" />
    <glyph glyph-name="oslash" unicode="&#xf8;" horiz-adv-x="486" 
d="M53 -40l-49 49l54 63q-29 52 -29 125q0 54 15.5 112t46.5 108t78 81t111 31q62 0 106 -35l52 61l49 -48l-57 -67q27 -51 27 -121q0 -54 -15.5 -112t-46.5 -108t-78 -81t-111 -31q-60 0 -103 32zM140 193q0 -13 1 -24l183 238q-19 23 -52 23q-34 0 -59 -24.5t-41.5 -62
t-24 -78t-7.5 -72.5zM214 85q35 0 59.5 24.5t41 62t24 78.5t7.5 73q0 9 -1 16l-179 -235q18 -19 48 -19z" />
    <glyph glyph-name="ugrave" unicode="&#xf9;" horiz-adv-x="466" 
d="M138 -13q-51 0 -80.5 33t-29.5 101q0 23 3.5 46t7.5 45l59 304h112l-57 -295q-4 -22 -7.5 -42.5t-3.5 -34.5q0 -56 49 -56q35 0 63.5 36t40.5 99l57 293h112l-101 -516h-99l11 77q-25 -45 -61.5 -67.5t-75.5 -22.5zM266 594l-88 155h118l61 -155h-91z" />
    <glyph glyph-name="uacute" unicode="&#xfa;" horiz-adv-x="466" 
d="M138 -13q-51 0 -80.5 33t-29.5 101q0 23 3.5 46t7.5 45l59 304h112l-57 -295q-4 -22 -7.5 -42.5t-3.5 -34.5q0 -56 49 -56q35 0 63.5 36t40.5 99l57 293h112l-101 -516h-99l11 77q-25 -45 -61.5 -67.5t-75.5 -22.5zM226 594l124 155h128l-150 -155h-102z" />
    <glyph glyph-name="ucircumflex" unicode="&#xfb;" horiz-adv-x="466" 
d="M138 -13q-51 0 -80.5 33t-29.5 101q0 23 3.5 46t7.5 45l59 304h112l-57 -295q-4 -22 -7.5 -42.5t-3.5 -34.5q0 -56 49 -56q35 0 63.5 36t40.5 99l57 293h112l-101 -516h-99l11 77q-25 -45 -61.5 -67.5t-75.5 -22.5zM137 594l139 155h97l74 -155h-92l-44 82l-77 -82h-97z
" />
    <glyph glyph-name="udieresis" unicode="&#xfc;" horiz-adv-x="466" 
d="M138 -13q-51 0 -80.5 33t-29.5 101q0 23 3.5 46t7.5 45l59 304h112l-57 -295q-4 -22 -7.5 -42.5t-3.5 -34.5q0 -56 49 -56q35 0 63.5 36t40.5 99l57 293h112l-101 -516h-99l11 77q-25 -45 -61.5 -67.5t-75.5 -22.5zM387 609q-25 0 -39 16t-14 40q0 27 18 48.5t49 21.5
q26 0 39.5 -16t13.5 -40q0 -27 -18 -48.5t-49 -21.5zM202 609q-25 0 -39 16t-14 40q0 27 18 48.5t49 21.5q26 0 39.5 -16t13.5 -40q0 -27 -18 -48.5t-49 -21.5z" />
    <glyph glyph-name="yacute" unicode="&#xfd;" horiz-adv-x="449" 
d="M14 -229q-45 0 -76 17l23 93q18 -12 50 -12t55 22.5t51 80.5l11 23l-71 521h118l29 -396l168 396h120l-279 -574q-31 -64 -60 -101.5t-62 -53.5t-77 -16zM221 594l124 155h128l-150 -155h-102z" />
    <glyph glyph-name="thorn" unicode="&#xfe;" horiz-adv-x="495" 
d="M-40 -216l186 956h112l-54 -280q23 32 54.5 50.5t71.5 18.5q63 0 100.5 -53.5t37.5 -144.5q0 -39 -8.5 -85.5t-25.5 -92t-43.5 -83t-63 -60.5t-83.5 -23q-90 0 -115 91l-57 -294h-112zM223 85q36 0 60.5 26.5t40 66t22 79.5t6.5 67q0 51 -18 78.5t-52 27.5q-37 0 -62 -26
t-40 -64.5t-22 -78.5t-7 -67q0 -109 72 -109z" />
    <glyph glyph-name="ydieresis" unicode="&#xff;" horiz-adv-x="449" 
d="M14 -229q-45 0 -76 17l23 93q18 -12 50 -12t55 22.5t51 80.5l11 23l-71 521h118l29 -396l168 396h120l-279 -574q-31 -64 -60 -101.5t-62 -53.5t-77 -16zM380 609q-25 0 -39 16t-14 40q0 27 18 48.5t49 21.5q26 0 39.5 -16t13.5 -40q0 -27 -18 -48.5t-49 -21.5zM195 609
q-25 0 -39 16t-14 40q0 27 18 48.5t49 21.5q26 0 39.5 -16t13.5 -40q0 -27 -18 -48.5t-49 -21.5z" />
    <glyph glyph-name="Amacron" unicode="&#x100;" horiz-adv-x="564" 
d="M-40 0l347 700h122l75 -700h-120l-13 171h-206l-79 -171h-126zM211 271h153l-21 285zM217 795l16 82h309l-16 -82h-309z" />
    <glyph glyph-name="amacron" unicode="&#x101;" horiz-adv-x="446" 
d="M132 -13q-56 0 -89.5 36.5t-33.5 96.5q0 95 66 147t190 53l38 1q4 23 4 41q0 74 -84 74q-66 0 -122 -46l-9 95q64 44 150 44q81 0 126 -41.5t45 -112.5q0 -40 -8 -80l-57 -295h-96l9 65q-45 -78 -129 -78zM118 134q0 -28 15 -43t40 -15q42 0 69 36.5t39 98.5l8 38h-24
q-147 -3 -147 -115zM146 632l17 80h284l-17 -80h-284z" />
    <glyph glyph-name="Abreve" unicode="&#x102;" horiz-adv-x="564" 
d="M-40 0l347 700h122l75 -700h-120l-13 171h-206l-79 -171h-126zM211 271h153l-21 285zM378 771q-48 0 -79.5 29t-31.5 74q0 8 0.5 15t1.5 11l71 8q-1 -7 -1 -9.5v-4.5q0 -52 54 -52q49 0 68 66l73 -9q-13 -60 -54 -94t-102 -34z" />
    <glyph glyph-name="abreve" unicode="&#x103;" horiz-adv-x="446" 
d="M132 -13q-56 0 -89.5 36.5t-33.5 96.5q0 95 66 147t190 53l38 1q4 23 4 41q0 74 -84 74q-66 0 -122 -46l-9 95q64 44 150 44q81 0 126 -41.5t45 -112.5q0 -40 -8 -80l-57 -295h-96l9 65q-45 -78 -129 -78zM118 134q0 -28 15 -43t40 -15q42 0 69 36.5t39 98.5l8 38h-24
q-147 -3 -147 -115zM285 595q-52 0 -81 28t-29 78q0 8 0.5 18.5t1.5 17.5l73 9q-1 -8 -1 -15v-13q0 -55 47 -55q28 0 45.5 19.5t26.5 63.5l71 -8q-16 -70 -56 -106.5t-98 -36.5z" />
    <glyph glyph-name="Aogonek" unicode="&#x104;" horiz-adv-x="564" 
d="M-40 0l347 700h122l75 -700h-120l-13 171h-206l-79 -171h-126zM211 271h153l-21 285zM385 -229q-38 0 -60.5 20.5t-22.5 56.5q0 54 44.5 101t123.5 78l34 -27q-55 -26 -88.5 -60.5t-33.5 -66.5t33 -32q14 0 25.5 2t25.5 9l2 -64q-38 -17 -83 -17z" />
    <glyph glyph-name="aogonek" unicode="&#x105;" horiz-adv-x="446" 
d="M132 -13q-56 0 -89.5 36.5t-33.5 96.5q0 95 66 147t190 53l38 1q4 23 4 41q0 74 -84 74q-66 0 -122 -46l-9 95q64 44 150 44q81 0 126 -41.5t45 -112.5q0 -40 -8 -80l-57 -295h-96l9 65q-45 -78 -129 -78zM118 134q0 -28 15 -43t40 -15q42 0 69 36.5t39 98.5l8 38h-24
q-147 -3 -147 -115zM231 -229q-36 0 -56.5 20t-20.5 56q0 53 42 100t118 80l34 -27q-54 -27 -85 -62t-31 -69q0 -32 28 -32q14 0 24.5 3t23.5 10l3 -61q-20 -9 -38.5 -13.5t-41.5 -4.5z" />
    <glyph glyph-name="Cacute" unicode="&#x106;" horiz-adv-x="544" 
d="M307 -16q-124 0 -191.5 74t-67.5 210q0 62 15 125.5t44.5 121.5t74 103t104 71.5t133.5 26.5q92 0 160 -54l-42 -98q-54 47 -119 47q-66 0 -113 -32.5t-76.5 -84t-43.5 -110t-14 -109.5q0 -186 155 -186q35 0 67 12t69 37l5 -110q-70 -44 -160 -44zM352 772l134 129h142
l-158 -129h-118z" />
    <glyph glyph-name="cacute" unicode="&#x107;" horiz-adv-x="422" 
d="M232 -13q-97 0 -150 56t-53 158q0 57 17.5 114.5t52.5 106t87.5 78t122.5 29.5q69 0 120 -40l-38 -88q-19 16 -39 22.5t-44 6.5q-44 0 -75 -21.5t-51 -55.5t-29 -72.5t-9 -72.5q0 -123 104 -123q44 0 93 32l4 -100q-49 -30 -113 -30zM244 594l124 155h128l-150 -155h-102
z" />
    <glyph glyph-name="Cdotaccent" unicode="&#x10a;" horiz-adv-x="544" 
d="M307 -16q-124 0 -191.5 74t-67.5 210q0 62 15 125.5t44.5 121.5t74 103t104 71.5t133.5 26.5q92 0 160 -54l-42 -98q-54 47 -119 47q-66 0 -113 -32.5t-76.5 -84t-43.5 -110t-14 -109.5q0 -186 155 -186q35 0 67 12t69 37l5 -110q-70 -44 -160 -44zM444 773
q-28 0 -42.5 17t-14.5 43q0 29 19.5 52t50.5 23q29 0 43 -17t14 -44q0 -28 -19 -51t-51 -23z" />
    <glyph glyph-name="cdotaccent" unicode="&#x10b;" horiz-adv-x="422" 
d="M232 -13q-97 0 -150 56t-53 158q0 57 17.5 114.5t52.5 106t87.5 78t122.5 29.5q69 0 120 -40l-38 -88q-19 16 -39 22.5t-44 6.5q-44 0 -75 -21.5t-51 -55.5t-29 -72.5t-9 -72.5q0 -123 104 -123q44 0 93 32l4 -100q-49 -30 -113 -30zM328 605q-27 0 -41.5 17t-14.5 43
q0 28 19.5 50.5t50.5 22.5q28 0 42 -16.5t14 -42.5q0 -28 -19 -51t-51 -23z" />
    <glyph glyph-name="Ccaron" unicode="&#x10c;" horiz-adv-x="544" 
d="M307 -16q-124 0 -191.5 74t-67.5 210q0 62 15 125.5t44.5 121.5t74 103t104 71.5t133.5 26.5q92 0 160 -54l-42 -98q-54 47 -119 47q-66 0 -113 -32.5t-76.5 -84t-43.5 -110t-14 -109.5q0 -186 155 -186q35 0 67 12t69 37l5 -110q-70 -44 -160 -44zM379 772l-88 129h107
l48 -68l74 68h105l-137 -129h-109z" />
    <glyph glyph-name="ccaron" unicode="&#x10d;" horiz-adv-x="422" 
d="M232 -13q-97 0 -150 56t-53 158q0 57 17.5 114.5t52.5 106t87.5 78t122.5 29.5q69 0 120 -40l-38 -88q-19 16 -39 22.5t-44 6.5q-44 0 -75 -21.5t-51 -55.5t-29 -72.5t-9 -72.5q0 -123 104 -123q44 0 93 32l4 -100q-49 -30 -113 -30zM268 592l-75 155h92l45 -82l77 82h96
l-138 -155h-97z" />
    <glyph glyph-name="Dcaron" unicode="&#x10e;" horiz-adv-x="591" 
d="M10 0l136 700h198q67 0 119.5 -29t83 -88t30.5 -149q0 -95 -25.5 -174.5t-72.5 -137.5t-112.5 -90t-145.5 -32h-211zM313 597h-70l-96 -494h87q65 0 114.5 40.5t77.5 114.5t28 172q0 167 -141 167zM308 772l-88 129h107l48 -68l74 68h105l-137 -129h-109z" />
    <glyph glyph-name="dcaron" unicode="&#x10f;" horiz-adv-x="617" 
d="M165 -13q-64 0 -101 53.5t-37 143.5q0 40 8 86.5t25.5 92t44 83t62.5 60.5t83 23q89 0 115 -87l58 298h112l-144 -740h-99l12 79q-24 -42 -58.5 -67t-80.5 -25zM212 85q37 0 62 26t40.5 65t22.5 78.5t7 66.5q0 109 -73 109q-36 0 -60.5 -26.5t-39.5 -66t-21.5 -79
t-6.5 -66.5q0 -51 17.5 -79t51.5 -28zM564 540q13 47 25.5 98.5t21.5 101.5h102q-11 -51 -27.5 -104.5t-33.5 -95.5h-88z" />
    <glyph glyph-name="Dcroat" unicode="&#x110;" horiz-adv-x="600" 
d="M19 0l62 321h-55l17 92h56l56 287h198q67 0 119.5 -29.5t83 -88t30.5 -146.5q0 -129 -45 -227t-125 -153.5t-186 -55.5h-211zM317 321h-119l-42 -218h88q65 0 114.5 40.5t77.5 113.5t28 170q0 170 -142 170h-70l-36 -184h119z" />
    <glyph glyph-name="dcroat" unicode="&#x111;" horiz-adv-x="503" 
d="M161 -4q-61 0 -97.5 48.5t-36.5 132.5q0 59 14.5 119t43 110t70.5 80.5t98 30.5q84 0 114 -82l29 152h-131l14 75h132l15 78h112l-15 -78h48l-14 -75h-49l-114 -587h-99l14 96q-23 -45 -60 -72.5t-88 -27.5zM212 94q36 0 61.5 24t41.5 60t23.5 74.5t7.5 67.5q0 47 -18 73
t-54 26t-61 -24t-41 -61t-23 -76t-7 -69q0 -43 17.5 -69t52.5 -26z" />
    <glyph glyph-name="Emacron" unicode="&#x112;" horiz-adv-x="470" 
d="M10 0l136 700h357l-4 -102h-257l-37 -191h234l-20 -102h-234l-39 -203h273l-32 -102h-377zM194 795l16 82h309l-16 -82h-309z" />
    <glyph glyph-name="emacron" unicode="&#x113;" horiz-adv-x="450" 
d="M229 -13q-96 0 -148 54.5t-52 154.5q0 53 14.5 110.5t44.5 108.5t76 82.5t109 31.5q74 0 114 -48.5t40 -137.5q0 -24 -3.5 -55.5t-10.5 -61.5h-277q-1 -13 -1 -24q0 -121 111 -121q53 0 112 40l5 -98q-63 -36 -134 -36zM265 441q-31 0 -53.5 -20.5t-38 -52.5t-24.5 -66
h174q4 31 4 50q0 89 -62 89zM165 632l17 80h284l-17 -80h-284z" />
    <glyph glyph-name="Edotaccent" unicode="&#x116;" horiz-adv-x="470" 
d="M10 0l136 700h357l-4 -102h-257l-37 -191h234l-20 -102h-234l-39 -203h273l-32 -102h-377zM365 773q-28 0 -42.5 17t-14.5 43q0 29 19.5 52t50.5 23q29 0 43 -17t14 -44q0 -28 -19 -51t-51 -23z" />
    <glyph glyph-name="edotaccent" unicode="&#x117;" horiz-adv-x="450" 
d="M229 -13q-96 0 -148 54.5t-52 154.5q0 53 14.5 110.5t44.5 108.5t76 82.5t109 31.5q74 0 114 -48.5t40 -137.5q0 -24 -3.5 -55.5t-10.5 -61.5h-277q-1 -13 -1 -24q0 -121 111 -121q53 0 112 40l5 -98q-63 -36 -134 -36zM265 441q-31 0 -53.5 -20.5t-38 -52.5t-24.5 -66
h174q4 31 4 50q0 89 -62 89zM311 605q-27 0 -41.5 17t-14.5 43q0 28 19.5 50.5t50.5 22.5q28 0 42 -16.5t14 -42.5q0 -28 -19 -51t-51 -23z" />
    <glyph glyph-name="Eogonek" unicode="&#x118;" horiz-adv-x="470" 
d="M10 0l136 700h357l-4 -102h-257l-37 -191h234l-20 -102h-234l-39 -203h273l-32 -102h-377zM268 -229q-38 0 -60.5 20.5t-22.5 56.5q0 54 44.5 101t123.5 78l34 -27q-55 -26 -88.5 -60.5t-33.5 -66.5t33 -32q14 0 25.5 2t25.5 9l2 -64q-38 -17 -83 -17z" />
    <glyph glyph-name="eogonek" unicode="&#x119;" horiz-adv-x="450" 
d="M229 -13q-96 0 -148 54.5t-52 154.5q0 53 14.5 110.5t44.5 108.5t76 82.5t109 31.5q74 0 114 -48.5t40 -137.5q0 -24 -3.5 -55.5t-10.5 -61.5h-277q-1 -13 -1 -24q0 -121 111 -121q53 0 112 40l5 -98q-63 -36 -134 -36zM265 441q-31 0 -53.5 -20.5t-38 -52.5t-24.5 -66
h174q4 31 4 50q0 89 -62 89zM208 -229q-36 0 -56 20t-20 56q0 52 48.5 103t142.5 97l34 -27q-148 -79 -148 -150q0 -33 28 -33q15 0 26 3t24 10l3 -61q-20 -9 -39 -13.5t-43 -4.5z" />
    <glyph glyph-name="Ecaron" unicode="&#x11a;" horiz-adv-x="470" 
d="M10 0l136 700h357l-4 -102h-257l-37 -191h234l-20 -102h-234l-39 -203h273l-32 -102h-377zM300 772l-88 129h107l48 -68l74 68h105l-137 -129h-109z" />
    <glyph glyph-name="ecaron" unicode="&#x11b;" horiz-adv-x="450" 
d="M229 -13q-96 0 -148 54.5t-52 154.5q0 53 14.5 110.5t44.5 108.5t76 82.5t109 31.5q74 0 114 -48.5t40 -137.5q0 -24 -3.5 -55.5t-10.5 -61.5h-277q-1 -13 -1 -24q0 -121 111 -121q53 0 112 40l5 -98q-63 -36 -134 -36zM265 441q-31 0 -53.5 -20.5t-38 -52.5t-24.5 -66
h174q4 31 4 50q0 89 -62 89zM251 592l-75 155h92l45 -82l77 82h96l-138 -155h-97z" />
    <glyph glyph-name="Gbreve" unicode="&#x11e;" horiz-adv-x="580" 
d="M308 -16q-124 0 -192 72t-68 212q0 62 14.5 125.5t44 121.5t74 103t104 71.5t134.5 26.5q56 0 98.5 -15t76.5 -41l-42 -98q-29 25 -59.5 37t-74.5 12q-67 0 -114.5 -32.5t-76.5 -84t-42.5 -110t-13.5 -109.5q0 -95 39.5 -140.5t109.5 -45.5q39 0 71 7l38 192h-107l18 95
h216l-69 -356q-36 -19 -80 -31t-99 -12zM434 771q-48 0 -79.5 29t-31.5 74q0 8 0.5 15t1.5 11l71 8q-1 -7 -1 -9.5v-4.5q0 -52 54 -52q49 0 68 66l73 -9q-13 -60 -54 -94t-102 -34z" />
    <glyph glyph-name="gbreve" unicode="&#x11f;" horiz-adv-x="496" 
d="M146 -229q-46 0 -88 13.5t-70 34.5l32 94q55 -45 128 -45q62 0 93 45.5t47 120.5l9 44q-23 -36 -55.5 -57t-74.5 -21q-64 0 -101 54t-37 139q0 39 8 84t25.5 89.5t44 81.5t62.5 59t83 22q48 0 79 -27.5t41 -78.5l23 93h99l-91 -470q-15 -80 -44.5 -142t-80.5 -97.5
t-132 -35.5zM214 98q37 0 62 25t40.5 62t22.5 75t7 65q0 50 -19 77.5t-54 27.5q-36 0 -60.5 -25.5t-39.5 -63t-21.5 -76t-6.5 -64.5q0 -46 17.5 -74.5t51.5 -28.5zM313 595q-52 0 -81 28t-29 78q0 8 0.5 18.5t1.5 17.5l73 9q-1 -8 -1 -15v-13q0 -55 47 -55q28 0 45.5 19.5
t26.5 63.5l71 -8q-16 -70 -56 -106.5t-98 -36.5z" />
    <glyph glyph-name="Gdotaccent" unicode="&#x120;" horiz-adv-x="580" 
d="M308 -16q-124 0 -192 72t-68 212q0 62 14.5 125.5t44 121.5t74 103t104 71.5t134.5 26.5q56 0 98.5 -15t76.5 -41l-42 -98q-29 25 -59.5 37t-74.5 12q-67 0 -114.5 -32.5t-76.5 -84t-42.5 -110t-13.5 -109.5q0 -95 39.5 -140.5t109.5 -45.5q39 0 71 7l38 192h-107l18 95
h216l-69 -356q-36 -19 -80 -31t-99 -12zM454 773q-28 0 -42.5 17t-14.5 43q0 29 19.5 52t50.5 23q29 0 43 -17t14 -44q0 -28 -19 -51t-51 -23z" />
    <glyph glyph-name="gdotaccent" unicode="&#x121;" horiz-adv-x="496" 
d="M146 -229q-46 0 -88 13.5t-70 34.5l32 94q55 -45 128 -45q62 0 93 45.5t47 120.5l9 44q-23 -36 -55.5 -57t-74.5 -21q-64 0 -101 54t-37 139q0 39 8 84t25.5 89.5t44 81.5t62.5 59t83 22q48 0 79 -27.5t41 -78.5l23 93h99l-91 -470q-15 -80 -44.5 -142t-80.5 -97.5
t-132 -35.5zM214 98q37 0 62 25t40.5 62t22.5 75t7 65q0 50 -19 77.5t-54 27.5q-36 0 -60.5 -25.5t-39.5 -63t-21.5 -76t-6.5 -64.5q0 -46 17.5 -74.5t51.5 -28.5zM320 605q-27 0 -41.5 17t-14.5 43q0 28 19.5 50.5t50.5 22.5q28 0 42 -16.5t14 -42.5q0 -28 -19 -51t-51 -23
z" />
    <glyph glyph-name="uni0122" unicode="&#x122;" horiz-adv-x="580" 
d="M308 -16q-124 0 -192 72t-68 212q0 62 14.5 125.5t44 121.5t74 103t104 71.5t134.5 26.5q56 0 98.5 -15t76.5 -41l-42 -98q-29 25 -59.5 37t-74.5 12q-67 0 -114.5 -32.5t-76.5 -84t-42.5 -110t-13.5 -109.5q0 -95 39.5 -140.5t109.5 -45.5q39 0 71 7l38 192h-107l18 95
h216l-69 -356q-36 -19 -80 -31t-99 -12zM203 -267l-17 39q59 18 83 55h-5q-20 0 -32.5 12.5t-12.5 33.5q0 27 19 44.5t45 17.5q25 0 39 -14.5t14 -40.5q0 -48 -35.5 -89t-97.5 -58z" />
    <glyph glyph-name="uni0123" unicode="&#x123;" horiz-adv-x="496" 
d="M146 -229q-46 0 -88 13.5t-70 34.5l32 94q55 -45 128 -45q62 0 93 45.5t47 120.5l9 44q-23 -36 -55.5 -57t-74.5 -21q-64 0 -101 54t-37 139q0 39 8 84t25.5 89.5t44 81.5t62.5 59t83 22q48 0 79 -27.5t41 -78.5l23 93h99l-91 -470q-15 -80 -44.5 -142t-80.5 -97.5
t-132 -35.5zM214 98q37 0 62 25t40.5 62t22.5 75t7 65q0 50 -19 77.5t-54 27.5q-36 0 -60.5 -25.5t-39.5 -63t-21.5 -76t-6.5 -64.5q0 -46 17.5 -74.5t51.5 -28.5zM317 599q-24 0 -38 15t-14 40q0 48 35.5 89t96.5 58l17 -39q-60 -18 -84 -55h6q20 0 32 -12.5t12 -33.5
q0 -27 -18.5 -44.5t-44.5 -17.5z" />
    <glyph glyph-name="Hbar" unicode="&#x126;" horiz-adv-x="589" 
d="M18 0l99 510h-55l16 83h55l21 107h118l-21 -107h222l21 107h118l-21 -107h50l-16 -83h-50l-99 -510h-118l57 292h-222l-57 -292h-118zM213 398h222l22 112h-222z" />
    <glyph glyph-name="hbar" unicode="&#x127;" horiz-adv-x="478" 
d="M8 0l114 587h-47l14 75h48l15 78h112l-15 -78h132l-14 -75h-133l-29 -150q25 40 59 59.5t72 19.5q52 0 81.5 -32.5t29.5 -100.5q0 -23 -3 -46t-8 -46l-57 -291h-112l55 283q5 22 8 41t3 35q0 56 -51 56q-36 0 -65 -36t-42 -99l-55 -280h-112z" />
    <glyph glyph-name="Itilde" unicode="&#x128;" horiz-adv-x="238" 
d="M10 0l136 700h118l-136 -700h-118zM129 771l-75 10q14 62 46 95.5t78 33.5q21 0 38.5 -9.5t35.5 -26.5q14 -14 22 -19.5t15 -5.5q13 0 21.5 14.5t14.5 46.5l76 -10q-14 -62 -46.5 -95.5t-78.5 -33.5q-21 0 -38.5 9.5t-35.5 26.5q-14 14 -21.5 19t-15.5 5q-13 0 -21.5 -14
t-14.5 -46z" />
    <glyph glyph-name="itilde" unicode="&#x129;" horiz-adv-x="216" 
d="M2 0l101 516h112l-101 -516h-112zM82 595l-70 10q30 143 115 143q22 0 37 -10.5t31 -30.5q14 -18 22 -26.5t16 -8.5q27 0 43 76l70 -10q-30 -143 -115 -143q-22 0 -37.5 11.5t-32.5 32.5q-15 19 -21.5 25.5t-14.5 6.5q-27 0 -43 -76z" />
    <glyph glyph-name="Imacron" unicode="&#x12a;" horiz-adv-x="238" 
d="M10 0l136 700h118l-136 -700h-118zM64 795l16 82h309l-16 -82h-309z" />
    <glyph glyph-name="imacron" unicode="&#x12b;" horiz-adv-x="216" 
d="M2 0l101 516h112l-101 -516h-112zM31 632l17 80h284l-17 -80h-284z" />
    <glyph glyph-name="Iogonek" unicode="&#x12e;" horiz-adv-x="238" 
d="M5 0l136 700h118l-136 -700h-118zM4 -229q-38 0 -60.5 20.5t-22.5 56.5q0 54 44.5 101t123.5 78l34 -27q-55 -26 -88.5 -60.5t-33.5 -66.5t33 -32q14 0 25.5 2t25.5 9l2 -64q-38 -17 -83 -17z" />
    <glyph glyph-name="iogonek" unicode="&#x12f;" horiz-adv-x="216" 
d="M178 601q-28 0 -43.5 16.5t-15.5 43.5q0 38 23 62t57 24q27 0 43.5 -17t16.5 -43q0 -37 -23 -61.5t-58 -24.5zM2 0l101 516h112l-101 -516h-112zM-3 -229q-36 0 -56.5 20t-20.5 56q0 53 42 100t118 80l34 -27q-54 -27 -85 -62t-31 -69q0 -32 28 -32q14 0 24.5 3t23.5 10
l3 -61q-20 -9 -38.5 -13.5t-41.5 -4.5z" />
    <glyph glyph-name="Idotaccent" unicode="&#x130;" horiz-adv-x="238" 
d="M10 0l136 700h118l-136 -700h-118zM225 773q-28 0 -42.5 17t-14.5 43q0 29 19.5 52t50.5 23q29 0 43 -17t14 -44q0 -28 -19 -51t-51 -23z" />
    <glyph glyph-name="dotlessi" unicode="&#x131;" horiz-adv-x="216" 
d="M2 0l101 516h112l-101 -516h-112z" />
    <glyph glyph-name="IJ" unicode="&#x132;" horiz-adv-x="524" 
d="M192 -16q-49 0 -88 14t-65 35l35 94q26 -19 53.5 -29t62.5 -10q44 0 75 16t52.5 56.5t35.5 112.5l83 427h118l-84 -432q-27 -139 -90 -211.5t-188 -72.5zM53 224l93 476h118l-93 -476h-118z" />
    <glyph glyph-name="ij" unicode="&#x133;" horiz-adv-x="464" 
d="M173 605q-28 0 -43.5 16.5t-15.5 43.5q0 37 22.5 61t56.5 24q27 0 43.5 -17t16.5 -43q0 -36 -23 -60.5t-57 -24.5zM426 605q-27 0 -43 16.5t-16 43.5q0 37 23 61t57 24q27 0 43.5 -17t16.5 -43q0 -36 -23 -60.5t-58 -24.5zM122 -229q-49 0 -85.5 12.5t-65.5 34.5l31 93
q25 -24 55 -33.5t63 -9.5q59 0 90.5 40t46.5 119l9 44q-25 -35 -57.5 -53t-67.5 -18q-51 0 -80.5 33t-29.5 101q0 23 3.5 46t7.5 45l57 291h112l-55 -282q-4 -22 -7.5 -42.5t-3.5 -34.5q0 -56 49 -56q35 0 63.5 36t40.5 99l55 280h112l-93 -478q-15 -78 -44 -138.5
t-78.5 -94.5t-127.5 -34z" />
    <glyph glyph-name="uni0136" unicode="&#x136;" horiz-adv-x="550" 
d="M10 0l136 700h118l-62 -317l272 317h136l-251 -283l131 -417h-127l-93 316l-103 -116l-39 -200h-118zM158 -267l-17 39q59 18 83 55h-5q-20 0 -32.5 12.5t-12.5 33.5q0 27 19 44.5t45 17.5q25 0 39 -14.5t14 -40.5q0 -48 -35.5 -89t-97.5 -58z" />
    <glyph glyph-name="uni0137" unicode="&#x137;" horiz-adv-x="463" 
d="M2 0l144 740h112l-85 -437l201 213h129l-187 -193l90 -323h-119l-59 232l-86 -88l-28 -144h-112zM110 -267l-17 39q60 18 84 55h-6q-19 0 -31.5 12.5t-12.5 33.5q0 27 19 44.5t44 17.5q24 0 38 -14.5t14 -40.5q0 -48 -35.5 -89t-96.5 -58z" />
    <glyph glyph-name="Lacute" unicode="&#x139;" horiz-adv-x="447" 
d="M10 0l136 700h117l-115 -595h261l-33 -105h-366zM133 772l134 129h142l-158 -129h-118z" />
    <glyph glyph-name="lacute" unicode="&#x13a;" horiz-adv-x="216" 
d="M2 0l144 740h112l-144 -740h-112zM131 817l134 129h142l-158 -129h-118z" />
    <glyph glyph-name="uni013B" unicode="&#x13b;" horiz-adv-x="447" 
d="M10 0l136 700h117l-115 -595h261l-33 -105h-366zM119 -267l-17 39q59 18 83 55h-5q-20 0 -32.5 12.5t-12.5 33.5q0 27 19 44.5t45 17.5q25 0 39 -14.5t14 -40.5q0 -48 -35.5 -89t-97.5 -58z" />
    <glyph glyph-name="uni013C" unicode="&#x13c;" horiz-adv-x="216" 
d="M2 0l144 740h112l-144 -740h-112zM-36 -267l-17 39q60 18 84 55h-6q-19 0 -31.5 12.5t-12.5 33.5q0 27 19 44.5t44 17.5q24 0 38 -14.5t14 -40.5q0 -48 -35.5 -89t-96.5 -58z" />
    <glyph glyph-name="Lcaron" unicode="&#x13d;" horiz-adv-x="447" 
d="M10 0l136 700h117l-115 -595h261l-33 -105h-366zM312 500q13 47 25.5 98.5t21.5 101.5h102q-11 -51 -27.5 -104.5t-33.5 -95.5h-88z" />
    <glyph glyph-name="lcaron" unicode="&#x13e;" horiz-adv-x="330" 
d="M2 0l144 740h112l-144 -740h-112zM277 540q13 47 25.5 98.5t21.5 101.5h102q-11 -51 -27.5 -104.5t-33.5 -95.5h-88z" />
    <glyph glyph-name="Ldot" unicode="&#x13f;" horiz-adv-x="447" 
d="M10 0l136 700h117l-115 -595h261l-33 -105h-366zM359 330q-31 0 -47.5 19t-16.5 47q0 32 22 58t58 26q31 0 47.5 -19t16.5 -48q0 -32 -22 -57.5t-58 -25.5z" />
    <glyph glyph-name="ldot" unicode="&#x140;" horiz-adv-x="387" 
d="M2 0l144 740h112l-144 -740h-112zM331 294q-31 0 -47.5 19t-16.5 47q0 32 22 58t58 26q31 0 47.5 -19t16.5 -48q0 -32 -22 -57.5t-58 -25.5z" />
    <glyph glyph-name="Lslash" unicode="&#x141;" horiz-adv-x="455" 
d="M18 0l46 235l-61 -36l20 108l62 36l69 357h118l-54 -278l161 95l-20 -109l-163 -95l-40 -208h261l-33 -105h-366z" />
    <glyph glyph-name="lslash" unicode="&#x142;" horiz-adv-x="237" 
d="M12 0l62 317l-57 -27l16 86l57 27l66 337h112l-54 -279l58 28l-17 -86l-58 -28l-73 -375h-112z" />
    <glyph glyph-name="Nacute" unicode="&#x143;" horiz-adv-x="575" 
d="M10 0l136 700h116l131 -500l97 500h111l-136 -700h-115l-132 500l-97 -500h-111zM318 772l134 129h142l-158 -129h-118z" />
    <glyph glyph-name="nacute" unicode="&#x144;" horiz-adv-x="471" 
d="M2 0l101 516h99l-11 -76q25 44 62.5 66.5t78.5 22.5q52 0 81.5 -33t29.5 -101q0 -22 -3 -45.5t-8 -45.5l-59 -304h-112l57 295q7 37 9 52t2 25q0 55 -51 55q-36 0 -65.5 -35.5t-41.5 -98.5l-57 -293h-112zM241 594l124 155h128l-150 -155h-102z" />
    <glyph glyph-name="uni0145" unicode="&#x145;" horiz-adv-x="575" 
d="M10 0l136 700h116l131 -500l97 500h111l-136 -700h-115l-132 500l-97 -500h-111zM159 -267l-17 39q59 18 83 55h-5q-20 0 -32.5 12.5t-12.5 33.5q0 27 19 44.5t45 17.5q25 0 39 -14.5t14 -40.5q0 -48 -35.5 -89t-97.5 -58z" />
    <glyph glyph-name="uni0146" unicode="&#x146;" horiz-adv-x="471" 
d="M2 0l101 516h99l-11 -76q25 44 62.5 66.5t78.5 22.5q52 0 81.5 -33t29.5 -101q0 -22 -3 -45.5t-8 -45.5l-59 -304h-112l57 295q7 37 9 52t2 25q0 55 -51 55q-36 0 -65.5 -35.5t-41.5 -98.5l-57 -293h-112zM97 -267l-17 39q60 18 84 55h-6q-19 0 -31.5 12.5t-12.5 33.5
q0 27 19 44.5t44 17.5q24 0 38 -14.5t14 -40.5q0 -48 -35.5 -89t-96.5 -58z" />
    <glyph glyph-name="Ncaron" unicode="&#x147;" horiz-adv-x="575" 
d="M10 0l136 700h116l131 -500l97 500h111l-136 -700h-115l-132 500l-97 -500h-111zM345 772l-88 129h107l48 -68l74 68h105l-137 -129h-109z" />
    <glyph glyph-name="ncaron" unicode="&#x148;" horiz-adv-x="471" 
d="M2 0l101 516h99l-11 -76q25 44 62.5 66.5t78.5 22.5q52 0 81.5 -33t29.5 -101q0 -22 -3 -45.5t-8 -45.5l-59 -304h-112l57 295q7 37 9 52t2 25q0 55 -51 55q-36 0 -65.5 -35.5t-41.5 -98.5l-57 -293h-112zM265 592l-75 155h92l45 -82l77 82h96l-138 -155h-97z" />
    <glyph glyph-name="Eng" unicode="&#x14a;" horiz-adv-x="579" 
d="M257 -229q-30 0 -57 7.5t-48 23.5l35 96q18 -15 35.5 -19.5t37.5 -4.5q38 0 59 30.5t36 107.5l79 397q5 27 9.5 57t4.5 55q0 84 -81 84q-58 0 -99.5 -54.5t-61.5 -152.5l-78 -398h-118l137 700h104l-18 -114q34 61 83.5 95.5t107.5 34.5q68 0 106 -42.5t38 -131.5
q0 -51 -12 -113l-85 -430q-23 -116 -74.5 -172t-139.5 -56z" />
    <glyph glyph-name="eng" unicode="&#x14b;" horiz-adv-x="471" 
d="M189 -228q-52 0 -90 24l31 90q28 -17 56 -17q29 0 43.5 23t24.5 73l64 330q4 19 7.5 40t3.5 37q0 55 -51 55q-36 0 -65.5 -35.5t-41.5 -98.5l-57 -293h-112l101 516h99l-11 -76q25 44 62.5 66.5t78.5 22.5q52 0 81.5 -33t29.5 -101q0 -22 -3 -45.5t-8 -45.5l-68 -350
q-17 -87 -56.5 -134.5t-118.5 -47.5z" />
    <glyph glyph-name="Omacron" unicode="&#x14c;" horiz-adv-x="635" 
d="M286 -16q-72 0 -125.5 35t-83 98.5t-29.5 150.5q0 58 13 120t39.5 120.5t66.5 105.5t94.5 74.5t122.5 27.5q73 0 126 -35t82.5 -98.5t29.5 -150.5q0 -58 -13 -120t-39.5 -120.5t-66.5 -105.5t-94.5 -74.5t-122.5 -27.5zM293 89q45 0 79 24t58.5 63t39.5 86t22 92.5
t7 82.5q0 83 -31.5 128.5t-90.5 45.5q-45 0 -79 -24t-58 -63t-39.5 -86t-22.5 -92.5t-7 -82.5q0 -82 32 -128t90 -46zM258 795l16 82h309l-16 -82h-309z" />
    <glyph glyph-name="omacron" unicode="&#x14d;" horiz-adv-x="486" 
d="M206 -13q-81 0 -129 57t-48 153q0 54 15.5 112t46.5 108t78 81t111 31q81 0 129 -57t48 -153q0 -54 -15.5 -112t-46.5 -108t-78 -81t-111 -31zM214 85q33 0 57.5 24.5t40 62t23 78.5t7.5 73q0 52 -17.5 79.5t-52.5 27.5q-33 0 -57.5 -24.5t-40 -62t-23 -78t-7.5 -72.5
q0 -108 70 -108zM164 632l17 80h284l-17 -80h-284z" />
    <glyph glyph-name="Ohungarumlaut" unicode="&#x150;" horiz-adv-x="635" 
d="M286 -16q-72 0 -125.5 35t-83 98.5t-29.5 150.5q0 58 13 120t39.5 120.5t66.5 105.5t94.5 74.5t122.5 27.5q73 0 126 -35t82.5 -98.5t29.5 -150.5q0 -58 -13 -120t-39.5 -120.5t-66.5 -105.5t-94.5 -74.5t-122.5 -27.5zM293 89q45 0 79 24t58.5 63t39.5 86t22 92.5
t7 82.5q0 83 -31.5 128.5t-90.5 45.5q-45 0 -79 -24t-58 -63t-39.5 -86t-22.5 -92.5t-7 -82.5q0 -82 32 -128t90 -46zM470 772l134 129h139l-158 -129h-115zM271 772l134 129h139l-158 -129h-115z" />
    <glyph glyph-name="ohungarumlaut" unicode="&#x151;" horiz-adv-x="486" 
d="M206 -13q-81 0 -129 57t-48 153q0 54 15.5 112t46.5 108t78 81t111 31q81 0 129 -57t48 -153q0 -54 -15.5 -112t-46.5 -108t-78 -81t-111 -31zM214 85q33 0 57.5 24.5t40 62t23 78.5t7.5 73q0 52 -17.5 79.5t-52.5 27.5q-33 0 -57.5 -24.5t-40 -62t-23 -78t-7.5 -72.5
q0 -108 70 -108zM360 594l124 155h128l-150 -155h-102zM178 594l124 155h128l-150 -155h-102z" />
    <glyph glyph-name="OE" unicode="&#x152;" horiz-adv-x="816" 
d="M284 -16q-109 0 -172 73t-63 209q0 98 27 180t76 142.5t115 94t143 33.5q59 0 117 -16h322l-4 -102h-247l-37 -191h224l-20 -102h-224l-39 -203h263l-32 -102h-324q-58 -16 -125 -16zM172 275q0 -186 136 -186q45 0 78 13l96 497q-32 12 -80 12q-66 0 -118 -43
t-82 -118.5t-30 -174.5z" />
    <glyph glyph-name="oe" unicode="&#x153;" horiz-adv-x="739" 
d="M206 -13q-81 0 -129 57t-48 153q0 54 15.5 112t46.5 108t78 81t111 31q45 0 79.5 -21.5t53.5 -59.5q28 38 65.5 59.5t88.5 21.5q72 0 110.5 -48t38.5 -132q0 -29 -6 -63t-14 -62h-265v-21q0 -123 93 -123q32 0 61 10t64 33v-93q-32 -24 -72.5 -33.5t-81.5 -9.5
q-97 0 -138 78q-28 -35 -65.5 -56.5t-85.5 -21.5zM552 440q-37 0 -66.5 -39t-43.5 -100h168q2 10 3 22.5t1 25.5q0 91 -62 91zM214 85q33 0 57.5 24.5t40 62t23 78.5t7.5 73q0 52 -17.5 79.5t-52.5 27.5q-33 0 -57.5 -24.5t-40 -62t-23 -78t-7.5 -72.5q0 -108 70 -108z" />
    <glyph glyph-name="Racute" unicode="&#x154;" horiz-adv-x="518" 
d="M10 0l136 700h182q83 0 132 -47t49 -132t-35 -143t-101 -86l72 -292h-121l-55 264h-17h-76l-51 -264h-115zM306 604h-64l-47 -244h60q68 0 102 45t34 115q0 84 -85 84zM274 772l134 129h142l-158 -129h-118z" />
    <glyph glyph-name="racute" unicode="&#x155;" horiz-adv-x="328" 
d="M2 0l101 516h99l-14 -99q24 52 58.5 80.5t76.5 28.5q15 0 27.5 -3.5t19.5 -8.5l-29 -106q-19 9 -44 9q-33 0 -60 -23t-46.5 -61t-28.5 -85l-48 -248h-112zM186 594l124 155h128l-150 -155h-102z" />
    <glyph glyph-name="uni0156" unicode="&#x156;" horiz-adv-x="518" 
d="M10 0l136 700h182q83 0 132 -47t49 -132t-35 -143t-101 -86l72 -292h-121l-55 264h-17h-76l-51 -264h-115zM306 604h-64l-47 -244h60q68 0 102 45t34 115q0 84 -85 84zM138 -267l-17 39q59 18 83 55h-5q-20 0 -32.5 12.5t-12.5 33.5q0 27 19 44.5t45 17.5q25 0 39 -14.5
t14 -40.5q0 -48 -35.5 -89t-97.5 -58z" />
    <glyph glyph-name="uni0157" unicode="&#x157;" horiz-adv-x="328" 
d="M2 0l101 516h99l-14 -99q24 52 58.5 80.5t76.5 28.5q15 0 27.5 -3.5t19.5 -8.5l-29 -106q-19 9 -44 9q-33 0 -60 -23t-46.5 -61t-28.5 -85l-48 -248h-112zM-37 -267l-17 39q60 18 84 55h-6q-19 0 -31.5 12.5t-12.5 33.5q0 27 19 44.5t44 17.5q24 0 38 -14.5t14 -40.5
q0 -48 -35.5 -89t-96.5 -58z" />
    <glyph glyph-name="Rcaron" unicode="&#x158;" horiz-adv-x="518" 
d="M10 0l136 700h182q83 0 132 -47t49 -132t-35 -143t-101 -86l72 -292h-121l-55 264h-17h-76l-51 -264h-115zM306 604h-64l-47 -244h60q68 0 102 45t34 115q0 84 -85 84zM301 772l-88 129h107l48 -68l74 68h105l-137 -129h-109z" />
    <glyph glyph-name="rcaron" unicode="&#x159;" horiz-adv-x="328" 
d="M2 0l101 516h99l-14 -99q24 52 58.5 80.5t76.5 28.5q15 0 27.5 -3.5t19.5 -8.5l-29 -106q-19 9 -44 9q-33 0 -60 -23t-46.5 -61t-28.5 -85l-48 -248h-112zM210 592l-75 155h92l45 -82l77 82h96l-138 -155h-97z" />
    <glyph glyph-name="Sacute" unicode="&#x15a;" horiz-adv-x="470" 
d="M184 -16q-56 0 -107 17.5t-92 52.5l44 99q33 -34 76 -51.5t85 -17.5q56 0 84.5 31.5t28.5 80.5q0 43 -23 66t-73 52q-29 17 -58.5 39.5t-49 58t-19.5 91.5q0 63 28 111t79.5 75t123.5 27q53 0 97 -17t78 -49l-40 -95q-64 61 -135 61q-52 0 -82.5 -27t-30.5 -74
q0 -41 23.5 -65.5t66.5 -48.5q44 -24 74 -49t45.5 -58.5t15.5 -84.5q0 -67 -28.5 -117.5t-82 -79t-128.5 -28.5zM257 772l134 129h142l-158 -129h-118z" />
    <glyph glyph-name="sacute" unicode="&#x15b;" horiz-adv-x="382" 
d="M137 -13q-43 0 -83.5 14t-71.5 40l37 87q53 -50 120 -50q37 0 58 17t21 47q0 26 -15 43t-57 36q-51 23 -76.5 58.5t-25.5 86.5q0 77 53.5 120t137.5 43q38 0 75.5 -14t65.5 -37l-34 -85q-47 44 -111 44q-35 0 -56 -18.5t-21 -44.5q0 -24 15.5 -41.5t58.5 -37.5
q50 -23 75.5 -55.5t25.5 -79.5q0 -83 -51.5 -128t-140.5 -45zM198 594l124 155h128l-150 -155h-102z" />
    <glyph glyph-name="Scedilla" unicode="&#x15e;" horiz-adv-x="470" 
d="M184 -16q-56 0 -107 17.5t-92 52.5l44 99q33 -34 76 -51.5t85 -17.5q56 0 84.5 31.5t28.5 80.5q0 43 -23 66t-73 52q-29 17 -58.5 39.5t-49 58t-19.5 91.5q0 63 28 111t79.5 75t123.5 27q53 0 97 -17t78 -49l-40 -95q-64 61 -135 61q-52 0 -82.5 -27t-30.5 -74
q0 -41 23.5 -65.5t66.5 -48.5q44 -24 74 -49t45.5 -58.5t15.5 -84.5q0 -67 -28.5 -117.5t-82 -79t-128.5 -28.5zM149 -229q-44 0 -81 19l25 57q26 -13 54 -13q22 0 37.5 9t15.5 25q0 14 -10.5 20.5t-27.5 6.5q-12 0 -21.5 -1.5t-18.5 -3.5l50 125h58l-28 -69h7q32 0 51 -17
t19 -49q0 -49 -36 -79t-94 -30z" />
    <glyph glyph-name="scedilla" unicode="&#x15f;" horiz-adv-x="382" 
d="M137 -13q-43 0 -83.5 14t-71.5 40l37 87q53 -50 120 -50q37 0 58 17t21 47q0 26 -15 43t-57 36q-51 23 -76.5 58.5t-25.5 86.5q0 77 53.5 120t137.5 43q38 0 75.5 -14t65.5 -37l-34 -85q-47 44 -111 44q-35 0 -56 -18.5t-21 -44.5q0 -24 15.5 -41.5t58.5 -37.5
q50 -23 75.5 -55.5t25.5 -79.5q0 -83 -51.5 -128t-140.5 -45zM107 -229q-25 0 -44.5 6t-36.5 15l25 54q15 -9 27.5 -12.5t26.5 -3.5q23 0 37.5 11t14.5 29q0 29 -39 29q-13 0 -22.5 -1.5t-17.5 -3.5l48 121h59l-29 -69h6q32 0 50 -16.5t18 -48.5q0 -49 -33 -79.5t-90 -30.5z
" />
    <glyph glyph-name="Scaron" unicode="&#x160;" horiz-adv-x="470" 
d="M184 -16q-56 0 -107 17.5t-92 52.5l44 99q33 -34 76 -51.5t85 -17.5q56 0 84.5 31.5t28.5 80.5q0 43 -23 66t-73 52q-29 17 -58.5 39.5t-49 58t-19.5 91.5q0 63 28 111t79.5 75t123.5 27q53 0 97 -17t78 -49l-40 -95q-64 61 -135 61q-52 0 -82.5 -27t-30.5 -74
q0 -41 23.5 -65.5t66.5 -48.5q44 -24 74 -49t45.5 -58.5t15.5 -84.5q0 -67 -28.5 -117.5t-82 -79t-128.5 -28.5zM284 772l-88 129h107l48 -68l74 68h105l-137 -129h-109z" />
    <glyph glyph-name="scaron" unicode="&#x161;" horiz-adv-x="382" 
d="M137 -13q-43 0 -83.5 14t-71.5 40l37 87q53 -50 120 -50q37 0 58 17t21 47q0 26 -15 43t-57 36q-51 23 -76.5 58.5t-25.5 86.5q0 77 53.5 120t137.5 43q38 0 75.5 -14t65.5 -37l-34 -85q-47 44 -111 44q-35 0 -56 -18.5t-21 -44.5q0 -24 15.5 -41.5t58.5 -37.5
q50 -23 75.5 -55.5t25.5 -79.5q0 -83 -51.5 -128t-140.5 -45zM222 592l-75 155h92l45 -82l77 82h96l-138 -155h-97z" />
    <glyph glyph-name="uni0162" unicode="&#x162;" horiz-adv-x="485" 
d="M134 0l115 595h-170l20 105h459l-20 -105h-171l-115 -595h-118zM151 -229q-44 0 -81 19l25 57q26 -13 54 -13q22 0 37.5 9t15.5 25q0 14 -10.5 20.5t-27.5 6.5q-12 0 -21.5 -1.5t-18.5 -3.5l50 125h58l-28 -69h7q32 0 51 -17t19 -49q0 -49 -36 -79t-94 -30z" />
    <glyph glyph-name="uni0163" unicode="&#x163;" horiz-adv-x="348" 
d="M186 -10q-55 0 -86 29t-31 90q0 18 2.5 39t6.5 39l46 236h-84l30 93h72l32 167h112l-32 -167h115l-17 -93h-117l-45 -234q-2 -10 -4 -25.5t-2 -29.5q0 -28 12 -36.5t31 -8.5q17 0 33 5t32 14l-11 -97q-40 -21 -95 -21zM127 -229q-25 0 -44.5 6t-36.5 15l25 54
q15 -9 27.5 -12.5t26.5 -3.5q23 0 37.5 11t14.5 29q0 29 -39 29q-13 0 -22.5 -1.5t-17.5 -3.5l48 121h59l-29 -69h6q32 0 50 -16.5t18 -48.5q0 -49 -33 -79.5t-90 -30.5z" />
    <glyph glyph-name="Tcaron" unicode="&#x164;" horiz-adv-x="485" 
d="M134 0l115 595h-170l20 105h459l-20 -105h-171l-115 -595h-118zM292 772l-88 129h107l48 -68l74 68h105l-137 -129h-109z" />
    <glyph glyph-name="tcaron" unicode="&#x165;" horiz-adv-x="348" 
d="M186 -10q-55 0 -86 29t-31 90q0 18 2.5 39t6.5 39l46 236h-84l30 93h72l32 167h112l-32 -167h115l-17 -93h-117l-45 -234q-2 -10 -4 -25.5t-2 -29.5q0 -28 12 -36.5t31 -8.5q17 0 33 5t32 14l-11 -97q-40 -21 -95 -21zM316 566q14 47 25.5 91.5t18.5 82.5h102
q-11 -46 -26 -92.5t-32 -81.5h-88z" />
    <glyph glyph-name="Tbar" unicode="&#x166;" horiz-adv-x="485" 
d="M133 0l55 281h-100l18 90h99l44 224h-170l20 105h459l-20 -105h-171l-44 -224h97l-17 -90h-97l-55 -281h-118z" />
    <glyph glyph-name="tbar" unicode="&#x167;" horiz-adv-x="348" 
d="M186 -10q-55 0 -86 29t-31 90q0 18 2.5 39t6.5 39l9 44h-77l14 76h77l23 116h-84l30 93h72l32 167h112l-32 -167h115l-17 -93h-117l-22 -116h117l-14 -76h-118l-8 -42q-2 -10 -4 -25.5t-2 -29.5q0 -28 12 -36.5t31 -8.5q17 0 33 5t32 14l-11 -97q-40 -21 -95 -21z" />
    <glyph glyph-name="Utilde" unicode="&#x168;" horiz-adv-x="571" 
d="M250 -16q-97 0 -148.5 48.5t-51.5 145.5q0 25 3 53t7 46l83 423h117l-81 -417q-10 -53 -10 -94q0 -52 23.5 -76t69.5 -24q60 0 91 48t50 148l81 415h117l-83 -425q-17 -86 -48.5 -152t-84.5 -102.5t-135 -36.5zM300 771l-75 10q14 62 46 95.5t78 33.5q21 0 38.5 -9.5
t35.5 -26.5q14 -14 22 -19.5t15 -5.5q13 0 21.5 14.5t14.5 46.5l76 -10q-14 -62 -46.5 -95.5t-78.5 -33.5q-21 0 -38.5 9.5t-35.5 26.5q-14 14 -21.5 19t-15.5 5q-13 0 -21.5 -14t-14.5 -46z" />
    <glyph glyph-name="utilde" unicode="&#x169;" horiz-adv-x="466" 
d="M138 -13q-51 0 -80.5 33t-29.5 101q0 23 3.5 46t7.5 45l59 304h112l-57 -295q-4 -22 -7.5 -42.5t-3.5 -34.5q0 -56 49 -56q35 0 63.5 36t40.5 99l57 293h112l-101 -516h-99l11 77q-25 -45 -61.5 -67.5t-75.5 -22.5zM215 595l-70 10q30 143 115 143q22 0 37 -10.5
t31 -30.5q14 -18 22 -26.5t16 -8.5q27 0 43 76l70 -10q-30 -143 -115 -143q-22 0 -37.5 11.5t-32.5 32.5q-15 19 -21.5 25.5t-14.5 6.5q-27 0 -43 -76z" />
    <glyph glyph-name="Umacron" unicode="&#x16a;" horiz-adv-x="571" 
d="M250 -16q-97 0 -148.5 48.5t-51.5 145.5q0 25 3 53t7 46l83 423h117l-81 -417q-10 -53 -10 -94q0 -52 23.5 -76t69.5 -24q60 0 91 48t50 148l81 415h117l-83 -425q-17 -86 -48.5 -152t-84.5 -102.5t-135 -36.5zM225 795l16 82h309l-16 -82h-309z" />
    <glyph glyph-name="umacron" unicode="&#x16b;" horiz-adv-x="466" 
d="M138 -13q-51 0 -80.5 33t-29.5 101q0 23 3.5 46t7.5 45l59 304h112l-57 -295q-4 -22 -7.5 -42.5t-3.5 -34.5q0 -56 49 -56q35 0 63.5 36t40.5 99l57 293h112l-101 -516h-99l11 77q-25 -45 -61.5 -67.5t-75.5 -22.5zM146 632l17 80h284l-17 -80h-284z" />
    <glyph glyph-name="Uring" unicode="&#x16e;" horiz-adv-x="571" 
d="M250 -16q-97 0 -148.5 48.5t-51.5 145.5q0 25 3 53t7 46l83 423h117l-81 -417q-10 -53 -10 -94q0 -52 23.5 -76t69.5 -24q60 0 91 48t50 148l81 415h117l-83 -425q-17 -86 -48.5 -152t-84.5 -102.5t-135 -36.5zM381 759q-43 0 -69.5 25t-26.5 63q0 52 35.5 86t86.5 34
q44 0 70 -25t26 -63q0 -52 -35.5 -86t-86.5 -34zM387 809q26 0 43 17t17 45q0 46 -46 46q-25 0 -42.5 -17t-17.5 -46q0 -45 46 -45z" />
    <glyph glyph-name="uring" unicode="&#x16f;" horiz-adv-x="466" 
d="M138 -13q-51 0 -80.5 33t-29.5 101q0 23 3.5 46t7.5 45l59 304h112l-57 -295q-4 -22 -7.5 -42.5t-3.5 -34.5q0 -56 49 -56q35 0 63.5 36t40.5 99l57 293h112l-101 -516h-99l11 77q-25 -45 -61.5 -67.5t-75.5 -22.5zM295 581q-41 0 -66.5 25t-25.5 63q0 52 34 86t83 34
q42 0 67 -25t25 -63q0 -52 -33.5 -86t-83.5 -34zM301 629q24 0 40.5 18t16.5 46q0 48 -44 48q-23 0 -40 -18t-17 -47q0 -22 11 -34.5t33 -12.5z" />
    <glyph glyph-name="Uhungarumlaut" unicode="&#x170;" horiz-adv-x="571" 
d="M250 -16q-97 0 -148.5 48.5t-51.5 145.5q0 25 3 53t7 46l83 423h117l-81 -417q-10 -53 -10 -94q0 -52 23.5 -76t69.5 -24q60 0 91 48t50 148l81 415h117l-83 -425q-17 -86 -48.5 -152t-84.5 -102.5t-135 -36.5zM437 772l134 129h139l-158 -129h-115zM238 772l134 129h139
l-158 -129h-115z" />
    <glyph glyph-name="uhungarumlaut" unicode="&#x171;" horiz-adv-x="466" 
d="M138 -13q-51 0 -80.5 33t-29.5 101q0 23 3.5 46t7.5 45l59 304h112l-57 -295q-4 -22 -7.5 -42.5t-3.5 -34.5q0 -56 49 -56q35 0 63.5 36t40.5 99l57 293h112l-101 -516h-99l11 77q-25 -45 -61.5 -67.5t-75.5 -22.5zM350 594l124 155h128l-150 -155h-102zM168 594l124 155
h128l-150 -155h-102z" />
    <glyph glyph-name="Uogonek" unicode="&#x172;" horiz-adv-x="571" 
d="M250 -16q-97 0 -148.5 48.5t-51.5 145.5q0 25 3 53t7 46l83 423h117l-81 -417q-10 -53 -10 -94q0 -52 23.5 -76t69.5 -24q60 0 91 48t50 148l81 415h117l-83 -425q-17 -86 -48.5 -152t-84.5 -102.5t-135 -36.5zM243 -229q-39 0 -61 20.5t-22 56.5q0 114 186 190l32 -21
q-71 -41 -105 -75t-34 -69q0 -32 34 -32q13 0 24.5 2t25.5 9l2 -64q-38 -17 -82 -17z" />
    <glyph glyph-name="uogonek" unicode="&#x173;" horiz-adv-x="466" 
d="M138 -13q-51 0 -80.5 33t-29.5 101q0 23 3.5 46t7.5 45l59 304h112l-57 -295q-4 -22 -7.5 -42.5t-3.5 -34.5q0 -56 49 -56q35 0 63.5 36t40.5 99l57 293h112l-101 -516h-99l11 77q-25 -45 -61.5 -67.5t-75.5 -22.5zM246 -229q-36 0 -56.5 20t-20.5 56q0 53 42 100t118 80
l34 -27q-54 -27 -85 -62t-31 -69q0 -32 28 -32q14 0 24.5 3t23.5 10l3 -61q-20 -9 -38.5 -13.5t-41.5 -4.5z" />
    <glyph glyph-name="Wcircumflex" unicode="&#x174;" horiz-adv-x="774" 
d="M110 0l-11 700h121l-12 -539l208 539h116l1 -525l194 525h120l-283 -700h-123l2 523l-209 -523h-124zM332 772l137 129h109l88 -129h-107l-48 68l-74 -68h-105z" />
    <glyph glyph-name="wcircumflex" unicode="&#x175;" horiz-adv-x="649" 
d="M83 0l-23 516h114l-1 -379l147 379h110l1 -382l145 382h113l-222 -516h-118l1 383l-150 -383h-117zM244 594l139 155h97l74 -155h-92l-44 82l-77 -82h-97z" />
    <glyph glyph-name="Ycircumflex" unicode="&#x176;" horiz-adv-x="536" 
d="M159 0l55 282l-117 418h121l73 -314l185 314h135l-279 -418l-56 -282h-117zM213 772l137 129h109l88 -129h-107l-48 68l-74 -68h-105z" />
    <glyph glyph-name="ycircumflex" unicode="&#x177;" horiz-adv-x="449" 
d="M14 -229q-45 0 -76 17l23 93q18 -12 50 -12t55 22.5t51 80.5l11 23l-71 521h118l29 -396l168 396h120l-279 -574q-31 -64 -60 -101.5t-62 -53.5t-77 -16zM140 594l139 155h97l74 -155h-92l-44 82l-77 -82h-97z" />
    <glyph glyph-name="Ydieresis" unicode="&#x178;" horiz-adv-x="536" 
d="M159 0l55 282l-117 418h121l73 -314l185 314h135l-279 -418l-56 -282h-117zM479 774q-27 0 -41 16.5t-14 41.5q0 27 18.5 49t49.5 22q26 0 40 -16t14 -41q0 -28 -18.5 -50t-48.5 -22zM264 774q-25 0 -39.5 16.5t-14.5 41.5q0 27 18.5 49t48.5 22q27 0 41 -16t14 -41
q0 -28 -18.5 -50t-49.5 -22z" />
    <glyph glyph-name="Zacute" unicode="&#x179;" horiz-adv-x="509" 
d="M-14 0l18 95l392 503h-284l31 102h406l-19 -95l-390 -503h307l-31 -102h-430zM283 772l134 129h142l-158 -129h-118z" />
    <glyph glyph-name="zacute" unicode="&#x17a;" horiz-adv-x="412" 
d="M-16 0l15 83l278 342h-212l29 91h324l-16 -84l-276 -341h224l-29 -91h-337zM203 594l124 155h128l-150 -155h-102z" />
    <glyph glyph-name="Zdotaccent" unicode="&#x17b;" horiz-adv-x="509" 
d="M-14 0l18 95l392 503h-284l31 102h406l-19 -95l-390 -503h307l-31 -102h-430zM375 773q-28 0 -42.5 17t-14.5 43q0 29 19.5 52t50.5 23q29 0 43 -17t14 -44q0 -28 -19 -51t-51 -23z" />
    <glyph glyph-name="zdotaccent" unicode="&#x17c;" horiz-adv-x="412" 
d="M-16 0l15 83l278 342h-212l29 91h324l-16 -84l-276 -341h224l-29 -91h-337zM287 605q-27 0 -41.5 17t-14.5 43q0 28 19.5 50.5t50.5 22.5q28 0 42 -16.5t14 -42.5q0 -28 -19 -51t-51 -23z" />
    <glyph glyph-name="Zcaron" unicode="&#x17d;" horiz-adv-x="509" 
d="M-14 0l18 95l392 503h-284l31 102h406l-19 -95l-390 -503h307l-31 -102h-430zM310 772l-88 129h107l48 -68l74 68h105l-137 -129h-109z" />
    <glyph glyph-name="zcaron" unicode="&#x17e;" horiz-adv-x="412" 
d="M-16 0l15 83l278 342h-212l29 91h324l-16 -84l-276 -341h224l-29 -91h-337zM227 592l-75 155h92l45 -82l77 82h96l-138 -155h-97z" />
    <glyph glyph-name="uni0218" unicode="&#x218;" horiz-adv-x="470" 
d="M184 -16q-56 0 -107 17.5t-92 52.5l44 99q33 -34 76 -51.5t85 -17.5q56 0 84.5 31.5t28.5 80.5q0 43 -23 66t-73 52q-29 17 -58.5 39.5t-49 58t-19.5 91.5q0 63 28 111t79.5 75t123.5 27q53 0 97 -17t78 -49l-40 -95q-64 61 -135 61q-52 0 -82.5 -27t-30.5 -74
q0 -41 23.5 -65.5t66.5 -48.5q44 -24 74 -49t45.5 -58.5t15.5 -84.5q0 -67 -28.5 -117.5t-82 -79t-128.5 -28.5zM104 -267l-17 39q59 18 83 55h-5q-20 0 -32.5 12.5t-12.5 33.5q0 27 19 44.5t45 17.5q25 0 39 -14.5t14 -40.5q0 -48 -35.5 -89t-97.5 -58z" />
    <glyph glyph-name="uni0219" unicode="&#x219;" horiz-adv-x="382" 
d="M137 -13q-43 0 -83.5 14t-71.5 40l37 87q53 -50 120 -50q37 0 58 17t21 47q0 26 -15 43t-57 36q-51 23 -76.5 58.5t-25.5 86.5q0 77 53.5 120t137.5 43q38 0 75.5 -14t65.5 -37l-34 -85q-47 44 -111 44q-35 0 -56 -18.5t-21 -44.5q0 -24 15.5 -41.5t58.5 -37.5
q50 -23 75.5 -55.5t25.5 -79.5q0 -83 -51.5 -128t-140.5 -45zM59 -267l-17 39q60 18 84 55h-6q-19 0 -31.5 12.5t-12.5 33.5q0 27 19 44.5t44 17.5q24 0 38 -14.5t14 -40.5q0 -48 -35.5 -89t-96.5 -58z" />
    <glyph glyph-name="uni021A" unicode="&#x21a;" horiz-adv-x="485" 
d="M134 0l115 595h-170l20 105h459l-20 -105h-171l-115 -595h-118zM106 -267l-17 39q59 18 83 55h-5q-20 0 -32.5 12.5t-12.5 33.5q0 27 19 44.5t45 17.5q25 0 39 -14.5t14 -40.5q0 -48 -35.5 -89t-97.5 -58z" />
    <glyph glyph-name="uni021B" unicode="&#x21b;" horiz-adv-x="348" 
d="M186 -10q-55 0 -86 29t-31 90q0 18 2.5 39t6.5 39l46 236h-84l30 93h72l32 167h112l-32 -167h115l-17 -93h-117l-45 -234q-2 -10 -4 -25.5t-2 -29.5q0 -28 12 -36.5t31 -8.5q17 0 33 5t32 14l-11 -97q-40 -21 -95 -21zM79 -267l-17 39q60 18 84 55h-6q-19 0 -31.5 12.5
t-12.5 33.5q0 27 19 44.5t44 17.5q24 0 38 -14.5t14 -40.5q0 -48 -35.5 -89t-96.5 -58z" />
    <glyph glyph-name="uni0237" unicode="&#x237;" horiz-adv-x="216" 
d="M-69 -229q-53 0 -91 24l32 90q26 -17 55 -17t43.5 23t24.5 73l108 552h112l-110 -563q-17 -87 -56 -134.5t-118 -47.5z" />
    <glyph glyph-name="circumflex" unicode="&#x2c6;" horiz-adv-x="380" 
d="M100 594l139 155h97l74 -155h-92l-44 82l-77 -82h-97z" />
    <glyph glyph-name="caron" unicode="&#x2c7;" horiz-adv-x="380" 
d="M205 592l-75 155h92l45 -82l77 82h96l-138 -155h-97z" />
    <glyph glyph-name="breve" unicode="&#x2d8;" horiz-adv-x="380" 
d="M260 595q-52 0 -81 28t-29 78q0 8 0.5 18.5t1.5 17.5l73 9q-1 -8 -1 -15v-13q0 -55 47 -55q28 0 45.5 19.5t26.5 63.5l71 -8q-16 -70 -56 -106.5t-98 -36.5z" />
    <glyph glyph-name="dotaccent" unicode="&#x2d9;" horiz-adv-x="380" 
d="M264 605q-27 0 -41.5 17t-14.5 43q0 28 19.5 50.5t50.5 22.5q28 0 42 -16.5t14 -42.5q0 -28 -19 -51t-51 -23z" />
    <glyph glyph-name="ring" unicode="&#x2da;" horiz-adv-x="380" 
d="M260 581q-41 0 -66.5 25t-25.5 63q0 52 34 86t83 34q42 0 67 -25t25 -63q0 -52 -33.5 -86t-83.5 -34zM266 629q24 0 40.5 18t16.5 46q0 48 -44 48q-23 0 -40 -18t-17 -47q0 -22 11 -34.5t33 -12.5z" />
    <glyph glyph-name="ogonek" unicode="&#x2db;" horiz-adv-x="380" 
d="M59 -229q-36 0 -56.5 20t-20.5 56q0 53 42 100t118 80l34 -27q-54 -27 -85 -62t-31 -69q0 -32 28 -32q14 0 24.5 3t23.5 10l3 -61q-20 -9 -38.5 -13.5t-41.5 -4.5z" />
    <glyph glyph-name="tilde" unicode="&#x2dc;" horiz-adv-x="380" 
d="M173 595l-70 10q30 143 115 143q22 0 37 -10.5t31 -30.5q14 -18 22 -26.5t16 -8.5q27 0 43 76l70 -10q-30 -143 -115 -143q-22 0 -37.5 11.5t-32.5 32.5q-15 19 -21.5 25.5t-14.5 6.5q-27 0 -43 -76z" />
    <glyph glyph-name="hungarumlaut" unicode="&#x2dd;" horiz-adv-x="379" 
d="M302 594l124 155h128l-150 -155h-102zM120 594l124 155h128l-150 -155h-102z" />
    <glyph glyph-name="gravecomb" unicode="&#x300;" 
d="M28 594l-88 155h118l61 -155h-91z" />
    <glyph glyph-name="acutecomb" unicode="&#x301;" 
d="M-12 594l124 155h128l-150 -155h-102z" />
    <glyph glyph-name="uni0302" unicode="&#x302;" 
d="M-93 594l139 155h97l74 -155h-92l-44 82l-77 -82h-97z" />
    <glyph glyph-name="tildecomb" unicode="&#x303;" 
d="M-23 595l-70 10q30 143 115 143q22 0 37 -10.5t31 -30.5q14 -18 22 -26.5t16 -8.5q27 0 43 76l70 -10q-30 -143 -115 -143q-22 0 -37.5 11.5t-32.5 32.5q-15 19 -21.5 25.5t-14.5 6.5q-27 0 -43 -76z" />
    <glyph glyph-name="uni0304" unicode="&#x304;" 
d="M-74 632l17 80h284l-17 -80h-284z" />
    <glyph glyph-name="uni0306" unicode="&#x306;" 
d="M65 595q-52 0 -81 28t-29 78q0 8 0.5 18.5t1.5 17.5l73 9q-1 -8 -1 -15v-13q0 -55 47 -55q28 0 45.5 19.5t26.5 63.5l71 -8q-16 -70 -56 -106.5t-98 -36.5z" />
    <glyph glyph-name="uni0307" unicode="&#x307;" 
d="M72 605q-27 0 -41.5 17t-14.5 43q0 28 19.5 50.5t50.5 22.5q28 0 42 -16.5t14 -42.5q0 -28 -19 -51t-51 -23z" />
    <glyph glyph-name="uni0308" unicode="&#x308;" 
d="M157 609q-25 0 -39 16t-14 40q0 27 18 48.5t49 21.5q26 0 39.5 -16t13.5 -40q0 -27 -18 -48.5t-49 -21.5zM-28 609q-25 0 -39 16t-14 40q0 27 18 48.5t49 21.5q26 0 39.5 -16t13.5 -40q0 -27 -18 -48.5t-49 -21.5z" />
    <glyph glyph-name="uni030A" unicode="&#x30a;" 
d="M65 581q-41 0 -66.5 25t-25.5 63q0 52 34 86t83 34q42 0 67 -25t25 -63q0 -52 -33.5 -86t-83.5 -34zM71 629q24 0 40.5 18t16.5 46q0 48 -44 48q-23 0 -40 -18t-17 -47q0 -22 11 -34.5t33 -12.5z" />
    <glyph glyph-name="uni030B" unicode="&#x30b;" 
d="M112 594l124 155h128l-150 -155h-102zM-70 594l124 155h128l-150 -155h-102z" />
    <glyph glyph-name="uni030C" unicode="&#x30c;" 
d="M12 592l-75 155h92l45 -82l77 82h96l-138 -155h-97z" />
    <glyph glyph-name="uni0312" unicode="&#x312;" 
d="M69 599q-24 0 -38 15t-14 40q0 48 35.5 89t96.5 58l17 -39q-60 -18 -84 -55h6q20 0 32 -12.5t12 -33.5q0 -27 -18.5 -44.5t-44.5 -17.5z" />
    <glyph glyph-name="uni0315" unicode="&#x315;" 
d="M-7 540q13 47 25.5 98.5t21.5 101.5h102q-11 -51 -27.5 -104.5t-33.5 -95.5h-88z" />
    <glyph glyph-name="dotbelowcomb" unicode="&#x323;" 
d="M-84 -198q-28 0 -42.5 17t-14.5 43q0 28 19.5 50.5t50.5 22.5q28 0 42.5 -16.5t14.5 -42.5q0 -28 -19 -51t-51 -23z" />
    <glyph glyph-name="uni0326" unicode="&#x326;" 
d="M-146 -267l-17 39q60 18 84 55h-6q-19 0 -31.5 12.5t-12.5 33.5q0 27 19 44.5t44 17.5q24 0 38 -14.5t14 -40.5q0 -48 -35.5 -89t-96.5 -58z" />
    <glyph glyph-name="uni0327" unicode="&#x327;" 
d="M-98 -229q-25 0 -44.5 6t-36.5 15l25 54q15 -9 27.5 -12.5t26.5 -3.5q23 0 37.5 11t14.5 29q0 29 -39 29q-13 0 -22.5 -1.5t-17.5 -3.5l48 121h59l-29 -69h6q32 0 50 -16.5t18 -48.5q0 -49 -33 -79.5t-90 -30.5z" />
    <glyph glyph-name="uni0328" unicode="&#x328;" 
d="M-131 -229q-36 0 -56.5 20t-20.5 56q0 53 42 100t118 80l34 -27q-54 -27 -85 -62t-31 -69q0 -32 28 -32q14 0 24.5 3t23.5 10l3 -61q-20 -9 -38.5 -13.5t-41.5 -4.5z" />
    <glyph glyph-name="uni0344" unicode="&#x344;" 
d="M17 605l81 197h115l-114 -197h-82zM228 609q-26 0 -40 16t-14 40q0 27 18.5 48.5t48.5 21.5q26 0 40 -16t14 -40q0 -27 -18.5 -48.5t-48.5 -21.5zM-56 609q-26 0 -40 16t-14 40q0 27 18.5 48.5t48.5 21.5q26 0 40 -16t14 -40q0 -27 -18.5 -48.5t-48.5 -21.5z" />
    <glyph glyph-name="uni0374" unicode="&#x374;" horiz-adv-x="207" 
d="M64 460l105 280h132l-132 -280h-105z" />
    <glyph glyph-name="uni0375" unicode="&#x375;" horiz-adv-x="207" 
d="M-70 -104l132 280h105l-105 -280h-132z" />
    <glyph glyph-name="uni037E" unicode="&#x37e;" horiz-adv-x="226" 
d="M-19 -167l-28 51q36 16 66.5 44t46.5 63q-29 1 -45 19.5t-16 46.5q0 32 22 58t58 26q31 0 47.5 -20.5t16.5 -55.5q0 -43 -22 -89.5t-60 -85t-86 -57.5zM146 375q-31 0 -47.5 19t-16.5 47q0 32 22 58t58 26q31 0 47.5 -19t16.5 -48q0 -32 -22 -57.5t-58 -25.5z" />
    <glyph glyph-name="tonos" unicode="&#x384;" horiz-adv-x="380" 
d="M171 605l86 197h125l-120 -197h-91z" />
    <glyph glyph-name="dieresistonos" unicode="&#x385;" horiz-adv-x="380" 
d="M195 605l81 197h115l-114 -197h-82zM406 609q-26 0 -40 16t-14 40q0 27 18.5 48.5t48.5 21.5q26 0 40 -16t14 -40q0 -27 -18.5 -48.5t-48.5 -21.5zM122 609q-26 0 -40 16t-14 40q0 27 18.5 48.5t48.5 21.5q26 0 40 -16t14 -40q0 -27 -18.5 -48.5t-48.5 -21.5z" />
    <glyph glyph-name="Alphatonos" unicode="&#x386;" horiz-adv-x="564" 
d="M-40 0l347 700h122l75 -700h-120l-13 171h-206l-79 -171h-126zM211 271h153l-21 285zM8 468l75 232h127l-106 -232h-96z" />
    <glyph glyph-name="anoteleia" unicode="&#x387;" horiz-adv-x="226" 
d="M142 375q-31 0 -47.5 19t-16.5 47q0 32 22 58t58 26q31 0 47.5 -19t16.5 -48q0 -32 -22 -57.5t-58 -25.5z" />
    <glyph glyph-name="Epsilontonos" unicode="&#x388;" horiz-adv-x="470" 
d="M10 0l136 700h357l-4 -102h-257l-37 -191h234l-20 -102h-234l-39 -203h273l-32 -102h-377zM-118 468l75 232h127l-106 -232h-96z" />
    <glyph glyph-name="Etatonos" unicode="&#x389;" horiz-adv-x="578" 
d="M10 0l136 700h118l-57 -292h222l57 292h118l-136 -700h-118l59 302h-222l-59 -302h-118zM-118 468l75 232h127l-106 -232h-96z" />
    <glyph glyph-name="Iotatonos" unicode="&#x38a;" horiz-adv-x="238" 
d="M10 0l136 700h118l-136 -700h-118zM-118 468l75 232h127l-106 -232h-96z" />
    <glyph glyph-name="Omicrontonos" unicode="&#x38c;" horiz-adv-x="635" 
d="M286 -16q-72 0 -125.5 35t-83 98.5t-29.5 150.5q0 58 13 120t39.5 120.5t66.5 105.5t94.5 74.5t122.5 27.5q73 0 126 -35t82.5 -98.5t29.5 -150.5q0 -58 -13 -120t-39.5 -120.5t-66.5 -105.5t-94.5 -74.5t-122.5 -27.5zM293 89q45 0 79 24t58.5 63t39.5 86t22 92.5
t7 82.5q0 83 -31.5 128.5t-90.5 45.5q-45 0 -79 -24t-58 -63t-39.5 -86t-22.5 -92.5t-7 -82.5q0 -82 32 -128t90 -46zM-90 468l75 232h127l-106 -232h-96z" />
    <glyph glyph-name="Upsilontonos" unicode="&#x38e;" horiz-adv-x="536" 
d="M159 0l55 282l-117 418h121l73 -314l185 314h135l-279 -418l-56 -282h-117zM-147 468l75 232h127l-106 -232h-96z" />
    <glyph glyph-name="Omegatonos" unicode="&#x38f;" horiz-adv-x="794" 
d="M145 0l20 102h127q-36 37 -57 85.5t-21 107.5q0 57 13.5 116t40 113.5t66 98t92 68.5t116.5 25q66 0 117 -29t80 -84.5t29 -137.5q0 -73 -21.5 -141t-61.5 -125.5t-98 -96.5h131l-32 -102h-226l19 97q34 22 64 60.5t53 87.5t36 103.5t13 106.5q0 79 -28 117.5t-81 38.5
q-42 0 -74.5 -21.5t-56 -57.5t-39 -80t-22.5 -89t-7 -84q0 -70 17.5 -116t42.5 -66l-20 -97h-232zM61 468l75 232h127l-106 -232h-96z" />
    <glyph glyph-name="iotadieresistonos" unicode="&#x390;" horiz-adv-x="274" 
d="M128 -10q-55 0 -80.5 27t-25.5 79q0 31 7 65l69 355h112l-66 -342q-3 -15 -5 -27t-2 -23q0 -36 32 -36q26 0 50 15l-3 -91q-21 -10 -41.5 -16t-46.5 -6zM119 605l81 197h115l-114 -197h-82zM330 609q-26 0 -40 16t-14 40q0 27 18.5 48.5t48.5 21.5q26 0 40 -16t14 -40
q0 -27 -18.5 -48.5t-48.5 -21.5zM46 609q-26 0 -40 16t-14 40q0 27 18.5 48.5t48.5 21.5q26 0 40 -16t14 -40q0 -27 -18.5 -48.5t-48.5 -21.5z" />
    <glyph glyph-name="Alpha" unicode="&#x391;" horiz-adv-x="564" 
d="M-40 0l347 700h122l75 -700h-120l-13 171h-206l-79 -171h-126zM211 271h153l-21 285z" />
    <glyph glyph-name="Beta" unicode="&#x392;" horiz-adv-x="520" 
d="M10 0l136 700h184q86 0 135 -42.5t49 -116.5q0 -67 -36 -114t-99 -65q46 -12 72.5 -45t26.5 -83q0 -109 -70.5 -171.5t-194.5 -62.5h-203zM308 607h-68l-38 -199h68q65 0 97 36.5t32 92.5q0 70 -91 70zM262 317h-78l-44 -224h78q74 0 109.5 41t35.5 105q0 38 -26 58
t-75 20z" />
    <glyph glyph-name="Gamma" unicode="&#x393;" horiz-adv-x="425" 
d="M10 0l136 700h335l-4 -105h-233l-116 -595h-118z" />
    <glyph glyph-name="uni0394" unicode="&#x394;" horiz-adv-x="568" 
d="M-20 0l18 93l309 607h125l74 -607l-18 -93h-508zM126 103h251l-36 461z" />
    <glyph glyph-name="Epsilon" unicode="&#x395;" horiz-adv-x="470" 
d="M10 0l136 700h357l-4 -102h-257l-37 -191h234l-20 -102h-234l-39 -203h273l-32 -102h-377z" />
    <glyph glyph-name="Zeta" unicode="&#x396;" horiz-adv-x="509" 
d="M-14 0l18 95l392 503h-284l31 102h406l-19 -95l-390 -503h307l-31 -102h-430z" />
    <glyph glyph-name="Eta" unicode="&#x397;" horiz-adv-x="578" 
d="M10 0l136 700h118l-57 -292h222l57 292h118l-136 -700h-118l59 302h-222l-59 -302h-118z" />
    <glyph glyph-name="Theta" unicode="&#x398;" horiz-adv-x="635" 
d="M286 -16q-72 0 -125.5 35t-83 98.5t-29.5 150.5q0 58 13 120t39.5 120.5t66.5 105.5t94.5 74.5t122.5 27.5q73 0 126 -35t82.5 -98.5t29.5 -150.5q0 -58 -13 -120t-39.5 -120.5t-66.5 -105.5t-94.5 -74.5t-122.5 -27.5zM293 89q45 0 79 24t58.5 63t39.5 86t22 92.5
t7 82.5q0 83 -31.5 128.5t-90.5 45.5q-45 0 -79 -24t-58 -63t-39.5 -86t-22.5 -92.5t-7 -82.5q0 -82 32 -128t90 -46zM227 306l20 102h196l-20 -102h-196z" />
    <glyph glyph-name="Iota" unicode="&#x399;" horiz-adv-x="238" 
d="M10 0l136 700h118l-136 -700h-118z" />
    <glyph glyph-name="Kappa" unicode="&#x39a;" horiz-adv-x="550" 
d="M10 0l136 700h118l-62 -317l272 317h136l-251 -283l131 -417h-127l-93 316l-103 -116l-39 -200h-118z" />
    <glyph glyph-name="Lambda" unicode="&#x39b;" horiz-adv-x="536" 
d="M-40 0l334 700h122l60 -700h-120l-29 544l-241 -544h-126z" />
    <glyph glyph-name="Mu" unicode="&#x39c;" horiz-adv-x="686" 
d="M10 0l136 700h143l50 -459l230 459h143l-136 -700h-108l103 529l-209 -411h-92l-48 417l-104 -535h-108z" />
    <glyph glyph-name="Nu" unicode="&#x39d;" horiz-adv-x="575" 
d="M10 0l136 700h116l131 -500l97 500h111l-136 -700h-115l-132 500l-97 -500h-111z" />
    <glyph glyph-name="Xi" unicode="&#x39e;" horiz-adv-x="479" 
d="M100 588l21 112h409l-22 -112h-408zM109 304l21 104h279l-21 -104h-279zM-23 0l22 112h425l-22 -112h-425z" />
    <glyph glyph-name="Omicron" unicode="&#x39f;" horiz-adv-x="635" 
d="M286 -16q-72 0 -125.5 35t-83 98.5t-29.5 150.5q0 58 13 120t39.5 120.5t66.5 105.5t94.5 74.5t122.5 27.5q73 0 126 -35t82.5 -98.5t29.5 -150.5q0 -58 -13 -120t-39.5 -120.5t-66.5 -105.5t-94.5 -74.5t-122.5 -27.5zM293 89q45 0 79 24t58.5 63t39.5 86t22 92.5
t7 82.5q0 83 -31.5 128.5t-90.5 45.5q-45 0 -79 -24t-58 -63t-39.5 -86t-22.5 -92.5t-7 -82.5q0 -82 32 -128t90 -46z" />
    <glyph glyph-name="Pi" unicode="&#x3a0;" horiz-adv-x="576" 
d="M10 0l136 700h456l-136 -700h-119l115 593h-218l-115 -593h-119z" />
    <glyph glyph-name="Rho" unicode="&#x3a1;" horiz-adv-x="490" 
d="M10 0l136 700h180q83 0 130 -48.5t47 -135.5q0 -124 -68 -194.5t-188 -70.5h-73l-49 -251h-115zM304 604h-61l-50 -257h60q68 0 100.5 48t32.5 121q0 88 -82 88z" />
    <glyph glyph-name="Sigma" unicode="&#x3a3;" horiz-adv-x="478" 
d="M-12 0l18 97l216 265l-111 241l18 97h386l-4 -105h-273l111 -236l-210 -254h290l-33 -105h-408z" />
    <glyph glyph-name="Tau" unicode="&#x3a4;" horiz-adv-x="485" 
d="M134 0l115 595h-170l20 105h459l-20 -105h-171l-115 -595h-118z" />
    <glyph glyph-name="Upsilon" unicode="&#x3a5;" horiz-adv-x="536" 
d="M159 0l55 282l-117 418h121l73 -314l185 314h135l-279 -418l-56 -282h-117z" />
    <glyph glyph-name="Phi" unicode="&#x3a6;" horiz-adv-x="666" 
d="M225 0l14 71q-84 20 -136.5 79t-52.5 158q0 100 37.5 175.5t105.5 119t160 48.5l12 65h115l-14 -76q83 -20 135.5 -79t52.5 -159q0 -101 -37 -176t-105 -118.5t-160 -47.5l-12 -60h-115zM171 311q0 -59 25 -95t66 -52l75 392q-54 -7 -91 -41t-56 -86.5t-19 -117.5z
M533 400q0 58 -25 93.5t-65 51.5l-76 -391q54 8 91 42t56 87t19 117z" />
    <glyph glyph-name="Chi" unicode="&#x3a7;" horiz-adv-x="549" 
d="M-40 0l271 369l-119 331h123l77 -243l166 243h131l-252 -345l132 -355h-125l-89 265l-182 -265h-133z" />
    <glyph glyph-name="Psi" unicode="&#x3a8;" horiz-adv-x="637" 
d="M212 0l35 180q-92 15 -133.5 67.5t-41.5 134.5q0 40 9 83l45 235h117l-44 -228q-4 -21 -6.5 -39.5t-2.5 -35.5q0 -45 17.5 -75t59.5 -41l81 419h113l-82 -420q64 16 96.5 66.5t46.5 125.5l44 228h116l-45 -235q-15 -79 -47 -141.5t-87.5 -101t-143.5 -45.5l-34 -177h-113
z" />
    <glyph glyph-name="uni03A9" unicode="&#x3a9;" horiz-adv-x="645" 
d="M-4 0l20 102h127q-36 37 -57 85.5t-21 107.5q0 57 13.5 116t40 113.5t66 98t92 68.5t116.5 25q66 0 117 -29t80 -84.5t29 -137.5q0 -73 -21.5 -141t-61.5 -125.5t-98 -96.5h131l-32 -102h-226l19 97q34 22 64 60.5t53 87.5t36 103.5t13 106.5q0 79 -28 117.5t-81 38.5
q-42 0 -74.5 -21.5t-56 -57.5t-39 -80t-22.5 -89t-7 -84q0 -70 17.5 -116t42.5 -66l-20 -97h-232z" />
    <glyph glyph-name="Iotadieresis" unicode="&#x3aa;" horiz-adv-x="238" 
d="M10 0l136 700h118l-136 -700h-118zM338 774q-27 0 -41 16.5t-14 41.5q0 27 18.5 49t49.5 22q26 0 40 -16t14 -41q0 -28 -18.5 -50t-48.5 -22zM123 774q-25 0 -39.5 16.5t-14.5 41.5q0 27 18.5 49t48.5 22q27 0 41 -16t14 -41q0 -28 -18.5 -50t-49.5 -22z" />
    <glyph glyph-name="Upsilondieresis" unicode="&#x3ab;" horiz-adv-x="536" 
d="M159 0l55 282l-117 418h121l73 -314l185 314h135l-279 -418l-56 -282h-117zM508 774q-27 0 -41 16.5t-14 41.5q0 27 18.5 49t49.5 22q26 0 40 -16t14 -41q0 -28 -18.5 -50t-48.5 -22zM293 774q-25 0 -39.5 16.5t-14.5 41.5q0 27 18.5 49t48.5 22q27 0 41 -16t14 -41
q0 -28 -18.5 -50t-49.5 -22z" />
    <glyph glyph-name="alphatonos" unicode="&#x3ac;" horiz-adv-x="508" 
d="M165 -13q-63 0 -100.5 53.5t-37.5 143.5q0 40 8.5 86.5t25.5 92t43.5 83t63 60.5t83.5 23q48 0 77 -31t37 -83q9 28 17 52.5t17 48.5h112q-22 -62 -37 -105t-25.5 -77.5t-21.5 -73.5q-11 -40 -18.5 -78t-7.5 -63t18 -25q7 0 14.5 2.5t14.5 6.5l-3 -92q-17 -7 -36 -11.5
t-39 -4.5q-33 0 -53 19.5t-23 63.5q-24 -45 -55.5 -68t-73.5 -23zM208 85q34 0 62 34.5t45 90.5t17 121q0 47 -14.5 73t-46.5 26q-33 0 -57 -24t-39.5 -61.5t-23 -78t-7.5 -74.5q0 -51 16.5 -79t47.5 -28zM280 605l86 197h125l-120 -197h-91z" />
    <glyph glyph-name="epsilontonos" unicode="&#x3ad;" horiz-adv-x="413" 
d="M183 -13q-81 0 -124.5 37.5t-43.5 97.5q0 54 32.5 92.5t83.5 55.5q-60 32 -60 98q0 48 27 84.5t74.5 56.5t108.5 20q44 0 79.5 -9.5t57.5 -28.5l-38 -89q-37 33 -100 33q-95 0 -95 -71q0 -25 16 -43t47 -18h84l-17 -80h-95q-40 0 -63.5 -20.5t-23.5 -58.5q0 -31 22.5 -47
t54.5 -16q40 0 67.5 9.5t58.5 27.5l2 -90q-28 -19 -66.5 -30t-88.5 -11zM234 605l86 197h125l-120 -197h-91z" />
    <glyph glyph-name="etatonos" unicode="&#x3ae;" horiz-adv-x="498" 
d="M245 -216l100 511q4 20 7 40.5t3 36.5q0 55 -50 55q-37 0 -66 -35.5t-41 -98.5l-57 -293h-112l69 356q4 21 4 41q0 25 -17 25q-7 0 -13.5 -3t-11.5 -6l3 92q17 8 33.5 12t36.5 4q35 0 57 -21t22 -71q25 50 64 75t82 25q52 0 81.5 -33t29.5 -101q0 -22 -3 -45.5t-8 -45.5
l-101 -520h-112zM263 605l86 197h125l-120 -197h-91z" />
    <glyph glyph-name="iotatonos" unicode="&#x3af;" horiz-adv-x="274" 
d="M128 -10q-55 0 -80.5 27t-25.5 79q0 31 7 65l69 355h112l-66 -342q-3 -15 -5 -27t-2 -23q0 -36 32 -36q26 0 50 15l-3 -91q-21 -10 -41.5 -16t-46.5 -6zM123 605l86 197h125l-120 -197h-91z" />
    <glyph glyph-name="upsilondieresistonos" unicode="&#x3b0;" horiz-adv-x="472" 
d="M197 -13q-72 0 -106.5 41.5t-34.5 115.5q0 21 2.5 44.5t7.5 49.5l24 122l4 22t2 19q0 21 -17 21q-7 0 -13.5 -3t-11.5 -6l3 92q17 8 33.5 12t36.5 4q39 0 60 -22.5t21 -71.5q0 -26 -6 -61l-24 -125q-5 -26 -9 -50.5t-4 -44.5q0 -28 10.5 -44t36.5 -16q41 0 65.5 44
t41.5 138q23 126 23 248h111q0 -58 -5 -120.5t-15 -114.5q-25 -138 -83.5 -216t-152.5 -78zM247 605l81 197h115l-114 -197h-82zM458 609q-26 0 -40 16t-14 40q0 27 18.5 48.5t48.5 21.5q26 0 40 -16t14 -40q0 -27 -18.5 -48.5t-48.5 -21.5zM174 609q-26 0 -40 16t-14 40
q0 27 18.5 48.5t48.5 21.5q26 0 40 -16t14 -40q0 -27 -18.5 -48.5t-48.5 -21.5z" />
    <glyph glyph-name="alpha" unicode="&#x3b1;" horiz-adv-x="508" 
d="M165 -13q-63 0 -100.5 53.5t-37.5 143.5q0 40 8.5 86.5t25.5 92t43.5 83t63 60.5t83.5 23q48 0 77 -31t37 -83q9 28 17 52.5t17 48.5h112q-22 -62 -37 -105t-25.5 -77.5t-21.5 -73.5q-11 -40 -18.5 -78t-7.5 -63t18 -25q7 0 14.5 2.5t14.5 6.5l-3 -92q-17 -7 -36 -11.5
t-39 -4.5q-33 0 -53 19.5t-23 63.5q-24 -45 -55.5 -68t-73.5 -23zM208 85q34 0 62 34.5t45 90.5t17 121q0 47 -14.5 73t-46.5 26q-33 0 -57 -24t-39.5 -61.5t-23 -78t-7.5 -74.5q0 -51 16.5 -79t47.5 -28z" />
    <glyph glyph-name="beta" unicode="&#x3b2;" horiz-adv-x="499" 
d="M-40 -216l141 727q48 242 225 242q77 0 120 -45t43 -116q0 -67 -34 -121t-89 -77q43 -17 67.5 -52t24.5 -91q0 -74 -28.5 -134t-76 -95t-105.5 -35q-41 0 -74 19t-47 60l-55 -282h-112zM234 88q47 0 79.5 46t32.5 122q0 83 -78 83h-40l19 95h37q29 0 49.5 21t32 54
t11.5 68q0 36 -14.5 57.5t-44.5 21.5q-43 0 -67.5 -39t-36.5 -102l-55 -282q-6 -30 -6 -53q0 -49 22.5 -70.5t58.5 -21.5z" />
    <glyph glyph-name="gamma" unicode="&#x3b3;" horiz-adv-x="459" 
d="M85 -216l43 223l-33 364q-2 28 -6.5 39.5t-16.5 11.5q-10 0 -22 -9l3 92q14 8 29 12t35 4q35 0 57.5 -22t25.5 -71l19 -302q51 100 92 197t69 193h116q-40 -124 -107.5 -253.5t-150.5 -260.5l-42 -218h-111z" />
    <glyph glyph-name="delta" unicode="&#x3b4;" horiz-adv-x="479" 
d="M206 -13q-54 0 -94.5 25t-63 70t-22.5 104q0 61 20 114.5t58.5 91t93.5 52.5q-30 24 -47 55t-17 69q0 84 57.5 134t154.5 50q49 0 89 -13.5t65 -36.5l-37 -93q-51 49 -122 49q-48 0 -70.5 -22t-22.5 -61q0 -25 16 -44t49 -41l32 -22q50 -34 74.5 -81.5t24.5 -106.5
q0 -55 -17 -107.5t-48.5 -94.5t-75.5 -66.5t-97 -24.5zM213 86q28 0 50 20t37 52t22.5 68.5t7.5 69.5q0 48 -17.5 74.5t-52.5 26.5q-29 0 -50.5 -20.5t-36 -53t-22 -69t-7.5 -68.5q0 -46 17.5 -73t51.5 -27z" />
    <glyph glyph-name="epsilon" unicode="&#x3b5;" horiz-adv-x="413" 
d="M183 -13q-81 0 -124.5 37.5t-43.5 97.5q0 54 32.5 92.5t83.5 55.5q-60 32 -60 98q0 48 27 84.5t74.5 56.5t108.5 20q44 0 79.5 -9.5t57.5 -28.5l-38 -89q-37 33 -100 33q-95 0 -95 -71q0 -25 16 -43t47 -18h84l-17 -80h-95q-40 0 -63.5 -20.5t-23.5 -58.5q0 -31 22.5 -47
t54.5 -16q40 0 67.5 9.5t58.5 27.5l2 -90q-28 -19 -66.5 -30t-88.5 -11z" />
    <glyph glyph-name="zeta" unicode="&#x3b6;" horiz-adv-x="386" 
d="M210 -214l-53 76q29 18 48.5 41.5t19.5 51.5q0 20 -13 31.5t-42 22.5l-34 13q-51 20 -80 53.5t-29 90.5q0 92 74.5 208t228.5 275h-207l29 91h320l-17 -83q-160 -164 -234.5 -272t-74.5 -182q0 -34 15.5 -53.5t48.5 -32.5l33 -14q48 -19 73.5 -49t25.5 -74
q0 -61 -34.5 -109t-97.5 -85z" />
    <glyph glyph-name="eta" unicode="&#x3b7;" horiz-adv-x="498" 
d="M245 -216l100 511q4 20 7 40.5t3 36.5q0 55 -50 55q-37 0 -66 -35.5t-41 -98.5l-57 -293h-112l69 356q4 21 4 41q0 25 -17 25q-7 0 -13.5 -3t-11.5 -6l3 92q17 8 33.5 12t36.5 4q35 0 57 -21t22 -71q25 50 64 75t82 25q52 0 81.5 -33t29.5 -101q0 -22 -3 -45.5t-8 -45.5
l-101 -520h-112z" />
    <glyph glyph-name="theta" unicode="&#x3b8;" horiz-adv-x="516" 
d="M225 -13q-59 0 -97.5 30t-56.5 82.5t-18 121.5q0 70 11.5 144.5t34 143.5t56 124t78.5 87.5t100 32.5q89 0 131 -65.5t42 -170.5q0 -70 -11.5 -144t-34 -143t-56.5 -124t-78.5 -87t-100.5 -32zM325 655q-29 0 -54 -33t-45 -86t-33 -114h191q7 60 7 110q0 55 -14.5 89
t-51.5 34zM233 85q31 0 57.5 36t46.5 93.5t33 122.5h-192q-11 -72 -11 -129q0 -53 15 -88t51 -35z" />
    <glyph glyph-name="iota" unicode="&#x3b9;" horiz-adv-x="274" 
d="M128 -10q-55 0 -80.5 27t-25.5 79q0 31 7 65l69 355h112l-66 -342q-3 -15 -5 -27t-2 -23q0 -36 32 -36q26 0 50 15l-3 -91q-21 -10 -41.5 -16t-46.5 -6z" />
    <glyph glyph-name="kappa" unicode="&#x3ba;" horiz-adv-x="468" 
d="M2 0l101 516h112l-41 -211l200 211h129l-188 -194l91 -322h-119l-59 233l-86 -88l-28 -145h-112z" />
    <glyph glyph-name="lambda" unicode="&#x3bb;" horiz-adv-x="466" 
d="M-34 0l284 540l-2 26q-4 49 -20.5 69t-42.5 20q-31 0 -60 -20l-4 92q25 13 48 19.5t51 6.5q62 0 97 -43t42 -141l41 -569h-120l-12 385l-184 -385h-118z" />
    <glyph glyph-name="uni03BC" unicode="&#x3bc;" horiz-adv-x="496" 
d="M-40 -216l143 732h112l-58 -297q-4 -17 -7 -37t-3 -37q0 -57 50 -57q38 0 66.5 37.5t40.5 99.5l57 291h112l-69 -357q-2 -11 -3.5 -21t-1.5 -19q0 -25 19 -25q10 0 23 9l-3 -92q-16 -7 -33 -11.5t-37 -4.5q-34 0 -56 20.5t-22 67.5q-23 -51 -55.5 -73.5t-62.5 -22.5
q-35 0 -57 20l-43 -223h-112z" />
    <glyph glyph-name="nu" unicode="&#x3bd;" horiz-adv-x="452" 
d="M126 0l-30 371q-2 28 -6.5 39.5t-16.5 11.5q-11 0 -23 -9l3 92q15 8 30 12t35 4q35 0 57.5 -22t25.5 -72l17 -293q49 98 88.5 193t66.5 189h116q-40 -124 -106 -254.5t-149 -261.5h-108z" />
    <glyph glyph-name="xi" unicode="&#x3be;" horiz-adv-x="428" 
d="M231 -214l-53 76q29 18 48 41.5t19 51.5q0 20 -12.5 31t-41.5 23l-36 13q-63 25 -97 64t-34 106q0 70 44 125.5t117 79.5q-37 17 -57.5 54t-20.5 80q0 66 30.5 116t83 78t119.5 28q41 0 79 -11.5t63 -32.5l-39 -95q-45 39 -103 39q-54 0 -87.5 -32t-33.5 -91
q0 -37 20.5 -65t57.5 -28h80l-19 -97h-84q-58 0 -94.5 -36.5t-36.5 -91.5q0 -42 22.5 -62t59.5 -33l39 -14q47 -17 73 -46.5t26 -76.5q0 -61 -35 -109t-97 -85z" />
    <glyph glyph-name="omicron" unicode="&#x3bf;" horiz-adv-x="486" 
d="M206 -13q-81 0 -129 57t-48 153q0 54 15.5 112t46.5 108t78 81t111 31q81 0 129 -57t48 -153q0 -54 -15.5 -112t-46.5 -108t-78 -81t-111 -31zM214 85q33 0 57.5 24.5t40 62t23 78.5t7.5 73q0 52 -17.5 79.5t-52.5 27.5q-33 0 -57.5 -24.5t-40 -62t-23 -78t-7.5 -72.5
q0 -108 70 -108z" />
    <glyph glyph-name="pi" unicode="&#x3c0;" horiz-adv-x="525" 
d="M35 0l81 420h-72l31 96h470l-19 -96h-71l-50 -261q-2 -11 -3.5 -21t-1.5 -19q0 -25 19 -25q10 0 23 9l-3 -92q-16 -7 -33 -11.5t-37 -4.5q-44 0 -64.5 25t-20.5 68q0 16 2.5 32t5.5 32l52 268h-117l-81 -420h-111z" />
    <glyph glyph-name="rho" unicode="&#x3c1;" horiz-adv-x="497" 
d="M-43 -216l90 466q25 131 87.5 205t160.5 74q80 0 126.5 -57t46.5 -153q0 -54 -14.5 -112t-43.5 -108t-74 -81t-105 -31q-77 0 -109 73l-53 -276h-112zM227 85q34 0 58 24.5t39.5 62t22.5 78.5t7 73q0 52 -17 79.5t-52 27.5q-33 0 -57 -23t-39.5 -60t-23 -78.5t-7.5 -78.5
q0 -49 16.5 -77t52.5 -28z" />
    <glyph glyph-name="sigma1" unicode="&#x3c2;" horiz-adv-x="416" 
d="M196 -183l-52 76q27 17 48.5 37.5t21.5 51.5q0 20 -11.5 30.5t-31.5 19.5l-27 11q-55 23 -83 69t-28 107q0 91 34 161t92.5 109.5t132.5 39.5q45 0 84 -12.5t64 -35.5l-41 -96q-25 25 -49.5 35.5t-56.5 10.5q-43 0 -75.5 -27t-51 -71t-18.5 -96q0 -46 21 -69t56 -37
l27 -11q37 -14 58.5 -39.5t21.5 -72.5q0 -53 -37 -104t-99 -87z" />
    <glyph glyph-name="sigma" unicode="&#x3c3;" horiz-adv-x="497" 
d="M207 -13q-80 0 -129 56.5t-49 152.5q0 89 32 161.5t90.5 115.5t136.5 43h243l-32 -96h-110q26 -33 40.5 -76t14.5 -90q0 -51 -16.5 -98.5t-47 -85.5t-74.5 -60.5t-99 -22.5zM217 86q41 0 68 32t40.5 79.5t13.5 95.5q0 35 -7 69t-21 58h-28q-46 0 -77 -33t-47 -85
t-16 -108q0 -52 20.5 -80t53.5 -28z" />
    <glyph glyph-name="tau" unicode="&#x3c4;" horiz-adv-x="405" 
d="M216 -10q-112 0 -112 107q0 15 2 31.5t5 32.5l50 259h-120l32 96h354l-19 -96h-135l-47 -246q-3 -15 -5 -27t-2 -23q0 -36 33 -36q19 0 31.5 4t24.5 11l-3 -91q-39 -22 -89 -22z" />
    <glyph glyph-name="upsilon" unicode="&#x3c5;" horiz-adv-x="472" 
d="M197 -13q-72 0 -106.5 41.5t-34.5 115.5q0 21 2.5 44.5t7.5 49.5l24 122l4 22t2 19q0 21 -17 21q-7 0 -13.5 -3t-11.5 -6l3 92q17 8 33.5 12t36.5 4q39 0 60 -22.5t21 -71.5q0 -26 -6 -61l-24 -125q-5 -26 -9 -50.5t-4 -44.5q0 -28 10.5 -44t36.5 -16q41 0 65.5 44
t41.5 138q23 126 23 248h111q0 -58 -5 -120.5t-15 -114.5q-25 -138 -83.5 -216t-152.5 -78z" />
    <glyph glyph-name="phi" unicode="&#x3c6;" horiz-adv-x="626" 
d="M166 -216l41 213q-80 18 -127.5 72.5t-47.5 144.5q0 88 34 157t96 110.5t147 46.5l34 172h111l-35 -182q80 -18 127.5 -72t47.5 -144q0 -86 -34 -156t-96.5 -112t-147.5 -47l-39 -203h-111zM143 210q0 -51 23.5 -80.5t63.5 -41.5l68 348q-53 -6 -87.5 -38.5t-51 -81.5
t-16.5 -106zM482 302q0 52 -23 82.5t-63 43.5l-68 -349q53 6 87 37.5t50.5 80t16.5 105.5z" />
    <glyph glyph-name="chi" unicode="&#x3c7;" horiz-adv-x="461" 
d="M293 -229q-36 0 -54.5 19.5t-26.5 68.5l-29 180l-151 -255h-114l235 383l-36 208q-4 28 -11 37.5t-19 9.5q-11 0 -23 -9l3 92q14 8 29.5 12t35.5 4q37 0 56 -19.5t26 -68.5l25 -159l140 242h114l-225 -369l39 -231q5 -28 12.5 -37.5t18.5 -9.5t24 9l-3 -91
q-15 -7 -30.5 -11.5t-35.5 -4.5z" />
    <glyph glyph-name="psi" unicode="&#x3c8;" horiz-adv-x="592" 
d="M152 -216l41 209q-78 15 -119.5 61.5t-41.5 126.5q0 17 1.5 35t5.5 37l51 263h109l-50 -258q-4 -20 -6 -37t-2 -31q0 -40 16.5 -65t54.5 -35l118 610h104l-119 -611q55 12 84.5 54.5t43.5 114.5l50 258h109l-51 -263q-23 -123 -88 -190t-167 -75l-40 -204h-104z" />
    <glyph glyph-name="omega" unicode="&#x3c9;" horiz-adv-x="640" 
d="M151 -13q-63 0 -93 43t-30 105q0 61 17 128t45.5 132.5t65.5 120.5h112q-19 -30 -41 -72.5t-41.5 -92t-32 -101.5t-12.5 -102q0 -61 38 -61q31 0 53 49t41 146l22 113h103l-22 -113q-8 -40 -12.5 -72.5t-4.5 -57.5q0 -31 8.5 -48t28.5 -17q18 0 35 22.5t30.5 60.5
t21.5 85t8 97q0 35 -4.5 76.5t-15.5 87.5h113q10 -38 14.5 -78t4.5 -81q0 -107 -27 -190.5t-74.5 -131.5t-109.5 -48q-42 0 -69.5 31t-31.5 91q-25 -59 -62.5 -90.5t-77.5 -31.5z" />
    <glyph glyph-name="iotadieresis" unicode="&#x3ca;" horiz-adv-x="274" 
d="M128 -10q-55 0 -80.5 27t-25.5 79q0 31 7 65l69 355h112l-66 -342q-3 -15 -5 -27t-2 -23q0 -36 32 -36q26 0 50 15l-3 -91q-21 -10 -41.5 -16t-46.5 -6zM259 609q-25 0 -39 16t-14 40q0 27 18 48.5t49 21.5q26 0 39.5 -16t13.5 -40q0 -27 -18 -48.5t-49 -21.5zM74 609
q-25 0 -39 16t-14 40q0 27 18 48.5t49 21.5q26 0 39.5 -16t13.5 -40q0 -27 -18 -48.5t-49 -21.5z" />
    <glyph glyph-name="upsilondieresis" unicode="&#x3cb;" horiz-adv-x="472" 
d="M197 -13q-72 0 -106.5 41.5t-34.5 115.5q0 21 2.5 44.5t7.5 49.5l24 122l4 22t2 19q0 21 -17 21q-7 0 -13.5 -3t-11.5 -6l3 92q17 8 33.5 12t36.5 4q39 0 60 -22.5t21 -71.5q0 -26 -6 -61l-24 -125q-5 -26 -9 -50.5t-4 -44.5q0 -28 10.5 -44t36.5 -16q41 0 65.5 44
t41.5 138q23 126 23 248h111q0 -58 -5 -120.5t-15 -114.5q-25 -138 -83.5 -216t-152.5 -78zM387 609q-25 0 -39 16t-14 40q0 27 18 48.5t49 21.5q26 0 39.5 -16t13.5 -40q0 -27 -18 -48.5t-49 -21.5zM202 609q-25 0 -39 16t-14 40q0 27 18 48.5t49 21.5q26 0 39.5 -16
t13.5 -40q0 -27 -18 -48.5t-49 -21.5z" />
    <glyph glyph-name="omicrontonos" unicode="&#x3cc;" horiz-adv-x="486" 
d="M206 -13q-81 0 -129 57t-48 153q0 54 15.5 112t46.5 108t78 81t111 31q81 0 129 -57t48 -153q0 -54 -15.5 -112t-46.5 -108t-78 -81t-111 -31zM214 85q33 0 57.5 24.5t40 62t23 78.5t7.5 73q0 52 -17.5 79.5t-52.5 27.5q-33 0 -57.5 -24.5t-40 -62t-23 -78t-7.5 -72.5
q0 -108 70 -108zM265 605l86 197h125l-120 -197h-91z" />
    <glyph glyph-name="upsilontonos" unicode="&#x3cd;" horiz-adv-x="472" 
d="M197 -13q-72 0 -106.5 41.5t-34.5 115.5q0 21 2.5 44.5t7.5 49.5l24 122l4 22t2 19q0 21 -17 21q-7 0 -13.5 -3t-11.5 -6l3 92q17 8 33.5 12t36.5 4q39 0 60 -22.5t21 -71.5q0 -26 -6 -61l-24 -125q-5 -26 -9 -50.5t-4 -44.5q0 -28 10.5 -44t36.5 -16q41 0 65.5 44
t41.5 138q23 126 23 248h111q0 -58 -5 -120.5t-15 -114.5q-25 -138 -83.5 -216t-152.5 -78zM247 605l86 197h125l-120 -197h-91z" />
    <glyph glyph-name="omegatonos" unicode="&#x3ce;" horiz-adv-x="640" 
d="M151 -13q-63 0 -93 43t-30 105q0 61 17 128t45.5 132.5t65.5 120.5h112q-19 -30 -41 -72.5t-41.5 -92t-32 -101.5t-12.5 -102q0 -61 38 -61q31 0 53 49t41 146l22 113h103l-22 -113q-8 -40 -12.5 -72.5t-4.5 -57.5q0 -31 8.5 -48t28.5 -17q18 0 35 22.5t30.5 60.5
t21.5 85t8 97q0 35 -4.5 76.5t-15.5 87.5h113q10 -38 14.5 -78t4.5 -81q0 -107 -27 -190.5t-74.5 -131.5t-109.5 -48q-42 0 -69.5 31t-31.5 91q-25 -59 -62.5 -90.5t-77.5 -31.5zM338 605l86 197h125l-120 -197h-91z" />
    <glyph glyph-name="kaiSymbol" unicode="&#x3d7;" horiz-adv-x="482" 
d="M2 0l101 516h112l-41 -211l200 211h129l-184 -190l67 -202q12 -35 19.5 -69t7.5 -65q0 -65 -27 -114.5t-76 -77t-117 -27.5q-71 0 -121 35l31 93q18 -14 42 -22t57 -8q50 0 76 29.5t26 81.5q0 20 -6.5 46.5t-22.5 71.5l-45 138l-88 -91l-28 -145h-112z" />
    <glyph glyph-name="uni0400" unicode="&#x400;" horiz-adv-x="470" 
d="M10 0l136 700h357l-4 -102h-257l-37 -191h234l-20 -102h-234l-39 -203h273l-32 -102h-377zM324 772l-115 129h137l90 -129h-112z" />
    <glyph glyph-name="uni0401" unicode="&#x401;" horiz-adv-x="470" 
d="M10 0l136 700h357l-4 -102h-257l-37 -191h234l-20 -102h-234l-39 -203h273l-32 -102h-377zM473 774q-27 0 -41 16.5t-14 41.5q0 27 18.5 49t49.5 22q26 0 40 -16t14 -41q0 -28 -18.5 -50t-48.5 -22zM258 774q-25 0 -39.5 16.5t-14.5 41.5q0 27 18.5 49t48.5 22
q27 0 41 -16t14 -41q0 -28 -18.5 -50t-49.5 -22z" />
    <glyph glyph-name="uni0402" unicode="&#x402;" horiz-adv-x="646" 
d="M96 0l116 595h-133l21 105h470l-21 -105h-219l-39 -197q40 19 74 27t62 8q81 0 122.5 -49t41.5 -126q0 -71 -26 -131t-74.5 -96.5t-116.5 -36.5q-19 0 -33.5 2t-26.5 6l29 98q13 -4 31 -4q33 0 55 23.5t32.5 58.5t10.5 70q0 83 -85 83q-26 0 -55 -7t-59 -22l-59 -302
h-118z" />
    <glyph glyph-name="uni0403" unicode="&#x403;" horiz-adv-x="425" 
d="M10 0l136 700h335l-4 -105h-233l-116 -595h-118zM258 772l134 129h142l-158 -129h-118z" />
    <glyph glyph-name="uni0404" unicode="&#x404;" horiz-adv-x="540" 
d="M298 -16q-118 0 -184 74t-66 210q0 62 14.5 125.5t44 121.5t73.5 103t103 71.5t133 26.5q90 0 159 -54l-43 -98q-54 47 -119 47q-62 0 -107.5 -29.5t-75 -76.5t-44.5 -101h259l-20 -101h-257q-1 -14 -1 -28q0 -186 149 -186q35 0 68.5 12t73.5 37l5 -110
q-71 -44 -165 -44z" />
    <glyph glyph-name="uni0405" unicode="&#x405;" horiz-adv-x="470" 
d="M184 -16q-56 0 -107 17.5t-92 52.5l44 99q33 -34 76 -51.5t85 -17.5q56 0 84.5 31.5t28.5 80.5q0 43 -23 66t-73 52q-29 17 -58.5 39.5t-49 58t-19.5 91.5q0 63 28 111t79.5 75t123.5 27q53 0 97 -17t78 -49l-40 -95q-64 61 -135 61q-52 0 -82.5 -27t-30.5 -74
q0 -41 23.5 -65.5t66.5 -48.5q44 -24 74 -49t45.5 -58.5t15.5 -84.5q0 -67 -28.5 -117.5t-82 -79t-128.5 -28.5z" />
    <glyph glyph-name="uni0406" unicode="&#x406;" horiz-adv-x="238" 
d="M10 0l136 700h118l-136 -700h-118z" />
    <glyph glyph-name="uni0407" unicode="&#x407;" horiz-adv-x="238" 
d="M10 0l136 700h118l-136 -700h-118zM333 774q-27 0 -41 16.5t-14 41.5q0 27 18.5 49t49.5 22q26 0 40 -16t14 -41q0 -28 -18.5 -50t-48.5 -22zM118 774q-25 0 -39.5 16.5t-14.5 41.5q0 27 18.5 49t48.5 22q27 0 41 -16t14 -41q0 -28 -18.5 -50t-49.5 -22z" />
    <glyph glyph-name="uni0408" unicode="&#x408;" horiz-adv-x="430" 
d="M127 -16q-46 0 -83.5 13t-63.5 35l35 94q23 -17 49.5 -27.5t60.5 -10.5q36 0 60.5 16t42 56t31.5 113l83 427h118l-84 -432q-18 -93 -46.5 -156.5t-77 -95.5t-125.5 -32z" />
    <glyph glyph-name="uni0409" unicode="&#x409;" horiz-adv-x="827" 
d="M25 -6q-19 0 -36 3.5t-27 7.5l33 113q12 -6 30 -6q23 0 41 13.5t35.5 53t36.5 115.5q16 61 31 132t28.5 142.5t23.5 131.5h379l-51 -261h57q86 0 135.5 -47t49.5 -131q0 -122 -70.5 -191.5t-195.5 -69.5h-178l115 595h-150q-15 -77 -34.5 -170.5t-41.5 -179.5
q-24 -94 -50.5 -149t-64 -78.5t-96.5 -23.5zM584 344h-53l-49 -249h50q72 0 107 47t35 118q0 84 -90 84z" />
    <glyph glyph-name="uni040A" unicode="&#x40a;" horiz-adv-x="814" 
d="M10 0l136 700h118l-57 -292h205l57 292h118l-51 -261h57q86 0 135.5 -47t49.5 -131q0 -122 -71 -191.5t-195 -69.5h-179l59 302h-205l-59 -302h-118zM570 344h-52l-49 -249h49q73 0 108 47t35 118q0 84 -91 84z" />
    <glyph glyph-name="uni040B" unicode="&#x40b;" horiz-adv-x="642" 
d="M95 0l116 595h-132l21 105h470l-21 -105h-220l-38 -192q66 30 131 30q80 0 125 -40t45 -112q0 -14 -2 -31t-5 -33l-42 -217h-118l40 206q5 28 5 47q0 77 -83 77q-57 0 -115 -28l-59 -302h-118z" />
    <glyph glyph-name="uni040C" unicode="&#x40c;" horiz-adv-x="538" 
d="M10 0l136 700h118l-57 -292h65l184 292h133l-228 -345l117 -355h-127l-92 302h-73l-58 -302h-118zM293 772l134 129h142l-158 -129h-118z" />
    <glyph glyph-name="uni040D" unicode="&#x40d;" horiz-adv-x="580" 
d="M10 0l136 700h112l-95 -489l326 489h117l-136 -700h-112l95 489l-328 -489h-115zM351 772l-115 129h137l90 -129h-112z" />
    <glyph glyph-name="uni040E" unicode="&#x40e;" horiz-adv-x="564" 
d="M147 -16q-27 0 -52.5 4.5t-40.5 11.5l29 100q29 -16 65 -16q25 0 44.5 11t38.5 41l-134 564h122l86 -444l205 444h128l-285 -556q-43 -84 -91 -122t-115 -38zM558 884q-22 -72 -69 -105.5t-118 -33.5q-62 0 -97 30.5t-35 93.5v7.5t1 7.5l98 13q-1 -7 -1.5 -13t-0.5 -11
q0 -60 46 -60q30 0 49.5 20t30.5 64z" />
    <glyph glyph-name="uni040F" unicode="&#x40f;" horiz-adv-x="574" 
d="M10 0l136 700h118l-115 -592h218l115 592h118l-136 -700h-172l-33 -170h-111l33 170h-171z" />
    <glyph glyph-name="uni0410" unicode="&#x410;" horiz-adv-x="564" 
d="M-40 0l347 700h122l75 -700h-120l-13 171h-206l-79 -171h-126zM211 271h153l-21 285z" />
    <glyph glyph-name="uni0411" unicode="&#x411;" horiz-adv-x="502" 
d="M10 0l136 700h355l-4 -105h-258l-35 -179h72q87 0 136.5 -45t49.5 -127q0 -114 -69 -179t-190 -65h-193zM141 93h68q65 0 100 40t35 110q0 80 -90 80h-68z" />
    <glyph glyph-name="uni0412" unicode="&#x412;" horiz-adv-x="520" 
d="M10 0l136 700h184q86 0 135 -42.5t49 -116.5q0 -67 -36 -114t-99 -65q46 -12 72.5 -45t26.5 -83q0 -109 -70.5 -171.5t-194.5 -62.5h-203zM308 607h-68l-38 -199h68q65 0 97 36.5t32 92.5q0 70 -91 70zM262 317h-78l-44 -224h78q74 0 109.5 41t35.5 105q0 38 -26 58
t-75 20z" />
    <glyph glyph-name="uni0413" unicode="&#x413;" horiz-adv-x="425" 
d="M10 0l136 700h335l-4 -105h-233l-116 -595h-118z" />
    <glyph glyph-name="uni0414" unicode="&#x414;" horiz-adv-x="626" 
d="M-59 -170l53 276h60q39 54 64.5 132t52.5 185q16 63 32.5 138t29.5 139h381l-115 -594h74l-54 -276h-111l33 170h-356l-33 -170h-111zM277 395q-21 -93 -45 -164t-55 -125h205l95 488h-154q-9 -40 -21 -90.5t-25 -108.5z" />
    <glyph glyph-name="uni0415" unicode="&#x415;" horiz-adv-x="470" 
d="M10 0l136 700h357l-4 -102h-257l-37 -191h234l-20 -102h-234l-39 -203h273l-32 -102h-377z" />
    <glyph glyph-name="uni0416" unicode="&#x416;" horiz-adv-x="828" 
d="M-40 0l258 379l-97 321h122l80 -292h61l57 292h118l-57 -292h61l183 292h134l-227 -345l115 -355h-129l-90 302h-67l-59 -302h-118l59 302h-64l-198 -302h-142z" />
    <glyph glyph-name="uni0417" unicode="&#x417;" horiz-adv-x="455" 
d="M158 -16q-106 0 -175 57l40 92q25 -22 60 -35.5t75 -13.5q66 0 101 39.5t35 99.5q0 44 -22 68t-66 24h-91l19 97h89q54 0 84.5 36t30.5 86q0 39 -22.5 60.5t-68.5 21.5q-33 0 -66.5 -10t-64.5 -28l-2 97q35 19 76 30t82 11q88 0 135.5 -44.5t47.5 -115.5
q0 -65 -33.5 -115.5t-90.5 -75.5q40 -20 60 -57.5t20 -88.5q0 -66 -31.5 -119.5t-88 -84.5t-133.5 -31z" />
    <glyph glyph-name="uni0418" unicode="&#x418;" horiz-adv-x="580" 
d="M10 0l136 700h112l-95 -489l326 489h117l-136 -700h-112l95 489l-328 -489h-115z" />
    <glyph glyph-name="uni0419" unicode="&#x419;" horiz-adv-x="580" 
d="M10 0l136 700h112l-95 -489l326 489h117l-136 -700h-112l95 489l-328 -489h-115zM568 884q-22 -72 -69 -105.5t-118 -33.5q-62 0 -97 30.5t-35 93.5v7.5t1 7.5l98 13q-1 -7 -1.5 -13t-0.5 -11q0 -60 46 -60q30 0 49.5 20t30.5 64z" />
    <glyph glyph-name="uni041A" unicode="&#x41a;" horiz-adv-x="538" 
d="M10 0l136 700h118l-57 -292h65l184 292h133l-228 -345l117 -355h-127l-92 302h-73l-58 -302h-118z" />
    <glyph glyph-name="uni041B" unicode="&#x41b;" horiz-adv-x="592" 
d="M25 -6q-19 0 -36 3.5t-27 7.5l33 113q12 -6 30 -6q23 0 41 13.5t35.5 53t36.5 115.5q16 61 31 132t28.5 142.5t23.5 131.5h397l-136 -700h-118l116 595h-168q-15 -77 -34.5 -170.5t-41.5 -179.5q-24 -94 -50.5 -149t-64 -78.5t-96.5 -23.5z" />
    <glyph glyph-name="uni041C" unicode="&#x41c;" horiz-adv-x="686" 
d="M10 0l136 700h143l50 -459l230 459h143l-136 -700h-108l103 529l-209 -411h-92l-48 417l-104 -535h-108z" />
    <glyph glyph-name="uni041D" unicode="&#x41d;" horiz-adv-x="578" 
d="M10 0l136 700h118l-57 -292h222l57 292h118l-136 -700h-118l59 302h-222l-59 -302h-118z" />
    <glyph glyph-name="uni041E" unicode="&#x41e;" horiz-adv-x="635" 
d="M286 -16q-72 0 -125.5 35t-83 98.5t-29.5 150.5q0 58 13 120t39.5 120.5t66.5 105.5t94.5 74.5t122.5 27.5q73 0 126 -35t82.5 -98.5t29.5 -150.5q0 -58 -13 -120t-39.5 -120.5t-66.5 -105.5t-94.5 -74.5t-122.5 -27.5zM293 89q45 0 79 24t58.5 63t39.5 86t22 92.5
t7 82.5q0 83 -31.5 128.5t-90.5 45.5q-45 0 -79 -24t-58 -63t-39.5 -86t-22.5 -92.5t-7 -82.5q0 -82 32 -128t90 -46z" />
    <glyph glyph-name="uni041F" unicode="&#x41f;" horiz-adv-x="572" 
d="M10 0l136 700h452l-136 -700h-118l115 594h-216l-115 -594h-118z" />
    <glyph glyph-name="uni0420" unicode="&#x420;" horiz-adv-x="490" 
d="M10 0l136 700h180q83 0 130 -48.5t47 -135.5q0 -124 -68 -194.5t-188 -70.5h-73l-49 -251h-115zM304 604h-61l-50 -257h60q68 0 100.5 48t32.5 121q0 88 -82 88z" />
    <glyph glyph-name="uni0421" unicode="&#x421;" horiz-adv-x="544" 
d="M307 -16q-124 0 -191.5 74t-67.5 210q0 62 15 125.5t44.5 121.5t74 103t104 71.5t133.5 26.5q92 0 160 -54l-42 -98q-54 47 -119 47q-66 0 -113 -32.5t-76.5 -84t-43.5 -110t-14 -109.5q0 -186 155 -186q35 0 67 12t69 37l5 -110q-70 -44 -160 -44z" />
    <glyph glyph-name="uni0422" unicode="&#x422;" horiz-adv-x="485" 
d="M134 0l115 595h-170l20 105h459l-20 -105h-171l-115 -595h-118z" />
    <glyph glyph-name="uni0423" unicode="&#x423;" horiz-adv-x="564" 
d="M147 -16q-27 0 -52.5 4.5t-40.5 11.5l29 100q29 -16 65 -16q25 0 44.5 11t38.5 41l-134 564h122l86 -444l205 444h128l-285 -556q-43 -84 -91 -122t-115 -38z" />
    <glyph glyph-name="uni0424" unicode="&#x424;" horiz-adv-x="666" 
d="M225 0l14 71q-84 20 -136.5 79t-52.5 158q0 100 37.5 175.5t105.5 119t160 48.5l12 65h115l-14 -76q83 -20 135.5 -79t52.5 -159q0 -101 -37 -176t-105 -118.5t-160 -47.5l-12 -60h-115zM171 311q0 -59 25 -95t66 -52l75 392q-54 -7 -91 -41t-56 -86.5t-19 -117.5z
M533 400q0 58 -25 93.5t-65 51.5l-76 -391q54 8 91 42t56 87t19 117z" />
    <glyph glyph-name="uni0425" unicode="&#x425;" horiz-adv-x="549" 
d="M-40 0l271 369l-119 331h123l77 -243l166 243h131l-252 -345l132 -355h-125l-89 265l-182 -265h-133z" />
    <glyph glyph-name="uni0426" unicode="&#x426;" horiz-adv-x="604" 
d="M10 0l136 700h118l-116 -594h210l116 594h118l-115 -594h74l-54 -276h-111l33 170h-409z" />
    <glyph glyph-name="uni0427" unicode="&#x427;" horiz-adv-x="554" 
d="M326 0l52 269q-68 -32 -133 -32q-80 0 -125 40.5t-45 112.5q0 29 6 62l49 248h118l-46 -235q-2 -13 -4 -25t-2 -22q0 -77 83 -77q29 0 58.5 7t60.5 22l64 330h118l-136 -700h-118z" />
    <glyph glyph-name="uni0428" unicode="&#x428;" horiz-adv-x="788" 
d="M10 0l136 700h116l-115 -594h159l116 594h116l-115 -594h159l116 594h116l-136 -700h-668z" />
    <glyph glyph-name="uni0429" unicode="&#x429;" horiz-adv-x="826" 
d="M10 0l136 700h116l-115 -594h159l116 594h116l-115 -594h159l116 594h116l-115 -594h74l-54 -276h-111l33 170h-631z" />
    <glyph glyph-name="uni042A" unicode="&#x42a;" horiz-adv-x="616" 
d="M116 0l115 592h-157l31 108h265l-47 -242h72q86 0 135.5 -49t49.5 -138q0 -127 -71 -199t-195 -72h-198zM252 95h68q73 0 108 50t35 126q0 92 -91 92h-68z" />
    <glyph glyph-name="uni042B" unicode="&#x42b;" horiz-adv-x="720" 
d="M10 0l136 700h118l-48 -242h72q87 0 136.5 -49t49.5 -138q0 -127 -71 -199t-195 -72h-198zM492 0l136 700h118l-136 -700h-118zM146 95h68q72 0 107.5 50t35.5 126q0 45 -23.5 68.5t-67.5 23.5h-68z" />
    <glyph glyph-name="uni042C" unicode="&#x42c;" horiz-adv-x="510" 
d="M10 0l136 700h118l-48 -242h72q87 0 136.5 -49t49.5 -138q0 -127 -71 -199t-195 -72h-198zM146 95h68q72 0 107.5 50t35.5 126q0 45 -23.5 68.5t-67.5 23.5h-68z" />
    <glyph glyph-name="uni042D" unicode="&#x42d;" horiz-adv-x="532" 
d="M169 -16q-49 0 -97.5 14.5t-81.5 42.5l41 99q28 -25 64.5 -38t75.5 -13q58 0 101 28.5t71 77t43 108.5h-262l20 101h256q1 17 1 34q0 91 -34 131.5t-96 40.5q-38 0 -77.5 -13t-77.5 -35l-3 102q40 26 86.5 39t92.5 13q67 0 118 -29.5t80 -89.5t29 -154
q0 -90 -22.5 -172.5t-66.5 -147t-109.5 -102t-151.5 -37.5z" />
    <glyph glyph-name="uni042E" unicode="&#x42e;" horiz-adv-x="832" 
d="M10 0l136 700h118l-57 -292h63q15 59 41.5 114t65.5 99t90.5 69.5t116.5 25.5q72 0 124.5 -35t81.5 -98.5t29 -150.5q0 -58 -13 -120t-39 -120.5t-65.5 -105.5t-93 -74.5t-120.5 -27.5q-71 0 -124 35t-82 98.5t-29 150.5q0 17 1 34h-67l-59 -302h-118zM495 89q44 0 77 24
t56.5 63t38.5 86t22 92.5t7 82.5q0 83 -31 128.5t-88 45.5q-44 0 -77 -24t-56.5 -63t-38.5 -86t-22 -92.5t-7 -82.5q0 -82 31 -128t88 -46z" />
    <glyph glyph-name="uni042F" unicode="&#x42f;" horiz-adv-x="527" 
d="M-20 0l194 300q-32 22 -50 60.5t-18 88.5q0 74 31 130.5t88.5 88.5t137.5 32h190l-136 -700h-115l51 266h-77l-163 -266h-133zM304 362h68l47 242h-69q-42 0 -69.5 -22.5t-41.5 -58t-14 -74.5q0 -87 79 -87z" />
    <glyph glyph-name="uni0430" unicode="&#x430;" horiz-adv-x="446" 
d="M132 -13q-56 0 -89.5 36.5t-33.5 96.5q0 95 66 147t190 53l38 1q4 23 4 41q0 74 -84 74q-66 0 -122 -46l-9 95q64 44 150 44q81 0 126 -41.5t45 -112.5q0 -40 -8 -80l-57 -295h-96l9 65q-45 -78 -129 -78zM118 134q0 -28 15 -43t40 -15q42 0 69 36.5t39 98.5l8 38h-24
q-147 -3 -147 -115z" />
    <glyph glyph-name="uni0431" unicode="&#x431;" horiz-adv-x="492" 
d="M214 -13q-84 0 -128 56t-44 162q0 37 4.5 81.5t17.5 99.5q37 150 98.5 228.5t159.5 104.5q36 10 89 19t99 15l-5 -106q-50 -7 -91 -14t-63 -12q-40 -10 -71 -32t-55.5 -65t-45.5 -116q26 41 62 68.5t88 27.5q60 0 96 -45t36 -134q0 -65 -17 -125.5t-49.5 -108.5t-78 -76
t-102.5 -28zM218 83q34 0 62.5 32t46.5 83.5t18 109.5q0 48 -17.5 74t-49.5 26q-34 0 -63.5 -31t-47.5 -81.5t-18 -109.5q0 -103 69 -103z" />
    <glyph glyph-name="uni0432" unicode="&#x432;" horiz-adv-x="441" 
d="M2 0l101 516h163q77 0 120 -32.5t43 -90.5q0 -48 -29.5 -82t-81.5 -47q37 -10 58 -34.5t21 -58.5q0 -80 -58 -125.5t-160 -45.5h-177zM169 304h53q49 0 73 23.5t24 60.5q0 46 -71 46h-54zM125 81h58q53 0 78.5 26.5t25.5 66.5q0 50 -75 50h-59z" />
    <glyph glyph-name="uni0433" unicode="&#x433;" horiz-adv-x="344" 
d="M2 0l101 516h271l-3 -95h-175l-82 -421h-112z" />
    <glyph glyph-name="uni0434" unicode="&#x434;" horiz-adv-x="504" 
d="M-67 -142l46 235h48q31 44 52 98.5t40 129.5q13 50 25 103t20 92h314l-83 -423h66l-46 -235h-102l28 142h-278l-28 -142h-102zM208 290q-15 -58 -32 -106t-42 -91h152l64 330h-109q-6 -25 -14.5 -59z" />
    <glyph glyph-name="uni0435" unicode="&#x435;" horiz-adv-x="450" 
d="M229 -13q-96 0 -148 54.5t-52 154.5q0 53 14.5 110.5t44.5 108.5t76 82.5t109 31.5q74 0 114 -48.5t40 -137.5q0 -24 -3.5 -55.5t-10.5 -61.5h-277q-1 -13 -1 -24q0 -121 111 -121q53 0 112 40l5 -98q-63 -36 -134 -36zM265 441q-31 0 -53.5 -20.5t-38 -52.5t-24.5 -66
h174q4 31 4 50q0 89 -62 89z" />
    <glyph glyph-name="uni0436" unicode="&#x436;" horiz-adv-x="672" 
d="M-42 0l187 283l-74 233h109l61 -207h50l41 207h109l-41 -207h51l129 207h122l-171 -256l83 -260h-112l-65 217h-55l-42 -217h-109l42 217h-52l-139 -217h-124z" />
    <glyph glyph-name="uni0437" unicode="&#x437;" horiz-adv-x="392" 
d="M137 -13q-46 0 -89 14t-67 37l39 81q16 -15 47 -29t70 -14q49 0 74.5 25t25.5 64q0 27 -14.5 42.5t-43.5 15.5h-74l17 83h63q37 0 59 21.5t22 52.5q0 60 -70 60q-29 0 -61 -12t-59 -32l-7 87q34 21 72 33.5t82 12.5q71 0 113 -34t42 -93q0 -48 -26.5 -83.5t-66.5 -52.5
q27 -13 43 -40.5t16 -67.5q0 -51 -26.5 -89.5t-73 -60t-107.5 -21.5z" />
    <glyph glyph-name="uni0438" unicode="&#x438;" horiz-adv-x="479" 
d="M2 0l101 516h109l-64 -328l222 328h107l-101 -516h-109l63 325l-222 -325h-106z" />
    <glyph glyph-name="uni0439" unicode="&#x439;" horiz-adv-x="479" 
d="M2 0l101 516h109l-64 -328l222 328h107l-101 -516h-109l63 325l-222 -325h-106zM299 585q-60 0 -92.5 27.5t-32.5 92.5q0 8 0.5 15.5t1.5 14.5l94 12q-3 -22 -3 -39q0 -31 11 -44t30 -13q25 0 43.5 21.5t31.5 74.5l90 -12q-23 -82 -66 -116t-108 -34z" />
    <glyph glyph-name="uni043A" unicode="&#x43a;" horiz-adv-x="454" 
d="M2 0l101 516h112l-40 -207h48l140 207h122l-179 -254l90 -262h-114l-71 217h-55l-42 -217h-112z" />
    <glyph glyph-name="uni043B" unicode="&#x43b;" horiz-adv-x="484" 
d="M11 -4q-30 0 -48 9l27 95q8 -4 21 -4q17 0 29.5 11.5t26 46.5t31.5 105q12 47 27 116.5t30 140.5h326l-99 -516h-113l82 423h-114q-10 -47 -21.5 -95.5t-20.5 -81.5q-25 -97 -50 -151.5t-56 -76.5t-78 -22z" />
    <glyph glyph-name="uni043C" unicode="&#x43c;" horiz-adv-x="597" 
d="M2 0l101 516h132l49 -324l178 324h133l-101 -516h-103l71 365l-161 -287h-76l-47 293l-73 -371h-103z" />
    <glyph glyph-name="uni043D" unicode="&#x43d;" horiz-adv-x="473" 
d="M2 0l101 516h112l-40 -202h144l40 202h112l-101 -516h-112l43 221h-144l-43 -221h-112z" />
    <glyph glyph-name="uni043E" unicode="&#x43e;" horiz-adv-x="486" 
d="M206 -13q-81 0 -129 57t-48 153q0 54 15.5 112t46.5 108t78 81t111 31q81 0 129 -57t48 -153q0 -54 -15.5 -112t-46.5 -108t-78 -81t-111 -31zM214 85q33 0 57.5 24.5t40 62t23 78.5t7.5 73q0 52 -17.5 79.5t-52.5 27.5q-33 0 -57.5 -24.5t-40 -62t-23 -78t-7.5 -72.5
q0 -108 70 -108z" />
    <glyph glyph-name="uni05E4" unicode="&#x43f;" horiz-adv-x="470" 
d="M2 0l101 516h365l-101 -516h-112l83 423h-141l-83 -423h-112z" />
    <glyph glyph-name="uni0440" unicode="&#x440;" horiz-adv-x="495" 
d="M-40 -216l143 732h99l-11 -74q24 40 58.5 63.5t80.5 23.5q63 0 100.5 -53.5t37.5 -144.5q0 -39 -8.5 -85.5t-25.5 -92t-43.5 -83t-63 -60.5t-83.5 -23q-89 0 -115 88l-57 -291h-112zM223 85q36 0 60.5 26.5t40 66t22 79.5t6.5 67q0 51 -18 78.5t-52 27.5q-37 0 -62 -26
t-40 -64.5t-22 -78.5t-7 -67q0 -109 72 -109z" />
    <glyph glyph-name="uni0441" unicode="&#x441;" horiz-adv-x="422" 
d="M232 -13q-97 0 -150 56t-53 158q0 57 17.5 114.5t52.5 106t87.5 78t122.5 29.5q69 0 120 -40l-38 -88q-19 16 -39 22.5t-44 6.5q-44 0 -75 -21.5t-51 -55.5t-29 -72.5t-9 -72.5q0 -123 104 -123q44 0 93 32l4 -100q-49 -30 -113 -30z" />
    <glyph glyph-name="uni0442" unicode="&#x442;" horiz-adv-x="391" 
d="M89 0l82 423h-129l19 93h370l-18 -93h-130l-82 -423h-112z" />
    <glyph glyph-name="uni0443" unicode="&#x443;" horiz-adv-x="449" 
d="M14 -229q-45 0 -76 17l23 93q18 -12 50 -12t55 22.5t51 80.5l11 23l-71 521h118l29 -396l168 396h120l-279 -574q-31 -64 -60 -101.5t-62 -53.5t-77 -16z" />
    <glyph glyph-name="uni0444" unicode="&#x444;" horiz-adv-x="626" 
d="M166 -216l41 213q-80 18 -127.5 72.5t-47.5 144.5q0 88 34 157t96 110.5t147 46.5l34 172h111l-35 -182q80 -18 127.5 -72t47.5 -144q0 -86 -34 -156t-96.5 -112t-147.5 -47l-39 -203h-111zM143 210q0 -51 23.5 -80.5t63.5 -41.5l68 348q-53 -6 -87.5 -38.5t-51 -81.5
t-16.5 -106zM482 302q0 52 -23 82.5t-63 43.5l-68 -349q53 6 87 37.5t50.5 80t16.5 105.5z" />
    <glyph glyph-name="uni0445" unicode="&#x445;" horiz-adv-x="457" 
d="M-34 0l207 269l-102 247h114l59 -169l119 169h123l-200 -258l105 -258h-115l-62 176l-124 -176h-124z" />
    <glyph glyph-name="uni0446" unicode="&#x446;" horiz-adv-x="490" 
d="M2 0l101 516h112l-83 -423h137l83 423h112l-83 -423h66l-46 -235h-102l28 142h-325z" />
    <glyph glyph-name="uni0447" unicode="&#x447;" horiz-adv-x="448" 
d="M234 0l37 192q-52 -25 -103 -25q-63 0 -97.5 31.5t-34.5 87.5q0 12 1.5 24t3.5 25l35 181h112l-33 -169q-2 -10 -3 -18.5t-1 -15.5q0 -53 55 -53q40 0 83 26l45 230h112l-100 -516h-112z" />
    <glyph glyph-name="uni0448" unicode="&#x448;" horiz-adv-x="668" 
d="M2 0l101 516h110l-83 -423h117l82 423h110l-82 -423h116l83 423h110l-101 -516h-563z" />
    <glyph glyph-name="uni0449" unicode="&#x449;" horiz-adv-x="692" 
d="M2 0l101 516h110l-83 -423h117l82 423h110l-82 -423h116l83 423h110l-83 -423h66l-46 -235h-102l28 142h-527z" />
    <glyph glyph-name="uni044A" unicode="&#x44a;" horiz-adv-x="493" 
d="M67 0l82 421h-109l30 95h209l-32 -167h53q74 0 116.5 -38.5t42.5 -107.5q0 -95 -58 -149t-161 -54h-173zM194 81h51q49 0 75.5 33t26.5 90q0 63 -66 63h-50z" />
    <glyph glyph-name="uni044B" unicode="&#x44b;" horiz-adv-x="628" 
d="M2 0l101 516h112l-33 -167h53q74 0 117 -38.5t43 -107.5q0 -95 -58.5 -149t-161.5 -54h-173zM414 0l100 516h112l-100 -516h-112zM130 81h50q49 0 75.5 33t26.5 90q0 63 -66 63h-50z" />
    <glyph glyph-name="uni044C" unicode="&#x44c;" horiz-adv-x="429" 
d="M2 0l101 516h112l-33 -167h53q74 0 117 -38.5t43 -107.5q0 -95 -58.5 -149t-161.5 -54h-173zM130 81h50q49 0 75.5 33t26.5 90q0 63 -66 63h-50z" />
    <glyph glyph-name="uni044D" unicode="&#x44d;" horiz-adv-x="416" 
d="M124 -13q-45 0 -81 12t-60 31l38 92q41 -39 104 -39q61 0 95.5 40.5t47.5 99.5h-184l15 81h179v13q0 56 -22.5 86t-68.5 30q-29 0 -55.5 -8t-58.5 -25l-3 92q30 17 64.5 27t71.5 10q87 0 133.5 -55.5t46.5 -150.5q0 -67 -16.5 -127.5t-50 -107.5t-82 -74t-113.5 -27z" />
    <glyph glyph-name="uni044E" unicode="&#x44e;" horiz-adv-x="666" 
d="M2 0l101 516h112l-40 -202h51q15 56 46 105t78 79.5t110 30.5q81 0 129 -57t48 -153q0 -54 -15.5 -112t-46.5 -108t-78 -81t-111 -31q-81 0 -129 57t-48 153q0 12 1 24h-53l-43 -221h-112zM394 85q33 0 57.5 24.5t40 62t23 78.5t7.5 73q0 52 -17.5 79.5t-52.5 27.5
q-33 0 -57.5 -24.5t-40 -62t-23 -78t-7.5 -72.5q0 -108 70 -108z" />
    <glyph glyph-name="uni044F" unicode="&#x44f;" horiz-adv-x="433" 
d="M-25 0l129 199q-24 19 -37.5 48.5t-13.5 70.5q0 92 58 145t158 53h162l-100 -516h-109l33 171h-54l-105 -171h-121zM222 252h49l36 182h-49q-47 0 -70.5 -35t-23.5 -81q0 -30 14.5 -48t43.5 -18z" />
    <glyph glyph-name="uni0450" unicode="&#x450;" horiz-adv-x="450" 
d="M229 -13q-96 0 -148 54.5t-52 154.5q0 53 14.5 110.5t44.5 108.5t76 82.5t109 31.5q74 0 114 -48.5t40 -137.5q0 -24 -3.5 -55.5t-10.5 -61.5h-277q-1 -13 -1 -24q0 -121 111 -121q53 0 112 40l5 -98q-63 -36 -134 -36zM265 441q-31 0 -53.5 -20.5t-38 -52.5t-24.5 -66
h174q4 31 4 50q0 89 -62 89zM267 594l-88 155h118l61 -155h-91z" />
    <glyph glyph-name="uni0451" unicode="&#x451;" horiz-adv-x="450" 
d="M229 -13q-96 0 -148 54.5t-52 154.5q0 53 14.5 110.5t44.5 108.5t76 82.5t109 31.5q74 0 114 -48.5t40 -137.5q0 -24 -3.5 -55.5t-10.5 -61.5h-277q-1 -13 -1 -24q0 -121 111 -121q53 0 112 40l5 -98q-63 -36 -134 -36zM265 441q-31 0 -53.5 -20.5t-38 -52.5t-24.5 -66
h174q4 31 4 50q0 89 -62 89zM396 609q-25 0 -39 16t-14 40q0 27 18 48.5t49 21.5q26 0 39.5 -16t13.5 -40q0 -27 -18 -48.5t-49 -21.5zM211 609q-25 0 -39 16t-14 40q0 27 18 48.5t49 21.5q26 0 39.5 -16t13.5 -40q0 -27 -18 -48.5t-49 -21.5z" />
    <glyph glyph-name="uni0452" unicode="&#x452;" horiz-adv-x="469" 
d="M201 -136q-17 0 -32 3t-27 7l29 94q13 -5 30 -5q33 0 58 46.5t47 159.5q14 68 19 105.5t5 63.5q0 34 -12 55.5t-39 21.5q-34 0 -62 -36.5t-41 -100.5l-55 -278h-112l114 588h-48l14 74h49l15 78h112l-15 -78h134l-14 -74h-135l-28 -148q25 39 58.5 58t68.5 19
q50 0 78 -41t28 -118q0 -37 -4.5 -79t-12.5 -89q-22 -128 -54.5 -199t-74.5 -99t-93 -28z" />
    <glyph glyph-name="uni0453" unicode="&#x453;" horiz-adv-x="344" 
d="M2 0l101 516h271l-3 -95h-175l-82 -421h-112zM188 594l124 155h128l-150 -155h-102z" />
    <glyph glyph-name="uni0454" unicode="&#x454;" horiz-adv-x="416" 
d="M229 -13q-95 0 -147.5 56.5t-52.5 160.5q0 56 17.5 113t52.5 105t87.5 77.5t122.5 29.5q69 0 121 -37l-37 -90q-41 29 -85 29q-62 0 -99.5 -38t-53.5 -89h187l-16 -81h-186v-15q0 -63 25 -93.5t79 -30.5q25 0 48 7.5t49 23.5l4 -97q-51 -31 -116 -31z" />
    <glyph glyph-name="uni0455" unicode="&#x455;" horiz-adv-x="382" 
d="M137 -13q-43 0 -83.5 14t-71.5 40l37 87q53 -50 120 -50q37 0 58 17t21 47q0 26 -15 43t-57 36q-51 23 -76.5 58.5t-25.5 86.5q0 77 53.5 120t137.5 43q38 0 75.5 -14t65.5 -37l-34 -85q-47 44 -111 44q-35 0 -56 -18.5t-21 -44.5q0 -24 15.5 -41.5t58.5 -37.5
q50 -23 75.5 -55.5t25.5 -79.5q0 -83 -51.5 -128t-140.5 -45z" />
    <glyph glyph-name="uni0456" unicode="&#x456;" horiz-adv-x="216" 
d="M178 601q-28 0 -43.5 16.5t-15.5 43.5q0 38 23 62t57 24q27 0 43.5 -17t16.5 -43q0 -37 -23 -61.5t-58 -24.5zM2 0l101 516h112l-101 -516h-112z" />
    <glyph glyph-name="uni0457" unicode="&#x457;" horiz-adv-x="216" 
d="M2 0l101 516h112l-101 -516h-112zM262 609q-25 0 -39 16t-14 40q0 27 18 48.5t49 21.5q26 0 39.5 -16t13.5 -40q0 -27 -18 -48.5t-49 -21.5zM77 609q-25 0 -39 16t-14 40q0 27 18 48.5t49 21.5q26 0 39.5 -16t13.5 -40q0 -27 -18 -48.5t-49 -21.5z" />
    <glyph glyph-name="uni0458" unicode="&#x458;" horiz-adv-x="216" 
d="M178 601q-28 0 -43.5 16.5t-15.5 43.5q0 38 23 62t57 24q27 0 43.5 -17t16.5 -43q0 -37 -23 -61.5t-58 -24.5zM-69 -229q-53 0 -91 24l32 90q26 -17 55 -17t43.5 23t24.5 73l108 552h112l-110 -563q-17 -87 -56 -134.5t-118 -47.5z" />
    <glyph glyph-name="uni0459" unicode="&#x459;" horiz-adv-x="678" 
d="M11 -4q-30 0 -48 9l27 95q8 -4 21 -4q17 0 29.5 11.5t26 46.5t31.5 105q12 47 27 116.5t30 140.5h315l-32 -167h46q75 0 117.5 -38.5t42.5 -107.5q0 -95 -58.5 -149t-161.5 -54h-166l82 423h-103q-10 -47 -21.5 -95.5t-20.5 -81.5q-25 -97 -50 -151.5t-56 -76.5t-78 -22z
M465 267h-43l-36 -186h43q49 0 75.5 33t26.5 90q0 63 -66 63z" />
    <glyph glyph-name="uni045A" unicode="&#x45a;" horiz-adv-x="675" 
d="M2 0l101 516h112l-40 -202h139l40 202h112l-33 -167h48q74 0 117 -38.5t43 -107.5q0 -95 -58.5 -149t-161.5 -54h-168l43 221h-139l-43 -221h-112zM462 267h-45l-36 -186h45q49 0 75.5 33t26.5 90q0 63 -66 63z" />
    <glyph glyph-name="uni045B" unicode="&#x45b;" horiz-adv-x="478" 
d="M8 0l114 587h-47l14 75h48l15 78h112l-15 -78h132l-14 -75h-133l-29 -150q25 40 59 59.5t72 19.5q52 0 81.5 -32.5t29.5 -100.5q0 -23 -3 -46t-8 -46l-57 -291h-112l55 283q5 22 8 41t3 35q0 56 -51 56q-36 0 -65 -36t-42 -99l-55 -280h-112z" />
    <glyph glyph-name="uni045C" unicode="&#x45c;" horiz-adv-x="454" 
d="M2 0l101 516h112l-40 -207h48l140 207h122l-179 -254l90 -262h-114l-71 217h-55l-42 -217h-112zM227 594l124 155h128l-150 -155h-102z" />
    <glyph glyph-name="uni045D" unicode="&#x45d;" horiz-adv-x="479" 
d="M2 0l101 516h109l-64 -328l222 328h107l-101 -516h-109l63 325l-222 -325h-106zM269 594l-88 155h118l61 -155h-91z" />
    <glyph glyph-name="uni045E" unicode="&#x45e;" horiz-adv-x="449" 
d="M14 -229q-45 0 -76 17l23 93q18 -12 50 -12t55 22.5t51 80.5l11 23l-71 521h118l29 -396l168 396h120l-279 -574q-31 -64 -60 -101.5t-62 -53.5t-77 -16zM291 585q-60 0 -92.5 27.5t-32.5 92.5q0 8 0.5 15.5t1.5 14.5l94 12q-3 -22 -3 -39q0 -31 11 -44t30 -13
q25 0 43.5 21.5t31.5 74.5l90 -12q-23 -82 -66 -116t-108 -34z" />
    <glyph glyph-name="uni045F" unicode="&#x45f;" horiz-adv-x="474" 
d="M2 0l101 516h112l-82 -421h144l83 421h112l-101 -516h-134l-28 -142h-102l28 142h-133z" />
    <glyph glyph-name="uni0462" unicode="&#x462;" horiz-adv-x="517" 
d="M17 0l104 537h-75l17 84h75l15 79h118l-16 -79h132l-17 -84h-131l-16 -79h72q87 0 136.5 -49t49.5 -138q0 -127 -71 -199t-195 -72h-198zM153 95h68q72 0 107.5 50t35.5 126q0 45 -23.5 68.5t-67.5 23.5h-68z" />
    <glyph glyph-name="uni0463" unicode="&#x463;" horiz-adv-x="425" 
d="M-1 0l85 439h-59l15 77h59l44 224h112l-44 -224h136l-15 -77h-136l-17 -90h53q74 0 116.5 -38.5t42.5 -107.5q0 -95 -58 -149t-161 -54h-173zM126 81h51q49 0 75.5 33t26.5 90q0 63 -66 63h-50z" />
    <glyph glyph-name="uni0472" unicode="&#x472;" horiz-adv-x="635" 
d="M286 -16q-72 0 -125.5 35t-83 98.5t-29.5 150.5q0 58 13 120t39.5 120.5t66.5 105.5t94.5 74.5t122.5 27.5q73 0 126 -35t82.5 -98.5t29.5 -150.5q0 -58 -13 -120t-39.5 -120.5t-66.5 -105.5t-94.5 -74.5t-122.5 -27.5zM341 386q27 -13 42.5 -18t32.5 -5q37 0 81 30
q2 23 2 44q0 83 -31.5 128.5t-90.5 45.5q-53 0 -91 -33t-62.5 -84t-37.5 -105q39 24 69 24q21 0 41 -7t45 -20zM293 89q52 0 89.5 31.5t62 80.5t37.5 103q-46 -30 -85 -30q-19 0 -39 7t-46 20q-26 14 -42 19t-31 5q-30 0 -66 -21q-2 -21 -2 -41q0 -82 32 -128t90 -46z" />
    <glyph glyph-name="uni0473" unicode="&#x473;" horiz-adv-x="486" 
d="M206 -13q-81 0 -129 57t-48 153q0 54 15.5 112t46.5 108t78 81t111 31q81 0 129 -57t48 -153q0 -54 -15.5 -112t-46.5 -108t-78.5 -81t-110.5 -31zM252 289q20 -13 32 -16.5t23 -3.5q18 0 37 11q3 23 3 44q0 53 -19.5 81t-55.5 28q-30 0 -52.5 -19t-38.5 -49.5t-25 -64.5
q10 5 19 7.5t17 2.5q14 0 27.5 -5t32.5 -16zM213 83q43 0 71.5 38.5t44.5 87.5q-11 -5 -20.5 -7.5t-18.5 -2.5q-27 0 -61 21q-31 19 -54 19q-16 0 -33 -8q-2 -21 -2 -40q0 -108 73 -108z" />
    <glyph glyph-name="uni0474" unicode="&#x474;" horiz-adv-x="598" 
d="M165 0l-69 700h125l33 -557l176 385q31 68 57.5 106.5t55.5 55t66 16.5q14 0 29.5 -2.5t28.5 -7.5l-33 -96q-7 3 -17 3q-20 0 -36.5 -24.5t-47.5 -88.5l-240 -490h-128z" />
    <glyph glyph-name="uni0475" unicode="&#x475;" horiz-adv-x="466" 
d="M115 0l-58 516h118l21 -398l120 265q32 69 63 103t83 34q13 0 26 -2.5t22 -6.5l-31 -87q-6 2 -12 2q-12 0 -21 -13t-30 -54l-182 -359h-119z" />
    <glyph glyph-name="uni0490" unicode="&#x490;" horiz-adv-x="425" 
d="M10 0l136 700h243l28 140h110l-48 -245h-235l-116 -595h-118z" />
    <glyph glyph-name="uni0491" unicode="&#x491;" horiz-adv-x="344" 
d="M2 0l101 516h184l22 118h103l-41 -213h-175l-82 -421h-112z" />
    <glyph glyph-name="uni0492" unicode="&#x492;" horiz-adv-x="453" 
d="M38 0l58 301h-83l19 94h83l59 305h335l-4 -105h-233l-39 -200h146l-19 -94h-145l-59 -301h-118z" />
    <glyph glyph-name="uni0493" unicode="&#x493;" horiz-adv-x="362" 
d="M20 0l38 193h-63l16 83h63l47 240h271l-3 -95h-175l-28 -145h107l-15 -83h-108l-38 -193h-112z" />
    <glyph glyph-name="uni0496" unicode="&#x496;" horiz-adv-x="869" 
d="M-40 0l258 379l-97 321h122l80 -292h61l57 292h118l-57 -292h61l183 292h134l-227 -345l81 -249h82l-54 -276h-111l33 170h-45l-90 302h-67l-59 -302h-118l59 302h-64l-198 -302h-142z" />
    <glyph glyph-name="uni0497" unicode="&#x497;" horiz-adv-x="697" 
d="M-42 0l187 283l-74 233h109l61 -207h50l41 207h109l-41 -207h51l129 207h122l-171 -256l53 -167h70l-46 -235h-102l28 142h-32l-65 217h-55l-42 -217h-109l42 217h-52l-139 -217h-124z" />
    <glyph glyph-name="uni049A" unicode="&#x49a;" horiz-adv-x="581" 
d="M10 0l136 700h118l-57 -292h65l184 292h133l-228 -345l82 -250h84l-53 -275h-110l33 170h-46l-92 302h-73l-58 -302h-118z" />
    <glyph glyph-name="uni049B" unicode="&#x49b;" horiz-adv-x="476" 
d="M2 0l101 516h112l-40 -207h48l140 207h122l-179 -254l58 -169h69l-46 -235h-102l28 142h-31l-71 217h-55l-42 -217h-112z" />
    <glyph glyph-name="uni04A2" unicode="&#x4a2;" horiz-adv-x="616" 
d="M10 0l136 700h118l-57 -292h222l57 292h118l-115 -594h74l-54 -276h-111l33 170h-81l59 302h-222l-59 -302h-118z" />
    <glyph glyph-name="uni04A3" unicode="&#x4a3;" horiz-adv-x="497" 
d="M2 0l101 516h112l-40 -202h144l40 202h112l-83 -423h66l-46 -235h-102l28 142h-76l43 221h-144l-43 -221h-112z" />
    <glyph glyph-name="uni04AE" unicode="&#x4ae;" horiz-adv-x="536" 
d="M159 0l55 282l-117 418h121l73 -314l185 314h135l-279 -418l-56 -282h-117z" />
    <glyph glyph-name="uni04AF" unicode="&#x4af;" horiz-adv-x="451" 
d="M76 -216l48 247l-67 485h119l27 -370l170 370h121l-257 -486v0l-48 -246h-113z" />
    <glyph glyph-name="uni04B0" unicode="&#x4b0;" horiz-adv-x="536" 
d="M159 0l35 182h-132l18 95h133l1 5l-117 418h121l73 -314l185 314h135l-279 -418l-1 -5h140l-18 -95h-141l-36 -182h-117z" />
    <glyph glyph-name="uni04B1" unicode="&#x4b1;" horiz-adv-x="451" 
d="M1 0l16 86h99l-59 430h119l27 -370l170 370h121l-227 -430h97l-16 -86h-117l-42 -216h-113l42 216h-117z" />
    <glyph glyph-name="uni04BA" unicode="&#x4ba;" horiz-adv-x="557" 
d="M10 0l136 700h118l-55 -283q67 31 131 31q80 0 125 -40.5t45 -112.5q0 -14 -2 -30t-5 -33l-45 -232h-118l43 221q2 13 3.5 24.5t1.5 21.5q0 77 -83 77q-29 0 -57 -6.5t-59 -21.5l-61 -316h-118z" />
    <glyph glyph-name="uni04BB" unicode="&#x4bb;" horiz-adv-x="471" 
d="M2 0l144 740h112l-56 -289q24 39 58.5 58.5t71.5 19.5q52 0 81.5 -33t29.5 -101q0 -23 -3 -46t-8 -45l-59 -304h-112l57 295q7 37 9 52t2 25q0 55 -51 55q-36 0 -65.5 -35.5t-41.5 -98.5l-57 -293h-112z" />
    <glyph glyph-name="uni04D8" unicode="&#x4d8;" horiz-adv-x="569" 
d="M246 -14q-94 0 -149 62.5t-55 181.5q0 26 3 56t8 58.5t12 47.5h372q1 22 1 44q0 86 -34 129t-97 43q-34 0 -72.5 -12t-82.5 -39l-4 100q41 27 87.5 41.5t96.5 14.5q105 0 164 -73.5t59 -205.5q0 -86 -19.5 -166t-58 -143.5t-96.5 -101t-135 -37.5zM155 232
q0 -72 27.5 -106.5t74.5 -34.5q45 0 77.5 27.5t54.5 73.5t34 100h-264q-2 -17 -3 -31.5t-1 -28.5z" />
    <glyph glyph-name="uni04D9" unicode="&#x4d9;" horiz-adv-x="452" 
d="M175 -13q-73 0 -112.5 49t-39.5 137q0 24 3.5 55t10.5 62h278q1 12 1 24q0 121 -102 121q-33 0 -62 -9.5t-60 -28.5l-4 93q29 18 66.5 28.5t77.5 10.5q89 0 139.5 -55.5t50.5 -155.5q0 -58 -14.5 -116.5t-45 -107t-77 -78t-110.5 -29.5zM124 162q0 -87 63 -87q32 0 55 20
t38.5 51.5t23.5 67.5h-177q-3 -28 -3 -52z" />
    <glyph glyph-name="uni04E8" unicode="&#x4e8;" horiz-adv-x="635" 
d="M286 -16q-72 0 -125.5 35t-83 98.5t-29.5 150.5q0 58 13 120t39.5 120.5t66.5 105.5t94.5 74.5t122.5 27.5q73 0 126 -35t82.5 -98.5t29.5 -150.5q0 -58 -13 -120t-39.5 -120.5t-66.5 -105.5t-94.5 -74.5t-122.5 -27.5zM377 611q-51 0 -88 -30.5t-61.5 -78.5t-38.5 -101
h309q1 19 1 36q0 83 -31.5 128.5t-90.5 45.5zM293 89q52 0 90 32t62.5 82.5t37.5 104.5h-310q-2 -24 -2 -45q0 -82 32 -128t90 -46z" />
    <glyph glyph-name="uni04E9" unicode="&#x4e9;" horiz-adv-x="486" 
d="M206 -13q-81 0 -129 57t-48 153q0 54 15.5 112t46.5 108t78 81t111 31q81 0 129 -57t48 -153q0 -54 -15.5 -112t-46.5 -108t-78.5 -81t-110.5 -31zM272 433q-30 0 -53 -19.5t-39 -51t-25 -66.5h191q1 15 1 28q0 53 -19.5 81t-55.5 28zM213 83q31 0 54 20t39.5 51.5
t25.5 67.5h-191q-1 -16 -1 -31q0 -108 73 -108z" />
    <glyph glyph-name="uni0E3F" unicode="&#xe3f;" horiz-adv-x="484" 
d="M0 0l133 684h161l22 110h61l-22 -111q132 -13 132 -144q0 -68 -34.5 -116.5t-90.5 -67.5q43 -10 67 -44t24 -85q0 -68 -30 -119t-82.5 -79t-118.5 -28l-22 -110h-61l22 110h-161zM222 595l-39 -200h55l39 200h-55zM375 519q0 32 -10 48.5t-28 22.5l-37 -191
q35 10 55 41.5t20 78.5zM123 86h54l45 227h-55zM343 226q0 74 -61 85l-44 -225q48 4 76.5 40.5t28.5 99.5z" />
    <glyph glyph-name="uni1E24" unicode="&#x1e24;" horiz-adv-x="578" 
d="M10 0l136 700h118l-57 -292h222l57 292h118l-136 -700h-118l59 302h-222l-59 -302h-118zM213 -200q-28 0 -42.5 17t-14.5 43q0 29 19.5 52t50.5 23q29 0 43 -17t14 -44q0 -28 -19 -51t-51 -23z" />
    <glyph glyph-name="uni1E25" unicode="&#x1e25;" horiz-adv-x="471" 
d="M2 0l144 740h112l-56 -289q24 39 58.5 58.5t71.5 19.5q52 0 81.5 -33t29.5 -101q0 -23 -3 -46t-8 -45l-59 -304h-112l57 295q7 37 9 52t2 25q0 55 -51 55q-36 0 -65.5 -35.5t-41.5 -98.5l-57 -293h-112zM160 -198q-28 0 -42.5 17t-14.5 43q0 28 19.5 50.5t50.5 22.5
q28 0 42.5 -16.5t14.5 -42.5q0 -28 -19 -51t-51 -23z" />
    <glyph glyph-name="uni1E36" unicode="&#x1e36;" horiz-adv-x="447" 
d="M10 0l136 700h117l-115 -595h261l-33 -105h-366zM181 -200q-28 0 -42.5 17t-14.5 43q0 29 19.5 52t50.5 23q29 0 43 -17t14 -44q0 -28 -19 -51t-51 -23z" />
    <glyph glyph-name="uni1E37" unicode="&#x1e37;" horiz-adv-x="216" 
d="M2 0l144 740h112l-144 -740h-112zM26 -198q-28 0 -42.5 17t-14.5 43q0 28 19.5 50.5t50.5 22.5q28 0 42.5 -16.5t14.5 -42.5q0 -28 -19 -51t-51 -23z" />
    <glyph glyph-name="Wgrave" unicode="&#x1e80;" horiz-adv-x="774" 
d="M110 0l-11 700h121l-12 -539l208 539h116l1 -525l194 525h120l-283 -700h-123l2 523l-209 -523h-124zM469 772l-115 129h137l90 -129h-112z" />
    <glyph glyph-name="wgrave" unicode="&#x1e81;" horiz-adv-x="649" 
d="M83 0l-23 516h114l-1 -379l147 379h110l1 -382l145 382h113l-222 -516h-118l1 383l-150 -383h-117zM365 594l-88 155h118l61 -155h-91z" />
    <glyph glyph-name="Wacute" unicode="&#x1e82;" horiz-adv-x="774" 
d="M110 0l-11 700h121l-12 -539l208 539h116l1 -525l194 525h120l-283 -700h-123l2 523l-209 -523h-124zM418 772l134 129h142l-158 -129h-118z" />
    <glyph glyph-name="wacute" unicode="&#x1e83;" horiz-adv-x="649" 
d="M83 0l-23 516h114l-1 -379l147 379h110l1 -382l145 382h113l-222 -516h-118l1 383l-150 -383h-117zM325 594l124 155h128l-150 -155h-102z" />
    <glyph glyph-name="Wdieresis" unicode="&#x1e84;" horiz-adv-x="774" 
d="M110 0l-11 700h121l-12 -539l208 539h116l1 -525l194 525h120l-283 -700h-123l2 523l-209 -523h-124zM598 774q-27 0 -41 16.5t-14 41.5q0 27 18.5 49t49.5 22q26 0 40 -16t14 -41q0 -28 -18.5 -50t-48.5 -22zM383 774q-25 0 -39.5 16.5t-14.5 41.5q0 27 18.5 49t48.5 22
q27 0 41 -16t14 -41q0 -28 -18.5 -50t-49.5 -22z" />
    <glyph glyph-name="wdieresis" unicode="&#x1e85;" horiz-adv-x="649" 
d="M83 0l-23 516h114l-1 -379l147 379h110l1 -382l145 382h113l-222 -516h-118l1 383l-150 -383h-117zM484 609q-25 0 -39 16t-14 40q0 27 18 48.5t49 21.5q26 0 39.5 -16t13.5 -40q0 -27 -18 -48.5t-49 -21.5zM299 609q-25 0 -39 16t-14 40q0 27 18 48.5t49 21.5
q26 0 39.5 -16t13.5 -40q0 -27 -18 -48.5t-49 -21.5z" />
    <glyph glyph-name="uni1E9E" unicode="&#x1e9e;" horiz-adv-x="584" 
d="M308 -16q-38 0 -71.5 11.5t-58.5 30.5l32 97q21 -19 44.5 -28t57.5 -9q55 0 83 39.5t28 99.5q0 83 -102 89l-18 1l17 85l151 193q-38 20 -85 20q-74 0 -116.5 -42t-61.5 -141l-83 -430h-119l86 442q28 143 103 208.5t191 65.5q54 0 107 -16.5t92 -46.5l-21 -93l-135 -171
q55 -13 84 -50.5t29 -100.5q0 -75 -30 -132t-82.5 -89.5t-121.5 -32.5z" />
    <glyph glyph-name="Ygrave" unicode="&#x1ef2;" horiz-adv-x="536" 
d="M159 0l55 282l-117 418h121l73 -314l185 314h135l-279 -418l-56 -282h-117zM350 772l-115 129h137l90 -129h-112z" />
    <glyph glyph-name="ygrave" unicode="&#x1ef3;" horiz-adv-x="449" 
d="M14 -229q-45 0 -76 17l23 93q18 -12 50 -12t55 22.5t51 80.5l11 23l-71 521h118l29 -396l168 396h120l-279 -574q-31 -64 -60 -101.5t-62 -53.5t-77 -16zM261 594l-88 155h118l61 -155h-91z" />
    <glyph glyph-name="uni2000" unicode="&#x2000;" horiz-adv-x="390" 
 />
    <glyph glyph-name="uni2001" unicode="&#x2001;" horiz-adv-x="780" 
 />
    <glyph glyph-name="uni2002" unicode="&#x2002;" horiz-adv-x="390" 
 />
    <glyph glyph-name="uni2003" unicode="&#x2003;" horiz-adv-x="780" 
 />
    <glyph glyph-name="uni2004" unicode="&#x2004;" horiz-adv-x="260" 
 />
    <glyph glyph-name="uni2005" unicode="&#x2005;" horiz-adv-x="195" 
 />
    <glyph glyph-name="uni2006" unicode="&#x2006;" horiz-adv-x="130" 
 />
    <glyph glyph-name="uni2007" unicode="&#x2007;" horiz-adv-x="484" 
 />
    <glyph glyph-name="uni2008" unicode="&#x2008;" horiz-adv-x="222" 
 />
    <glyph glyph-name="uni2009" unicode="&#x2009;" horiz-adv-x="156" 
 />
    <glyph glyph-name="uni200A" unicode="&#x200a;" horiz-adv-x="48" 
 />
    <glyph glyph-name="uni200B" unicode="&#x200b;" 
 />
    <glyph glyph-name="endash" unicode="&#x2013;" horiz-adv-x="390" 
d="M-3 243l20 101h390l-20 -101h-390z" />
    <glyph glyph-name="emdash" unicode="&#x2014;" horiz-adv-x="780" 
d="M-3 243l20 101h780l-20 -101h-780z" />
    <glyph glyph-name="quoteleft" unicode="&#x2018;" horiz-adv-x="226" 
d="M148 416q-31 0 -47 20t-16 54q0 45 21.5 90t58.5 81.5t83 56.5l28 -50q-35 -16 -64.5 -43.5t-46.5 -60.5q30 0 46 -19t16 -47q0 -31 -21.5 -56.5t-57.5 -25.5z" />
    <glyph glyph-name="quoteright" unicode="&#x2019;" horiz-adv-x="226" 
d="M96 408l-28 50q35 16 64.5 43.5t46.5 60.5q-30 0 -46 19t-16 47q0 32 21.5 57t57.5 25q31 0 47 -20t16 -54q0 -45 -21.5 -90t-58.5 -81.5t-83 -56.5z" />
    <glyph glyph-name="quotesinglbase" unicode="&#x201a;" horiz-adv-x="226" 
d="M-14 -158l-28 50q35 16 64.5 43.5t46.5 60.5q-30 0 -46 19t-16 47q0 32 21.5 57t57.5 25q31 0 47 -20t16 -54q0 -45 -21.5 -90t-58.5 -81.5t-83 -56.5z" />
    <glyph glyph-name="quotedblleft" unicode="&#x201c;" horiz-adv-x="420" 
d="M148 416q-31 0 -47 20t-16 54q0 45 21.5 90t58.5 81.5t83 56.5l28 -50q-35 -16 -64.5 -43.5t-46.5 -60.5q30 0 46 -19t16 -47q0 -31 -21.5 -56.5t-57.5 -25.5zM341 416q-31 0 -47 20t-16 54q0 45 21.5 90t58.5 81.5t83 56.5l28 -50q-35 -16 -64.5 -43.5t-46.5 -60.5
q30 0 46 -19t16 -47q0 -31 -21.5 -56.5t-57.5 -25.5z" />
    <glyph glyph-name="quotedblright" unicode="&#x201d;" horiz-adv-x="420" 
d="M96 408l-28 50q35 16 64.5 43.5t46.5 60.5q-30 0 -46 19t-16 47q0 32 21.5 57t57.5 25q31 0 47 -20t16 -54q0 -45 -21.5 -90t-58.5 -81.5t-83 -56.5zM289 408l-28 50q35 16 64.5 43.5t46.5 60.5q-30 0 -46 19t-16 47q0 32 21.5 57t57.5 25q31 0 47 -20t16 -54
q0 -45 -21.5 -90t-58.5 -81.5t-83 -56.5z" />
    <glyph glyph-name="quotedblbase" unicode="&#x201e;" horiz-adv-x="420" 
d="M-14 -158l-28 50q35 16 64.5 43.5t46.5 60.5q-30 0 -46 19t-16 47q0 32 21.5 57t57.5 25q31 0 47 -20t16 -54q0 -45 -21.5 -90t-58.5 -81.5t-83 -56.5zM179 -158l-28 50q35 16 64.5 43.5t46.5 60.5q-30 0 -46 19t-16 47q0 32 21.5 57t57.5 25q31 0 47 -20t16 -54
q0 -45 -21.5 -90t-58.5 -81.5t-83 -56.5z" />
    <glyph glyph-name="dagger" unicode="&#x2020;" horiz-adv-x="384" 
d="M65 -98l114 536l-127 -5l19 101l126 -4l30 210h116l-49 -210l127 4l-20 -101l-125 5l-96 -536h-115z" />
    <glyph glyph-name="daggerdbl" unicode="&#x2021;" horiz-adv-x="407" 
d="M74 -98l52 202l-129 -6l20 103l128 -5l14 125l33 125l-128 -5l19 103l127 -5l28 201h116l-47 -201l128 5l-19 -103l-127 5l-14 -125l-34 -125l128 5l-20 -103l-126 6l-34 -202h-115z" />
    <glyph glyph-name="bullet" unicode="&#x2022;" horiz-adv-x="315" 
d="M161 147q-55 0 -89.5 36t-34.5 91t34.5 91t89.5 36q54 0 88.5 -36t34.5 -91t-34.5 -91t-88.5 -36z" />
    <glyph glyph-name="ellipsis" unicode="&#x2026;" horiz-adv-x="701" 
d="M81 -9q-31 0 -47.5 19t-16.5 47q0 32 22 58t58 26q31 0 47.5 -19t16.5 -48q0 -32 -22 -57.5t-58 -25.5zM307 -9q-31 0 -47.5 19t-16.5 47q0 32 22 58t58 26q31 0 47.5 -19t16.5 -48q0 -32 -22 -57.5t-58 -25.5zM533 -9q-31 0 -47.5 19t-16.5 47q0 32 22 58t58 26
q31 0 47.5 -19t16.5 -48q0 -32 -22 -57.5t-58 -25.5z" />
    <glyph glyph-name="perthousand" unicode="&#x2030;" horiz-adv-x="1040" 
d="M133 0l387 684h88l-388 -684h-87zM533 -8q-51 0 -78 33.5t-27 95.5q0 77 21 138.5t57.5 98t80.5 36.5q50 0 77 -33.5t27 -95.5q0 -76 -21 -138t-56.5 -98.5t-80.5 -36.5zM536 58q14 0 28 19t25.5 50t18 69t6.5 75q0 57 -29 57q-15 0 -29 -19t-25 -50t-18 -68.5t-7 -75.5
q0 -57 30 -57zM834 -8q-51 0 -78 33.5t-27 95.5q0 77 21 138.5t57.5 98t80.5 36.5q50 0 77 -33.5t27 -95.5q0 -76 -21 -138t-56.5 -98.5t-80.5 -36.5zM837 58q14 0 28 19t25.5 50t18 69t6.5 75q0 57 -29 57q-15 0 -29 -19t-25 -50t-18 -68.5t-7 -75.5q0 -57 30 -57zM173 290
q-51 0 -78 33.5t-27 95.5q0 77 21 138.5t57.5 98t80.5 36.5q50 0 77 -33.5t27 -95.5q0 -76 -21 -138t-56.5 -98.5t-80.5 -36.5zM176 356q14 0 28 19t25.5 50t18 69t6.5 75q0 57 -29 57q-15 0 -29 -19t-25 -50t-18 -68.5t-7 -75.5q0 -57 30 -57z" />
    <glyph glyph-name="guilsinglleft" unicode="&#x2039;" horiz-adv-x="289" 
d="M97 52l-65 210l146 210h118l-148 -217l59 -203h-110z" />
    <glyph glyph-name="guilsinglright" unicode="&#x203a;" horiz-adv-x="289" 
d="M-5 52l148 217l-59 203h110l65 -210l-146 -210h-118z" />
    <glyph glyph-name="fraction" unicode="&#x2044;" horiz-adv-x="104" 
d="M-169 0l387 684h88l-388 -684h-87z" />
    <glyph glyph-name="uni2070" unicode="&#x2070;" horiz-adv-x="308" 
d="M192 380q-51 0 -78 33.5t-27 95.5q0 77 21 138.5t57.5 98t80.5 36.5q50 0 77 -33.5t27 -95.5q0 -76 -21 -138t-56.5 -98.5t-80.5 -36.5zM195 446q14 0 28 19t25.5 50t18 69t6.5 75q0 57 -29 57q-15 0 -29 -19t-25 -50t-18 -68.5t-7 -75.5q0 -57 30 -57z" />
    <glyph glyph-name="uni2074" unicode="&#x2074;" horiz-adv-x="308" 
d="M204 388l14 75h-157l13 64l199 247h77l-50 -246h42l-20 -65h-36l-15 -75h-67zM144 528h87l27 143z" />
    <glyph glyph-name="uni2075" unicode="&#x2075;" horiz-adv-x="308" 
d="M169 380q-32 0 -56 6.5t-47 22.5l26 62q17 -13 38.5 -19.5t42.5 -6.5q30 0 48 21.5t18 51.5q0 47 -49 47q-13 0 -25.5 -2.5t-29.5 -7.5l-27 11l56 208h180l-5 -68h-127l-24 -89q21 8 43 8q39 0 62.5 -25t23.5 -70q0 -67 -41 -108.5t-107 -41.5z" />
    <glyph glyph-name="uni2076" unicode="&#x2076;" horiz-adv-x="308" 
d="M203 380q-54 0 -82 33t-28 95q0 73 22.5 135t65.5 100.5t105 38.5q26 0 44 -5t35 -15l-25 -62q-25 16 -56 16q-80 0 -110 -127q28 42 76 42q41 0 62 -26t21 -68t-16 -78t-45 -57.5t-69 -21.5zM206 443q29 0 42 28t13 57q0 48 -38 48q-28 0 -42 -27t-14 -58q0 -48 39 -48z
" />
    <glyph glyph-name="uni2077" unicode="&#x2077;" horiz-adv-x="308" 
d="M97 388l181 316h-156l22 70h227l-13 -66l-172 -320h-89z" />
    <glyph glyph-name="uni2078" unicode="&#x2078;" horiz-adv-x="308" 
d="M184 380q-52 0 -81 24.5t-29 70.5q0 38 22.5 69t59.5 41q-39 19 -39 73t35.5 89t95.5 35q45 0 72.5 -25.5t27.5 -70.5q0 -36 -19 -63t-52 -39q47 -19 47 -77q0 -55 -39 -91t-101 -36zM223 611q22 0 36.5 18.5t14.5 47.5q0 23 -9.5 34t-25.5 11q-22 0 -36.5 -18.5
t-14.5 -48.5q0 -44 35 -44zM193 441q23 0 38 19.5t15 49.5q0 47 -41 47q-24 0 -38.5 -19.5t-14.5 -48.5q0 -48 41 -48z" />
    <glyph glyph-name="uni2079" unicode="&#x2079;" horiz-adv-x="308" 
d="M235 782q54 0 82 -33t28 -95q0 -72 -22.5 -134.5t-65.5 -101t-105 -38.5q-25 0 -43.5 5t-35.5 15l25 62q25 -16 56 -16q80 0 110 127q-28 -42 -76 -42q-40 0 -61.5 26t-21.5 68q0 43 16 78.5t45 57t69 21.5zM232 719q-29 0 -42 -28t-13 -57q0 -48 38 -48q28 0 42 27
t14 58q0 48 -39 48z" />
    <glyph glyph-name="uni2080" unicode="&#x2080;" horiz-adv-x="308" 
d="M100 -98q-51 0 -78 33.5t-27 95.5q0 77 21 138.5t57.5 98t80.5 36.5q50 0 77 -33.5t27 -95.5q0 -76 -21 -138t-56.5 -98.5t-80.5 -36.5zM103 -32q14 0 28 19t25.5 50t18 69t6.5 75q0 57 -29 57q-15 0 -29 -19t-25 -50t-18 -68.5t-7 -75.5q0 -57 30 -57z" />
    <glyph glyph-name="uni2081" unicode="&#x2081;" horiz-adv-x="308" 
d="M74 -90l58 297l-70 -43l-22 60l120 72h66l-75 -386h-77z" />
    <glyph glyph-name="uni2082" unicode="&#x2082;" horiz-adv-x="308" 
d="M-25 -90l12 58q34 26 68.5 58t56.5 57q29 31 43.5 55t14.5 52q0 46 -41 46q-39 0 -82 -34l-9 62q25 19 54 29.5t59 10.5q47 0 74 -26.5t27 -72.5q0 -44 -22.5 -83.5t-60.5 -74.5q-13 -12 -34.5 -31t-46.5 -39h131l-20 -67h-224z" />
    <glyph glyph-name="uni2083" unicode="&#x2083;" horiz-adv-x="308" 
d="M77 -98q-64 0 -105 31l24 60q35 -26 79 -26q32 0 48.5 18t16.5 49q0 22 -13 31.5t-35 9.5h-42l13 65h42q29 0 46 16.5t17 43.5q0 39 -46 39q-36 0 -79 -26l-4 61q23 15 50 22.5t52 7.5q48 0 76 -23t28 -64q0 -40 -22.5 -69.5t-63.5 -40.5q58 -17 58 -79q0 -57 -39 -91.5
t-101 -34.5z" />
    <glyph glyph-name="uni2084" unicode="&#x2084;" horiz-adv-x="308" 
d="M112 -90l14 75h-157l13 64l199 247h77l-50 -246h42l-20 -65h-36l-15 -75h-67zM52 50h87l27 143z" />
    <glyph glyph-name="uni2085" unicode="&#x2085;" horiz-adv-x="308" 
d="M77 -98q-32 0 -56 6.5t-47 22.5l26 62q17 -13 38.5 -19.5t42.5 -6.5q30 0 48 21.5t18 51.5q0 47 -49 47q-13 0 -25.5 -2.5t-29.5 -7.5l-27 11l56 208h180l-5 -68h-127l-24 -89q21 8 43 8q39 0 62.5 -25t23.5 -70q0 -67 -41 -108.5t-107 -41.5z" />
    <glyph glyph-name="uni2086" unicode="&#x2086;" horiz-adv-x="308" 
d="M111 -98q-54 0 -82 33t-28 95q0 73 22.5 135t65.5 100.5t105 38.5q26 0 44 -5t35 -15l-25 -62q-25 16 -56 16q-80 0 -110 -127q28 42 76 42q41 0 62 -26t21 -68t-16 -78t-45 -57.5t-69 -21.5zM114 -35q29 0 42 28t13 57q0 48 -38 48q-28 0 -42 -27t-14 -58q0 -48 39 -48z
" />
    <glyph glyph-name="uni2087" unicode="&#x2087;" horiz-adv-x="308" 
d="M5 -90l181 316h-156l22 70h227l-13 -66l-172 -320h-89z" />
    <glyph glyph-name="uni2088" unicode="&#x2088;" horiz-adv-x="308" 
d="M92 -98q-52 0 -81 24.5t-29 70.5q0 38 22.5 69t59.5 41q-39 19 -39 73t35.5 89t95.5 35q45 0 72.5 -25.5t27.5 -70.5q0 -36 -19 -63t-52 -39q47 -19 47 -77q0 -55 -39 -91t-101 -36zM131 133q22 0 36.5 18.5t14.5 47.5q0 23 -9.5 34t-25.5 11q-22 0 -36.5 -18.5
t-14.5 -48.5q0 -44 35 -44zM101 -37q23 0 38 19.5t15 49.5q0 47 -41 47q-24 0 -38.5 -19.5t-14.5 -48.5q0 -48 41 -48z" />
    <glyph glyph-name="uni2089" unicode="&#x2089;" horiz-adv-x="308" 
d="M143 304q54 0 82 -33t28 -95q0 -72 -22.5 -134.5t-65.5 -101t-105 -38.5q-25 0 -43.5 5t-35.5 15l25 62q25 -16 56 -16q80 0 110 127q-28 -42 -76 -42q-40 0 -61.5 26t-21.5 68q0 43 16 78.5t45 57t69 21.5zM140 241q-29 0 -42 -28t-13 -57q0 -48 38 -48q28 0 42 27
t14 58q0 48 -39 48z" />
    <glyph glyph-name="uni20A9" unicode="&#x20a9;" horiz-adv-x="776" 
d="M114 0l-5 286h-90l14 73h75l-1 81h-58l14 73h43l-3 171h118l-2 -171h131l64 171h115l-3 -171h130l64 171h119l-70 -171h43l-14 -73h-60l-33 -81h77l-15 -73h-92l-118 -286h-123l6 286h-97l-108 -286h-121zM371 359h71l4 200zM523 359h75l30 81h-103zM218 359h74l31 81
h-104zM217 286l-1 -132l49 132h-48zM522 286l-2 -134l50 134h-48z" />
    <glyph glyph-name="dong" unicode="&#x20ab;" horiz-adv-x="484" 
d="M155 -12q-60 0 -97 50t-37 139q0 65 16 121.5t44.5 100t67 68t82.5 24.5q45 0 73 -23.5t40 -62.5l27 145h-124l17 77h121l11 57h110l-11 -57h54l-17 -77h-52l-107 -550h-96l12 75q-26 -41 -60.5 -64t-73.5 -23zM201 80q36 0 64 30.5t44 79t16 101.5q0 50 -18.5 78.5
t-54.5 28.5q-34 0 -61.5 -29t-43 -77.5t-15.5 -106.5q0 -105 69 -105zM-38 -152l16 74h380l-15 -74h-381z" />
    <glyph glyph-name="Euro" unicode="&#x20ac;" horiz-adv-x="484" 
d="M15 229l25 75h43q3 41 11 80h-48l25 75h44q25 72 66 125.5t95 83.5t118 30q41 0 76 -13t63 -37l-40 -95q-43 45 -105 45q-53 0 -93 -37t-64 -102h203l-25 -75h-199q-7 -38 -10 -80h187l-25 -75h-163q3 -73 30 -107.5t79 -34.5q33 0 62.5 11.5t59.5 36.5l1 -100
q-60 -49 -152 -49q-89 0 -141 63t-57 180h-66z" />
    <glyph glyph-name="uni20B4" unicode="&#x20b4;" horiz-adv-x="484" 
d="M59 388l15 74h268q29 32 29 74q0 66 -81 66q-36 0 -71.5 -12.5t-80.5 -44.5l-3 93q42 30 91 45t100 15q75 0 117 -34t42 -96q0 -55 -34 -106h42l-14 -74h-420zM205 -14q-80 0 -125 35.5t-45 99.5q0 58 39 111h-46l15 74h419l-14 -74h-260q-36 -36 -36 -82q0 -67 84 -67
q41 0 80 13.5t87 48.5l4 -96q-43 -33 -94 -48t-108 -15z" />
    <glyph glyph-name="uni20A8" unicode="&#x20b9;" horiz-adv-x="484" 
d="M230 0l-172 268l15 76h108q51 0 85.5 24.5t48.5 70.5h-224l15 73h218q-2 50 -23 74t-68 24h-109l15 74h391l-14 -71h-124q18 -17 30 -43t14 -58h61l-14 -73h-55q-20 -80 -88 -123t-158 -43l178 -273h-130z" />
    <glyph glyph-name="uni20BA" unicode="&#x20ba;" horiz-adv-x="484" 
d="M22 0l39 198l-57 -32l18 90l56 32l17 85l-56 -32l17 91l57 32l43 220h112l-29 -149l145 81l-17 -90l-146 -82l-17 -85l145 81l-17 -91l-145 -81l-33 -168h24q71 0 114.5 54t56.5 157l110 -13q-23 -146 -99 -222t-202 -76h-136z" />
    <glyph glyph-name="uni20BD" unicode="&#x20bd;" horiz-adv-x="484" 
d="M26 0l23 116h-53l16 73h51l16 82h-52l17 73h49l67 340h168q83 0 128.5 -46t45.5 -126q0 -73 -29.5 -127t-83 -84t-126.5 -30h-72l-16 -82h127l-18 -73h-123l-23 -116h-112zM307 590h-53l-48 -246h59q56 0 88 42.5t32 115.5q0 88 -78 88z" />
    <glyph glyph-name="trademark" unicode="&#x2122;" horiz-adv-x="795" 
d="M408 308v392h109l68 -245l71 245h105v-392h-81v265l-60 -199h-71l-59 201v-267h-82zM190 308v314h-95v78h277v-78h-95v-314h-87z" />
    <glyph glyph-name="uni2150" unicode="&#x2150;" horiz-adv-x="722" 
d="M121 0l387 684h88l-388 -684h-87zM436 0l181 316h-156l22 70h227l-13 -66l-172 -320h-89zM149 298l58 297l-70 -43l-22 60l120 72h66l-75 -386h-77z" />
    <glyph glyph-name="uni2151" unicode="&#x2151;" horiz-adv-x="722" 
d="M131 0l387 684h88l-388 -684h-87zM574 394q54 0 82 -33t28 -95q0 -72 -22.5 -134.5t-65.5 -101t-105 -38.5q-25 0 -43.5 5t-35.5 15l25 62q25 -16 56 -16q80 0 110 127q-28 -42 -76 -42q-40 0 -61.5 26t-21.5 68q0 43 16 78.5t45 57t69 21.5zM571 331q-29 0 -42 -28
t-13 -57q0 -48 38 -48q28 0 42 27t14 58q0 48 -39 48zM149 298l58 297l-70 -43l-22 60l120 72h66l-75 -386h-77z" />
    <glyph glyph-name="uni2153" unicode="&#x2153;" horiz-adv-x="722" 
d="M121 0l387 684h88l-388 -684h-87zM508 -8q-64 0 -105 31l24 60q35 -26 79 -26q32 0 48.5 18t16.5 49q0 22 -13 31.5t-35 9.5h-42l13 65h42q29 0 46 16.5t17 43.5q0 39 -46 39q-36 0 -79 -26l-4 61q23 15 50 22.5t52 7.5q48 0 76 -23t28 -64q0 -40 -22.5 -69.5
t-63.5 -40.5q58 -17 58 -79q0 -57 -39 -91.5t-101 -34.5zM149 298l58 297l-70 -43l-22 60l120 72h66l-75 -386h-77z" />
    <glyph glyph-name="uni2154" unicode="&#x2154;" horiz-adv-x="722" 
d="M136 0l387 684h88l-388 -684h-87zM503 -8q-64 0 -105 31l24 60q35 -26 79 -26q32 0 48.5 18t16.5 49q0 22 -13 31.5t-35 9.5h-42l13 65h42q29 0 46 16.5t17 43.5q0 39 -46 39q-36 0 -79 -26l-4 61q23 15 50 22.5t52 7.5q48 0 76 -23t28 -64q0 -40 -22.5 -69.5
t-63.5 -40.5q58 -17 58 -79q0 -57 -39 -91.5t-101 -34.5zM50 298l12 58q34 26 68.5 58t56.5 57q29 31 43.5 55t14.5 52q0 46 -41 46q-39 0 -82 -34l-9 62q25 19 54 29.5t59 10.5q47 0 74 -26.5t27 -72.5q0 -44 -22.5 -83.5t-60.5 -74.5q-13 -12 -34.5 -31t-46.5 -39h131
l-20 -67h-224z" />
    <glyph glyph-name="uni2155" unicode="&#x2155;" horiz-adv-x="722" 
d="M131 0l387 684h88l-388 -684h-87zM508 -8q-32 0 -56 6.5t-47 22.5l26 62q17 -13 38.5 -19.5t42.5 -6.5q30 0 48 21.5t18 51.5q0 47 -49 47q-13 0 -25.5 -2.5t-29.5 -7.5l-27 11l56 208h180l-5 -68h-127l-24 -89q21 8 43 8q39 0 62.5 -25t23.5 -70q0 -67 -41 -108.5
t-107 -41.5zM149 298l58 297l-70 -43l-22 60l120 72h66l-75 -386h-77z" />
    <glyph glyph-name="uni2156" unicode="&#x2156;" horiz-adv-x="722" 
d="M140 0l387 684h88l-388 -684h-87zM508 -8q-32 0 -56 6.5t-47 22.5l26 62q17 -13 38.5 -19.5t42.5 -6.5q30 0 48 21.5t18 51.5q0 47 -49 47q-13 0 -25.5 -2.5t-29.5 -7.5l-27 11l56 208h180l-5 -68h-127l-24 -89q21 8 43 8q39 0 62.5 -25t23.5 -70q0 -67 -41 -108.5
t-107 -41.5zM50 298l12 58q34 26 68.5 58t56.5 57q29 31 43.5 55t14.5 52q0 46 -41 46q-39 0 -82 -34l-9 62q25 19 54 29.5t59 10.5q47 0 74 -26.5t27 -72.5q0 -44 -22.5 -83.5t-60.5 -74.5q-13 -12 -34.5 -31t-46.5 -39h131l-20 -67h-224z" />
    <glyph glyph-name="uni2157" unicode="&#x2157;" horiz-adv-x="722" 
d="M140 0l387 684h88l-388 -684h-87zM508 -8q-32 0 -56 6.5t-47 22.5l26 62q17 -13 38.5 -19.5t42.5 -6.5q30 0 48 21.5t18 51.5q0 47 -49 47q-13 0 -25.5 -2.5t-29.5 -7.5l-27 11l56 208h180l-5 -68h-127l-24 -89q21 8 43 8q39 0 62.5 -25t23.5 -70q0 -67 -41 -108.5
t-107 -41.5zM152 290q-64 0 -105 31l24 60q35 -26 79 -26q32 0 48.5 18t16.5 49q0 22 -13 31.5t-35 9.5h-42l13 65h42q29 0 46 16.5t17 43.5q0 39 -46 39q-36 0 -79 -26l-4 61q23 15 50 22.5t52 7.5q48 0 76 -23t28 -64q0 -40 -22.5 -69.5t-63.5 -40.5q58 -17 58 -79
q0 -57 -39 -91.5t-101 -34.5z" />
    <glyph glyph-name="uni2158" unicode="&#x2158;" horiz-adv-x="722" 
d="M140 0l387 684h88l-388 -684h-87zM508 -8q-32 0 -56 6.5t-47 22.5l26 62q17 -13 38.5 -19.5t42.5 -6.5q30 0 48 21.5t18 51.5q0 47 -49 47q-13 0 -25.5 -2.5t-29.5 -7.5l-27 11l56 208h180l-5 -68h-127l-24 -89q21 8 43 8q39 0 62.5 -25t23.5 -70q0 -67 -41 -108.5
t-107 -41.5zM188 298l14 75h-157l13 64l199 247h77l-50 -246h42l-20 -65h-36l-15 -75h-67zM128 438h87l27 143z" />
    <glyph glyph-name="uni2159" unicode="&#x2159;" horiz-adv-x="722" 
d="M131 0l387 684h88l-388 -684h-87zM542 -8q-54 0 -82 33t-28 95q0 73 22.5 135t65.5 100.5t105 38.5q26 0 44 -5t35 -15l-25 -62q-25 16 -56 16q-80 0 -110 -127q28 42 76 42q41 0 62 -26t21 -68t-16 -78t-45 -57.5t-69 -21.5zM545 55q29 0 42 28t13 57q0 48 -38 48
q-28 0 -42 -27t-14 -58q0 -48 39 -48zM149 298l58 297l-70 -43l-22 60l120 72h66l-75 -386h-77z" />
    <glyph glyph-name="uni215A" unicode="&#x215a;" horiz-adv-x="722" 
d="M138 0l387 684h88l-388 -684h-87zM542 -8q-54 0 -82 33t-28 95q0 73 22.5 135t65.5 100.5t105 38.5q26 0 44 -5t35 -15l-25 -62q-25 16 -56 16q-80 0 -110 -127q28 42 76 42q41 0 62 -26t21 -68t-16 -78t-45 -57.5t-69 -21.5zM545 55q29 0 42 28t13 57q0 48 -38 48
q-28 0 -42 -27t-14 -58q0 -48 39 -48zM152 290q-32 0 -56 6.5t-47 22.5l26 62q17 -13 38.5 -19.5t42.5 -6.5q30 0 48 21.5t18 51.5q0 47 -49 47q-13 0 -25.5 -2.5t-29.5 -7.5l-27 11l56 208h180l-5 -68h-127l-24 -89q21 8 43 8q39 0 62.5 -25t23.5 -70q0 -67 -41 -108.5
t-107 -41.5z" />
    <glyph glyph-name="oneeighth" unicode="&#x215b;" horiz-adv-x="722" 
d="M131 0l387 684h88l-388 -684h-87zM523 -8q-52 0 -81 24.5t-29 70.5q0 38 22.5 69t59.5 41q-39 19 -39 73t35.5 89t95.5 35q45 0 72.5 -25.5t27.5 -70.5q0 -36 -19 -63t-52 -39q47 -19 47 -77q0 -55 -39 -91t-101 -36zM562 223q22 0 36.5 18.5t14.5 47.5q0 23 -9.5 34
t-25.5 11q-22 0 -36.5 -18.5t-14.5 -48.5q0 -44 35 -44zM532 53q23 0 38 19.5t15 49.5q0 47 -41 47q-24 0 -38.5 -19.5t-14.5 -48.5q0 -48 41 -48zM149 298l58 297l-70 -43l-22 60l120 72h66l-75 -386h-77z" />
    <glyph glyph-name="threeeighths" unicode="&#x215c;" horiz-adv-x="722" 
d="M141 0l387 684h88l-388 -684h-87zM523 -8q-52 0 -81 24.5t-29 70.5q0 38 22.5 69t59.5 41q-39 19 -39 73t35.5 89t95.5 35q45 0 72.5 -25.5t27.5 -70.5q0 -36 -19 -63t-52 -39q47 -19 47 -77q0 -55 -39 -91t-101 -36zM562 223q22 0 36.5 18.5t14.5 47.5q0 23 -9.5 34
t-25.5 11q-22 0 -36.5 -18.5t-14.5 -48.5q0 -44 35 -44zM532 53q23 0 38 19.5t15 49.5q0 47 -41 47q-24 0 -38.5 -19.5t-14.5 -48.5q0 -48 41 -48zM152 290q-64 0 -105 31l24 60q35 -26 79 -26q32 0 48.5 18t16.5 49q0 22 -13 31.5t-35 9.5h-42l13 65h42q29 0 46 16.5
t17 43.5q0 39 -46 39q-36 0 -79 -26l-4 61q23 15 50 22.5t52 7.5q48 0 76 -23t28 -64q0 -40 -22.5 -69.5t-63.5 -40.5q58 -17 58 -79q0 -57 -39 -91.5t-101 -34.5z" />
    <glyph glyph-name="fiveeighths" unicode="&#x215d;" horiz-adv-x="722" 
d="M141 0l387 684h88l-388 -684h-87zM523 -8q-52 0 -81 24.5t-29 70.5q0 38 22.5 69t59.5 41q-39 19 -39 73t35.5 89t95.5 35q45 0 72.5 -25.5t27.5 -70.5q0 -36 -19 -63t-52 -39q47 -19 47 -77q0 -55 -39 -91t-101 -36zM562 223q22 0 36.5 18.5t14.5 47.5q0 23 -9.5 34
t-25.5 11q-22 0 -36.5 -18.5t-14.5 -48.5q0 -44 35 -44zM532 53q23 0 38 19.5t15 49.5q0 47 -41 47q-24 0 -38.5 -19.5t-14.5 -48.5q0 -48 41 -48zM152 290q-32 0 -56 6.5t-47 22.5l26 62q17 -13 38.5 -19.5t42.5 -6.5q30 0 48 21.5t18 51.5q0 47 -49 47q-13 0 -25.5 -2.5
t-29.5 -7.5l-27 11l56 208h180l-5 -68h-127l-24 -89q21 8 43 8q39 0 62.5 -25t23.5 -70q0 -67 -41 -108.5t-107 -41.5z" />
    <glyph glyph-name="seveneighths" unicode="&#x215e;" horiz-adv-x="722" 
d="M131 0l387 684h88l-388 -684h-87zM523 -8q-52 0 -81 24.5t-29 70.5q0 38 22.5 69t59.5 41q-39 19 -39 73t35.5 89t95.5 35q45 0 72.5 -25.5t27.5 -70.5q0 -36 -19 -63t-52 -39q47 -19 47 -77q0 -55 -39 -91t-101 -36zM562 223q22 0 36.5 18.5t14.5 47.5q0 23 -9.5 34
t-25.5 11q-22 0 -36.5 -18.5t-14.5 -48.5q0 -44 35 -44zM532 53q23 0 38 19.5t15 49.5q0 47 -41 47q-24 0 -38.5 -19.5t-14.5 -48.5q0 -48 41 -48zM80 298l181 316h-156l22 70h227l-13 -66l-172 -320h-89z" />
    <glyph glyph-name="minus" unicode="&#x2212;" horiz-adv-x="484" 
d="M48 293v96h420v-96h-420z" />
    <glyph glyph-name="uniFEFF" unicode="&#xfeff;" 
 />
    <glyph glyph-name="uniFFFD" unicode="&#xfffd;" horiz-adv-x="1000" 
d="M518 -121l-475 474l475 475l475 -475zM474 198h70v18q0 28 16 50.5t54 47.5q56 38 78.5 74t22.5 86q0 71 -51 113t-140 42q-42 0 -88 -13t-76 -33l19 -59q26 20 63 30.5t75 10.5q56 0 87.5 -25t31.5 -70q0 -34 -18 -60.5t-62 -57.5t-63 -62.5t-19 -73.5v-18zM508 19
q23 0 38.5 15.5t15.5 37.5q0 23 -15.5 37.5t-38.5 14.5t-38.5 -14.5t-15.5 -37.5q0 -22 15.5 -37.5t38.5 -15.5z" />
    <glyph glyph-name="zero.pnum" horiz-adv-x="494" 
d="M210 -14q-82 0 -125.5 58t-43.5 168q0 52 9.5 117t29.5 129.5t52.5 119t78 87.5t105.5 33q83 0 126 -58t43 -168q0 -52 -9.5 -117t-29.5 -129.5t-52 -119t-77.5 -87.5t-106.5 -33zM217 87q31 0 56 31t43 80.5t30 105t18 105.5t6 81q0 107 -60 107q-31 0 -56 -31
t-43.5 -80.5t-30.5 -105t-18 -105.5t-6 -81q0 -107 61 -107z" />
    <glyph glyph-name="one.pnum" horiz-adv-x="357" 
d="M122 0l105 545l-112 -75l-41 89l194 125h102l-133 -684h-115z" />
    <glyph glyph-name="two.pnum" horiz-adv-x="447" 
d="M-19 0l17 87q59 56 107 101t98 97q66 68 95 118.5t29 104.5q0 43 -19 66t-57 23q-69 0 -139 -59l-15 93q39 32 84.5 49.5t97.5 17.5q74 0 119.5 -47t45.5 -127q0 -79 -41 -146t-120 -146q-47 -47 -141 -132h244l-32 -100h-373z" />
    <glyph glyph-name="three.pnum" horiz-adv-x="441" 
d="M152 -14q-49 0 -93.5 15t-76.5 40l38 87q62 -46 135 -46q56 0 90 37.5t34 99.5q0 43 -24 65t-68 22h-67l18 94h71q54 0 87 34.5t33 86.5q0 81 -81 81q-67 0 -139 -46l-6 88q37 26 79 40t92 14q77 0 124 -41.5t47 -115.5q0 -66 -35.5 -117t-92.5 -72q36 -14 56.5 -49
t20.5 -83q0 -70 -31.5 -123t-86 -82t-124.5 -29z" />
    <glyph glyph-name="four.pnum" horiz-adv-x="474" 
d="M230 0l30 152h-261l17 91l338 441h114l-85 -438h67l-29 -94h-56l-30 -152h-105zM123 246h155l53 271z" />
    <glyph glyph-name="five.pnum" horiz-adv-x="446" 
d="M154 -14q-49 0 -92 14.5t-74 39.5l39 88q57 -46 130 -46q63 0 98 40.5t35 105.5q0 47 -25 71t-71 24q-27 0 -49.5 -4t-45.5 -11l-35 19l94 357h299l-8 -101h-218l-47 -177q32 8 67 8q73 0 114.5 -47t41.5 -124q0 -75 -32 -133t-89 -91t-132 -33z" />
    <glyph glyph-name="six.pnum" horiz-adv-x="474" 
d="M214 -14q-81 0 -129 58t-48 161q0 105 24.5 195t69 157t105 104t133.5 37q40 0 71 -7.5t61 -25.5l-40 -93q-42 27 -102 27q-46 0 -85 -30.5t-68 -85.5t-42 -129q52 87 140 87q62 0 99 -45.5t37 -122.5q0 -83 -29 -148t-80 -102t-117 -37zM221 81q30 0 54.5 24.5t38.5 66
t14 92.5q0 42 -16.5 65t-46.5 23q-31 0 -57 -24t-41.5 -64.5t-15.5 -90.5q0 -44 18 -68t52 -24z" />
    <glyph glyph-name="seven.pnum" horiz-adv-x="421" 
d="M37 0l314 583h-275l32 101h379l-18 -97l-309 -587h-123z" />
    <glyph glyph-name="eight.pnum" horiz-adv-x="475" 
d="M199 -14q-85 0 -133 45t-48 121q0 71 38 126.5t102 76.5q-58 34 -58 123q0 63 28.5 113t77 78.5t106.5 28.5q77 0 120.5 -43t43.5 -116q0 -65 -32 -115t-87 -72q35 -14 53.5 -48.5t18.5 -82.5q0 -68 -29 -121t-81 -83.5t-120 -30.5zM273 398q41 0 67.5 36t26.5 91
q0 37 -16.5 58t-48.5 21q-40 0 -66.5 -36t-26.5 -90q0 -37 16.5 -58.5t47.5 -21.5zM207 80q47 0 76.5 39t29.5 100q0 41 -19.5 64t-54.5 23q-45 0 -75 -39.5t-30 -99.5q0 -41 19 -64t54 -23z" />
    <glyph glyph-name="nine.pnum" horiz-adv-x="475" 
d="M142 -14q-43 0 -74.5 8t-61.5 25l40 93q41 -27 102 -27q70 0 119.5 62t74.5 181q-53 -85 -139 -85q-64 0 -100 47t-36 121q0 55 15.5 106t44.5 92t71 65t95 24q88 0 132.5 -56.5t44.5 -144.5q0 -94 -22 -185t-64 -165t-103 -117.5t-139 -43.5zM244 332q38 0 62.5 28.5
t37 70t12.5 80.5q0 44 -18.5 68t-53.5 24q-27 0 -46.5 -17t-32.5 -44.5t-19.5 -59.5t-6.5 -62q0 -40 16.5 -64t48.5 -24z" />
    <glyph glyph-name="zero.dnom" horiz-adv-x="308" 
d="M117 -8q-51 0 -78 33.5t-27 95.5q0 77 21 138.5t57.5 98t80.5 36.5q50 0 77 -33.5t27 -95.5q0 -76 -21 -138t-56.5 -98.5t-80.5 -36.5zM120 58q14 0 28 19t25.5 50t18 69t6.5 75q0 57 -29 57q-15 0 -29 -19t-25 -50t-18 -68.5t-7 -75.5q0 -57 30 -57z" />
    <glyph glyph-name="one.dnom" horiz-adv-x="308" 
d="M91 0l58 297l-70 -43l-22 60l120 72h66l-75 -386h-77z" />
    <glyph glyph-name="two.dnom" horiz-adv-x="308" 
d="M-8 0l12 58q34 26 68.5 58t56.5 57q29 31 43.5 55t14.5 52q0 46 -41 46q-39 0 -82 -34l-9 62q25 19 54 29.5t59 10.5q47 0 74 -26.5t27 -72.5q0 -44 -22.5 -83.5t-60.5 -74.5q-13 -12 -34.5 -31t-46.5 -39h131l-20 -67h-224z" />
    <glyph glyph-name="three.dnom" horiz-adv-x="308" 
d="M94 -8q-64 0 -105 31l24 60q35 -26 79 -26q32 0 48.5 18t16.5 49q0 22 -13 31.5t-35 9.5h-42l13 65h42q29 0 46 16.5t17 43.5q0 39 -46 39q-36 0 -79 -26l-4 61q23 15 50 22.5t52 7.5q48 0 76 -23t28 -64q0 -40 -22.5 -69.5t-63.5 -40.5q58 -17 58 -79q0 -57 -39 -91.5
t-101 -34.5z" />
    <glyph glyph-name="four.dnom" horiz-adv-x="308" 
d="M129 0l14 75h-157l13 64l199 247h77l-50 -246h42l-20 -65h-36l-15 -75h-67zM69 140h87l27 143z" />
    <glyph glyph-name="five.dnom" horiz-adv-x="308" 
d="M94 -8q-32 0 -56 6.5t-47 22.5l26 62q17 -13 38.5 -19.5t42.5 -6.5q30 0 48 21.5t18 51.5q0 47 -49 47q-13 0 -25.5 -2.5t-29.5 -7.5l-27 11l56 208h180l-5 -68h-127l-24 -89q21 8 43 8q39 0 62.5 -25t23.5 -70q0 -67 -41 -108.5t-107 -41.5z" />
    <glyph glyph-name="six.dnom" horiz-adv-x="308" 
d="M128 -8q-54 0 -82 33t-28 95q0 73 22.5 135t65.5 100.5t105 38.5q26 0 44 -5t35 -15l-25 -62q-25 16 -56 16q-80 0 -110 -127q28 42 76 42q41 0 62 -26t21 -68t-16 -78t-45 -57.5t-69 -21.5zM131 55q29 0 42 28t13 57q0 48 -38 48q-28 0 -42 -27t-14 -58q0 -48 39 -48z
" />
    <glyph glyph-name="seven.dnom" horiz-adv-x="308" 
d="M22 0l181 316h-156l22 70h227l-13 -66l-172 -320h-89z" />
    <glyph glyph-name="eight.dnom" horiz-adv-x="308" 
d="M109 -8q-52 0 -81 24.5t-29 70.5q0 38 22.5 69t59.5 41q-39 19 -39 73t35.5 89t95.5 35q45 0 72.5 -25.5t27.5 -70.5q0 -36 -19 -63t-52 -39q47 -19 47 -77q0 -55 -39 -91t-101 -36zM148 223q22 0 36.5 18.5t14.5 47.5q0 23 -9.5 34t-25.5 11q-22 0 -36.5 -18.5
t-14.5 -48.5q0 -44 35 -44zM118 53q23 0 38 19.5t15 49.5q0 47 -41 47q-24 0 -38.5 -19.5t-14.5 -48.5q0 -48 41 -48z" />
    <glyph glyph-name="nine.dnom" horiz-adv-x="308" 
d="M160 394q54 0 82 -33t28 -95q0 -72 -22.5 -134.5t-65.5 -101t-105 -38.5q-25 0 -43.5 5t-35.5 15l25 62q25 -16 56 -16q80 0 110 127q-28 -42 -76 -42q-40 0 -61.5 26t-21.5 68q0 43 16 78.5t45 57t69 21.5zM157 331q-29 0 -42 -28t-13 -57q0 -48 38 -48q28 0 42 27
t14 58q0 48 -39 48z" />
    <glyph glyph-name="zero.numr" horiz-adv-x="308" 
d="M175 290q-51 0 -78 33.5t-27 95.5q0 77 21 138.5t57.5 98t80.5 36.5q50 0 77 -33.5t27 -95.5q0 -76 -21 -138t-56.5 -98.5t-80.5 -36.5zM178 356q14 0 28 19t25.5 50t18 69t6.5 75q0 57 -29 57q-15 0 -29 -19t-25 -50t-18 -68.5t-7 -75.5q0 -57 30 -57z" />
    <glyph glyph-name="one.numr" horiz-adv-x="308" 
d="M149 298l58 297l-70 -43l-22 60l120 72h66l-75 -386h-77z" />
    <glyph glyph-name="two.numr" horiz-adv-x="308" 
d="M50 298l12 58q34 26 68.5 58t56.5 57q29 31 43.5 55t14.5 52q0 46 -41 46q-39 0 -82 -34l-9 62q25 19 54 29.5t59 10.5q47 0 74 -26.5t27 -72.5q0 -44 -22.5 -83.5t-60.5 -74.5q-13 -12 -34.5 -31t-46.5 -39h131l-20 -67h-224z" />
    <glyph glyph-name="three.numr" horiz-adv-x="308" 
d="M152 290q-64 0 -105 31l24 60q35 -26 79 -26q32 0 48.5 18t16.5 49q0 22 -13 31.5t-35 9.5h-42l13 65h42q29 0 46 16.5t17 43.5q0 39 -46 39q-36 0 -79 -26l-4 61q23 15 50 22.5t52 7.5q48 0 76 -23t28 -64q0 -40 -22.5 -69.5t-63.5 -40.5q58 -17 58 -79q0 -57 -39 -91.5
t-101 -34.5z" />
    <glyph glyph-name="four.numr" horiz-adv-x="308" 
d="M187 298l14 75h-157l13 64l199 247h77l-50 -246h42l-20 -65h-36l-15 -75h-67zM127 438h87l27 143z" />
    <glyph glyph-name="five.numr" horiz-adv-x="308" 
d="M152 290q-32 0 -56 6.5t-47 22.5l26 62q17 -13 38.5 -19.5t42.5 -6.5q30 0 48 21.5t18 51.5q0 47 -49 47q-13 0 -25.5 -2.5t-29.5 -7.5l-27 11l56 208h180l-5 -68h-127l-24 -89q21 8 43 8q39 0 62.5 -25t23.5 -70q0 -67 -41 -108.5t-107 -41.5z" />
    <glyph glyph-name="six.numr" horiz-adv-x="308" 
d="M186 290q-54 0 -82 33t-28 95q0 73 22.5 135t65.5 100.5t105 38.5q26 0 44 -5t35 -15l-25 -62q-25 16 -56 16q-80 0 -110 -127q28 42 76 42q41 0 62 -26t21 -68t-16 -78t-45 -57.5t-69 -21.5zM189 353q29 0 42 28t13 57q0 48 -38 48q-28 0 -42 -27t-14 -58q0 -48 39 -48z
" />
    <glyph glyph-name="seven.numr" horiz-adv-x="308" 
d="M80 298l181 316h-156l22 70h227l-13 -66l-172 -320h-89z" />
    <glyph glyph-name="eight.numr" horiz-adv-x="308" 
d="M167 290q-52 0 -81 24.5t-29 70.5q0 38 22.5 69t59.5 41q-39 19 -39 73t35.5 89t95.5 35q45 0 72.5 -25.5t27.5 -70.5q0 -36 -19 -63t-52 -39q47 -19 47 -77q0 -55 -39 -91t-101 -36zM206 521q22 0 36.5 18.5t14.5 47.5q0 23 -9.5 34t-25.5 11q-22 0 -36.5 -18.5
t-14.5 -48.5q0 -44 35 -44zM176 351q23 0 38 19.5t15 49.5q0 47 -41 47q-24 0 -38.5 -19.5t-14.5 -48.5q0 -48 41 -48z" />
    <glyph glyph-name="nine.numr" horiz-adv-x="308" 
d="M218 692q54 0 82 -33t28 -95q0 -72 -22.5 -134.5t-65.5 -101t-105 -38.5q-25 0 -43.5 5t-35.5 15l25 62q25 -16 56 -16q80 0 110 127q-28 -42 -76 -42q-40 0 -61.5 26t-21.5 68q0 43 16 78.5t45 57t69 21.5zM215 629q-29 0 -42 -28t-13 -57q0 -48 38 -48q28 0 42 27
t14 58q0 48 -39 48z" />
    <glyph glyph-name="two_fraction_seven" horiz-adv-x="722" 
d="M131 0l387 684h88l-388 -684h-87zM436 0l181 316h-156l22 70h227l-13 -66l-172 -320h-89zM50 298l12 58q34 26 68.5 58t56.5 57q29 31 43.5 55t14.5 52q0 46 -41 46q-39 0 -82 -34l-9 62q25 19 54 29.5t59 10.5q47 0 74 -26.5t27 -72.5q0 -44 -22.5 -83.5t-60.5 -74.5
q-13 -12 -34.5 -31t-46.5 -39h131l-20 -67h-224z" />
    <glyph glyph-name="three_fraction_seven" horiz-adv-x="722" 
d="M131 0l387 684h88l-388 -684h-87zM436 0l181 316h-156l22 70h227l-13 -66l-172 -320h-89zM152 290q-64 0 -105 31l24 60q35 -26 79 -26q32 0 48.5 18t16.5 49q0 22 -13 31.5t-35 9.5h-42l13 65h42q29 0 46 16.5t17 43.5q0 39 -46 39q-36 0 -79 -26l-4 61q23 15 50 22.5
t52 7.5q48 0 76 -23t28 -64q0 -40 -22.5 -69.5t-63.5 -40.5q58 -17 58 -79q0 -57 -39 -91.5t-101 -34.5z" />
    <glyph glyph-name="four_fraction_seven" horiz-adv-x="722" 
d="M131 0l387 684h88l-388 -684h-87zM436 0l181 316h-156l22 70h227l-13 -66l-172 -320h-89zM188 298l14 75h-157l13 64l199 247h77l-50 -246h42l-20 -65h-36l-15 -75h-67zM128 438h87l27 143z" />
    <glyph glyph-name="five_fraction_seven" horiz-adv-x="722" 
d="M131 0l387 684h88l-388 -684h-87zM436 0l181 316h-156l22 70h227l-13 -66l-172 -320h-89zM152 290q-32 0 -56 6.5t-47 22.5l26 62q17 -13 38.5 -19.5t42.5 -6.5q30 0 48 21.5t18 51.5q0 47 -49 47q-13 0 -25.5 -2.5t-29.5 -7.5l-27 11l56 208h180l-5 -68h-127l-24 -89
q21 8 43 8q39 0 62.5 -25t23.5 -70q0 -67 -41 -108.5t-107 -41.5z" />
    <glyph glyph-name="six_fraction_seven" horiz-adv-x="722" 
d="M131 0l387 684h88l-388 -684h-87zM436 0l181 316h-156l22 70h227l-13 -66l-172 -320h-89zM186 290q-54 0 -82 33t-28 95q0 73 22.5 135t65.5 100.5t105 38.5q26 0 44 -5t35 -15l-25 -62q-25 16 -56 16q-80 0 -110 -127q28 42 76 42q41 0 62 -26t21 -68t-16 -78t-45 -57.5
t-69 -21.5zM189 353q29 0 42 28t13 57q0 48 -38 48q-28 0 -42 -27t-14 -58q0 -48 39 -48z" />
    <glyph glyph-name="two_fraction_nine" horiz-adv-x="722" 
d="M150 0l387 684h88l-388 -684h-87zM574 394q54 0 82 -33t28 -95q0 -72 -22.5 -134.5t-65.5 -101t-105 -38.5q-25 0 -43.5 5t-35.5 15l25 62q25 -16 56 -16q80 0 110 127q-28 -42 -76 -42q-40 0 -61.5 26t-21.5 68q0 43 16 78.5t45 57t69 21.5zM571 331q-29 0 -42 -28
t-13 -57q0 -48 38 -48q28 0 42 27t14 58q0 48 -39 48zM50 298l12 58q34 26 68.5 58t56.5 57q29 31 43.5 55t14.5 52q0 46 -41 46q-39 0 -82 -34l-9 62q25 19 54 29.5t59 10.5q47 0 74 -26.5t27 -72.5q0 -44 -22.5 -83.5t-60.5 -74.5q-13 -12 -34.5 -31t-46.5 -39h131
l-20 -67h-224z" />
    <glyph glyph-name="four_fraction_nine" horiz-adv-x="722" 
d="M150 0l387 684h88l-388 -684h-87zM574 394q54 0 82 -33t28 -95q0 -72 -22.5 -134.5t-65.5 -101t-105 -38.5q-25 0 -43.5 5t-35.5 15l25 62q25 -16 56 -16q80 0 110 127q-28 -42 -76 -42q-40 0 -61.5 26t-21.5 68q0 43 16 78.5t45 57t69 21.5zM571 331q-29 0 -42 -28
t-13 -57q0 -48 38 -48q28 0 42 27t14 58q0 48 -39 48zM188 298l14 75h-157l13 64l199 247h77l-50 -246h42l-20 -65h-36l-15 -75h-67zM128 438h87l27 143z" />
    <glyph glyph-name="five_fraction_nine" horiz-adv-x="722" 
d="M138 0l387 684h88l-388 -684h-87zM574 394q54 0 82 -33t28 -95q0 -72 -22.5 -134.5t-65.5 -101t-105 -38.5q-25 0 -43.5 5t-35.5 15l25 62q25 -16 56 -16q80 0 110 127q-28 -42 -76 -42q-40 0 -61.5 26t-21.5 68q0 43 16 78.5t45 57t69 21.5zM571 331q-29 0 -42 -28
t-13 -57q0 -48 38 -48q28 0 42 27t14 58q0 48 -39 48zM152 290q-32 0 -56 6.5t-47 22.5l26 62q17 -13 38.5 -19.5t42.5 -6.5q30 0 48 21.5t18 51.5q0 47 -49 47q-13 0 -25.5 -2.5t-29.5 -7.5l-27 11l56 208h180l-5 -68h-127l-24 -89q21 8 43 8q39 0 62.5 -25t23.5 -70
q0 -67 -41 -108.5t-107 -41.5z" />
    <glyph glyph-name="seven_fraction_nine" horiz-adv-x="722" 
d="M121 0l387 684h88l-388 -684h-87zM574 394q54 0 82 -33t28 -95q0 -72 -22.5 -134.5t-65.5 -101t-105 -38.5q-25 0 -43.5 5t-35.5 15l25 62q25 -16 56 -16q80 0 110 127q-28 -42 -76 -42q-40 0 -61.5 26t-21.5 68q0 43 16 78.5t45 57t69 21.5zM571 331q-29 0 -42 -28
t-13 -57q0 -48 38 -48q28 0 42 27t14 58q0 48 -39 48zM80 298l181 316h-156l22 70h227l-13 -66l-172 -320h-89z" />
    <glyph glyph-name="eight_fraction_nine" horiz-adv-x="722" 
d="M141 0l387 684h88l-388 -684h-87zM574 394q54 0 82 -33t28 -95q0 -72 -22.5 -134.5t-65.5 -101t-105 -38.5q-25 0 -43.5 5t-35.5 15l25 62q25 -16 56 -16q80 0 110 127q-28 -42 -76 -42q-40 0 -61.5 26t-21.5 68q0 43 16 78.5t45 57t69 21.5zM571 331q-29 0 -42 -28
t-13 -57q0 -48 38 -48q28 0 42 27t14 58q0 48 -39 48zM167 290q-52 0 -81 24.5t-29 70.5q0 38 22.5 69t59.5 41q-39 19 -39 73t35.5 89t95.5 35q45 0 72.5 -25.5t27.5 -70.5q0 -36 -19 -63t-52 -39q47 -19 47 -77q0 -55 -39 -91t-101 -36zM206 521q22 0 36.5 18.5t14.5 47.5
q0 23 -9.5 34t-25.5 11q-22 0 -36.5 -18.5t-14.5 -48.5q0 -44 35 -44zM176 351q23 0 38 19.5t15 49.5q0 47 -41 47q-24 0 -38.5 -19.5t-14.5 -48.5q0 -48 41 -48z" />
    <glyph glyph-name="shekel" horiz-adv-x="696" 
d="M166 0l102 527h107l-85 -433h133q47 0 73 30t42 112l85 448h107l-85 -438q-25 -130 -84.5 -188t-165.5 -58h-229zM3 0l133 684h221q82 0 126.5 -34t44.5 -121q0 -30 -2.5 -53.5t-7.5 -46.5l-53 -272h-107l54 278q5 24 7.5 45t2.5 38q0 43 -19.5 57.5t-57.5 14.5h-121
l-114 -590h-107z" />
    <glyph glyph-name="hyphen.case" horiz-adv-x="310" 
d="M40 301l21 101h245l-21 -101h-245z" />
    <glyph glyph-name="endash.case" horiz-adv-x="390" 
d="M8 301l20 101h390l-20 -101h-390z" />
    <glyph glyph-name="emdash.case" horiz-adv-x="780" 
d="M8 301l20 101h780l-20 -101h-780z" />
    <glyph glyph-name="parenleft.case" horiz-adv-x="293" 
d="M142 -131q-46 65 -72 155.5t-26 188.5q0 188 74 347t201 271l61 -56q-103 -106 -160 -252.5t-57 -324.5q0 -73 13 -144t39 -130z" />
    <glyph glyph-name="parenright.case" horiz-adv-x="293" 
d="M11 -131l-61 56q104 106 160.5 252.5t56.5 324.5q0 74 -13 144.5t-39 129.5l73 55q47 -64 72.5 -155t25.5 -189q0 -187 -73.5 -346t-201.5 -272z" />
    <glyph glyph-name="slash.case" horiz-adv-x="382" 
d="M-58 -98l407 896h127l-408 -896h-126z" />
    <glyph glyph-name="backslash.case" horiz-adv-x="382" 
d="M174 -98l-58 896h113l58 -896h-113z" />
    <glyph glyph-name="bracketleft.case" horiz-adv-x="291" 
d="M-9 -98l174 896h200l-11 -92h-99l-133 -712h102l-24 -92h-209z" />
    <glyph glyph-name="bracketright.case" horiz-adv-x="291" 
d="M-39 -98l11 92h99l133 712h-102l24 92h209l-174 -896h-200z" />
    <glyph glyph-name="braceleft.case" horiz-adv-x="285" 
d="M129 -98q-49 0 -75.5 32t-26.5 82q0 46 12 86t24 76.5t12 72.5q0 28 -10.5 41t-36.5 13l18 90q36 0 54.5 21.5t25.5 68.5q3 19 4.5 47t4 58.5t6.5 55.5q13 74 56 113t106 39h53l-3 -92h-30q-33 0 -51.5 -21t-27.5 -74q-5 -31 -6 -54t-1.5 -45t-6.5 -53q-8 -41 -34 -69.5
t-65 -39.5q28 -8 43 -29t15 -51q0 -33 -11.5 -71t-23.5 -77t-12 -74q0 -30 14 -42t36 -12h26l-26 -92h-63z" />
    <glyph glyph-name="braceright.case" horiz-adv-x="285" 
d="M-36 -98l3 92h30q33 0 51.5 21.5t27.5 73.5q6 32 6.5 54.5l1 45t6.5 52.5q8 41 34 69.5t65 39.5q-28 8 -43 29t-15 51q0 33 12 71t23.5 77t11.5 74q0 30 -13.5 42t-36.5 12h-26l26 92h63q50 0 76 -32t26 -82q0 -46 -12 -86t-24 -76.5t-12 -72.5q0 -28 11 -41t36 -13
l-18 -90q-36 0 -54 -21.5t-26 -68.5q-3 -19 -4.5 -47t-3.5 -58t-7 -56q-13 -74 -56 -113t-106 -39h-53z" />
    <glyph glyph-name="bullet.case" horiz-adv-x="315" 
d="M176 223q-55 0 -89.5 36t-34.5 91t34.5 91t89.5 36q54 0 88.5 -36t34.5 -91t-34.5 -91t-88.5 -36z" />
    <glyph glyph-name="guilsinglleft.case" horiz-adv-x="289" 
d="M114 140l-65 210l146 210h118l-148 -217l59 -203h-110z" />
    <glyph glyph-name="guilsinglright.case" horiz-adv-x="289" 
d="M12 140l148 217l-59 203h110l65 -210l-146 -210h-118z" />
    <glyph glyph-name="guillemotleft.case" horiz-adv-x="501" 
d="M114 140l-65 210l146 210h118l-148 -217l59 -203h-110zM326 140l-65 210l146 210h118l-148 -217l59 -203h-110z" />
    <glyph glyph-name="guillemotright.case" horiz-adv-x="501" 
d="M12 140l148 217l-59 203h110l65 -210l-146 -210h-118zM224 140l148 217l-59 203h110l65 -210l-146 -210h-118z" />
    </font>
</defs>
</svg>
