<?xml version="1.0" standalone="no"?>
<!DOCTYPE svg PUBLIC "-//W3C//DTD SVG 1.1//EN" "http://www.w3.org/Graphics/SVG/1.1/DTD/svg11.dtd" >
<svg xmlns="http://www.w3.org/2000/svg" xmlns:xlink="http://www.w3.org/1999/xlink" version="1.1">
<metadata>
Created by FontForge 20170731 at Thu Nov  7 21:04:28 2019
 By Aleksey,,,
Copyright 2019 FedEx Corporation. This font may not be altered in any way without prior permission of the FedEx Corporation.
</metadata>
<defs>
<font id="FedExSans-Medium" horiz-adv-x="0" >
  <font-face 
    font-family="FedEx Sans Medium"
    font-weight="500"
    font-stretch="normal"
    units-per-em="1000"
    panose-1="2 11 7 3 2 2 3 2 2 4"
    ascent="740"
    descent="-260"
    x-height="516"
    cap-height="700"
    bbox="-215 -552 1370 1125"
    underline-thickness="76"
    underline-position="-222"
    unicode-range="U+000D-FFFD"
  />
<missing-glyph horiz-adv-x="500" 
d="M0 0v700h500v-700h-500zM87 654l162 -260l162 260h-324zM278 350l168 -268v536zM221 350l-167 266v-533zM249 305l-162 -259h324z" />
    <glyph glyph-name="uniFB00" unicode="ff" horiz-adv-x="775" 
d="M11 416l12 100h96v24q0 102 50 157.5t141 55.5q60 0 115 -25l-16 -102q-24 12 -42 16.5t-40 4.5q-84 0 -84 -98v-33h238v20q0 104 52 160.5t146 56.5q65 0 122 -26l-16 -102q-26 13 -45.5 17.5t-43.5 4.5q-91 0 -91 -102v-29h161v-100h-161v-416h-124v416h-238v-416h-124
v416h-108z" />
    <glyph glyph-name="uniFB01" unicode="fi" horiz-adv-x="675" 
d="M243 0h-124v416h-108l12 100h96v24q0 102 50 157.5t141 55.5q60 0 115 -25l-16 -102q-24 12 -42 16.5t-40 4.5q-84 0 -84 -98v-33h362v-516h-124v416h-238v-416zM543 601q-34 0 -56 21t-22 54t22 54t56 21q35 0 56.5 -21t21.5 -54t-21.5 -54t-56.5 -21z" />
    <glyph glyph-name="uniFB02" unicode="fl" horiz-adv-x="675" 
d="M243 0h-124v416h-108l12 100h96v24q0 102 50 157.5t141 55.5q60 0 115 -25l-16 -102q-24 12 -42 16.5t-40 4.5q-84 0 -84 -98v-33h147v-100h-147v-416zM605 0h-124v740h124v-740z" />
    <glyph glyph-name="uniFB03" unicode="ffi" horiz-adv-x="1037" 
d="M243 0h-124v416h-108l12 100h96v24q0 102 50 157.5t141 55.5q60 0 115 -25l-16 -102q-24 12 -42 16.5t-40 4.5q-84 0 -84 -98v-33h238v24q0 102 50 157.5t141 55.5q60 0 115 -25l-16 -102q-24 12 -42 16.5t-40 4.5q-84 0 -84 -98v-33h362v-516h-124v416h-238v-416h-124
v416h-238v-416zM905 601q-34 0 -56 21t-22 54t22 54t56 21q35 0 56.5 -21t21.5 -54t-21.5 -54t-56.5 -21z" />
    <glyph glyph-name="uniFB04" unicode="ffl" horiz-adv-x="1037" 
d="M243 0h-124v416h-108l12 100h96v24q0 102 50 157.5t141 55.5q60 0 115 -25l-16 -102q-24 12 -42 16.5t-40 4.5q-84 0 -84 -98v-33h238v24q0 102 50 157.5t141 55.5q60 0 115 -25l-16 -102q-24 12 -42 16.5t-40 4.5q-84 0 -84 -98v-33h147v-100h-147v-416h-124v416h-238
v-416zM967 0h-124v740h124v-740z" />
    <glyph glyph-name="f_b" unicode="fb" horiz-adv-x="1053" 
d="M243 549v-33h147v-100h-147v-416h-124v416h-108l12 100h96v24q0 102 50 157.5t141 55.5q60 0 115 -25l-16 -102q-24 12 -42 16.5t-40 4.5q-84 0 -84 -98zM1008 258q0 -77 -31.5 -138.5t-86 -97t-124.5 -35.5q-57 0 -101 24t-69 68l-4 -79h-111v740h124v-299q27 42 71 65
t100 23q67 0 119.5 -35.5t82.5 -96.5t30 -139zM597 258q0 -74 39.5 -119.5t103.5 -45.5q63 0 102 45.5t39 119.5t-38.5 119.5t-101.5 45.5q-64 0 -104 -45.5t-40 -119.5z" />
    <glyph glyph-name="f_h" unicode="fh" horiz-adv-x="1016" 
d="M243 549v-33h147v-100h-147v-416h-124v416h-108l12 100h96v24q0 102 50 157.5t141 55.5q60 0 115 -25l-16 -102q-24 12 -42 16.5t-40 4.5q-84 0 -84 -98zM605 282v-282h-124v740h124v-293q23 39 63.5 60.5t91.5 21.5q90 0 140 -56t50 -161v-312h-124v291q0 129 -100 129
q-56 0 -88.5 -36.5t-32.5 -101.5z" />
    <glyph glyph-name="f_j" unicode="fj" horiz-adv-x="675" 
d="M243 0h-124v416h-108l12 100h96v24q0 102 50 157.5t141 55.5q60 0 115 -25l-16 -102q-24 12 -42 16.5t-40 4.5q-84 0 -84 -98v-33h362v-557q0 -91 -45.5 -139.5t-133.5 -48.5q-31 0 -60 5.5t-54 18.5l20 99q20 -10 36.5 -14t38.5 -4q74 0 74 96v444h-238v-416zM543 601
q-34 0 -56 21t-22 54t22 54t56 21q35 0 56.5 -21t21.5 -54t-21.5 -54t-56.5 -21z" />
    <glyph glyph-name="f_k" unicode="fk" horiz-adv-x="996" 
d="M243 0h-124v416h-108l12 100h96v24q0 102 50 157.5t141 55.5q60 0 115 -25l-16 -102q-24 12 -42 16.5t-40 4.5q-84 0 -84 -98v-33h147v-100h-147v-416zM605 0h-124v740h124v-443l211 219h149l-198 -198l220 -318h-147l-157 234l-78 -78v-156z" />
    <glyph glyph-name="f_t" unicode="ft" horiz-adv-x="791" 
d="M119 0v416h-108l12 100h96v24q0 102 50 157.5t141 55.5q60 0 115 -25l-16 -102q-24 12 -42 16.5t-40 4.5q-84 0 -84 -98v-33h234v167h124v-167h151v-100h-151v-223q0 -97 75 -97q21 0 36.5 4.5t37.5 17.5l16 -101q-51 -27 -110 -27q-179 0 -179 189v237h-234v-416h-124z
" />
    <glyph glyph-name="f_f_b" unicode="ffb" horiz-adv-x="1415" 
d="M243 0h-124v416h-108l12 100h96v24q0 102 50 157.5t141 55.5q60 0 115 -25l-16 -102q-24 12 -42 16.5t-40 4.5q-84 0 -84 -98v-33h238v24q0 102 50 157.5t141 55.5q60 0 115 -25l-16 -102q-24 12 -42 16.5t-40 4.5q-84 0 -84 -98v-33h147v-100h-147v-416h-124v416h-238
v-416zM1128 -13q-57 0 -101 24t-69 68l-4 -79h-111v740h124v-299q27 42 71 65t100 23q67 0 119.5 -35.5t82.5 -96.5t30 -139q0 -77 -31.5 -138.5t-86 -97t-124.5 -35.5zM1102 93q63 0 102 45.5t39 119.5t-38.5 119.5t-101.5 45.5q-64 0 -104 -45.5t-40 -119.5t39.5 -119.5
t103.5 -45.5z" />
    <glyph glyph-name="f_f_h" unicode="ffh" horiz-adv-x="1378" 
d="M243 0h-124v416h-108l12 100h96v24q0 102 50 157.5t141 55.5q60 0 115 -25l-16 -102q-24 12 -42 16.5t-40 4.5q-84 0 -84 -98v-33h238v24q0 102 50 157.5t141 55.5q60 0 115 -25l-16 -102q-24 12 -42 16.5t-40 4.5q-84 0 -84 -98v-33h147v-100h-147v-416h-124v416h-238
v-416zM967 0h-124v740h124v-293q23 39 63.5 60.5t91.5 21.5q90 0 140 -56t50 -161v-312h-124v291q0 129 -100 129q-56 0 -88.5 -36.5t-32.5 -101.5v-282z" />
    <glyph glyph-name="f_f_j" unicode="ffj" horiz-adv-x="1037" 
d="M243 0h-124v416h-108l12 100h96v24q0 102 50 157.5t141 55.5q60 0 115 -25l-16 -102q-24 12 -42 16.5t-40 4.5q-84 0 -84 -98v-33h238v24q0 102 50 157.5t141 55.5q60 0 115 -25l-16 -102q-24 12 -42 16.5t-40 4.5q-84 0 -84 -98v-33h362v-557q0 -91 -45.5 -139.5
t-133.5 -48.5q-31 0 -60 5.5t-54 18.5l20 99q20 -10 36.5 -14t38.5 -4q74 0 74 96v444h-238v-416h-124v416h-238v-416zM905 601q-34 0 -56 21t-22 54t22 54t56 21q35 0 56.5 -21t21.5 -54t-21.5 -54t-56.5 -21z" />
    <glyph glyph-name="f_f_k" unicode="ffk" horiz-adv-x="1358" 
d="M243 0h-124v416h-108l12 100h96v24q0 102 50 157.5t141 55.5q60 0 115 -25l-16 -102q-24 12 -42 16.5t-40 4.5q-84 0 -84 -98v-33h238v24q0 102 50 157.5t141 55.5q60 0 115 -25l-16 -102q-24 12 -42 16.5t-40 4.5q-84 0 -84 -98v-33h147v-100h-147v-416h-124v416h-238
v-416zM967 0h-124v740h124v-443l211 219h149l-198 -198l220 -318h-147l-157 234l-78 -78v-156z" />
    <glyph glyph-name="f_f_t" unicode="fft" horiz-adv-x="1153" 
d="M119 0v416h-108l12 100h96v24q0 102 50 157.5t141 55.5q60 0 115 -25l-16 -102q-24 12 -42 16.5t-40 4.5q-84 0 -84 -98v-33h238v24q0 102 50 157.5t141 55.5q60 0 115 -25l-16 -102q-24 12 -42 16.5t-40 4.5q-84 0 -84 -98v-33h234v167h124v-167h151v-100h-151v-223
q0 -97 75 -97q21 0 36.5 4.5t37.5 17.5l16 -101q-51 -27 -110 -27q-179 0 -179 189v237h-234v-416h-124v416h-238v-416h-124z" />
    <glyph glyph-name=".notdef" horiz-adv-x="500" 
d="M0 0v700h500v-700h-500zM87 654l162 -260l162 260h-324zM278 350l168 -268v536zM221 350l-167 266v-533zM249 305l-162 -259h324z" />
    <glyph glyph-name="uni0000" 
 />
    <glyph glyph-name="uni0000" 
 />
    <glyph glyph-name="uni000D" unicode="&#xd;" horiz-adv-x="218" 
 />
    <glyph glyph-name="space" unicode=" " horiz-adv-x="218" 
 />
    <glyph glyph-name="exclam" unicode="!" horiz-adv-x="270" 
d="M188 218h-106l-12 482h130zM135 -9q-34 0 -56.5 22t-22.5 55t22.5 54.5t56.5 21.5q35 0 57 -21.5t22 -54.5t-22 -55t-57 -22z" />
    <glyph glyph-name="quotedbl" unicode="&#x22;" horiz-adv-x="392" 
d="M155 431h-103l-9 269h121zM340 431h-103l-9 269h121z" />
    <glyph glyph-name="numbersign" unicode="#" horiz-adv-x="612" 
d="M185 0h-94l27 172h-85v86h99l27 172h-96v86h109l27 168h94l-27 -168h134l27 168h94l-27 -168h85v-86h-98l-27 -172h96v-86h-110l-27 -172h-94l27 172h-134zM226 258h134l27 172h-134z" />
    <glyph glyph-name="dollar" unicode="$" horiz-adv-x="612" 
d="M344 -110h-79v97q-134 6 -227 67l25 104q55 -35 101.5 -51t100.5 -18v207q-106 24 -156 72.5t-50 128.5q0 82 55 134.5t151 63.5v99h79v-97q55 -3 104 -18.5t89 -44.5l-24 -100q-46 30 -85.5 44t-83.5 16v-196q108 -25 158.5 -75t50.5 -132q0 -83 -56 -136.5t-153 -65.5
v-99zM180 507q0 -37 19 -58.5t66 -36.5v178q-85 -16 -85 -83zM429 182q0 38 -19 60.5t-66 38.5v-186q41 9 63 31t22 56z" />
    <glyph glyph-name="percent" unicode="%" horiz-adv-x="912" 
d="M336 0h-102l342 684h102zM718 394q75 0 118 -53t43 -148q0 -94 -43 -147.5t-118 -53.5t-118 53.5t-43 147.5q0 95 43 148t118 53zM718 67q70 0 70 126t-70 126t-70 -126t70 -126zM194 692q75 0 118 -53t43 -148q0 -94 -43 -147.5t-118 -53.5t-118 53.5t-43 147.5
q0 95 43 148t118 53zM194 365q70 0 70 126t-70 126t-70 -126t70 -126z" />
    <glyph glyph-name="ampersand" unicode="&#x26;" horiz-adv-x="749" 
d="M303 -14q-76 0 -133.5 24t-89 68.5t-31.5 104.5q0 59 36 106t112 86q-75 87 -75 164q0 52 25 91.5t69.5 61.5t103.5 22q86 0 137 -45.5t51 -118.5q0 -57 -37 -103.5t-116 -88.5l162 -162q35 65 37 163l111 -14q-3 -68 -21.5 -124.5t-50.5 -100.5l120 -120h-156l-43 45
q-88 -59 -211 -59zM231 541q0 -32 13.5 -58.5t48.5 -62.5q56 26 81 54t25 67q0 36 -21.5 58t-59.5 22q-40 0 -63.5 -22t-23.5 -58zM173 194q0 -50 38 -79.5t104 -29.5q75 0 129 33l-186 193q-46 -24 -65.5 -51t-19.5 -66z" />
    <glyph glyph-name="quotesingle" unicode="'" horiz-adv-x="207" 
d="M155 431h-103l-9 269h121z" />
    <glyph glyph-name="parenleft" unicode="(" horiz-adv-x="361" 
d="M180 292q0 -127 41 -233t121 -184l-77 -64q-106 89 -161 211.5t-55 269.5t55 269.5t161 211.5l77 -64q-80 -78 -121 -184t-41 -233z" />
    <glyph glyph-name="parenright" unicode=")" horiz-adv-x="361" 
d="M181 292q0 127 -41 233t-121 184l77 64q106 -89 161 -211.5t55 -269.5t-55 -269.5t-161 -211.5l-77 64q80 78 121 184t41 233z" />
    <glyph glyph-name="asterisk" unicode="*" horiz-adv-x="431" 
d="M364 393l-71 -49l-78 116l-78 -116l-70 49l95 110l-130 35l30 81l119 -52l-10 133h89l-10 -133l119 52l30 -81l-129 -35z" />
    <glyph glyph-name="plus" unicode="+" horiz-adv-x="612" 
d="M360 99h-108v192h-184v101h184v192h108v-192h184v-101h-184v-192z" />
    <glyph glyph-name="comma" unicode="," horiz-adv-x="262" 
d="M74 -169l-37 51q37 15 63 44.5t35 65.5q-5 -1 -10 -1q-32 0 -53.5 20.5t-21.5 54.5q0 35 22.5 56.5t56.5 21.5q39 0 61 -27t22 -74q0 -70 -37.5 -128.5t-100.5 -83.5z" />
    <glyph glyph-name="hyphen" unicode="-" horiz-adv-x="400" 
d="M43 238v108h314v-108h-314z" />
    <glyph glyph-name="hyphen" unicode="&#x2011;" horiz-adv-x="400" 
d="M43 238v108h314v-108h-314z" />
    <glyph glyph-name="hyphen" unicode="&#x2010;" horiz-adv-x="400" 
d="M43 238v108h314v-108h-314z" />
    <glyph glyph-name="hyphen" unicode="&#xad;" horiz-adv-x="400" 
d="M43 238v108h314v-108h-314z" />
    <glyph glyph-name="period" unicode="." horiz-adv-x="262" 
d="M131 -9q-34 0 -56.5 22t-22.5 55t22.5 54.5t56.5 21.5q35 0 57 -21.5t22 -54.5t-22 -55t-57 -22z" />
    <glyph glyph-name="slash" unicode="/" horiz-adv-x="483" 
d="M468 740l-321 -896h-132l321 896h132z" />
    <glyph glyph-name="zero" unicode="0" horiz-adv-x="612" 
d="M306 -14q-83 0 -143.5 43t-92.5 122.5t-32 190.5t32 191t92.5 122.5t143.5 42.5q84 0 144 -42.5t92 -122.5t32 -191t-32 -190.5t-92 -122.5t-144 -43zM306 94q67 0 102.5 64t35.5 184t-35.5 184t-102.5 64t-102.5 -64t-35.5 -184t35.5 -184t102.5 -64z" />
    <glyph glyph-name="one" unicode="1" horiz-adv-x="612" 
d="M407 684v-684h-126v547l-132 -84l-57 94l203 127h112z" />
    <glyph glyph-name="two" unicode="2" horiz-adv-x="612" 
d="M551 108l-13 -108h-481v92q63 51 113.5 93t86.5 77q56 53 86 89.5t42 67t12 65.5q0 51 -32.5 78.5t-92.5 27.5q-49 0 -96 -16.5t-84 -45.5l-36 98q44 32 107.5 52t121.5 20q113 0 177.5 -55t64.5 -150q0 -49 -15 -89.5t-52.5 -85.5t-105.5 -108q-44 -41 -120 -102h317z
" />
    <glyph glyph-name="three" unicode="3" horiz-adv-x="612" 
d="M94 546l-28 95q41 25 101.5 41t116.5 16q113 0 178 -48.5t65 -131.5q0 -54 -30.5 -95.5t-86.5 -63.5q63 -20 97.5 -64t34.5 -106q0 -94 -74.5 -148.5t-205.5 -54.5q-60 0 -117 14.5t-94 39.5l27 98q36 -22 83.5 -35t97.5 -13q74 0 114.5 28t40.5 79q0 105 -155 105h-95
v101h89q72 0 110.5 27t38.5 76q0 42 -35 65t-98 23q-47 0 -93.5 -12.5t-81.5 -35.5z" />
    <glyph glyph-name="four" unicode="4" horiz-adv-x="612" 
d="M493 0h-119v152h-344v96l336 436h127v-431h96l-12 -101h-84v-152zM374 253v284l-219 -284h219z" />
    <glyph glyph-name="five" unicode="5" horiz-adv-x="612" 
d="M127 305l-38 22l31 357h389l13 -108h-299l-15 -170q48 14 100 14q114 0 178.5 -56t64.5 -155q0 -105 -75.5 -164t-208.5 -59q-132 0 -216 52l27 100q37 -22 84.5 -35t97.5 -13q79 0 120.5 30t41.5 87q0 115 -157 115q-33 0 -67.5 -4.5t-70.5 -12.5z" />
    <glyph glyph-name="six" unicode="6" horiz-adv-x="612" 
d="M320 -14q-130 0 -200 85.5t-70 243.5q0 117 40.5 203t114.5 133t174 47q92 0 169 -35l-31 -100q-35 15 -64.5 22t-67.5 7q-98 0 -153 -63t-60 -181q27 43 74 68t107 25q63 0 112 -28.5t76.5 -78t27.5 -113.5q0 -69 -32 -122t-88 -83t-129 -30zM318 88q58 0 92 35t34 93
q0 56 -34 92t-90 36q-57 0 -92.5 -36t-35.5 -92t35.5 -92t90.5 -36z" />
    <glyph glyph-name="seven" unicode="7" horiz-adv-x="612" 
d="M277 0h-135l281 576h-373l13 108h492v-101z" />
    <glyph glyph-name="eight" unicode="8" horiz-adv-x="612" 
d="M306 -14q-79 0 -137.5 25.5t-90.5 70.5t-32 102q0 61 35 106t95 63q-52 21 -81 61.5t-29 94.5q0 57 31.5 99.5t85.5 66t123 23.5t123.5 -23.5t85.5 -66t31 -99.5q0 -54 -29 -94.5t-81 -61.5q60 -18 95 -63t35 -106q0 -57 -32 -101.5t-90.5 -70.5t-137.5 -26zM306 400
q55 0 87.5 27t32.5 72t-33.5 72t-86.5 27t-86.5 -27t-33.5 -72t32.5 -72t87.5 -27zM306 87q62 0 98 29t36 78t-36 79t-98 30q-61 0 -97.5 -30t-36.5 -79t36.5 -78t97.5 -29z" />
    <glyph glyph-name="nine" unicode="9" horiz-adv-x="612" 
d="M235 -14q-91 0 -167 35l30 100q35 -15 64.5 -22t67.5 -7q96 0 150 62.5t59 179.5q-28 -43 -74.5 -67t-105.5 -24q-63 0 -111.5 28.5t-76.5 78t-28 112.5q0 70 32 123t88 83t129 30q130 0 200 -85.5t70 -243.5q0 -117 -40 -203t-113 -133t-174 -47zM292 340
q57 0 92.5 35.5t35.5 91.5q0 57 -35 93t-90 36q-58 0 -92.5 -35t-34.5 -94q0 -57 34.5 -92t89.5 -35z" />
    <glyph glyph-name="colon" unicode=":" horiz-adv-x="262" 
d="M131 -9q-34 0 -56.5 22t-22.5 55t22.5 54.5t56.5 21.5q35 0 57 -21.5t22 -54.5t-22 -55t-57 -22zM131 372q-34 0 -56.5 22t-22.5 55t22.5 54.5t56.5 21.5q35 0 57 -21.5t22 -54.5t-22 -55t-57 -22z" />
    <glyph glyph-name="semicolon" unicode=";" horiz-adv-x="262" 
d="M131 372q-34 0 -56.5 22t-22.5 55t22.5 54.5t56.5 21.5q35 0 57 -21.5t22 -54.5t-22 -55t-57 -22zM74 -169l-37 51q37 15 63 44.5t35 65.5q-5 -1 -10 -1q-32 0 -53.5 20.5t-21.5 54.5q0 35 22.5 56.5t56.5 21.5q39 0 61 -27t22 -74q0 -70 -37.5 -128.5t-100.5 -83.5z" />
    <glyph glyph-name="less" unicode="&#x3c;" horiz-adv-x="612" 
d="M544 205v-118l-476 206v97l476 206v-116l-341 -137z" />
    <glyph glyph-name="equal" unicode="=" horiz-adv-x="612" 
d="M544 167h-476v101h476v-101zM544 415h-476v101h476v-101z" />
    <glyph glyph-name="greater" unicode="&#x3e;" horiz-adv-x="612" 
d="M68 205l341 138l-341 137v116l476 -206v-97l-476 -206v118z" />
    <glyph glyph-name="question" unicode="?" horiz-adv-x="517" 
d="M165 218v19q0 49 20 85.5t68 70.5q51 36 71 63t20 63q0 44 -31.5 68t-90.5 24q-43 0 -84.5 -12t-73.5 -35l-29 97q37 25 93 40t108 15q109 0 172.5 -50t63.5 -136q0 -58 -27.5 -101.5t-92.5 -87.5q-46 -31 -62.5 -53t-16.5 -51v-19h-108zM218 -9q-34 0 -56.5 22t-22.5 55
t22.5 54.5t56.5 21.5q35 0 57 -21.5t22 -54.5t-22 -55t-57 -22z" />
    <glyph glyph-name="at" unicode="@" horiz-adv-x="1025" 
d="M493 -212q-135 0 -234.5 53t-154.5 149t-55 225q0 103 38 189.5t106.5 150.5t160 99.5t198.5 35.5q126 0 221.5 -45.5t149 -128.5t53.5 -195q0 -88 -31 -156.5t-85.5 -108t-124.5 -39.5q-105 0 -122 89q-23 -42 -64 -65.5t-95 -23.5q-77 0 -123 53.5t-46 144.5
q0 71 29 126.5t78.5 87.5t111.5 32q49 0 85 -23t51 -62l16 72h91l-43 -250q-2 -13 -3 -24t-1 -21q0 -54 46 -54q40 0 71 28t49 77t18 111q0 95 -42 160t-117 98t-175 33q-91 0 -165.5 -29t-128.5 -81.5t-83.5 -123.5t-29.5 -155q0 -107 43 -184.5t124 -119t194 -41.5
q57 0 114 11t104 32l19 -81q-49 -22 -116 -34t-132 -12zM485 108q37 0 65.5 20.5t45.5 56t17 79.5q0 50 -25 78t-69 28q-38 0 -65.5 -20.5t-42.5 -55t-15 -76.5q0 -52 23.5 -81t65.5 -29z" />
    <glyph glyph-name="A" unicode="A" horiz-adv-x="724" 
d="M150 0h-137l282 700h134l282 -700h-142l-62 169h-294zM252 276h215l-107 291z" />
    <glyph glyph-name="B" unicode="B" horiz-adv-x="669" 
d="M626 201q0 -94 -68.5 -147.5t-189.5 -53.5h-287v700h265q113 0 178.5 -48t65.5 -133q0 -52 -32.5 -92t-87.5 -58q70 -12 113 -57t43 -111zM328 411q70 0 103 24.5t33 75.5q0 43 -34 65.5t-98 22.5h-126v-188h122zM355 101q67 0 105 27.5t38 78.5q0 53 -39.5 79.5
t-114.5 26.5h-138v-212h149z" />
    <glyph glyph-name="C" unicode="C" horiz-adv-x="695" 
d="M184 352q0 -119 66 -187t182 -68q94 0 196 53l24 -109q-47 -27 -107.5 -42t-122.5 -15q-114 0 -197.5 44.5t-129.5 126t-46 191.5q0 108 47 191.5t131.5 131t198.5 47.5q56 0 114 -14t104 -38l-25 -112q-91 51 -188 51q-75 0 -130.5 -31t-86 -87t-30.5 -133z" />
    <glyph glyph-name="D" unicode="D" horiz-adv-x="764" 
d="M342 0h-261v700h261q115 0 198.5 -42.5t129 -121t45.5 -186.5t-45.5 -186.5t-129 -121t-198.5 -42.5zM330 111q121 0 185.5 62t64.5 177q0 116 -64.5 177.5t-185.5 61.5h-120v-478h120z" />
    <glyph glyph-name="E" unicode="E" horiz-adv-x="606" 
d="M81 0v700h463l13 -109h-348v-181h317v-109h-317v-192h368l-13 -109h-483z" />
    <glyph glyph-name="F" unicode="F" horiz-adv-x="576" 
d="M81 0v700h457l13 -109h-342v-193h307v-109h-307v-289h-128z" />
    <glyph glyph-name="G" unicode="G" horiz-adv-x="756" 
d="M672 662l-25 -112q-100 53 -201 53q-80 0 -139 -30.5t-91 -87t-32 -133.5q0 -120 70 -188t193 -68q65 0 124 14v173h-154v101h274v-351q-122 -49 -255 -49q-117 0 -204 44.5t-135 126t-48 191.5q0 108 48.5 191.5t137 131t206.5 47.5q60 0 122 -14.5t109 -39.5z" />
    <glyph glyph-name="H" unicode="H" horiz-adv-x="749" 
d="M668 0h-130v298h-327v-298h-130v700h130v-289h327v289h130v-700z" />
    <glyph glyph-name="I" unicode="I" horiz-adv-x="292" 
d="M211 700v-700h-130v700h130z" />
    <glyph glyph-name="J" unicode="J" horiz-adv-x="561" 
d="M32 34l23 106q31 -21 70 -33t76 -12q83 0 118.5 47t35.5 152v406h130v-415q0 -301 -277 -301q-52 0 -100 14t-76 36z" />
    <glyph glyph-name="K" unicode="K" horiz-adv-x="705" 
d="M81 0v700h130v-334l292 334h155l-262 -291l295 -409h-157l-223 314l-100 -112v-202h-130z" />
    <glyph glyph-name="L" unicode="L" horiz-adv-x="574" 
d="M81 0v700h130v-587h352l-14 -113h-468z" />
    <glyph glyph-name="M" unicode="M" horiz-adv-x="896" 
d="M392 118l-187 405v-523h-124v700h162l207 -460l208 460h157v-700h-124v521l-187 -403h-112z" />
    <glyph glyph-name="N" unicode="N" horiz-adv-x="747" 
d="M537 0l-332 512v-512h-124v700h133l328 -510v510h124v-700h-129z" />
    <glyph glyph-name="O" unicode="O" horiz-adv-x="822" 
d="M411 -16q-79 0 -145.5 27t-115 76t-75 116t-26.5 147t26.5 147t75 116t115 76t145.5 27t145.5 -27t115 -76t75 -116t26.5 -147t-26.5 -147t-75 -116t-115 -76t-145.5 -27zM411 97q68 0 119 32t79.5 89t28.5 132t-28.5 132t-79.5 89t-119 32t-119 -32t-79.5 -89
t-28.5 -132t28.5 -132t79.5 -89t119 -32z" />
    <glyph glyph-name="P" unicode="P" horiz-adv-x="627" 
d="M319 250h-111v-250h-127v700h238q82 0 141.5 -27.5t92.5 -78t33 -119.5t-33 -119.5t-92.5 -78t-141.5 -27.5zM307 353q71 0 109.5 32t38.5 90q0 59 -38.5 90.5t-109.5 31.5h-99v-244h99z" />
    <glyph glyph-name="Q" unicode="Q" horiz-adv-x="822" 
d="M411 -16q-79 0 -145.5 27t-115 76t-75 116t-26.5 147t26.5 147t75 116t115 76t145.5 27t145.5 -27t115 -76t75 -116t26.5 -147q0 -74 -24.5 -138t-67.5 -112l102 -103l-70 -71l-110 110q-41 -25 -89.5 -38.5t-102.5 -13.5zM411 97q60 0 108 24l-118 118l70 71l123 -123
q44 65 44 163q0 75 -28.5 132t-79.5 89t-119 32t-119 -32t-79.5 -89t-28.5 -132t28.5 -132t79.5 -89t119 -32z" />
    <glyph glyph-name="R" unicode="R" horiz-adv-x="666" 
d="M208 263v-263h-127v700h244q83 0 143 -27t92.5 -76t32.5 -116t-35 -116.5t-99 -73.5l176 -291h-144l-153 263h-13h-117zM314 366q72 0 110 30t38 85q0 56 -38 86t-110 30h-106v-231h106z" />
    <glyph glyph-name="S" unicode="S" horiz-adv-x="607" 
d="M34 54l26 108q62 -38 113 -54.5t113 -16.5q69 0 107.5 24.5t38.5 69.5q0 32 -13.5 52.5t-46.5 35.5t-92 27q-115 25 -169.5 75.5t-54.5 134.5q0 95 71 150.5t192 55.5q65 0 123 -16.5t104 -49.5l-25 -105q-55 35 -99 49.5t-100 14.5q-67 0 -103.5 -23.5t-36.5 -66.5
q0 -28 13 -48t46 -34.5t93 -27.5q118 -25 173 -77t55 -138q0 -64 -32.5 -111t-92.5 -73t-143 -26q-75 0 -141 18t-119 52z" />
    <glyph glyph-name="T" unicode="T" horiz-adv-x="630" 
d="M18 587v113h594v-113h-232v-587h-130v587h-232z" />
    <glyph glyph-name="U" unicode="U" horiz-adv-x="736" 
d="M76 281v419h130v-408q0 -195 162 -195t162 195v408h130v-419q0 -140 -78 -218.5t-218 -78.5q-137 0 -212.5 77.5t-75.5 219.5z" />
    <glyph glyph-name="V" unicode="V" horiz-adv-x="714" 
d="M564 700h137l-277 -700h-134l-277 700h142l204 -562z" />
    <glyph glyph-name="W" unicode="W" horiz-adv-x="1016" 
d="M354 0h-134l-203 700h139l139 -541l151 541h131l150 -539l139 539h133l-203 -700h-133l-155 549z" />
    <glyph glyph-name="X" unicode="X" horiz-adv-x="699" 
d="M163 0h-149l258 360l-238 340h153l165 -244l165 244h148l-240 -337l260 -363h-155l-183 268z" />
    <glyph glyph-name="Y" unicode="Y" horiz-adv-x="692" 
d="M411 282v-282h-130v282l-266 418h151l183 -315l183 315h145z" />
    <glyph glyph-name="Z" unicode="Z" horiz-adv-x="660" 
d="M617 109l-13 -109h-555v101l399 490h-382l13 109h525v-101l-397 -490h410z" />
    <glyph glyph-name="bracketleft" unicode="[" horiz-adv-x="358" 
d="M326 -156h-245v896h245l12 -99h-133v-698h133z" />
    <glyph glyph-name="backslash" unicode="\" horiz-adv-x="483" 
d="M15 740h132l321 -896h-132z" />
    <glyph glyph-name="bracketright" unicode="]" horiz-adv-x="358" 
d="M277 740v-896h-245l-12 99h133v698h-133l12 99h245z" />
    <glyph glyph-name="asciicircum" unicode="^" horiz-adv-x="612" 
d="M172 290h-123l207 394h100l207 -394h-127l-132 275z" />
    <glyph glyph-name="underscore" unicode="_" horiz-adv-x="500" 
d="M500 -158h-500v100h500v-100z" />
    <glyph glyph-name="grave" unicode="`" horiz-adv-x="500" 
d="M226 599l-151 155h138l124 -155h-111z" />
    <glyph glyph-name="a" unicode="a" horiz-adv-x="567" 
d="M394 0l-4 75q-22 -41 -66.5 -64.5t-104.5 -23.5q-81 0 -129 43t-48 115q0 90 70.5 132.5t224.5 44.5l45 1q-3 106 -121 106q-46 0 -84 -11t-82 -39l-23 96q44 28 95 41t106 13q110 0 169 -54.5t59 -156.5v-318h-107zM253 83q61 0 95 36t34 98v26l-36 -1q-100 -1 -143 -21
t-43 -67q0 -33 24.5 -52t68.5 -19z" />
    <glyph glyph-name="b" unicode="b" horiz-adv-x="642" 
d="M355 -13q-57 0 -101 24t-69 68l-4 -79h-111v740h124v-299q27 42 71 65t100 23q67 0 119.5 -35.5t82.5 -96.5t30 -139q0 -77 -31.5 -138.5t-86 -97t-124.5 -35.5zM329 93q63 0 102 45.5t39 119.5t-38.5 119.5t-101.5 45.5q-64 0 -104 -45.5t-40 -119.5t39.5 -119.5
t103.5 -45.5z" />
    <glyph glyph-name="c" unicode="c" horiz-adv-x="535" 
d="M45 254q0 81 36 143t100.5 97t151.5 35q41 0 82.5 -10.5t73.5 -27.5l-23 -102q-62 34 -129 34q-75 0 -120 -44.5t-45 -119.5q0 -78 44 -122t122 -44q32 0 65 8.5t69 27.5l23 -100q-34 -20 -77.5 -31t-88.5 -11q-87 0 -150.5 33t-98.5 93t-35 141z" />
    <glyph glyph-name="d" unicode="d" horiz-adv-x="642" 
d="M45 258q0 78 31.5 139t86 96.5t123.5 35.5q53 0 94.5 -21t67.5 -59v291h124v-740h-111l-4 87q-26 -47 -73 -73.5t-107 -26.5q-67 0 -119.5 35.5t-82.5 96.5t-30 139zM456 258q0 74 -40 119.5t-103 45.5q-64 0 -102.5 -45.5t-38.5 -119.5q0 -73 38 -119t101 -46
q65 0 105 45.5t40 119.5z" />
    <glyph glyph-name="e" unicode="e" horiz-adv-x="579" 
d="M490 132l22 -97q-41 -23 -90.5 -35.5t-105.5 -12.5q-81 0 -142 33t-95 94t-34 143q0 80 33 141.5t90.5 96t132.5 34.5q113 0 174.5 -71.5t61.5 -200.5q0 -8 -0.5 -17.5t-2.5 -17.5h-367q9 -62 50 -98t112 -36q46 0 82.5 10t78.5 34zM298 434q-51 0 -85 -33t-44 -95h251
q-8 65 -37.5 96.5t-84.5 31.5z" />
    <glyph glyph-name="f" unicode="f" horiz-adv-x="413" 
d="M404 416h-161v-416h-124v416h-108l12 100h96v20q0 104 52 160.5t146 56.5q65 0 122 -26l-16 -102q-26 13 -45.5 17.5t-43.5 4.5q-91 0 -91 -102v-29h161v-100z" />
    <glyph glyph-name="g" unicode="g" horiz-adv-x="642" 
d="M88 -179l25 100q33 -20 78 -33t91 -13q85 0 125.5 41.5t40.5 125.5v45q-26 -41 -70 -64t-101 -23q-67 0 -119.5 34.5t-82.5 94.5t-30 136q0 75 31.5 134.5t86 94.5t123.5 35q58 0 102 -24.5t69 -68.5l4 80h111v-461q0 -284 -287 -284q-56 0 -110 14t-87 36zM456 265
q0 71 -40 114.5t-103 43.5q-64 0 -102.5 -43.5t-38.5 -114.5q0 -70 38 -114.5t101 -44.5q65 0 105 43.5t40 115.5z" />
    <glyph glyph-name="h" unicode="h" horiz-adv-x="605" 
d="M194 282v-282h-124v740h124v-293q23 39 63.5 60.5t91.5 21.5q90 0 140 -56t50 -161v-312h-124v291q0 129 -100 129q-56 0 -88.5 -36.5t-32.5 -101.5z" />
    <glyph glyph-name="i" unicode="i" horiz-adv-x="264" 
d="M132 601q-34 0 -56 21t-22 54t22 54t56 21q35 0 56.5 -21t21.5 -54t-21.5 -54t-56.5 -21zM194 0h-124v516h124v-516z" />
    <glyph glyph-name="j" unicode="j" horiz-adv-x="264" 
d="M132 601q-34 0 -56 21t-22 54t22 54t56 21q35 0 56.5 -21t21.5 -54t-21.5 -54t-56.5 -21zM-99 -205l20 99q20 -10 36.5 -14t38.5 -4q74 0 74 96v544h124v-557q0 -91 -45.5 -139.5t-133.5 -48.5q-31 0 -60 5.5t-54 18.5z" />
    <glyph glyph-name="k" unicode="k" horiz-adv-x="585" 
d="M554 516l-198 -198l220 -318h-147l-157 234l-78 -78v-156h-124v740h124v-443l211 219h149z" />
    <glyph glyph-name="l" unicode="l" horiz-adv-x="264" 
d="M194 740v-740h-124v740h124z" />
    <glyph glyph-name="m" unicode="m" horiz-adv-x="918" 
d="M194 282v-282h-124v516h111l4 -83q21 46 62 71t94 25q119 0 162 -103q21 49 65 76t102 27q86 0 134 -56t48 -161v-312h-124v291q0 129 -93 129q-52 0 -82 -36.5t-30 -101.5v-282h-124v291q0 129 -93 129q-52 0 -82 -36.5t-30 -101.5z" />
    <glyph glyph-name="n" unicode="n" horiz-adv-x="605" 
d="M539 312v-312h-124v291q0 129 -100 129q-56 0 -88.5 -36.5t-32.5 -101.5v-282h-124v516h111l4 -84q21 46 64.5 71.5t99.5 25.5q90 0 140 -56t50 -161z" />
    <glyph glyph-name="o" unicode="o" horiz-adv-x="626" 
d="M313 -13q-78 0 -138.5 35t-95 96t-34.5 140t34.5 140t95 96t138.5 35q79 0 139 -35t94.5 -96t34.5 -140t-34.5 -140t-94.5 -96t-139 -35zM313 93q64 0 102.5 45.5t38.5 119.5t-38.5 119.5t-102.5 45.5t-102.5 -45.5t-38.5 -119.5t38.5 -119.5t102.5 -45.5z" />
    <glyph glyph-name="p" unicode="p" horiz-adv-x="642" 
d="M70 -216v732h111l4 -89q26 48 72.5 75t107.5 27q67 0 119.5 -35.5t82.5 -96.5t30 -139q0 -77 -31.5 -138.5t-86 -97t-124.5 -35.5q-52 0 -93.5 20.5t-67.5 56.5v-280h-124zM329 93q63 0 102 45.5t39 119.5t-38.5 119.5t-101.5 45.5q-64 0 -104 -45.5t-40 -119.5
t39.5 -119.5t103.5 -45.5z" />
    <glyph glyph-name="q" unicode="q" horiz-adv-x="642" 
d="M448 -216v291q-27 -42 -71 -65t-100 -23q-67 0 -119.5 35.5t-82.5 97t-30 138.5t31.5 138.5t86 97t123.5 35.5q58 0 102 -24.5t69 -68.5l4 80h111v-732h-124zM311 93q65 0 105 45.5t40 119.5t-40 119.5t-103 45.5q-64 0 -102.5 -45.5t-38.5 -119.5q0 -73 38 -119t101 -46
z" />
    <glyph glyph-name="r" unicode="r" horiz-adv-x="408" 
d="M194 249v-249h-124v516h111l5 -103q18 54 57.5 83.5t93.5 29.5q36 0 60 -13l-8 -117q-28 15 -61 15q-63 0 -98.5 -44t-35.5 -118z" />
    <glyph glyph-name="s" unicode="s" horiz-adv-x="491" 
d="M46 370q0 74 57.5 116.5t157.5 42.5q101 0 177 -49l-24 -96q-40 26 -74 36t-76 10q-96 0 -96 -53q0 -26 20 -40.5t79 -26.5q98 -19 141 -57.5t43 -103.5q0 -74 -59 -118t-160 -44q-116 0 -203 53l25 98q47 -28 85.5 -40t86.5 -12q47 0 74 14.5t27 42.5t-21.5 42.5
t-85.5 27.5q-91 18 -132.5 55.5t-41.5 101.5z" />
    <glyph glyph-name="t" unicode="t" horiz-adv-x="433" 
d="M298 -10q-179 0 -179 189v237h-108l12 100h96v167h124v-167h151v-100h-151v-223q0 -97 75 -97q21 0 36.5 4.5t37.5 17.5l16 -101q-51 -27 -110 -27z" />
    <glyph glyph-name="u" unicode="u" horiz-adv-x="599" 
d="M418 0l-4 84q-21 -47 -63.5 -72t-97.5 -25q-89 0 -138 56t-49 161v312h124v-292q0 -128 97 -128q55 0 86.5 37t31.5 101v282h124v-516h-111z" />
    <glyph glyph-name="v" unicode="v" horiz-adv-x="568" 
d="M348 0h-128l-211 516h136l141 -396l142 396h131z" />
    <glyph glyph-name="w" unicode="w" horiz-adv-x="834" 
d="M307 0h-128l-165 516h131l104 -392l108 392h125l107 -390l103 390h128l-165 -516h-128l-110 394z" />
    <glyph glyph-name="x" unicode="x" horiz-adv-x="581" 
d="M158 0h-136l200 264l-192 252h142l122 -172l122 172h135l-191 -249l199 -267h-144l-127 184z" />
    <glyph glyph-name="y" unicode="y" horiz-adv-x="571" 
d="M113 -124q29 0 47 9.5t32 32.5t31 63l7 18l-221 517h136l147 -391l139 391h131l-222 -545q-29 -71 -59 -115.5t-68 -64.5t-91 -20q-28 0 -49 5t-40 15l13 100q25 -15 67 -15z" />
    <glyph glyph-name="z" unicode="z" horiz-adv-x="529" 
d="M489 98l-12 -98h-432v91l287 327h-282l12 98h414v-91l-283 -327h296z" />
    <glyph glyph-name="braceleft" unicode="{" horiz-adv-x="347" 
d="M315 -156h-61q-76 0 -121.5 43.5t-45.5 116.5q0 34 4.5 59t8.5 47.5t4 47.5q0 44 -19 65.5t-60 21.5v95q41 0 60 21t19 65q0 37 -8.5 71t-8.5 84q0 74 45.5 116.5t121.5 42.5h61l12 -99h-35q-43 0 -63 -20.5t-20 -67.5q0 -46 8.5 -80.5t8.5 -75.5q0 -38 -23.5 -66
t-64.5 -38q40 -10 64 -39t24 -68t-8.5 -75.5t-8.5 -80.5q0 -46 20 -66.5t63 -20.5h35z" />
    <glyph glyph-name="bar" unicode="|" horiz-adv-x="298" 
d="M87 -216v956h124v-956h-124z" />
    <glyph glyph-name="braceright" unicode="}" horiz-adv-x="347" 
d="M260 4q0 -73 -45 -116.5t-122 -43.5h-61l-12 99h35q44 0 63.5 20.5t19.5 66.5q0 44 -8.5 80.5t-8.5 75.5t24 68t64 39q-40 10 -64 38t-24 66q0 41 8.5 75.5t8.5 80.5q0 47 -19.5 67.5t-63.5 20.5h-35l12 99h61q77 0 122 -42.5t45 -116.5q0 -50 -8.5 -84t-8.5 -71
q0 -44 19 -65t60 -21v-95q-41 0 -60 -21.5t-19 -65.5q0 -25 4.5 -47.5t8.5 -47.5t4 -59z" />
    <glyph glyph-name="asciitilde" unicode="~" horiz-adv-x="612" 
d="M154 236l-99 11q4 98 41 149t104 51q64 0 125 -58q24 -21 37 -32t22.5 -14.5t20.5 -3.5q26 0 38 25t15 83l99 -10q-3 -98 -40 -149.5t-105 -51.5q-34 0 -63.5 14.5t-60.5 42.5q-24 22 -37.5 33t-22.5 14.5t-20 3.5q-25 0 -37.5 -24.5t-16.5 -83.5z" />
    <glyph glyph-name="uni00A0" unicode="&#xa0;" horiz-adv-x="218" 
 />
    <glyph glyph-name="exclamdown" unicode="&#xa1;" horiz-adv-x="270" 
d="M135 525q35 0 57 -22t22 -55t-22 -54.5t-57 -21.5q-34 0 -56.5 21.5t-22.5 54.5t22.5 55t56.5 22zM82 298h106l12 -482h-130z" />
    <glyph glyph-name="cent" unicode="&#xa2;" horiz-adv-x="612" 
d="M302 -35h-83l29 132q-83 27 -130.5 92t-47.5 157q0 79 36 140.5t101.5 96.5t152.5 37l25 115h83l-27 -123q51 -10 93 -32l-23 -101q-45 23 -90 31l-69 -324q10 -1 20 -1q69 0 145 38l23 -99q-77 -44 -177 -44q-18 0 -36 1zM195 351q0 -104 78 -145l66 307
q-67 -9 -105.5 -51.5t-38.5 -110.5z" />
    <glyph glyph-name="sterling" unicode="&#xa3;" horiz-adv-x="612" 
d="M447 313h-177q3 -15 5.5 -30t2.5 -30q0 -97 -68 -145h362l-13 -108h-491v91q46 26 67 61.5t21 88.5q0 18 -3 36t-7 36h-96v80h74q-6 22 -10 45t-4 47q0 99 68.5 156t186.5 57q58 0 106 -13t86 -38l-24 -105q-43 26 -77.5 37t-80.5 11q-68 0 -103 -30.5t-35 -87.5
q0 -20 3 -40t8 -39h199v-80z" />
    <glyph glyph-name="currency" unicode="&#xa4;" horiz-adv-x="612" 
d="M89 30l-66 58l94 102q-25 30 -38.5 69t-13.5 83q0 45 13.5 83.5t38.5 68.5l-94 102l66 58l95 -105q55 30 122 30t122 -30l95 105l66 -58l-94 -102q24 -31 37.5 -69.5t13.5 -82.5t-13.5 -82.5t-37.5 -68.5l94 -103l-66 -58l-94 105q-55 -30 -123 -30t-123 30zM306 207
q56 0 91 37.5t35 97.5t-35 97.5t-91 37.5q-57 0 -92 -37.5t-35 -97.5t35 -97.5t92 -37.5z" />
    <glyph glyph-name="yen" unicode="&#xa5;" horiz-adv-x="612" 
d="M369 0h-126v110h-171v80h171v78h-171v80h122l-206 336h143l178 -313l178 313h137l-206 -336h122v-80h-171v-78h171v-80h-171v-110z" />
    <glyph glyph-name="brokenbar" unicode="&#xa6;" horiz-adv-x="298" 
d="M87 363v377h124v-377h-124zM87 -216v396h124v-396h-124z" />
    <glyph glyph-name="section" unicode="&#xa7;" horiz-adv-x="551" 
d="M58 -117l25 96q47 -28 86.5 -39.5t88.5 -11.5q50 0 77.5 16.5t27.5 48.5q0 29 -17.5 45.5t-64.5 33.5l-93 35q-76 29 -109.5 64.5t-33.5 95.5q0 48 27.5 85.5t79.5 63.5q-41 25 -58.5 57t-17.5 76q0 77 58.5 122t158.5 45q101 0 178 -49l-24 -95q-41 26 -75 36t-77 10
q-98 0 -98 -63q0 -28 17 -44.5t65 -33.5l89 -33q78 -28 110.5 -65t32.5 -96q0 -48 -26.5 -85.5t-76.5 -63.5q40 -25 58.5 -57.5t18.5 -76.5q0 -79 -59 -124.5t-162 -45.5q-119 0 -206 53zM246 200l84 -31q30 16 46.5 39.5t16.5 52.5q0 35 -16 52.5t-66 36.5l-85 32
q-30 -16 -47 -39.5t-17 -53.5q0 -34 17.5 -52.5t66.5 -36.5z" />
    <glyph glyph-name="dieresis" unicode="&#xa8;" horiz-adv-x="500" 
d="M364 613q-28 0 -46 18t-18 46t18 45.5t46 17.5q29 0 47 -17.5t18 -45.5t-18 -46t-47 -18zM135 613q-28 0 -46 18t-18 46t18 45.5t46 17.5q29 0 47 -17.5t18 -45.5t-18 -46t-47 -18z" />
    <glyph glyph-name="copyright" unicode="&#xa9;" horiz-adv-x="864" 
d="M432 -16q-84 0 -154 27t-121.5 76.5t-79.5 116.5t-28 146q0 80 28 146.5t79.5 116t121.5 76.5t154 27t154 -27t121.5 -76.5t79.5 -116t28 -146.5q0 -79 -28 -146t-79.5 -116.5t-121.5 -76.5t-154 -27zM432 59q89 0 156.5 36.5t105.5 102.5t38 152t-38 151.5t-105.5 102.5
t-156.5 37t-156.5 -37t-105.5 -102.5t-38 -151.5t38 -152t105.5 -102.5t156.5 -36.5zM455 139q-101 0 -161 57t-60 151q0 63 28 111t79 75.5t119 27.5q32 0 64 -8t57 -22l-19 -84q-49 27 -99 27q-56 0 -90 -33.5t-34 -89.5q0 -58 33 -91.5t91 -33.5q24 0 49.5 7.5t53.5 20.5
l19 -83q-27 -15 -61 -23.5t-69 -8.5z" />
    <glyph glyph-name="ordfeminine" unicode="&#xaa;" horiz-adv-x="442" 
d="M299 318l-3 55q-16 -30 -48.5 -47.5t-77.5 -17.5q-60 0 -95.5 32t-35.5 85q0 68 52 98.5t166 32.5l33 1q-2 78 -89 78q-34 0 -62 -8t-61 -29l-17 72q33 21 70.5 30.5t77.5 9.5q83 0 127 -40.5t44 -115.5v-236h-81zM128 431q0 -24 17.5 -38t49.5 -14q45 0 70 26.5t25 72.5
v20l-26 -1q-73 -1 -104.5 -16t-31.5 -50z" />
    <glyph glyph-name="guillemotleft" unicode="&#xab;" horiz-adv-x="594" 
d="M314 52h-129l-143 210l143 210h129l-136 -210zM547 52h-129l-143 210l143 210h129l-136 -210z" />
    <glyph glyph-name="logicalnot" unicode="&#xac;" horiz-adv-x="612" 
d="M68 430h476v-293h-108v192h-368v101z" />
    <glyph glyph-name="registered" unicode="&#xae;" horiz-adv-x="517" 
d="M258 302q-62 0 -111 27t-76.5 73.5t-27.5 106.5t27.5 107t76.5 73.5t111 26.5q63 0 112 -26.5t76.5 -73.5t27.5 -107t-27.5 -106.5t-76.5 -73.5t-112 -27zM258 347q74 0 119.5 45t45.5 117t-45.5 117t-119.5 45q-73 0 -118.5 -45t-45.5 -117t45.5 -117t118.5 -45z
M228 404h-56v209h88q42 0 66.5 -19t24.5 -52q0 -39 -35 -57l49 -81h-64l-38 68h-3h-32v-68zM228 517h26q39 0 39 25q0 26 -39 26h-26v-51z" />
    <glyph glyph-name="macron" unicode="&#xaf;" horiz-adv-x="500" 
d="M76 720h348v-85h-348v85z" />
    <glyph glyph-name="degree" unicode="&#xb0;" horiz-adv-x="442" 
d="M221 346q-53 0 -94 22.5t-64 62t-23 90.5q0 52 23 92t64 62.5t94 22.5q54 0 94.5 -22.5t63.5 -62.5t23 -92q0 -51 -23 -90.5t-63.5 -62t-94.5 -22.5zM221 424q41 0 64.5 27t23.5 70q0 45 -23.5 72t-64.5 27q-40 0 -64 -27t-24 -72q0 -43 24 -70t64 -27z" />
    <glyph glyph-name="plusminus" unicode="&#xb1;" horiz-adv-x="612" 
d="M544 0h-476v101h476v-101zM360 153h-108v192h-184v101h184v192h108v-192h184v-101h-184v-192z" />
    <glyph glyph-name="uni00B2" unicode="&#xb2;" horiz-adv-x="388" 
d="M342 462l-9 -74h-290v62q36 26 65 48t50 41q32 28 49 46.5t24 34.5t7 34q0 53 -69 53q-59 0 -104 -34l-23 67q28 20 65 31t71 11q71 0 110.5 -30.5t39.5 -85.5q0 -28 -9 -51.5t-32 -50t-65 -62.5q-21 -18 -50 -40h170z" />
    <glyph glyph-name="uni00B3" unicode="&#xb3;" horiz-adv-x="388" 
d="M336 495q0 -53 -44.5 -84t-121.5 -31q-38 0 -73 9t-58 22l18 67q22 -12 50.5 -19.5t58.5 -7.5q39 0 60.5 13t21.5 37q0 49 -78 49h-58v71h54q75 0 75 49q0 41 -70 41q-28 0 -56.5 -7t-48.5 -20l-18 65q24 14 61.5 23.5t73.5 9.5q67 0 105.5 -27.5t38.5 -74.5
q0 -66 -68 -90q77 -22 77 -95z" />
    <glyph glyph-name="acute" unicode="&#xb4;" horiz-adv-x="500" 
d="M274 599h-111l124 155h138z" />
    <glyph glyph-name="paragraph" unicode="&#xb6;" horiz-adv-x="658" 
d="M36 499q0 97 67 149t191 52h283v-847h-113v751h-98v-751h-113v446q-104 9 -160.5 60.5t-56.5 139.5z" />
    <glyph glyph-name="periodcentered" unicode="&#xb7;" horiz-adv-x="262" 
d="M131 181q-34 0 -56.5 22t-22.5 55t22.5 54.5t56.5 21.5q35 0 57 -21.5t22 -54.5t-22 -55t-57 -22z" />
    <glyph glyph-name="cedilla" unicode="&#xb8;" horiz-adv-x="500" 
d="M145 -212l16 60q17 -7 35 -10.5t41 -3.5q28 0 44.5 8t16.5 24q0 30 -61 30q-26 0 -49 -5l33 124h67l-20 -68h5q50 0 78.5 -22t28.5 -62q0 -43 -35 -67.5t-98 -24.5q-31 0 -55.5 4.5t-46.5 12.5z" />
    <glyph glyph-name="uni00B9" unicode="&#xb9;" horiz-adv-x="388" 
d="M264 388h-88v294l-83 -49l-38 65l131 76h78v-386z" />
    <glyph glyph-name="ordmasculine" unicode="&#xba;" horiz-adv-x="484" 
d="M242 308q-58 0 -103.5 26t-71 71.5t-25.5 103.5q0 59 25.5 104t71 71t103.5 26q59 0 104 -26t70.5 -71t25.5 -104q0 -58 -25.5 -103.5t-70.5 -71.5t-104 -26zM347 509q0 54 -29 88t-76 34t-76 -34t-29 -88q0 -55 29 -88.5t76 -33.5t76 33.5t29 88.5z" />
    <glyph glyph-name="guillemotright" unicode="&#xbb;" horiz-adv-x="594" 
d="M47 52l136 210l-136 210h129l143 -210l-143 -210h-129zM280 52l136 210l-136 210h129l143 -210l-143 -210h-129z" />
    <glyph glyph-name="onequarter" unicode="&#xbc;" horiz-adv-x="912" 
d="M336 0h-102l342 684h102zM832 0h-83v75h-203v68l198 243h88v-240h55l-9 -71h-46v-75zM749 146v145l-116 -145h116zM264 298h-88v294l-83 -49l-38 65l131 76h78v-386z" />
    <glyph glyph-name="onehalf" unicode="&#xbd;" horiz-adv-x="912" 
d="M316 0h-102l342 684h102zM866 74l-9 -74h-290v62q36 26 65 48t50 41q32 28 49 46.5t24 34.5t7 34q0 53 -69 53q-59 0 -104 -34l-23 67q28 20 65 31t71 11q71 0 110.5 -30.5t39.5 -85.5q0 -28 -9 -51.5t-32 -50t-65 -62.5q-21 -18 -50 -40h170zM264 298h-88v294l-83 -49
l-38 65l131 76h78v-386z" />
    <glyph glyph-name="threequarters" unicode="&#xbe;" horiz-adv-x="912" 
d="M356 0h-102l342 684h102zM832 0h-83v75h-203v68l198 243h88v-240h55l-9 -71h-46v-75zM749 146v145l-116 -145h116zM336 405q0 -53 -44.5 -84t-121.5 -31q-38 0 -73 9t-58 22l18 67q22 -12 50.5 -19.5t58.5 -7.5q39 0 60.5 13t21.5 37q0 49 -78 49h-58v71h54q75 0 75 49
q0 41 -70 41q-28 0 -56.5 -7t-48.5 -20l-18 65q24 14 61.5 23.5t73.5 9.5q67 0 105.5 -27.5t38.5 -74.5q0 -66 -68 -90q77 -22 77 -95z" />
    <glyph glyph-name="questiondown" unicode="&#xbf;" horiz-adv-x="517" 
d="M299 525q35 0 57 -22t22 -55t-22 -54.5t-57 -21.5q-34 0 -56.5 21.5t-22.5 54.5t22.5 55t56.5 22zM482 -145q-37 -25 -93 -40t-108 -15q-109 0 -172.5 50t-63.5 136q0 58 27.5 101.5t92.5 87.5q46 32 62.5 54t16.5 50v19h108v-19q0 -49 -20 -85t-68 -71q-51 -36 -71 -63
t-20 -63q0 -44 32 -68t90 -24q43 0 85 12.5t73 34.5z" />
    <glyph glyph-name="Agrave" unicode="&#xc0;" horiz-adv-x="724" 
d="M150 0h-137l282 700h134l282 -700h-142l-62 169h-294zM252 276h215l-107 291zM331 772l-170 129h156l146 -129h-132z" />
    <glyph glyph-name="Aacute" unicode="&#xc1;" horiz-adv-x="724" 
d="M150 0h-137l282 700h134l282 -700h-142l-62 169h-294zM252 276h215l-107 291zM393 772h-132l146 129h156z" />
    <glyph glyph-name="Acircumflex" unicode="&#xc2;" horiz-adv-x="724" 
d="M150 0h-137l282 700h134l282 -700h-142l-62 169h-294zM252 276h215l-107 291zM283 772h-128l147 129h120l147 -129h-130l-78 62z" />
    <glyph glyph-name="Atilde" unicode="&#xc3;" horiz-adv-x="724" 
d="M150 0h-137l282 700h134l282 -700h-142l-62 169h-294zM252 276h215l-107 291zM286 827q-43 0 -43 -56l-86 10q2 62 33 95.5t89 33.5q32 0 55 -8.5t50 -26.5q17 -12 29 -16.5t25 -4.5q23 0 33 13t10 43l86 -11q-1 -62 -32.5 -95t-89.5 -33q-31 0 -55 8.5t-51 26.5
q-16 12 -28 16.5t-25 4.5z" />
    <glyph glyph-name="Adieresis" unicode="&#xc4;" horiz-adv-x="724" 
d="M150 0h-137l282 700h134l282 -700h-142l-62 169h-294zM252 276h215l-107 291zM484 774q-28 0 -46.5 18.5t-18.5 46.5q0 29 18.5 46.5t46.5 17.5q29 0 47.5 -17.5t18.5 -46.5q0 -28 -18.5 -46.5t-47.5 -18.5zM239 774q-28 0 -46.5 18.5t-18.5 46.5q0 29 18.5 46.5
t46.5 17.5q29 0 47.5 -17.5t18.5 -46.5q0 -28 -18.5 -46.5t-47.5 -18.5z" />
    <glyph glyph-name="Aring" unicode="&#xc5;" horiz-adv-x="724" 
d="M150 0h-137l282 700h134l282 -700h-142l-62 169h-294zM252 276h215l-107 291zM362 759q-52 0 -85 30.5t-33 77.5t33 77.5t85 30.5t85 -30.5t33 -77.5t-33 -77.5t-85 -30.5zM362 812q26 0 41.5 15.5t15.5 39.5t-15.5 39.5t-41.5 15.5t-41.5 -15.5t-15.5 -39.5t15.5 -39.5
t41.5 -15.5z" />
    <glyph glyph-name="AE" unicode="&#xc6;" horiz-adv-x="1052" 
d="M539 0v169h-281l-99 -169h-146l426 700h551l13 -109h-336v-181h305v-109h-305v-192h356l-13 -109h-471zM539 591h-33l-185 -315h218v315z" />
    <glyph glyph-name="Ccedilla" unicode="&#xc7;" horiz-adv-x="695" 
d="M184 352q0 -119 66 -187t182 -68q94 0 196 53l24 -109q-47 -27 -107.5 -42t-122.5 -15q-114 0 -197.5 44.5t-129.5 126t-46 191.5q0 108 47 191.5t131.5 131t198.5 47.5q56 0 114 -14t104 -38l-25 -112q-91 51 -188 51q-75 0 -130.5 -31t-86 -87t-30.5 -133zM311 -211
l16 62q35 -15 80 -15q30 0 47.5 7.5t17.5 23.5q0 28 -64 28q-27 0 -50 -5l33 125h68l-19 -67h4q53 0 82.5 -22t29.5 -63q0 -43 -36.5 -67.5t-102.5 -24.5q-32 0 -57.5 4.5t-48.5 13.5z" />
    <glyph glyph-name="Egrave" unicode="&#xc8;" horiz-adv-x="606" 
d="M81 0v700h463l13 -109h-348v-181h317v-109h-317v-192h368l-13 -109h-483zM297 772l-170 129h156l146 -129h-132z" />
    <glyph glyph-name="Eacute" unicode="&#xc9;" horiz-adv-x="606" 
d="M81 0v700h463l13 -109h-348v-181h317v-109h-317v-192h368l-13 -109h-483zM359 772h-132l146 129h156z" />
    <glyph glyph-name="Ecircumflex" unicode="&#xca;" horiz-adv-x="606" 
d="M81 0v700h463l13 -109h-348v-181h317v-109h-317v-192h368l-13 -109h-483zM249 772h-128l147 129h120l147 -129h-130l-78 62z" />
    <glyph glyph-name="Edieresis" unicode="&#xcb;" horiz-adv-x="606" 
d="M81 0v700h463l13 -109h-348v-181h317v-109h-317v-192h368l-13 -109h-483zM450 774q-28 0 -46.5 18.5t-18.5 46.5q0 29 18.5 46.5t46.5 17.5q29 0 47.5 -17.5t18.5 -46.5q0 -28 -18.5 -46.5t-47.5 -18.5zM205 774q-28 0 -46.5 18.5t-18.5 46.5q0 29 18.5 46.5t46.5 17.5
q29 0 47.5 -17.5t18.5 -46.5q0 -28 -18.5 -46.5t-47.5 -18.5z" />
    <glyph glyph-name="Igrave" unicode="&#xcc;" horiz-adv-x="292" 
d="M211 700v-700h-130v700h130zM115 772l-170 129h156l146 -129h-132z" />
    <glyph glyph-name="Iacute" unicode="&#xcd;" horiz-adv-x="292" 
d="M211 700v-700h-130v700h130zM177 772h-132l146 129h156z" />
    <glyph glyph-name="Icircumflex" unicode="&#xce;" horiz-adv-x="292" 
d="M211 700v-700h-130v700h130zM67 772h-128l147 129h120l147 -129h-130l-78 62z" />
    <glyph glyph-name="Idieresis" unicode="&#xcf;" horiz-adv-x="292" 
d="M211 700v-700h-130v700h130zM268 774q-28 0 -46.5 18.5t-18.5 46.5q0 29 18.5 46.5t46.5 17.5q29 0 47.5 -17.5t18.5 -46.5q0 -28 -18.5 -46.5t-47.5 -18.5zM23 774q-28 0 -46.5 18.5t-18.5 46.5q0 29 18.5 46.5t46.5 17.5q29 0 47.5 -17.5t18.5 -46.5q0 -28 -18.5 -46.5
t-47.5 -18.5z" />
    <glyph glyph-name="Eth" unicode="&#xd0;" horiz-adv-x="784" 
d="M362 0h-261v317h-83v97h83v286h261q115 0 198.5 -42.5t129 -121t45.5 -186.5t-45.5 -186.5t-129 -121t-198.5 -42.5zM350 111q121 0 185.5 62t64.5 177q0 116 -64.5 177.5t-185.5 61.5h-120v-175h176v-97h-176v-206h120z" />
    <glyph glyph-name="Ntilde" unicode="&#xd1;" horiz-adv-x="747" 
d="M537 0l-332 512v-512h-124v700h133l328 -510v510h124v-700h-129zM307 827q-43 0 -43 -56l-86 10q2 62 33 95.5t89 33.5q32 0 55 -8.5t50 -26.5q17 -12 29 -16.5t25 -4.5q23 0 33 13t10 43l86 -11q-1 -62 -32.5 -95t-89.5 -33q-31 0 -55 8.5t-51 26.5q-16 12 -28 16.5
t-25 4.5z" />
    <glyph glyph-name="Ograve" unicode="&#xd2;" horiz-adv-x="822" 
d="M411 -16q-79 0 -145.5 27t-115 76t-75 116t-26.5 147t26.5 147t75 116t115 76t145.5 27t145.5 -27t115 -76t75 -116t26.5 -147t-26.5 -147t-75 -116t-115 -76t-145.5 -27zM411 97q68 0 119 32t79.5 89t28.5 132t-28.5 132t-79.5 89t-119 32t-119 -32t-79.5 -89
t-28.5 -132t28.5 -132t79.5 -89t119 -32zM380 772l-170 129h156l146 -129h-132z" />
    <glyph glyph-name="Oacute" unicode="&#xd3;" horiz-adv-x="822" 
d="M411 -16q-79 0 -145.5 27t-115 76t-75 116t-26.5 147t26.5 147t75 116t115 76t145.5 27t145.5 -27t115 -76t75 -116t26.5 -147t-26.5 -147t-75 -116t-115 -76t-145.5 -27zM411 97q68 0 119 32t79.5 89t28.5 132t-28.5 132t-79.5 89t-119 32t-119 -32t-79.5 -89
t-28.5 -132t28.5 -132t79.5 -89t119 -32zM442 772h-132l146 129h156z" />
    <glyph glyph-name="Ocircumflex" unicode="&#xd4;" horiz-adv-x="822" 
d="M411 -16q-79 0 -145.5 27t-115 76t-75 116t-26.5 147t26.5 147t75 116t115 76t145.5 27t145.5 -27t115 -76t75 -116t26.5 -147t-26.5 -147t-75 -116t-115 -76t-145.5 -27zM411 97q68 0 119 32t79.5 89t28.5 132t-28.5 132t-79.5 89t-119 32t-119 -32t-79.5 -89
t-28.5 -132t28.5 -132t79.5 -89t119 -32zM332 772h-128l147 129h120l147 -129h-130l-78 62z" />
    <glyph glyph-name="Otilde" unicode="&#xd5;" horiz-adv-x="822" 
d="M411 -16q-79 0 -145.5 27t-115 76t-75 116t-26.5 147t26.5 147t75 116t115 76t145.5 27t145.5 -27t115 -76t75 -116t26.5 -147t-26.5 -147t-75 -116t-115 -76t-145.5 -27zM411 97q68 0 119 32t79.5 89t28.5 132t-28.5 132t-79.5 89t-119 32t-119 -32t-79.5 -89
t-28.5 -132t28.5 -132t79.5 -89t119 -32zM335 827q-43 0 -43 -56l-86 10q2 62 33 95.5t89 33.5q32 0 55 -8.5t50 -26.5q17 -12 29 -16.5t25 -4.5q23 0 33 13t10 43l86 -11q-1 -62 -32.5 -95t-89.5 -33q-31 0 -55 8.5t-51 26.5q-16 12 -28 16.5t-25 4.5z" />
    <glyph glyph-name="Odieresis" unicode="&#xd6;" horiz-adv-x="822" 
d="M411 -16q-79 0 -145.5 27t-115 76t-75 116t-26.5 147t26.5 147t75 116t115 76t145.5 27t145.5 -27t115 -76t75 -116t26.5 -147t-26.5 -147t-75 -116t-115 -76t-145.5 -27zM411 97q68 0 119 32t79.5 89t28.5 132t-28.5 132t-79.5 89t-119 32t-119 -32t-79.5 -89
t-28.5 -132t28.5 -132t79.5 -89t119 -32zM533 774q-28 0 -46.5 18.5t-18.5 46.5q0 29 18.5 46.5t46.5 17.5q29 0 47.5 -17.5t18.5 -46.5q0 -28 -18.5 -46.5t-47.5 -18.5zM288 774q-28 0 -46.5 18.5t-18.5 46.5q0 29 18.5 46.5t46.5 17.5q29 0 47.5 -17.5t18.5 -46.5
q0 -28 -18.5 -46.5t-47.5 -18.5z" />
    <glyph glyph-name="multiply" unicode="&#xd7;" horiz-adv-x="612" 
d="M154 119l-70 71l152 152l-152 152l70 70l152 -152l152 152l70 -70l-152 -152l152 -152l-70 -71l-152 152z" />
    <glyph glyph-name="Oslash" unicode="&#xd8;" horiz-adv-x="822" 
d="M411 -16q-52 0 -99 12t-87 35l-61 -79l-77 60l61 79q-47 48 -73 114.5t-26 144.5q0 80 26.5 147t75 116t115 76t145.5 27q52 0 99 -12t87 -35l61 79l77 -60l-61 -78q47 -49 73 -115t26 -145q0 -80 -26.5 -147t-75 -116t-115 -76t-145.5 -27zM184 350q0 -95 45 -161
l298 384q-51 30 -116 30q-68 0 -119 -32t-79.5 -89t-28.5 -132zM411 97q68 0 119 32t79.5 89t28.5 132q0 47 -11.5 87.5t-33.5 72.5l-298 -383q51 -30 116 -30z" />
    <glyph glyph-name="Ugrave" unicode="&#xd9;" horiz-adv-x="736" 
d="M76 281v419h130v-408q0 -195 162 -195t162 195v408h130v-419q0 -140 -78 -218.5t-218 -78.5q-137 0 -212.5 77.5t-75.5 219.5zM337 772l-170 129h156l146 -129h-132z" />
    <glyph glyph-name="Uacute" unicode="&#xda;" horiz-adv-x="736" 
d="M76 281v419h130v-408q0 -195 162 -195t162 195v408h130v-419q0 -140 -78 -218.5t-218 -78.5q-137 0 -212.5 77.5t-75.5 219.5zM399 772h-132l146 129h156z" />
    <glyph glyph-name="Ucircumflex" unicode="&#xdb;" horiz-adv-x="736" 
d="M76 281v419h130v-408q0 -195 162 -195t162 195v408h130v-419q0 -140 -78 -218.5t-218 -78.5q-137 0 -212.5 77.5t-75.5 219.5zM289 772h-128l147 129h120l147 -129h-130l-78 62z" />
    <glyph glyph-name="Udieresis" unicode="&#xdc;" horiz-adv-x="736" 
d="M76 281v419h130v-408q0 -195 162 -195t162 195v408h130v-419q0 -140 -78 -218.5t-218 -78.5q-137 0 -212.5 77.5t-75.5 219.5zM490 774q-28 0 -46.5 18.5t-18.5 46.5q0 29 18.5 46.5t46.5 17.5q29 0 47.5 -17.5t18.5 -46.5q0 -28 -18.5 -46.5t-47.5 -18.5zM245 774
q-28 0 -46.5 18.5t-18.5 46.5q0 29 18.5 46.5t46.5 17.5q29 0 47.5 -17.5t18.5 -46.5q0 -28 -18.5 -46.5t-47.5 -18.5z" />
    <glyph glyph-name="Yacute" unicode="&#xdd;" horiz-adv-x="692" 
d="M411 282v-282h-130v282l-266 418h151l183 -315l183 315h145zM384 772h-132l146 129h156z" />
    <glyph glyph-name="Thorn" unicode="&#xde;" horiz-adv-x="627" 
d="M208 581h111q82 0 141.5 -27.5t92.5 -78t33 -119.5t-33 -119.5t-92.5 -78t-141.5 -27.5h-111v-131h-127v700h127v-119zM307 234q71 0 109.5 32t38.5 90q0 59 -38.5 90.5t-109.5 31.5h-99v-244h99z" />
    <glyph glyph-name="germandbls" unicode="&#xdf;" horiz-adv-x="644" 
d="M66 0v510q0 74 31.5 128.5t88.5 84.5t135 30q70 0 122.5 -25.5t82 -71t29.5 -105.5t-31.5 -104.5t-84.5 -63.5q75 -17 118.5 -65.5t43.5 -119.5q0 -63 -29.5 -110.5t-82.5 -74t-125 -26.5q-77 0 -132 23l23 99q39 -19 94 -19q58 0 92 31t34 83q0 54 -41 85.5t-114 31.5
h-38v100h24q57 0 91 32t34 87q0 50 -31 80t-84 30q-58 0 -92 -36t-34 -97v-517h-124z" />
    <glyph glyph-name="agrave" unicode="&#xe0;" horiz-adv-x="567" 
d="M394 0l-4 75q-22 -41 -66.5 -64.5t-104.5 -23.5q-81 0 -129 43t-48 115q0 90 70.5 132.5t224.5 44.5l45 1q-3 106 -121 106q-46 0 -84 -11t-82 -39l-23 96q44 28 95 41t106 13q110 0 169 -54.5t59 -156.5v-318h-107zM253 83q61 0 95 36t34 98v26l-36 -1q-100 -1 -143 -21
t-43 -67q0 -33 24.5 -52t68.5 -19zM252 599l-151 155h138l124 -155h-111z" />
    <glyph glyph-name="aacute" unicode="&#xe1;" horiz-adv-x="567" 
d="M394 0l-4 75q-22 -41 -66.5 -64.5t-104.5 -23.5q-81 0 -129 43t-48 115q0 90 70.5 132.5t224.5 44.5l45 1q-3 106 -121 106q-46 0 -84 -11t-82 -39l-23 96q44 28 95 41t106 13q110 0 169 -54.5t59 -156.5v-318h-107zM253 83q61 0 95 36t34 98v26l-36 -1q-100 -1 -143 -21
t-43 -67q0 -33 24.5 -52t68.5 -19zM300 599h-111l124 155h138z" />
    <glyph glyph-name="acircumflex" unicode="&#xe2;" horiz-adv-x="567" 
d="M394 0l-4 75q-22 -41 -66.5 -64.5t-104.5 -23.5q-81 0 -129 43t-48 115q0 90 70.5 132.5t224.5 44.5l45 1q-3 106 -121 106q-46 0 -84 -11t-82 -39l-23 96q44 28 95 41t106 13q110 0 169 -54.5t59 -156.5v-318h-107zM253 83q61 0 95 36t34 98v26l-36 -1q-100 -1 -143 -21
t-43 -67q0 -33 24.5 -52t68.5 -19zM198 599h-108l131 155h110l131 -155h-110l-77 83z" />
    <glyph glyph-name="atilde" unicode="&#xe3;" horiz-adv-x="567" 
d="M394 0l-4 75q-22 -41 -66.5 -64.5t-104.5 -23.5q-81 0 -129 43t-48 115q0 90 70.5 132.5t224.5 44.5l45 1q-3 106 -121 106q-46 0 -84 -11t-82 -39l-23 96q44 28 95 41t106 13q110 0 169 -54.5t59 -156.5v-318h-107zM253 83q61 0 95 36t34 98v26l-36 -1q-100 -1 -143 -21
t-43 -67q0 -33 24.5 -52t68.5 -19zM258 641q-20 17 -32 23t-23 6q-22 0 -31.5 -16.5t-10.5 -53.5l-83 11q2 69 32.5 105.5t86.5 36.5q26 0 47 -9t49 -32q21 -17 33 -23.5t23 -6.5q22 0 31.5 17t10.5 54l83 -11q-1 -70 -32 -106t-87 -36q-26 0 -47.5 9t-49.5 32z" />
    <glyph glyph-name="adieresis" unicode="&#xe4;" horiz-adv-x="567" 
d="M394 0l-4 75q-22 -41 -66.5 -64.5t-104.5 -23.5q-81 0 -129 43t-48 115q0 90 70.5 132.5t224.5 44.5l45 1q-3 106 -121 106q-46 0 -84 -11t-82 -39l-23 96q44 28 95 41t106 13q110 0 169 -54.5t59 -156.5v-318h-107zM253 83q61 0 95 36t34 98v26l-36 -1q-100 -1 -143 -21
t-43 -67q0 -33 24.5 -52t68.5 -19zM390 613q-28 0 -46 18t-18 46t18 45.5t46 17.5q29 0 47 -17.5t18 -45.5t-18 -46t-47 -18zM161 613q-28 0 -46 18t-18 46t18 45.5t46 17.5q29 0 47 -17.5t18 -45.5t-18 -46t-47 -18z" />
    <glyph glyph-name="aring" unicode="&#xe5;" horiz-adv-x="567" 
d="M394 0l-4 75q-22 -41 -66.5 -64.5t-104.5 -23.5q-81 0 -129 43t-48 115q0 90 70.5 132.5t224.5 44.5l45 1q-3 106 -121 106q-46 0 -84 -11t-82 -39l-23 96q44 28 95 41t106 13q110 0 169 -54.5t59 -156.5v-318h-107zM253 83q61 0 95 36t34 98v26l-36 -1q-100 -1 -143 -21
t-43 -67q0 -33 24.5 -52t68.5 -19zM276 586q-49 0 -81.5 31t-32.5 78t32.5 78t81.5 31q50 0 82 -31t32 -78t-32 -78t-82 -31zM276 637q25 0 40 16.5t15 41.5q0 26 -15 42t-40 16t-40 -16t-15 -42q0 -25 15 -41.5t40 -16.5z" />
    <glyph glyph-name="ae" unicode="&#xe6;" horiz-adv-x="903" 
d="M216 -13q-79 0 -126.5 41.5t-47.5 110.5q0 86 68.5 126t216.5 42l49 1v10q0 111 -118 111q-46 0 -82.5 -11t-80.5 -39l-23 96q44 28 94 41t104 13q130 0 177 -85q31 40 78 62.5t104 22.5q111 0 171.5 -71.5t60.5 -199.5q0 -18 -3 -33h-362q9 -63 49.5 -100t110.5 -37
q46 0 81.5 10t76.5 34l22 -97q-81 -48 -193 -48q-75 0 -131 31t-87 86q-24 -55 -79 -86t-130 -31zM626 434q-50 0 -83 -32.5t-44 -93.5h245q-15 126 -118 126zM160 147q0 -30 23.5 -47t66.5 -17q59 0 92.5 34.5t33.5 96.5v15l-40 -1q-95 -1 -135.5 -19.5t-40.5 -61.5z" />
    <glyph glyph-name="ccedilla" unicode="&#xe7;" horiz-adv-x="535" 
d="M45 254q0 81 36 143t100.5 97t151.5 35q41 0 82.5 -10.5t73.5 -27.5l-23 -102q-62 34 -129 34q-75 0 -120 -44.5t-45 -119.5q0 -78 44 -122t122 -44q32 0 65 8.5t69 27.5l23 -100q-34 -20 -77.5 -31t-88.5 -11q-87 0 -150.5 33t-98.5 93t-35 141zM224 -212l16 60
q17 -7 35 -10.5t41 -3.5q28 0 44.5 8t16.5 24q0 30 -61 30q-26 0 -49 -5l33 124h67l-20 -68h5q50 0 78.5 -22t28.5 -62q0 -43 -35 -67.5t-98 -24.5q-31 0 -55.5 4.5t-46.5 12.5z" />
    <glyph glyph-name="egrave" unicode="&#xe8;" horiz-adv-x="579" 
d="M490 132l22 -97q-41 -23 -90.5 -35.5t-105.5 -12.5q-81 0 -142 33t-95 94t-34 143q0 80 33 141.5t90.5 96t132.5 34.5q113 0 174.5 -71.5t61.5 -200.5q0 -8 -0.5 -17.5t-2.5 -17.5h-367q9 -62 50 -98t112 -36q46 0 82.5 10t78.5 34zM298 434q-51 0 -85 -33t-44 -95h251
q-8 65 -37.5 96.5t-84.5 31.5zM277 599l-151 155h138l124 -155h-111z" />
    <glyph glyph-name="eacute" unicode="&#xe9;" horiz-adv-x="579" 
d="M490 132l22 -97q-41 -23 -90.5 -35.5t-105.5 -12.5q-81 0 -142 33t-95 94t-34 143q0 80 33 141.5t90.5 96t132.5 34.5q113 0 174.5 -71.5t61.5 -200.5q0 -8 -0.5 -17.5t-2.5 -17.5h-367q9 -62 50 -98t112 -36q46 0 82.5 10t78.5 34zM298 434q-51 0 -85 -33t-44 -95h251
q-8 65 -37.5 96.5t-84.5 31.5zM325 599h-111l124 155h138z" />
    <glyph glyph-name="ecircumflex" unicode="&#xea;" horiz-adv-x="579" 
d="M490 132l22 -97q-41 -23 -90.5 -35.5t-105.5 -12.5q-81 0 -142 33t-95 94t-34 143q0 80 33 141.5t90.5 96t132.5 34.5q113 0 174.5 -71.5t61.5 -200.5q0 -8 -0.5 -17.5t-2.5 -17.5h-367q9 -62 50 -98t112 -36q46 0 82.5 10t78.5 34zM298 434q-51 0 -85 -33t-44 -95h251
q-8 65 -37.5 96.5t-84.5 31.5zM223 599h-108l131 155h110l131 -155h-110l-77 83z" />
    <glyph glyph-name="edieresis" unicode="&#xeb;" horiz-adv-x="579" 
d="M490 132l22 -97q-41 -23 -90.5 -35.5t-105.5 -12.5q-81 0 -142 33t-95 94t-34 143q0 80 33 141.5t90.5 96t132.5 34.5q113 0 174.5 -71.5t61.5 -200.5q0 -8 -0.5 -17.5t-2.5 -17.5h-367q9 -62 50 -98t112 -36q46 0 82.5 10t78.5 34zM298 434q-51 0 -85 -33t-44 -95h251
q-8 65 -37.5 96.5t-84.5 31.5zM415 613q-28 0 -46 18t-18 46t18 45.5t46 17.5q29 0 47 -17.5t18 -45.5t-18 -46t-47 -18zM186 613q-28 0 -46 18t-18 46t18 45.5t46 17.5q29 0 47 -17.5t18 -45.5t-18 -46t-47 -18z" />
    <glyph glyph-name="igrave" unicode="&#xec;" horiz-adv-x="264" 
d="M194 0h-124v516h124v-516zM108 599l-151 155h138l124 -155h-111z" />
    <glyph glyph-name="iacute" unicode="&#xed;" horiz-adv-x="264" 
d="M194 0h-124v516h124v-516zM156 599h-111l124 155h138z" />
    <glyph glyph-name="icircumflex" unicode="&#xee;" horiz-adv-x="264" 
d="M194 0h-124v516h124v-516zM54 599h-108l131 155h110l131 -155h-110l-77 83z" />
    <glyph glyph-name="idieresis" unicode="&#xef;" horiz-adv-x="264" 
d="M194 0h-124v516h124v-516zM246 613q-28 0 -46 18t-18 46t18 45.5t46 17.5q29 0 47 -17.5t18 -45.5t-18 -46t-47 -18zM17 613q-28 0 -46 18t-18 46t18 45.5t46 17.5q29 0 47 -17.5t18 -45.5t-18 -46t-47 -18z" />
    <glyph glyph-name="eth" unicode="&#xf0;" horiz-adv-x="625" 
d="M310 -13q-78 0 -138 32t-93.5 89.5t-33.5 131.5q0 72 31 129t85.5 89.5t122.5 32.5q96 0 147 -64q-31 87 -104 161l-163 -64l-28 74l124 49q-35 27 -77 52l95 54q48 -29 90 -64l135 53l28 -74l-100 -39q72 -78 110.5 -171t38.5 -191q0 -83 -34 -146.5t-94.5 -98.5
t-141.5 -35zM313 90q63 0 102 41.5t39 108.5t-39 108.5t-102 41.5q-64 0 -103 -41.5t-39 -108.5t39 -108.5t103 -41.5z" />
    <glyph glyph-name="ntilde" unicode="&#xf1;" horiz-adv-x="605" 
d="M539 312v-312h-124v291q0 129 -100 129q-56 0 -88.5 -36.5t-32.5 -101.5v-282h-124v516h111l4 -84q21 46 64.5 71.5t99.5 25.5q90 0 140 -56t50 -161zM297 641q-20 17 -32 23t-23 6q-22 0 -31.5 -16.5t-10.5 -53.5l-83 11q2 69 32.5 105.5t86.5 36.5q26 0 47 -9t49 -32
q21 -17 33 -23.5t23 -6.5q22 0 31.5 17t10.5 54l83 -11q-1 -70 -32 -106t-87 -36q-26 0 -47.5 9t-49.5 32z" />
    <glyph glyph-name="ograve" unicode="&#xf2;" horiz-adv-x="626" 
d="M313 -13q-78 0 -138.5 35t-95 96t-34.5 140t34.5 140t95 96t138.5 35q79 0 139 -35t94.5 -96t34.5 -140t-34.5 -140t-94.5 -96t-139 -35zM313 93q64 0 102.5 45.5t38.5 119.5t-38.5 119.5t-102.5 45.5t-102.5 -45.5t-38.5 -119.5t38.5 -119.5t102.5 -45.5zM289 599
l-151 155h138l124 -155h-111z" />
    <glyph glyph-name="oacute" unicode="&#xf3;" horiz-adv-x="626" 
d="M313 -13q-78 0 -138.5 35t-95 96t-34.5 140t34.5 140t95 96t138.5 35q79 0 139 -35t94.5 -96t34.5 -140t-34.5 -140t-94.5 -96t-139 -35zM313 93q64 0 102.5 45.5t38.5 119.5t-38.5 119.5t-102.5 45.5t-102.5 -45.5t-38.5 -119.5t38.5 -119.5t102.5 -45.5zM337 599h-111
l124 155h138z" />
    <glyph glyph-name="ocircumflex" unicode="&#xf4;" horiz-adv-x="626" 
d="M313 -13q-78 0 -138.5 35t-95 96t-34.5 140t34.5 140t95 96t138.5 35q79 0 139 -35t94.5 -96t34.5 -140t-34.5 -140t-94.5 -96t-139 -35zM313 93q64 0 102.5 45.5t38.5 119.5t-38.5 119.5t-102.5 45.5t-102.5 -45.5t-38.5 -119.5t38.5 -119.5t102.5 -45.5zM235 599h-108
l131 155h110l131 -155h-110l-77 83z" />
    <glyph glyph-name="otilde" unicode="&#xf5;" horiz-adv-x="626" 
d="M313 -13q-78 0 -138.5 35t-95 96t-34.5 140t34.5 140t95 96t138.5 35q79 0 139 -35t94.5 -96t34.5 -140t-34.5 -140t-94.5 -96t-139 -35zM313 93q64 0 102.5 45.5t38.5 119.5t-38.5 119.5t-102.5 45.5t-102.5 -45.5t-38.5 -119.5t38.5 -119.5t102.5 -45.5zM295 641
q-20 17 -32 23t-23 6q-22 0 -31.5 -16.5t-10.5 -53.5l-83 11q2 69 32.5 105.5t86.5 36.5q26 0 47 -9t49 -32q21 -17 33 -23.5t23 -6.5q22 0 31.5 17t10.5 54l83 -11q-1 -70 -32 -106t-87 -36q-26 0 -47.5 9t-49.5 32z" />
    <glyph glyph-name="odieresis" unicode="&#xf6;" horiz-adv-x="626" 
d="M313 -13q-78 0 -138.5 35t-95 96t-34.5 140t34.5 140t95 96t138.5 35q79 0 139 -35t94.5 -96t34.5 -140t-34.5 -140t-94.5 -96t-139 -35zM313 93q64 0 102.5 45.5t38.5 119.5t-38.5 119.5t-102.5 45.5t-102.5 -45.5t-38.5 -119.5t38.5 -119.5t102.5 -45.5zM427 613
q-28 0 -46 18t-18 46t18 45.5t46 17.5q29 0 47 -17.5t18 -45.5t-18 -46t-47 -18zM198 613q-28 0 -46 18t-18 46t18 45.5t46 17.5q29 0 47 -17.5t18 -45.5t-18 -46t-47 -18z" />
    <glyph glyph-name="divide" unicode="&#xf7;" horiz-adv-x="612" 
d="M306 461q-32 0 -53.5 21t-21.5 53t21.5 52.5t53.5 20.5t53.5 -20.5t21.5 -52.5t-21.5 -53t-53.5 -21zM544 291h-476v101h476v-101zM306 75q-32 0 -53.5 21t-21.5 53t21.5 52.5t53.5 20.5t53.5 -20.5t21.5 -52.5t-21.5 -53t-53.5 -21z" />
    <glyph glyph-name="oslash" unicode="&#xf8;" horiz-adv-x="626" 
d="M313 -13q-73 0 -132 31l-46 -58l-65 52l45 57q-33 36 -51.5 84t-18.5 105q0 79 34.5 140t95 96t138.5 35q73 0 133 -32l45 59l65 -51l-45 -58q33 -36 51.5 -84t18.5 -105q0 -79 -34.5 -140t-94.5 -96t-139 -35zM172 258q0 -53 21 -93l187 241q-30 17 -67 17
q-64 0 -102.5 -45.5t-38.5 -119.5zM313 93q64 0 102.5 45.5t38.5 119.5q0 52 -20 92l-187 -241q29 -16 66 -16z" />
    <glyph glyph-name="ugrave" unicode="&#xf9;" horiz-adv-x="599" 
d="M418 0l-4 84q-21 -47 -63.5 -72t-97.5 -25q-89 0 -138 56t-49 161v312h124v-292q0 -128 97 -128q55 0 86.5 37t31.5 101v282h124v-516h-111zM273 599l-151 155h138l124 -155h-111z" />
    <glyph glyph-name="uacute" unicode="&#xfa;" horiz-adv-x="599" 
d="M418 0l-4 84q-21 -47 -63.5 -72t-97.5 -25q-89 0 -138 56t-49 161v312h124v-292q0 -128 97 -128q55 0 86.5 37t31.5 101v282h124v-516h-111zM321 599h-111l124 155h138z" />
    <glyph glyph-name="ucircumflex" unicode="&#xfb;" horiz-adv-x="599" 
d="M418 0l-4 84q-21 -47 -63.5 -72t-97.5 -25q-89 0 -138 56t-49 161v312h124v-292q0 -128 97 -128q55 0 86.5 37t31.5 101v282h124v-516h-111zM219 599h-108l131 155h110l131 -155h-110l-77 83z" />
    <glyph glyph-name="udieresis" unicode="&#xfc;" horiz-adv-x="599" 
d="M418 0l-4 84q-21 -47 -63.5 -72t-97.5 -25q-89 0 -138 56t-49 161v312h124v-292q0 -128 97 -128q55 0 86.5 37t31.5 101v282h124v-516h-111zM411 613q-28 0 -46 18t-18 46t18 45.5t46 17.5q29 0 47 -17.5t18 -45.5t-18 -46t-47 -18zM182 613q-28 0 -46 18t-18 46t18 45.5
t46 17.5q29 0 47 -17.5t18 -45.5t-18 -46t-47 -18z" />
    <glyph glyph-name="yacute" unicode="&#xfd;" horiz-adv-x="571" 
d="M113 -124q29 0 47 9.5t32 32.5t31 63l7 18l-221 517h136l147 -391l139 391h131l-222 -545q-29 -71 -59 -115.5t-68 -64.5t-91 -20q-28 0 -49 5t-40 15l13 100q25 -15 67 -15zM309 599h-111l124 155h138z" />
    <glyph glyph-name="thorn" unicode="&#xfe;" horiz-adv-x="642" 
d="M70 -216v956h124v-298q26 41 70.5 64t100.5 23q67 0 119.5 -35.5t82.5 -96.5t30 -139q0 -77 -31.5 -138.5t-86 -97t-124.5 -35.5q-52 0 -93.5 20.5t-67.5 56.5v-280h-124zM329 93q63 0 102 45.5t39 119.5t-38.5 119.5t-101.5 45.5q-64 0 -104 -45.5t-40 -119.5
t39.5 -119.5t103.5 -45.5z" />
    <glyph glyph-name="ydieresis" unicode="&#xff;" horiz-adv-x="571" 
d="M113 -124q29 0 47 9.5t32 32.5t31 63l7 18l-221 517h136l147 -391l139 391h131l-222 -545q-29 -71 -59 -115.5t-68 -64.5t-91 -20q-28 0 -49 5t-40 15l13 100q25 -15 67 -15zM399 613q-28 0 -46 18t-18 46t18 45.5t46 17.5q29 0 47 -17.5t18 -45.5t-18 -46t-47 -18z
M170 613q-28 0 -46 18t-18 46t18 45.5t46 17.5q29 0 47 -17.5t18 -45.5t-18 -46t-47 -18z" />
    <glyph glyph-name="Amacron" unicode="&#x100;" horiz-adv-x="724" 
d="M150 0h-137l282 700h134l282 -700h-142l-62 169h-294zM252 276h215l-107 291zM168 879h388v-86h-388v86z" />
    <glyph glyph-name="amacron" unicode="&#x101;" horiz-adv-x="567" 
d="M394 0l-4 75q-22 -41 -66.5 -64.5t-104.5 -23.5q-81 0 -129 43t-48 115q0 90 70.5 132.5t224.5 44.5l45 1q-3 106 -121 106q-46 0 -84 -11t-82 -39l-23 96q44 28 95 41t106 13q110 0 169 -54.5t59 -156.5v-318h-107zM253 83q61 0 95 36t34 98v26l-36 -1q-100 -1 -143 -21
t-43 -67q0 -33 24.5 -52t68.5 -19zM102 720h348v-85h-348v85z" />
    <glyph glyph-name="Abreve" unicode="&#x102;" horiz-adv-x="724" 
d="M150 0h-137l282 700h134l282 -700h-142l-62 169h-294zM252 276h215l-107 291zM362 771q-78 0 -126.5 35t-50.5 92l88 10q6 -62 89 -62t89 62l88 -10q-1 -57 -50 -92t-127 -35z" />
    <glyph glyph-name="abreve" unicode="&#x103;" horiz-adv-x="567" 
d="M394 0l-4 75q-22 -41 -66.5 -64.5t-104.5 -23.5q-81 0 -129 43t-48 115q0 90 70.5 132.5t224.5 44.5l45 1q-3 106 -121 106q-46 0 -84 -11t-82 -39l-23 96q44 28 95 41t106 13q110 0 169 -54.5t59 -156.5v-318h-107zM253 83q61 0 95 36t34 98v26l-36 -1q-100 -1 -143 -21
t-43 -67q0 -33 24.5 -52t68.5 -19zM276 600q-73 0 -118.5 39t-47.5 102l84 10q6 -77 82 -77t82 77l84 -10q-1 -63 -46.5 -102t-119.5 -39z" />
    <glyph glyph-name="Aogonek" unicode="&#x104;" horiz-adv-x="724" 
d="M150 0h-137l282 700h134l282 -700h-142l-62 169h-294zM252 276h215l-107 291zM636 -158q31 0 60 13l15 -66q-42 -18 -91 -18q-59 0 -92 24.5t-33 67.5q0 50 44.5 92t125.5 72l46 -27q-64 -25 -98.5 -54.5t-34.5 -61.5q0 -42 58 -42z" />
    <glyph glyph-name="aogonek" unicode="&#x105;" horiz-adv-x="567" 
d="M394 0l-4 75q-22 -41 -66.5 -64.5t-104.5 -23.5q-81 0 -129 43t-48 115q0 90 70.5 132.5t224.5 44.5l45 1q-3 106 -121 106q-46 0 -84 -11t-82 -39l-23 96q44 28 95 41t106 13q110 0 169 -54.5t59 -156.5v-318h-107zM253 83q61 0 95 36t34 98v26l-36 -1q-100 -1 -143 -21
t-43 -67q0 -33 24.5 -52t68.5 -19zM430 -160q29 0 56 13l15 -64q-40 -18 -87 -18q-58 0 -89 24.5t-31 66.5q0 50 42.5 92t121.5 73l43 -27q-61 -25 -93.5 -55.5t-32.5 -62.5q0 -42 55 -42z" />
    <glyph glyph-name="Cacute" unicode="&#x106;" horiz-adv-x="695" 
d="M184 352q0 -119 66 -187t182 -68q94 0 196 53l24 -109q-47 -27 -107.5 -42t-122.5 -15q-114 0 -197.5 44.5t-129.5 126t-46 191.5q0 108 47 191.5t131.5 131t198.5 47.5q56 0 114 -14t104 -38l-25 -112q-91 51 -188 51q-75 0 -130.5 -31t-86 -87t-30.5 -133zM452 772
h-132l146 129h156z" />
    <glyph glyph-name="cacute" unicode="&#x107;" horiz-adv-x="535" 
d="M45 254q0 81 36 143t100.5 97t151.5 35q41 0 82.5 -10.5t73.5 -27.5l-23 -102q-62 34 -129 34q-75 0 -120 -44.5t-45 -119.5q0 -78 44 -122t122 -44q32 0 65 8.5t69 27.5l23 -100q-34 -20 -77.5 -31t-88.5 -11q-87 0 -150.5 33t-98.5 93t-35 141zM342 599h-111l124 155
h138z" />
    <glyph glyph-name="Cdotaccent" unicode="&#x10a;" horiz-adv-x="695" 
d="M184 352q0 -119 66 -187t182 -68q94 0 196 53l24 -109q-47 -27 -107.5 -42t-122.5 -15q-114 0 -197.5 44.5t-129.5 126t-46 191.5q0 108 47 191.5t131.5 131t198.5 47.5q56 0 114 -14t104 -38l-25 -112q-91 51 -188 51q-75 0 -130.5 -31t-86 -87t-30.5 -133zM421 772
q-30 0 -49.5 19t-19.5 49q0 29 19.5 48t49.5 19t49.5 -19t19.5 -48q0 -30 -19.5 -49t-49.5 -19z" />
    <glyph glyph-name="cdotaccent" unicode="&#x10b;" horiz-adv-x="535" 
d="M45 254q0 81 36 143t100.5 97t151.5 35q41 0 82.5 -10.5t73.5 -27.5l-23 -102q-62 34 -129 34q-75 0 -120 -44.5t-45 -119.5q0 -78 44 -122t122 -44q32 0 65 8.5t69 27.5l23 -100q-34 -20 -77.5 -31t-88.5 -11q-87 0 -150.5 33t-98.5 93t-35 141zM318 610q-29 0 -48.5 19
t-19.5 48t19.5 47.5t48.5 18.5t48.5 -18.5t19.5 -47.5t-19.5 -48t-48.5 -19z" />
    <glyph glyph-name="Ccaron" unicode="&#x10c;" horiz-adv-x="695" 
d="M184 352q0 -119 66 -187t182 -68q94 0 196 53l24 -109q-47 -27 -107.5 -42t-122.5 -15q-114 0 -197.5 44.5t-129.5 126t-46 191.5q0 108 47 191.5t131.5 131t198.5 47.5q56 0 114 -14t104 -38l-25 -112q-91 51 -188 51q-75 0 -130.5 -31t-86 -87t-30.5 -133zM500 901h128
l-147 -129h-120l-147 129h130l78 -63z" />
    <glyph glyph-name="ccaron" unicode="&#x10d;" horiz-adv-x="535" 
d="M45 254q0 81 36 143t100.5 97t151.5 35q41 0 82.5 -10.5t73.5 -27.5l-23 -102q-62 34 -129 34q-75 0 -120 -44.5t-45 -119.5q0 -78 44 -122t122 -44q32 0 65 8.5t69 27.5l23 -100q-34 -20 -77.5 -31t-88.5 -11q-87 0 -150.5 33t-98.5 93t-35 141zM396 754h108l-131 -155
h-110l-131 155h110l77 -82z" />
    <glyph glyph-name="Dcaron" unicode="&#x10e;" horiz-adv-x="764" 
d="M342 0h-261v700h261q115 0 198.5 -42.5t129 -121t45.5 -186.5t-45.5 -186.5t-129 -121t-198.5 -42.5zM330 111q121 0 185.5 62t64.5 177q0 116 -64.5 177.5t-185.5 61.5h-120v-478h120zM421 901h128l-147 -129h-120l-147 129h130l78 -63z" />
    <glyph glyph-name="dcaron" unicode="&#x10f;" horiz-adv-x="764" 
d="M46 258q0 78 31.5 139t86 96.5t123.5 35.5q53 0 94.5 -21t67.5 -59v291h124v-740h-111l-4 87q-26 -47 -73 -73.5t-107 -26.5q-67 0 -119.5 35.5t-82.5 96.5t-30 139zM457 258q0 74 -40 119.5t-103 45.5q-64 0 -102.5 -45.5t-38.5 -119.5q0 -73 38 -119t101 -46
q65 0 105 45.5t40 119.5zM644 540q5 47 7.5 95t3.5 105h110q-4 -61 -11 -108.5t-18 -91.5h-92z" />
    <glyph glyph-name="Dcroat" unicode="&#x110;" horiz-adv-x="784" 
d="M362 0h-261v317h-83v97h83v286h261q115 0 198.5 -42.5t129 -121t45.5 -186.5t-45.5 -186.5t-129 -121t-198.5 -42.5zM350 111q121 0 185.5 62t64.5 177q0 116 -64.5 177.5t-185.5 61.5h-120v-175h176v-97h-176v-206h120z" />
    <glyph glyph-name="dcroat" unicode="&#x111;" horiz-adv-x="656" 
d="M45 252q0 76 31.5 136t86 94.5t123.5 34.5q53 0 94.5 -21t67.5 -58v146h-177v80h177v76h124v-76h71v-80h-71v-584h-111l-4 85q-26 -46 -73 -72t-107 -26q-67 0 -119.5 34.5t-82.5 94.5t-30 136zM456 252q0 71 -40 115t-103 44q-64 0 -102.5 -44t-38.5 -115
q0 -70 38 -114.5t101 -44.5q65 0 105 44t40 115z" />
    <glyph glyph-name="Emacron" unicode="&#x112;" horiz-adv-x="606" 
d="M81 0v700h463l13 -109h-348v-181h317v-109h-317v-192h368l-13 -109h-483zM134 879h388v-86h-388v86z" />
    <glyph glyph-name="emacron" unicode="&#x113;" horiz-adv-x="579" 
d="M490 132l22 -97q-41 -23 -90.5 -35.5t-105.5 -12.5q-81 0 -142 33t-95 94t-34 143q0 80 33 141.5t90.5 96t132.5 34.5q113 0 174.5 -71.5t61.5 -200.5q0 -8 -0.5 -17.5t-2.5 -17.5h-367q9 -62 50 -98t112 -36q46 0 82.5 10t78.5 34zM298 434q-51 0 -85 -33t-44 -95h251
q-8 65 -37.5 96.5t-84.5 31.5zM127 720h348v-85h-348v85z" />
    <glyph glyph-name="Edotaccent" unicode="&#x116;" horiz-adv-x="606" 
d="M81 0v700h463l13 -109h-348v-181h317v-109h-317v-192h368l-13 -109h-483zM328 772q-30 0 -49.5 19t-19.5 49q0 29 19.5 48t49.5 19t49.5 -19t19.5 -48q0 -30 -19.5 -49t-49.5 -19z" />
    <glyph glyph-name="edotaccent" unicode="&#x117;" horiz-adv-x="579" 
d="M490 132l22 -97q-41 -23 -90.5 -35.5t-105.5 -12.5q-81 0 -142 33t-95 94t-34 143q0 80 33 141.5t90.5 96t132.5 34.5q113 0 174.5 -71.5t61.5 -200.5q0 -8 -0.5 -17.5t-2.5 -17.5h-367q9 -62 50 -98t112 -36q46 0 82.5 10t78.5 34zM298 434q-51 0 -85 -33t-44 -95h251
q-8 65 -37.5 96.5t-84.5 31.5zM301 610q-29 0 -48.5 19t-19.5 48t19.5 47.5t48.5 18.5t48.5 -18.5t19.5 -47.5t-19.5 -48t-48.5 -19z" />
    <glyph glyph-name="Eogonek" unicode="&#x118;" horiz-adv-x="606" 
d="M81 0v700h463l13 -109h-348v-181h317v-109h-317v-192h368l-13 -109h-483zM489 -158q31 0 60 13l15 -66q-42 -18 -91 -18q-59 0 -92 24.5t-33 67.5q0 50 44.5 92t125.5 72l46 -27q-64 -25 -98.5 -54.5t-34.5 -61.5q0 -42 58 -42z" />
    <glyph glyph-name="eogonek" unicode="&#x119;" horiz-adv-x="579" 
d="M490 132l22 -97q-41 -23 -90.5 -35.5t-105.5 -12.5q-81 0 -142 33t-95 94t-34 143q0 80 33 141.5t90.5 96t132.5 34.5q113 0 174.5 -71.5t61.5 -200.5q0 -8 -0.5 -17.5t-2.5 -17.5h-367q9 -62 50 -98t112 -36q46 0 82.5 10t78.5 34zM298 434q-51 0 -85 -33t-44 -95h251
q-8 65 -37.5 96.5t-84.5 31.5zM250 -138q0 56 49 103.5t139 81.5l44 -27q-73 -30 -112 -65t-39 -73q0 -42 55 -42q29 0 56 13l15 -64q-40 -18 -87 -18q-58 0 -89 24.5t-31 66.5z" />
    <glyph glyph-name="Ecaron" unicode="&#x11a;" horiz-adv-x="606" 
d="M81 0v700h463l13 -109h-348v-181h317v-109h-317v-192h368l-13 -109h-483zM407 901h128l-147 -129h-120l-147 129h130l78 -63z" />
    <glyph glyph-name="ecaron" unicode="&#x11b;" horiz-adv-x="579" 
d="M490 132l22 -97q-41 -23 -90.5 -35.5t-105.5 -12.5q-81 0 -142 33t-95 94t-34 143q0 80 33 141.5t90.5 96t132.5 34.5q113 0 174.5 -71.5t61.5 -200.5q0 -8 -0.5 -17.5t-2.5 -17.5h-367q9 -62 50 -98t112 -36q46 0 82.5 10t78.5 34zM298 434q-51 0 -85 -33t-44 -95h251
q-8 65 -37.5 96.5t-84.5 31.5zM379 754h108l-131 -155h-110l-131 155h110l77 -82z" />
    <glyph glyph-name="Gbreve" unicode="&#x11e;" horiz-adv-x="756" 
d="M672 662l-25 -112q-100 53 -201 53q-80 0 -139 -30.5t-91 -87t-32 -133.5q0 -120 70 -188t193 -68q65 0 124 14v173h-154v101h274v-351q-122 -49 -255 -49q-117 0 -204 44.5t-135 126t-48 191.5q0 108 48.5 191.5t137 131t206.5 47.5q60 0 122 -14.5t109 -39.5zM436 771
q-78 0 -126.5 35t-50.5 92l88 10q6 -62 89 -62t89 62l88 -10q-1 -57 -50 -92t-127 -35z" />
    <glyph glyph-name="gbreve" unicode="&#x11f;" horiz-adv-x="642" 
d="M88 -179l25 100q33 -20 78 -33t91 -13q85 0 125.5 41.5t40.5 125.5v45q-26 -41 -70 -64t-101 -23q-67 0 -119.5 34.5t-82.5 94.5t-30 136q0 75 31.5 134.5t86 94.5t123.5 35q58 0 102 -24.5t69 -68.5l4 80h111v-461q0 -284 -287 -284q-56 0 -110 14t-87 36zM456 265
q0 71 -40 114.5t-103 43.5q-64 0 -102.5 -43.5t-38.5 -114.5q0 -70 38 -114.5t101 -44.5q65 0 105 43.5t40 115.5zM315 600q-73 0 -118.5 39t-47.5 102l84 10q6 -77 82 -77t82 77l84 -10q-1 -63 -46.5 -102t-119.5 -39z" />
    <glyph glyph-name="Gdotaccent" unicode="&#x120;" horiz-adv-x="756" 
d="M672 662l-25 -112q-100 53 -201 53q-80 0 -139 -30.5t-91 -87t-32 -133.5q0 -120 70 -188t193 -68q65 0 124 14v173h-154v101h274v-351q-122 -49 -255 -49q-117 0 -204 44.5t-135 126t-48 191.5q0 108 48.5 191.5t137 131t206.5 47.5q60 0 122 -14.5t109 -39.5zM436 772
q-30 0 -49.5 19t-19.5 49q0 29 19.5 48t49.5 19t49.5 -19t19.5 -48q0 -30 -19.5 -49t-49.5 -19z" />
    <glyph glyph-name="gdotaccent" unicode="&#x121;" horiz-adv-x="642" 
d="M88 -179l25 100q33 -20 78 -33t91 -13q85 0 125.5 41.5t40.5 125.5v45q-26 -41 -70 -64t-101 -23q-67 0 -119.5 34.5t-82.5 94.5t-30 136q0 75 31.5 134.5t86 94.5t123.5 35q58 0 102 -24.5t69 -68.5l4 80h111v-461q0 -284 -287 -284q-56 0 -110 14t-87 36zM456 265
q0 71 -40 114.5t-103 43.5q-64 0 -102.5 -43.5t-38.5 -114.5q0 -70 38 -114.5t101 -44.5q65 0 105 43.5t40 115.5zM315 610q-29 0 -48.5 19t-19.5 48t19.5 47.5t48.5 18.5t48.5 -18.5t19.5 -47.5t-19.5 -48t-48.5 -19z" />
    <glyph glyph-name="uni0122" unicode="&#x122;" horiz-adv-x="756" 
d="M672 662l-25 -112q-100 53 -201 53q-80 0 -139 -30.5t-91 -87t-32 -133.5q0 -120 70 -188t193 -68q65 0 124 14v173h-154v101h274v-351q-122 -49 -255 -49q-117 0 -204 44.5t-135 126t-48 191.5q0 108 48.5 191.5t137 131t206.5 47.5q60 0 122 -14.5t109 -39.5zM368 -124
q0 26 19 42.5t48 16.5q33 0 51 -18t18 -51q0 -44 -31.5 -80t-84.5 -53l-30 40q52 14 77 48q-5 -1 -9 -1q-25 0 -41.5 15.5t-16.5 40.5z" />
    <glyph glyph-name="uni0123" unicode="&#x123;" horiz-adv-x="642" 
d="M88 -179l25 100q33 -20 78 -33t91 -13q85 0 125.5 41.5t40.5 125.5v45q-26 -41 -70 -64t-101 -23q-67 0 -119.5 34.5t-82.5 94.5t-30 136q0 75 31.5 134.5t86 94.5t123.5 35q58 0 102 -24.5t69 -68.5l4 80h111v-461q0 -284 -287 -284q-56 0 -110 14t-87 36zM456 265
q0 71 -40 114.5t-103 43.5q-64 0 -102.5 -43.5t-38.5 -114.5q0 -70 38 -114.5t101 -44.5q65 0 105 43.5t40 115.5zM325 712q25 0 41 -15t16 -40t-18.5 -41.5t-47.5 -16.5q-32 0 -50 18t-18 51q0 44 31.5 80.5t84.5 52.5l29 -39q-55 -14 -79 -51q6 1 11 1z" />
    <glyph glyph-name="Hbar" unicode="&#x126;" horiz-adv-x="789" 
d="M688 0h-130v288h-327v-288h-130v506h-83v90h83v104h130v-104h327v104h130v-104h83v-90h-83v-506zM231 401h327v105h-327v-105z" />
    <glyph glyph-name="hbar" unicode="&#x127;" horiz-adv-x="619" 
d="M385 664v-80h-177v-149q23 39 63.5 60.5t91.5 21.5q90 0 140 -56t50 -161v-300h-124v279q0 129 -100 129q-56 0 -88.5 -36.5t-32.5 -101.5v-270h-124v584h-71v80h71v76h124v-76h177z" />
    <glyph glyph-name="Itilde" unicode="&#x128;" horiz-adv-x="292" 
d="M211 700v-700h-130v700h130zM70 827q-43 0 -43 -56l-86 10q2 62 33 95.5t89 33.5q32 0 55 -8.5t50 -26.5q17 -12 29 -16.5t25 -4.5q23 0 33 13t10 43l86 -11q-1 -62 -32.5 -95t-89.5 -33q-31 0 -55 8.5t-51 26.5q-16 12 -28 16.5t-25 4.5z" />
    <glyph glyph-name="itilde" unicode="&#x129;" horiz-adv-x="264" 
d="M194 0h-124v516h124v-516zM114 641q-20 17 -32 23t-23 6q-22 0 -31.5 -16.5t-10.5 -53.5l-83 11q2 69 32.5 105.5t86.5 36.5q26 0 47 -9t49 -32q21 -17 33 -23.5t23 -6.5q22 0 31.5 17t10.5 54l83 -11q-1 -70 -32 -106t-87 -36q-26 0 -47.5 9t-49.5 32z" />
    <glyph glyph-name="Imacron" unicode="&#x12a;" horiz-adv-x="292" 
d="M211 700v-700h-130v700h130zM-48 879h388v-86h-388v86z" />
    <glyph glyph-name="imacron" unicode="&#x12b;" horiz-adv-x="264" 
d="M194 0h-124v516h124v-516zM-42 720h348v-85h-348v85z" />
    <glyph glyph-name="Iogonek" unicode="&#x12e;" horiz-adv-x="292" 
d="M211 700v-700h-130v700h130zM136 -158q31 0 60 13l15 -66q-42 -18 -91 -18q-59 0 -92 24.5t-33 67.5q0 50 44.5 92t125.5 72l46 -27q-64 -25 -98.5 -54.5t-34.5 -61.5q0 -42 58 -42z" />
    <glyph glyph-name="iogonek" unicode="&#x12f;" horiz-adv-x="264" 
d="M132 601q-34 0 -56 21t-22 54t22 54t56 21q35 0 56.5 -21t21.5 -54t-21.5 -54t-56.5 -21zM194 0h-124v516h124v-516zM123 -160q29 0 56 13l15 -64q-40 -18 -87 -18q-58 0 -89 24.5t-31 66.5q0 50 42.5 92t121.5 73l43 -27q-61 -25 -93.5 -55.5t-32.5 -62.5q0 -42 55 -42z
" />
    <glyph glyph-name="Idotaccent" unicode="&#x130;" horiz-adv-x="292" 
d="M211 700v-700h-130v700h130zM146 772q-30 0 -49.5 19t-19.5 49q0 29 19.5 48t49.5 19t49.5 -19t19.5 -48q0 -30 -19.5 -49t-49.5 -19z" />
    <glyph glyph-name="dotlessi" unicode="&#x131;" horiz-adv-x="264" 
d="M194 0h-124v516h124v-516z" />
    <glyph glyph-name="IJ" unicode="&#x132;" horiz-adv-x="684" 
d="M211 224h-130v476h130v-476zM87 43l27 106q37 -25 84 -39.5t94 -14.5q100 0 143 52t43 167v386h130v-395q0 -321 -310 -321q-62 0 -119.5 16.5t-91.5 42.5z" />
    <glyph glyph-name="ij" unicode="&#x133;" horiz-adv-x="599" 
d="M128 601q-34 0 -56 21t-22 54t22 54t56 21q35 0 56.5 -21t21.5 -54t-21.5 -54t-56.5 -21zM467 601q-34 0 -56 21t-22 54t22 54t56 21q35 0 56.5 -21t21.5 -54t-21.5 -54t-56.5 -21zM405 247v269h124v-476q0 -269 -272 -269q-53 0 -103 13t-82 34l25 100q31 -19 72.5 -31
t84.5 -12q77 0 114 38t37 114v53q-23 -38 -62.5 -59t-89.5 -21q-89 0 -138 56t-49 161v299h124v-279q0 -128 97 -128q55 0 86.5 37t31.5 101z" />
    <glyph glyph-name="uni0136" unicode="&#x136;" horiz-adv-x="705" 
d="M81 0v700h130v-334l292 334h155l-262 -291l295 -409h-157l-223 314l-100 -112v-202h-130zM311 -124q0 26 19 42.5t48 16.5q33 0 51 -18t18 -51q0 -44 -31.5 -80t-84.5 -53l-30 40q52 14 77 48q-5 -1 -9 -1q-25 0 -41.5 15.5t-16.5 40.5z" />
    <glyph glyph-name="uni0137" unicode="&#x137;" horiz-adv-x="585" 
d="M554 516l-198 -198l220 -318h-147l-157 234l-78 -78v-156h-124v740h124v-443l211 219h149zM305 -178q-25 0 -41 15t-16 40q0 26 18.5 42t47.5 16q32 0 50 -18t18 -51q0 -44 -31.5 -80t-84.5 -53l-29 39q55 14 79 51q-6 -1 -11 -1z" />
    <glyph glyph-name="Lacute" unicode="&#x139;" horiz-adv-x="574" 
d="M81 0v700h130v-587h352l-14 -113h-468zM177 772h-132l146 129h156z" />
    <glyph glyph-name="lacute" unicode="&#x13a;" horiz-adv-x="264" 
d="M194 740v-740h-124v740h124zM163 817h-132l146 129h156z" />
    <glyph glyph-name="uni013B" unicode="&#x13b;" horiz-adv-x="574" 
d="M81 0v700h130v-587h352l-14 -113h-468zM267 -124q0 26 19 42.5t48 16.5q33 0 51 -18t18 -51q0 -44 -31.5 -80t-84.5 -53l-30 40q52 14 77 48q-5 -1 -9 -1q-25 0 -41.5 15.5t-16.5 40.5z" />
    <glyph glyph-name="uni013C" unicode="&#x13c;" horiz-adv-x="264" 
d="M194 740v-740h-124v740h124zM122 -178q-25 0 -41 15t-16 40q0 26 18.5 42t47.5 16q32 0 50 -18t18 -51q0 -44 -31.5 -80t-84.5 -53l-29 39q55 14 79 51q-6 -1 -11 -1z" />
    <glyph glyph-name="Lcaron" unicode="&#x13d;" horiz-adv-x="574" 
d="M81 0v700h130v-587h352l-14 -113h-468zM330 500q5 47 7.5 95t3.5 105h110q-4 -61 -11 -108.5t-18 -91.5h-92z" />
    <glyph glyph-name="lcaron" unicode="&#x13e;" horiz-adv-x="386" 
d="M194 740v-740h-124v740h124zM266 540q5 47 7.5 95t3.5 105h110q-4 -61 -11 -108.5t-18 -91.5h-92z" />
    <glyph glyph-name="Ldot" unicode="&#x13f;" horiz-adv-x="574" 
d="M81 0v700h130v-587h352l-14 -113h-468zM434 330q-34 0 -56.5 22t-22.5 55t22.5 54.5t56.5 21.5q35 0 57 -21.5t22 -54.5t-22 -55t-57 -22z" />
    <glyph glyph-name="ldot" unicode="&#x140;" horiz-adv-x="422" 
d="M194 740v-740h-124v740h124zM343 294q-34 0 -56.5 22t-22.5 55t22.5 54.5t56.5 21.5q35 0 57 -21.5t22 -54.5t-22 -55t-57 -22z" />
    <glyph glyph-name="Lslash" unicode="&#x141;" horiz-adv-x="594" 
d="M101 0v241l-83 -42v108l83 42v351h130v-286l205 103v-108l-205 -103v-193h352l-14 -113h-468z" />
    <glyph glyph-name="lslash" unicode="&#x142;" horiz-adv-x="292" 
d="M279 403l-71 -30v-373h-124v320l-71 -30v88l71 30v332h124v-279l71 30v-88z" />
    <glyph glyph-name="Nacute" unicode="&#x143;" horiz-adv-x="747" 
d="M537 0l-332 512v-512h-124v700h133l328 -510v510h124v-700h-129zM414 772h-132l146 129h156z" />
    <glyph glyph-name="nacute" unicode="&#x144;" horiz-adv-x="605" 
d="M539 312v-312h-124v291q0 129 -100 129q-56 0 -88.5 -36.5t-32.5 -101.5v-282h-124v516h111l4 -84q21 46 64.5 71.5t99.5 25.5q90 0 140 -56t50 -161zM339 599h-111l124 155h138z" />
    <glyph glyph-name="uni0145" unicode="&#x145;" horiz-adv-x="747" 
d="M537 0l-332 512v-512h-124v700h133l328 -510v510h124v-700h-129zM315 -124q0 26 19 42.5t48 16.5q33 0 51 -18t18 -51q0 -44 -31.5 -80t-84.5 -53l-30 40q52 14 77 48q-5 -1 -9 -1q-25 0 -41.5 15.5t-16.5 40.5z" />
    <glyph glyph-name="uni0146" unicode="&#x146;" horiz-adv-x="605" 
d="M539 312v-312h-124v291q0 129 -100 129q-56 0 -88.5 -36.5t-32.5 -101.5v-282h-124v516h111l4 -84q21 46 64.5 71.5t99.5 25.5q90 0 140 -56t50 -161zM294 -178q-25 0 -41 15t-16 40q0 26 18.5 42t47.5 16q32 0 50 -18t18 -51q0 -44 -31.5 -80t-84.5 -53l-29 39
q55 14 79 51q-6 -1 -11 -1z" />
    <glyph glyph-name="Ncaron" unicode="&#x147;" horiz-adv-x="747" 
d="M537 0l-332 512v-512h-124v700h133l328 -510v510h124v-700h-129zM462 901h128l-147 -129h-120l-147 129h130l78 -63z" />
    <glyph glyph-name="ncaron" unicode="&#x148;" horiz-adv-x="605" 
d="M539 312v-312h-124v291q0 129 -100 129q-56 0 -88.5 -36.5t-32.5 -101.5v-282h-124v516h111l4 -84q21 46 64.5 71.5t99.5 25.5q90 0 140 -56t50 -161zM393 754h108l-131 -155h-110l-131 155h110l77 -82z" />
    <glyph glyph-name="Eng" unicode="&#x14a;" horiz-adv-x="745" 
d="M314 -200l21 104q26 -12 47 -17.5t49 -5.5q107 0 107 136v395q0 98 -36 144t-113 46q-83 0 -130.5 -53.5t-47.5 -150.5v-398h-130v700h116l5 -109q30 59 89 92t135 33q114 0 178 -73.5t64 -210.5v-428q0 -114 -56 -173.5t-162 -59.5q-78 0 -136 29z" />
    <glyph glyph-name="eng" unicode="&#x14b;" horiz-adv-x="605" 
d="M539 -41q0 -91 -45.5 -139.5t-133.5 -48.5q-31 0 -60 5.5t-54 18.5l20 99q20 -10 36.5 -14t38.5 -4q74 0 74 96v319q0 129 -100 129q-56 0 -88.5 -36.5t-32.5 -101.5v-282h-124v516h111l4 -84q21 46 64.5 71.5t99.5 25.5q90 0 140 -56t50 -161v-353z" />
    <glyph glyph-name="Omacron" unicode="&#x14c;" horiz-adv-x="822" 
d="M411 -16q-79 0 -145.5 27t-115 76t-75 116t-26.5 147t26.5 147t75 116t115 76t145.5 27t145.5 -27t115 -76t75 -116t26.5 -147t-26.5 -147t-75 -116t-115 -76t-145.5 -27zM411 97q68 0 119 32t79.5 89t28.5 132t-28.5 132t-79.5 89t-119 32t-119 -32t-79.5 -89
t-28.5 -132t28.5 -132t79.5 -89t119 -32zM217 879h388v-86h-388v86z" />
    <glyph glyph-name="omacron" unicode="&#x14d;" horiz-adv-x="626" 
d="M313 -13q-78 0 -138.5 35t-95 96t-34.5 140t34.5 140t95 96t138.5 35q79 0 139 -35t94.5 -96t34.5 -140t-34.5 -140t-94.5 -96t-139 -35zM313 93q64 0 102.5 45.5t38.5 119.5t-38.5 119.5t-102.5 45.5t-102.5 -45.5t-38.5 -119.5t38.5 -119.5t102.5 -45.5zM139 720h348
v-85h-348v85z" />
    <glyph glyph-name="Ohungarumlaut" unicode="&#x150;" horiz-adv-x="822" 
d="M411 -16q-79 0 -145.5 27t-115 76t-75 116t-26.5 147t26.5 147t75 116t115 76t145.5 27t145.5 -27t115 -76t75 -116t26.5 -147t-26.5 -147t-75 -116t-115 -76t-145.5 -27zM411 97q68 0 119 32t79.5 89t28.5 132t-28.5 132t-79.5 89t-119 32t-119 -32t-79.5 -89
t-28.5 -132t28.5 -132t79.5 -89t119 -32zM359 772h-127l145 129h152zM589 772h-127l145 129h152z" />
    <glyph glyph-name="ohungarumlaut" unicode="&#x151;" horiz-adv-x="626" 
d="M313 -13q-78 0 -138.5 35t-95 96t-34.5 140t34.5 140t95 96t138.5 35q79 0 139 -35t94.5 -96t34.5 -140t-34.5 -140t-94.5 -96t-139 -35zM313 93q64 0 102.5 45.5t38.5 119.5t-38.5 119.5t-102.5 45.5t-102.5 -45.5t-38.5 -119.5t38.5 -119.5t102.5 -45.5zM255 599h-106
l124 155h134zM455 599h-106l124 155h134z" />
    <glyph glyph-name="OE" unicode="&#x152;" horiz-adv-x="1074" 
d="M49 350q0 110 50 192t140.5 128t209.5 46q35 0 69.5 -4t66.5 -12h427l13 -109h-336v-181h305v-109h-305v-192h356l-13 -109h-447q-32 -7 -66.5 -11.5t-69.5 -4.5q-121 0 -211 45t-139.5 127.5t-49.5 193.5zM184 350q0 -118 72 -185.5t198 -67.5q59 0 107 13v479
q-24 8 -51 11t-56 3q-126 0 -198 -67.5t-72 -185.5z" />
    <glyph glyph-name="oe" unicode="&#x153;" horiz-adv-x="975" 
d="M305 -13q-76 0 -134.5 35t-92 96t-33.5 140t33.5 140t92 96t134.5 35q66 0 117.5 -29t81.5 -79q30 50 81 79t116 29q111 0 171.5 -71.5t60.5 -200.5q0 -8 -0.5 -17.5t-2.5 -17.5h-361q9 -62 49.5 -98t109.5 -36q45 0 81 10t77 34l22 -97q-82 -48 -193 -48
q-71 0 -126 28.5t-86 79.5q-30 -50 -81.5 -79t-116.5 -29zM698 434q-50 0 -83.5 -33t-43.5 -95h245q-8 65 -36 96.5t-82 31.5zM310 93q62 0 100 45.5t38 119.5t-38 119.5t-100 45.5t-100 -45.5t-38 -119.5t38 -119.5t100 -45.5z" />
    <glyph glyph-name="Racute" unicode="&#x154;" horiz-adv-x="666" 
d="M208 263v-263h-127v700h244q83 0 143 -27t92.5 -76t32.5 -116t-35 -116.5t-99 -73.5l176 -291h-144l-153 263h-13h-117zM314 366q72 0 110 30t38 85q0 56 -38 86t-110 30h-106v-231h106zM360 772h-132l146 129h156z" />
    <glyph glyph-name="racute" unicode="&#x155;" horiz-adv-x="408" 
d="M194 249v-249h-124v516h111l5 -103q18 54 57.5 83.5t93.5 29.5q36 0 60 -13l-8 -117q-28 15 -61 15q-63 0 -98.5 -44t-35.5 -118zM269 599h-111l124 155h138z" />
    <glyph glyph-name="uni0156" unicode="&#x156;" horiz-adv-x="666" 
d="M208 263v-263h-127v700h244q83 0 143 -27t92.5 -76t32.5 -116t-35 -116.5t-99 -73.5l176 -291h-144l-153 263h-13h-117zM314 366q72 0 110 30t38 85q0 56 -38 86t-110 30h-106v-231h106zM290 -124q0 26 19 42.5t48 16.5q33 0 51 -18t18 -51q0 -44 -31.5 -80t-84.5 -53
l-30 40q52 14 77 48q-5 -1 -9 -1q-25 0 -41.5 15.5t-16.5 40.5z" />
    <glyph glyph-name="uni0157" unicode="&#x157;" horiz-adv-x="408" 
d="M194 249v-249h-124v516h111l5 -103q18 54 57.5 83.5t93.5 29.5q36 0 60 -13l-8 -117q-28 15 -61 15q-63 0 -98.5 -44t-35.5 -118zM122 -178q-25 0 -41 15t-16 40q0 26 18.5 42t47.5 16q32 0 50 -18t18 -51q0 -44 -31.5 -80t-84.5 -53l-29 39q55 14 79 51q-6 -1 -11 -1z
" />
    <glyph glyph-name="Rcaron" unicode="&#x158;" horiz-adv-x="666" 
d="M208 263v-263h-127v700h244q83 0 143 -27t92.5 -76t32.5 -116t-35 -116.5t-99 -73.5l176 -291h-144l-153 263h-13h-117zM314 366q72 0 110 30t38 85q0 56 -38 86t-110 30h-106v-231h106zM408 901h128l-147 -129h-120l-147 129h130l78 -63z" />
    <glyph glyph-name="rcaron" unicode="&#x159;" horiz-adv-x="408" 
d="M194 249v-249h-124v516h111l5 -103q18 54 57.5 83.5t93.5 29.5q36 0 60 -13l-8 -117q-28 15 -61 15q-63 0 -98.5 -44t-35.5 -118zM323 754h108l-131 -155h-110l-131 155h110l77 -82z" />
    <glyph glyph-name="Sacute" unicode="&#x15a;" horiz-adv-x="607" 
d="M34 54l26 108q62 -38 113 -54.5t113 -16.5q69 0 107.5 24.5t38.5 69.5q0 32 -13.5 52.5t-46.5 35.5t-92 27q-115 25 -169.5 75.5t-54.5 134.5q0 95 71 150.5t192 55.5q65 0 123 -16.5t104 -49.5l-25 -105q-55 35 -99 49.5t-100 14.5q-67 0 -103.5 -23.5t-36.5 -66.5
q0 -28 13 -48t46 -34.5t93 -27.5q118 -25 173 -77t55 -138q0 -64 -32.5 -111t-92.5 -73t-143 -26q-75 0 -141 18t-119 52zM356 772h-132l146 129h156z" />
    <glyph glyph-name="sacute" unicode="&#x15b;" horiz-adv-x="491" 
d="M46 370q0 74 57.5 116.5t157.5 42.5q101 0 177 -49l-24 -96q-40 26 -74 36t-76 10q-96 0 -96 -53q0 -26 20 -40.5t79 -26.5q98 -19 141 -57.5t43 -103.5q0 -74 -59 -118t-160 -44q-116 0 -203 53l25 98q47 -28 85.5 -40t86.5 -12q47 0 74 14.5t27 42.5t-21.5 42.5
t-85.5 27.5q-91 18 -132.5 55.5t-41.5 101.5zM278 599h-111l124 155h138z" />
    <glyph glyph-name="Scedilla" unicode="&#x15e;" horiz-adv-x="607" 
d="M34 54l26 108q62 -38 113 -54.5t113 -16.5q69 0 107.5 24.5t38.5 69.5q0 32 -13.5 52.5t-46.5 35.5t-92 27q-115 25 -169.5 75.5t-54.5 134.5q0 95 71 150.5t192 55.5q65 0 123 -16.5t104 -49.5l-25 -105q-55 35 -99 49.5t-100 14.5q-67 0 -103.5 -23.5t-36.5 -66.5
q0 -28 13 -48t46 -34.5t93 -27.5q118 -25 173 -77t55 -138q0 -64 -32.5 -111t-92.5 -73t-143 -26q-75 0 -141 18t-119 52zM202 -211l16 62q35 -15 80 -15q30 0 47.5 7.5t17.5 23.5q0 28 -64 28q-27 0 -50 -5l33 125h68l-19 -67h4q53 0 82.5 -22t29.5 -63q0 -43 -36.5 -67.5
t-102.5 -24.5q-32 0 -57.5 4.5t-48.5 13.5z" />
    <glyph glyph-name="scedilla" unicode="&#x15f;" horiz-adv-x="491" 
d="M46 370q0 74 57.5 116.5t157.5 42.5q101 0 177 -49l-24 -96q-40 26 -74 36t-76 10q-96 0 -96 -53q0 -26 20 -40.5t79 -26.5q98 -19 141 -57.5t43 -103.5q0 -74 -59 -118t-160 -44q-116 0 -203 53l25 98q47 -28 85.5 -40t86.5 -12q47 0 74 14.5t27 42.5t-21.5 42.5
t-85.5 27.5q-91 18 -132.5 55.5t-41.5 101.5zM147 -212l16 60q17 -7 35 -10.5t41 -3.5q28 0 44.5 8t16.5 24q0 30 -61 30q-26 0 -49 -5l33 124h67l-20 -68h5q50 0 78.5 -22t28.5 -62q0 -43 -35 -67.5t-98 -24.5q-31 0 -55.5 4.5t-46.5 12.5z" />
    <glyph glyph-name="Scaron" unicode="&#x160;" horiz-adv-x="607" 
d="M34 54l26 108q62 -38 113 -54.5t113 -16.5q69 0 107.5 24.5t38.5 69.5q0 32 -13.5 52.5t-46.5 35.5t-92 27q-115 25 -169.5 75.5t-54.5 134.5q0 95 71 150.5t192 55.5q65 0 123 -16.5t104 -49.5l-25 -105q-55 35 -99 49.5t-100 14.5q-67 0 -103.5 -23.5t-36.5 -66.5
q0 -28 13 -48t46 -34.5t93 -27.5q118 -25 173 -77t55 -138q0 -64 -32.5 -111t-92.5 -73t-143 -26q-75 0 -141 18t-119 52zM404 901h128l-147 -129h-120l-147 129h130l78 -63z" />
    <glyph glyph-name="scaron" unicode="&#x161;" horiz-adv-x="491" 
d="M46 370q0 74 57.5 116.5t157.5 42.5q101 0 177 -49l-24 -96q-40 26 -74 36t-76 10q-96 0 -96 -53q0 -26 20 -40.5t79 -26.5q98 -19 141 -57.5t43 -103.5q0 -74 -59 -118t-160 -44q-116 0 -203 53l25 98q47 -28 85.5 -40t86.5 -12q47 0 74 14.5t27 42.5t-21.5 42.5
t-85.5 27.5q-91 18 -132.5 55.5t-41.5 101.5zM332 754h108l-131 -155h-110l-131 155h110l77 -82z" />
    <glyph glyph-name="uni0162" unicode="&#x162;" horiz-adv-x="630" 
d="M18 587v113h594v-113h-232v-587h-130v587h-232zM205 -211l16 62q35 -15 80 -15q30 0 47.5 7.5t17.5 23.5q0 28 -64 28q-27 0 -50 -5l33 125h68l-19 -67h4q53 0 82.5 -22t29.5 -63q0 -43 -36.5 -67.5t-102.5 -24.5q-32 0 -57.5 4.5t-48.5 13.5z" />
    <glyph glyph-name="uni0163" unicode="&#x163;" horiz-adv-x="433" 
d="M298 -10q-179 0 -179 189v237h-108l12 100h96v167h124v-167h151v-100h-151v-223q0 -97 75 -97q21 0 36.5 4.5t37.5 17.5l16 -101q-51 -27 -110 -27zM171 -212l16 60q17 -7 35 -10.5t41 -3.5q28 0 44.5 8t16.5 24q0 30 -61 30q-26 0 -49 -5l33 124h67l-20 -68h5
q50 0 78.5 -22t28.5 -62q0 -43 -35 -67.5t-98 -24.5q-31 0 -55.5 4.5t-46.5 12.5z" />
    <glyph glyph-name="Tcaron" unicode="&#x164;" horiz-adv-x="630" 
d="M18 587v113h594v-113h-232v-587h-130v587h-232zM394 901h128l-147 -129h-120l-147 129h130l78 -63z" />
    <glyph glyph-name="tcaron" unicode="&#x165;" horiz-adv-x="433" 
d="M298 -10q-179 0 -179 189v237h-108l12 100h96v167h124v-167h151v-100h-151v-223q0 -97 75 -97q21 0 36.5 4.5t37.5 17.5l16 -101q-51 -27 -110 -27zM302 566q5 42 7.5 83t3.5 91h110q-4 -54 -11 -95t-18 -79h-92z" />
    <glyph glyph-name="Tbar" unicode="&#x166;" horiz-adv-x="630" 
d="M517 277h-137v-277h-130v277h-137v97h137v213h-232v113h594v-113h-232v-213h137v-97z" />
    <glyph glyph-name="tbar" unicode="&#x167;" horiz-adv-x="433" 
d="M298 -10q-179 0 -179 189v50h-103v80h103v107h-108l12 100h96v167h124v-167h151v-100h-151v-107h151v-80h-151v-36q0 -97 75 -97q21 0 36.5 4.5t37.5 17.5l16 -101q-51 -27 -110 -27z" />
    <glyph glyph-name="Utilde" unicode="&#x168;" horiz-adv-x="736" 
d="M76 281v419h130v-408q0 -195 162 -195t162 195v408h130v-419q0 -140 -78 -218.5t-218 -78.5q-137 0 -212.5 77.5t-75.5 219.5zM292 827q-43 0 -43 -56l-86 10q2 62 33 95.5t89 33.5q32 0 55 -8.5t50 -26.5q17 -12 29 -16.5t25 -4.5q23 0 33 13t10 43l86 -11
q-1 -62 -32.5 -95t-89.5 -33q-31 0 -55 8.5t-51 26.5q-16 12 -28 16.5t-25 4.5z" />
    <glyph glyph-name="utilde" unicode="&#x169;" horiz-adv-x="599" 
d="M418 0l-4 84q-21 -47 -63.5 -72t-97.5 -25q-89 0 -138 56t-49 161v312h124v-292q0 -128 97 -128q55 0 86.5 37t31.5 101v282h124v-516h-111zM279 641q-20 17 -32 23t-23 6q-22 0 -31.5 -16.5t-10.5 -53.5l-83 11q2 69 32.5 105.5t86.5 36.5q26 0 47 -9t49 -32
q21 -17 33 -23.5t23 -6.5q22 0 31.5 17t10.5 54l83 -11q-1 -70 -32 -106t-87 -36q-26 0 -47.5 9t-49.5 32z" />
    <glyph glyph-name="Umacron" unicode="&#x16a;" horiz-adv-x="736" 
d="M76 281v419h130v-408q0 -195 162 -195t162 195v408h130v-419q0 -140 -78 -218.5t-218 -78.5q-137 0 -212.5 77.5t-75.5 219.5zM174 879h388v-86h-388v86z" />
    <glyph glyph-name="umacron" unicode="&#x16b;" horiz-adv-x="599" 
d="M418 0l-4 84q-21 -47 -63.5 -72t-97.5 -25q-89 0 -138 56t-49 161v312h124v-292q0 -128 97 -128q55 0 86.5 37t31.5 101v282h124v-516h-111zM123 720h348v-85h-348v85z" />
    <glyph glyph-name="Uring" unicode="&#x16e;" horiz-adv-x="736" 
d="M76 281v419h130v-408q0 -195 162 -195t162 195v408h130v-419q0 -140 -78 -218.5t-218 -78.5q-137 0 -212.5 77.5t-75.5 219.5zM368 759q-52 0 -85 30.5t-33 77.5t33 77.5t85 30.5t85 -30.5t33 -77.5t-33 -77.5t-85 -30.5zM368 812q26 0 41.5 15.5t15.5 39.5t-15.5 39.5
t-41.5 15.5t-41.5 -15.5t-15.5 -39.5t15.5 -39.5t41.5 -15.5z" />
    <glyph glyph-name="uring" unicode="&#x16f;" horiz-adv-x="599" 
d="M418 0l-4 84q-21 -47 -63.5 -72t-97.5 -25q-89 0 -138 56t-49 161v312h124v-292q0 -128 97 -128q55 0 86.5 37t31.5 101v282h124v-516h-111zM297 586q-49 0 -81.5 31t-32.5 78t32.5 78t81.5 31q50 0 82 -31t32 -78t-32 -78t-82 -31zM297 637q25 0 40 16.5t15 41.5
q0 26 -15 42t-40 16t-40 -16t-15 -42q0 -25 15 -41.5t40 -16.5z" />
    <glyph glyph-name="Uhungarumlaut" unicode="&#x170;" horiz-adv-x="736" 
d="M76 281v419h130v-408q0 -195 162 -195t162 195v408h130v-419q0 -140 -78 -218.5t-218 -78.5q-137 0 -212.5 77.5t-75.5 219.5zM316 772h-127l145 129h152zM546 772h-127l145 129h152z" />
    <glyph glyph-name="uhungarumlaut" unicode="&#x171;" horiz-adv-x="599" 
d="M418 0l-4 84q-21 -47 -63.5 -72t-97.5 -25q-89 0 -138 56t-49 161v312h124v-292q0 -128 97 -128q55 0 86.5 37t31.5 101v282h124v-516h-111zM239 599h-106l124 155h134zM439 599h-106l124 155h134z" />
    <glyph glyph-name="Uogonek" unicode="&#x172;" horiz-adv-x="736" 
d="M76 281v419h130v-408q0 -195 162 -195t162 195v408h130v-419q0 -140 -78 -218.5t-218 -78.5q-137 0 -212.5 77.5t-75.5 219.5zM479 47l46 -27q-76 -29 -116.5 -64t-40.5 -72q0 -42 58 -42q31 0 60 13l15 -66q-42 -18 -91 -18q-59 0 -92 24.5t-33 67.5q0 56 50.5 103
t143.5 81z" />
    <glyph glyph-name="uogonek" unicode="&#x173;" horiz-adv-x="599" 
d="M418 0l-4 84q-21 -47 -63.5 -72t-97.5 -25q-89 0 -138 56t-49 161v312h124v-292q0 -128 97 -128q55 0 86.5 37t31.5 101v282h124v-516h-111zM458 -160q29 0 56 13l15 -64q-40 -18 -87 -18q-58 0 -89 24.5t-31 66.5q0 50 42.5 92t121.5 73l43 -27q-61 -25 -93.5 -55.5
t-32.5 -62.5q0 -42 55 -42z" />
    <glyph glyph-name="Wcircumflex" unicode="&#x174;" horiz-adv-x="1016" 
d="M354 0h-134l-203 700h139l139 -541l151 541h131l150 -539l139 539h133l-203 -700h-133l-155 549zM432 772h-128l147 129h120l147 -129h-130l-78 62z" />
    <glyph glyph-name="wcircumflex" unicode="&#x175;" horiz-adv-x="834" 
d="M307 0h-128l-165 516h131l104 -392l108 392h125l107 -390l103 390h128l-165 -516h-128l-110 394zM342 599h-108l131 155h110l131 -155h-110l-77 83z" />
    <glyph glyph-name="Ycircumflex" unicode="&#x176;" horiz-adv-x="692" 
d="M411 282v-282h-130v282l-266 418h151l183 -315l183 315h145zM274 772h-128l147 129h120l147 -129h-130l-78 62z" />
    <glyph glyph-name="ycircumflex" unicode="&#x177;" horiz-adv-x="571" 
d="M113 -124q29 0 47 9.5t32 32.5t31 63l7 18l-221 517h136l147 -391l139 391h131l-222 -545q-29 -71 -59 -115.5t-68 -64.5t-91 -20q-28 0 -49 5t-40 15l13 100q25 -15 67 -15zM207 599h-108l131 155h110l131 -155h-110l-77 83z" />
    <glyph glyph-name="Ydieresis" unicode="&#x178;" horiz-adv-x="692" 
d="M411 282v-282h-130v282l-266 418h151l183 -315l183 315h145zM475 774q-28 0 -46.5 18.5t-18.5 46.5q0 29 18.5 46.5t46.5 17.5q29 0 47.5 -17.5t18.5 -46.5q0 -28 -18.5 -46.5t-47.5 -18.5zM230 774q-28 0 -46.5 18.5t-18.5 46.5q0 29 18.5 46.5t46.5 17.5
q29 0 47.5 -17.5t18.5 -46.5q0 -28 -18.5 -46.5t-47.5 -18.5z" />
    <glyph glyph-name="Zacute" unicode="&#x179;" horiz-adv-x="660" 
d="M617 109l-13 -109h-555v101l399 490h-382l13 109h525v-101l-397 -490h410zM372 772h-132l146 129h156z" />
    <glyph glyph-name="zacute" unicode="&#x17a;" horiz-adv-x="529" 
d="M489 98l-12 -98h-432v91l287 327h-282l12 98h414v-91l-283 -327h296zM293 599h-111l124 155h138z" />
    <glyph glyph-name="Zdotaccent" unicode="&#x17b;" horiz-adv-x="660" 
d="M617 109l-13 -109h-555v101l399 490h-382l13 109h525v-101l-397 -490h410zM341 772q-30 0 -49.5 19t-19.5 49q0 29 19.5 48t49.5 19t49.5 -19t19.5 -48q0 -30 -19.5 -49t-49.5 -19z" />
    <glyph glyph-name="zdotaccent" unicode="&#x17c;" horiz-adv-x="529" 
d="M489 98l-12 -98h-432v91l287 327h-282l12 98h414v-91l-283 -327h296zM269 610q-29 0 -48.5 19t-19.5 48t19.5 47.5t48.5 18.5t48.5 -18.5t19.5 -47.5t-19.5 -48t-48.5 -19z" />
    <glyph glyph-name="Zcaron" unicode="&#x17d;" horiz-adv-x="660" 
d="M617 109l-13 -109h-555v101l399 490h-382l13 109h525v-101l-397 -490h410zM420 901h128l-147 -129h-120l-147 129h130l78 -63z" />
    <glyph glyph-name="zcaron" unicode="&#x17e;" horiz-adv-x="529" 
d="M489 98l-12 -98h-432v91l287 327h-282l12 98h414v-91l-283 -327h296zM347 754h108l-131 -155h-110l-131 155h110l77 -82z" />
    <glyph glyph-name="uni0218" unicode="&#x218;" horiz-adv-x="607" 
d="M34 54l26 108q62 -38 113 -54.5t113 -16.5q69 0 107.5 24.5t38.5 69.5q0 32 -13.5 52.5t-46.5 35.5t-92 27q-115 25 -169.5 75.5t-54.5 134.5q0 95 71 150.5t192 55.5q65 0 123 -16.5t104 -49.5l-25 -105q-55 35 -99 49.5t-100 14.5q-67 0 -103.5 -23.5t-36.5 -66.5
q0 -28 13 -48t46 -34.5t93 -27.5q118 -25 173 -77t55 -138q0 -64 -32.5 -111t-92.5 -73t-143 -26q-75 0 -141 18t-119 52zM244 -124q0 26 19 42.5t48 16.5q33 0 51 -18t18 -51q0 -44 -31.5 -80t-84.5 -53l-30 40q52 14 77 48q-5 -1 -9 -1q-25 0 -41.5 15.5t-16.5 40.5z" />
    <glyph glyph-name="uni0219" unicode="&#x219;" horiz-adv-x="491" 
d="M46 370q0 74 57.5 116.5t157.5 42.5q101 0 177 -49l-24 -96q-40 26 -74 36t-76 10q-96 0 -96 -53q0 -26 20 -40.5t79 -26.5q98 -19 141 -57.5t43 -103.5q0 -74 -59 -118t-160 -44q-116 0 -203 53l25 98q47 -28 85.5 -40t86.5 -12q47 0 74 14.5t27 42.5t-21.5 42.5
t-85.5 27.5q-91 18 -132.5 55.5t-41.5 101.5zM242 -178q-25 0 -41 15t-16 40q0 26 18.5 42t47.5 16q32 0 50 -18t18 -51q0 -44 -31.5 -80t-84.5 -53l-29 39q55 14 79 51q-6 -1 -11 -1z" />
    <glyph glyph-name="uni021A" unicode="&#x21a;" horiz-adv-x="630" 
d="M18 587v113h594v-113h-232v-587h-130v587h-232zM247 -124q0 26 19 42.5t48 16.5q33 0 51 -18t18 -51q0 -44 -31.5 -80t-84.5 -53l-30 40q52 14 77 48q-5 -1 -9 -1q-25 0 -41.5 15.5t-16.5 40.5z" />
    <glyph glyph-name="uni021B" unicode="&#x21b;" horiz-adv-x="433" 
d="M298 -10q-179 0 -179 189v237h-108l12 100h96v167h124v-167h151v-100h-151v-223q0 -97 75 -97q21 0 36.5 4.5t37.5 17.5l16 -101q-51 -27 -110 -27zM266 -178q-25 0 -41 15t-16 40q0 26 18.5 42t47.5 16q32 0 50 -18t18 -51q0 -44 -31.5 -80t-84.5 -53l-29 39
q55 14 79 51q-6 -1 -11 -1z" />
    <glyph glyph-name="uni0237" unicode="&#x237;" horiz-adv-x="264" 
d="M-99 -205l20 99q20 -10 36.5 -14t38.5 -4q74 0 74 96v544h124v-557q0 -91 -45.5 -139.5t-133.5 -48.5q-31 0 -60 5.5t-54 18.5z" />
    <glyph glyph-name="circumflex" unicode="&#x2c6;" horiz-adv-x="500" 
d="M172 599h-108l131 155h110l131 -155h-110l-77 83z" />
    <glyph glyph-name="caron" unicode="&#x2c7;" horiz-adv-x="500" 
d="M328 754h108l-131 -155h-110l-131 155h110l77 -82z" />
    <glyph glyph-name="breve" unicode="&#x2d8;" horiz-adv-x="500" 
d="M250 600q-73 0 -118.5 39t-47.5 102l84 10q6 -77 82 -77t82 77l84 -10q-1 -63 -46.5 -102t-119.5 -39z" />
    <glyph glyph-name="dotaccent" unicode="&#x2d9;" horiz-adv-x="500" 
d="M250 610q-29 0 -48.5 19t-19.5 48t19.5 47.5t48.5 18.5t48.5 -18.5t19.5 -47.5t-19.5 -48t-48.5 -19z" />
    <glyph glyph-name="ring" unicode="&#x2da;" horiz-adv-x="500" 
d="M250 586q-49 0 -81.5 31t-32.5 78t32.5 78t81.5 31q50 0 82 -31t32 -78t-32 -78t-82 -31zM250 637q25 0 40 16.5t15 41.5q0 26 -15 42t-40 16t-40 -16t-15 -42q0 -25 15 -41.5t40 -16.5z" />
    <glyph glyph-name="ogonek" unicode="&#x2db;" horiz-adv-x="500" 
d="M229 -160q29 0 56 13l15 -64q-40 -18 -87 -18q-58 0 -89 24.5t-31 66.5q0 50 42.5 92t121.5 73l43 -27q-61 -25 -93.5 -55.5t-32.5 -62.5q0 -42 55 -42z" />
    <glyph glyph-name="tilde" unicode="&#x2dc;" horiz-adv-x="500" 
d="M232 641q-20 17 -32 23t-23 6q-22 0 -31.5 -16.5t-10.5 -53.5l-83 11q2 69 32.5 105.5t86.5 36.5q26 0 47 -9t49 -32q21 -17 33 -23.5t23 -6.5q22 0 31.5 17t10.5 54l83 -11q-1 -70 -32 -106t-87 -36q-26 0 -47.5 9t-49.5 32z" />
    <glyph glyph-name="hungarumlaut" unicode="&#x2dd;" horiz-adv-x="500" 
d="M192 599h-106l124 155h134zM392 599h-106l124 155h134z" />
    <glyph glyph-name="gravecomb" unicode="&#x300;" 
d="M-24 599l-151 155h138l124 -155h-111z" />
    <glyph glyph-name="acutecomb" unicode="&#x301;" 
d="M24 599h-111l124 155h138z" />
    <glyph glyph-name="uni0302" unicode="&#x302;" 
d="M-78 599h-108l131 155h110l131 -155h-110l-77 83z" />
    <glyph glyph-name="tildecomb" unicode="&#x303;" 
d="M-18 641q-20 17 -32 23t-23 6q-22 0 -31.5 -16.5t-10.5 -53.5l-83 11q2 69 32.5 105.5t86.5 36.5q26 0 47 -9t49 -32q21 -17 33 -23.5t23 -6.5q22 0 31.5 17t10.5 54l83 -11q-1 -70 -32 -106t-87 -36q-26 0 -47.5 9t-49.5 32z" />
    <glyph glyph-name="uni0304" unicode="&#x304;" 
d="M-174 720h348v-85h-348v85z" />
    <glyph glyph-name="uni0306" unicode="&#x306;" 
d="M0 600q-73 0 -118.5 39t-47.5 102l84 10q6 -77 82 -77t82 77l84 -10q-1 -63 -46.5 -102t-119.5 -39z" />
    <glyph glyph-name="uni0307" unicode="&#x307;" 
d="M0 610q-29 0 -48.5 19t-19.5 48t19.5 47.5t48.5 18.5t48.5 -18.5t19.5 -47.5t-19.5 -48t-48.5 -19z" />
    <glyph glyph-name="uni0308" unicode="&#x308;" 
d="M114 613q-28 0 -46 18t-18 46t18 45.5t46 17.5q29 0 47 -17.5t18 -45.5t-18 -46t-47 -18zM-115 613q-28 0 -46 18t-18 46t18 45.5t46 17.5q29 0 47 -17.5t18 -45.5t-18 -46t-47 -18z" />
    <glyph glyph-name="uni030A" unicode="&#x30a;" 
d="M0 586q-49 0 -81.5 31t-32.5 78t32.5 78t81.5 31q50 0 82 -31t32 -78t-32 -78t-82 -31zM0 637q25 0 40 16.5t15 41.5q0 26 -15 42t-40 16t-40 -16t-15 -42q0 -25 15 -41.5t40 -16.5z" />
    <glyph glyph-name="uni030B" unicode="&#x30b;" 
d="M-58 599h-106l124 155h134zM142 599h-106l124 155h134z" />
    <glyph glyph-name="uni030C" unicode="&#x30c;" 
d="M78 754h108l-131 -155h-110l-131 155h110l77 -82z" />
    <glyph glyph-name="uni0312" unicode="&#x312;" 
d="M10 712q25 0 41 -15t16 -40t-18.5 -41.5t-47.5 -16.5q-32 0 -50 18t-18 51q0 44 31.5 80.5t84.5 52.5l29 -39q-55 -14 -79 -51q6 1 11 1z" />
    <glyph glyph-name="uni0315" unicode="&#x315;" 
d="M-66 540q5 47 7.5 95t3.5 105h110q-4 -61 -11 -108.5t-18 -91.5h-92z" />
    <glyph glyph-name="dotbelowcomb" unicode="&#x323;" 
d="M0 -198q-29 0 -48.5 19t-19.5 48t19.5 47.5t48.5 18.5t48.5 -18.5t19.5 -47.5t-19.5 -48t-48.5 -19z" />
    <glyph glyph-name="uni0326" unicode="&#x326;" 
d="M-10 -178q-25 0 -41 15t-16 40q0 26 18.5 42t47.5 16q32 0 50 -18t18 -51q0 -44 -31.5 -80t-84.5 -53l-29 39q55 14 79 51q-6 -1 -11 -1z" />
    <glyph glyph-name="uni0327" unicode="&#x327;" 
d="M-105 -212l16 60q17 -7 35 -10.5t41 -3.5q28 0 44.5 8t16.5 24q0 30 -61 30q-26 0 -49 -5l33 124h67l-20 -68h5q50 0 78.5 -22t28.5 -62q0 -43 -35 -67.5t-98 -24.5q-31 0 -55.5 4.5t-46.5 12.5z" />
    <glyph glyph-name="uni0328" unicode="&#x328;" 
d="M-21 -160q29 0 56 13l15 -64q-40 -18 -87 -18q-58 0 -89 24.5t-31 66.5q0 50 42.5 92t121.5 73l43 -27q-61 -25 -93.5 -55.5t-32.5 -62.5q0 -42 55 -42z" />
    <glyph glyph-name="uni0344" unicode="&#x344;" 
d="M-55 605l59 197h130l-94 -197h-95zM-139 613q-28 0 -46 18t-18 46t18 45.5t46 17.5q29 0 47 -17.5t18 -45.5t-18 -46t-47 -18zM184 613q-28 0 -46 18t-18 46t18 45.5t46 17.5q29 0 47 -17.5t18 -45.5t-18 -46t-47 -18z" />
    <glyph glyph-name="uni0374" unicode="&#x374;" horiz-adv-x="240" 
d="M34 467l69 273h137l-101 -273h-105z" />
    <glyph glyph-name="uni0375" unicode="&#x375;" horiz-adv-x="240" 
d="M0 -104l101 273h105l-69 -273h-137z" />
    <glyph glyph-name="uni037E" unicode="&#x37e;" horiz-adv-x="262" 
d="M131 372q-34 0 -56.5 22t-22.5 55t22.5 54.5t56.5 21.5q35 0 57 -21.5t22 -54.5t-22 -55t-57 -22zM74 -169l-37 51q37 15 63 44.5t35 65.5q-5 -1 -10 -1q-32 0 -53.5 20.5t-21.5 54.5q0 35 22.5 56.5t56.5 21.5q39 0 61 -27t22 -74q0 -70 -37.5 -128.5t-100.5 -83.5z" />
    <glyph glyph-name="tonos" unicode="&#x384;" horiz-adv-x="500" 
d="M151 605l62 197h136l-98 -197h-100z" />
    <glyph glyph-name="dieresistonos" unicode="&#x385;" horiz-adv-x="500" 
d="M172 605l59 197h130l-94 -197h-95zM88 613q-28 0 -46 18t-18 46t18 45.5t46 17.5q29 0 47 -17.5t18 -45.5t-18 -46t-47 -18zM411 613q-28 0 -46 18t-18 46t18 45.5t46 17.5q29 0 47 -17.5t18 -45.5t-18 -46t-47 -18z" />
    <glyph glyph-name="Alphatonos" unicode="&#x386;" horiz-adv-x="788" 
d="M214 0h-137l282 700h134l282 -700h-142l-62 169h-294zM316 276h215l-107 291zM20 468l39 232h136l-75 -232h-100z" />
    <glyph glyph-name="anoteleia" unicode="&#x387;" horiz-adv-x="262" 
d="M131 372q-34 0 -56.5 22t-22.5 55t22.5 54.5t56.5 21.5q35 0 57 -21.5t22 -54.5t-22 -55t-57 -22z" />
    <glyph glyph-name="Epsilontonos" unicode="&#x388;" horiz-adv-x="779" 
d="M254 0v700h463l13 -109h-348v-181h317v-109h-317v-192h368l-13 -109h-483zM20 468l39 232h136l-75 -232h-100z" />
    <glyph glyph-name="Etatonos" unicode="&#x389;" horiz-adv-x="922" 
d="M841 0h-130v298h-327v-298h-130v700h130v-289h327v289h130v-700zM20 468l39 232h136l-75 -232h-100z" />
    <glyph glyph-name="Iotatonos" unicode="&#x38a;" horiz-adv-x="465" 
d="M384 700v-700h-130v700h130zM20 468l39 232h136l-75 -232h-100z" />
    <glyph glyph-name="Omicrontonos" unicode="&#x38c;" horiz-adv-x="985" 
d="M574 -16q-79 0 -145.5 27t-115 76t-75 116t-26.5 147t26.5 147t75 116t115 76t145.5 27t145.5 -27t115 -76t75 -116t26.5 -147t-26.5 -147t-75 -116t-115 -76t-145.5 -27zM574 97q68 0 119 32t79.5 89t28.5 132t-28.5 132t-79.5 89t-119 32t-119 -32t-79.5 -89
t-28.5 -132t28.5 -132t79.5 -89t119 -32zM20 468l39 232h136l-75 -232h-100z" />
    <glyph glyph-name="Upsilontonos" unicode="&#x38e;" horiz-adv-x="921" 
d="M640 282v-282h-130v282l-266 418h151l183 -315l183 315h145zM20 468l39 232h136l-75 -232h-100z" />
    <glyph glyph-name="Omegatonos" unicode="&#x38f;" horiz-adv-x="982" 
d="M209 0v109h147q-66 47 -102.5 118t-36.5 149q0 71 25 133t71 108.5t109.5 72.5t141.5 26t142 -26t110 -72.5t71 -108.5t25 -133q0 -78 -37 -149t-103 -118h151l-13 -109h-286v103q40 17 74.5 53.5t56.5 90.5t22 121q0 66 -25.5 119.5t-73.5 84.5t-114 31q-65 0 -113 -31
t-73.5 -84.5t-25.5 -119.5q0 -67 21.5 -121t56.5 -90.5t74 -53.5v-103h-295zM20 468l39 232h136l-75 -232h-100z" />
    <glyph glyph-name="iotadieresistonos" unicode="&#x390;" horiz-adv-x="326" 
d="M209 -10q-70 0 -107.5 41t-37.5 132v353h124v-337q0 -43 12.5 -63.5t45.5 -20.5q28 0 53 12l15 -96q-26 -11 -48.5 -16t-56.5 -5zM69 605l59 197h130l-94 -197h-95zM-15 613q-28 0 -46 18t-18 46t18 45.5t46 17.5q29 0 47 -17.5t18 -45.5t-18 -46t-47 -18zM308 613
q-28 0 -46 18t-18 46t18 45.5t46 17.5q29 0 47 -17.5t18 -45.5t-18 -46t-47 -18z" />
    <glyph glyph-name="Alpha" unicode="&#x391;" horiz-adv-x="724" 
d="M150 0h-137l282 700h134l282 -700h-142l-62 169h-294zM252 276h215l-107 291z" />
    <glyph glyph-name="Beta" unicode="&#x392;" horiz-adv-x="669" 
d="M626 201q0 -94 -68.5 -147.5t-189.5 -53.5h-287v700h265q113 0 178.5 -48t65.5 -133q0 -52 -32.5 -92t-87.5 -58q70 -12 113 -57t43 -111zM328 411q70 0 103 24.5t33 75.5q0 43 -34 65.5t-98 22.5h-126v-188h122zM355 101q67 0 105 27.5t38 78.5q0 53 -39.5 79.5
t-114.5 26.5h-138v-212h149z" />
    <glyph glyph-name="Gamma" unicode="&#x393;" horiz-adv-x="550" 
d="M81 0v700h437l13 -113h-320v-587h-130z" />
    <glyph glyph-name="uni0394" unicode="&#x394;" horiz-adv-x="716" 
d="M33 0v93l258 607h134l258 -607v-93h-650zM171 109h368l-184 456z" />
    <glyph glyph-name="Epsilon" unicode="&#x395;" horiz-adv-x="606" 
d="M81 0v700h463l13 -109h-348v-181h317v-109h-317v-192h368l-13 -109h-483z" />
    <glyph glyph-name="Zeta" unicode="&#x396;" horiz-adv-x="660" 
d="M617 109l-13 -109h-555v101l399 490h-382l13 109h525v-101l-397 -490h410z" />
    <glyph glyph-name="Eta" unicode="&#x397;" horiz-adv-x="749" 
d="M668 0h-130v298h-327v-298h-130v700h130v-289h327v289h130v-700z" />
    <glyph glyph-name="Theta" unicode="&#x398;" horiz-adv-x="821" 
d="M411 -16q-79 0 -145.5 27t-115 76t-75 116t-26.5 147t26.5 147t75 116t115 76t145.5 27t145 -27t114.5 -76t75 -116t26.5 -147t-26.5 -147t-75 -116t-114.5 -76t-145 -27zM411 97q68 0 119 31.5t80 88.5t29 133t-29 133t-80 88.5t-119 31.5t-120 -31.5t-80.5 -88.5
t-28.5 -133t28.5 -133t80.5 -88.5t120 -31.5zM257 301v109h307v-109h-307z" />
    <glyph glyph-name="Iota" unicode="&#x399;" horiz-adv-x="292" 
d="M211 700v-700h-130v700h130z" />
    <glyph glyph-name="Kappa" unicode="&#x39a;" horiz-adv-x="705" 
d="M81 0v700h130v-334l292 334h155l-262 -291l295 -409h-157l-223 314l-100 -112v-202h-130z" />
    <glyph glyph-name="Lambda" unicode="&#x39b;" horiz-adv-x="696" 
d="M13 0l268 700h134l268 -700h-142l-196 549l-195 -549h-137z" />
    <glyph glyph-name="Mu" unicode="&#x39c;" horiz-adv-x="896" 
d="M392 118l-187 405v-523h-124v700h162l207 -460l208 460h157v-700h-124v521l-187 -403h-112z" />
    <glyph glyph-name="Nu" unicode="&#x39d;" horiz-adv-x="747" 
d="M537 0l-332 512v-512h-124v700h133l328 -510v510h124v-700h-129z" />
    <glyph glyph-name="Xi" unicode="&#x39e;" horiz-adv-x="621" 
d="M48 585v115h525v-115h-525zM133 298v115h355v-115h-355zM38 0v115h545v-115h-545z" />
    <glyph glyph-name="Omicron" unicode="&#x39f;" horiz-adv-x="822" 
d="M411 -16q-79 0 -145.5 27t-115 76t-75 116t-26.5 147t26.5 147t75 116t115 76t145.5 27t145.5 -27t115 -76t75 -116t26.5 -147t-26.5 -147t-75 -116t-115 -76t-145.5 -27zM411 97q68 0 119 32t79.5 89t28.5 132t-28.5 132t-79.5 89t-119 32t-119 -32t-79.5 -89
t-28.5 -132t28.5 -132t79.5 -89t119 -32z" />
    <glyph glyph-name="Pi" unicode="&#x3a0;" horiz-adv-x="742" 
d="M81 0v700h580v-700h-130v587h-320v-587h-130z" />
    <glyph glyph-name="Rho" unicode="&#x3a1;" horiz-adv-x="627" 
d="M319 250h-111v-250h-127v700h238q82 0 141.5 -27.5t92.5 -78t33 -119.5t-33 -119.5t-92.5 -78t-141.5 -27.5zM307 353q71 0 109.5 32t38.5 90q0 59 -38.5 90.5t-109.5 31.5h-99v-244h99z" />
    <glyph glyph-name="Sigma" unicode="&#x3a3;" horiz-adv-x="627" 
d="M51 0v101l222 251l-213 247v101h505l14 -109h-360l198 -228l-218 -254h400l-13 -109h-535z" />
    <glyph glyph-name="Tau" unicode="&#x3a4;" horiz-adv-x="630" 
d="M18 587v113h594v-113h-232v-587h-130v587h-232z" />
    <glyph glyph-name="Upsilon" unicode="&#x3a5;" horiz-adv-x="692" 
d="M411 282v-282h-130v282l-266 418h151l183 -315l183 315h145z" />
    <glyph glyph-name="Phi" unicode="&#x3a6;" horiz-adv-x="856" 
d="M366 0v65q-149 12 -233 87t-84 205t84 205t233 88v66h124v-66q149 -13 233 -88t84 -205t-84 -205t-233 -87v-65h-124zM675 357q0 88 -48.5 135t-138.5 58v-386q90 11 138.5 58t48.5 135zM181 357q0 -88 48.5 -135t139.5 -58v386q-90 -11 -139 -58.5t-49 -134.5z" />
    <glyph glyph-name="Chi" unicode="&#x3a7;" horiz-adv-x="699" 
d="M163 0h-149l258 360l-238 340h153l165 -244l165 244h148l-240 -337l260 -363h-155l-183 268z" />
    <glyph glyph-name="Psi" unicode="&#x3a8;" horiz-adv-x="799" 
d="M336 0v178q-150 14 -217.5 92t-67.5 199v231h130v-224q0 -77 36.5 -127t118.5 -64v415h127v-415q83 14 119 64t36 127v224h130v-231q0 -121 -67.5 -199t-217.5 -92v-178h-127z" />
    <glyph glyph-name="uni03A9" unicode="&#x3a9;" horiz-adv-x="832" 
d="M59 0v109h147q-66 47 -102.5 118t-36.5 149q0 71 25 133t71 108.5t109.5 72.5t141.5 26t142 -26t110 -72.5t71 -108.5t25 -133q0 -78 -37 -149t-103 -118h151l-13 -109h-286v103q40 17 74.5 53.5t56.5 90.5t22 121q0 66 -25.5 119.5t-73.5 84.5t-114 31q-65 0 -113 -31
t-73.5 -84.5t-25.5 -119.5q0 -67 21.5 -121t56.5 -90.5t74 -53.5v-103h-295z" />
    <glyph glyph-name="Iotadieresis" unicode="&#x3aa;" horiz-adv-x="292" 
d="M211 700v-700h-130v700h130zM268 774q-28 0 -46.5 18.5t-18.5 46.5q0 29 18.5 46.5t46.5 17.5q29 0 47.5 -17.5t18.5 -46.5q0 -28 -18.5 -46.5t-47.5 -18.5zM23 774q-28 0 -46.5 18.5t-18.5 46.5q0 29 18.5 46.5t46.5 17.5q29 0 47.5 -17.5t18.5 -46.5q0 -28 -18.5 -46.5
t-47.5 -18.5z" />
    <glyph glyph-name="Upsilondieresis" unicode="&#x3ab;" horiz-adv-x="692" 
d="M411 282v-282h-130v282l-266 418h151l183 -315l183 315h145zM475 774q-28 0 -46.5 18.5t-18.5 46.5q0 29 18.5 46.5t46.5 17.5q29 0 47.5 -17.5t18.5 -46.5q0 -28 -18.5 -46.5t-47.5 -18.5zM230 774q-28 0 -46.5 18.5t-18.5 46.5q0 29 18.5 46.5t46.5 17.5
q29 0 47.5 -17.5t18.5 -46.5q0 -28 -18.5 -46.5t-47.5 -18.5z" />
    <glyph glyph-name="alphatonos" unicode="&#x3ac;" horiz-adv-x="662" 
d="M276 -13q-68 0 -120 35.5t-81.5 96.5t-29.5 138q0 79 30.5 140t84 96.5t121.5 35.5q61 0 104.5 -30t67.5 -81q8 51 21 98h124q-19 -69 -30 -131.5t-14 -126.5q-1 -28 -1.5 -45t-0.5 -37q0 -38 8 -57t30 -19q9 0 17 2t18 8l15 -97q-18 -8 -39 -13t-46 -5q-44 0 -72.5 21.5
t-39.5 68.5q-26 -45 -69 -71.5t-98 -26.5zM302 92q59 0 96 46t37 120t-36.5 119.5t-95.5 45.5q-58 0 -95 -45.5t-37 -119.5t36.5 -120t94.5 -46zM254 605l62 197h136l-98 -197h-100z" />
    <glyph glyph-name="epsilontonos" unicode="&#x3ad;" horiz-adv-x="524" 
d="M291 -13q-118 0 -179.5 42t-61.5 109q0 45 29 79t78 52q-47 17 -72 45t-25 69q0 39 26 72t77.5 53.5t126.5 20.5q55 0 101.5 -9.5t78.5 -27.5l-22 -94q-31 14 -66 21.5t-78 7.5q-62 0 -89.5 -16.5t-27.5 -42.5q0 -28 29 -45t80 -17h106v-86h-128q-41 0 -69 -16t-28 -48
q0 -31 32 -49t90 -18q50 0 88 9t74 25l23 -95q-68 -41 -193 -41zM223 605l62 197h136l-98 -197h-100z" />
    <glyph glyph-name="etatonos" unicode="&#x3ae;" horiz-adv-x="640" 
d="M450 -216v507q0 129 -100 129q-56 0 -88.5 -36.5t-32.5 -101.5v-282h-124v352q0 63 -39 63q-17 0 -30 -7l-16 97q16 8 35.5 12t43.5 4q43 0 73.5 -21.5t42.5 -71.5q21 48 65.5 74.5t103.5 26.5q90 0 140 -56t50 -162v-527h-124zM268 605l62 197h136l-98 -197h-100z" />
    <glyph glyph-name="iotatonos" unicode="&#x3af;" horiz-adv-x="326" 
d="M209 -10q-70 0 -107.5 41t-37.5 132v353h124v-337q0 -43 12.5 -63.5t45.5 -20.5q28 0 53 12l15 -96q-26 -11 -48.5 -16t-56.5 -5zM69 605l62 197h136l-98 -197h-100z" />
    <glyph glyph-name="upsilondieresistonos" unicode="&#x3b0;" horiz-adv-x="601" 
d="M307 -13q-109 0 -161.5 66t-52.5 188v111q0 32 -6.5 47.5t-24.5 15.5q-17 0 -30 -7l-16 97q34 16 80 16q36 0 63.5 -14t42.5 -48t15 -96v-118q0 -76 21.5 -114t73.5 -38q58 0 84 41.5t26 130.5q0 62 -7.5 122.5t-23.5 128.5h123q32 -125 32 -224q0 -151 -58.5 -228
t-180.5 -77zM229 605l59 197h130l-94 -197h-95zM145 613q-28 0 -46 18t-18 46t18 45.5t46 17.5q29 0 47 -17.5t18 -45.5t-18 -46t-47 -18zM468 613q-28 0 -46 18t-18 46t18 45.5t46 17.5q29 0 47 -17.5t18 -45.5t-18 -46t-47 -18z" />
    <glyph glyph-name="alpha" unicode="&#x3b1;" horiz-adv-x="662" 
d="M276 -13q-68 0 -120 35.5t-81.5 96.5t-29.5 138q0 79 30.5 140t84 96.5t121.5 35.5q61 0 104.5 -30t67.5 -81q8 51 21 98h124q-19 -69 -30 -131.5t-14 -126.5q-1 -28 -1.5 -45t-0.5 -37q0 -38 8 -57t30 -19q9 0 17 2t18 8l15 -97q-18 -8 -39 -13t-46 -5q-44 0 -72.5 21.5
t-39.5 68.5q-26 -45 -69 -71.5t-98 -26.5zM302 92q59 0 96 46t37 120t-36.5 119.5t-95.5 45.5q-58 0 -95 -45.5t-37 -119.5t36.5 -120t94.5 -46z" />
    <glyph glyph-name="beta" unicode="&#x3b2;" horiz-adv-x="626" 
d="M70 -216v723q0 80 30.5 135t84.5 83t124 28q69 0 118.5 -27t76 -71.5t26.5 -97.5q0 -54 -25.5 -97.5t-76.5 -65.5q74 -24 113.5 -74.5t39.5 -122.5q0 -61 -27.5 -108.5t-76 -74.5t-112.5 -27q-56 0 -99.5 17t-71.5 55v-275h-124zM337 93q56 0 86.5 30t30.5 86
q0 58 -37 91.5t-104 33.5h-64v102h59q50 0 75 32.5t25 75.5q0 41 -27 72t-78 31q-48 0 -78.5 -32.5t-30.5 -103.5v-270q0 -79 40 -113.5t103 -34.5z" />
    <glyph glyph-name="gamma" unicode="&#x3b3;" horiz-adv-x="595" 
d="M237 -216v223l-137 362q-9 25 -18.5 35.5t-26.5 10.5q-19 0 -32 -7l-16 97q16 8 35.5 12t44.5 4q47 0 76 -22t45 -73l103 -304q45 98 77.5 197t46.5 197h129q-26 -126 -77.5 -256t-125.5 -259v-217h-124z" />
    <glyph glyph-name="delta" unicode="&#x3b4;" horiz-adv-x="605" 
d="M300 -13q-72 0 -129.5 31t-91.5 85.5t-34 122.5q0 76 40 131.5t113 82.5q-54 28 -77.5 63.5t-23.5 80.5q0 51 30 89t84 59t125 21q52 0 102.5 -14t84.5 -37l-25 -100q-38 23 -79 34.5t-77 11.5q-120 0 -120 -63q0 -27 20.5 -45t77.5 -39l51 -19q101 -37 145 -101t44 -145
q0 -73 -34.5 -129.5t-93 -88t-132.5 -31.5zM303 93q59 0 94.5 41t35.5 108q0 66 -36 107.5t-95 41.5q-58 0 -94 -41.5t-36 -107.5q0 -67 36 -108t95 -41z" />
    <glyph glyph-name="epsilon" unicode="&#x3b5;" horiz-adv-x="524" 
d="M291 -13q-118 0 -179.5 42t-61.5 109q0 45 29 79t78 52q-47 17 -72 45t-25 69q0 39 26 72t77.5 53.5t126.5 20.5q55 0 101.5 -9.5t78.5 -27.5l-22 -94q-31 14 -66 21.5t-78 7.5q-62 0 -89.5 -16.5t-27.5 -42.5q0 -28 29 -45t80 -17h106v-86h-128q-41 0 -69 -16t-28 -48
q0 -31 32 -49t90 -18q50 0 88 9t74 25l23 -95q-68 -41 -193 -41z" />
    <glyph glyph-name="zeta" unicode="&#x3b6;" horiz-adv-x="487" 
d="M383 -214l-67 78q32 18 45.5 36t13.5 38q0 25 -17 39.5t-68 25.5l-50 11q-184 40 -184 201q0 51 26 112t83.5 138.5t152.5 176.5h-250l12 98h394v-90q-108 -104 -171.5 -181.5t-91.5 -134.5t-28 -101q0 -46 26.5 -73t82.5 -40l53 -12q74 -16 115.5 -54t41.5 -103
q0 -49 -27.5 -89.5t-91.5 -75.5z" />
    <glyph glyph-name="eta" unicode="&#x3b7;" horiz-adv-x="640" 
d="M450 -216v507q0 129 -100 129q-56 0 -88.5 -36.5t-32.5 -101.5v-282h-124v352q0 63 -39 63q-17 0 -30 -7l-16 97q16 8 35.5 12t43.5 4q43 0 73.5 -21.5t42.5 -71.5q21 48 65.5 74.5t103.5 26.5q90 0 140 -56t50 -162v-527h-124z" />
    <glyph glyph-name="theta" unicode="&#x3b8;" horiz-adv-x="643" 
d="M322 -13q-69 0 -119 30.5t-83 83.5t-49 122t-16 147t16 147t48.5 122t83 83.5t118.5 30.5q69 0 119 -30.5t83 -83.5t49 -122t16 -147t-16 -147t-48.5 -122t-83 -83.5t-118.5 -30.5zM321 647q-47 0 -76 -30t-43 -79.5t-18 -108.5h275q-4 59 -18 108.5t-43 79.5t-77 30z
M322 93q50 0 79.5 33t43 87.5t15.5 117.5h-277q2 -64 16 -118t43.5 -87t79.5 -33z" />
    <glyph glyph-name="iota" unicode="&#x3b9;" horiz-adv-x="326" 
d="M209 -10q-70 0 -107.5 41t-37.5 132v353h124v-337q0 -43 12.5 -63.5t45.5 -20.5q28 0 53 12l15 -96q-26 -11 -48.5 -16t-56.5 -5z" />
    <glyph glyph-name="kappa" unicode="&#x3ba;" horiz-adv-x="584" 
d="M70 0v516h124v-219l211 219h149l-198 -198l220 -318h-147l-157 234l-78 -78v-156h-124z" />
    <glyph glyph-name="lambda" unicode="&#x3bb;" horiz-adv-x="582" 
d="M22 0l225 527l-16 37q-19 44 -44 63.5t-54 19.5q-19 0 -34.5 -5t-32.5 -13l-23 98q23 11 52 18.5t62 7.5q65 0 113 -42t82 -136l208 -575h-136l-121 389l-151 -389h-130z" />
    <glyph glyph-name="uni03BC" unicode="&#x3bc;" horiz-adv-x="636" 
d="M70 -216v732h124v-291q0 -66 24 -97.5t75 -31.5q58 0 90 37t32 101v282h124v-352q0 -31 8.5 -47t29.5 -16q8 0 16 2t16 5l15 -98q-31 -15 -80 -15q-42 0 -73 21.5t-43 72.5q-20 -49 -59.5 -75.5t-82.5 -26.5q-27 0 -50 7t-42 21v-231h-124z" />
    <glyph glyph-name="nu" unicode="&#x3bd;" horiz-adv-x="590" 
d="M237 0l-137 369q-9 25 -18.5 35.5t-26.5 10.5q-19 0 -32 -7l-16 97q16 8 35.5 12t44.5 4q47 0 76 -22t45 -73l100 -303q44 98 76 196.5t46 196.5h129q-53 -254 -203 -516h-119z" />
    <glyph glyph-name="xi" unicode="&#x3be;" horiz-adv-x="540" 
d="M410 -214l-67 78q59 33 59 74q0 27 -17.5 40.5t-68.5 24.5l-51 11q-115 26 -167 71.5t-52 121.5q0 68 38.5 116.5t109.5 70.5q-61 18 -94.5 59.5t-33.5 100.5t31 103.5t87 70t131 25.5q47 0 94.5 -11.5t86.5 -32.5l-26 -101q-72 39 -144 39q-64 0 -98.5 -27t-34.5 -76
q0 -47 35 -75t94 -28h115v-104h-123q-62 0 -101.5 -29.5t-39.5 -76.5q0 -32 12 -52t42.5 -33t87.5 -26l56 -12q158 -33 158 -157q0 -99 -119 -165z" />
    <glyph glyph-name="omicron" unicode="&#x3bf;" horiz-adv-x="626" 
d="M313 -13q-78 0 -138.5 35t-95 96t-34.5 140t34.5 140t95 96t138.5 35q79 0 139 -35t94.5 -96t34.5 -140t-34.5 -140t-94.5 -96t-139 -35zM313 93q64 0 102.5 45.5t38.5 119.5t-38.5 119.5t-102.5 45.5t-102.5 -45.5t-38.5 -119.5t38.5 -119.5t102.5 -45.5z" />
    <glyph glyph-name="pi" unicode="&#x3c0;" horiz-adv-x="660" 
d="M108 0v413h-92l13 103h591v-103h-89v-249q0 -63 39 -63q15 0 31 9l16 -99q-16 -7 -36 -11.5t-46 -4.5q-73 0 -100.5 42.5t-27.5 120.5v255h-175v-413h-124z" />
    <glyph glyph-name="rho" unicode="&#x3c1;" horiz-adv-x="633" 
d="M66 -216v466q0 82 33 145t91.5 98.5t134.5 35.5q78 0 137 -34.5t92.5 -95.5t33.5 -141q0 -78 -31.5 -139t-85 -96.5t-120.5 -35.5q-53 0 -94 20.5t-67 56.5v-280h-124zM325 93q60 0 98 46t38 119q0 74 -38 119.5t-97 45.5q-60 0 -98 -45.5t-38 -119.5q0 -73 37.5 -119
t97.5 -46z" />
    <glyph glyph-name="sigma1" unicode="&#x3c2;" horiz-adv-x="519" 
d="M342 -183l-67 77q35 21 51.5 39.5t16.5 40.5q0 37 -62 52l-38 9q-198 49 -198 238q0 79 32 136t91 88t139 31q50 0 100 -13.5t87 -37.5l-25 -101q-80 46 -154 46q-68 0 -105.5 -38.5t-37.5 -106.5q0 -58 30.5 -92.5t97.5 -48.5l35 -7q68 -13 101.5 -50t33.5 -91
q0 -102 -128 -171z" />
    <glyph glyph-name="sigma" unicode="&#x3c3;" horiz-adv-x="645" 
d="M307 -13q-76 0 -135.5 34t-93 94.5t-33.5 139.5q0 78 33.5 136.5t93 91.5t135.5 33h313l-13 -103h-135q38 -29 65 -76t27 -103q0 -70 -33.5 -126t-91.5 -88.5t-132 -32.5zM305 93q62 0 97.5 44t35.5 111q0 52 -17.5 93.5t-54.5 71.5h-58q-64 0 -100 -43t-36 -115
t37.5 -117t95.5 -45z" />
    <glyph glyph-name="tau" unicode="&#x3c4;" horiz-adv-x="523" 
d="M323 -10q-76 0 -110.5 44.5t-34.5 128.5v250h-161l12 103h454v-103h-181v-234q0 -43 12.5 -63.5t45.5 -20.5q30 0 57 14l15 -96q-26 -12 -50 -17.5t-59 -5.5z" />
    <glyph glyph-name="upsilon" unicode="&#x3c5;" horiz-adv-x="601" 
d="M307 -13q-109 0 -161.5 66t-52.5 188v111q0 32 -6.5 47.5t-24.5 15.5q-17 0 -30 -7l-16 97q34 16 80 16q36 0 63.5 -14t42.5 -48t15 -96v-118q0 -76 21.5 -114t73.5 -38q58 0 84 41.5t26 130.5q0 62 -7.5 122.5t-23.5 128.5h123q32 -125 32 -224q0 -151 -58.5 -228
t-180.5 -77z" />
    <glyph glyph-name="phi" unicode="&#x3c6;" horiz-adv-x="788" 
d="M332 -216v206q-93 10 -157 46.5t-97 93.5t-33 128t33 128t96.5 93.5t157.5 46.5v174h124v-174q94 -10 157.5 -46.5t96.5 -93.5t33 -128t-33 -128t-97 -93.5t-157 -46.5v-206h-124zM616 258q0 75 -44.5 117.5t-120.5 53.5v-342q81 12 123 56.5t42 114.5zM172 258
q0 -73 43 -116.5t122 -54.5v342q-78 -11 -121.5 -55t-43.5 -116z" />
    <glyph glyph-name="chi" unicode="&#x3c7;" horiz-adv-x="584" 
d="M485 -229q-46 0 -70.5 21.5t-44.5 68.5l-79 185l-139 -262h-132l209 378l-98 207q-14 29 -24 37.5t-26 8.5q-18 0 -34 -8l-16 97q16 8 36 12.5t43 4.5q46 0 70.5 -21.5t44.5 -68.5l71 -162l126 247h132l-197 -362l107 -231q14 -28 24 -37t26 -9q18 0 34 8l16 -97
q-16 -7 -36 -12t-43 -5z" />
    <glyph glyph-name="psi" unicode="&#x3c8;" horiz-adv-x="763" 
d="M319 -216v206q-124 15 -194.5 85t-70.5 182v259h124v-254q0 -141 141 -164v602h124v-602q141 23 141 164v254h124v-259q0 -112 -70.5 -182t-194.5 -85v-206h-124z" />
    <glyph glyph-name="omega" unicode="&#x3c9;" horiz-adv-x="829" 
d="M249 -13q-61 0 -99 26.5t-58.5 67.5t-28.5 86t-8 83q0 56 21.5 129t61.5 137h124q-43 -77 -61.5 -142t-18.5 -124q0 -69 19.5 -111.5t60.5 -42.5q46 0 69.5 46.5t23.5 149.5v103h119v-103q0 -103 24 -149.5t69 -46.5q41 0 60.5 42.5t19.5 111.5q0 59 -18.5 124t-61.5 142
h124q41 -64 62 -137t21 -129q0 -38 -8 -83t-28.5 -86t-58.5 -67.5t-99 -26.5q-51 0 -97 32t-68 95q-22 -63 -68.5 -95t-97.5 -32z" />
    <glyph glyph-name="iotadieresis" unicode="&#x3ca;" horiz-adv-x="326" 
d="M209 -10q-70 0 -107.5 41t-37.5 132v353h124v-337q0 -43 12.5 -63.5t45.5 -20.5q28 0 53 12l15 -96q-26 -11 -48.5 -16t-56.5 -5zM238 613q-28 0 -46 18t-18 46t18 45.5t46 17.5q29 0 47 -17.5t18 -45.5t-18 -46t-47 -18zM9 613q-28 0 -46 18t-18 46t18 45.5t46 17.5
q29 0 47 -17.5t18 -45.5t-18 -46t-47 -18z" />
    <glyph glyph-name="upsilondieresis" unicode="&#x3cb;" horiz-adv-x="601" 
d="M307 -13q-109 0 -161.5 66t-52.5 188v111q0 32 -6.5 47.5t-24.5 15.5q-17 0 -30 -7l-16 97q34 16 80 16q36 0 63.5 -14t42.5 -48t15 -96v-118q0 -76 21.5 -114t73.5 -38q58 0 84 41.5t26 130.5q0 62 -7.5 122.5t-23.5 128.5h123q32 -125 32 -224q0 -151 -58.5 -228
t-180.5 -77zM398 613q-28 0 -46 18t-18 46t18 45.5t46 17.5q29 0 47 -17.5t18 -45.5t-18 -46t-47 -18zM169 613q-28 0 -46 18t-18 46t18 45.5t46 17.5q29 0 47 -17.5t18 -45.5t-18 -46t-47 -18z" />
    <glyph glyph-name="omicrontonos" unicode="&#x3cc;" horiz-adv-x="626" 
d="M313 -13q-78 0 -138.5 35t-95 96t-34.5 140t34.5 140t95 96t138.5 35q79 0 139 -35t94.5 -96t34.5 -140t-34.5 -140t-94.5 -96t-139 -35zM313 93q64 0 102.5 45.5t38.5 119.5t-38.5 119.5t-102.5 45.5t-102.5 -45.5t-38.5 -119.5t38.5 -119.5t102.5 -45.5zM258 605
l62 197h136l-98 -197h-100z" />
    <glyph glyph-name="upsilontonos" unicode="&#x3cd;" horiz-adv-x="601" 
d="M307 -13q-109 0 -161.5 66t-52.5 188v111q0 32 -6.5 47.5t-24.5 15.5q-17 0 -30 -7l-16 97q34 16 80 16q36 0 63.5 -14t42.5 -48t15 -96v-118q0 -76 21.5 -114t73.5 -38q58 0 84 41.5t26 130.5q0 62 -7.5 122.5t-23.5 128.5h123q32 -125 32 -224q0 -151 -58.5 -228
t-180.5 -77zM229 605l62 197h136l-98 -197h-100z" />
    <glyph glyph-name="omegatonos" unicode="&#x3ce;" horiz-adv-x="829" 
d="M249 -13q-61 0 -99 26.5t-58.5 67.5t-28.5 86t-8 83q0 56 21.5 129t61.5 137h124q-43 -77 -61.5 -142t-18.5 -124q0 -69 19.5 -111.5t60.5 -42.5q46 0 69.5 46.5t23.5 149.5v103h119v-103q0 -103 24 -149.5t69 -46.5q41 0 60.5 42.5t19.5 111.5q0 59 -18.5 124t-61.5 142
h124q41 -64 62 -137t21 -129q0 -38 -8 -83t-28.5 -86t-58.5 -67.5t-99 -26.5q-51 0 -97 32t-68 95q-22 -63 -68.5 -95t-97.5 -32zM367 605l62 197h136l-98 -197h-100z" />
    <glyph glyph-name="kaiSymbol" unicode="&#x3d7;" horiz-adv-x="593" 
d="M70 0v516h124v-219l211 219h149l-196 -196l152 -195q28 -36 44.5 -63t23.5 -52.5t7 -57.5q0 -88 -61.5 -134.5t-164.5 -46.5q-48 0 -95 9t-91 33l24 99q29 -16 65.5 -25.5t84.5 -9.5q56 0 83.5 20t27.5 57q0 29 -14.5 56t-47.5 69l-123 156l-79 -79v-156h-124z" />
    <glyph glyph-name="uni0400" unicode="&#x400;" horiz-adv-x="606" 
d="M81 0v700h463l13 -109h-348v-181h317v-109h-317v-192h368l-13 -109h-483zM297 772l-170 129h156l146 -129h-132z" />
    <glyph glyph-name="uni0401" unicode="&#x401;" horiz-adv-x="606" 
d="M81 0v700h463l13 -109h-348v-181h317v-109h-317v-192h368l-13 -109h-483zM450 774q-28 0 -46.5 18.5t-18.5 46.5q0 29 18.5 46.5t46.5 17.5q29 0 47.5 -17.5t18.5 -46.5q0 -28 -18.5 -46.5t-47.5 -18.5zM205 774q-28 0 -46.5 18.5t-18.5 46.5q0 29 18.5 46.5t46.5 17.5
q29 0 47.5 -17.5t18.5 -46.5q0 -28 -18.5 -46.5t-47.5 -18.5z" />
    <glyph glyph-name="uni0402" unicode="&#x402;" horiz-adv-x="842" 
d="M544 -6q-14 0 -31.5 1.5t-31.5 4.5l12 105q10 -2 20.5 -3t20.5 -1q52 0 80.5 28.5t28.5 80.5q0 57 -37 87t-108 30q-42 0 -84.5 -8.5t-86.5 -29.5v-289h-130v587h-179v113h606v-113h-297v-194q52 24 100 34t97 10q77 0 132.5 -27.5t86 -78.5t30.5 -120
q0 -66 -28.5 -114.5t-80 -75.5t-120.5 -27z" />
    <glyph glyph-name="uni0403" unicode="&#x403;" horiz-adv-x="550" 
d="M81 0v700h437l13 -113h-320v-587h-130zM344 772h-132l146 129h156z" />
    <glyph glyph-name="uni0404" unicode="&#x404;" horiz-adv-x="690" 
d="M407 -16q-108 0 -188.5 45t-125 128t-44.5 195q0 116 45 197t126 124t188 43q75 0 130 -16t105 -45l-25 -107q-49 26 -100 40.5t-105 14.5q-98 0 -158.5 -49t-73.5 -147h355v-106h-356q12 -99 71.5 -151.5t161.5 -52.5q57 0 115 14t99 41l27 -108q-47 -28 -107 -44
t-140 -16z" />
    <glyph glyph-name="uni0405" unicode="&#x405;" horiz-adv-x="607" 
d="M34 54l26 108q62 -38 113 -54.5t113 -16.5q69 0 107.5 24.5t38.5 69.5q0 32 -13.5 52.5t-46.5 35.5t-92 27q-115 25 -169.5 75.5t-54.5 134.5q0 95 71 150.5t192 55.5q65 0 123 -16.5t104 -49.5l-25 -105q-55 35 -99 49.5t-100 14.5q-67 0 -103.5 -23.5t-36.5 -66.5
q0 -28 13 -48t46 -34.5t93 -27.5q118 -25 173 -77t55 -138q0 -64 -32.5 -111t-92.5 -73t-143 -26q-75 0 -141 18t-119 52z" />
    <glyph glyph-name="uni0406" unicode="&#x406;" horiz-adv-x="292" 
d="M211 700v-700h-130v700h130z" />
    <glyph glyph-name="uni0407" unicode="&#x407;" horiz-adv-x="292" 
d="M211 700v-700h-130v700h130zM268 774q-28 0 -46.5 18.5t-18.5 46.5q0 29 18.5 46.5t46.5 17.5q29 0 47.5 -17.5t18.5 -46.5q0 -28 -18.5 -46.5t-47.5 -18.5zM23 774q-28 0 -46.5 18.5t-18.5 46.5q0 29 18.5 46.5t46.5 17.5q29 0 47.5 -17.5t18.5 -46.5q0 -28 -18.5 -46.5
t-47.5 -18.5z" />
    <glyph glyph-name="uni0408" unicode="&#x408;" horiz-adv-x="561" 
d="M32 34l23 106q31 -21 70 -33t76 -12q83 0 118.5 47t35.5 152v406h130v-415q0 -301 -277 -301q-52 0 -100 14t-76 36z" />
    <glyph glyph-name="uni0409" unicode="&#x409;" horiz-adv-x="1073" 
d="M69 -6q-17 0 -31.5 2t-24.5 4l12 123q15 -6 33 -6q25 0 45 12t35.5 46.5t27 102t19.5 178.5q5 65 7.5 125t3.5 119h449v-259h127q119 0 188.5 -59t69.5 -163q0 -103 -68 -161t-184 -58h-263v587h-201q-2 -40 -4.5 -79.5t-5.5 -78.5q-12 -141 -32 -227.5t-49.5 -131
t-67.5 -60.5t-86 -16zM764 338h-119v-235h119q137 0 137 117q0 118 -137 118z" />
    <glyph glyph-name="uni040A" unicode="&#x40a;" horiz-adv-x="1072" 
d="M1029 219q0 -103 -68 -161t-184 -58h-263v298h-303v-298h-130v700h130v-289h303v289h130v-259h127q119 0 188.5 -59t69.5 -163zM763 338h-119v-235h119q137 0 137 117q0 118 -137 118z" />
    <glyph glyph-name="uni040B" unicode="&#x40b;" horiz-adv-x="836" 
d="M197 0v587h-179v113h606v-113h-297v-193q52 24 100 33.5t97 9.5q116 0 179.5 -53t63.5 -151v-233h-130v219q0 108 -139 108q-42 0 -85 -8t-86 -28v-291h-130z" />
    <glyph glyph-name="uni040C" unicode="&#x40c;" horiz-adv-x="686" 
d="M81 0v700h130v-289h100l180 289h149l-220 -334l253 -366h-155l-202 298h-105v-298h-130zM384 772h-132l146 129h156z" />
    <glyph glyph-name="uni040D" unicode="&#x40d;" horiz-adv-x="754" 
d="M81 0v700h124v-516l339 516h129v-700h-124v516l-342 -516h-126zM346 772l-170 129h156l146 -129h-132z" />
    <glyph glyph-name="uni040E" unicode="&#x40e;" horiz-adv-x="691" 
d="M189 -16q-31 0 -51 4t-40 12l11 108q37 -17 72 -17q75 0 104 46l8 12l-278 551h145l200 -424l182 424h134l-260 -564q-37 -82 -93 -117t-134 -35zM527 882q-10 -75 -54.5 -109t-131.5 -34t-131 34t-55 109l99 12q4 -39 26 -61.5t61 -22.5t61 22.5t26 61.5z" />
    <glyph glyph-name="uni040F" unicode="&#x40f;" horiz-adv-x="741" 
d="M81 0v700h130v-587h319v587h130v-700h-230v-170h-119v170h-230z" />
    <glyph glyph-name="uni0410" unicode="&#x410;" horiz-adv-x="724" 
d="M150 0h-137l282 700h134l282 -700h-142l-62 169h-294zM252 276h215l-107 291z" />
    <glyph glyph-name="uni0411" unicode="&#x411;" horiz-adv-x="646" 
d="M81 0v700h461l13 -113h-349v-170h130q125 0 196 -54.5t71 -152.5q0 -100 -66.5 -155t-187.5 -55h-268zM206 319v-218h130q65 0 101.5 28.5t36.5 80.5q0 109 -149 109h-119z" />
    <glyph glyph-name="uni0412" unicode="&#x412;" horiz-adv-x="669" 
d="M626 201q0 -94 -68.5 -147.5t-189.5 -53.5h-287v700h265q113 0 178.5 -48t65.5 -133q0 -52 -32.5 -92t-87.5 -58q70 -12 113 -57t43 -111zM328 411q70 0 103 24.5t33 75.5q0 43 -34 65.5t-98 22.5h-126v-188h122zM355 101q67 0 105 27.5t38 78.5q0 53 -39.5 79.5
t-114.5 26.5h-138v-212h149z" />
    <glyph glyph-name="uni0413" unicode="&#x413;" horiz-adv-x="550" 
d="M81 0v700h437l13 -113h-320v-587h-130z" />
    <glyph glyph-name="uni0414" unicode="&#x414;" horiz-adv-x="806" 
d="M33 -170v283h77q41 59 62.5 144.5t31.5 218.5q5 56 6.5 112t2.5 112h466v-587h94v-283h-119v170h-502v-170h-119zM325 459q-9 -118 -31 -203.5t-52 -142.5h311v474h-220q-2 -32 -3.5 -64t-4.5 -64z" />
    <glyph glyph-name="uni0415" unicode="&#x415;" horiz-adv-x="606" 
d="M81 0v700h463l13 -109h-348v-181h317v-109h-317v-192h368l-13 -109h-483z" />
    <glyph glyph-name="uni0416" unicode="&#x416;" horiz-adv-x="1066" 
d="M13 0l251 366l-218 334h149l178 -289h95v289h130v-289h95l178 289h149l-219 -334l252 -366h-155l-200 298h-100v-298h-130v298h-100l-200 -298h-155z" />
    <glyph glyph-name="uni0417" unicode="&#x417;" horiz-adv-x="598" 
d="M288 -16q-67 0 -133 12.5t-122 41.5l29 107q46 -25 105 -39.5t112 -14.5q148 0 148 113q0 53 -37 80t-108 27h-138v104h132q59 0 93.5 24t34.5 72q0 98 -138 98q-52 0 -102 -11.5t-91 -31.5l-23 105q44 21 99.5 33t122.5 12q122 0 190 -49.5t68 -139.5q0 -53 -30.5 -94
t-79.5 -63q65 -23 100 -69t35 -109q0 -98 -70.5 -153t-196.5 -55z" />
    <glyph glyph-name="uni0418" unicode="&#x418;" horiz-adv-x="754" 
d="M81 0v700h124v-516l339 516h129v-700h-124v516l-342 -516h-126z" />
    <glyph glyph-name="uni0419" unicode="&#x419;" horiz-adv-x="754" 
d="M81 0v700h124v-516l339 516h129v-700h-124v516l-342 -516h-126zM563 882q-10 -75 -54.5 -109t-131.5 -34t-131 34t-55 109l99 12q4 -39 26 -61.5t61 -22.5t61 22.5t26 61.5z" />
    <glyph glyph-name="uni041A" unicode="&#x41a;" horiz-adv-x="686" 
d="M81 0v700h130v-289h100l180 289h149l-220 -334l253 -366h-155l-202 298h-105v-298h-130z" />
    <glyph glyph-name="uni041B" unicode="&#x41b;" horiz-adv-x="756" 
d="M69 -6q-17 0 -31.5 2t-24.5 4l12 123q15 -6 33 -6q25 0 45.5 12t36 46.5t27 102t18.5 178.5q5 65 7.5 125t3.5 119h479v-700h-130v587h-231q-2 -40 -4.5 -79.5t-5.5 -78.5q-11 -141 -31 -227.5t-49.5 -131t-68 -60.5t-86.5 -16z" />
    <glyph glyph-name="uni041C" unicode="&#x41c;" horiz-adv-x="896" 
d="M392 118l-187 405v-523h-124v700h162l207 -460l208 460h157v-700h-124v521l-187 -403h-112z" />
    <glyph glyph-name="uni041D" unicode="&#x41d;" horiz-adv-x="749" 
d="M668 0h-130v298h-327v-298h-130v700h130v-289h327v289h130v-700z" />
    <glyph glyph-name="uni041E" unicode="&#x41e;" horiz-adv-x="822" 
d="M411 -16q-79 0 -145.5 27t-115 76t-75 116t-26.5 147t26.5 147t75 116t115 76t145.5 27t145.5 -27t115 -76t75 -116t26.5 -147t-26.5 -147t-75 -116t-115 -76t-145.5 -27zM411 97q68 0 119 32t79.5 89t28.5 132t-28.5 132t-79.5 89t-119 32t-119 -32t-79.5 -89
t-28.5 -132t28.5 -132t79.5 -89t119 -32z" />
    <glyph glyph-name="uni041F" unicode="&#x41f;" horiz-adv-x="742" 
d="M81 0v700h580v-700h-130v587h-320v-587h-130z" />
    <glyph glyph-name="uni0420" unicode="&#x420;" horiz-adv-x="627" 
d="M319 250h-111v-250h-127v700h238q82 0 141.5 -27.5t92.5 -78t33 -119.5t-33 -119.5t-92.5 -78t-141.5 -27.5zM307 353q71 0 109.5 32t38.5 90q0 59 -38.5 90.5t-109.5 31.5h-99v-244h99z" />
    <glyph glyph-name="uni0421" unicode="&#x421;" horiz-adv-x="695" 
d="M184 352q0 -119 66 -187t182 -68q94 0 196 53l24 -109q-47 -27 -107.5 -42t-122.5 -15q-114 0 -197.5 44.5t-129.5 126t-46 191.5q0 108 47 191.5t131.5 131t198.5 47.5q56 0 114 -14t104 -38l-25 -112q-91 51 -188 51q-75 0 -130.5 -31t-86 -87t-30.5 -133z" />
    <glyph glyph-name="uni0422" unicode="&#x422;" horiz-adv-x="630" 
d="M18 587v113h594v-113h-232v-587h-130v587h-232z" />
    <glyph glyph-name="uni0423" unicode="&#x423;" horiz-adv-x="691" 
d="M189 -16q-31 0 -51 4t-40 12l11 108q37 -17 72 -17q75 0 104 46l8 12l-278 551h145l200 -424l182 424h134l-260 -564q-37 -82 -93 -117t-134 -35z" />
    <glyph glyph-name="uni0424" unicode="&#x424;" horiz-adv-x="856" 
d="M366 0v65q-149 12 -233 87t-84 205t84 205t233 88v66h124v-66q149 -13 233 -88t84 -205t-84 -205t-233 -87v-65h-124zM675 357q0 88 -48.5 135t-138.5 58v-386q90 11 138.5 58t48.5 135zM181 357q0 -88 48.5 -135t139.5 -58v386q-90 -11 -139 -58.5t-49 -134.5z" />
    <glyph glyph-name="uni0425" unicode="&#x425;" horiz-adv-x="699" 
d="M163 0h-149l258 360l-238 340h153l165 -244l165 244h148l-240 -337l260 -363h-155l-183 268z" />
    <glyph glyph-name="uni0426" unicode="&#x426;" horiz-adv-x="780" 
d="M747 113v-283h-119v170h-547v700h130v-587h312v587h130v-587h94z" />
    <glyph glyph-name="uni0427" unicode="&#x427;" horiz-adv-x="722" 
d="M641 0h-130v274q-55 -23 -102 -30.5t-103 -7.5q-115 0 -180.5 57t-65.5 158v249h130v-236q0 -118 139 -118q40 0 85.5 7t96.5 28v319h130v-700z" />
    <glyph glyph-name="uni0428" unicode="&#x428;" horiz-adv-x="1016" 
d="M935 0h-854v700h128v-587h235v587h128v-587h235v587h128v-700z" />
    <glyph glyph-name="uni0429" unicode="&#x429;" horiz-adv-x="1062" 
d="M1029 113v-283h-119v170h-829v700h128v-587h235v587h128v-587h235v587h128v-587h94z" />
    <glyph glyph-name="uni042A" unicode="&#x42a;" horiz-adv-x="799" 
d="M494 0h-270v587h-212l13 113h329v-241h137q81 0 140.5 -28t92 -79.5t32.5 -123.5q0 -108 -70 -168t-192 -60zM354 356v-253h126q71 0 109.5 32.5t38.5 93.5q0 62 -38.5 94.5t-109.5 32.5h-126z" />
    <glyph glyph-name="uni042B" unicode="&#x42b;" horiz-adv-x="920" 
d="M81 0v700h130v-241h128q81 0 140.5 -28t92 -79.5t32.5 -123.5q0 -108 -69.5 -168t-192.5 -60h-261zM709 0v700h130v-700h-130zM211 103h118q71 0 109 32.5t38 93.5q0 62 -38 94.5t-109 32.5h-118v-253z" />
    <glyph glyph-name="uni042C" unicode="&#x42c;" horiz-adv-x="656" 
d="M351 0h-270v700h130v-241h136q82 0 141.5 -28t92 -79.5t32.5 -123.5q0 -108 -70 -168t-192 -60zM211 356v-253h126q71 0 109 32.5t38 93.5q0 62 -38 94.5t-109 32.5h-126z" />
    <glyph glyph-name="uni042D" unicode="&#x42d;" horiz-adv-x="689" 
d="M640 352q0 -112 -44 -195t-124.5 -128t-188.5 -45q-79 0 -139.5 16t-107.5 44l26 108q42 -27 99.5 -41t114.5 -14q102 0 161.5 52.5t71.5 151.5h-355v106h354q-13 98 -73.5 147t-157.5 49q-54 0 -105 -14.5t-100 -40.5l-25 107q50 29 105 45t130 16q107 0 187.5 -43
t125.5 -124t45 -197z" />
    <glyph glyph-name="uni042E" unicode="&#x42e;" horiz-adv-x="1074" 
d="M211 0h-130v700h130v-289h105q13 90 61 159t123 107.5t169 38.5q78 0 143 -27t113 -76t74 -116t26 -147t-26 -147t-74 -116t-113 -76t-143 -27q-95 0 -171 40t-124 110.5t-59 163.5h-104v-298zM669 97q66 0 116 32t77.5 89t27.5 132t-27.5 132t-77.5 89t-116 32t-116 -32
t-78 -89t-28 -132t28 -132t78 -89t116 -32z" />
    <glyph glyph-name="uni042F" unicode="&#x42f;" horiz-adv-x="677" 
d="M186 0h-145l178 293q-65 24 -100 73.5t-35 116.5q0 100 72 158.5t196 58.5h244v-700h-127v266h-117h-12zM214 483q0 -55 38.5 -84.5t110.5 -29.5h106v228h-106q-72 0 -110.5 -29.5t-38.5 -84.5z" />
    <glyph glyph-name="uni0430" unicode="&#x430;" horiz-adv-x="567" 
d="M394 0l-4 75q-22 -41 -66.5 -64.5t-104.5 -23.5q-81 0 -129 43t-48 115q0 90 70.5 132.5t224.5 44.5l45 1q-3 106 -121 106q-46 0 -84 -11t-82 -39l-23 96q44 28 95 41t106 13q110 0 169 -54.5t59 -156.5v-318h-107zM253 83q61 0 95 36t34 98v26l-36 -1q-100 -1 -143 -21
t-43 -67q0 -33 24.5 -52t68.5 -19z" />
    <glyph glyph-name="uni0431" unicode="&#x431;" horiz-adv-x="631" 
d="M586 247q0 -73 -34 -132t-94 -93.5t-138 -34.5q-144 0 -208 92.5t-64 257.5q0 167 55.5 260t165.5 118q71 16 131.5 24.5t136.5 13.5l17 -109q-69 -5 -128 -12t-118 -20q-64 -13 -105 -64.5t-41 -151.5q28 51 79 79.5t116 28.5q66 0 118 -31t81.5 -88.5t29.5 -137.5z
M181 260q0 -79 36 -124.5t102 -45.5q65 0 103 44t38 113q0 65 -36 109.5t-104 44.5q-40 0 -71.5 -19.5t-49.5 -51.5t-18 -70z" />
    <glyph glyph-name="uni0432" unicode="&#x432;" horiz-adv-x="566" 
d="M332 0h-262v516h244q94 0 145.5 -33.5t51.5 -97.5q0 -45 -25.5 -73t-67.5 -42q53 -11 82 -40.5t29 -78.5q0 -73 -51.5 -112t-145.5 -39zM188 428v-121h111q43 0 67 15.5t24 48.5q0 28 -22.5 42.5t-63.5 14.5h-116zM188 221v-133h136q39 0 61.5 16.5t22.5 50.5
q0 66 -95 66h-125z" />
    <glyph glyph-name="uni0433" unicode="&#x433;" horiz-adv-x="442" 
d="M194 0h-124v516h353l12 -100h-241v-416z" />
    <glyph glyph-name="uni0434" unicode="&#x434;" horiz-adv-x="669" 
d="M23 -142v242h64q19 33 32.5 67.5t22.5 79t14 106.5q4 41 6 83t3 80h393v-416h88v-242h-110v142h-403v-142h-110zM264 336q-7 -82 -21.5 -136.5t-36.5 -99.5h231v316h-168l-2 -40t-3 -40z" />
    <glyph glyph-name="uni0435" unicode="&#x435;" horiz-adv-x="579" 
d="M490 132l22 -97q-41 -23 -90.5 -35.5t-105.5 -12.5q-81 0 -142 33t-95 94t-34 143q0 80 33 141.5t90.5 96t132.5 34.5q113 0 174.5 -71.5t61.5 -200.5q0 -8 -0.5 -17.5t-2.5 -17.5h-367q9 -62 50 -98t112 -36q46 0 82.5 10t78.5 34zM298 434q-51 0 -85 -33t-44 -95h251
q-8 65 -37.5 96.5t-84.5 31.5z" />
    <glyph glyph-name="uni0436" unicode="&#x436;" horiz-adv-x="860" 
d="M155 0h-144l192 271l-170 245h139l131 -203h67v203h120v-203h67l131 203h139l-170 -245l192 -271h-144l-147 213h-68v-213h-120v213h-68z" />
    <glyph glyph-name="uni0437" unicode="&#x437;" horiz-adv-x="507" 
d="M225 433q-47 0 -87 -13t-74 -33l-24 90q44 25 94.5 38.5t107.5 13.5q210 0 210 -145q0 -42 -22.5 -70.5t-59.5 -43.5q100 -28 100 -119q0 -80 -60 -122t-176 -42q-58 0 -110 13.5t-90 37.5l25 93q27 -19 71.5 -33.5t93.5 -14.5q125 0 125 73q0 64 -83 64h-114v89h98
q81 0 81 60q0 64 -106 64z" />
    <glyph glyph-name="uni0438" unicode="&#x438;" horiz-adv-x="616" 
d="M70 516h120v-350l243 350h113v-516h-120v347l-243 -347h-113v516z" />
    <glyph glyph-name="uni0439" unicode="&#x439;" horiz-adv-x="616" 
d="M70 516h120v-350l243 350h113v-516h-120v347l-243 -347h-113v516zM309 585q-82 0 -126.5 35t-54.5 114l96 12q5 -44 26 -68t59 -24t59.5 24t25.5 68l96 -12q-10 -79 -54 -114t-127 -35z" />
    <glyph glyph-name="uni043A" unicode="&#x43a;" horiz-adv-x="575" 
d="M194 0h-124v516h124v-203h71l138 203h140l-178 -245l199 -271h-144l-154 213h-72v-213z" />
    <glyph glyph-name="uni043B" unicode="&#x43b;" horiz-adv-x="628" 
d="M154 516h404v-516h-124v416h-172q-2 -42 -4.5 -84t-6.5 -85q-8 -98 -27.5 -153t-54.5 -76.5t-89 -21.5q-40 0 -58 9l10 102q12 -4 30 -4q24 0 39 12t24.5 46.5t14.5 103.5q5 62 8.5 124t5.5 127z" />
    <glyph glyph-name="uni043C" unicode="&#x43c;" horiz-adv-x="766" 
d="M338 78l-154 292v-370h-114v516h145l170 -331l171 331h140v-516h-114v370l-153 -292h-91z" />
    <glyph glyph-name="uni043D" unicode="&#x43d;" horiz-adv-x="608" 
d="M194 0h-124v516h124v-199h220v199h124v-516h-124v217h-220v-217z" />
    <glyph glyph-name="uni043E" unicode="&#x43e;" horiz-adv-x="626" 
d="M313 -13q-78 0 -138.5 35t-95 96t-34.5 140t34.5 140t95 96t138.5 35q79 0 139 -35t94.5 -96t34.5 -140t-34.5 -140t-94.5 -96t-139 -35zM313 93q64 0 102.5 45.5t38.5 119.5t-38.5 119.5t-102.5 45.5t-102.5 -45.5t-38.5 -119.5t38.5 -119.5t102.5 -45.5z" />
    <glyph glyph-name="uni043F" unicode="&#x43f;" horiz-adv-x="604" 
d="M194 0h-124v516h464v-516h-124v416h-216v-416z" />
    <glyph glyph-name="uni0440" unicode="&#x440;" horiz-adv-x="642" 
d="M70 -216v732h111l4 -89q26 48 72.5 75t107.5 27q67 0 119.5 -35.5t82.5 -96.5t30 -139q0 -77 -31.5 -138.5t-86 -97t-124.5 -35.5q-52 0 -93.5 20.5t-67.5 56.5v-280h-124zM329 93q63 0 102 45.5t39 119.5t-38.5 119.5t-101.5 45.5q-64 0 -104 -45.5t-40 -119.5
t39.5 -119.5t103.5 -45.5z" />
    <glyph glyph-name="uni0441" unicode="&#x441;" horiz-adv-x="535" 
d="M45 254q0 81 36 143t100.5 97t151.5 35q41 0 82.5 -10.5t73.5 -27.5l-23 -102q-62 34 -129 34q-75 0 -120 -44.5t-45 -119.5q0 -78 44 -122t122 -44q32 0 65 8.5t69 27.5l23 -100q-34 -20 -77.5 -31t-88.5 -11q-87 0 -150.5 33t-98.5 93t-35 141z" />
    <glyph glyph-name="uni0442" unicode="&#x442;" horiz-adv-x="500" 
d="M312 0h-124v416h-175v100h474v-100h-175v-416z" />
    <glyph glyph-name="uni0443" unicode="&#x443;" horiz-adv-x="571" 
d="M113 -124q29 0 47 9.5t32 32.5t31 63l7 18l-221 517h136l147 -391l139 391h131l-222 -545q-29 -71 -59 -115.5t-68 -64.5t-91 -20q-28 0 -49 5t-40 15l13 100q25 -15 67 -15z" />
    <glyph glyph-name="uni0444" unicode="&#x444;" horiz-adv-x="788" 
d="M332 -216v206q-93 10 -157 46.5t-97 93.5t-33 128t33 128t96.5 93.5t157.5 46.5v174h124v-174q94 -10 157.5 -46.5t96.5 -93.5t33 -128t-33 -128t-97 -93.5t-157 -46.5v-206h-124zM616 258q0 75 -44.5 117.5t-120.5 53.5v-342q81 12 123 56.5t42 114.5zM172 258
q0 -73 43 -116.5t122 -54.5v342q-78 -11 -121.5 -55t-43.5 -116z" />
    <glyph glyph-name="uni0445" unicode="&#x445;" horiz-adv-x="581" 
d="M158 0h-136l200 264l-192 252h142l122 -172l122 172h135l-191 -249l199 -267h-144l-127 184z" />
    <glyph glyph-name="uni0446" unicode="&#x446;" horiz-adv-x="641" 
d="M618 100v-242h-110v142h-438v516h124v-416h212v416h124v-416h88z" />
    <glyph glyph-name="uni0447" unicode="&#x447;" horiz-adv-x="578" 
d="M38 332v184h124v-172q0 -82 93 -82q34 0 68.5 7t60.5 22v225h124v-516h-124v198q-36 -17 -73 -25t-77 -8q-91 0 -143.5 42t-52.5 125z" />
    <glyph glyph-name="uni0448" unicode="&#x448;" horiz-adv-x="860" 
d="M790 0h-720v516h122v-416h177v416h122v-416h177v416h122v-516z" />
    <glyph glyph-name="uni0449" unicode="&#x449;" horiz-adv-x="901" 
d="M878 100v-242h-110v142h-698v516h122v-416h177v416h122v-416h177v416h122v-416h88z" />
    <glyph glyph-name="uni044A" unicode="&#x44a;" horiz-adv-x="627" 
d="M380 0h-227v416h-146l12 100h258v-167h105q102 0 160.5 -44t58.5 -127q0 -85 -58.5 -131.5t-162.5 -46.5zM277 261v-173h95q53 0 79 23.5t26 63.5q0 41 -26 63.5t-78 22.5h-96z" />
    <glyph glyph-name="uni044B" unicode="&#x44b;" horiz-adv-x="790" 
d="M70 0v516h124v-167h105q102 0 160.5 -44t58.5 -127q0 -85 -58.5 -131.5t-162.5 -46.5h-227zM596 0v516h124v-516h-124zM194 88h95q53 0 79 23.5t26 63.5q0 41 -26 63.5t-78 22.5h-96v-173z" />
    <glyph glyph-name="uni044C" unicode="&#x44c;" horiz-adv-x="544" 
d="M297 0h-227v516h124v-167h105q102 0 160.5 -44t58.5 -127q0 -85 -58.5 -131.5t-162.5 -46.5zM194 261v-173h95q53 0 79 23.5t26 63.5q0 41 -26 63.5t-78 22.5h-96z" />
    <glyph glyph-name="uni044D" unicode="&#x44d;" horiz-adv-x="546" 
d="M230 -13q-62 0 -113 13.5t-83 33.5l24 100q35 -22 74 -33t89 -11q139 0 158 129h-253v88h251q-12 58 -54.5 88.5t-108.5 30.5q-42 0 -77 -9t-77 -30l-22 100q42 20 87.5 31t100.5 11q84 0 145.5 -34t95.5 -95t34 -143t-33.5 -142.5t-94.5 -94t-143 -33.5z" />
    <glyph glyph-name="uni044E" unicode="&#x44e;" horiz-adv-x="853" 
d="M194 0h-124v516h124v-199h84q12 63 48 110.5t91 74.5t123 27q79 0 139 -35t94.5 -96t34.5 -140t-34.5 -140t-94.5 -96t-139 -35q-72 0 -128.5 29t-92.5 81t-44 120h-81v-217zM540 93q64 0 102.5 45.5t38.5 119.5t-38.5 119.5t-102.5 45.5t-102.5 -45.5t-38.5 -119.5
t38.5 -119.5t102.5 -45.5z" />
    <glyph glyph-name="uni044F" unicode="&#x44f;" horiz-adv-x="553" 
d="M32 0l121 191q-50 20 -77 59t-27 93q0 83 59 128t169 45h206v-516h-120v171h-93l-103 -171h-135zM363 428h-81q-52 0 -82.5 -21.5t-30.5 -63.5t29 -63t84 -21h81v169z" />
    <glyph glyph-name="uni0450" unicode="&#x450;" horiz-adv-x="579" 
d="M490 132l22 -97q-41 -23 -90.5 -35.5t-105.5 -12.5q-81 0 -142 33t-95 94t-34 143q0 80 33 141.5t90.5 96t132.5 34.5q113 0 174.5 -71.5t61.5 -200.5q0 -8 -0.5 -17.5t-2.5 -17.5h-367q9 -62 50 -98t112 -36q46 0 82.5 10t78.5 34zM298 434q-51 0 -85 -33t-44 -95h251
q-8 65 -37.5 96.5t-84.5 31.5zM277 599l-151 155h138l124 -155h-111z" />
    <glyph glyph-name="uni0451" unicode="&#x451;" horiz-adv-x="579" 
d="M490 132l22 -97q-41 -23 -90.5 -35.5t-105.5 -12.5q-81 0 -142 33t-95 94t-34 143q0 80 33 141.5t90.5 96t132.5 34.5q113 0 174.5 -71.5t61.5 -200.5q0 -8 -0.5 -17.5t-2.5 -17.5h-367q9 -62 50 -98t112 -36q46 0 82.5 10t78.5 34zM298 434q-51 0 -85 -33t-44 -95h251
q-8 65 -37.5 96.5t-84.5 31.5zM415 613q-28 0 -46 18t-18 46t18 45.5t46 17.5q29 0 47 -17.5t18 -45.5t-18 -46t-47 -18zM186 613q-28 0 -46 18t-18 46t18 45.5t46 17.5q29 0 47 -17.5t18 -45.5t-18 -46t-47 -18z" />
    <glyph glyph-name="uni0452" unicode="&#x452;" horiz-adv-x="604" 
d="M343 -136q-15 0 -29.5 2.5t-24.5 6.5l11 101q8 -1 17 -2t16 -1q57 0 79.5 57t22.5 162q0 61 -7.5 110.5t-30.5 78.5t-68 29q-56 0 -88.5 -36.5t-32.5 -101.5v-270h-124v584h-71v80h71v76h124v-76h177v-80h-177v-149q23 39 63.5 60.5t91.5 21.5q60 0 98 -27.5t59.5 -73.5
t30 -102t8.5 -114q0 -157 -54.5 -246.5t-161.5 -89.5z" />
    <glyph glyph-name="uni0453" unicode="&#x453;" horiz-adv-x="442" 
d="M194 0h-124v516h353l12 -100h-241v-416zM275 599h-111l124 155h138z" />
    <glyph glyph-name="uni0454" unicode="&#x454;" horiz-adv-x="546" 
d="M316 -13q-82 0 -143 33.5t-94.5 94t-33.5 142.5t34 143t95.5 95t145.5 34q56 0 101 -11t87 -31l-22 -100q-42 21 -77 30t-77 9q-66 0 -108.5 -30.5t-55.5 -88.5h252v-88h-253q19 -129 158 -129q50 0 89 11t74 33l24 -100q-32 -20 -83 -33.5t-113 -13.5z" />
    <glyph glyph-name="uni0455" unicode="&#x455;" horiz-adv-x="491" 
d="M46 370q0 74 57.5 116.5t157.5 42.5q101 0 177 -49l-24 -96q-40 26 -74 36t-76 10q-96 0 -96 -53q0 -26 20 -40.5t79 -26.5q98 -19 141 -57.5t43 -103.5q0 -74 -59 -118t-160 -44q-116 0 -203 53l25 98q47 -28 85.5 -40t86.5 -12q47 0 74 14.5t27 42.5t-21.5 42.5
t-85.5 27.5q-91 18 -132.5 55.5t-41.5 101.5z" />
    <glyph glyph-name="uni0456" unicode="&#x456;" horiz-adv-x="264" 
d="M132 601q-34 0 -56 21t-22 54t22 54t56 21q35 0 56.5 -21t21.5 -54t-21.5 -54t-56.5 -21zM194 0h-124v516h124v-516z" />
    <glyph glyph-name="uni0457" unicode="&#x457;" horiz-adv-x="264" 
d="M194 0h-124v516h124v-516zM246 613q-28 0 -46 18t-18 46t18 45.5t46 17.5q29 0 47 -17.5t18 -45.5t-18 -46t-47 -18zM17 613q-28 0 -46 18t-18 46t18 45.5t46 17.5q29 0 47 -17.5t18 -45.5t-18 -46t-47 -18z" />
    <glyph glyph-name="uni0458" unicode="&#x458;" horiz-adv-x="264" 
d="M132 601q-34 0 -56 21t-22 54t22 54t56 21q35 0 56.5 -21t21.5 -54t-21.5 -54t-56.5 -21zM-99 -205l20 99q20 -10 36.5 -14t38.5 -4q74 0 74 96v544h124v-557q0 -91 -45.5 -139.5t-133.5 -48.5q-31 0 -60 5.5t-54 18.5z" />
    <glyph glyph-name="uni0459" unicode="&#x459;" horiz-adv-x="880" 
d="M154 516h390v-167h87q104 0 163.5 -43.5t59.5 -127.5t-60 -131t-164 -47h-210v416h-158q-2 -42 -4.5 -84t-6.5 -85q-8 -98 -27.5 -153t-54.5 -76.5t-89 -21.5q-40 0 -58 9l10 102q12 -4 30 -4q24 0 39 12t24.5 46.5t14.5 103.5q5 62 8.5 124t5.5 127zM623 261h-79v-173
h78q52 0 80 23.5t28 63.5q0 41 -28 63.5t-79 22.5z" />
    <glyph glyph-name="uni045A" unicode="&#x45a;" horiz-adv-x="870" 
d="M194 0h-124v516h124v-199h216v199h124v-167h87q104 0 163.5 -43.5t59.5 -127.5t-60 -131t-164 -47h-210v217h-216v-217zM613 261h-79v-173h78q52 0 80 23.5t28 63.5q0 41 -28 63.5t-79 22.5z" />
    <glyph glyph-name="uni045B" unicode="&#x45b;" horiz-adv-x="619" 
d="M385 664v-80h-177v-149q23 39 63.5 60.5t91.5 21.5q90 0 140 -56t50 -161v-300h-124v279q0 129 -100 129q-56 0 -88.5 -36.5t-32.5 -101.5v-270h-124v584h-71v80h71v76h124v-76h177z" />
    <glyph glyph-name="uni045C" unicode="&#x45c;" horiz-adv-x="575" 
d="M194 0h-124v516h124v-203h71l138 203h140l-178 -245l199 -271h-144l-154 213h-72v-213zM313 599h-111l124 155h138z" />
    <glyph glyph-name="uni045D" unicode="&#x45d;" horiz-adv-x="616" 
d="M70 516h120v-350l243 350h113v-516h-120v347l-243 -347h-113v516zM285 599l-151 155h138l124 -155h-111z" />
    <glyph glyph-name="uni045E" unicode="&#x45e;" horiz-adv-x="571" 
d="M113 -124q29 0 47 9.5t32 32.5t31 63l7 18l-221 517h136l147 -391l139 391h131l-222 -545q-29 -71 -59 -115.5t-68 -64.5t-91 -20q-28 0 -49 5t-40 15l13 100q25 -15 67 -15zM285 585q-82 0 -126.5 35t-54.5 114l96 12q5 -44 26 -68t59 -24t59.5 24t25.5 68l96 -12
q-10 -79 -54 -114t-127 -35z" />
    <glyph glyph-name="uni045F" unicode="&#x45f;" horiz-adv-x="604" 
d="M247 -142v142h-177v516h124v-416h216v416h124v-516h-177v-142h-110z" />
    <glyph glyph-name="uni0462" unicode="&#x462;" horiz-adv-x="656" 
d="M351 0h-270v535h-91v88h91v77h130v-77h205v-88h-205v-76h136q82 0 141.5 -28t92 -79.5t32.5 -123.5q0 -108 -70 -168t-192 -60zM211 356v-253h126q71 0 109 32.5t38 93.5q0 62 -38 94.5t-109 32.5h-126z" />
    <glyph glyph-name="uni0463" unicode="&#x463;" horiz-adv-x="544" 
d="M70 0v435h-81v80h81v225h124v-225h184v-80h-184v-86h105q102 0 160.5 -44t58.5 -127q0 -85 -58.5 -131.5t-162.5 -46.5h-227zM194 88h95q53 0 79 23.5t26 63.5q0 41 -26 63.5t-78 22.5h-96v-173z" />
    <glyph glyph-name="uni0472" unicode="&#x472;" horiz-adv-x="822" 
d="M411 -16q-79 0 -145.5 27t-115 76t-75 116t-26.5 147t26.5 147t75 116t115 76t145.5 27t145.5 -27t115 -76t75 -116t26.5 -147t-26.5 -147t-75 -116t-115 -76t-145.5 -27zM413 388q49 -15 78.5 -19.5t54.5 -4.5q45 0 92 26q-8 64 -38.5 112.5t-79 75.5t-109.5 27
t-109 -26.5t-78.5 -74t-38.5 -110.5q46 20 85 20q32 0 67.5 -6.5t75.5 -19.5zM411 95q60 0 107.5 25.5t78 72t39.5 108.5q-54 -27 -101 -27q-31 0 -66 6.5t-77 20.5q-41 14 -74 18.5t-59 4.5q-35 0 -74 -18q8 -63 38.5 -110.5t78.5 -74t109 -26.5z" />
    <glyph glyph-name="uni0473" unicode="&#x473;" horiz-adv-x="626" 
d="M313 -13q-78 0 -138.5 35t-95 96t-34.5 140t34.5 140t95 96t138.5 35q79 0 139 -35t94.5 -96t34.5 -140t-34.5 -140t-94.5 -96t-139 -35zM318 289q31 -13 50.5 -16.5t35.5 -3.5q12 0 25.5 2.5t25.5 8.5q-6 65 -44.5 105t-97.5 40q-54 0 -91 -34t-48 -91q13 6 26 8t25 2
q21 0 44.5 -5t48.5 -16zM313 91q52 0 88.5 31.5t48.5 83.5q-13 -5 -26.5 -7.5t-25.5 -2.5q-21 0 -43.5 5t-49.5 17q-26 11 -47.5 15t-38.5 4q-11 0 -23 -2t-24 -7q8 -62 46 -99.5t95 -37.5z" />
    <glyph glyph-name="uni0474" unicode="&#x474;" horiz-adv-x="748" 
d="M742 696l-16 -101q-5 2 -12.5 3t-13.5 1q-27 0 -45 -30t-38 -81l-193 -488h-134l-277 700h142l204 -561l151 412q27 74 65 114.5t104 40.5q36 0 63 -10z" />
    <glyph glyph-name="uni0475" unicode="&#x475;" horiz-adv-x="591" 
d="M348 0h-128l-211 516h135l142 -399l97 267q15 42 33 72.5t46 47t72 16.5q14 0 29 -1t23 -3l-15 -96q-3 1 -7 1.5t-9 0.5q-21 0 -36.5 -21t-29.5 -57z" />
    <glyph glyph-name="uni0490" unicode="&#x490;" horiz-adv-x="550" 
d="M81 0v700h331v140h119v-253h-320v-587h-130z" />
    <glyph glyph-name="uni0491" unicode="&#x491;" horiz-adv-x="442" 
d="M194 0h-124v516h255v118h110v-218h-241v-416z" />
    <glyph glyph-name="uni0492" unicode="&#x492;" horiz-adv-x="586" 
d="M117 0v297h-112v101h112v302h437l13 -113h-320v-189h200v-101h-200v-297h-130z" />
    <glyph glyph-name="uni0493" unicode="&#x493;" horiz-adv-x="466" 
d="M218 0h-124v189h-87v91h87v236h353l12 -100h-241v-136h153v-91h-153v-189z" />
    <glyph glyph-name="uni0496" unicode="&#x496;" horiz-adv-x="1104" 
d="M13 0l251 366l-218 334h149l178 -289h95v289h130v-289h95l178 289h149l-219 -334l174 -253h96v-283h-119v170h-54l-200 298h-100v-298h-130v298h-100l-200 -298h-155z" />
    <glyph glyph-name="uni0497" unicode="&#x497;" horiz-adv-x="895" 
d="M155 0h-144l192 271l-170 245h139l131 -203h67v203h120v-203h67l131 203h139l-170 -245l121 -171h94v-242h-110v142h-57l-147 213h-68v-213h-120v213h-68z" />
    <glyph glyph-name="uni049A" unicode="&#x49a;" horiz-adv-x="725" 
d="M81 0v700h130v-289h100l180 289h149l-220 -334l175 -253h97v-283h-119v170h-55l-202 298h-105v-298h-130z" />
    <glyph glyph-name="uni049B" unicode="&#x49b;" horiz-adv-x="606" 
d="M194 0h-124v516h124v-203h71l138 203h140l-178 -245l126 -171h92v-242h-110v142h-53l-154 213h-72v-213z" />
    <glyph glyph-name="uni04A2" unicode="&#x4a2;" horiz-adv-x="795" 
d="M762 -170h-119v170h-105v298h-327v-298h-130v700h130v-289h327v289h130v-587h94v-283z" />
    <glyph glyph-name="uni04A3" unicode="&#x4a3;" horiz-adv-x="649" 
d="M194 0h-124v516h124v-199h220v199h124v-416h88v-242h-110v142h-102v217h-220v-217z" />
    <glyph glyph-name="uni04AE" unicode="&#x4ae;" horiz-adv-x="692" 
d="M411 282v-282h-130v282l-266 418h151l183 -315l183 315h145z" />
    <glyph glyph-name="uni04AF" unicode="&#x4af;" horiz-adv-x="567" 
d="M221 -216v251l-212 481h135l143 -368l142 368h129l-213 -483v-249h-124z" />
    <glyph glyph-name="uni04B0" unicode="&#x4b0;" horiz-adv-x="692" 
d="M596 181h-185v-181h-130v181h-190v101h190l-266 418h151l183 -315l183 315h145l-266 -418h185v-101z" />
    <glyph glyph-name="uni04B1" unicode="&#x4b1;" horiz-adv-x="567" 
d="M221 -216v216h-154v91h129l-187 425h135l143 -368l142 368h129l-187 -425h129v-91h-155v-216h-124z" />
    <glyph glyph-name="uni04BA" unicode="&#x4ba;" horiz-adv-x="720" 
d="M81 0v700h130v-294q52 24 100 33.5t97 9.5q116 0 179.5 -53t63.5 -151v-245h-130v231q0 108 -139 108q-42 0 -85 -8t-86 -28v-303h-130z" />
    <glyph glyph-name="uni04BB" unicode="&#x4bb;" horiz-adv-x="605" 
d="M194 282v-282h-124v740h124v-293q23 39 63.5 60.5t91.5 21.5q90 0 140 -56t50 -161v-312h-124v291q0 129 -100 129q-56 0 -88.5 -36.5t-32.5 -101.5z" />
    <glyph glyph-name="uni04D8" unicode="&#x4d8;" horiz-adv-x="748" 
d="M699 351q0 -109 -43 -191.5t-119 -129t-177 -46.5q-151 0 -231 97.5t-80 270.5q0 11 1 21.5t3 20.5h517q-9 61 -37.5 109t-77.5 75.5t-119 27.5q-60 0 -110 -14.5t-103 -47.5l-33 106q53 33 119 49.5t139 16.5q108 0 186.5 -45t121.5 -127t43 -193zM363 94q83 0 136 51.5
t69 143.5h-392q12 -95 57 -145t130 -50z" />
    <glyph glyph-name="uni04D9" unicode="&#x4d9;" horiz-adv-x="579" 
d="M279 -13q-113 0 -175 71.5t-62 200.5q0 19 3 34h368q-9 62 -50 98.5t-112 36.5q-46 0 -82.5 -10t-78.5 -35l-22 98q84 48 196 48q82 0 142.5 -33t94 -93.5t33.5 -143.5q0 -80 -32.5 -141.5t-90 -96t-132.5 -34.5zM281 82q52 0 86 33t45 95h-252q8 -64 37 -96t84 -32z" />
    <glyph glyph-name="uni04E8" unicode="&#x4e8;" horiz-adv-x="822" 
d="M411 -16q-79 0 -145.5 27t-115 76t-75 116t-26.5 147t26.5 147t75 116t115 76t145.5 27t145.5 -27t115 -76t75 -116t26.5 -147t-26.5 -147t-75 -116t-115 -76t-145.5 -27zM411 605q-90 0 -150.5 -56t-74.5 -148h450q-9 61 -40 107t-78 71.5t-107 25.5zM411 95
q61 0 109 26.5t79 74.5t38 112h-452q7 -64 37.5 -112t79 -74.5t109.5 -26.5z" />
    <glyph glyph-name="uni04E9" unicode="&#x4e9;" horiz-adv-x="626" 
d="M313 -13q-78 0 -138.5 35t-95 96t-34.5 140t34.5 140t95 96t138.5 35q79 0 139 -35t94.5 -96t34.5 -140t-34.5 -140t-94.5 -96t-139 -35zM313 425q-55 0 -92 -35t-48 -92h280q-11 57 -48 92t-92 35zM313 91q55 0 93 35.5t47 94.5h-280q9 -59 47 -94.5t93 -35.5z" />
    <glyph glyph-name="uni0E3F" unicode="&#xe3f;" horiz-adv-x="612" 
d="M339 794v-111q98 -6 153.5 -52t55.5 -124q0 -51 -32 -90.5t-86 -56.5q69 -11 111 -55t42 -109q0 -92 -65.5 -144t-178.5 -52v-110h-79v110h-204v684h204v110h79zM174 398h86v191h-86v-191zM429 500q0 72 -90 86v-185q90 15 90 99zM174 95h86v214h-86v-214zM462 202
q0 48 -31.5 74.5t-91.5 31.5v-212q57 4 90 31.5t33 74.5z" />
    <glyph glyph-name="uni1E24" unicode="&#x1e24;" horiz-adv-x="749" 
d="M668 0h-130v298h-327v-298h-130v700h130v-289h327v289h130v-700zM374 -200q-30 0 -49.5 19t-19.5 49q0 29 19.5 48t49.5 19t49.5 -19t19.5 -48q0 -30 -19.5 -49t-49.5 -19z" />
    <glyph glyph-name="uni1E25" unicode="&#x1e25;" horiz-adv-x="605" 
d="M194 282v-282h-124v740h124v-293q23 39 63.5 60.5t91.5 21.5q90 0 140 -56t50 -161v-312h-124v291q0 129 -100 129q-56 0 -88.5 -36.5t-32.5 -101.5zM304 -198q-29 0 -48.5 19t-19.5 48t19.5 47.5t48.5 18.5t48.5 -18.5t19.5 -47.5t-19.5 -48t-48.5 -19z" />
    <glyph glyph-name="uni1E36" unicode="&#x1e36;" horiz-adv-x="574" 
d="M81 0v700h130v-587h352l-14 -113h-468zM335 -200q-30 0 -49.5 19t-19.5 49q0 29 19.5 48t49.5 19t49.5 -19t19.5 -48q0 -30 -19.5 -49t-49.5 -19z" />
    <glyph glyph-name="uni1E37" unicode="&#x1e37;" horiz-adv-x="264" 
d="M194 740v-740h-124v740h124zM132 -198q-29 0 -48.5 19t-19.5 48t19.5 47.5t48.5 18.5t48.5 -18.5t19.5 -47.5t-19.5 -48t-48.5 -19z" />
    <glyph glyph-name="Wgrave" unicode="&#x1e80;" horiz-adv-x="1016" 
d="M354 0h-134l-203 700h139l139 -541l151 541h131l150 -539l139 539h133l-203 -700h-133l-155 549zM480 772l-170 129h156l146 -129h-132z" />
    <glyph glyph-name="wgrave" unicode="&#x1e81;" horiz-adv-x="834" 
d="M307 0h-128l-165 516h131l104 -392l108 392h125l107 -390l103 390h128l-165 -516h-128l-110 394zM396 599l-151 155h138l124 -155h-111z" />
    <glyph glyph-name="Wacute" unicode="&#x1e82;" horiz-adv-x="1016" 
d="M354 0h-134l-203 700h139l139 -541l151 541h131l150 -539l139 539h133l-203 -700h-133l-155 549zM542 772h-132l146 129h156z" />
    <glyph glyph-name="wacute" unicode="&#x1e83;" horiz-adv-x="834" 
d="M307 0h-128l-165 516h131l104 -392l108 392h125l107 -390l103 390h128l-165 -516h-128l-110 394zM444 599h-111l124 155h138z" />
    <glyph glyph-name="Wdieresis" unicode="&#x1e84;" horiz-adv-x="1016" 
d="M354 0h-134l-203 700h139l139 -541l151 541h131l150 -539l139 539h133l-203 -700h-133l-155 549zM633 774q-28 0 -46.5 18.5t-18.5 46.5q0 29 18.5 46.5t46.5 17.5q29 0 47.5 -17.5t18.5 -46.5q0 -28 -18.5 -46.5t-47.5 -18.5zM388 774q-28 0 -46.5 18.5t-18.5 46.5
q0 29 18.5 46.5t46.5 17.5q29 0 47.5 -17.5t18.5 -46.5q0 -28 -18.5 -46.5t-47.5 -18.5z" />
    <glyph glyph-name="wdieresis" unicode="&#x1e85;" horiz-adv-x="834" 
d="M307 0h-128l-165 516h131l104 -392l108 392h125l107 -390l103 390h128l-165 -516h-128l-110 394zM534 613q-28 0 -46 18t-18 46t18 45.5t46 17.5q29 0 47 -17.5t18 -45.5t-18 -46t-47 -18zM305 613q-28 0 -46 18t-18 46t18 45.5t46 17.5q29 0 47 -17.5t18 -45.5t-18 -46
t-47 -18z" />
    <glyph glyph-name="uni1E9E" unicode="&#x1e9e;" horiz-adv-x="753" 
d="M263 27l31 106q29 -21 64 -30.5t83 -9.5q65 0 100.5 28.5t35.5 80.5q0 55 -42.5 81.5t-134.5 30.5l-25 1v90l164 175q-57 25 -143 25q-93 0 -141.5 -47.5t-48.5 -136.5v-421h-130v432q0 135 85 209.5t233 74.5q68 0 136 -16t128 -47v-98l-150 -160q202 -26 202 -194
q0 -103 -70 -160t-187 -57q-52 0 -98 9t-92 34z" />
    <glyph glyph-name="Ygrave" unicode="&#x1ef2;" horiz-adv-x="692" 
d="M411 282v-282h-130v282l-266 418h151l183 -315l183 315h145zM322 772l-170 129h156l146 -129h-132z" />
    <glyph glyph-name="ygrave" unicode="&#x1ef3;" horiz-adv-x="571" 
d="M113 -124q29 0 47 9.5t32 32.5t31 63l7 18l-221 517h136l147 -391l139 391h131l-222 -545q-29 -71 -59 -115.5t-68 -64.5t-91 -20q-28 0 -49 5t-40 15l13 100q25 -15 67 -15zM261 599l-151 155h138l124 -155h-111z" />
    <glyph glyph-name="uni2000" unicode="&#x2000;" horiz-adv-x="500" 
 />
    <glyph glyph-name="uni2001" unicode="&#x2001;" horiz-adv-x="1000" 
 />
    <glyph glyph-name="uni2002" unicode="&#x2002;" horiz-adv-x="500" 
 />
    <glyph glyph-name="uni2003" unicode="&#x2003;" horiz-adv-x="1000" 
 />
    <glyph glyph-name="uni2004" unicode="&#x2004;" horiz-adv-x="333" 
 />
    <glyph glyph-name="uni2005" unicode="&#x2005;" horiz-adv-x="250" 
 />
    <glyph glyph-name="uni2006" unicode="&#x2006;" horiz-adv-x="167" 
 />
    <glyph glyph-name="uni2007" unicode="&#x2007;" horiz-adv-x="612" 
 />
    <glyph glyph-name="uni2008" unicode="&#x2008;" horiz-adv-x="262" 
 />
    <glyph glyph-name="uni2009" unicode="&#x2009;" horiz-adv-x="200" 
 />
    <glyph glyph-name="uni200A" unicode="&#x200a;" horiz-adv-x="150" 
 />
    <glyph glyph-name="uni200B" unicode="&#x200b;" 
 />
    <glyph glyph-name="endash" unicode="&#x2013;" horiz-adv-x="500" 
d="M0 238v108h500v-108h-500z" />
    <glyph glyph-name="emdash" unicode="&#x2014;" horiz-adv-x="1000" 
d="M0 238v108h1000v-108h-1000z" />
    <glyph glyph-name="quoteleft" unicode="&#x2018;" horiz-adv-x="262" 
d="M187 719l36 -49q-37 -15 -62 -43.5t-33 -62.5h8q32 0 53 -19.5t21 -52.5q0 -34 -21.5 -55t-56.5 -21q-37 0 -58.5 26.5t-21.5 71.5q0 68 37 124t98 81z" />
    <glyph glyph-name="quoteright" unicode="&#x2019;" horiz-adv-x="262" 
d="M75 407l-36 49q37 15 62 43.5t33 62.5h-8q-31 0 -52.5 19.5t-21.5 52.5q0 34 22 55t56 21q37 0 58.5 -26.5t21.5 -71.5q0 -67 -37 -123.5t-98 -81.5z" />
    <glyph glyph-name="quotesinglbase" unicode="&#x201a;" horiz-adv-x="262" 
d="M75 -159l-36 49q37 15 62 43.5t33 62.5h-8q-31 0 -52.5 19.5t-21.5 52.5q0 34 22 55t56 21q37 0 58.5 -26.5t21.5 -71.5q0 -67 -37 -123.5t-98 -81.5z" />
    <glyph glyph-name="quotedblleft" unicode="&#x201c;" horiz-adv-x="480" 
d="M187 719l36 -49q-37 -15 -62 -43.5t-33 -62.5h8q32 0 53 -19.5t21 -52.5q0 -34 -21.5 -55t-56.5 -21q-37 0 -58.5 26.5t-21.5 71.5q0 68 37 124t98 81zM405 719l36 -49q-37 -15 -62 -43.5t-33 -62.5h8q32 0 53 -19.5t21 -52.5q0 -34 -21.5 -55t-56.5 -21
q-37 0 -58.5 26.5t-21.5 71.5q0 68 37 124t98 81z" />
    <glyph glyph-name="quotedblright" unicode="&#x201d;" horiz-adv-x="480" 
d="M75 407l-36 49q37 15 62 43.5t33 62.5h-8q-31 0 -52.5 19.5t-21.5 52.5q0 34 22 55t56 21q37 0 58.5 -26.5t21.5 -71.5q0 -67 -37 -123.5t-98 -81.5zM293 407l-36 49q37 15 62 43.5t33 62.5h-8q-31 0 -52.5 19.5t-21.5 52.5q0 34 22 55t56 21q37 0 58.5 -26.5t21.5 -71.5
q0 -67 -37 -123.5t-98 -81.5z" />
    <glyph glyph-name="quotedblbase" unicode="&#x201e;" horiz-adv-x="480" 
d="M75 -159l-36 49q37 15 62 43.5t33 62.5h-8q-31 0 -52.5 19.5t-21.5 52.5q0 34 22 55t56 21q37 0 58.5 -26.5t21.5 -71.5q0 -67 -37 -123.5t-98 -81.5zM293 -159l-36 49q37 15 62 43.5t33 62.5h-8q-31 0 -52.5 19.5t-21.5 52.5q0 34 22 55t56 21q37 0 58.5 -26.5
t21.5 -71.5q0 -67 -37 -123.5t-98 -81.5z" />
    <glyph glyph-name="dagger" unicode="&#x2020;" horiz-adv-x="484" 
d="M306 -98h-128l9 533l-164 -5v106l164 -5l-9 209h128l-9 -209l164 5v-106l-164 5z" />
    <glyph glyph-name="daggerdbl" unicode="&#x2021;" horiz-adv-x="504" 
d="M316 -98h-128l9 200l-164 -5v106l164 -5l-9 123l9 123l-164 -5v106l164 -5l-9 200h128l-9 -200l164 5v-106l-164 5l9 -123l-9 -123l164 5v-106l-164 5z" />
    <glyph glyph-name="bullet" unicode="&#x2022;" horiz-adv-x="342" 
d="M171 145q-57 0 -93 37t-36 92q0 56 36 92.5t93 36.5t93 -36.5t36 -92.5q0 -55 -36 -92t-93 -37z" />
    <glyph glyph-name="ellipsis" unicode="&#x2026;" horiz-adv-x="1000" 
d="M167 -9q-34 0 -56.5 22t-22.5 55t22.5 54.5t56.5 21.5q35 0 57 -21.5t22 -54.5t-22 -55t-57 -22zM500 -9q-34 0 -56.5 22t-22.5 55t22.5 54.5t56.5 21.5q35 0 57 -21.5t22 -54.5t-22 -55t-57 -22zM833 -9q-34 0 -56.5 22t-22.5 55t22.5 54.5t56.5 21.5q35 0 57 -21.5
t22 -54.5t-22 -55t-57 -22z" />
    <glyph glyph-name="perthousand" unicode="&#x2030;" horiz-adv-x="1300" 
d="M336 0h-102l342 684h102zM718 394q75 0 118 -53t43 -148q0 -94 -43 -147.5t-118 -53.5t-118 53.5t-43 147.5q0 95 43 148t118 53zM718 67q70 0 70 126t-70 126t-70 -126t70 -126zM1107 394q75 0 118 -53t43 -148q0 -94 -43 -147.5t-118 -53.5t-118 53.5t-43 147.5
q0 95 43 148t118 53zM1107 67q70 0 70 126t-70 126t-70 -126t70 -126zM194 692q75 0 118 -53t43 -148q0 -94 -43 -147.5t-118 -53.5t-118 53.5t-43 147.5q0 95 43 148t118 53zM194 365q70 0 70 126t-70 126t-70 -126t70 -126z" />
    <glyph glyph-name="guilsinglleft" unicode="&#x2039;" horiz-adv-x="361" 
d="M314 52h-129l-143 210l143 210h129l-136 -210z" />
    <glyph glyph-name="guilsinglright" unicode="&#x203a;" horiz-adv-x="361" 
d="M47 52l136 210l-136 210h129l143 -210l-143 -210h-129z" />
    <glyph glyph-name="fraction" unicode="&#x2044;" horiz-adv-x="136" 
d="M-52 0h-102l342 684h102z" />
    <glyph glyph-name="uni2070" unicode="&#x2070;" horiz-adv-x="388" 
d="M194 782q75 0 118 -53t43 -148q0 -94 -43 -147.5t-118 -53.5t-118 53.5t-43 147.5q0 95 43 148t118 53zM194 455q70 0 70 126t-70 126t-70 -126t70 -126z" />
    <glyph glyph-name="uni2074" unicode="&#x2074;" horiz-adv-x="388" 
d="M308 388h-83v75h-203v68l198 243h88v-240h55l-9 -71h-46v-75zM225 534v145l-116 -145h116z" />
    <glyph glyph-name="uni2075" unicode="&#x2075;" horiz-adv-x="388" 
d="M173 380q-41 0 -72.5 7t-60.5 22l19 69q21 -13 50 -20t57 -7q86 0 86 55t-77 55q-19 0 -37.5 -3t-38.5 -8l-37 17l18 207h236l8 -74h-175l-7 -82q29 9 61 9q65 0 101 -31t36 -87q0 -61 -44.5 -95t-122.5 -34z" />
    <glyph glyph-name="uni2076" unicode="&#x2076;" horiz-adv-x="388" 
d="M202 380q-77 0 -119.5 47.5t-42.5 134.5q0 102 53 161t143 59q56 0 103 -19l-21 -70q-38 16 -75 16q-56 0 -86.5 -32t-32.5 -92q15 23 41.5 36t59.5 13q56 0 91.5 -33.5t35.5 -88.5q0 -59 -41.5 -95.5t-108.5 -36.5zM201 450q30 0 48 16t18 43t-18 43.5t-47 16.5
t-47.5 -16t-18.5 -42q0 -27 18.5 -44t46.5 -17z" />
    <glyph glyph-name="uni2077" unicode="&#x2077;" horiz-adv-x="388" 
d="M191 388h-94l156 312h-213l9 74h294v-69z" />
    <glyph glyph-name="uni2078" unicode="&#x2078;" horiz-adv-x="388" 
d="M194 380q-73 0 -116 31.5t-43 81.5q0 32 20.5 57t55.5 36q-30 12 -47 35t-17 52q0 50 40.5 79.5t106.5 29.5t106.5 -29.5t40.5 -79.5q0 -29 -17 -52t-47 -35q35 -11 55.5 -36t20.5 -57q0 -50 -43 -81.5t-116 -31.5zM194 617q31 0 48 13t17 35q0 23 -17.5 36.5t-47.5 13.5
t-47.5 -13.5t-17.5 -36.5q0 -22 17 -35t48 -13zM194 448q34 0 52.5 14t18.5 38q0 23 -18.5 37.5t-52.5 14.5t-52.5 -14.5t-18.5 -37.5q0 -24 18.5 -38t52.5 -14z" />
    <glyph glyph-name="uni2079" unicode="&#x2079;" horiz-adv-x="388" 
d="M162 528q-56 0 -91 34t-35 89q0 59 41.5 95t107.5 36q79 0 121 -47t42 -135q0 -103 -51 -161.5t-143 -58.5q-56 0 -103 20l21 68q20 -7 36.5 -11t38.5 -4q58 0 87.5 32.5t29.5 91.5q-32 -49 -102 -49zM185 593q29 0 48 16.5t19 41.5q0 27 -18.5 44t-47.5 17
q-30 0 -47.5 -16t-17.5 -44q0 -26 17.5 -42.5t46.5 -16.5z" />
    <glyph glyph-name="uni2080" unicode="&#x2080;" horiz-adv-x="388" 
d="M194 304q75 0 118 -53t43 -148q0 -94 -43 -147.5t-118 -53.5t-118 53.5t-43 147.5q0 95 43 148t118 53zM194 -23q70 0 70 126t-70 126t-70 -126t70 -126z" />
    <glyph glyph-name="uni2081" unicode="&#x2081;" horiz-adv-x="388" 
d="M264 -90h-88v294l-83 -49l-38 65l131 76h78v-386z" />
    <glyph glyph-name="uni2082" unicode="&#x2082;" horiz-adv-x="388" 
d="M342 -16l-9 -74h-290v62q36 26 65 48t50 41q32 28 49 46.5t24 34.5t7 34q0 53 -69 53q-59 0 -104 -34l-23 67q28 20 65 31t71 11q71 0 110.5 -30.5t39.5 -85.5q0 -28 -9 -51.5t-32 -50t-65 -62.5q-21 -18 -50 -40h170z" />
    <glyph glyph-name="uni2083" unicode="&#x2083;" horiz-adv-x="388" 
d="M336 17q0 -53 -44.5 -84t-121.5 -31q-38 0 -73 9t-58 22l18 67q22 -12 50.5 -19.5t58.5 -7.5q39 0 60.5 13t21.5 37q0 49 -78 49h-58v71h54q75 0 75 49q0 41 -70 41q-28 0 -56.5 -7t-48.5 -20l-18 65q24 14 61.5 23.5t73.5 9.5q67 0 105.5 -27.5t38.5 -74.5
q0 -66 -68 -90q77 -22 77 -95z" />
    <glyph glyph-name="uni2084" unicode="&#x2084;" horiz-adv-x="388" 
d="M308 -90h-83v75h-203v68l198 243h88v-240h55l-9 -71h-46v-75zM225 56v145l-116 -145h116z" />
    <glyph glyph-name="uni2085" unicode="&#x2085;" horiz-adv-x="388" 
d="M173 -98q-41 0 -72.5 7t-60.5 22l19 69q21 -13 50 -20t57 -7q86 0 86 55t-77 55q-19 0 -37.5 -3t-38.5 -8l-37 17l18 207h236l8 -74h-175l-7 -82q29 9 61 9q65 0 101 -31t36 -87q0 -61 -44.5 -95t-122.5 -34z" />
    <glyph glyph-name="uni2086" unicode="&#x2086;" horiz-adv-x="388" 
d="M202 -98q-77 0 -119.5 47.5t-42.5 134.5q0 102 53 161t143 59q56 0 103 -19l-21 -70q-38 16 -75 16q-56 0 -86.5 -32t-32.5 -92q15 23 41.5 36t59.5 13q56 0 91.5 -33.5t35.5 -88.5q0 -59 -41.5 -95.5t-108.5 -36.5zM201 -28q30 0 48 16t18 43t-18 43.5t-47 16.5
t-47.5 -16t-18.5 -42q0 -27 18.5 -44t46.5 -17z" />
    <glyph glyph-name="uni2087" unicode="&#x2087;" horiz-adv-x="388" 
d="M191 -90h-94l156 312h-213l9 74h294v-69z" />
    <glyph glyph-name="uni2088" unicode="&#x2088;" horiz-adv-x="388" 
d="M194 -98q-73 0 -116 31.5t-43 81.5q0 32 20.5 57t55.5 36q-30 12 -47 35t-17 52q0 50 40.5 79.5t106.5 29.5t106.5 -29.5t40.5 -79.5q0 -29 -17 -52t-47 -35q35 -11 55.5 -36t20.5 -57q0 -50 -43 -81.5t-116 -31.5zM194 139q31 0 48 13t17 35q0 23 -17.5 36.5t-47.5 13.5
t-47.5 -13.5t-17.5 -36.5q0 -22 17 -35t48 -13zM194 -30q34 0 52.5 14t18.5 38q0 23 -18.5 37.5t-52.5 14.5t-52.5 -14.5t-18.5 -37.5q0 -24 18.5 -38t52.5 -14z" />
    <glyph glyph-name="uni2089" unicode="&#x2089;" horiz-adv-x="388" 
d="M162 50q-56 0 -91 34t-35 89q0 59 41.5 95t107.5 36q79 0 121 -47t42 -135q0 -103 -51 -161.5t-143 -58.5q-56 0 -103 20l21 68q20 -7 36.5 -11t38.5 -4q58 0 87.5 32.5t29.5 91.5q-32 -49 -102 -49zM185 115q29 0 48 16.5t19 41.5q0 27 -18.5 44t-47.5 17
q-30 0 -47.5 -16t-17.5 -44q0 -26 17.5 -42.5t46.5 -16.5z" />
    <glyph glyph-name="uni20A9" unicode="&#x20a9;" horiz-adv-x="1018" 
d="M358 0h-131l-81 279h-128v80h105l-23 78h-82v80h59l-49 167h132l43 -167h201l44 167h128l44 -167h200l43 167h127l-48 -167h58v-80h-81l-23 -78h104v-80h-127l-81 -279h-132l-75 279h-153zM454 359h110l-56 205zM662 359h118l20 78h-159zM244 359h118l21 78h-159z
M264 279l38 -147l39 147h-77zM683 279l39 -145l37 145h-76z" />
    <glyph glyph-name="dong" unicode="&#x20ab;" horiz-adv-x="612" 
d="M607 547h-74v-547h-108l-4 83q-24 -45 -69 -70.5t-103 -25.5q-64 0 -114 33t-78.5 90t-28.5 129q0 73 30 130t82 90t118 33q50 0 89.5 -20t64.5 -55v130h-171v81h171v56h121v-56h74v-81zM420 239q0 68 -38 109t-98 41t-96.5 -41t-36.5 -109q0 -66 36.5 -107.5t95.5 -41.5
q61 0 99 41t38 108zM533 -156h-492v81h492v-81z" />
    <glyph glyph-name="Euro" unicode="&#x20ac;" horiz-adv-x="612" 
d="M465 224h-237q37 -130 174 -130q50 0 87 11.5t82 39.5l24 -105q-85 -54 -205 -54q-118 0 -192.5 61.5t-99.5 176.5h-84l11 80h63q-1 18 -1 37q0 21 1 41h-74l11 80h75q25 113 101 174.5t193 61.5q58 0 105 -13t84 -36l-24 -106q-41 26 -75.5 36.5t-78.5 10.5
q-138 0 -175 -128h267l-11 -80h-270q-1 -20 -1 -42q0 -19 1 -36h260z" />
    <glyph glyph-name="uni20B4" unicode="&#x20b4;" horiz-adv-x="612" 
d="M76 634q47 32 107 48t124 16q112 0 175.5 -45t63.5 -125q0 -32 -15 -62h47v-80h-544v80h379q12 18 12 44q0 41 -33.5 63t-97.5 22q-55 0 -98.5 -13.5t-97.5 -46.5zM565 53q-104 -67 -251 -67q-116 0 -182 46t-66 126q0 35 18 70h-50v80h544v-80h-371q-17 -21 -17 -52
q0 -87 141 -87q59 0 105.5 14.5t104.5 50.5z" />
    <glyph glyph-name="uni20B9" unicode="&#x20b9;" horiz-adv-x="612" 
d="M542 0h-177l-301 263v83h148q127 0 151 89h-299v80h299q-25 89 -151 89h-148v80h507v-77h-143q46 -37 60 -92h83v-80h-81q-13 -78 -83 -122.5t-181 -44.5z" />
    <glyph glyph-name="uni20BA" unicode="&#x20ba;" horiz-adv-x="612" 
d="M248 107q101 0 156 52.5t55 151.5l121 -14q-1 -91 -43 -158t-117.5 -103t-178.5 -36h-147v205l-74 -36v90l74 36v88l-74 -36v90l74 36v211h124v-150l179 87v-90l-179 -87v-88l179 87v-90l-179 -87v-159h30z" />
    <glyph glyph-name="uni20BD" unicode="&#x20bd;" horiz-adv-x="612" 
d="M396 110h-176v-110h-124v110h-74v80h74v78h-74v80h74v336h229q79 0 136.5 -25.5t89 -72t31.5 -110.5q0 -96 -69.5 -152t-188.5 -56h-104v-78h176v-80zM314 583h-94v-235h94q69 0 105.5 30.5t36.5 87.5q0 56 -36.5 86.5t-105.5 30.5z" />
    <glyph glyph-name="trademark" unicode="&#x2122;" horiz-adv-x="905" 
d="M232 308h-94v311h-126v81h346v-81h-126v-311zM497 308h-89v392h117l104 -241l104 241h113v-392h-89v269l-92 -203h-76l-92 205v-271z" />
    <glyph glyph-name="uni2150" unicode="&#x2150;" horiz-adv-x="912" 
d="M316 0h-102l342 684h102zM715 0h-94l156 312h-213l9 74h294v-69zM264 298h-88v294l-83 -49l-38 65l131 76h78v-386z" />
    <glyph glyph-name="uni2151" unicode="&#x2151;" horiz-adv-x="912" 
d="M326 0h-102l342 684h102zM686 140q-56 0 -91 34t-35 89q0 59 41.5 95t107.5 36q79 0 121 -47t42 -135q0 -103 -51 -161.5t-143 -58.5q-56 0 -103 20l21 68q20 -7 36.5 -11t38.5 -4q58 0 87.5 32.5t29.5 91.5q-32 -49 -102 -49zM709 205q29 0 48 16.5t19 41.5
q0 27 -18.5 44t-47.5 17q-30 0 -47.5 -16t-17.5 -44q0 -26 17.5 -42.5t46.5 -16.5zM264 298h-88v294l-83 -49l-38 65l131 76h78v-386z" />
    <glyph glyph-name="onethird" unicode="&#x2153;" horiz-adv-x="912" 
d="M316 0h-102l342 684h102zM860 107q0 -53 -44.5 -84t-121.5 -31q-38 0 -73 9t-58 22l18 67q22 -12 50.5 -19.5t58.5 -7.5q39 0 60.5 13t21.5 37q0 49 -78 49h-58v71h54q75 0 75 49q0 41 -70 41q-28 0 -56.5 -7t-48.5 -20l-18 65q24 14 61.5 23.5t73.5 9.5
q67 0 105.5 -27.5t38.5 -74.5q0 -66 -68 -90q77 -22 77 -95zM264 298h-88v294l-83 -49l-38 65l131 76h78v-386z" />
    <glyph glyph-name="twothirds" unicode="&#x2154;" horiz-adv-x="912" 
d="M341 0h-102l342 684h102zM860 107q0 -53 -44.5 -84t-121.5 -31q-38 0 -73 9t-58 22l18 67q22 -12 50.5 -19.5t58.5 -7.5q39 0 60.5 13t21.5 37q0 49 -78 49h-58v71h54q75 0 75 49q0 41 -70 41q-28 0 -56.5 -7t-48.5 -20l-18 65q24 14 61.5 23.5t73.5 9.5
q67 0 105.5 -27.5t38.5 -74.5q0 -66 -68 -90q77 -22 77 -95zM342 372l-9 -74h-290v62q36 26 65 48t50 41q32 28 49 46.5t24 34.5t7 34q0 53 -69 53q-59 0 -104 -34l-23 67q28 20 65 31t71 11q71 0 110.5 -30.5t39.5 -85.5q0 -28 -9 -51.5t-32 -50t-65 -62.5q-21 -18 -50 -40
h170z" />
    <glyph glyph-name="uni2155" unicode="&#x2155;" horiz-adv-x="912" 
d="M321 0h-102l342 684h102zM697 -8q-41 0 -72.5 7t-60.5 22l19 69q21 -13 50 -20t57 -7q86 0 86 55t-77 55q-19 0 -37.5 -3t-38.5 -8l-37 17l18 207h236l8 -74h-175l-7 -82q29 9 61 9q65 0 101 -31t36 -87q0 -61 -44.5 -95t-122.5 -34zM264 298h-88v294l-83 -49l-38 65
l131 76h78v-386z" />
    <glyph glyph-name="uni2156" unicode="&#x2156;" horiz-adv-x="912" 
d="M346 0h-102l342 684h102zM697 -8q-41 0 -72.5 7t-60.5 22l19 69q21 -13 50 -20t57 -7q86 0 86 55t-77 55q-19 0 -37.5 -3t-38.5 -8l-37 17l18 207h236l8 -74h-175l-7 -82q29 9 61 9q65 0 101 -31t36 -87q0 -61 -44.5 -95t-122.5 -34zM342 372l-9 -74h-290v62q36 26 65 48
t50 41q32 28 49 46.5t24 34.5t7 34q0 53 -69 53q-59 0 -104 -34l-23 67q28 20 65 31t71 11q71 0 110.5 -30.5t39.5 -85.5q0 -28 -9 -51.5t-32 -50t-65 -62.5q-21 -18 -50 -40h170z" />
    <glyph glyph-name="uni2157" unicode="&#x2157;" horiz-adv-x="912" 
d="M336 0h-102l342 684h102zM697 -8q-41 0 -72.5 7t-60.5 22l19 69q21 -13 50 -20t57 -7q86 0 86 55t-77 55q-19 0 -37.5 -3t-38.5 -8l-37 17l18 207h236l8 -74h-175l-7 -82q29 9 61 9q65 0 101 -31t36 -87q0 -61 -44.5 -95t-122.5 -34zM336 405q0 -53 -44.5 -84t-121.5 -31
q-38 0 -73 9t-58 22l18 67q22 -12 50.5 -19.5t58.5 -7.5q39 0 60.5 13t21.5 37q0 49 -78 49h-58v71h54q75 0 75 49q0 41 -70 41q-28 0 -56.5 -7t-48.5 -20l-18 65q24 14 61.5 23.5t73.5 9.5q67 0 105.5 -27.5t38.5 -74.5q0 -66 -68 -90q77 -22 77 -95z" />
    <glyph glyph-name="uni2158" unicode="&#x2158;" horiz-adv-x="912" 
d="M346 0h-102l342 684h102zM697 -8q-41 0 -72.5 7t-60.5 22l19 69q21 -13 50 -20t57 -7q86 0 86 55t-77 55q-19 0 -37.5 -3t-38.5 -8l-37 17l18 207h236l8 -74h-175l-7 -82q29 9 61 9q65 0 101 -31t36 -87q0 -61 -44.5 -95t-122.5 -34zM308 298h-83v75h-203v68l198 243h88
v-240h55l-9 -71h-46v-75zM225 444v145l-116 -145h116z" />
    <glyph glyph-name="uni2159" unicode="&#x2159;" horiz-adv-x="912" 
d="M331 0h-102l342 684h102zM726 -8q-77 0 -119.5 47.5t-42.5 134.5q0 102 53 161t143 59q56 0 103 -19l-21 -70q-38 16 -75 16q-56 0 -86.5 -32t-32.5 -92q15 23 41.5 36t59.5 13q56 0 91.5 -33.5t35.5 -88.5q0 -59 -41.5 -95.5t-108.5 -36.5zM725 62q30 0 48 16t18 43
t-18 43.5t-47 16.5t-47.5 -16t-18.5 -42q0 -27 18.5 -44t46.5 -17zM264 298h-88v294l-83 -49l-38 65l131 76h78v-386z" />
    <glyph glyph-name="uni215A" unicode="&#x215a;" horiz-adv-x="912" 
d="M346 0h-102l342 684h102zM726 -8q-77 0 -119.5 47.5t-42.5 134.5q0 102 53 161t143 59q56 0 103 -19l-21 -70q-38 16 -75 16q-56 0 -86.5 -32t-32.5 -92q15 23 41.5 36t59.5 13q56 0 91.5 -33.5t35.5 -88.5q0 -59 -41.5 -95.5t-108.5 -36.5zM725 62q30 0 48 16t18 43
t-18 43.5t-47 16.5t-47.5 -16t-18.5 -42q0 -27 18.5 -44t46.5 -17zM173 290q-41 0 -72.5 7t-60.5 22l19 69q21 -13 50 -20t57 -7q86 0 86 55t-77 55q-19 0 -37.5 -3t-38.5 -8l-37 17l18 207h236l8 -74h-175l-7 -82q29 9 61 9q65 0 101 -31t36 -87q0 -61 -44.5 -95
t-122.5 -34z" />
    <glyph glyph-name="oneeighth" unicode="&#x215b;" horiz-adv-x="912" 
d="M326 0h-102l342 684h102zM718 -8q-73 0 -116 31.5t-43 81.5q0 32 20.5 57t55.5 36q-30 12 -47 35t-17 52q0 50 40.5 79.5t106.5 29.5t106.5 -29.5t40.5 -79.5q0 -29 -17 -52t-47 -35q35 -11 55.5 -36t20.5 -57q0 -50 -43 -81.5t-116 -31.5zM718 229q31 0 48 13t17 35
q0 23 -17.5 36.5t-47.5 13.5t-47.5 -13.5t-17.5 -36.5q0 -22 17 -35t48 -13zM718 60q34 0 52.5 14t18.5 38q0 23 -18.5 37.5t-52.5 14.5t-52.5 -14.5t-18.5 -37.5q0 -24 18.5 -38t52.5 -14zM264 298h-88v294l-83 -49l-38 65l131 76h78v-386z" />
    <glyph glyph-name="threeeighths" unicode="&#x215c;" horiz-adv-x="912" 
d="M336 0h-102l342 684h102zM718 -8q-73 0 -116 31.5t-43 81.5q0 32 20.5 57t55.5 36q-30 12 -47 35t-17 52q0 50 40.5 79.5t106.5 29.5t106.5 -29.5t40.5 -79.5q0 -29 -17 -52t-47 -35q35 -11 55.5 -36t20.5 -57q0 -50 -43 -81.5t-116 -31.5zM718 229q31 0 48 13t17 35
q0 23 -17.5 36.5t-47.5 13.5t-47.5 -13.5t-17.5 -36.5q0 -22 17 -35t48 -13zM718 60q34 0 52.5 14t18.5 38q0 23 -18.5 37.5t-52.5 14.5t-52.5 -14.5t-18.5 -37.5q0 -24 18.5 -38t52.5 -14zM336 405q0 -53 -44.5 -84t-121.5 -31q-38 0 -73 9t-58 22l18 67q22 -12 50.5 -19.5
t58.5 -7.5q39 0 60.5 13t21.5 37q0 49 -78 49h-58v71h54q75 0 75 49q0 41 -70 41q-28 0 -56.5 -7t-48.5 -20l-18 65q24 14 61.5 23.5t73.5 9.5q67 0 105.5 -27.5t38.5 -74.5q0 -66 -68 -90q77 -22 77 -95z" />
    <glyph glyph-name="fiveeighths" unicode="&#x215d;" horiz-adv-x="912" 
d="M336 0h-102l342 684h102zM718 -8q-73 0 -116 31.5t-43 81.5q0 32 20.5 57t55.5 36q-30 12 -47 35t-17 52q0 50 40.5 79.5t106.5 29.5t106.5 -29.5t40.5 -79.5q0 -29 -17 -52t-47 -35q35 -11 55.5 -36t20.5 -57q0 -50 -43 -81.5t-116 -31.5zM718 229q31 0 48 13t17 35
q0 23 -17.5 36.5t-47.5 13.5t-47.5 -13.5t-17.5 -36.5q0 -22 17 -35t48 -13zM718 60q34 0 52.5 14t18.5 38q0 23 -18.5 37.5t-52.5 14.5t-52.5 -14.5t-18.5 -37.5q0 -24 18.5 -38t52.5 -14zM173 290q-41 0 -72.5 7t-60.5 22l19 69q21 -13 50 -20t57 -7q86 0 86 55t-77 55
q-19 0 -37.5 -3t-38.5 -8l-37 17l18 207h236l8 -74h-175l-7 -82q29 9 61 9q65 0 101 -31t36 -87q0 -61 -44.5 -95t-122.5 -34z" />
    <glyph glyph-name="seveneighths" unicode="&#x215e;" horiz-adv-x="912" 
d="M316 0h-102l342 684h102zM718 -8q-73 0 -116 31.5t-43 81.5q0 32 20.5 57t55.5 36q-30 12 -47 35t-17 52q0 50 40.5 79.5t106.5 29.5t106.5 -29.5t40.5 -79.5q0 -29 -17 -52t-47 -35q35 -11 55.5 -36t20.5 -57q0 -50 -43 -81.5t-116 -31.5zM718 229q31 0 48 13t17 35
q0 23 -17.5 36.5t-47.5 13.5t-47.5 -13.5t-17.5 -36.5q0 -22 17 -35t48 -13zM718 60q34 0 52.5 14t18.5 38q0 23 -18.5 37.5t-52.5 14.5t-52.5 -14.5t-18.5 -37.5q0 -24 18.5 -38t52.5 -14zM191 298h-94l156 312h-213l9 74h294v-69z" />
    <glyph glyph-name="minus" unicode="&#x2212;" horiz-adv-x="612" 
d="M544 291h-476v101h476v-101z" />
    <glyph glyph-name="uniFEFF" unicode="&#xfeff;" 
 />
    <glyph glyph-name="uniFFFD" unicode="&#xfffd;" horiz-adv-x="1000" 
d="M500 828l475 -475l-475 -474l-475 474zM342 583l19 -59q28 20 64.5 30.5t73.5 10.5q56 0 87.5 -25t31.5 -70q0 -35 -18.5 -61.5t-61.5 -56.5q-45 -31 -63.5 -63t-18.5 -73v-18h70v18q0 27 15.5 49.5t54.5 48.5q56 38 78.5 74.5t22.5 85.5q0 71 -51 113t-140 42
q-42 0 -88 -13t-76 -33zM490 19q23 0 38.5 15.5t15.5 37.5q0 23 -15.5 37.5t-38.5 14.5t-38.5 -14.5t-15.5 -37.5q0 -22 15.5 -37.5t38.5 -15.5z" />
    <glyph glyph-name="zero.pnum" horiz-adv-x="632" 
d="M316 -14q-83 0 -143.5 43t-92.5 122.5t-32 190.5t32 191t92.5 122.5t143.5 42.5q84 0 144 -42.5t92 -122.5t32 -191t-32 -190.5t-92 -122.5t-144 -43zM316 94q67 0 102.5 64t35.5 184t-35.5 184t-102.5 64t-102.5 -64t-35.5 -184t35.5 -184t102.5 -64z" />
    <glyph glyph-name="one.pnum" horiz-adv-x="429" 
d="M335 684v-684h-126v547l-132 -84l-57 94l203 127h112z" />
    <glyph glyph-name="two.pnum" horiz-adv-x="568" 
d="M527 108l-13 -108h-481v92q63 51 113.5 93t86.5 77q56 53 86 89.5t42 67t12 65.5q0 51 -32.5 78.5t-92.5 27.5q-49 0 -96 -16.5t-84 -45.5l-36 98q44 32 107.5 52t121.5 20q113 0 177.5 -55t64.5 -150q0 -49 -15 -89.5t-52.5 -85.5t-105.5 -108q-44 -41 -120 -102h317z
" />
    <glyph glyph-name="three.pnum" horiz-adv-x="569" 
d="M75 546l-28 95q41 25 101.5 41t116.5 16q113 0 178 -48.5t65 -131.5q0 -54 -30.5 -95.5t-86.5 -63.5q63 -20 97.5 -64t34.5 -106q0 -94 -74.5 -148.5t-205.5 -54.5q-60 0 -117 14.5t-94 39.5l27 98q36 -22 83.5 -35t97.5 -13q74 0 114.5 28t40.5 79q0 105 -155 105h-95
v101h89q72 0 110.5 27t38.5 76q0 42 -35 65t-98 23q-47 0 -93.5 -12.5t-81.5 -35.5z" />
    <glyph glyph-name="four.pnum" horiz-adv-x="614" 
d="M488 0h-119v152h-344v96l336 436h127v-431h96l-12 -101h-84v-152zM369 253v284l-219 -284h219z" />
    <glyph glyph-name="five.pnum" horiz-adv-x="584" 
d="M117 305l-38 22l31 357h389l13 -108h-299l-15 -170q48 14 100 14q114 0 178.5 -56t64.5 -155q0 -105 -75.5 -164t-208.5 -59q-132 0 -216 52l27 100q37 -22 84.5 -35t97.5 -13q79 0 120.5 30t41.5 87q0 115 -157 115q-33 0 -67.5 -4.5t-70.5 -12.5z" />
    <glyph glyph-name="six.pnum" horiz-adv-x="607" 
d="M318 -14q-130 0 -200 85.5t-70 243.5q0 117 40.5 203t114.5 133t174 47q92 0 169 -35l-31 -100q-35 15 -64.5 22t-67.5 7q-98 0 -153 -63t-60 -181q27 43 74 68t107 25q63 0 112 -28.5t76.5 -78t27.5 -113.5q0 -69 -32 -122t-88 -83t-129 -30zM316 88q58 0 92 35t34 93
q0 56 -34 92t-90 36q-57 0 -92.5 -36t-35.5 -92t35.5 -92t90.5 -36z" />
    <glyph glyph-name="seven.pnum" horiz-adv-x="545" 
d="M245 0h-135l281 576h-373l13 108h492v-101z" />
    <glyph glyph-name="eight.pnum" horiz-adv-x="612" 
d="M306 -14q-79 0 -137.5 25.5t-90.5 70.5t-32 102q0 61 35 106t95 63q-52 21 -81 61.5t-29 94.5q0 57 31.5 99.5t85.5 66t123 23.5t123.5 -23.5t85.5 -66t31 -99.5q0 -54 -29 -94.5t-81 -61.5q60 -18 95 -63t35 -106q0 -57 -32 -101.5t-90.5 -70.5t-137.5 -26zM306 400
q55 0 87.5 27t32.5 72t-33.5 72t-86.5 27t-86.5 -27t-33.5 -72t32.5 -72t87.5 -27zM306 87q62 0 98 29t36 78t-36 79t-98 30q-61 0 -97.5 -30t-36.5 -79t36.5 -78t97.5 -29z" />
    <glyph glyph-name="nine.pnum" horiz-adv-x="607" 
d="M232 -14q-91 0 -167 35l30 100q35 -15 64.5 -22t67.5 -7q96 0 150 62.5t59 179.5q-28 -43 -74.5 -67t-105.5 -24q-63 0 -111.5 28.5t-76.5 78t-28 112.5q0 70 32 123t88 83t129 30q130 0 200 -85.5t70 -243.5q0 -117 -40 -203t-113 -133t-174 -47zM289 340
q57 0 92.5 35.5t35.5 91.5q0 57 -35 93t-90 36q-58 0 -92.5 -35t-34.5 -94q0 -57 34.5 -92t89.5 -35z" />
    <glyph glyph-name="zero.dnom" horiz-adv-x="388" 
d="M194 394q75 0 118 -53t43 -148q0 -94 -43 -147.5t-118 -53.5t-118 53.5t-43 147.5q0 95 43 148t118 53zM194 67q70 0 70 126t-70 126t-70 -126t70 -126z" />
    <glyph glyph-name="one.dnom" horiz-adv-x="388" 
d="M264 0h-88v294l-83 -49l-38 65l131 76h78v-386z" />
    <glyph glyph-name="two.dnom" horiz-adv-x="388" 
d="M342 74l-9 -74h-290v62q36 26 65 48t50 41q32 28 49 46.5t24 34.5t7 34q0 53 -69 53q-59 0 -104 -34l-23 67q28 20 65 31t71 11q71 0 110.5 -30.5t39.5 -85.5q0 -28 -9 -51.5t-32 -50t-65 -62.5q-21 -18 -50 -40h170z" />
    <glyph glyph-name="three.dnom" horiz-adv-x="388" 
d="M336 107q0 -53 -44.5 -84t-121.5 -31q-38 0 -73 9t-58 22l18 67q22 -12 50.5 -19.5t58.5 -7.5q39 0 60.5 13t21.5 37q0 49 -78 49h-58v71h54q75 0 75 49q0 41 -70 41q-28 0 -56.5 -7t-48.5 -20l-18 65q24 14 61.5 23.5t73.5 9.5q67 0 105.5 -27.5t38.5 -74.5
q0 -66 -68 -90q77 -22 77 -95z" />
    <glyph glyph-name="four.dnom" horiz-adv-x="388" 
d="M308 0h-83v75h-203v68l198 243h88v-240h55l-9 -71h-46v-75zM225 146v145l-116 -145h116z" />
    <glyph glyph-name="five.dnom" horiz-adv-x="388" 
d="M173 -8q-41 0 -72.5 7t-60.5 22l19 69q21 -13 50 -20t57 -7q86 0 86 55t-77 55q-19 0 -37.5 -3t-38.5 -8l-37 17l18 207h236l8 -74h-175l-7 -82q29 9 61 9q65 0 101 -31t36 -87q0 -61 -44.5 -95t-122.5 -34z" />
    <glyph glyph-name="six.dnom" horiz-adv-x="388" 
d="M202 -8q-77 0 -119.5 47.5t-42.5 134.5q0 102 53 161t143 59q56 0 103 -19l-21 -70q-38 16 -75 16q-56 0 -86.5 -32t-32.5 -92q15 23 41.5 36t59.5 13q56 0 91.5 -33.5t35.5 -88.5q0 -59 -41.5 -95.5t-108.5 -36.5zM201 62q30 0 48 16t18 43t-18 43.5t-47 16.5t-47.5 -16
t-18.5 -42q0 -27 18.5 -44t46.5 -17z" />
    <glyph glyph-name="seven.dnom" horiz-adv-x="388" 
d="M191 0h-94l156 312h-213l9 74h294v-69z" />
    <glyph glyph-name="eight.dnom" horiz-adv-x="388" 
d="M194 -8q-73 0 -116 31.5t-43 81.5q0 32 20.5 57t55.5 36q-30 12 -47 35t-17 52q0 50 40.5 79.5t106.5 29.5t106.5 -29.5t40.5 -79.5q0 -29 -17 -52t-47 -35q35 -11 55.5 -36t20.5 -57q0 -50 -43 -81.5t-116 -31.5zM194 229q31 0 48 13t17 35q0 23 -17.5 36.5t-47.5 13.5
t-47.5 -13.5t-17.5 -36.5q0 -22 17 -35t48 -13zM194 60q34 0 52.5 14t18.5 38q0 23 -18.5 37.5t-52.5 14.5t-52.5 -14.5t-18.5 -37.5q0 -24 18.5 -38t52.5 -14z" />
    <glyph glyph-name="nine.dnom" horiz-adv-x="388" 
d="M162 140q-56 0 -91 34t-35 89q0 59 41.5 95t107.5 36q79 0 121 -47t42 -135q0 -103 -51 -161.5t-143 -58.5q-56 0 -103 20l21 68q20 -7 36.5 -11t38.5 -4q58 0 87.5 32.5t29.5 91.5q-32 -49 -102 -49zM185 205q29 0 48 16.5t19 41.5q0 27 -18.5 44t-47.5 17
q-30 0 -47.5 -16t-17.5 -44q0 -26 17.5 -42.5t46.5 -16.5z" />
    <glyph glyph-name="zero.numr" horiz-adv-x="388" 
d="M194 692q75 0 118 -53t43 -148q0 -94 -43 -147.5t-118 -53.5t-118 53.5t-43 147.5q0 95 43 148t118 53zM194 365q70 0 70 126t-70 126t-70 -126t70 -126z" />
    <glyph glyph-name="one.numr" horiz-adv-x="388" 
d="M264 298h-88v294l-83 -49l-38 65l131 76h78v-386z" />
    <glyph glyph-name="two.numr" horiz-adv-x="388" 
d="M342 372l-9 -74h-290v62q36 26 65 48t50 41q32 28 49 46.5t24 34.5t7 34q0 53 -69 53q-59 0 -104 -34l-23 67q28 20 65 31t71 11q71 0 110.5 -30.5t39.5 -85.5q0 -28 -9 -51.5t-32 -50t-65 -62.5q-21 -18 -50 -40h170z" />
    <glyph glyph-name="three.numr" horiz-adv-x="388" 
d="M336 405q0 -53 -44.5 -84t-121.5 -31q-38 0 -73 9t-58 22l18 67q22 -12 50.5 -19.5t58.5 -7.5q39 0 60.5 13t21.5 37q0 49 -78 49h-58v71h54q75 0 75 49q0 41 -70 41q-28 0 -56.5 -7t-48.5 -20l-18 65q24 14 61.5 23.5t73.5 9.5q67 0 105.5 -27.5t38.5 -74.5
q0 -66 -68 -90q77 -22 77 -95z" />
    <glyph glyph-name="four.numr" horiz-adv-x="388" 
d="M308 298h-83v75h-203v68l198 243h88v-240h55l-9 -71h-46v-75zM225 444v145l-116 -145h116z" />
    <glyph glyph-name="five.numr" horiz-adv-x="388" 
d="M173 290q-41 0 -72.5 7t-60.5 22l19 69q21 -13 50 -20t57 -7q86 0 86 55t-77 55q-19 0 -37.5 -3t-38.5 -8l-37 17l18 207h236l8 -74h-175l-7 -82q29 9 61 9q65 0 101 -31t36 -87q0 -61 -44.5 -95t-122.5 -34z" />
    <glyph glyph-name="six.numr" horiz-adv-x="388" 
d="M202 290q-77 0 -119.5 47.5t-42.5 134.5q0 102 53 161t143 59q56 0 103 -19l-21 -70q-38 16 -75 16q-56 0 -86.5 -32t-32.5 -92q15 23 41.5 36t59.5 13q56 0 91.5 -33.5t35.5 -88.5q0 -59 -41.5 -95.5t-108.5 -36.5zM201 360q30 0 48 16t18 43t-18 43.5t-47 16.5
t-47.5 -16t-18.5 -42q0 -27 18.5 -44t46.5 -17z" />
    <glyph glyph-name="seven.numr" horiz-adv-x="388" 
d="M191 298h-94l156 312h-213l9 74h294v-69z" />
    <glyph glyph-name="eight.numr" horiz-adv-x="388" 
d="M194 290q-73 0 -116 31.5t-43 81.5q0 32 20.5 57t55.5 36q-30 12 -47 35t-17 52q0 50 40.5 79.5t106.5 29.5t106.5 -29.5t40.5 -79.5q0 -29 -17 -52t-47 -35q35 -11 55.5 -36t20.5 -57q0 -50 -43 -81.5t-116 -31.5zM194 527q31 0 48 13t17 35q0 23 -17.5 36.5t-47.5 13.5
t-47.5 -13.5t-17.5 -36.5q0 -22 17 -35t48 -13zM194 358q34 0 52.5 14t18.5 38q0 23 -18.5 37.5t-52.5 14.5t-52.5 -14.5t-18.5 -37.5q0 -24 18.5 -38t52.5 -14z" />
    <glyph glyph-name="nine.numr" horiz-adv-x="388" 
d="M162 438q-56 0 -91 34t-35 89q0 59 41.5 95t107.5 36q79 0 121 -47t42 -135q0 -103 -51 -161.5t-143 -58.5q-56 0 -103 20l21 68q20 -7 36.5 -11t38.5 -4q58 0 87.5 32.5t29.5 91.5q-32 -49 -102 -49zM185 503q29 0 48 16.5t19 41.5q0 27 -18.5 44t-47.5 17
q-30 0 -47.5 -16t-17.5 -44q0 -26 17.5 -42.5t46.5 -16.5z" />
    <glyph glyph-name="twosevenths" horiz-adv-x="912" 
d="M336 0h-102l342 684h102zM715 0h-94l156 312h-213l9 74h294v-69zM342 372l-9 -74h-290v62q36 26 65 48t50 41q32 28 49 46.5t24 34.5t7 34q0 53 -69 53q-59 0 -104 -34l-23 67q28 20 65 31t71 11q71 0 110.5 -30.5t39.5 -85.5q0 -28 -9 -51.5t-32 -50t-65 -62.5
q-21 -18 -50 -40h170z" />
    <glyph glyph-name="threesevenths" horiz-adv-x="912" 
d="M326 0h-102l342 684h102zM715 0h-94l156 312h-213l9 74h294v-69zM336 405q0 -53 -44.5 -84t-121.5 -31q-38 0 -73 9t-58 22l18 67q22 -12 50.5 -19.5t58.5 -7.5q39 0 60.5 13t21.5 37q0 49 -78 49h-58v71h54q75 0 75 49q0 41 -70 41q-28 0 -56.5 -7t-48.5 -20l-18 65
q24 14 61.5 23.5t73.5 9.5q67 0 105.5 -27.5t38.5 -74.5q0 -66 -68 -90q77 -22 77 -95z" />
    <glyph glyph-name="foursevenths" horiz-adv-x="912" 
d="M331 0h-102l342 684h102zM715 0h-94l156 312h-213l9 74h294v-69zM308 298h-83v75h-203v68l198 243h88v-240h55l-9 -71h-46v-75zM225 444v145l-116 -145h116z" />
    <glyph glyph-name="fivesevenths" horiz-adv-x="912" 
d="M326 0h-102l342 684h102zM715 0h-94l156 312h-213l9 74h294v-69zM173 290q-41 0 -72.5 7t-60.5 22l19 69q21 -13 50 -20t57 -7q86 0 86 55t-77 55q-19 0 -37.5 -3t-38.5 -8l-37 17l18 207h236l8 -74h-175l-7 -82q29 9 61 9q65 0 101 -31t36 -87q0 -61 -44.5 -95
t-122.5 -34z" />
    <glyph glyph-name="sixsevenths" horiz-adv-x="912" 
d="M326 0h-102l342 684h102zM715 0h-94l156 312h-213l9 74h294v-69zM202 290q-77 0 -119.5 47.5t-42.5 134.5q0 102 53 161t143 59q56 0 103 -19l-21 -70q-38 16 -75 16q-56 0 -86.5 -32t-32.5 -92q15 23 41.5 36t59.5 13q56 0 91.5 -33.5t35.5 -88.5q0 -59 -41.5 -95.5
t-108.5 -36.5zM201 360q30 0 48 16t18 43t-18 43.5t-47 16.5t-47.5 -16t-18.5 -42q0 -27 18.5 -44t46.5 -17z" />
    <glyph glyph-name="twoninths" horiz-adv-x="912" 
d="M346 0h-102l342 684h102zM686 140q-56 0 -91 34t-35 89q0 59 41.5 95t107.5 36q79 0 121 -47t42 -135q0 -103 -51 -161.5t-143 -58.5q-56 0 -103 20l21 68q20 -7 36.5 -11t38.5 -4q58 0 87.5 32.5t29.5 91.5q-32 -49 -102 -49zM709 205q29 0 48 16.5t19 41.5
q0 27 -18.5 44t-47.5 17q-30 0 -47.5 -16t-17.5 -44q0 -26 17.5 -42.5t46.5 -16.5zM342 372l-9 -74h-290v62q36 26 65 48t50 41q32 28 49 46.5t24 34.5t7 34q0 53 -69 53q-59 0 -104 -34l-23 67q28 20 65 31t71 11q71 0 110.5 -30.5t39.5 -85.5q0 -28 -9 -51.5t-32 -50
t-65 -62.5q-21 -18 -50 -40h170z" />
    <glyph glyph-name="fourninths" horiz-adv-x="912" 
d="M346 0h-102l342 684h102zM686 140q-56 0 -91 34t-35 89q0 59 41.5 95t107.5 36q79 0 121 -47t42 -135q0 -103 -51 -161.5t-143 -58.5q-56 0 -103 20l21 68q20 -7 36.5 -11t38.5 -4q58 0 87.5 32.5t29.5 91.5q-32 -49 -102 -49zM709 205q29 0 48 16.5t19 41.5
q0 27 -18.5 44t-47.5 17q-30 0 -47.5 -16t-17.5 -44q0 -26 17.5 -42.5t46.5 -16.5zM308 298h-83v75h-203v68l198 243h88v-240h55l-9 -71h-46v-75zM225 444v145l-116 -145h116z" />
    <glyph glyph-name="fiveninths" horiz-adv-x="912" 
d="M331 0h-102l342 684h102zM686 140q-56 0 -91 34t-35 89q0 59 41.5 95t107.5 36q79 0 121 -47t42 -135q0 -103 -51 -161.5t-143 -58.5q-56 0 -103 20l21 68q20 -7 36.5 -11t38.5 -4q58 0 87.5 32.5t29.5 91.5q-32 -49 -102 -49zM709 205q29 0 48 16.5t19 41.5
q0 27 -18.5 44t-47.5 17q-30 0 -47.5 -16t-17.5 -44q0 -26 17.5 -42.5t46.5 -16.5zM173 290q-41 0 -72.5 7t-60.5 22l19 69q21 -13 50 -20t57 -7q86 0 86 55t-77 55q-19 0 -37.5 -3t-38.5 -8l-37 17l18 207h236l8 -74h-175l-7 -82q29 9 61 9q65 0 101 -31t36 -87
q0 -61 -44.5 -95t-122.5 -34z" />
    <glyph glyph-name="sevenninths" horiz-adv-x="912" 
d="M311 0h-102l342 684h102zM686 140q-56 0 -91 34t-35 89q0 59 41.5 95t107.5 36q79 0 121 -47t42 -135q0 -103 -51 -161.5t-143 -58.5q-56 0 -103 20l21 68q20 -7 36.5 -11t38.5 -4q58 0 87.5 32.5t29.5 91.5q-32 -49 -102 -49zM709 205q29 0 48 16.5t19 41.5
q0 27 -18.5 44t-47.5 17q-30 0 -47.5 -16t-17.5 -44q0 -26 17.5 -42.5t46.5 -16.5zM191 298h-94l156 312h-213l9 74h294v-69z" />
    <glyph glyph-name="eightninths" horiz-adv-x="912" 
d="M336 0h-102l342 684h102zM686 140q-56 0 -91 34t-35 89q0 59 41.5 95t107.5 36q79 0 121 -47t42 -135q0 -103 -51 -161.5t-143 -58.5q-56 0 -103 20l21 68q20 -7 36.5 -11t38.5 -4q58 0 87.5 32.5t29.5 91.5q-32 -49 -102 -49zM709 205q29 0 48 16.5t19 41.5
q0 27 -18.5 44t-47.5 17q-30 0 -47.5 -16t-17.5 -44q0 -26 17.5 -42.5t46.5 -16.5zM194 290q-73 0 -116 31.5t-43 81.5q0 32 20.5 57t55.5 36q-30 12 -47 35t-17 52q0 50 40.5 79.5t106.5 29.5t106.5 -29.5t40.5 -79.5q0 -29 -17 -52t-47 -35q35 -11 55.5 -36t20.5 -57
q0 -50 -43 -81.5t-116 -31.5zM194 527q31 0 48 13t17 35q0 23 -17.5 36.5t-47.5 13.5t-47.5 -13.5t-17.5 -36.5q0 -22 17 -35t48 -13zM194 358q34 0 52.5 14t18.5 38q0 23 -18.5 37.5t-52.5 14.5t-52.5 -14.5t-18.5 -37.5q0 -24 18.5 -38t52.5 -14z" />
    <glyph glyph-name="shekel" horiz-adv-x="862" 
d="M594 428v-242h-120v249q0 77 -33.5 111t-111.5 34h-139v-580h-120v684h252q140 0 206 -62.5t66 -193.5zM796 256q0 -130 -66 -193t-206 -63h-252v498h120v-394h139q78 0 111.5 34t33.5 111v435h120v-428z" />
    <glyph glyph-name="hyphen.case" horiz-adv-x="400" 
d="M43 296v108h314v-108h-314z" />
    <glyph glyph-name="endash.case" horiz-adv-x="500" 
d="M0 296v108h500v-108h-500z" />
    <glyph glyph-name="emdash.case" horiz-adv-x="1000" 
d="M0 296v108h1000v-108h-1000z" />
    <glyph glyph-name="parenleft.case" horiz-adv-x="361" 
d="M180 350q0 -127 41 -233t121 -184l-77 -64q-106 89 -161 211.5t-55 269.5t55 269.5t161 211.5l77 -64q-80 -78 -121 -184t-41 -233z" />
    <glyph glyph-name="parenright.case" horiz-adv-x="361" 
d="M181 350q0 127 -41 233t-121 184l77 64q106 -89 161 -211.5t55 -269.5t-55 -269.5t-161 -211.5l-77 64q80 78 121 184t41 233z" />
    <glyph glyph-name="slash.case" horiz-adv-x="483" 
d="M468 798l-321 -896h-132l321 896h132z" />
    <glyph glyph-name="backslash.case" horiz-adv-x="483" 
d="M15 798h132l321 -896h-132z" />
    <glyph glyph-name="bracketleft.case" horiz-adv-x="358" 
d="M326 -98h-245v896h245l12 -99h-133v-698h133z" />
    <glyph glyph-name="bracketright.case" horiz-adv-x="358" 
d="M277 798v-896h-245l-12 99h133v698h-133l12 99h245z" />
    <glyph glyph-name="braceleft.case" horiz-adv-x="347" 
d="M315 -98h-61q-76 0 -121.5 43.5t-45.5 116.5q0 34 4.5 59t8.5 47.5t4 47.5q0 44 -19 65.5t-60 21.5v95q41 0 60 21t19 65q0 37 -8.5 71t-8.5 84q0 74 45.5 116.5t121.5 42.5h61l12 -99h-35q-43 0 -63 -20.5t-20 -67.5q0 -46 8.5 -80.5t8.5 -75.5q0 -38 -23.5 -66
t-64.5 -38q40 -10 64 -39t24 -68t-8.5 -75.5t-8.5 -80.5q0 -46 20 -66.5t63 -20.5h35z" />
    <glyph glyph-name="braceright.case" horiz-adv-x="347" 
d="M260 62q0 -73 -45 -116.5t-122 -43.5h-61l-12 99h35q44 0 63.5 20.5t19.5 66.5q0 44 -8.5 80.5t-8.5 75.5t24 68t64 39q-40 10 -64 38t-24 66q0 41 8.5 75.5t8.5 80.5q0 47 -19.5 67.5t-63.5 20.5h-35l12 99h61q77 0 122 -42.5t45 -116.5q0 -50 -8.5 -84t-8.5 -71
q0 -44 19 -65t60 -21v-95q-41 0 -60 -21.5t-19 -65.5q0 -25 4.5 -47.5t8.5 -47.5t4 -59z" />
    <glyph glyph-name="bullet.case" horiz-adv-x="342" 
d="M171 221q-57 0 -93 37t-36 92q0 56 36 92.5t93 36.5t93 -36.5t36 -92.5q0 -55 -36 -92t-93 -37z" />
    <glyph glyph-name="guilsinglleft.case" horiz-adv-x="361" 
d="M314 140h-129l-143 210l143 210h129l-136 -210z" />
    <glyph glyph-name="guilsinglright.case" horiz-adv-x="361" 
d="M47 140l136 210l-136 210h129l143 -210l-143 -210h-129z" />
    <glyph glyph-name="guillemotleft.case" horiz-adv-x="594" 
d="M314 140h-129l-143 210l143 210h129l-136 -210zM547 140h-129l-143 210l143 210h129l-136 -210z" />
    <glyph glyph-name="guillemotright.case" horiz-adv-x="594" 
d="M47 140l136 210l-136 210h129l143 -210l-143 -210h-129zM280 140l136 210l-136 210h129l143 -210l-143 -210h-129z" />
    <glyph glyph-name="at.case" horiz-adv-x="1025" 
d="M493 -101q-135 0 -234.5 53t-154.5 149t-55 225q0 103 38 189.5t106.5 150.5t160 99.5t198.5 35.5q126 0 221.5 -45.5t149 -128.5t53.5 -195q0 -88 -31 -156.5t-85.5 -108t-124.5 -39.5q-105 0 -122 89q-23 -42 -64 -65.5t-95 -23.5q-77 0 -123 53.5t-46 144.5
q0 71 29 126.5t78.5 87.5t111.5 32q49 0 85 -23t51 -62l16 72h91l-43 -250q-2 -13 -3 -24t-1 -21q0 -54 46 -54q40 0 71 28t49 77t18 111q0 95 -42 160t-117 98t-175 33q-91 0 -165.5 -29t-128.5 -81.5t-83.5 -123.5t-29.5 -155q0 -107 43 -184.5t124 -119t194 -41.5
q57 0 114 11t104 32l19 -81q-49 -22 -116 -34t-132 -12zM485 219q37 0 65.5 20.5t45.5 56t17 79.5q0 50 -25 78t-69 28q-38 0 -65.5 -20.5t-42.5 -55t-15 -76.5q0 -52 23.5 -81t65.5 -29z" />
    <glyph glyph-name="periodcentered.loclCAT" horiz-adv-x="158" 
d="M79 294q-34 0 -56.5 22t-22.5 55t22.5 54.5t56.5 21.5q35 0 57 -21.5t22 -54.5t-22 -55t-57 -22z" />
    <glyph glyph-name="periodcentered.loclCAT.cap" 
d="M-136 330q-34 0 -56.5 22t-22.5 55t22.5 54.5t56.5 21.5q35 0 57 -21.5t22 -54.5t-22 -55t-57 -22z" />
    <glyph glyph-name="dotlessij" horiz-adv-x="599" 
d="M405 247v269h124v-476q0 -269 -272 -269q-53 0 -103 13t-82 34l25 100q31 -19 72.5 -31t84.5 -12q77 0 114 38t37 114v53q-23 -38 -62.5 -59t-89.5 -21q-89 0 -138 56t-49 161v299h124v-279q0 -128 97 -128q55 0 86.5 37t31.5 101z" />
    <glyph glyph-name="IJacute" horiz-adv-x="684" 
d="M211 224h-130v476h130v-476zM87 43l27 106q37 -25 84 -39.5t94 -14.5q100 0 143 52t43 167v386h130v-395q0 -321 -310 -321q-62 0 -119.5 16.5t-91.5 42.5zM177 772h-132l146 129h156zM574 772h-132l146 129h156z" />
    <glyph glyph-name="ijacute" horiz-adv-x="599" 
d="M405 247v269h124v-476q0 -269 -272 -269q-53 0 -103 13t-82 34l25 100q31 -19 72.5 -31t84.5 -12q77 0 114 38t37 114v53q-23 -38 -62.5 -59t-89.5 -21q-89 0 -138 56t-49 161v299h124v-279q0 -128 97 -128q55 0 86.5 37t31.5 101zM152 599h-111l124 155h138zM491 599
h-111l124 155h138z" />
    <glyph glyph-name="uni0327.cap" 
d="M-110 -211l16 62q35 -15 80 -15q30 0 47.5 7.5t17.5 23.5q0 28 -64 28q-27 0 -50 -5l33 125h68l-19 -67h4q53 0 82.5 -22t29.5 -63q0 -43 -36.5 -67.5t-102.5 -24.5q-32 0 -57.5 4.5t-48.5 13.5z" />
    <glyph glyph-name="uni0326.cap" 
d="M-68 -124q0 26 19 42.5t48 16.5q33 0 51 -18t18 -51q0 -44 -31.5 -80t-84.5 -53l-30 40q52 14 77 48q-5 -1 -9 -1q-25 0 -41.5 15.5t-16.5 40.5z" />
    <glyph glyph-name="uni0328.cap" 
d="M-22 -158q31 0 60 13l15 -66q-42 -18 -91 -18q-59 0 -92 24.5t-33 67.5q0 50 44.5 92t125.5 72l46 -27q-64 -25 -98.5 -54.5t-34.5 -61.5q0 -42 58 -42z" />
    <glyph glyph-name="uni0328.round" 
d="M-141 -138q0 56 49 103.5t139 81.5l44 -27q-73 -30 -112 -65t-39 -73q0 -42 55 -42q29 0 56 13l15 -64q-40 -18 -87 -18q-58 0 -89 24.5t-31 66.5z" />
    <glyph glyph-name="uni0328.round.cap" 
d="M49 47l46 -27q-76 -29 -116.5 -64t-40.5 -72q0 -42 58 -42q31 0 60 13l15 -66q-42 -18 -91 -18q-59 0 -92 24.5t-33 67.5q0 56 50.5 103t143.5 81z" />
    <glyph glyph-name="acutecomb.cap" 
d="M31 772h-132l146 129h156z" />
    <glyph glyph-name="uni030B.cap" 
d="M-52 772h-127l145 129h152zM178 772h-127l145 129h152z" />
    <glyph glyph-name="gravecomb.cap" 
d="M-31 772l-170 129h156l146 -129h-132z" />
    <glyph glyph-name="uni0302.cap" 
d="M-79 772h-128l147 129h120l147 -129h-130l-78 62z" />
    <glyph glyph-name="tildecomb.cap" 
d="M-76 827q-43 0 -43 -56l-86 10q2 62 33 95.5t89 33.5q32 0 55 -8.5t50 -26.5q17 -12 29 -16.5t25 -4.5q23 0 33 13t10 43l86 -11q-1 -62 -32.5 -95t-89.5 -33q-31 0 -55 8.5t-51 26.5q-16 12 -28 16.5t-25 4.5z" />
    <glyph glyph-name="uni030C.cap" 
d="M79 901h128l-147 -129h-120l-147 129h130l78 -63z" />
    <glyph glyph-name="uni0315.short" 
d="M-66 566q5 42 7.5 83t3.5 91h110q-4 -54 -11 -95t-18 -79h-92z" />
    <glyph glyph-name="uni0304.cap" 
d="M-194 879h388v-86h-388v86z" />
    <glyph glyph-name="uni0308.cap" 
d="M122 774q-28 0 -46.5 18.5t-18.5 46.5q0 29 18.5 46.5t46.5 17.5q29 0 47.5 -17.5t18.5 -46.5q0 -28 -18.5 -46.5t-47.5 -18.5zM-123 774q-28 0 -46.5 18.5t-18.5 46.5q0 29 18.5 46.5t46.5 17.5q29 0 47.5 -17.5t18.5 -46.5q0 -28 -18.5 -46.5t-47.5 -18.5z" />
    <glyph glyph-name="uni0306.cap" 
d="M0 771q-78 0 -126.5 35t-50.5 92l88 10q6 -62 89 -62t89 62l88 -10q-1 -57 -50 -92t-127 -35z" />
    <glyph glyph-name="uni0307.cap" 
d="M0 772q-30 0 -49.5 19t-19.5 49q0 29 19.5 48t49.5 19t49.5 -19t19.5 -48q0 -30 -19.5 -49t-49.5 -19z" />
    <glyph glyph-name="uni030A.cap" 
d="M0 759q-52 0 -85 30.5t-33 77.5t33 77.5t85 30.5t85 -30.5t33 -77.5t-33 -77.5t-85 -30.5zM0 812q26 0 41.5 15.5t15.5 39.5t-15.5 39.5t-41.5 15.5t-41.5 -15.5t-15.5 -39.5t15.5 -39.5t41.5 -15.5z" />
    <glyph glyph-name="dotbelowcomb.cap" 
d="M0 -200q-30 0 -49.5 19t-19.5 49q0 29 19.5 48t49.5 19t49.5 -19t19.5 -48q0 -30 -19.5 -49t-49.5 -19z" />
    <glyph glyph-name="uni0414.loclBGR" horiz-adv-x="840" 
d="M33 -170v283h84l236 587h134l236 -587h84v-283h-119v170h-536v-170h-119zM250 113h335l-167 454z" />
    <glyph glyph-name="uni041B.loclBGR" horiz-adv-x="724" 
d="M13 0l282 700h134l282 -700h-142l-209 567l-210 -567h-137z" />
    <glyph glyph-name="uni0424.loclBGR" horiz-adv-x="909" 
d="M393 -71v80q-106 9 -183 51.5t-119 115.5t-42 174q0 100 42 173t119 116t183 52v80h123v-80q106 -9 183 -51.5t119 -115.5t42 -174t-42 -174t-119 -115.5t-183 -51.5v-80h-123zM727 350q0 109 -56.5 165.5t-158.5 68.5v-468q101 12 158 69t57 165zM182 350
q0 -108 57 -165t158 -69v468q-101 -12 -158 -69.5t-57 -164.5z" />
    <glyph glyph-name="uni0431.loclMKDSRB" horiz-adv-x="618" 
d="M309 -13q-76 0 -135.5 29.5t-94 84.5t-34.5 129q0 56 19.5 96.5t52 70t73.5 51.5q-48 29 -73.5 63t-25.5 74q0 52 40.5 87t128.5 42q63 5 130 8.5t125 9.5l17 -100q-59 -4 -123 -7t-111 -6q-49 -3 -67 -13t-18 -29q0 -22 32.5 -41t98.5 -42q66 -22 117.5 -56t81.5 -85
t30 -123q0 -112 -70.5 -177.5t-193.5 -65.5zM172 230q0 -64 37 -100.5t100 -36.5q64 0 100.5 36.5t36.5 100.5q0 59 -31 94.5t-94 60.5q-19 7 -37 15q-52 -27 -82 -67.5t-30 -102.5z" />
    <glyph glyph-name="uni0432.loclBGR" horiz-adv-x="608" 
d="M563 217q0 -70 -31.5 -121.5t-89 -80t-135.5 -28.5q-133 0 -197.5 88.5t-64.5 269.5v91q0 97 33.5 168t94 110t141.5 39q65 0 113 -24t74.5 -66.5t26.5 -98.5q0 -49 -28 -90t-78 -68q67 -21 104 -70t37 -119zM169 440v-18q32 5 68.5 8.5t62.5 4.5q56 11 81 38.5t25 76.5
q0 46 -28 72t-75 26q-62 0 -98 -55t-36 -153zM303 335q-30 0 -66.5 -3t-67.5 -7q3 -123 35.5 -178t103.5 -55q60 0 96.5 34t36.5 89q0 120 -138 120z" />
    <glyph glyph-name="uni0433.loclBGR" horiz-adv-x="491" 
d="M453 33q-43 -24 -91 -35t-101 -11q-103 0 -164 43.5t-61 116.5q0 52 24.5 82t69 47t103.5 28q49 10 71.5 23.5t22.5 46.5q0 57 -98 57q-39 0 -74.5 -12t-73.5 -35l-20 97q39 23 85.5 35.5t99.5 12.5q92 0 147 -42.5t55 -110.5q0 -50 -25 -81t-67 -48t-94 -26t-77 -24
t-25 -47q0 -65 113 -65q43 0 79.5 10.5t79.5 35.5z" />
    <glyph glyph-name="uni0434.loclBGR" horiz-adv-x="642" 
d="M88 -179l25 100q33 -20 78 -33t91 -13q85 0 125.5 41.5t40.5 125.5v45q-26 -41 -70 -64t-101 -23q-67 0 -119.5 34.5t-82.5 94.5t-30 136q0 75 31.5 134.5t86 94.5t123.5 35q58 0 102 -24.5t69 -68.5l4 80h111v-461q0 -284 -287 -284q-56 0 -110 14t-87 36zM456 265
q0 71 -40 114.5t-103 43.5q-64 0 -102.5 -43.5t-38.5 -114.5q0 -70 38 -114.5t101 -44.5q65 0 105 43.5t40 115.5z" />
    <glyph glyph-name="uni0436.loclBGR" horiz-adv-x="860" 
d="M155 0h-144l192 271l-170 245h139l131 -203h67v427h120v-427h67l131 203h139l-170 -245l192 -271h-144l-147 213h-68v-213h-120v213h-68z" />
    <glyph glyph-name="uni0437.loclBGR" horiz-adv-x="522" 
d="M241 -229q-59 0 -115 12.5t-94 34.5l21 103q31 -19 80 -32.5t98 -13.5q60 0 96.5 28.5t36.5 88.5q0 54 -33.5 85t-92.5 31h-108v103h100q51 0 83.5 30.5t32.5 81.5q0 49 -36 75.5t-92 26.5q-46 0 -85.5 -13.5t-72.5 -32.5l-20 103q41 21 86 34t103 13q69 0 122.5 -24
t84 -68t30.5 -104q0 -63 -32 -103.5t-78 -63.5q53 -20 90.5 -65.5t37.5 -118.5q0 -67 -31.5 -114.5t-86.5 -72t-125 -24.5z" />
    <glyph glyph-name="uni0438.loclBGR" horiz-adv-x="599" 
d="M418 0l-4 84q-21 -47 -63.5 -72t-97.5 -25q-89 0 -138 56t-49 161v312h124v-292q0 -128 97 -128q55 0 86.5 37t31.5 101v282h124v-516h-111z" />
    <glyph glyph-name="uni043A.loclBGR" horiz-adv-x="575" 
d="M194 0h-124v740h124v-427h71l138 203h140l-178 -245l199 -271h-144l-154 213h-72v-213z" />
    <glyph glyph-name="uni043B.loclBGR" horiz-adv-x="568" 
d="M139 0h-130l211 516h128l211 -516h-136l-142 399z" />
    <glyph glyph-name="uni043F.loclBGR" horiz-adv-x="605" 
d="M539 312v-312h-124v291q0 129 -100 129q-56 0 -88.5 -36.5t-32.5 -101.5v-282h-124v516h111l4 -84q21 46 64.5 71.5t99.5 25.5q90 0 140 -56t50 -161z" />
    <glyph glyph-name="uni0442.loclBGR" horiz-adv-x="918" 
d="M194 282v-282h-124v516h111l4 -83q21 46 62 71t94 25q119 0 162 -103q21 49 65 76t102 27q86 0 134 -56t48 -161v-312h-124v291q0 129 -93 129q-52 0 -82 -36.5t-30 -101.5v-282h-124v291q0 129 -93 129q-52 0 -82 -36.5t-30 -101.5z" />
    <glyph glyph-name="uni0444.loclBGR" horiz-adv-x="788" 
d="M332 -216v206q-93 10 -157 46.5t-97 93.5t-33 128t33 128t96.5 93.5t157.5 46.5v174h124v-174q94 -10 157.5 -46.5t96.5 -93.5t33 -128t-33 -128t-97 -93.5t-157 -46.5v-206h-124zM616 258q0 75 -44.5 117.5t-120.5 53.5v-342q81 12 123 56.5t42 114.5zM172 258
q0 -73 43 -116.5t122 -54.5v342q-78 -11 -121.5 -55t-43.5 -116z" />
    <glyph glyph-name="uni0446.loclBGR" horiz-adv-x="640" 
d="M508 -142v142h-90l-4 84q-21 -47 -63.5 -72t-97.5 -25q-89 0 -138 56t-49 161v312h124v-292q0 -128 97 -128q55 0 86.5 37t31.5 101v282h124v-416h88v-242h-109z" />
    <glyph glyph-name="uni0448.loclBGR" horiz-adv-x="918" 
d="M248 -13q-86 0 -134 56t-48 161v312h124v-292q0 -128 92 -128q53 0 83 36.5t30 100.5v283h124v-292q0 -128 92 -128q53 0 83 36.5t30 100.5v283h124v-516h-112l-4 81q-21 -45 -62 -69.5t-94 -24.5q-118 0 -161 101q-21 -48 -65.5 -74.5t-101.5 -26.5z" />
    <glyph glyph-name="uni0449.loclBGR" horiz-adv-x="959" 
d="M248 -13q-86 0 -134 56t-48 161v312h124v-292q0 -128 92 -128q53 0 83 36.5t30 100.5v283h124v-292q0 -128 92 -128q53 0 83 36.5t30 100.5v283h124v-416h88v-242h-110v142h-90l-4 81q-21 -45 -62 -69.5t-94 -24.5q-118 0 -161 101q-21 -48 -65.5 -74.5t-101.5 -26.5z
" />
    <glyph glyph-name="uni044A.loclBGR" horiz-adv-x="648" 
d="M622 194q0 -62 -28.5 -109t-81.5 -72.5t-125 -25.5q-70 0 -123 26t-82.5 74.5t-29.5 113.5v215h-145l12 100h257v-183q25 34 63 50.5t79 16.5q92 0 148 -55.5t56 -150.5zM276 194q0 -51 31 -82.5t80 -31.5q50 0 80.5 31.5t30.5 82.5q0 50 -30 81.5t-79 31.5
q-50 0 -81.5 -31t-31.5 -82z" />
    <glyph glyph-name="uni044C.loclBGR" horiz-adv-x="566" 
d="M540 194q0 -62 -29 -109t-81.5 -72.5t-124.5 -25.5q-70 0 -123 26t-82.5 74.5t-29.5 113.5v315h124v-183q25 34 63 50.5t79 16.5q92 0 148 -55.5t56 -150.5zM194 194q0 -51 31 -82.5t80 -31.5q50 0 80.5 31.5t30.5 82.5q0 50 -30 81.5t-79 31.5q-50 0 -81.5 -31
t-31.5 -82z" />
    <glyph glyph-name="uni044E.loclBGR" horiz-adv-x="853" 
d="M194 0h-124v740h124v-423h84q12 63 48 110.5t91 74.5t123 27q79 0 139 -35t94.5 -96t34.5 -140t-34.5 -140t-94.5 -96t-139 -35q-72 0 -128.5 29t-92.5 81t-44 120h-81v-217zM540 93q64 0 102.5 45.5t38.5 119.5t-38.5 119.5t-102.5 45.5t-102.5 -45.5t-38.5 -119.5
t38.5 -119.5t102.5 -45.5z" />
    <glyph glyph-name="uni045D.loclBGR" horiz-adv-x="599" 
d="M418 0l-4 84q-21 -47 -63.5 -72t-97.5 -25q-89 0 -138 56t-49 161v312h124v-292q0 -128 97 -128q55 0 86.5 37t31.5 101v282h124v-516h-111zM273 599l-151 155h138l124 -155h-111z" />
    <glyph glyph-name="uni0306.cyrl" 
d="M0 585q-82 0 -126.5 35t-54.5 114l96 12q5 -44 26 -68t59 -24t59.5 24t25.5 68l96 -12q-10 -79 -54 -114t-127 -35z" />
    <glyph glyph-name="uni0306.cyrl.cap" 
d="M186 882q-10 -75 -54.5 -109t-131.5 -34t-131 34t-55 109l99 12q4 -39 26 -61.5t61 -22.5t61 22.5t26 61.5z" />
    <glyph glyph-name="uni0439.loclBGR" horiz-adv-x="599" 
d="M418 0l-4 84q-21 -47 -63.5 -72t-97.5 -25q-89 0 -138 56t-49 161v312h124v-292q0 -128 97 -128q55 0 86.5 37t31.5 101v282h124v-516h-111zM297 585q-82 0 -126.5 35t-54.5 114l96 12q5 -44 26 -68t59 -24t59.5 24t25.5 68l96 -12q-10 -79 -54 -114t-127 -35z" />
    <glyph glyph-name="acutecomb.grek" 
d="M-55 605l62 197h136l-98 -197h-100z" />
    <glyph glyph-name="acutecomb.grek.cap" 
d="M-61 468l39 232h136l-75 -232h-100z" />
    <glyph glyph-name="highdef" 
d="M0 1075l-25 50h50zM-25 -552l25 50l25 -50h-50z" />
    </font>
</defs>
</svg>
