<?xml version="1.0" standalone="no"?>
<!DOCTYPE svg PUBLIC "-//W3C//DTD SVG 1.1//EN" "http://www.w3.org/Graphics/SVG/1.1/DTD/svg11.dtd" >
<svg xmlns="http://www.w3.org/2000/svg" xmlns:xlink="http://www.w3.org/1999/xlink" version="1.1">
<metadata>
Created by FontForge 20170731 at Thu Nov  7 21:04:28 2019
 By Aleksey,,,
Copyright 2019 FedEx Corporation. This font may not be altered in any way without prior permission of the FedEx Corporation.
</metadata>
<defs>
<font id="FedExSans-BoldItalic" horiz-adv-x="0" >
  <font-face 
    font-family="FedEx Sans"
    font-weight="700"
    font-style="italic"
    font-stretch="normal"
    units-per-em="1000"
    panose-1="2 11 8 3 2 2 3 9 2 4"
    ascent="740"
    descent="-260"
    x-height="520"
    cap-height="700"
    bbox="-245 -552 1367 1125"
    underline-thickness="76"
    underline-position="-222"
    slope="-11"
    unicode-range="U+000D-FFFD"
  />
<missing-glyph horiz-adv-x="500" 
d="M0 0v700h500v-700h-500zM87 654l162 -260l162 260h-324zM278 350l168 -268v536zM221 350l-167 266v-533zM249 305l-162 -259h324z" />
    <glyph glyph-name="uniFB00" unicode="ff" horiz-adv-x="761" 
d="M61 0l78 396h-102l39 124h87l2 10q44 223 232 223q30 0 60 -7t52 -19l-40 -124q-29 20 -66 20q-65 0 -83 -90l-3 -13h192l2 10q43 223 240 223q71 0 123 -26l-39 -124q-17 10 -35 14.5t-42 4.5q-35 0 -59.5 -23t-32.5 -66l-3 -13h146l-25 -124h-145l-78 -396h-154l78 396
h-192l-78 -396h-154z" />
    <glyph glyph-name="uniFB01" unicode="fi" horiz-adv-x="673" 
d="M61 0l78 396h-102l39 124h87l2 10q44 223 232 223q30 0 60 -7t52 -19l-40 -124q-29 20 -66 20q-65 0 -83 -90l-3 -13h344l-101 -520h-154l76 396h-189l-78 -396h-154zM605 571q-38 0 -61.5 21.5t-23.5 57.5q0 43 29.5 70.5t73.5 27.5q38 0 61.5 -21.5t23.5 -57.5
q0 -42 -29.5 -70t-73.5 -28z" />
    <glyph glyph-name="uniFB02" unicode="fl" horiz-adv-x="676" 
d="M61 0l78 396h-102l39 124h87l2 10q44 223 232 223q30 0 60 -7t52 -19l-40 -124q-29 20 -66 20q-65 0 -83 -90l-3 -13h122l-24 -124h-122l-78 -396h-154zM409 0l144 740h154l-144 -740h-154z" />
    <glyph glyph-name="uniFB03" unicode="ffi" horiz-adv-x="1019" 
d="M61 0l78 396h-102l39 124h87l2 10q44 223 232 223q30 0 60 -7t52 -19l-40 -124q-29 20 -66 20q-65 0 -83 -90l-3 -13h193l2 10q44 223 232 223q30 0 60 -7t52 -19l-39 -124q-34 20 -67 20q-65 0 -84 -92l-2 -11h343l-101 -520h-154l77 396h-189l-78 -396h-154l78 396
h-193l-78 -396h-154zM951 571q-38 0 -61.5 21.5t-23.5 57.5q0 43 29.5 70.5t73.5 27.5q38 0 61.5 -21.5t23.5 -57.5q0 -42 -29.5 -70t-73.5 -28z" />
    <glyph glyph-name="uniFB04" unicode="ffl" horiz-adv-x="1022" 
d="M61 0l78 396h-102l39 124h87l2 10q44 223 232 223q30 0 60 -7t52 -19l-40 -124q-29 20 -66 20q-65 0 -83 -90l-3 -13h193l2 10q44 223 232 223q30 0 60 -7t52 -19l-39 -124q-34 20 -67 20q-65 0 -84 -92l-2 -11h121l-24 -124h-121l-78 -396h-154l78 396h-193l-78 -396
h-154zM755 0l144 740h154l-144 -740h-154z" />
    <glyph glyph-name="f_b" unicode="fb" horiz-adv-x="1028" 
d="M61 0l78 396h-102l39 124h87l2 10q44 223 232 223q30 0 60 -7t52 -19l-40 -124q-29 20 -66 20q-65 0 -83 -90l-3 -13h122l-24 -124h-122l-78 -396h-154zM726 -13q-58 0 -99 27.5t-58 74.5l-23 -89h-137l144 740h154l-53 -272q55 65 138 65q58 0 102 -30t69 -83t25 -123
q0 -64 -20.5 -120.5t-56.5 -99t-83.5 -66.5t-101.5 -24zM698 119q38 0 68 22t48 60t18 85q0 53 -25 84t-69 31q-37 0 -67.5 -22.5t-48.5 -60.5t-18 -85q0 -53 25.5 -83.5t68.5 -30.5z" />
    <glyph glyph-name="f_h" unicode="fh" horiz-adv-x="992" 
d="M61 0l78 396h-102l39 124h87l2 10q44 223 232 223q30 0 60 -7t52 -19l-40 -124q-29 20 -66 20q-65 0 -83 -90l-3 -13h122l-24 -124h-122l-78 -396h-154zM409 0l144 740h154l-53 -272q55 65 147 65q70 0 109 -40.5t39 -122.5q0 -16 -1.5 -36t-5.5 -37l-58 -297h-154
l57 295q2 10 3.5 23t1.5 22q0 59 -60 59q-43 0 -72.5 -29.5t-39.5 -80.5l-57 -289h-154z" />
    <glyph glyph-name="f_j" unicode="fj" horiz-adv-x="674" 
d="M61 0l78 396h-102l40 124h86l2 10q44 223 232 223q30 0 60 -7t52 -19l-40 -124q-29 20 -66 20q-65 0 -83 -90l-3 -13h345l-105 -541q-20 -106 -75.5 -157t-149.5 -51q-66 0 -120 26l44 120q35 -17 65 -17q35 0 55 22.5t30 71.5l77 402h-190l-78 -396h-154zM606 571
q-38 0 -61.5 21.5t-23.5 57.5q0 43 29.5 70.5t73.5 27.5q38 0 61.5 -21.5t23.5 -57.5q0 -42 -29.5 -70t-73.5 -28z" />
    <glyph glyph-name="f_k" unicode="fk" horiz-adv-x="986" 
d="M61 0l78 396h-102l39 124h87l2 10q44 223 232 223q30 0 60 -7t52 -19l-40 -124q-29 20 -66 20q-65 0 -83 -90l-3 -13h122l-24 -124h-122l-78 -396h-154zM409 0l144 740h154l-80 -410l210 190h184l-225 -195l130 -325h-165l-82 223l-87 -76l-29 -147h-154z" />
    <glyph glyph-name="f_t" unicode="ft" horiz-adv-x="784" 
d="M61 0l78 396h-102l39 124h87l2 10q44 223 232 223q30 0 60 -7t52 -19l-40 -124q-29 20 -66 20q-65 0 -83 -90l-3 -13h190l32 167h154l-32 -167h137l-24 -124h-138l-35 -182q-5 -30 -5 -49q0 -44 47 -44q33 0 78 19l-7 -125q-53 -25 -120 -25q-76 0 -115.5 37.5
t-39.5 108.5q0 38 8 78l35 182h-189l-78 -396h-154z" />
    <glyph glyph-name="f_f_b" unicode="ffb" horiz-adv-x="1375" 
d="M61 0l78 396h-102l39 124h87l2 10q44 223 232 223q30 0 60 -7t52 -19l-40 -124q-29 20 -66 20q-65 0 -83 -90l-3 -13h193l2 10q44 223 232 223q30 0 60 -7t52 -19l-39 -124q-34 20 -67 20q-65 0 -84 -92l-2 -11h121l-24 -124h-121l-78 -396h-154l78 396h-193l-78 -396
h-154zM1077 -13q-58 0 -100.5 29.5t-60.5 79.5l-24 -96h-137l144 740h154l-54 -279q60 72 150 72q56 0 98 -29t65 -81t23 -122q0 -66 -20 -123t-55 -100t-82 -67t-101 -24zM1046 118q37 0 67 22.5t47.5 61t17.5 85.5q0 54 -25.5 85t-69.5 31q-37 0 -67 -22.5t-48 -61
t-18 -85.5q0 -54 26 -85t70 -31z" />
    <glyph glyph-name="f_f_h" unicode="ffh" horiz-adv-x="1338" 
d="M61 0l78 396h-102l39 124h87l2 10q44 223 232 223q30 0 60 -7t52 -19l-40 -124q-29 20 -66 20q-65 0 -83 -90l-3 -13h193l2 10q44 223 232 223q30 0 60 -7t52 -19l-39 -124q-34 20 -67 20q-66 0 -84 -92l-2 -11h121l-24 -124h-121l-78 -396h-154l78 396h-193l-78 -396
h-154zM755 0l144 740h154l-53 -272q55 65 147 65q70 0 109 -40.5t39 -122.5q0 -16 -1.5 -36t-5.5 -37l-58 -297h-154l57 295q2 10 3.5 23t1.5 22q0 59 -60 59q-43 0 -72.5 -29.5t-39.5 -80.5l-57 -289h-154z" />
    <glyph glyph-name="f_f_j" unicode="ffj" horiz-adv-x="1019" 
d="M61 0l78 396h-102l39 124h87l2 10q44 223 232 223q30 0 60 -7t52 -19l-40 -124q-29 20 -66 20q-65 0 -83 -90l-3 -13h193l2 10q44 223 232 223q30 0 60 -7t52 -19l-39 -124q-34 20 -67 20q-66 0 -84 -92l-2 -11h343l-105 -541q-20 -106 -75.5 -157t-149.5 -51
q-66 0 -120 26l44 120q35 -17 65 -17q35 0 55 22.5t30 71.5l78 402h-189l-78 -396h-154l78 396h-193l-78 -396h-154zM951 571q-38 0 -61.5 21.5t-23.5 57.5q0 43 29.5 70.5t73.5 27.5q38 0 61.5 -21.5t23.5 -57.5q0 -42 -29.5 -70t-73.5 -28z" />
    <glyph glyph-name="f_f_k" unicode="ffk" horiz-adv-x="1332" 
d="M61 0l78 396h-102l39 124h87l2 10q44 223 232 223q30 0 60 -7t52 -19l-40 -124q-29 20 -66 20q-65 0 -83 -90l-3 -13h193l2 10q44 223 232 223q30 0 60 -7t52 -19l-39 -124q-34 20 -67 20q-65 0 -84 -92l-2 -11h121l-24 -124h-121l-78 -396h-154l78 396h-193l-78 -396
h-154zM755 0l144 740h154l-80 -410l210 190h184l-225 -195l130 -325h-165l-82 223l-87 -76l-29 -147h-154z" />
    <glyph glyph-name="f_f_t" unicode="fft" horiz-adv-x="1131" 
d="M61 0l78 396h-102l39 124h87l2 10q44 223 232 223q30 0 60 -7t52 -19l-40 -124q-29 20 -66 20q-65 0 -83 -90l-3 -13h193l2 10q44 223 232 223q30 0 60 -7t52 -19l-40 -124q-29 20 -66 20q-65 0 -83 -90l-3 -13h190l32 167h154l-32 -167h137l-24 -124h-138l-35 -182
q-2 -10 -3.5 -24t-1.5 -24q0 -45 47 -45q38 0 79 19l-8 -125q-53 -25 -117 -25q-158 0 -158 146q0 20 2.5 41t5.5 37l35 182h-189l-78 -396h-154l78 396h-193l-78 -396h-154z" />
    <glyph glyph-name=".notdef" horiz-adv-x="500" 
d="M0 0v700h500v-700h-500zM87 654l162 -260l162 260h-324zM278 350l168 -268v536zM221 350l-167 266v-533zM249 305l-162 -259h324z" />
    <glyph glyph-name="uni0000" 
 />
    <glyph glyph-name="uni0000" 
 />
    <glyph glyph-name="uni000D" unicode="&#xd;" horiz-adv-x="197" 
 />
    <glyph glyph-name="space" unicode=" " horiz-adv-x="197" 
 />
    <glyph glyph-name="exclam" unicode="!" horiz-adv-x="288" 
d="M67 233l78 467h160l-105 -467h-133zM99 -10q-38 0 -61.5 22t-23.5 59q0 43 30.5 72t74.5 29q38 0 61 -22t23 -60q0 -43 -29.5 -71.5t-74.5 -28.5z" />
    <glyph glyph-name="quotedbl" unicode="&#x22;" horiz-adv-x="432" 
d="M79 414l47 286h145l-65 -286h-127zM285 414l47 286h145l-65 -286h-127z" />
    <glyph glyph-name="numbersign" unicode="#" horiz-adv-x="612" 
d="M35 0l56 164h-74l19 102h90l54 156h-84l19 102h100l55 160h114l-55 -160h112l55 160h114l-55 -160h72l-19 -102h-88l-54 -156h83l-19 -102h-99l-56 -164h-115l57 164h-112l-56 -164h-114zM240 266h112l54 156h-112z" />
    <glyph glyph-name="dollar" unicode="$" horiz-adv-x="612" 
d="M199 -110l19 97q-118 9 -207 67l45 126q81 -62 186 -67l34 173q-90 30 -129.5 73t-39.5 113q0 63 31 111.5t87.5 78.5t130.5 35l19 97h86l-19 -100q47 -6 91 -22t77 -40l-49 -119q-60 47 -144 56l-32 -166q87 -30 126.5 -71t39.5 -102q0 -67 -30.5 -119t-86 -84
t-130.5 -40l-19 -97h-86zM260 487q0 -22 9.5 -35.5t34.5 -23.5l26 137q-70 -19 -70 -78zM399 201q0 21 -9 34t-33 24l-27 -139q69 20 69 81z" />
    <glyph glyph-name="percent" unicode="%" horiz-adv-x="931" 
d="M194 0l459 684h118l-459 -684h-118zM695 -8q-66 0 -103.5 43t-37.5 117q0 70 24.5 124.5t68 86t98.5 31.5q66 0 102.5 -41.5t36.5 -116.5q0 -71 -24 -126.5t-66.5 -86.5t-98.5 -31zM704 80q21 0 37.5 21t26.5 55.5t10 76.5q0 73 -42 73q-20 0 -38 -21t-28.5 -55
t-10.5 -74q0 -76 45 -76zM221 290q-66 0 -103.5 43t-37.5 117q0 70 24.5 124.5t68 86t98.5 31.5q66 0 102.5 -41.5t36.5 -116.5q0 -71 -24 -126.5t-66.5 -86.5t-98.5 -31zM230 378q21 0 37.5 21t26.5 55.5t10 76.5q0 73 -42 73q-20 0 -38 -21t-28.5 -55t-10.5 -74
q0 -76 45 -76z" />
    <glyph glyph-name="ampersand" unicode="&#x26;" horiz-adv-x="749" 
d="M266 -14q-112 0 -173.5 49t-61.5 137q0 67 43 117t134 88q-46 74 -46 143q0 57 28 101t77 68.5t113 24.5q84 0 135.5 -43t51.5 -113q0 -67 -42.5 -117.5t-132.5 -89.5l107 -137q23 31 37.5 69t18.5 81l130 -15q-8 -67 -36.5 -126.5t-73.5 -105.5l92 -117h-173l-27 35
q-45 -23 -96 -36t-105 -13zM292 523q0 -40 40 -95q55 24 79 51t24 64q0 27 -16.5 43.5t-45.5 16.5q-34 0 -57.5 -22.5t-23.5 -57.5zM180 191q0 -40 28.5 -62t80.5 -22q56 0 106 23l-127 166q-88 -40 -88 -105z" />
    <glyph glyph-name="quotesingle" unicode="'" horiz-adv-x="226" 
d="M79 414l47 286h145l-65 -286h-127z" />
    <glyph glyph-name="parenleft" unicode="(" horiz-adv-x="385" 
d="M181 -198q-67 74 -102.5 172.5t-35.5 212.5q0 118 37 226.5t108.5 202.5t172.5 166l94 -80q-122 -106 -186 -241t-64 -290q0 -85 19.5 -156t57.5 -133z" />
    <glyph glyph-name="parenright" unicode=")" horiz-adv-x="385" 
d="M217 782q68 -73 103 -172t35 -213q0 -117 -37 -226t-108 -202.5t-173 -166.5l-94 80q122 106 186 241t64 290q0 85 -19.5 156.5t-57.5 132.5z" />
    <glyph glyph-name="asterisk" unicode="*" horiz-adv-x="432" 
d="M193 340l-79 55l87 104l-120 32l35 93l112 -49l-10 125h102l-10 -125l112 49l35 -93l-121 -32l87 -104l-79 -55l-75 112z" />
    <glyph glyph-name="plus" unicode="+" horiz-adv-x="612" 
d="M256 95v185h-176v123h176v184h132v-184h176v-123h-176v-185h-132z" />
    <glyph glyph-name="comma" unicode="," horiz-adv-x="280" 
d="M-7 -177l-34 58q43 15 77 44t54 65q-35 1 -57.5 23t-22.5 57q0 43 30 72.5t73 29.5q41 0 64.5 -26.5t23.5 -73.5q0 -51 -27.5 -100.5t-74.5 -89t-106 -59.5z" />
    <glyph glyph-name="hyphen" unicode="-" horiz-adv-x="389" 
d="M32 229l26 131h313l-26 -131h-313z" />
    <glyph glyph-name="hyphen" unicode="&#x2011;" horiz-adv-x="389" 
d="M32 229l26 131h313l-26 -131h-313z" />
    <glyph glyph-name="hyphen" unicode="&#x2010;" horiz-adv-x="389" 
d="M32 229l26 131h313l-26 -131h-313z" />
    <glyph glyph-name="hyphen" unicode="&#xad;" horiz-adv-x="389" 
d="M32 229l26 131h313l-26 -131h-313z" />
    <glyph glyph-name="period" unicode="." horiz-adv-x="280" 
d="M95 -10q-38 0 -61.5 22t-23.5 59q0 43 30.5 72t74.5 29q38 0 61 -22t23 -60q0 -43 -29.5 -71.5t-74.5 -28.5z" />
    <glyph glyph-name="slash" unicode="/" horiz-adv-x="499" 
d="M-67 -156l473 896h173l-473 -896h-173z" />
    <glyph glyph-name="zero" unicode="0" horiz-adv-x="612" 
d="M279 -14q-111 0 -171.5 73t-60.5 208q0 93 24 172t67 137t101.5 90t127.5 32q111 0 171.5 -73t60.5 -208q0 -93 -24 -172t-67 -137t-101.5 -90t-127.5 -32zM288 121q41 0 75 41t54.5 110t20.5 152q0 139 -80 139q-41 0 -75 -41t-54.5 -110t-20.5 -152q0 -139 80 -139z
" />
    <glyph glyph-name="one" unicode="1" horiz-adv-x="612" 
d="M205 0l98 508l-129 -77l-47 119l230 134h139l-133 -684h-158z" />
    <glyph glyph-name="two" unicode="2" horiz-adv-x="612" 
d="M9 0l22 114q35 24 81 57.5t91 68t78 61.5q72 59 103 102t31 83q0 77 -94 77q-82 0 -177 -61l-17 122q109 74 234 74q98 0 156.5 -51t58.5 -137q0 -72 -40 -135t-132 -136q-23 -19 -58.5 -44.5t-87.5 -61.5h268l-41 -133h-476z" />
    <glyph glyph-name="three" unicode="3" horiz-adv-x="612" 
d="M229 -14q-69 0 -130 15.5t-99 43.5l51 117q85 -49 173 -49q63 0 99.5 27t36.5 73q0 74 -105 74h-93l24 127h88q62 0 98 24t36 66q0 67 -93 67q-86 0 -180 -50l-7 117q44 29 100.5 44.5t114.5 15.5q104 0 164 -44t60 -121q0 -63 -36.5 -110.5t-106.5 -73.5
q46 -16 70.5 -51.5t24.5 -84.5q0 -70 -35 -121t-100 -78.5t-155 -27.5z" />
    <glyph glyph-name="four" unicode="4" horiz-adv-x="612" 
d="M307 0l26 133h-319l23 123l394 428h156l-82 -424h87l-40 -127h-71l-26 -133h-148zM194 260h164l44 227z" />
    <glyph glyph-name="five" unicode="5" horiz-adv-x="612" 
d="M249 -14q-136 0 -231 57l52 120q76 -48 176 -48q66 0 103.5 29t37.5 80q0 81 -109 81q-29 0 -58 -4.5t-62 -13.5l-54 28l101 369h386l-11 -135h-275l-37 -137q41 12 86 12q89 0 140.5 -47.5t51.5 -127.5t-36.5 -139t-103 -91.5t-157.5 -32.5z" />
    <glyph glyph-name="six" unicode="6" horiz-adv-x="612" 
d="M305 -14q-115 0 -179.5 72.5t-64.5 201.5q0 96 28 176t79 138.5t120.5 91t152.5 32.5q94 0 167 -39l-52 -122q-54 30 -121 30q-79 0 -134 -51.5t-75 -143.5q28 31 67.5 48t86.5 17q83 0 132 -52t49 -140q0 -74 -33.5 -132.5t-91.5 -92.5t-131 -34zM302 113q45 0 75.5 35
t30.5 84q0 41 -22 64t-60 23q-46 0 -77 -34t-31 -84q0 -40 23 -64t61 -24z" />
    <glyph glyph-name="seven" unicode="7" horiz-adv-x="612" 
d="M65 0l363 549h-336l42 135h485l-26 -129l-358 -555h-170z" />
    <glyph glyph-name="eight" unicode="8" horiz-adv-x="612" 
d="M273 -14q-109 0 -173.5 47.5t-64.5 129.5q0 66 40.5 116t110.5 72q-70 41 -70 133q0 62 34.5 110t94 76t134.5 28q98 0 156.5 -47t58.5 -127q0 -58 -34.5 -104.5t-95.5 -70.5q44 -19 68 -55t24 -84q0 -66 -35.5 -116.5t-99.5 -79t-148 -28.5zM344 409q45 0 74 26t29 67
q0 34 -21.5 53.5t-59.5 19.5q-46 0 -74.5 -26t-28.5 -67q0 -34 21 -53.5t60 -19.5zM285 109q51 0 83 28t32 72q0 38 -24.5 59t-68.5 21q-51 0 -83.5 -28t-32.5 -72q0 -37 25.5 -58.5t68.5 -21.5z" />
    <glyph glyph-name="nine" unicode="9" horiz-adv-x="612" 
d="M343 698q113 0 176.5 -72.5t63.5 -202.5q0 -96 -28 -176t-79 -138.5t-120.5 -90.5t-152.5 -32q-96 0 -167 39l53 122q54 -30 121 -30q79 0 134 52t75 143q-28 -31 -67.5 -48t-86.5 -17q-83 0 -132.5 52t-49.5 140q0 74 34 132.5t93 92.5t133 34zM342 570q-45 0 -75 -34.5
t-30 -84.5q0 -40 22.5 -63.5t59.5 -23.5q46 0 77 35t31 84q0 40 -23.5 63.5t-61.5 23.5z" />
    <glyph glyph-name="colon" unicode=":" horiz-adv-x="280" 
d="M95 -10q-38 0 -61.5 22t-23.5 59q0 43 30.5 72t74.5 29q38 0 61 -22t23 -60q0 -43 -29.5 -71.5t-74.5 -28.5zM165 348q-38 0 -61.5 22t-23.5 59q0 43 30.5 72t74.5 29q38 0 61 -22t23 -60q0 -43 -29.5 -71.5t-74.5 -28.5z" />
    <glyph glyph-name="semicolon" unicode=";" horiz-adv-x="280" 
d="M-7 -177l-34 58q43 15 77 44t54 65q-35 1 -57.5 23t-22.5 57q0 43 30 72.5t73 29.5q41 0 64.5 -26.5t23.5 -73.5q0 -51 -27.5 -100.5t-74.5 -89t-106 -59.5zM165 348q-38 0 -61.5 22t-23.5 59q0 43 30.5 72t74.5 29q38 0 61 -22t23 -60q0 -43 -29.5 -71.5t-74.5 -28.5z
" />
    <glyph glyph-name="less" unicode="&#x3c;" horiz-adv-x="612" 
d="M548 84l-484 198v120l484 197v-139l-326 -117l326 -118v-141z" />
    <glyph glyph-name="equal" unicode="=" horiz-adv-x="612" 
d="M80 153v123h484v-123h-484zM80 407v123h484v-123h-484z" />
    <glyph glyph-name="greater" unicode="&#x3e;" horiz-adv-x="612" 
d="M101 84v141l326 118l-326 117v139l485 -197v-120z" />
    <glyph glyph-name="question" unicode="?" horiz-adv-x="512" 
d="M147 232l1 16q3 40 15 68.5t38 54t71 54.5q38 25 58 41t27.5 30t7.5 33q0 56 -89 56q-38 0 -79.5 -11.5t-76.5 -31.5l-10 121q37 25 91 39t112 14q99 0 154.5 -45.5t55.5 -125.5q0 -41 -13 -73t-43.5 -61t-83.5 -61q-40 -25 -62.5 -41.5t-31.5 -30t-11 -30.5l-2 -16h-129
zM183 -10q-38 0 -61 22t-23 59q0 43 30.5 72t74.5 29q38 0 61 -22t23 -60q0 -43 -30 -71.5t-75 -28.5z" />
    <glyph glyph-name="at" unicode="@" horiz-adv-x="993" 
d="M452 -212q-127 0 -220 47.5t-143 135.5t-50 209q0 108 40 201t111.5 162.5t167.5 108t208 38.5q118 0 205.5 -43t136.5 -121t49 -183q0 -69 -19.5 -128t-55 -103.5t-82 -69.5t-100.5 -25q-51 0 -84 22t-42 61q-23 -39 -60 -61t-84 -22q-73 0 -117 52t-44 137
q0 71 28.5 128.5t77 92t106.5 34.5q48 0 79.5 -23t41.5 -64l19 74h114l-49 -250q-5 -22 -5 -42q0 -43 42 -43q37 0 66 30t46.5 81t17.5 114q0 121 -78 190t-215 69q-90 0 -166.5 -30.5t-132.5 -86t-87 -130.5t-31 -164q0 -144 84.5 -224.5t236.5 -80.5q54 0 108 11.5
t102 32.5l13 -90q-50 -22 -110.5 -34.5t-124.5 -12.5zM471 130q28 0 50.5 18.5t36 49t13.5 66.5q0 39 -17.5 61.5t-48.5 22.5q-27 0 -50 -18.5t-37 -48.5t-14 -67q0 -39 18 -61.5t49 -22.5z" />
    <glyph glyph-name="A" unicode="A" horiz-adv-x="724" 
d="M-39 0l401 700h169l130 -700h-174l-20 149h-252l-78 -149h-176zM285 281h164l-34 248z" />
    <glyph glyph-name="B" unicode="B" horiz-adv-x="659" 
d="M22 0l136 700h255q108 0 166 -41.5t58 -118.5q0 -63 -39 -109.5t-105 -65.5q54 -12 85 -49t31 -91q0 -67 -37.5 -118t-104.5 -79t-157 -28h-288zM384 578h-96l-30 -158h95q58 0 90.5 25t32.5 69q0 64 -92 64zM345 303h-110l-35 -181h118q63 0 98.5 27.5t35.5 76.5
q0 77 -107 77z" />
    <glyph glyph-name="C" unicode="C" horiz-adv-x="680" 
d="M378 -16q-97 0 -168.5 39t-111 110t-39.5 166q0 91 31.5 167t88.5 132t135 87t171 31q57 0 116.5 -16t100.5 -42l-49 -131q-74 49 -173 49q-74 0 -131 -34t-89.5 -93.5t-32.5 -137.5q0 -87 46.5 -137t128.5 -50q105 0 195 51l2 -137q-40 -25 -98.5 -39.5t-122.5 -14.5z
" />
    <glyph glyph-name="D" unicode="D" horiz-adv-x="749" 
d="M22 0l136 700h264q93 0 161 -36t105.5 -100.5t37.5 -152.5q0 -124 -54.5 -216.5t-152 -143.5t-227.5 -51h-270zM388 562h-98l-83 -424h97q77 0 134 32t88.5 90.5t31.5 137.5q0 164 -170 164z" />
    <glyph glyph-name="E" unicode="E" horiz-adv-x="595" 
d="M22 0l136 700h458l-4 -133h-322l-28 -145h288l-25 -133h-289l-31 -156h341l-41 -133h-483z" />
    <glyph glyph-name="F" unicode="F" horiz-adv-x="566" 
d="M22 0l136 700h452l-4 -133h-316l-30 -157h279l-25 -133h-280l-54 -277h-158z" />
    <glyph glyph-name="G" unicode="G" horiz-adv-x="738" 
d="M400 -16q-106 0 -182.5 38t-117.5 108.5t-41 169.5q0 90 32 166t91 132t138.5 87t173.5 31q63 0 127.5 -16t110.5 -43l-50 -134q-86 53 -188 53q-79 0 -139 -34t-94 -93.5t-34 -137.5q0 -92 48.5 -140.5t141.5 -48.5q46 0 89 8l28 141h-127l24 122h274l-70 -360
q-101 -49 -235 -49z" />
    <glyph glyph-name="H" unicode="H" horiz-adv-x="739" 
d="M22 0l136 700h162l-53 -275h270l53 275h162l-136 -700h-162l55 284h-270l-55 -284h-162z" />
    <glyph glyph-name="I" unicode="I" horiz-adv-x="307" 
d="M22 0l136 700h162l-136 -700h-162z" />
    <glyph glyph-name="J" unicode="J" horiz-adv-x="550" 
d="M173 -16q-52 0 -102.5 13.5t-85.5 38.5l47 129q33 -22 66.5 -32.5t72.5 -10.5q65 0 101 38t54 129l80 411h162l-79 -408q-21 -109 -60 -177t-101.5 -99.5t-154.5 -31.5z" />
    <glyph glyph-name="K" unicode="K" horiz-adv-x="702" 
d="M22 0l136 700h162l-59 -304l301 304h190l-297 -285l184 -415h-177l-128 297l-113 -108l-37 -189h-162z" />
    <glyph glyph-name="L" unicode="L" horiz-adv-x="563" 
d="M22 0l136 700h162l-109 -560h320l-43 -140h-466z" />
    <glyph glyph-name="M" unicode="M" horiz-adv-x="872" 
d="M22 0l136 700h191l89 -427l252 427h195l-136 -700h-149l93 481l-218 -363h-132l-79 363l-93 -481h-149z" />
    <glyph glyph-name="N" unicode="N" horiz-adv-x="729" 
d="M22 0l136 700h160l179 -472l92 472h153l-136 -700h-155l-184 472l-92 -472h-153z" />
    <glyph glyph-name="O" unicode="O" horiz-adv-x="811" 
d="M381 -16q-98 0 -170.5 38.5t-112 109t-39.5 164.5q0 91 30 168t85 133.5t129 87.5t162 31q98 0 170 -38.5t112 -108.5t40 -165q0 -91 -30 -167.5t-85 -133t-129 -88t-162 -31.5zM393 124q64 0 115 35.5t81 97t30 137.5q0 85 -44 133.5t-121 48.5q-64 0 -115.5 -35.5
t-81.5 -96.5t-30 -138q0 -85 44 -133.5t122 -48.5z" />
    <glyph glyph-name="P" unicode="P" horiz-adv-x="618" 
d="M22 0l136 700h235q107 0 169 -53t62 -145q0 -80 -38.5 -140t-108.5 -92.5t-164 -32.5h-89l-46 -237h-156zM363 574h-74l-41 -211h77q62 0 99.5 34.5t37.5 91.5q0 41 -26 63t-73 22z" />
    <glyph glyph-name="Q" unicode="Q" horiz-adv-x="811" 
d="M380 -16q-97 0 -169.5 38.5t-112 109t-39.5 164.5q0 91 30 167.5t85 133t129 88t162 31.5q98 0 170 -38.5t112 -108.5t40 -165q0 -94 -34 -174t-94 -137l73 -98l-88 -74l-78 106q-41 -21 -88 -32t-98 -11zM393 124q49 0 89 17l-84 114l86 75l87 -117q48 71 48 181
q0 86 -44.5 134t-121.5 48q-64 0 -115.5 -35.5t-81 -96.5t-29.5 -138q0 -85 44 -133.5t122 -48.5z" />
    <glyph glyph-name="R" unicode="R" horiz-adv-x="656" 
d="M22 0l136 700h237q114 0 176 -50.5t62 -143.5q0 -78 -41.5 -136t-117.5 -89l105 -281h-166l-80 250h-15h-91l-49 -250h-156zM367 573h-78l-38 -196h78q65 0 102.5 31.5t37.5 86.5q0 78 -102 78z" />
    <glyph glyph-name="S" unicode="S" horiz-adv-x="595" 
d="M244 -16q-68 0 -134 18t-120 50l47 128q44 -31 97 -47.5t109 -16.5q134 0 134 92q0 21 -9 33t-33 22t-69 25q-59 20 -98.5 44t-59.5 58.5t-20 86.5q0 73 36 126.5t99.5 83t147.5 29.5q64 0 124 -17t106 -48l-49 -123q-38 26 -85.5 41t-93.5 15q-56 0 -89.5 -23t-33.5 -63
q0 -33 25.5 -47t83.5 -34q58 -19 98.5 -41.5t62 -57t21.5 -90.5q0 -74 -37 -129t-103.5 -85t-156.5 -30z" />
    <glyph glyph-name="T" unicode="T" horiz-adv-x="618" 
d="M178 0l109 561h-212l27 139h586l-27 -139h-212l-109 -561h-162z" />
    <glyph glyph-name="U" unicode="U" horiz-adv-x="719" 
d="M326 -16q-127 0 -194 58t-67 168q0 15 2 34.5t5 36.5l81 419h162l-79 -408q-7 -34 -7 -63q0 -106 109 -106q67 0 103 39t54 130l80 408h162l-82 -422q-29 -151 -109 -222.5t-220 -71.5z" />
    <glyph glyph-name="V" unicode="V" horiz-adv-x="706" 
d="M221 0l-125 700h172l69 -525l271 525h172l-397 -700h-162z" />
    <glyph glyph-name="W" unicode="W" horiz-adv-x="990" 
d="M154 0l-54 700h168l14 -505l222 505h157l26 -503l206 503h169l-326 -700h-161l-26 516l-232 -516h-163z" />
    <glyph glyph-name="X" unicode="X" horiz-adv-x="695" 
d="M-39 0l318 363l-158 337h178l95 -223l180 223h184l-299 -346l174 -354h-181l-107 240l-196 -240h-188z" />
    <glyph glyph-name="Y" unicode="Y" horiz-adv-x="689" 
d="M214 0l54 276l-169 424h173l97 -296l206 296h187l-332 -424l-54 -276h-162z" />
    <glyph glyph-name="Z" unicode="Z" horiz-adv-x="641" 
d="M-7 0l24 123l435 444h-333l40 133h518l-23 -123l-432 -444h358l-40 -133h-547z" />
    <glyph glyph-name="bracketleft" unicode="[" horiz-adv-x="364" 
d="M-9 -156l175 896h254l-4 -124h-119l-127 -648h121l-38 -124h-262z" />
    <glyph glyph-name="backslash" unicode="\" horiz-adv-x="499" 
d="M239 -156l-124 896h155l125 -896h-156z" />
    <glyph glyph-name="bracketright" unicode="]" horiz-adv-x="364" 
d="M385 740l-175 -896h-252l4 124h117l127 648h-121l38 124h262z" />
    <glyph glyph-name="asciicircum" unicode="^" horiz-adv-x="612" 
d="M47 290l204 394h124l203 -394h-156l-111 250l-112 -250h-152z" />
    <glyph glyph-name="underscore" unicode="_" horiz-adv-x="480" 
d="M-83 -169l24 124h479l-24 -124h-479z" />
    <glyph glyph-name="grave" unicode="`" horiz-adv-x="500" 
d="M319 599l-120 156h160l88 -156h-128z" />
    <glyph glyph-name="a" unicode="a" horiz-adv-x="564" 
d="M166 -13q-69 0 -109.5 39.5t-40.5 106.5q0 93 77 141.5t228 49.5l49 1q3 18 3 25q0 61 -91 61q-86 0 -169 -47l-2 120q98 49 201 49q96 0 151 -46.5t55 -126.5q0 -16 -1.5 -37t-5.5 -41l-56 -282h-131l10 70q-28 -39 -72 -61t-96 -22zM166 156q0 -53 61 -53q47 0 80.5 31
t43.5 83l3 18l-33 -1q-79 -1 -117 -20.5t-38 -57.5z" />
    <glyph glyph-name="b" unicode="b" horiz-adv-x="631" 
d="M329 -13q-58 0 -99 27.5t-58 74.5l-23 -89h-137l144 740h154l-53 -272q55 65 138 65q58 0 102 -30t69 -83t25 -123q0 -64 -20.5 -120.5t-56.5 -99t-83.5 -66.5t-101.5 -24zM301 119q38 0 68 22t48 60t18 85q0 53 -25 84t-69 31q-37 0 -67.5 -22.5t-48.5 -60.5t-18 -85
q0 -53 25.5 -83.5t68.5 -30.5z" />
    <glyph glyph-name="c" unicode="c" horiz-adv-x="520" 
d="M288 -13q-76 0 -131.5 29.5t-86 83.5t-30.5 127q0 89 40 158t110.5 108.5t159.5 39.5q49 0 93.5 -11.5t75.5 -32.5l-49 -121q-51 34 -114 34q-73 0 -116.5 -45t-43.5 -122q0 -55 31 -86t86 -31q70 0 132 38v-130q-70 -39 -157 -39z" />
    <glyph glyph-name="d" unicode="d" horiz-adv-x="632" 
d="M236 -13q-57 0 -101.5 30t-69.5 83.5t-25 122.5q0 64 20.5 120t56 99t83 67t101.5 24q55 0 93.5 -25t55.5 -71l59 303h154l-144 -740h-138l9 68q-28 -39 -68 -60t-86 -21zM291 119q38 0 68 22.5t48 60.5t18 85q0 53 -25 83.5t-69 30.5q-37 0 -67.5 -22t-48.5 -60t-18 -85
q0 -53 25.5 -84t68.5 -31z" />
    <glyph glyph-name="e" unicode="e" horiz-adv-x="572" 
d="M285 -13q-115 0 -180 63.5t-65 175.5q0 89 38 158.5t103.5 109t149.5 39.5q98 0 154 -55t56 -151q0 -26 -4 -57t-11 -53h-336q8 -107 125 -107q79 0 159 42l1 -122q-77 -43 -190 -43zM321 419q-40 0 -72 -29.5t-48 -76.5h198q1 9 1 20q0 41 -20.5 63.5t-58.5 22.5z" />
    <glyph glyph-name="f" unicode="f" horiz-adv-x="415" 
d="M61 0l78 396h-102l39 124h87l2 10q43 223 240 223q71 0 123 -26l-39 -124q-19 11 -36.5 15t-40.5 4q-35 0 -59.5 -23t-32.5 -66l-3 -13h146l-25 -124h-145l-78 -396h-154z" />
    <glyph glyph-name="g" unicode="g" horiz-adv-x="633" 
d="M217 -229q-61 0 -115 13.5t-91 38.5l43 122q71 -45 156 -45q136 0 163 134l6 33q-56 -67 -142 -67q-57 0 -101.5 29t-69.5 81t-25 119q0 63 20.5 118t56.5 97t83 65.5t101 23.5q58 0 100 -28t59 -77l23 92h137l-90 -470q-27 -142 -104 -210.5t-210 -68.5zM292 132
q37 0 67.5 21.5t48.5 58t18 81.5q0 50 -25.5 79t-68.5 29q-37 0 -67.5 -21.5t-48.5 -58t-18 -81.5q0 -50 25.5 -79t68.5 -29z" />
    <glyph glyph-name="h" unicode="h" horiz-adv-x="595" 
d="M12 0l144 740h154l-53 -272q55 65 147 65q70 0 109 -40.5t39 -122.5q0 -16 -1.5 -36t-5.5 -37l-58 -297h-154l57 295q2 10 3.5 23t1.5 22q0 59 -60 59q-43 0 -72.5 -29.5t-39.5 -80.5l-57 -289h-154z" />
    <glyph glyph-name="i" unicode="i" horiz-adv-x="279" 
d="M211 584q-39 0 -62 21.5t-23 58.5q0 42 29 70t73 28q38 0 62 -21.5t24 -56.5q0 -43 -29.5 -71.5t-73.5 -28.5zM12 0l100 520h154l-100 -520h-154z" />
    <glyph glyph-name="j" unicode="j" horiz-adv-x="279" 
d="M211 584q-39 0 -62 21.5t-23 58.5q0 42 29 70t73 28q38 0 62 -21.5t24 -56.5q0 -43 -29.5 -71.5t-73.5 -28.5zM-64 -229q-66 0 -120 26l44 120q35 -17 65 -17q35 0 55 22.5t30 71.5l102 526h154l-105 -541q-20 -106 -75.5 -157t-149.5 -51z" />
    <glyph glyph-name="k" unicode="k" horiz-adv-x="589" 
d="M12 0l144 740h154l-80 -412l210 192h184l-225 -195l130 -325h-165l-82 223l-87 -76l-29 -147h-154z" />
    <glyph glyph-name="l" unicode="l" horiz-adv-x="279" 
d="M12 0l144 740h154l-144 -740h-154z" />
    <glyph glyph-name="m" unicode="m" horiz-adv-x="899" 
d="M12 0l101 520h137l-11 -79q26 44 67.5 68t95.5 24q111 0 137 -94q27 45 70.5 69.5t97.5 24.5q71 0 110 -42.5t39 -116.5q0 -17 -2 -33.5t-6 -36.5l-60 -304h-154l57 295q2 11 4 23.5t2 19.5q0 60 -56 60q-41 0 -69 -30t-37 -75l-58 -293h-154l58 295q3 14 4 24.5t1 17.5
q0 61 -56 61q-40 0 -69 -29.5t-39 -80.5l-56 -288h-154z" />
    <glyph glyph-name="n" unicode="n" horiz-adv-x="595" 
d="M12 0l102 520h136l-10 -76q55 89 164 89q70 0 109 -40.5t39 -122.5q0 -16 -1.5 -36t-5.5 -37l-58 -297h-154l57 295q2 10 3.5 23t1.5 22q0 59 -60 59q-43 0 -72.5 -29.5t-39.5 -80.5l-57 -289h-154z" />
    <glyph glyph-name="o" unicode="o" horiz-adv-x="619" 
d="M280 -13q-73 0 -127 29t-83.5 82t-29.5 124q0 91 38.5 161t106.5 110t156 40q72 0 125.5 -29t83 -81.5t29.5 -123.5q0 -92 -38 -162.5t-105.5 -110t-155.5 -39.5zM292 119q37 0 66.5 22.5t46.5 61t17 87.5q0 53 -24.5 82t-68.5 29q-37 0 -67 -22.5t-47.5 -60.5t-17.5 -86
q0 -52 26 -82.5t69 -30.5z" />
    <glyph glyph-name="p" unicode="p" horiz-adv-x="633" 
d="M-29 -216l143 736h137l-10 -73q28 41 68.5 63.5t89.5 22.5q57 0 101 -30t68.5 -83t24.5 -123q0 -64 -20.5 -120.5t-56.5 -99t-83.5 -66.5t-101.5 -24q-53 0 -92 23.5t-57 65.5l-57 -292h-154zM303 119q38 0 68 22t48 60t18 85q0 53 -25 84t-69 31q-37 0 -67.5 -22.5
t-48.5 -60.5t-18 -85q0 -53 25.5 -83.5t68.5 -30.5z" />
    <glyph glyph-name="q" unicode="q" horiz-adv-x="632" 
d="M322 -216l52 268q-55 -65 -138 -65q-57 0 -101.5 30t-69.5 83.5t-25 122.5q0 64 20.5 120t56 99t83 67t101.5 24q58 0 99.5 -28t58.5 -75l23 90h137l-143 -736h-154zM291 119q38 0 68 22.5t48 60.5t18 85q0 53 -25 83.5t-69 30.5q-37 0 -67.5 -22t-48.5 -60t-18 -85
q0 -53 25.5 -84t68.5 -31z" />
    <glyph glyph-name="r" unicode="r" horiz-adv-x="414" 
d="M13 0l101 520h136l-13 -101q55 111 159 111q36 0 60 -12l-34 -141q-27 10 -62 10q-53 0 -94 -42.5t-55 -113.5l-45 -231h-153z" />
    <glyph glyph-name="s" unicode="s" horiz-adv-x="480" 
d="M183 -13q-113 0 -197 54l45 116q78 -50 153 -50q42 0 65 13t23 36q0 19 -16 29.5t-71 25.5q-72 20 -105 55t-33 90q0 53 29.5 93t82.5 62t123 22q51 0 100 -12.5t86 -35.5l-46 -114q-30 20 -67 31t-72 11q-84 0 -84 -45q0 -17 17.5 -28.5t70.5 -25.5q71 -19 104 -53.5
t33 -89.5t-30 -96.5t-84.5 -64.5t-126.5 -23z" />
    <glyph glyph-name="t" unicode="t" horiz-adv-x="441" 
d="M251 -10q-76 0 -115.5 37.5t-39.5 108.5q0 38 8 78l35 182h-103l39 124h89l32 167h154l-32 -167h137l-24 -124h-138l-35 -182q-5 -30 -5 -49q0 -44 47 -44q33 0 78 19l-7 -125q-53 -25 -120 -25z" />
    <glyph glyph-name="u" unicode="u" horiz-adv-x="590" 
d="M193 -13q-70 0 -110.5 42.5t-40.5 115.5q0 17 2 34.5t6 36.5l60 304h154l-58 -294q-4 -17 -4.5 -27.5t-0.5 -17.5q0 -58 57 -58q42 0 71 28.5t39 79.5l56 289h154l-101 -520h-137l10 76q-54 -89 -157 -89z" />
    <glyph glyph-name="v" unicode="v" horiz-adv-x="571" 
d="M156 0l-98 520h160l44 -377l186 377h165l-300 -520h-157z" />
    <glyph glyph-name="w" unicode="w" horiz-adv-x="830" 
d="M118 0l-56 520h161l6 -370l160 370h151l18 -372l152 372h158l-256 -520h-156l-19 364l-159 -364h-160z" />
    <glyph glyph-name="x" unicode="x" horiz-adv-x="583" 
d="M-31 0l241 267l-132 253h166l69 -154l126 154h174l-242 -265l138 -255h-169l-69 151l-126 -151h-176z" />
    <glyph glyph-name="y" unicode="y" horiz-adv-x="578" 
d="M52 -229q-32 0 -60.5 6t-48.5 18l38 122q32 -17 71 -17q72 0 112 75l13 24l-117 521h163l57 -369l177 369h164l-313 -557q-40 -72 -77.5 -114t-79.5 -60t-99 -18z" />
    <glyph glyph-name="z" unicode="z" horiz-adv-x="518" 
d="M-11 0l23 113l298 285h-241l38 122h413l-23 -112l-294 -286h254l-39 -122h-429z" />
    <glyph glyph-name="braceleft" unicode="{" horiz-adv-x="363" 
d="M170 -156q-64 0 -100.5 32.5t-36.5 90.5q0 35 12.5 73t24.5 74t12 63q0 54 -65 54l24 122q79 0 93 81q7 34 6.5 68.5t7.5 77.5q14 74 67 117t129 43h74l-3 -124h-43q-34 0 -53 -17.5t-27 -57.5q-6 -28 -7 -51.5t-1.5 -45.5t-6.5 -49q-7 -39 -37 -65.5t-75 -36.5
q74 -18 74 -85q0 -27 -12 -63t-24 -70t-12 -59q0 -48 57 -48h43l-37 -124h-84z" />
    <glyph glyph-name="bar" unicode="|" horiz-adv-x="312" 
d="M-14 -216l186 956h154l-186 -956h-154z" />
    <glyph glyph-name="braceright" unicode="}" horiz-adv-x="363" 
d="M205 740q64 0 100.5 -32.5t36.5 -90.5q0 -34 -12 -72.5t-24.5 -74t-12.5 -63.5q0 -54 65 -54l-25 -122q-40 0 -62 -19.5t-30 -61.5q-7 -34 -6.5 -68t-7.5 -78q-14 -73 -66.5 -116.5t-129.5 -43.5h-74l2 124h43q35 0 54 17.5t27 57.5q9 43 8 74.5t6 71.5q8 39 37.5 65.5
t75.5 36.5q-74 18 -74 85q0 28 12 63.5t24 70t12 58.5q0 48 -57 48h-43l37 124h84z" />
    <glyph glyph-name="asciitilde" unicode="~" horiz-adv-x="612" 
d="M188 227l-122 10q5 220 150 220q63 0 124 -53q25 -21 38.5 -31.5t22.5 -14t18 -3.5q18 0 26 22t11 80l122 -11q-6 -219 -150 -219q-31 0 -62 12.5t-63 40.5q-23 22 -36 32t-20.5 13t-17.5 3q-21 0 -30 -21.5t-11 -79.5z" />
    <glyph glyph-name="uni00A0" unicode="&#xa0;" horiz-adv-x="197" 
 />
    <glyph glyph-name="exclamdown" unicode="&#xa1;" horiz-adv-x="288" 
d="M189 529q38 0 61 -22t23 -59q0 -43 -30.5 -72t-74.5 -29q-38 0 -61 22.5t-23 59.5q0 43 30 71.5t75 28.5zM221 286l-78 -467h-160l104 467h134z" />
    <glyph glyph-name="cent" unicode="&#xa2;" horiz-adv-x="612" 
d="M177 -35l53 134q-65 27 -101 83.5t-36 135.5q0 88 41 156.5t113.5 108t164.5 39.5q11 0 21 -1l45 114h92l-49 -127q40 -11 68 -29l-49 -122q-29 19 -66 28l-107 -276h8q69 0 139 38v-130q-76 -39 -169 -39q-15 0 -30 1l-44 -114h-94zM249 325q0 -59 37 -89l97 253
q-61 -10 -97.5 -53.5t-36.5 -110.5z" />
    <glyph glyph-name="sterling" unicode="&#xa3;" horiz-adv-x="612" 
d="M18 0l22 116q60 28 86 68t26 106v16h-90l17 90h68q-1 12 -1.5 23t-0.5 20q0 122 76.5 190.5t212.5 68.5q56 0 106.5 -13t87.5 -38l-48 -127q-37 23 -70 33t-70 10q-139 0 -139 -145v-22h174l-17 -90h-152v-15q0 -111 -83 -157h322l-41 -134h-486z" />
    <glyph glyph-name="currency" unicode="&#xa4;" horiz-adv-x="612" 
d="M111 21l-77 66l92 102q-25 30 -39 69t-14 84t14 84t39 69l-92 102l77 66l95 -106q53 25 116 25q64 0 117 -25l96 106l76 -66l-92 -102q25 -31 38.5 -69.5t13.5 -83.5t-13.5 -83.5t-38.5 -69.5l92 -102l-76 -66l-96 106q-53 -25 -117 -25q-63 0 -116 25zM322 225
q50 0 80.5 32.5t30.5 84.5q0 53 -30.5 85t-80.5 32q-49 0 -79.5 -32t-30.5 -85q0 -52 30.5 -84.5t79.5 -32.5z" />
    <glyph glyph-name="yen" unicode="&#xa5;" horiz-adv-x="612" 
d="M45 106l17 89h152l14 69h-153l18 90h102l-122 330h165l91 -292l203 292h172l-253 -330h103l-17 -90h-153l-14 -69h154l-18 -89h-153l-20 -106h-156l20 106h-152z" />
    <glyph glyph-name="brokenbar" unicode="&#xa6;" horiz-adv-x="312" 
d="M99 363l73 377h154l-73 -377h-154zM-14 -216l77 396h154l-77 -396h-154z" />
    <glyph glyph-name="section" unicode="&#xa7;" horiz-adv-x="545" 
d="M189 -170q-53 0 -107 14t-96 39l48 117q70 -50 156 -50q46 0 71 15t25 43q0 18 -12 31t-44 26l-76 32q-56 23 -84 58.5t-28 87.5q0 58 34 100t98 70q-48 48 -48 119q0 56 29.5 97.5t83 64t123.5 22.5q54 0 100.5 -13t84.5 -36l-47 -115q-31 23 -65 33.5t-69 10.5
q-43 0 -66 -15.5t-23 -42.5q0 -17 12 -29.5t43 -26.5l72 -31q113 -48 113 -143q0 -107 -127 -171q48 -43 48 -110q0 -56 -32 -101t-88 -70.5t-129 -25.5zM247 207l61 -24q63 37 63 90q0 45 -60 69l-61 24q-63 -35 -63 -89q0 -22 14 -39.5t46 -30.5z" />
    <glyph glyph-name="dieresis" unicode="&#xa8;" horiz-adv-x="500" 
d="M212 606q-30 0 -47.5 17.5t-17.5 47.5q0 35 23 57.5t57 22.5q29 0 47.5 -17.5t18.5 -46.5q0 -34 -23 -57.5t-58 -23.5zM435 606q-29 0 -46.5 17.5t-17.5 47.5q0 35 23 57.5t57 22.5q29 0 47.5 -17.5t18.5 -46.5q0 -35 -23.5 -58t-58.5 -23z" />
    <glyph glyph-name="copyright" unicode="&#xa9;" horiz-adv-x="874" 
d="M454 -16q-84 0 -155 27t-122.5 76t-80 116t-28.5 147t28.5 147t80 116t122.5 76t155 27t155 -27t123 -76t80.5 -116t28.5 -147t-28.5 -147t-80.5 -116t-123 -76t-155 -27zM454 68q87 0 153 36t103 99.5t37 146.5t-37.5 146.5t-103.5 99.5t-152 36t-152 -36t-103 -99.5
t-37 -146.5t37 -147t103 -99.5t152 -35.5zM478 140q-103 0 -163 56t-60 151q0 64 28.5 112.5t80 75.5t118.5 27q68 0 124 -29l-21 -103q-48 27 -96 27q-50 0 -80.5 -29.5t-30.5 -77.5q0 -50 29.5 -78.5t81.5 -28.5q47 0 101 27l21 -98q-29 -15 -63.5 -23.5t-69.5 -8.5z" />
    <glyph glyph-name="ordfeminine" unicode="&#xaa;" horiz-adv-x="432" 
d="M178 308q-49 0 -79.5 30.5t-30.5 79.5q0 136 232 140l29 1q1 8 1 15q0 49 -64 49q-30 0 -57.5 -8.5t-65.5 -28.5l-1 89q71 37 153 37q68 0 104.5 -30.5t36.5 -88.5q0 -15 -2.5 -35.5t-7.5 -43.5l-38 -196h-94l7 49q-45 -59 -123 -59zM178 432q0 -40 45 -40q34 0 59 23
t32 62l3 15h-23q-116 -3 -116 -60z" />
    <glyph glyph-name="guillemotleft" unicode="&#xab;" horiz-adv-x="636" 
d="M133 52l-95 210l175 210h160l-172 -217l83 -203h-151zM395 52l-95 210l175 210h160l-172 -217l83 -203h-151z" />
    <glyph glyph-name="logicalnot" unicode="&#xac;" horiz-adv-x="612" 
d="M418 172v185h-352v123h483v-308h-131z" />
    <glyph glyph-name="registered" unicode="&#xae;" horiz-adv-x="522" 
d="M309 299q-63 0 -112.5 27t-77.5 74t-28 108t28 107.5t77.5 73.5t112.5 27q64 0 113 -27t77 -73.5t28 -107.5t-28 -108t-77 -74t-113 -27zM309 346q74 0 119.5 45t45.5 117q0 71 -46 116t-119 45t-119 -45t-46 -116q0 -72 46 -117t119 -45zM218 402v211h93
q44 0 69.5 -20.5t25.5 -54.5q0 -40 -34 -60l47 -76h-70l-35 61h-3h-31v-61h-62zM280 515h25q33 0 33 23q0 22 -33 22h-25v-45z" />
    <glyph glyph-name="macron" unicode="&#xaf;" horiz-adv-x="500" 
d="M140 626l20 103h362l-20 -103h-362z" />
    <glyph glyph-name="degree" unicode="&#xb0;" horiz-adv-x="452" 
d="M276 334q-55 0 -97 23t-66 64t-24 95t24 95t66 64t97 23t97 -23t66 -64t24 -95q0 -53 -24 -94.5t-66 -64.5t-97 -23zM276 424q36 0 57.5 25.5t21.5 66.5q0 42 -21.5 67t-57.5 25q-37 0 -58.5 -24.5t-21.5 -67.5q0 -42 22 -67t58 -25z" />
    <glyph glyph-name="plusminus" unicode="&#xb1;" horiz-adv-x="612" 
d="M85 0v123h484v-123h-484zM261 170v185h-176v123h176v184h132v-184h176v-123h-176v-185h-132z" />
    <glyph glyph-name="uni00B2" unicode="&#xb2;" horiz-adv-x="397" 
d="M75 388l15 75q47 29 85 54.5t66 47.5q33 25 47.5 45t14.5 42q0 42 -48 42q-46 0 -102 -36l-12 82q64 42 141 42q60 0 95.5 -29.5t35.5 -79.5q0 -37 -19.5 -68.5t-58.5 -65.5q-33 -28 -93 -65h144l-26 -86h-285z" />
    <glyph glyph-name="uni00B3" unicode="&#xb3;" horiz-adv-x="397" 
d="M217 380q-40 0 -77 9t-65 25l33 78q21 -13 49.5 -20.5t54.5 -7.5q32 0 50 12t18 34q0 34 -57 34h-56l16 82h52q32 0 51 11t19 30q0 31 -50 31q-46 0 -105 -28l-4 78q31 16 66.5 25t69.5 9q60 0 94 -25t34 -69q0 -35 -20.5 -62t-57.5 -41q52 -22 52 -77q0 -58 -45.5 -93
t-121.5 -35z" />
    <glyph glyph-name="acute" unicode="&#xb4;" horiz-adv-x="500" 
d="M173 599l151 156h167l-182 -156h-136z" />
    <glyph glyph-name="paragraph" unicode="&#xb6;" horiz-adv-x="666" 
d="M164 -147l86 442q-84 9 -127.5 54t-43.5 122q0 70 37 121t104 79.5t157 28.5h304l-164 -847h-137l142 731h-80l-143 -731h-135z" />
    <glyph glyph-name="periodcentered" unicode="&#xb7;" horiz-adv-x="280" 
d="M131 170q-38 0 -61.5 22t-23.5 59q0 43 30.5 72t74.5 29q38 0 61 -22t23 -60q0 -43 -29.5 -71.5t-74.5 -28.5z" />
    <glyph glyph-name="cedilla" unicode="&#xb8;" horiz-adv-x="500" 
d="M143 -229q-27 0 -54 5t-49 13l31 67q36 -15 71 -15q28 0 45 9.5t17 24.5q0 24 -54 24q-27 0 -49 -5l54 121h74l-29 -61h3q44 0 69.5 -19.5t25.5 -54.5q0 -50 -42 -79.5t-113 -29.5z" />
    <glyph glyph-name="uni00B9" unicode="&#xb9;" horiz-adv-x="397" 
d="M198 388l54 274l-78 -45l-29 78l140 79h91l-75 -386h-103z" />
    <glyph glyph-name="ordmasculine" unicode="&#xba;" horiz-adv-x="476" 
d="M269 308q-83 0 -132 49.5t-49 133.5q0 64 28 113.5t77 78.5t111 29q85 0 134 -49t49 -133q0 -63 -28.5 -113.5t-78 -79.5t-111.5 -29zM275 403q43 0 70.5 34.5t27.5 86.5q0 45 -19.5 69t-55.5 24q-41 0 -68.5 -34.5t-27.5 -87.5q0 -43 19 -67.5t54 -24.5z" />
    <glyph glyph-name="guillemotright" unicode="&#xbb;" horiz-adv-x="636" 
d="M242 472l95 -210l-175 -210h-160l172 217l-83 203h151zM504 472l95 -210l-175 -210h-160l172 217l-83 203h151z" />
    <glyph glyph-name="onequarter" unicode="&#xbc;" horiz-adv-x="931" 
d="M190 0l459 684h118l-459 -684h-118zM701 0l13 68h-186l15 81l227 237h102l-46 -236h52l-25 -82h-43l-13 -68h-96zM643 150h87l22 114zM170 298l54 274l-78 -45l-29 78l140 79h91l-75 -386h-103z" />
    <glyph glyph-name="onehalf" unicode="&#xbd;" horiz-adv-x="931" 
d="M160 0l459 684h118l-459 -684h-118zM533 0l15 75q47 29 85 54.5t66 47.5q33 25 47.5 45t14.5 42q0 42 -48 42q-46 0 -102 -36l-12 82q64 42 141 42q60 0 95.5 -29.5t35.5 -79.5q0 -37 -19.5 -68.5t-58.5 -65.5q-33 -28 -93 -65h144l-26 -86h-285zM170 298l54 274l-78 -45
l-29 78l140 79h91l-75 -386h-103z" />
    <glyph glyph-name="threequarters" unicode="&#xbe;" horiz-adv-x="931" 
d="M199 0l459 684h118l-459 -684h-118zM701 0l13 68h-186l15 81l227 237h102l-46 -236h52l-25 -82h-43l-13 -68h-96zM643 150h87l22 114zM195 290q-40 0 -77 9t-65 25l33 78q21 -13 49.5 -20.5t54.5 -7.5q32 0 50 12t18 34q0 34 -57 34h-56l16 82h52q32 0 51 11t19 30
q0 31 -50 31q-46 0 -105 -28l-4 78q31 16 66.5 25t69.5 9q60 0 94 -25t34 -69q0 -35 -20.5 -62t-57.5 -41q52 -22 52 -77q0 -58 -45.5 -93t-121.5 -35z" />
    <glyph glyph-name="questiondown" unicode="&#xbf;" horiz-adv-x="513" 
d="M329 530q38 0 61 -22t23 -60q0 -42 -30.5 -71t-74.5 -29q-38 0 -61 22.5t-23 59.5q0 43 30 71.5t75 28.5zM365 287l-1 -15q-3 -40 -15.5 -69t-38 -54t-70.5 -54q-37 -24 -57.5 -41t-28 -31.5t-7.5 -32.5q0 -56 89 -56q81 0 156 44l10 -122q-37 -25 -90.5 -39t-112.5 -14
q-99 0 -154.5 45.5t-55.5 125.5q0 41 13 73t44 61t83 61q41 25 63 41.5t31 30t11 30.5l2 16h129z" />
    <glyph glyph-name="Agrave" unicode="&#xc0;" horiz-adv-x="724" 
d="M-39 0l401 700h169l130 -700h-174l-20 149h-252l-78 -149h-176zM285 281h164l-34 248zM412 772l-142 130h179l116 -130h-153z" />
    <glyph glyph-name="Aacute" unicode="&#xc1;" horiz-adv-x="724" 
d="M-39 0l401 700h169l130 -700h-174l-20 149h-252l-78 -149h-176zM285 281h164l-34 248zM357 772l167 130h183l-193 -130h-157z" />
    <glyph glyph-name="Acircumflex" unicode="&#xc2;" horiz-adv-x="724" 
d="M-39 0l401 700h169l130 -700h-174l-20 149h-252l-78 -149h-176zM285 281h164l-34 248zM247 772l168 130h142l118 -130h-152l-53 52l-73 -52h-150z" />
    <glyph glyph-name="Atilde" unicode="&#xc3;" horiz-adv-x="724" 
d="M-39 0l401 700h169l130 -700h-174l-20 149h-252l-78 -149h-176zM285 281h164l-34 248zM352 770l-98 11q14 68 54 103.5t100 35.5q26 0 44.5 -5.5t43.5 -21.5q20 -13 31 -17.5t23 -4.5q36 0 46 49l98 -11q-14 -67 -54 -103t-100 -36q-25 0 -42.5 5.5t-45.5 21.5
q-21 12 -32 16.5t-22 4.5q-36 0 -46 -48z" />
    <glyph glyph-name="Adieresis" unicode="&#xc4;" horiz-adv-x="724" 
d="M-39 0l401 700h169l130 -700h-174l-20 149h-252l-78 -149h-176zM285 281h164l-34 248zM338 769q-30 0 -48 18t-18 49q0 35 23.5 58.5t58.5 23.5q30 0 49 -18.5t19 -47.5q0 -36 -24 -59.5t-60 -23.5zM576 769q-30 0 -48 18t-18 49q0 35 24 58.5t59 23.5q29 0 48 -18.5
t19 -47.5q0 -36 -24 -59.5t-60 -23.5z" />
    <glyph glyph-name="Aring" unicode="&#xc5;" horiz-adv-x="724" 
d="M-39 0l401 700h169l130 -700h-174l-20 149h-252l-78 -149h-176zM285 281h164l-34 248zM456 759q-48 0 -77.5 27.5t-29.5 73.5q0 53 36.5 86.5t92.5 33.5q47 0 77.5 -27.5t30.5 -70.5q0 -53 -37 -88t-93 -35zM463 818q25 0 40.5 16t15.5 40q0 47 -47 47q-24 0 -40 -15.5
t-16 -40.5q0 -22 12.5 -34.5t34.5 -12.5z" />
    <glyph glyph-name="AE" unicode="&#xc6;" horiz-adv-x="1040" 
d="M-39 0l542 700h558l-3 -133h-310l-28 -145h276l-26 -133h-276l-30 -156h328l-41 -133h-469l29 148h-261l-110 -148h-179zM348 279h188l56 288h-29z" />
    <glyph glyph-name="Ccedilla" unicode="&#xc7;" horiz-adv-x="680" 
d="M378 -16q-97 0 -168.5 39t-111 110t-39.5 166q0 91 31.5 167t88.5 132t135 87t171 31q57 0 116.5 -16t100.5 -42l-49 -131q-74 49 -173 49q-74 0 -131 -34t-89.5 -93.5t-32.5 -137.5q0 -87 46.5 -137t128.5 -50q105 0 195 51l2 -137q-40 -25 -98.5 -39.5t-122.5 -14.5z
M338 -229q-26 0 -54 5t-50 12l30 70q33 -12 70 -12q30 0 48 8t18 21q0 22 -53 22q-28 0 -50 -5l54 123h74l-28 -59h4q45 0 71 -20.5t26 -57.5q0 -49 -43.5 -78t-116.5 -29z" />
    <glyph glyph-name="Egrave" unicode="&#xc8;" horiz-adv-x="595" 
d="M22 0l136 700h458l-4 -133h-322l-28 -145h288l-25 -133h-289l-31 -156h341l-41 -133h-483zM363 772l-142 130h179l116 -130h-153z" />
    <glyph glyph-name="Eacute" unicode="&#xc9;" horiz-adv-x="595" 
d="M22 0l136 700h458l-4 -133h-322l-28 -145h288l-25 -133h-289l-31 -156h341l-41 -133h-483zM308 772l167 130h183l-193 -130h-157z" />
    <glyph glyph-name="Ecircumflex" unicode="&#xca;" horiz-adv-x="595" 
d="M22 0l136 700h458l-4 -133h-322l-28 -145h288l-25 -133h-289l-31 -156h341l-41 -133h-483zM198 772l168 130h142l118 -130h-152l-53 52l-73 -52h-150z" />
    <glyph glyph-name="Edieresis" unicode="&#xcb;" horiz-adv-x="595" 
d="M22 0l136 700h458l-4 -133h-322l-28 -145h288l-25 -133h-289l-31 -156h341l-41 -133h-483zM289 769q-30 0 -48 18t-18 49q0 35 23.5 58.5t58.5 23.5q30 0 49 -18.5t19 -47.5q0 -36 -24 -59.5t-60 -23.5zM527 769q-30 0 -48 18t-18 49q0 35 24 58.5t59 23.5q29 0 48 -18.5
t19 -47.5q0 -36 -24 -59.5t-60 -23.5z" />
    <glyph glyph-name="Igrave" unicode="&#xcc;" horiz-adv-x="307" 
d="M22 0l136 700h162l-136 -700h-162zM204 772l-142 130h179l116 -130h-153z" />
    <glyph glyph-name="Iacute" unicode="&#xcd;" horiz-adv-x="307" 
d="M22 0l136 700h162l-136 -700h-162zM149 772l167 130h183l-193 -130h-157z" />
    <glyph glyph-name="Icircumflex" unicode="&#xce;" horiz-adv-x="307" 
d="M22 0l136 700h162l-136 -700h-162zM39 772l168 130h142l118 -130h-152l-53 52l-73 -52h-150z" />
    <glyph glyph-name="Idieresis" unicode="&#xcf;" horiz-adv-x="307" 
d="M22 0l136 700h162l-136 -700h-162zM130 769q-30 0 -48 18t-18 49q0 35 23.5 58.5t58.5 23.5q30 0 49 -18.5t19 -47.5q0 -36 -24 -59.5t-60 -23.5zM368 769q-30 0 -48 18t-18 49q0 35 24 58.5t59 23.5q29 0 48 -18.5t19 -47.5q0 -36 -24 -59.5t-60 -23.5z" />
    <glyph glyph-name="Eth" unicode="&#xd0;" horiz-adv-x="766" 
d="M39 0l60 308h-73l23 117h73l53 275h264q93 0 161 -36t105.5 -100.5t37.5 -152.5q0 -124 -54.5 -216.5t-152 -143.5t-227.5 -51h-270zM400 308h-143l-33 -170h97q77 0 134 32t88.5 90.5t31.5 137.5q0 164 -170 164h-98l-27 -137h143z" />
    <glyph glyph-name="Ntilde" unicode="&#xd1;" horiz-adv-x="729" 
d="M22 0l136 700h160l179 -472l92 472h153l-136 -700h-155l-184 472l-92 -472h-153zM358 770l-98 11q14 68 54 103.5t100 35.5q26 0 44.5 -5.5t43.5 -21.5q20 -13 31 -17.5t23 -4.5q36 0 46 49l98 -11q-14 -67 -54 -103t-100 -36q-25 0 -42.5 5.5t-45.5 21.5
q-21 12 -32 16.5t-22 4.5q-36 0 -46 -48z" />
    <glyph glyph-name="Ograve" unicode="&#xd2;" horiz-adv-x="811" 
d="M381 -16q-98 0 -170.5 38.5t-112 109t-39.5 164.5q0 91 30 168t85 133.5t129 87.5t162 31q98 0 170 -38.5t112 -108.5t40 -165q0 -91 -30 -167.5t-85 -133t-129 -88t-162 -31.5zM393 124q64 0 115 35.5t81 97t30 137.5q0 85 -44 133.5t-121 48.5q-64 0 -115.5 -35.5
t-81.5 -96.5t-30 -138q0 -85 44 -133.5t122 -48.5zM451 772l-142 130h179l116 -130h-153z" />
    <glyph glyph-name="Oacute" unicode="&#xd3;" horiz-adv-x="811" 
d="M381 -16q-98 0 -170.5 38.5t-112 109t-39.5 164.5q0 91 30 168t85 133.5t129 87.5t162 31q98 0 170 -38.5t112 -108.5t40 -165q0 -91 -30 -167.5t-85 -133t-129 -88t-162 -31.5zM393 124q64 0 115 35.5t81 97t30 137.5q0 85 -44 133.5t-121 48.5q-64 0 -115.5 -35.5
t-81.5 -96.5t-30 -138q0 -85 44 -133.5t122 -48.5zM396 772l167 130h183l-193 -130h-157z" />
    <glyph glyph-name="Ocircumflex" unicode="&#xd4;" horiz-adv-x="811" 
d="M381 -16q-98 0 -170.5 38.5t-112 109t-39.5 164.5q0 91 30 168t85 133.5t129 87.5t162 31q98 0 170 -38.5t112 -108.5t40 -165q0 -91 -30 -167.5t-85 -133t-129 -88t-162 -31.5zM393 124q64 0 115 35.5t81 97t30 137.5q0 85 -44 133.5t-121 48.5q-64 0 -115.5 -35.5
t-81.5 -96.5t-30 -138q0 -85 44 -133.5t122 -48.5zM286 772l168 130h142l118 -130h-152l-53 52l-73 -52h-150z" />
    <glyph glyph-name="Otilde" unicode="&#xd5;" horiz-adv-x="811" 
d="M381 -16q-98 0 -170.5 38.5t-112 109t-39.5 164.5q0 91 30 168t85 133.5t129 87.5t162 31q98 0 170 -38.5t112 -108.5t40 -165q0 -91 -30 -167.5t-85 -133t-129 -88t-162 -31.5zM393 124q64 0 115 35.5t81 97t30 137.5q0 85 -44 133.5t-121 48.5q-64 0 -115.5 -35.5
t-81.5 -96.5t-30 -138q0 -85 44 -133.5t122 -48.5zM391 770l-98 11q14 68 54 103.5t100 35.5q26 0 44.5 -5.5t43.5 -21.5q20 -13 31 -17.5t23 -4.5q36 0 46 49l98 -11q-14 -67 -54 -103t-100 -36q-25 0 -42.5 5.5t-45.5 21.5q-21 12 -32 16.5t-22 4.5q-36 0 -46 -48z" />
    <glyph glyph-name="Odieresis" unicode="&#xd6;" horiz-adv-x="811" 
d="M381 -16q-98 0 -170.5 38.5t-112 109t-39.5 164.5q0 91 30 168t85 133.5t129 87.5t162 31q98 0 170 -38.5t112 -108.5t40 -165q0 -91 -30 -167.5t-85 -133t-129 -88t-162 -31.5zM393 124q64 0 115 35.5t81 97t30 137.5q0 85 -44 133.5t-121 48.5q-64 0 -115.5 -35.5
t-81.5 -96.5t-30 -138q0 -85 44 -133.5t122 -48.5zM377 769q-30 0 -48 18t-18 49q0 35 23.5 58.5t58.5 23.5q30 0 49 -18.5t19 -47.5q0 -36 -24 -59.5t-60 -23.5zM615 769q-30 0 -48 18t-18 49q0 35 24 58.5t59 23.5q29 0 48 -18.5t19 -47.5q0 -36 -24 -59.5t-60 -23.5z" />
    <glyph glyph-name="multiply" unicode="&#xd7;" horiz-adv-x="612" 
d="M174 108l-87 86l148 148l-147 147l86 87l149 -147l147 147l86 -87l-147 -147l148 -148l-87 -86l-149 147z" />
    <glyph glyph-name="Oslash" unicode="&#xd8;" horiz-adv-x="811" 
d="M117 -53l-73 71l77 82q-29 39 -44.5 88.5t-15.5 107.5q0 91 30 167.5t85 133t129 88t162 31.5q108 0 186 -48l80 85l74 -71l-78 -83q28 -39 43.5 -88t15.5 -107q0 -91 -30 -167.5t-85 -133t-129 -88t-162 -31.5q-107 0 -185 48zM227 306q0 -47 13 -84l311 330
q-40 26 -96 26q-65 0 -116.5 -35.5t-81.5 -97t-30 -139.5zM395 122q65 0 116 36t81 97.5t30 138.5q0 46 -13 82l-309 -329q39 -25 95 -25z" />
    <glyph glyph-name="Ugrave" unicode="&#xd9;" horiz-adv-x="719" 
d="M326 -16q-127 0 -194 58t-67 168q0 15 2 34.5t5 36.5l81 419h162l-79 -408q-7 -34 -7 -63q0 -106 109 -106q67 0 103 39t54 130l80 408h162l-82 -422q-29 -151 -109 -222.5t-220 -71.5zM410 772l-142 130h179l116 -130h-153z" />
    <glyph glyph-name="Uacute" unicode="&#xda;" horiz-adv-x="719" 
d="M326 -16q-127 0 -194 58t-67 168q0 15 2 34.5t5 36.5l81 419h162l-79 -408q-7 -34 -7 -63q0 -106 109 -106q67 0 103 39t54 130l80 408h162l-82 -422q-29 -151 -109 -222.5t-220 -71.5zM355 772l167 130h183l-193 -130h-157z" />
    <glyph glyph-name="Ucircumflex" unicode="&#xdb;" horiz-adv-x="719" 
d="M326 -16q-127 0 -194 58t-67 168q0 15 2 34.5t5 36.5l81 419h162l-79 -408q-7 -34 -7 -63q0 -106 109 -106q67 0 103 39t54 130l80 408h162l-82 -422q-29 -151 -109 -222.5t-220 -71.5zM245 772l168 130h142l118 -130h-152l-53 52l-73 -52h-150z" />
    <glyph glyph-name="Udieresis" unicode="&#xdc;" horiz-adv-x="719" 
d="M326 -16q-127 0 -194 58t-67 168q0 15 2 34.5t5 36.5l81 419h162l-79 -408q-7 -34 -7 -63q0 -106 109 -106q67 0 103 39t54 130l80 408h162l-82 -422q-29 -151 -109 -222.5t-220 -71.5zM336 769q-30 0 -48 18t-18 49q0 35 23.5 58.5t58.5 23.5q30 0 49 -18.5t19 -47.5
q0 -36 -24 -59.5t-60 -23.5zM574 769q-30 0 -48 18t-18 49q0 35 24 58.5t59 23.5q29 0 48 -18.5t19 -47.5q0 -36 -24 -59.5t-60 -23.5z" />
    <glyph glyph-name="Yacute" unicode="&#xdd;" horiz-adv-x="689" 
d="M214 0l54 276l-169 424h173l97 -296l206 296h187l-332 -424l-54 -276h-162zM334 772l167 130h183l-193 -130h-157z" />
    <glyph glyph-name="Thorn" unicode="&#xde;" horiz-adv-x="617" 
d="M21 0l137 700h155l-22 -113h78q107 0 169 -53t62 -145q0 -80 -38.5 -140t-108.5 -92.5t-164 -32.5h-88l-24 -124h-156zM339 461h-72l-41 -211h75q62 0 99.5 34.5t37.5 91.5q0 41 -26 63t-73 22z" />
    <glyph glyph-name="germandbls" unicode="&#xdf;" horiz-adv-x="634" 
d="M326 -13q-73 0 -123 21l40 119q31 -13 73 -13q49 0 80 30.5t31 78.5q0 40 -27 61.5t-76 21.5h-37l25 124h20q34 0 60.5 16.5t42.5 44t16 61.5q0 35 -20 54.5t-57 19.5q-43 0 -72 -29.5t-40 -84.5l-100 -512h-154l98 504q24 122 97 185.5t188 63.5q100 0 159 -47t59 -127
q0 -67 -38.5 -121.5t-102.5 -80.5q116 -34 116 -147q0 -72 -33 -126.5t-91 -85.5t-134 -31z" />
    <glyph glyph-name="agrave" unicode="&#xe0;" horiz-adv-x="564" 
d="M166 -13q-69 0 -109.5 39.5t-40.5 106.5q0 93 77 141.5t228 49.5l49 1q3 18 3 25q0 61 -91 61q-86 0 -169 -47l-2 120q98 49 201 49q96 0 151 -46.5t55 -126.5q0 -16 -1.5 -37t-5.5 -41l-56 -282h-131l10 70q-28 -39 -72 -61t-96 -22zM166 156q0 -53 61 -53q47 0 80.5 31
t43.5 83l3 18l-33 -1q-79 -1 -117 -20.5t-38 -57.5zM291 599l-120 156h160l88 -156h-128z" />
    <glyph glyph-name="aacute" unicode="&#xe1;" horiz-adv-x="564" 
d="M166 -13q-69 0 -109.5 39.5t-40.5 106.5q0 93 77 141.5t228 49.5l49 1q3 18 3 25q0 61 -91 61q-86 0 -169 -47l-2 120q98 49 201 49q96 0 151 -46.5t55 -126.5q0 -16 -1.5 -37t-5.5 -41l-56 -282h-131l10 70q-28 -39 -72 -61t-96 -22zM166 156q0 -53 61 -53q47 0 80.5 31
t43.5 83l3 18l-33 -1q-79 -1 -117 -20.5t-38 -57.5zM245 599l151 156h167l-182 -156h-136z" />
    <glyph glyph-name="acircumflex" unicode="&#xe2;" horiz-adv-x="564" 
d="M166 -13q-69 0 -109.5 39.5t-40.5 106.5q0 93 77 141.5t228 49.5l49 1q3 18 3 25q0 61 -91 61q-86 0 -169 -47l-2 120q98 49 201 49q96 0 151 -46.5t55 -126.5q0 -16 -1.5 -37t-5.5 -41l-56 -282h-131l10 70q-28 -39 -72 -61t-96 -22zM166 156q0 -53 61 -53q47 0 80.5 31
t43.5 83l3 18l-33 -1q-79 -1 -117 -20.5t-38 -57.5zM146 599l159 156h131l97 -156h-125l-53 72l-81 -72h-128z" />
    <glyph glyph-name="atilde" unicode="&#xe3;" horiz-adv-x="564" 
d="M166 -13q-69 0 -109.5 39.5t-40.5 106.5q0 93 77 141.5t228 49.5l49 1q3 18 3 25q0 61 -91 61q-86 0 -169 -47l-2 120q98 49 201 49q96 0 151 -46.5t55 -126.5q0 -16 -1.5 -37t-5.5 -41l-56 -282h-131l10 70q-28 -39 -72 -61t-96 -22zM166 156q0 -53 61 -53q47 0 80.5 31
t43.5 83l3 18l-33 -1q-79 -1 -117 -20.5t-38 -57.5zM231 598l-92 11q14 72 52 110t95 38q24 0 43 -8t42 -27q18 -14 27.5 -19.5t20.5 -5.5q35 0 48 60l92 -12q-31 -147 -145 -147q-25 0 -44 8t-42 27q-18 15 -28.5 20.5t-21.5 5.5q-35 0 -47 -61z" />
    <glyph glyph-name="adieresis" unicode="&#xe4;" horiz-adv-x="564" 
d="M166 -13q-69 0 -109.5 39.5t-40.5 106.5q0 93 77 141.5t228 49.5l49 1q3 18 3 25q0 61 -91 61q-86 0 -169 -47l-2 120q98 49 201 49q96 0 151 -46.5t55 -126.5q0 -16 -1.5 -37t-5.5 -41l-56 -282h-131l10 70q-28 -39 -72 -61t-96 -22zM166 156q0 -53 61 -53q47 0 80.5 31
t43.5 83l3 18l-33 -1q-79 -1 -117 -20.5t-38 -57.5zM234 606q-30 0 -47.5 17.5t-17.5 47.5q0 35 23 57.5t57 22.5q29 0 47.5 -17.5t18.5 -46.5q0 -34 -23 -57.5t-58 -23.5zM457 606q-29 0 -46.5 17.5t-17.5 47.5q0 35 23 57.5t57 22.5q29 0 47.5 -17.5t18.5 -46.5
q0 -35 -23.5 -58t-58.5 -23z" />
    <glyph glyph-name="aring" unicode="&#xe5;" horiz-adv-x="564" 
d="M166 -13q-69 0 -109.5 39.5t-40.5 106.5q0 93 77 141.5t228 49.5l49 1q3 18 3 25q0 61 -91 61q-86 0 -169 -47l-2 120q98 49 201 49q96 0 151 -46.5t55 -126.5q0 -16 -1.5 -37t-5.5 -41l-56 -282h-131l10 70q-28 -39 -72 -61t-96 -22zM166 156q0 -53 61 -53q47 0 80.5 31
t43.5 83l3 18l-33 -1q-79 -1 -117 -20.5t-38 -57.5zM338 586q-49 0 -78.5 28t-29.5 74q0 53 36.5 87t92.5 34q47 0 77.5 -27.5t30.5 -71.5q0 -54 -36.5 -89t-92.5 -35zM343 642q26 0 43.5 17t17.5 43q0 52 -50 52q-26 0 -43 -17.5t-17 -44.5q0 -22 13.5 -36t35.5 -14z" />
    <glyph glyph-name="ae" unicode="&#xe6;" horiz-adv-x="871" 
d="M186 -13q-81 0 -125.5 37t-44.5 104q0 180 300 185l48 1q2 11 2.5 18.5t0.5 12.5q0 66 -89 66q-83 0 -165 -47l-2 120q95 49 201 49q113 0 155 -67q70 67 169 67q95 0 149.5 -55.5t54.5 -151.5q0 -24 -4 -53.5t-11 -52.5h-330q8 -110 128 -110q75 0 151 42l1 -122
q-75 -43 -173 -43q-70 0 -121 27.5t-78 77.5q-38 -50 -93.5 -77.5t-123.5 -27.5zM626 419q-40 0 -72 -29t-48 -76h193q1 11 1 20q0 41 -19.5 63t-54.5 22zM222 103q46 0 79.5 31t43.5 83l1 6h-31q-150 0 -150 -73q0 -47 57 -47z" />
    <glyph glyph-name="ccedilla" unicode="&#xe7;" horiz-adv-x="520" 
d="M288 -13q-76 0 -131.5 29.5t-86 83.5t-30.5 127q0 89 40 158t110.5 108.5t159.5 39.5q49 0 93.5 -11.5t75.5 -32.5l-49 -121q-51 34 -114 34q-73 0 -116.5 -45t-43.5 -122q0 -55 31 -86t86 -31q70 0 132 38v-130q-70 -39 -157 -39zM238 -229q-27 0 -54 5t-49 13l31 67
q36 -15 71 -15q28 0 45 9.5t17 24.5q0 24 -54 24q-27 0 -49 -5l54 121h74l-29 -61h3q44 0 69.5 -19.5t25.5 -54.5q0 -50 -42 -79.5t-113 -29.5z" />
    <glyph glyph-name="egrave" unicode="&#xe8;" horiz-adv-x="572" 
d="M285 -13q-115 0 -180 63.5t-65 175.5q0 89 38 158.5t103.5 109t149.5 39.5q98 0 154 -55t56 -151q0 -26 -4 -57t-11 -53h-336q8 -107 125 -107q79 0 159 42l1 -122q-77 -43 -190 -43zM321 419q-40 0 -72 -29.5t-48 -76.5h198q1 9 1 20q0 41 -20.5 63.5t-58.5 22.5z
M304 599l-120 156h160l88 -156h-128z" />
    <glyph glyph-name="eacute" unicode="&#xe9;" horiz-adv-x="572" 
d="M285 -13q-115 0 -180 63.5t-65 175.5q0 89 38 158.5t103.5 109t149.5 39.5q98 0 154 -55t56 -151q0 -26 -4 -57t-11 -53h-336q8 -107 125 -107q79 0 159 42l1 -122q-77 -43 -190 -43zM321 419q-40 0 -72 -29.5t-48 -76.5h198q1 9 1 20q0 41 -20.5 63.5t-58.5 22.5z
M258 599l151 156h167l-182 -156h-136z" />
    <glyph glyph-name="ecircumflex" unicode="&#xea;" horiz-adv-x="572" 
d="M285 -13q-115 0 -180 63.5t-65 175.5q0 89 38 158.5t103.5 109t149.5 39.5q98 0 154 -55t56 -151q0 -26 -4 -57t-11 -53h-336q8 -107 125 -107q79 0 159 42l1 -122q-77 -43 -190 -43zM321 419q-40 0 -72 -29.5t-48 -76.5h198q1 9 1 20q0 41 -20.5 63.5t-58.5 22.5z
M159 599l159 156h131l97 -156h-125l-53 72l-81 -72h-128z" />
    <glyph glyph-name="edieresis" unicode="&#xeb;" horiz-adv-x="572" 
d="M285 -13q-115 0 -180 63.5t-65 175.5q0 89 38 158.5t103.5 109t149.5 39.5q98 0 154 -55t56 -151q0 -26 -4 -57t-11 -53h-336q8 -107 125 -107q79 0 159 42l1 -122q-77 -43 -190 -43zM321 419q-40 0 -72 -29.5t-48 -76.5h198q1 9 1 20q0 41 -20.5 63.5t-58.5 22.5z
M247 606q-30 0 -47.5 17.5t-17.5 47.5q0 35 23 57.5t57 22.5q29 0 47.5 -17.5t18.5 -46.5q0 -34 -23 -57.5t-58 -23.5zM470 606q-29 0 -46.5 17.5t-17.5 47.5q0 35 23 57.5t57 22.5q29 0 47.5 -17.5t18.5 -46.5q0 -35 -23.5 -58t-58.5 -23z" />
    <glyph glyph-name="igrave" unicode="&#xec;" horiz-adv-x="279" 
d="M12 0l100 520h154l-100 -520h-154zM156 599l-120 156h160l88 -156h-128z" />
    <glyph glyph-name="iacute" unicode="&#xed;" horiz-adv-x="279" 
d="M12 0l100 520h154l-100 -520h-154zM110 599l151 156h167l-182 -156h-136z" />
    <glyph glyph-name="icircumflex" unicode="&#xee;" horiz-adv-x="279" 
d="M12 0l100 520h154l-100 -520h-154zM11 599l159 156h131l97 -156h-125l-53 72l-81 -72h-128z" />
    <glyph glyph-name="idieresis" unicode="&#xef;" horiz-adv-x="279" 
d="M12 0l100 520h154l-100 -520h-154zM99 606q-30 0 -47.5 17.5t-17.5 47.5q0 35 23 57.5t57 22.5q29 0 47.5 -17.5t18.5 -46.5q0 -34 -23 -57.5t-58 -23.5zM322 606q-29 0 -46.5 17.5t-17.5 47.5q0 35 23 57.5t57 22.5q29 0 47.5 -17.5t18.5 -46.5q0 -35 -23.5 -58
t-58.5 -23z" />
    <glyph glyph-name="eth" unicode="&#xf0;" horiz-adv-x="619" 
d="M272 -13q-70 0 -122.5 28.5t-82 79.5t-29.5 119q0 81 33 144t90.5 99t130.5 36q50 0 87 -19t56 -52q-12 84 -62 152l-160 -61l-16 85l114 43q-25 22 -55 43l118 69q40 -28 72 -60l138 52l15 -85l-96 -37q80 -118 80 -275q0 -108 -39 -189.5t-109 -126.5t-163 -45z
M292 117q37 0 65.5 20t45.5 55t17 79q0 46 -26 72.5t-71 26.5q-36 0 -65.5 -19.5t-46.5 -52.5t-17 -75q0 -49 26 -77.5t72 -28.5z" />
    <glyph glyph-name="ntilde" unicode="&#xf1;" horiz-adv-x="595" 
d="M12 0l102 520h136l-10 -76q55 89 164 89q70 0 109 -40.5t39 -122.5q0 -16 -1.5 -36t-5.5 -37l-58 -297h-154l57 295q2 10 3.5 23t1.5 22q0 59 -60 59q-43 0 -72.5 -29.5t-39.5 -80.5l-57 -289h-154zM273 598l-92 11q14 72 52 110t95 38q24 0 43 -8t42 -27
q18 -14 27.5 -19.5t20.5 -5.5q35 0 48 60l92 -12q-31 -147 -145 -147q-25 0 -44 8t-42 27q-18 15 -28.5 20.5t-21.5 5.5q-35 0 -47 -61z" />
    <glyph glyph-name="ograve" unicode="&#xf2;" horiz-adv-x="619" 
d="M280 -13q-73 0 -127 29t-83.5 82t-29.5 124q0 91 38.5 161t106.5 110t156 40q72 0 125.5 -29t83 -81.5t29.5 -123.5q0 -92 -38 -162.5t-105.5 -110t-155.5 -39.5zM292 119q37 0 66.5 22.5t46.5 61t17 87.5q0 53 -24.5 82t-68.5 29q-37 0 -67 -22.5t-47.5 -60.5t-17.5 -86
q0 -52 26 -82.5t69 -30.5zM317 599l-120 156h160l88 -156h-128z" />
    <glyph glyph-name="oacute" unicode="&#xf3;" horiz-adv-x="619" 
d="M280 -13q-73 0 -127 29t-83.5 82t-29.5 124q0 91 38.5 161t106.5 110t156 40q72 0 125.5 -29t83 -81.5t29.5 -123.5q0 -92 -38 -162.5t-105.5 -110t-155.5 -39.5zM292 119q37 0 66.5 22.5t46.5 61t17 87.5q0 53 -24.5 82t-68.5 29q-37 0 -67 -22.5t-47.5 -60.5t-17.5 -86
q0 -52 26 -82.5t69 -30.5zM271 599l151 156h167l-182 -156h-136z" />
    <glyph glyph-name="ocircumflex" unicode="&#xf4;" horiz-adv-x="619" 
d="M280 -13q-73 0 -127 29t-83.5 82t-29.5 124q0 91 38.5 161t106.5 110t156 40q72 0 125.5 -29t83 -81.5t29.5 -123.5q0 -92 -38 -162.5t-105.5 -110t-155.5 -39.5zM292 119q37 0 66.5 22.5t46.5 61t17 87.5q0 53 -24.5 82t-68.5 29q-37 0 -67 -22.5t-47.5 -60.5t-17.5 -86
q0 -52 26 -82.5t69 -30.5zM172 599l159 156h131l97 -156h-125l-53 72l-81 -72h-128z" />
    <glyph glyph-name="otilde" unicode="&#xf5;" horiz-adv-x="619" 
d="M280 -13q-73 0 -127 29t-83.5 82t-29.5 124q0 91 38.5 161t106.5 110t156 40q72 0 125.5 -29t83 -81.5t29.5 -123.5q0 -92 -38 -162.5t-105.5 -110t-155.5 -39.5zM292 119q37 0 66.5 22.5t46.5 61t17 87.5q0 53 -24.5 82t-68.5 29q-37 0 -67 -22.5t-47.5 -60.5t-17.5 -86
q0 -52 26 -82.5t69 -30.5zM257 598l-92 11q14 72 52 110t95 38q24 0 43 -8t42 -27q18 -14 27.5 -19.5t20.5 -5.5q35 0 48 60l92 -12q-31 -147 -145 -147q-25 0 -44 8t-42 27q-18 15 -28.5 20.5t-21.5 5.5q-35 0 -47 -61z" />
    <glyph glyph-name="odieresis" unicode="&#xf6;" horiz-adv-x="619" 
d="M280 -13q-73 0 -127 29t-83.5 82t-29.5 124q0 91 38.5 161t106.5 110t156 40q72 0 125.5 -29t83 -81.5t29.5 -123.5q0 -92 -38 -162.5t-105.5 -110t-155.5 -39.5zM292 119q37 0 66.5 22.5t46.5 61t17 87.5q0 53 -24.5 82t-68.5 29q-37 0 -67 -22.5t-47.5 -60.5t-17.5 -86
q0 -52 26 -82.5t69 -30.5zM260 606q-30 0 -47.5 17.5t-17.5 47.5q0 35 23 57.5t57 22.5q29 0 47.5 -17.5t18.5 -46.5q0 -34 -23 -57.5t-58 -23.5zM483 606q-29 0 -46.5 17.5t-17.5 47.5q0 35 23 57.5t57 22.5q29 0 47.5 -17.5t18.5 -46.5q0 -35 -23.5 -58t-58.5 -23z" />
    <glyph glyph-name="divide" unicode="&#xf7;" horiz-adv-x="612" 
d="M322 459q-38 0 -63 24t-25 61t25 61t63 24t63 -24t25 -61t-25 -61t-63 -24zM79 280v123h485v-123h-485zM322 54q-38 0 -63 24t-25 61t25 61t63 24t63 -24t25 -61t-25 -61t-63 -24z" />
    <glyph glyph-name="oslash" unicode="&#xf8;" horiz-adv-x="619" 
d="M82 -44l-60 59l60 64q-42 59 -42 145q0 91 39 160.5t106.5 109t155.5 39.5q77 0 134 -33l62 65l59 -60l-59 -63q42 -59 42 -146q0 -91 -38.5 -160.5t-105.5 -109t-155 -39.5q-79 0 -136 34zM193 234q0 -21 4 -39l184 197q-22 14 -51 14q-39 0 -70 -22.5t-49 -61.5
t-18 -88zM291 115q39 0 69.5 22.5t48 62t17.5 88.5q0 21 -4 39l-184 -197q23 -15 53 -15z" />
    <glyph glyph-name="ugrave" unicode="&#xf9;" horiz-adv-x="590" 
d="M193 -13q-70 0 -110.5 42.5t-40.5 115.5q0 17 2 34.5t6 36.5l60 304h154l-58 -294q-4 -17 -4.5 -27.5t-0.5 -17.5q0 -58 57 -58q42 0 71 28.5t39 79.5l56 289h154l-101 -520h-137l10 76q-54 -89 -157 -89zM314 599l-120 156h160l88 -156h-128z" />
    <glyph glyph-name="uacute" unicode="&#xfa;" horiz-adv-x="590" 
d="M193 -13q-70 0 -110.5 42.5t-40.5 115.5q0 17 2 34.5t6 36.5l60 304h154l-58 -294q-4 -17 -4.5 -27.5t-0.5 -17.5q0 -58 57 -58q42 0 71 28.5t39 79.5l56 289h154l-101 -520h-137l10 76q-54 -89 -157 -89zM268 599l151 156h167l-182 -156h-136z" />
    <glyph glyph-name="ucircumflex" unicode="&#xfb;" horiz-adv-x="590" 
d="M193 -13q-70 0 -110.5 42.5t-40.5 115.5q0 17 2 34.5t6 36.5l60 304h154l-58 -294q-4 -17 -4.5 -27.5t-0.5 -17.5q0 -58 57 -58q42 0 71 28.5t39 79.5l56 289h154l-101 -520h-137l10 76q-54 -89 -157 -89zM169 599l159 156h131l97 -156h-125l-53 72l-81 -72h-128z" />
    <glyph glyph-name="udieresis" unicode="&#xfc;" horiz-adv-x="590" 
d="M193 -13q-70 0 -110.5 42.5t-40.5 115.5q0 17 2 34.5t6 36.5l60 304h154l-58 -294q-4 -17 -4.5 -27.5t-0.5 -17.5q0 -58 57 -58q42 0 71 28.5t39 79.5l56 289h154l-101 -520h-137l10 76q-54 -89 -157 -89zM257 606q-30 0 -47.5 17.5t-17.5 47.5q0 35 23 57.5t57 22.5
q29 0 47.5 -17.5t18.5 -46.5q0 -34 -23 -57.5t-58 -23.5zM480 606q-29 0 -46.5 17.5t-17.5 47.5q0 35 23 57.5t57 22.5q29 0 47.5 -17.5t18.5 -46.5q0 -35 -23.5 -58t-58.5 -23z" />
    <glyph glyph-name="yacute" unicode="&#xfd;" horiz-adv-x="578" 
d="M52 -229q-32 0 -60.5 6t-48.5 18l38 122q32 -17 71 -17q72 0 112 75l13 24l-117 521h163l57 -369l177 369h164l-313 -557q-40 -72 -77.5 -114t-79.5 -60t-99 -18zM258 599l151 156h167l-182 -156h-136z" />
    <glyph glyph-name="thorn" unicode="&#xfe;" horiz-adv-x="633" 
d="M-29 -216l187 956h153l-53 -271q56 64 141 64q57 0 101 -30t68.5 -83t24.5 -123q0 -64 -20.5 -120.5t-56.5 -99t-83.5 -66.5t-101.5 -24q-53 0 -92 23.5t-57 65.5l-57 -292h-154zM303 119q38 0 68 22t48 60t18 85q0 53 -25 84t-69 31q-37 0 -67.5 -22.5t-48.5 -60.5
t-18 -85q0 -53 25.5 -83.5t68.5 -30.5z" />
    <glyph glyph-name="ydieresis" unicode="&#xff;" horiz-adv-x="578" 
d="M52 -229q-32 0 -60.5 6t-48.5 18l38 122q32 -17 71 -17q72 0 112 75l13 24l-117 521h163l57 -369l177 369h164l-313 -557q-40 -72 -77.5 -114t-79.5 -60t-99 -18zM247 606q-30 0 -47.5 17.5t-17.5 47.5q0 35 23 57.5t57 22.5q29 0 47.5 -17.5t18.5 -46.5q0 -34 -23 -57.5
t-58 -23.5zM470 606q-29 0 -46.5 17.5t-17.5 47.5q0 35 23 57.5t57 22.5q29 0 47.5 -17.5t18.5 -46.5q0 -35 -23.5 -58t-58.5 -23z" />
    <glyph glyph-name="Amacron" unicode="&#x100;" horiz-adv-x="724" 
d="M-39 0l401 700h169l130 -700h-174l-20 149h-252l-78 -149h-176zM285 281h164l-34 248zM257 785l20 104h397l-20 -104h-397z" />
    <glyph glyph-name="amacron" unicode="&#x101;" horiz-adv-x="564" 
d="M166 -13q-69 0 -109.5 39.5t-40.5 106.5q0 93 77 141.5t228 49.5l49 1q3 18 3 25q0 61 -91 61q-86 0 -169 -47l-2 120q98 49 201 49q96 0 151 -46.5t55 -126.5q0 -16 -1.5 -37t-5.5 -41l-56 -282h-131l10 70q-28 -39 -72 -61t-96 -22zM166 156q0 -53 61 -53q47 0 80.5 31
t43.5 83l3 18l-33 -1q-79 -1 -117 -20.5t-38 -57.5zM155 626l20 103h362l-20 -103h-362z" />
    <glyph glyph-name="Abreve" unicode="&#x102;" horiz-adv-x="724" 
d="M-39 0l401 700h169l130 -700h-174l-20 149h-252l-78 -149h-176zM285 281h164l-34 248zM465 769q-71 0 -115.5 37t-44.5 97v3l105 12v-8q0 -50 66 -50q76 0 92 58l102 -12q-15 -61 -70 -99t-135 -38z" />
    <glyph glyph-name="abreve" unicode="&#x103;" horiz-adv-x="564" 
d="M166 -13q-69 0 -109.5 39.5t-40.5 106.5q0 93 77 141.5t228 49.5l49 1q3 18 3 25q0 61 -91 61q-86 0 -169 -47l-2 120q98 49 201 49q96 0 151 -46.5t55 -126.5q0 -16 -1.5 -37t-5.5 -41l-56 -282h-131l10 70q-28 -39 -72 -61t-96 -22zM166 156q0 -53 61 -53q47 0 80.5 31
t43.5 83l3 18l-33 -1q-79 -1 -117 -20.5t-38 -57.5zM347 597q-70 0 -109 32.5t-39 90.5q0 13 2 23l98 11v-15q0 -26 15 -41t42 -15q67 0 83 71l97 -11q-35 -146 -189 -146z" />
    <glyph glyph-name="Aogonek" unicode="&#x104;" horiz-adv-x="724" 
d="M-39 0l401 700h169l130 -700h-174l-20 149h-252l-78 -149h-176zM285 281h164l-34 248zM518 -229q-49 0 -78.5 23.5t-29.5 62.5q0 54 54 98t152 71l45 -26q-69 -24 -108.5 -54t-39.5 -59q0 -31 42 -31q33 0 64 12l1 -80q-47 -17 -102 -17z" />
    <glyph glyph-name="aogonek" unicode="&#x105;" horiz-adv-x="564" 
d="M166 -13q-69 0 -109.5 39.5t-40.5 106.5q0 93 77 141.5t228 49.5l49 1q3 18 3 25q0 61 -91 61q-86 0 -169 -47l-2 120q98 49 201 49q96 0 151 -46.5t55 -126.5q0 -16 -1.5 -37t-5.5 -41l-56 -282h-131l10 70q-28 -39 -72 -61t-96 -22zM166 156q0 -53 61 -53q47 0 80.5 31
t43.5 83l3 18l-33 -1q-79 -1 -117 -20.5t-38 -57.5zM319 -229q-48 0 -76.5 23t-28.5 62q0 51 51.5 95t145.5 75l44 -26q-65 -24 -102 -55t-37 -62q0 -33 35 -33q30 0 63 12l4 -74q-48 -17 -99 -17z" />
    <glyph glyph-name="Cacute" unicode="&#x106;" horiz-adv-x="680" 
d="M378 -16q-97 0 -168.5 39t-111 110t-39.5 166q0 91 31.5 167t88.5 132t135 87t171 31q57 0 116.5 -16t100.5 -42l-49 -131q-74 49 -173 49q-74 0 -131 -34t-89.5 -93.5t-32.5 -137.5q0 -87 46.5 -137t128.5 -50q105 0 195 51l2 -137q-40 -25 -98.5 -39.5t-122.5 -14.5z
M400 772l167 130h183l-193 -130h-157z" />
    <glyph glyph-name="cacute" unicode="&#x107;" horiz-adv-x="520" 
d="M288 -13q-76 0 -131.5 29.5t-86 83.5t-30.5 127q0 89 40 158t110.5 108.5t159.5 39.5q49 0 93.5 -11.5t75.5 -32.5l-49 -121q-51 34 -114 34q-73 0 -116.5 -45t-43.5 -122q0 -55 31 -86t86 -31q70 0 132 38v-130q-70 -39 -157 -39zM289 599l151 156h167l-182 -156h-136z
" />
    <glyph glyph-name="Cdotaccent" unicode="&#x10a;" horiz-adv-x="680" 
d="M378 -16q-97 0 -168.5 39t-111 110t-39.5 166q0 91 31.5 167t88.5 132t135 87t171 31q57 0 116.5 -16t100.5 -42l-49 -131q-74 49 -173 49q-74 0 -131 -34t-89.5 -93.5t-32.5 -137.5q0 -87 46.5 -137t128.5 -50q105 0 195 51l2 -137q-40 -25 -98.5 -39.5t-122.5 -14.5z
M506 767q-31 0 -50 19.5t-19 50.5q0 37 24.5 61t60.5 24q32 0 51 -19t19 -50q0 -37 -24.5 -61.5t-61.5 -24.5z" />
    <glyph glyph-name="cdotaccent" unicode="&#x10b;" horiz-adv-x="520" 
d="M288 -13q-76 0 -131.5 29.5t-86 83.5t-30.5 127q0 89 40 158t110.5 108.5t159.5 39.5q49 0 93.5 -11.5t75.5 -32.5l-49 -121q-51 34 -114 34q-73 0 -116.5 -45t-43.5 -122q0 -55 31 -86t86 -31q70 0 132 38v-130q-70 -39 -157 -39zM381 603q-31 0 -49.5 18.5t-18.5 49.5
q0 36 24.5 59.5t59.5 23.5q29 0 48.5 -18t19.5 -50q0 -35 -24 -59t-60 -24z" />
    <glyph glyph-name="Ccaron" unicode="&#x10c;" horiz-adv-x="680" 
d="M378 -16q-97 0 -168.5 39t-111 110t-39.5 166q0 91 31.5 167t88.5 132t135 87t171 31q57 0 116.5 -16t100.5 -42l-49 -131q-74 49 -173 49q-74 0 -131 -34t-89.5 -93.5t-32.5 -137.5q0 -87 46.5 -137t128.5 -50q105 0 195 51l2 -137q-40 -25 -98.5 -39.5t-122.5 -14.5z
M433 772l-117 130h152l53 -52l73 52h149l-167 -130h-143z" />
    <glyph glyph-name="ccaron" unicode="&#x10d;" horiz-adv-x="520" 
d="M288 -13q-76 0 -131.5 29.5t-86 83.5t-30.5 127q0 89 40 158t110.5 108.5t159.5 39.5q49 0 93.5 -11.5t75.5 -32.5l-49 -121q-51 34 -114 34q-73 0 -116.5 -45t-43.5 -122q0 -55 31 -86t86 -31q70 0 132 38v-130q-70 -39 -157 -39zM312 599l-97 156h127l53 -72l81 72h126
l-159 -156h-131z" />
    <glyph glyph-name="Dcaron" unicode="&#x10e;" horiz-adv-x="749" 
d="M22 0l136 700h264q93 0 161 -36t105.5 -100.5t37.5 -152.5q0 -124 -54.5 -216.5t-152 -143.5t-227.5 -51h-270zM388 562h-98l-83 -424h97q77 0 134 32t88.5 90.5t31.5 137.5q0 164 -170 164zM364 772l-117 130h152l53 -52l73 52h149l-167 -130h-143z" />
    <glyph glyph-name="dcaron" unicode="&#x10f;" horiz-adv-x="798" 
d="M236 -13q-57 0 -101.5 30t-69.5 83.5t-25 122.5q0 64 20.5 120t56 99t83 67t101.5 24q55 0 93.5 -25t55.5 -71l59 303h154l-144 -740h-138l9 68q-28 -39 -68 -60t-86 -21zM291 119q38 0 68 22.5t48 60.5t18 85q0 53 -25 83.5t-69 30.5q-37 0 -67.5 -22t-48.5 -60t-18 -85
q0 -53 25.5 -84t68.5 -31zM690 531q20 70 50 209h142q-14 -57 -32.5 -113t-35.5 -96h-124z" />
    <glyph glyph-name="Dcroat" unicode="&#x110;" horiz-adv-x="766" 
d="M39 0l60 308h-73l23 117h73l53 275h264q93 0 161 -36t105.5 -100.5t37.5 -152.5q0 -124 -54.5 -216.5t-152 -143.5t-227.5 -51h-270zM400 308h-143l-33 -170h97q77 0 134 32t88.5 90.5t31.5 137.5q0 164 -170 164h-98l-27 -137h143z" />
    <glyph glyph-name="dcroat" unicode="&#x111;" horiz-adv-x="640" 
d="M234 -13q-57 0 -101.5 29.5t-69.5 81.5t-25 119q0 63 20.5 118t56 97t83 65.5t101.5 23.5t92 -24t56 -68l29 153h-161l18 92h161l13 66h154l-13 -66h61l-18 -92h-61l-113 -582h-138l9 68q-28 -39 -68 -60t-86 -21zM289 119q38 0 68 21.5t48 58.5t18 82q0 49 -25 78.5
t-69 29.5q-37 0 -67.5 -21.5t-48.5 -57.5t-18 -82q0 -50 25.5 -79.5t68.5 -29.5z" />
    <glyph glyph-name="Emacron" unicode="&#x112;" horiz-adv-x="595" 
d="M22 0l136 700h458l-4 -133h-322l-28 -145h288l-25 -133h-289l-31 -156h341l-41 -133h-483zM208 785l20 104h397l-20 -104h-397z" />
    <glyph glyph-name="emacron" unicode="&#x113;" horiz-adv-x="572" 
d="M285 -13q-115 0 -180 63.5t-65 175.5q0 89 38 158.5t103.5 109t149.5 39.5q98 0 154 -55t56 -151q0 -26 -4 -57t-11 -53h-336q8 -107 125 -107q79 0 159 42l1 -122q-77 -43 -190 -43zM321 419q-40 0 -72 -29.5t-48 -76.5h198q1 9 1 20q0 41 -20.5 63.5t-58.5 22.5z
M168 626l20 103h362l-20 -103h-362z" />
    <glyph glyph-name="Edotaccent" unicode="&#x116;" horiz-adv-x="595" 
d="M22 0l136 700h458l-4 -133h-322l-28 -145h288l-25 -133h-289l-31 -156h341l-41 -133h-483zM414 767q-31 0 -50 19.5t-19 50.5q0 37 24.5 61t60.5 24q32 0 51 -19t19 -50q0 -37 -24.5 -61.5t-61.5 -24.5z" />
    <glyph glyph-name="edotaccent" unicode="&#x117;" horiz-adv-x="572" 
d="M285 -13q-115 0 -180 63.5t-65 175.5q0 89 38 158.5t103.5 109t149.5 39.5q98 0 154 -55t56 -151q0 -26 -4 -57t-11 -53h-336q8 -107 125 -107q79 0 159 42l1 -122q-77 -43 -190 -43zM321 419q-40 0 -72 -29.5t-48 -76.5h198q1 9 1 20q0 41 -20.5 63.5t-58.5 22.5z
M350 603q-31 0 -49.5 18.5t-18.5 49.5q0 36 24.5 59.5t59.5 23.5q29 0 48.5 -18t19.5 -50q0 -35 -24 -59t-60 -24z" />
    <glyph glyph-name="Eogonek" unicode="&#x118;" horiz-adv-x="595" 
d="M22 0l136 700h458l-4 -133h-322l-28 -145h288l-25 -133h-289l-31 -156h341l-41 -133h-483zM362 -229q-49 0 -78.5 23.5t-29.5 62.5q0 54 54 98t152 71l45 -26q-69 -24 -108.5 -54t-39.5 -59q0 -31 42 -31q33 0 64 12l1 -80q-47 -17 -102 -17z" />
    <glyph glyph-name="eogonek" unicode="&#x119;" horiz-adv-x="572" 
d="M285 -13q-115 0 -180 63.5t-65 175.5q0 89 38 158.5t103.5 109t149.5 39.5q98 0 154 -55t56 -151q0 -26 -4 -57t-11 -53h-336q8 -107 125 -107q79 0 159 42l1 -122q-77 -43 -190 -43zM321 419q-40 0 -72 -29.5t-48 -76.5h198q1 9 1 20q0 41 -20.5 63.5t-58.5 22.5z
M281 -229q-48 0 -76 23t-28 62q0 52 60.5 101t174.5 89l43 -26q-180 -75 -180 -136q0 -34 41 -34q28 0 61 12l2 -74q-48 -17 -98 -17z" />
    <glyph glyph-name="Ecaron" unicode="&#x11a;" horiz-adv-x="595" 
d="M22 0l136 700h458l-4 -133h-322l-28 -145h288l-25 -133h-289l-31 -156h341l-41 -133h-483zM341 772l-117 130h152l53 -52l73 52h149l-167 -130h-143z" />
    <glyph glyph-name="ecaron" unicode="&#x11b;" horiz-adv-x="572" 
d="M285 -13q-115 0 -180 63.5t-65 175.5q0 89 38 158.5t103.5 109t149.5 39.5q98 0 154 -55t56 -151q0 -26 -4 -57t-11 -53h-336q8 -107 125 -107q79 0 159 42l1 -122q-77 -43 -190 -43zM321 419q-40 0 -72 -29.5t-48 -76.5h198q1 9 1 20q0 41 -20.5 63.5t-58.5 22.5z
M281 599l-97 156h127l53 -72l81 72h126l-159 -156h-131z" />
    <glyph glyph-name="Gbreve" unicode="&#x11e;" horiz-adv-x="738" 
d="M400 -16q-106 0 -182.5 38t-117.5 108.5t-41 169.5q0 90 32 166t91 132t138.5 87t173.5 31q63 0 127.5 -16t110.5 -43l-50 -134q-86 53 -188 53q-79 0 -139 -34t-94 -93.5t-34 -137.5q0 -92 48.5 -140.5t141.5 -48.5q46 0 89 8l28 141h-127l24 122h274l-70 -360
q-101 -49 -235 -49zM522 769q-71 0 -115.5 37t-44.5 97v3l105 12v-8q0 -50 66 -50q76 0 92 58l102 -12q-15 -61 -70 -99t-135 -38z" />
    <glyph glyph-name="gbreve" unicode="&#x11f;" horiz-adv-x="633" 
d="M217 -229q-61 0 -115 13.5t-91 38.5l43 122q71 -45 156 -45q136 0 163 134l6 33q-56 -67 -142 -67q-57 0 -101.5 29t-69.5 81t-25 119q0 63 20.5 118t56.5 97t83 65.5t101 23.5q58 0 100 -28t59 -77l23 92h137l-90 -470q-27 -142 -104 -210.5t-210 -68.5zM292 132
q37 0 67.5 21.5t48.5 58t18 81.5q0 50 -25.5 79t-68.5 29q-37 0 -67.5 -21.5t-48.5 -58t-18 -81.5q0 -50 25.5 -79t68.5 -29zM391 597q-70 0 -109 32.5t-39 90.5q0 13 2 23l98 11v-15q0 -26 15 -41t42 -15q67 0 83 71l97 -11q-35 -146 -189 -146z" />
    <glyph glyph-name="Gdotaccent" unicode="&#x120;" horiz-adv-x="738" 
d="M400 -16q-106 0 -182.5 38t-117.5 108.5t-41 169.5q0 90 32 166t91 132t138.5 87t173.5 31q63 0 127.5 -16t110.5 -43l-50 -134q-86 53 -188 53q-79 0 -139 -34t-94 -93.5t-34 -137.5q0 -92 48.5 -140.5t141.5 -48.5q46 0 89 8l28 141h-127l24 122h274l-70 -360
q-101 -49 -235 -49zM520 767q-31 0 -50 19.5t-19 50.5q0 37 24.5 61t60.5 24q32 0 51 -19t19 -50q0 -37 -24.5 -61.5t-61.5 -24.5z" />
    <glyph glyph-name="gdotaccent" unicode="&#x121;" horiz-adv-x="633" 
d="M217 -229q-61 0 -115 13.5t-91 38.5l43 122q71 -45 156 -45q136 0 163 134l6 33q-56 -67 -142 -67q-57 0 -101.5 29t-69.5 81t-25 119q0 63 20.5 118t56.5 97t83 65.5t101 23.5q58 0 100 -28t59 -77l23 92h137l-90 -470q-27 -142 -104 -210.5t-210 -68.5zM292 132
q37 0 67.5 21.5t48.5 58t18 81.5q0 50 -25.5 79t-68.5 29q-37 0 -67.5 -21.5t-48.5 -58t-18 -81.5q0 -50 25.5 -79t68.5 -29zM381 603q-31 0 -49.5 18.5t-18.5 49.5q0 36 24.5 59.5t59.5 23.5q29 0 48.5 -18t19.5 -50q0 -35 -24 -59t-60 -24z" />
    <glyph glyph-name="uni0122" unicode="&#x122;" horiz-adv-x="738" 
d="M400 -16q-106 0 -182.5 38t-117.5 108.5t-41 169.5q0 90 32 166t91 132t138.5 87t173.5 31q63 0 127.5 -16t110.5 -43l-50 -134q-86 53 -188 53q-79 0 -139 -34t-94 -93.5t-34 -137.5q0 -92 48.5 -140.5t141.5 -48.5q46 0 89 8l28 141h-127l24 122h274l-70 -360
q-101 -49 -235 -49zM302 -284l-25 42q69 21 98 51h-5q-25 0 -42 15t-17 39q0 30 23.5 51t57.5 21t53.5 -18t19.5 -49q0 -51 -43 -91.5t-120 -60.5z" />
    <glyph glyph-name="uni0123" unicode="&#x123;" horiz-adv-x="633" 
d="M217 -229q-61 0 -115 13.5t-91 38.5l43 122q71 -45 156 -45q136 0 163 134l6 33q-56 -67 -142 -67q-57 0 -101.5 29t-69.5 81t-25 119q0 63 20.5 118t56.5 97t83 65.5t101 23.5q58 0 100 -28t59 -77l23 92h137l-90 -470q-27 -142 -104 -210.5t-210 -68.5zM292 132
q37 0 67.5 21.5t48.5 58t18 81.5q0 50 -25.5 79t-68.5 29q-37 0 -67.5 -21.5t-48.5 -58t-18 -81.5q0 -50 25.5 -79t68.5 -29zM480 818l24 -41q-71 -21 -100 -53h8q26 0 42 -15t16 -39q0 -30 -23 -50.5t-58 -20.5q-31 0 -49.5 18t-18.5 48q0 53 43 93.5t116 59.5z" />
    <glyph glyph-name="Hbar" unicode="&#x126;" horiz-adv-x="765" 
d="M40 0l98 506h-74l21 104h74l17 90h161l-17 -90h271l17 90h162l-17 -90h63l-20 -104h-64l-98 -506h-162l53 273h-271l-53 -273h-161zM281 414h271l18 92h-271z" />
    <glyph glyph-name="hbar" unicode="&#x127;" horiz-adv-x="607" 
d="M24 0l113 582h-63l18 92h63l13 66h154l-13 -66h158l-18 -92h-158l-27 -140q55 78 150 78q70 0 110 -41.5t40 -115.5q0 -11 -1.5 -26.5t-6.5 -40.5l-57 -296h-154l55 286q5 23 5 40q0 59 -61 59q-42 0 -71.5 -28t-39.5 -77l-55 -280h-154z" />
    <glyph glyph-name="Itilde" unicode="&#x128;" horiz-adv-x="307" 
d="M22 0l136 700h162l-136 -700h-162zM144 770l-98 11q14 68 54 103.5t100 35.5q26 0 44.5 -5.5t43.5 -21.5q20 -13 31 -17.5t23 -4.5q36 0 46 49l98 -11q-14 -67 -54 -103t-100 -36q-25 0 -42.5 5.5t-45.5 21.5q-21 12 -32 16.5t-22 4.5q-36 0 -46 -48z" />
    <glyph glyph-name="itilde" unicode="&#x129;" horiz-adv-x="279" 
d="M12 0l100 520h154l-100 -520h-154zM96 598l-92 11q14 72 52 110t95 38q24 0 43 -8t42 -27q18 -14 27.5 -19.5t20.5 -5.5q35 0 48 60l92 -12q-31 -147 -145 -147q-25 0 -44 8t-42 27q-18 15 -28.5 20.5t-21.5 5.5q-35 0 -47 -61z" />
    <glyph glyph-name="Imacron" unicode="&#x12a;" horiz-adv-x="307" 
d="M22 0l136 700h162l-136 -700h-162zM49 785l20 104h397l-20 -104h-397z" />
    <glyph glyph-name="imacron" unicode="&#x12b;" horiz-adv-x="279" 
d="M12 0l100 520h154l-100 -520h-154zM20 626l20 103h362l-20 -103h-362z" />
    <glyph glyph-name="Iogonek" unicode="&#x12e;" horiz-adv-x="307" 
d="M22 0l136 700h162l-136 -700h-162zM41 -229q-49 0 -78.5 23.5t-29.5 62.5q0 54 54 98t152 71l45 -26q-69 -24 -108.5 -54t-39.5 -59q0 -31 42 -31q33 0 64 12l1 -80q-47 -17 -102 -17z" />
    <glyph glyph-name="iogonek" unicode="&#x12f;" horiz-adv-x="279" 
d="M211 584q-39 0 -62 21.5t-23 58.5q0 42 29 70t73 28q38 0 62 -21.5t24 -56.5q0 -43 -29.5 -71.5t-73.5 -28.5zM12 0l100 520h154l-100 -520h-154zM30 -229q-48 0 -76.5 23t-28.5 62q0 51 51.5 95t145.5 75l44 -26q-65 -24 -102 -55t-37 -62q0 -33 35 -33q30 0 63 12
l4 -74q-48 -17 -99 -17z" />
    <glyph glyph-name="Idotaccent" unicode="&#x130;" horiz-adv-x="307" 
d="M22 0l136 700h162l-136 -700h-162zM255 767q-31 0 -50 19.5t-19 50.5q0 37 24.5 61t60.5 24q32 0 51 -19t19 -50q0 -37 -24.5 -61.5t-61.5 -24.5z" />
    <glyph glyph-name="dotlessi" unicode="&#x131;" horiz-adv-x="279" 
d="M12 0l100 520h154l-100 -520h-154z" />
    <glyph glyph-name="IJ" unicode="&#x132;" horiz-adv-x="666" 
d="M263 -16q-136 0 -223 52l47 129q81 -43 169 -43q82 0 125.5 41.5t62.5 138.5l78 398h162l-79 -408q-31 -162 -112 -235t-230 -73zM69 244l89 456h162l-88 -456h-163z" />
    <glyph glyph-name="ij" unicode="&#x133;" horiz-adv-x="590" 
d="M208 584q-38 0 -61 21.5t-23 58.5q0 42 29 70t73 28q38 0 62 -22t24 -58q0 -41 -30 -69.5t-74 -28.5zM521 584q-38 0 -61 22t-23 58q0 42 29.5 70t73.5 28q38 0 61.5 -22t23.5 -58q0 -42 -30 -70t-74 -28zM180 -229q-60 0 -111.5 13.5t-88.5 38.5l44 122q66 -45 148 -45
q130 0 157 134l6 30q-50 -64 -138 -64q-71 0 -111 42t-40 117q0 32 8 70l56 291h154l-55 -281q-2 -12 -4 -23.5t-2 -21.5q0 -58 57 -58q41 0 70 29t39 79l55 276h154l-91 -470q-28 -143 -102.5 -211t-204.5 -68z" />
    <glyph glyph-name="uni0136" unicode="&#x136;" horiz-adv-x="702" 
d="M22 0l136 700h162l-59 -304l301 304h190l-297 -285l184 -415h-177l-128 297l-113 -108l-37 -189h-162zM213 -284l-25 42q69 21 98 51h-5q-25 0 -42 15t-17 39q0 30 23.5 51t57.5 21t53.5 -18t19.5 -49q0 -51 -43 -91.5t-120 -60.5z" />
    <glyph glyph-name="uni0137" unicode="&#x137;" horiz-adv-x="589" 
d="M12 0l144 740h154l-80 -412l210 192h184l-225 -195l130 -325h-165l-82 223l-87 -76l-29 -147h-154zM164 -284l-24 41q70 21 99 53h-8q-25 0 -41 15t-16 39q0 29 23.5 50t56.5 21q32 0 51 -18t19 -48q0 -52 -43 -93t-117 -60z" />
    <glyph glyph-name="Lacute" unicode="&#x139;" horiz-adv-x="563" 
d="M22 0l136 700h162l-109 -560h320l-43 -140h-466zM150 772l167 130h183l-193 -130h-157z" />
    <glyph glyph-name="lacute" unicode="&#x13a;" horiz-adv-x="279" 
d="M12 0l144 740h154l-144 -740h-154zM146 817l167 130h183l-193 -130h-157z" />
    <glyph glyph-name="uni013B" unicode="&#x13b;" horiz-adv-x="563" 
d="M22 0l136 700h162l-109 -560h320l-43 -140h-466zM176 -284l-25 42q69 21 98 51h-5q-25 0 -42 15t-17 39q0 30 23.5 51t57.5 21t53.5 -18t19.5 -49q0 -51 -43 -91.5t-120 -60.5z" />
    <glyph glyph-name="uni013C" unicode="&#x13c;" horiz-adv-x="279" 
d="M12 0l144 740h154l-144 -740h-154zM-19 -284l-24 41q70 21 99 53h-8q-25 0 -41 15t-16 39q0 29 23.5 50t56.5 21q32 0 51 -18t19 -48q0 -52 -43 -93t-117 -60z" />
    <glyph glyph-name="Lcaron" unicode="&#x13d;" horiz-adv-x="563" 
d="M22 0l136 700h162l-109 -560h320l-43 -140h-466zM392 491q20 70 50 209h142q-14 -57 -32.5 -113t-35.5 -96h-124z" />
    <glyph glyph-name="lcaron" unicode="&#x13e;" horiz-adv-x="445" 
d="M12 0l144 740h154l-144 -740h-154zM337 531q20 70 50 209h142q-14 -57 -32.5 -113t-35.5 -96h-124z" />
    <glyph glyph-name="Ldot" unicode="&#x13f;" horiz-adv-x="563" 
d="M22 0l136 700h162l-109 -560h320l-43 -140h-466zM453 330q-38 0 -61.5 22t-23.5 59q0 43 30.5 72t74.5 29q38 0 61 -22t23 -60q0 -43 -29.5 -71.5t-74.5 -28.5z" />
    <glyph glyph-name="ldot" unicode="&#x140;" horiz-adv-x="463" 
d="M12 0l144 740h154l-144 -740h-154zM380 279q-38 0 -61.5 22t-23.5 59q0 43 30.5 72t74.5 29q38 0 61 -22t23 -60q0 -43 -29.5 -71.5t-74.5 -28.5z" />
    <glyph glyph-name="Lslash" unicode="&#x141;" horiz-adv-x="580" 
d="M38 0l46 235l-79 -36l25 132l79 36l65 333h162l-49 -253l188 85l-26 -132l-188 -85l-34 -175h320l-43 -140h-466z" />
    <glyph glyph-name="lslash" unicode="&#x142;" horiz-adv-x="301" 
d="M23 0l60 310l-68 -26l20 101l68 25l64 330h154l-52 -267l67 25l-19 -101l-68 -25l-72 -372h-154z" />
    <glyph glyph-name="Nacute" unicode="&#x143;" horiz-adv-x="729" 
d="M22 0l136 700h160l179 -472l92 472h153l-136 -700h-155l-184 472l-92 -472h-153zM363 772l167 130h183l-193 -130h-157z" />
    <glyph glyph-name="nacute" unicode="&#x144;" horiz-adv-x="595" 
d="M12 0l102 520h136l-10 -76q55 89 164 89q70 0 109 -40.5t39 -122.5q0 -16 -1.5 -36t-5.5 -37l-58 -297h-154l57 295q2 10 3.5 23t1.5 22q0 59 -60 59q-43 0 -72.5 -29.5t-39.5 -80.5l-57 -289h-154zM287 599l151 156h167l-182 -156h-136z" />
    <glyph glyph-name="uni0145" unicode="&#x145;" horiz-adv-x="729" 
d="M22 0l136 700h160l179 -472l92 472h153l-136 -700h-155l-184 472l-92 -472h-153zM226 -284l-25 42q69 21 98 51h-5q-25 0 -42 15t-17 39q0 30 23.5 51t57.5 21t53.5 -18t19.5 -49q0 -51 -43 -91.5t-120 -60.5z" />
    <glyph glyph-name="uni0146" unicode="&#x146;" horiz-adv-x="595" 
d="M12 0l102 520h136l-10 -76q55 89 164 89q70 0 109 -40.5t39 -122.5q0 -16 -1.5 -36t-5.5 -37l-58 -297h-154l57 295q2 10 3.5 23t1.5 22q0 59 -60 59q-43 0 -72.5 -29.5t-39.5 -80.5l-57 -289h-154zM147 -284l-24 41q70 21 99 53h-8q-25 0 -41 15t-16 39q0 29 23.5 50
t56.5 21q32 0 51 -18t19 -48q0 -52 -43 -93t-117 -60z" />
    <glyph glyph-name="Ncaron" unicode="&#x147;" horiz-adv-x="729" 
d="M22 0l136 700h160l179 -472l92 472h153l-136 -700h-155l-184 472l-92 -472h-153zM396 772l-117 130h152l53 -52l73 52h149l-167 -130h-143z" />
    <glyph glyph-name="ncaron" unicode="&#x148;" horiz-adv-x="595" 
d="M12 0l102 520h136l-10 -76q55 89 164 89q70 0 109 -40.5t39 -122.5q0 -16 -1.5 -36t-5.5 -37l-58 -297h-154l57 295q2 10 3.5 23t1.5 22q0 59 -60 59q-43 0 -72.5 -29.5t-39.5 -80.5l-57 -289h-154zM310 599l-97 156h127l53 -72l81 72h126l-159 -156h-131z" />
    <glyph glyph-name="Eng" unicode="&#x14a;" horiz-adv-x="730" 
d="M350 -229q-80 0 -136 32l46 129q42 -24 88 -24q45 0 70.5 29t38.5 94l73 375q5 24 6.5 42.5t1.5 31.5q0 94 -98 94q-67 0 -115 -47t-64 -129l-77 -398h-162l136 700h144l-13 -97q40 54 98.5 83.5t127.5 29.5q91 0 141 -52.5t50 -147.5q0 -16 -2.5 -38.5t-7.5 -49.5
l-81 -413q-23 -120 -90.5 -182t-174.5 -62z" />
    <glyph glyph-name="eng" unicode="&#x14b;" horiz-adv-x="595" 
d="M331 -6l59 301q2 10 3.5 23t1.5 22q0 59 -60 59q-43 0 -72.5 -29.5t-39.5 -80.5l-57 -289h-154l102 520h136l-10 -76q55 89 164 89q70 0 109 -40.5t39 -122.5q0 -16 -1.5 -36t-5.5 -37l-63 -318q-21 -106 -76 -157t-149 -51q-66 0 -120 26l44 120q35 -17 65 -17
q35 0 55 22.5t30 71.5z" />
    <glyph glyph-name="Omacron" unicode="&#x14c;" horiz-adv-x="811" 
d="M381 -16q-98 0 -170.5 38.5t-112 109t-39.5 164.5q0 91 30 168t85 133.5t129 87.5t162 31q98 0 170 -38.5t112 -108.5t40 -165q0 -91 -30 -167.5t-85 -133t-129 -88t-162 -31.5zM393 124q64 0 115 35.5t81 97t30 137.5q0 85 -44 133.5t-121 48.5q-64 0 -115.5 -35.5
t-81.5 -96.5t-30 -138q0 -85 44 -133.5t122 -48.5zM296 785l20 104h397l-20 -104h-397z" />
    <glyph glyph-name="omacron" unicode="&#x14d;" horiz-adv-x="619" 
d="M280 -13q-73 0 -127 29t-83.5 82t-29.5 124q0 91 38.5 161t106.5 110t156 40q72 0 125.5 -29t83 -81.5t29.5 -123.5q0 -92 -38 -162.5t-105.5 -110t-155.5 -39.5zM292 119q37 0 66.5 22.5t46.5 61t17 87.5q0 53 -24.5 82t-68.5 29q-37 0 -67 -22.5t-47.5 -60.5t-17.5 -86
q0 -52 26 -82.5t69 -30.5zM181 626l20 103h362l-20 -103h-362z" />
    <glyph glyph-name="Ohungarumlaut" unicode="&#x150;" horiz-adv-x="811" 
d="M381 -16q-98 0 -170.5 38.5t-112 109t-39.5 164.5q0 91 30 168t85 133.5t129 87.5t162 31q98 0 170 -38.5t112 -108.5t40 -165q0 -91 -30 -167.5t-85 -133t-129 -88t-162 -31.5zM393 124q64 0 115 35.5t81 97t30 137.5q0 85 -44 133.5t-121 48.5q-64 0 -115.5 -35.5
t-81.5 -96.5t-30 -138q0 -85 44 -133.5t122 -48.5zM306 772l167 130h176l-193 -130h-150zM547 772l166 130h174l-192 -130h-148z" />
    <glyph glyph-name="ohungarumlaut" unicode="&#x151;" horiz-adv-x="619" 
d="M280 -13q-73 0 -127 29t-83.5 82t-29.5 124q0 91 38.5 161t106.5 110t156 40q72 0 125.5 -29t83 -81.5t29.5 -123.5q0 -92 -38 -162.5t-105.5 -110t-155.5 -39.5zM292 119q37 0 66.5 22.5t46.5 61t17 87.5q0 53 -24.5 82t-68.5 29q-37 0 -67 -22.5t-47.5 -60.5t-17.5 -86
q0 -52 26 -82.5t69 -30.5zM181 599l150 156h156l-183 -156h-123zM396 599l149 156h158l-182 -156h-125z" />
    <glyph glyph-name="OE" unicode="&#x152;" horiz-adv-x="1041" 
d="M373 -16q-98 0 -168.5 37.5t-108 108t-37.5 168.5q0 91 32.5 167.5t91.5 132.5t139 87t175 31q34 0 72 -4.5t74 -11.5h419l-4 -133h-310l-28 -145h276l-25 -133h-277l-30 -156h328l-41 -133h-426q-34 -7 -73.5 -11.5t-78.5 -4.5zM227 304q0 -87 44 -133.5t126 -46.5
q61 0 111 16l83 424q-42 12 -97 12q-78 0 -138 -35t-94.5 -96t-34.5 -141z" />
    <glyph glyph-name="oe" unicode="&#x153;" horiz-adv-x="940" 
d="M272 -13q-70 0 -122 29.5t-81 83t-29 124.5q0 90 38 159.5t104 109.5t151 40q122 0 176 -85q35 41 84 63t106 22q98 0 154 -55t56 -152q0 -25 -4 -55.5t-11 -53.5h-334q9 -108 129 -108q75 0 152 43l2 -122q-77 -43 -177 -43q-131 0 -195 84q-76 -84 -199 -84zM689 419
q-40 0 -71.5 -29t-47.5 -77h197q1 11 1 20q0 41 -20.5 63.5t-58.5 22.5zM291 118q37 0 66 22.5t46 61t17 86.5q0 54 -24.5 84.5t-68.5 30.5q-37 0 -66.5 -22.5t-47 -60.5t-17.5 -86q0 -53 26 -84.5t69 -31.5z" />
    <glyph glyph-name="Racute" unicode="&#x154;" horiz-adv-x="656" 
d="M22 0l136 700h237q114 0 176 -50.5t62 -143.5q0 -78 -41.5 -136t-117.5 -89l105 -281h-166l-80 250h-15h-91l-49 -250h-156zM367 573h-78l-38 -196h78q65 0 102.5 31.5t37.5 86.5q0 78 -102 78zM308 772l167 130h183l-193 -130h-157z" />
    <glyph glyph-name="racute" unicode="&#x155;" horiz-adv-x="414" 
d="M13 0l101 520h136l-13 -101q55 111 159 111q36 0 60 -12l-34 -141q-27 10 -62 10q-53 0 -94 -42.5t-55 -113.5l-45 -231h-153zM218 599l151 156h167l-182 -156h-136z" />
    <glyph glyph-name="uni0156" unicode="&#x156;" horiz-adv-x="656" 
d="M22 0l136 700h237q114 0 176 -50.5t62 -143.5q0 -78 -41.5 -136t-117.5 -89l105 -281h-166l-80 250h-15h-91l-49 -250h-156zM367 573h-78l-38 -196h78q65 0 102.5 31.5t37.5 86.5q0 78 -102 78zM201 -284l-25 42q69 21 98 51h-5q-25 0 -42 15t-17 39q0 30 23.5 51
t57.5 21t53.5 -18t19.5 -49q0 -51 -43 -91.5t-120 -60.5z" />
    <glyph glyph-name="uni0157" unicode="&#x157;" horiz-adv-x="414" 
d="M13 0l101 520h136l-13 -101q55 111 159 111q36 0 60 -12l-34 -141q-27 10 -62 10q-53 0 -94 -42.5t-55 -113.5l-45 -231h-153zM-23 -284l-24 41q70 21 99 53h-8q-25 0 -41 15t-16 39q0 29 23.5 50t56.5 21q32 0 51 -18t19 -48q0 -52 -43 -93t-117 -60z" />
    <glyph glyph-name="Rcaron" unicode="&#x158;" horiz-adv-x="656" 
d="M22 0l136 700h237q114 0 176 -50.5t62 -143.5q0 -78 -41.5 -136t-117.5 -89l105 -281h-166l-80 250h-15h-91l-49 -250h-156zM367 573h-78l-38 -196h78q65 0 102.5 31.5t37.5 86.5q0 78 -102 78zM341 772l-117 130h152l53 -52l73 52h149l-167 -130h-143z" />
    <glyph glyph-name="rcaron" unicode="&#x159;" horiz-adv-x="414" 
d="M13 0l101 520h136l-13 -101q55 111 159 111q36 0 60 -12l-34 -141q-27 10 -62 10q-53 0 -94 -42.5t-55 -113.5l-45 -231h-153zM241 599l-97 156h127l53 -72l81 72h126l-159 -156h-131z" />
    <glyph glyph-name="Sacute" unicode="&#x15a;" horiz-adv-x="595" 
d="M244 -16q-68 0 -134 18t-120 50l47 128q44 -31 97 -47.5t109 -16.5q134 0 134 92q0 21 -9 33t-33 22t-69 25q-59 20 -98.5 44t-59.5 58.5t-20 86.5q0 73 36 126.5t99.5 83t147.5 29.5q64 0 124 -17t106 -48l-49 -123q-38 26 -85.5 41t-93.5 15q-56 0 -89.5 -23t-33.5 -63
q0 -33 25.5 -47t83.5 -34q58 -19 98.5 -41.5t62 -57t21.5 -90.5q0 -74 -37 -129t-103.5 -85t-156.5 -30zM303 772l167 130h183l-193 -130h-157z" />
    <glyph glyph-name="sacute" unicode="&#x15b;" horiz-adv-x="480" 
d="M183 -13q-113 0 -197 54l45 116q78 -50 153 -50q42 0 65 13t23 36q0 19 -16 29.5t-71 25.5q-72 20 -105 55t-33 90q0 53 29.5 93t82.5 62t123 22q51 0 100 -12.5t86 -35.5l-46 -114q-30 20 -67 31t-72 11q-84 0 -84 -45q0 -17 17.5 -28.5t70.5 -25.5q71 -19 104 -53.5
t33 -89.5t-30 -96.5t-84.5 -64.5t-126.5 -23zM223 599l151 156h167l-182 -156h-136z" />
    <glyph glyph-name="Scedilla" unicode="&#x15e;" horiz-adv-x="595" 
d="M244 -16q-68 0 -134 18t-120 50l47 128q44 -31 97 -47.5t109 -16.5q134 0 134 92q0 21 -9 33t-33 22t-69 25q-59 20 -98.5 44t-59.5 58.5t-20 86.5q0 73 36 126.5t99.5 83t147.5 29.5q64 0 124 -17t106 -48l-49 -123q-38 26 -85.5 41t-93.5 15q-56 0 -89.5 -23t-33.5 -63
q0 -33 25.5 -47t83.5 -34q58 -19 98.5 -41.5t62 -57t21.5 -90.5q0 -74 -37 -129t-103.5 -85t-156.5 -30zM209 -229q-26 0 -54 5t-50 12l30 70q33 -12 70 -12q30 0 48 8t18 21q0 22 -53 22q-28 0 -50 -5l54 123h74l-28 -59h4q45 0 71 -20.5t26 -57.5q0 -49 -43.5 -78
t-116.5 -29z" />
    <glyph glyph-name="scedilla" unicode="&#x15f;" horiz-adv-x="480" 
d="M183 -13q-113 0 -197 54l45 116q78 -50 153 -50q42 0 65 13t23 36q0 19 -16 29.5t-71 25.5q-72 20 -105 55t-33 90q0 53 29.5 93t82.5 62t123 22q51 0 100 -12.5t86 -35.5l-46 -114q-30 20 -67 31t-72 11q-84 0 -84 -45q0 -17 17.5 -28.5t70.5 -25.5q71 -19 104 -53.5
t33 -89.5t-30 -96.5t-84.5 -64.5t-126.5 -23zM156 -229q-27 0 -54 5t-49 13l31 67q36 -15 71 -15q28 0 45 9.5t17 24.5q0 24 -54 24q-27 0 -49 -5l54 121h74l-29 -61h3q44 0 69.5 -19.5t25.5 -54.5q0 -50 -42 -79.5t-113 -29.5z" />
    <glyph glyph-name="Scaron" unicode="&#x160;" horiz-adv-x="595" 
d="M244 -16q-68 0 -134 18t-120 50l47 128q44 -31 97 -47.5t109 -16.5q134 0 134 92q0 21 -9 33t-33 22t-69 25q-59 20 -98.5 44t-59.5 58.5t-20 86.5q0 73 36 126.5t99.5 83t147.5 29.5q64 0 124 -17t106 -48l-49 -123q-38 26 -85.5 41t-93.5 15q-56 0 -89.5 -23t-33.5 -63
q0 -33 25.5 -47t83.5 -34q58 -19 98.5 -41.5t62 -57t21.5 -90.5q0 -74 -37 -129t-103.5 -85t-156.5 -30zM336 772l-117 130h152l53 -52l73 52h149l-167 -130h-143z" />
    <glyph glyph-name="scaron" unicode="&#x161;" horiz-adv-x="480" 
d="M183 -13q-113 0 -197 54l45 116q78 -50 153 -50q42 0 65 13t23 36q0 19 -16 29.5t-71 25.5q-72 20 -105 55t-33 90q0 53 29.5 93t82.5 62t123 22q51 0 100 -12.5t86 -35.5l-46 -114q-30 20 -67 31t-72 11q-84 0 -84 -45q0 -17 17.5 -28.5t70.5 -25.5q71 -19 104 -53.5
t33 -89.5t-30 -96.5t-84.5 -64.5t-126.5 -23zM246 599l-97 156h127l53 -72l81 72h126l-159 -156h-131z" />
    <glyph glyph-name="uni0162" unicode="&#x162;" horiz-adv-x="618" 
d="M178 0l109 561h-212l27 139h586l-27 -139h-212l-109 -561h-162zM218 -229q-26 0 -54 5t-50 12l30 70q33 -12 70 -12q30 0 48 8t18 21q0 22 -53 22q-28 0 -50 -5l54 123h74l-28 -59h4q45 0 71 -20.5t26 -57.5q0 -49 -43.5 -78t-116.5 -29z" />
    <glyph glyph-name="uni0163" unicode="&#x163;" horiz-adv-x="441" 
d="M251 -10q-76 0 -115.5 37.5t-39.5 108.5q0 38 8 78l35 182h-103l39 124h89l32 167h154l-32 -167h137l-24 -124h-138l-35 -182q-5 -30 -5 -49q0 -44 47 -44q33 0 78 19l-7 -125q-53 -25 -120 -25zM198 -229q-27 0 -54 5t-49 13l31 67q36 -15 71 -15q28 0 45 9.5t17 24.5
q0 24 -54 24q-27 0 -49 -5l54 121h74l-29 -61h3q44 0 69.5 -19.5t25.5 -54.5q0 -50 -42 -79.5t-113 -29.5z" />
    <glyph glyph-name="Tcaron" unicode="&#x164;" horiz-adv-x="618" 
d="M178 0l109 561h-212l27 139h586l-27 -139h-212l-109 -561h-162zM338 772l-117 130h152l53 -52l73 52h149l-167 -130h-143z" />
    <glyph glyph-name="tcaron" unicode="&#x165;" horiz-adv-x="441" 
d="M251 -10q-76 0 -115.5 37.5t-39.5 108.5q0 38 8 78l35 182h-103l39 124h89l32 167h154l-32 -167h137l-24 -124h-138l-35 -182q-5 -30 -5 -49q0 -44 47 -44q33 0 78 19l-7 -125q-53 -25 -120 -25zM378 566q14 51 25.5 95.5t18.5 78.5h142q-10 -40 -27 -88t-35 -86h-124z
" />
    <glyph glyph-name="Tbar" unicode="&#x166;" horiz-adv-x="618" 
d="M178 0l50 256h-121l22 114h121l37 191h-212l27 139h586l-27 -139h-212l-37 -191h117l-21 -114h-118l-50 -256h-162z" />
    <glyph glyph-name="tbar" unicode="&#x167;" horiz-adv-x="441" 
d="M11 223l18 92h95l15 81h-103l39 124h89l32 167h154l-32 -167h137l-24 -124h-138l-15 -81h137l-18 -92h-137l-2 -9q-5 -30 -5 -49q0 -44 47 -44q33 0 78 19l-7 -125q-53 -25 -120 -25q-76 0 -115.5 37.5t-39.5 108.5q0 38 8 78l2 9h-95z" />
    <glyph glyph-name="Utilde" unicode="&#x168;" horiz-adv-x="719" 
d="M326 -16q-127 0 -194 58t-67 168q0 15 2 34.5t5 36.5l81 419h162l-79 -408q-7 -34 -7 -63q0 -106 109 -106q67 0 103 39t54 130l80 408h162l-82 -422q-29 -151 -109 -222.5t-220 -71.5zM350 770l-98 11q14 68 54 103.5t100 35.5q26 0 44.5 -5.5t43.5 -21.5
q20 -13 31 -17.5t23 -4.5q36 0 46 49l98 -11q-14 -67 -54 -103t-100 -36q-25 0 -42.5 5.5t-45.5 21.5q-21 12 -32 16.5t-22 4.5q-36 0 -46 -48z" />
    <glyph glyph-name="utilde" unicode="&#x169;" horiz-adv-x="590" 
d="M193 -13q-70 0 -110.5 42.5t-40.5 115.5q0 17 2 34.5t6 36.5l60 304h154l-58 -294q-4 -17 -4.5 -27.5t-0.5 -17.5q0 -58 57 -58q42 0 71 28.5t39 79.5l56 289h154l-101 -520h-137l10 76q-54 -89 -157 -89zM254 598l-92 11q14 72 52 110t95 38q24 0 43 -8t42 -27
q18 -14 27.5 -19.5t20.5 -5.5q35 0 48 60l92 -12q-31 -147 -145 -147q-25 0 -44 8t-42 27q-18 15 -28.5 20.5t-21.5 5.5q-35 0 -47 -61z" />
    <glyph glyph-name="Umacron" unicode="&#x16a;" horiz-adv-x="719" 
d="M326 -16q-127 0 -194 58t-67 168q0 15 2 34.5t5 36.5l81 419h162l-79 -408q-7 -34 -7 -63q0 -106 109 -106q67 0 103 39t54 130l80 408h162l-82 -422q-29 -151 -109 -222.5t-220 -71.5zM255 785l20 104h397l-20 -104h-397z" />
    <glyph glyph-name="umacron" unicode="&#x16b;" horiz-adv-x="590" 
d="M193 -13q-70 0 -110.5 42.5t-40.5 115.5q0 17 2 34.5t6 36.5l60 304h154l-58 -294q-4 -17 -4.5 -27.5t-0.5 -17.5q0 -58 57 -58q42 0 71 28.5t39 79.5l56 289h154l-101 -520h-137l10 76q-54 -89 -157 -89zM178 626l20 103h362l-20 -103h-362z" />
    <glyph glyph-name="Uring" unicode="&#x16e;" horiz-adv-x="719" 
d="M326 -16q-127 0 -194 58t-67 168q0 15 2 34.5t5 36.5l81 419h162l-79 -408q-7 -34 -7 -63q0 -106 109 -106q67 0 103 39t54 130l80 408h162l-82 -422q-29 -151 -109 -222.5t-220 -71.5zM454 759q-48 0 -77.5 27.5t-29.5 73.5q0 53 36.5 86.5t92.5 33.5q47 0 77.5 -27.5
t30.5 -70.5q0 -53 -37 -88t-93 -35zM461 818q25 0 40.5 16t15.5 40q0 47 -47 47q-24 0 -40 -15.5t-16 -40.5q0 -22 12.5 -34.5t34.5 -12.5z" />
    <glyph glyph-name="uring" unicode="&#x16f;" horiz-adv-x="590" 
d="M193 -13q-70 0 -110.5 42.5t-40.5 115.5q0 17 2 34.5t6 36.5l60 304h154l-58 -294q-4 -17 -4.5 -27.5t-0.5 -17.5q0 -58 57 -58q42 0 71 28.5t39 79.5l56 289h154l-101 -520h-137l10 76q-54 -89 -157 -89zM361 586q-49 0 -78.5 28t-29.5 74q0 53 36.5 87t92.5 34
q47 0 77.5 -27.5t30.5 -71.5q0 -54 -36.5 -89t-92.5 -35zM366 642q26 0 43.5 17t17.5 43q0 52 -50 52q-26 0 -43 -17.5t-17 -44.5q0 -22 13.5 -36t35.5 -14z" />
    <glyph glyph-name="Uhungarumlaut" unicode="&#x170;" horiz-adv-x="719" 
d="M326 -16q-127 0 -194 58t-67 168q0 15 2 34.5t5 36.5l81 419h162l-79 -408q-7 -34 -7 -63q0 -106 109 -106q67 0 103 39t54 130l80 408h162l-82 -422q-29 -151 -109 -222.5t-220 -71.5zM265 772l167 130h176l-193 -130h-150zM506 772l166 130h174l-192 -130h-148z" />
    <glyph glyph-name="uhungarumlaut" unicode="&#x171;" horiz-adv-x="590" 
d="M193 -13q-70 0 -110.5 42.5t-40.5 115.5q0 17 2 34.5t6 36.5l60 304h154l-58 -294q-4 -17 -4.5 -27.5t-0.5 -17.5q0 -58 57 -58q42 0 71 28.5t39 79.5l56 289h154l-101 -520h-137l10 76q-54 -89 -157 -89zM178 599l150 156h156l-183 -156h-123zM393 599l149 156h158
l-182 -156h-125z" />
    <glyph glyph-name="Uogonek" unicode="&#x172;" horiz-adv-x="719" 
d="M326 -16q-127 0 -194 58t-67 168q0 15 2 34.5t5 36.5l81 419h162l-79 -408q-7 -34 -7 -63q0 -106 109 -106q67 0 103 39t54 130l80 408h162l-82 -422q-29 -151 -109 -222.5t-220 -71.5zM324 -229q-49 0 -78.5 23t-29.5 63q0 110 227 181l44 -22q-91 -40 -130 -70t-39 -59
q0 -31 43 -31q32 0 63 12l1 -80q-50 -17 -101 -17z" />
    <glyph glyph-name="uogonek" unicode="&#x173;" horiz-adv-x="590" 
d="M193 -13q-70 0 -110.5 42.5t-40.5 115.5q0 17 2 34.5t6 36.5l60 304h154l-58 -294q-4 -17 -4.5 -27.5t-0.5 -17.5q0 -58 57 -58q42 0 71 28.5t39 79.5l56 289h154l-101 -520h-137l10 76q-54 -89 -157 -89zM341 -229q-48 0 -76.5 23t-28.5 62q0 51 51.5 95t145.5 75
l44 -26q-65 -24 -102 -55t-37 -62q0 -33 35 -33q30 0 63 12l4 -74q-48 -17 -99 -17z" />
    <glyph glyph-name="Wcircumflex" unicode="&#x174;" horiz-adv-x="990" 
d="M154 0l-54 700h168l14 -505l222 505h157l26 -503l206 503h169l-326 -700h-161l-26 516l-232 -516h-163zM382 772l168 130h142l118 -130h-152l-53 52l-73 -52h-150z" />
    <glyph glyph-name="wcircumflex" unicode="&#x175;" horiz-adv-x="830" 
d="M118 0l-56 520h161l6 -370l160 370h151l18 -372l152 372h158l-256 -520h-156l-19 364l-159 -364h-160zM284 599l159 156h131l97 -156h-125l-53 72l-81 -72h-128z" />
    <glyph glyph-name="Ycircumflex" unicode="&#x176;" horiz-adv-x="689" 
d="M214 0l54 276l-169 424h173l97 -296l206 296h187l-332 -424l-54 -276h-162zM224 772l168 130h142l118 -130h-152l-53 52l-73 -52h-150z" />
    <glyph glyph-name="ycircumflex" unicode="&#x177;" horiz-adv-x="578" 
d="M52 -229q-32 0 -60.5 6t-48.5 18l38 122q32 -17 71 -17q72 0 112 75l13 24l-117 521h163l57 -369l177 369h164l-313 -557q-40 -72 -77.5 -114t-79.5 -60t-99 -18zM159 599l159 156h131l97 -156h-125l-53 72l-81 -72h-128z" />
    <glyph glyph-name="Ydieresis" unicode="&#x178;" horiz-adv-x="689" 
d="M214 0l54 276l-169 424h173l97 -296l206 296h187l-332 -424l-54 -276h-162zM315 769q-30 0 -48 18t-18 49q0 35 23.5 58.5t58.5 23.5q30 0 49 -18.5t19 -47.5q0 -36 -24 -59.5t-60 -23.5zM553 769q-30 0 -48 18t-18 49q0 35 24 58.5t59 23.5q29 0 48 -18.5t19 -47.5
q0 -36 -24 -59.5t-60 -23.5z" />
    <glyph glyph-name="Zacute" unicode="&#x179;" horiz-adv-x="641" 
d="M-7 0l24 123l435 444h-333l40 133h518l-23 -123l-432 -444h358l-40 -133h-547zM328 772l167 130h183l-193 -130h-157z" />
    <glyph glyph-name="zacute" unicode="&#x17a;" horiz-adv-x="518" 
d="M-11 0l23 113l298 285h-241l38 122h413l-23 -112l-294 -286h254l-39 -122h-429zM242 599l151 156h167l-182 -156h-136z" />
    <glyph glyph-name="Zdotaccent" unicode="&#x17b;" horiz-adv-x="641" 
d="M-7 0l24 123l435 444h-333l40 133h518l-23 -123l-432 -444h358l-40 -133h-547zM434 767q-31 0 -50 19.5t-19 50.5q0 37 24.5 61t60.5 24q32 0 51 -19t19 -50q0 -37 -24.5 -61.5t-61.5 -24.5z" />
    <glyph glyph-name="zdotaccent" unicode="&#x17c;" horiz-adv-x="518" 
d="M-11 0l23 113l298 285h-241l38 122h413l-23 -112l-294 -286h254l-39 -122h-429zM334 603q-31 0 -49.5 18.5t-18.5 49.5q0 36 24.5 59.5t59.5 23.5q29 0 48.5 -18t19.5 -50q0 -35 -24 -59t-60 -24z" />
    <glyph glyph-name="Zcaron" unicode="&#x17d;" horiz-adv-x="641" 
d="M-7 0l24 123l435 444h-333l40 133h518l-23 -123l-432 -444h358l-40 -133h-547zM361 772l-117 130h152l53 -52l73 52h149l-167 -130h-143z" />
    <glyph glyph-name="zcaron" unicode="&#x17e;" horiz-adv-x="518" 
d="M-11 0l23 113l298 285h-241l38 122h413l-23 -112l-294 -286h254l-39 -122h-429zM265 599l-97 156h127l53 -72l81 72h126l-159 -156h-131z" />
    <glyph glyph-name="uni0218" unicode="&#x218;" horiz-adv-x="595" 
d="M244 -16q-68 0 -134 18t-120 50l47 128q44 -31 97 -47.5t109 -16.5q134 0 134 92q0 21 -9 33t-33 22t-69 25q-59 20 -98.5 44t-59.5 58.5t-20 86.5q0 73 36 126.5t99.5 83t147.5 29.5q64 0 124 -17t106 -48l-49 -123q-38 26 -85.5 41t-93.5 15q-56 0 -89.5 -23t-33.5 -63
q0 -33 25.5 -47t83.5 -34q58 -19 98.5 -41.5t62 -57t21.5 -90.5q0 -74 -37 -129t-103.5 -85t-156.5 -30zM144 -284l-25 42q69 21 98 51h-5q-25 0 -42 15t-17 39q0 30 23.5 51t57.5 21t53.5 -18t19.5 -49q0 -51 -43 -91.5t-120 -60.5z" />
    <glyph glyph-name="uni0219" unicode="&#x219;" horiz-adv-x="480" 
d="M183 -13q-113 0 -197 54l45 116q78 -50 153 -50q42 0 65 13t23 36q0 19 -16 29.5t-71 25.5q-72 20 -105 55t-33 90q0 53 29.5 93t82.5 62t123 22q51 0 100 -12.5t86 -35.5l-46 -114q-30 20 -67 31t-72 11q-84 0 -84 -45q0 -17 17.5 -28.5t70.5 -25.5q71 -19 104 -53.5
t33 -89.5t-30 -96.5t-84.5 -64.5t-126.5 -23zM87 -284l-24 41q70 21 99 53h-8q-25 0 -41 15t-16 39q0 29 23.5 50t56.5 21q32 0 51 -18t19 -48q0 -52 -43 -93t-117 -60z" />
    <glyph glyph-name="uni021A" unicode="&#x21a;" horiz-adv-x="618" 
d="M178 0l109 561h-212l27 139h586l-27 -139h-212l-109 -561h-162zM153 -284l-25 42q69 21 98 51h-5q-25 0 -42 15t-17 39q0 30 23.5 51t57.5 21t53.5 -18t19.5 -49q0 -51 -43 -91.5t-120 -60.5z" />
    <glyph glyph-name="uni021B" unicode="&#x21b;" horiz-adv-x="441" 
d="M251 -10q-76 0 -115.5 37.5t-39.5 108.5q0 38 8 78l35 182h-103l39 124h89l32 167h154l-32 -167h137l-24 -124h-138l-35 -182q-5 -30 -5 -49q0 -44 47 -44q33 0 78 19l-7 -125q-53 -25 -120 -25zM130 -284l-24 41q70 21 99 53h-8q-25 0 -41 15t-16 39q0 29 23.5 50
t56.5 21q32 0 51 -18t19 -48q0 -52 -43 -93t-117 -60z" />
    <glyph glyph-name="uni0237" unicode="&#x237;" horiz-adv-x="279" 
d="M-64 -229q-66 0 -120 26l44 120q35 -17 65 -17q35 0 55 22.5t30 71.5l102 526h154l-105 -541q-20 -106 -75.5 -157t-149.5 -51z" />
    <glyph glyph-name="circumflex" unicode="&#x2c6;" horiz-adv-x="500" 
d="M123 599l159 156h131l97 -156h-125l-53 72l-81 -72h-128z" />
    <glyph glyph-name="caron" unicode="&#x2c7;" horiz-adv-x="500" 
d="M250 599l-97 156h127l53 -72l81 72h126l-159 -156h-131z" />
    <glyph glyph-name="breve" unicode="&#x2d8;" horiz-adv-x="500" 
d="M323 597q-70 0 -109 32.5t-39 90.5q0 13 2 23l98 11v-15q0 -26 15 -41t42 -15q67 0 83 71l97 -11q-35 -146 -189 -146z" />
    <glyph glyph-name="dotaccent" unicode="&#x2d9;" horiz-adv-x="500" 
d="M324 603q-31 0 -49.5 18.5t-18.5 49.5q0 36 24.5 59.5t59.5 23.5q29 0 48.5 -18t19.5 -50q0 -35 -24 -59t-60 -24z" />
    <glyph glyph-name="ring" unicode="&#x2da;" horiz-adv-x="500" 
d="M325 586q-49 0 -78.5 28t-29.5 74q0 53 36.5 87t92.5 34q47 0 77.5 -27.5t30.5 -71.5q0 -54 -36.5 -89t-92.5 -35zM330 642q26 0 43.5 17t17.5 43q0 52 -50 52q-26 0 -43 -17.5t-17 -44.5q0 -22 13.5 -36t35.5 -14z" />
    <glyph glyph-name="ogonek" unicode="&#x2db;" horiz-adv-x="500" 
d="M170 -229q-48 0 -76.5 23t-28.5 62q0 51 51.5 95t145.5 75l44 -26q-65 -24 -102 -55t-37 -62q0 -33 35 -33q30 0 63 12l4 -74q-48 -17 -99 -17z" />
    <glyph glyph-name="tilde" unicode="&#x2dc;" horiz-adv-x="500" 
d="M213 598l-92 11q14 72 52 110t95 38q24 0 43 -8t42 -27q18 -14 27.5 -19.5t20.5 -5.5q35 0 48 60l92 -12q-31 -147 -145 -147q-25 0 -44 8t-42 27q-18 15 -28.5 20.5t-21.5 5.5q-35 0 -47 -61z" />
    <glyph glyph-name="hungarumlaut" unicode="&#x2dd;" horiz-adv-x="500" 
d="M72 599l150 156h156l-183 -156h-123zM287 599l149 156h158l-182 -156h-125z" />
    <glyph glyph-name="gravecomb" unicode="&#x300;" 
d="M17 599l-120 156h160l88 -156h-128z" />
    <glyph glyph-name="acutecomb" unicode="&#x301;" 
d="M-30 599l151 156h167l-182 -156h-136z" />
    <glyph glyph-name="uni0302" unicode="&#x302;" 
d="M-129 599l159 156h131l97 -156h-125l-53 72l-81 -72h-128z" />
    <glyph glyph-name="tildecomb" unicode="&#x303;" 
d="M-43 598l-92 11q14 72 52 110t95 38q24 0 43 -8t42 -27q18 -14 27.5 -19.5t20.5 -5.5q35 0 48 60l92 -12q-31 -147 -145 -147q-25 0 -44 8t-42 27q-18 15 -28.5 20.5t-21.5 5.5q-35 0 -47 -61z" />
    <glyph glyph-name="uni0304" unicode="&#x304;" 
d="M-120 626l20 103h362l-20 -103h-362z" />
    <glyph glyph-name="uni0306" unicode="&#x306;" 
d="M72 597q-70 0 -109 32.5t-39 90.5q0 13 2 23l98 11v-15q0 -26 15 -41t42 -15q67 0 83 71l97 -11q-35 -146 -189 -146z" />
    <glyph glyph-name="uni0307" unicode="&#x307;" 
d="M63 603q-31 0 -49.5 18.5t-18.5 49.5q0 36 24.5 59.5t59.5 23.5q29 0 48.5 -18t19.5 -50q0 -35 -24 -59t-60 -24z" />
    <glyph glyph-name="uni0308" unicode="&#x308;" 
d="M-40 606q-30 0 -47.5 17.5t-17.5 47.5q0 35 23 57.5t57 22.5q29 0 47.5 -17.5t18.5 -46.5q0 -34 -23 -57.5t-58 -23.5zM183 606q-29 0 -46.5 17.5t-17.5 47.5q0 35 23 57.5t57 22.5q29 0 47.5 -17.5t18.5 -46.5q0 -35 -23.5 -58t-58.5 -23z" />
    <glyph glyph-name="uni030A" unicode="&#x30a;" 
d="M65 586q-49 0 -78.5 28t-29.5 74q0 53 36.5 87t92.5 34q47 0 77.5 -27.5t30.5 -71.5q0 -54 -36.5 -89t-92.5 -35zM70 642q26 0 43.5 17t17.5 43q0 52 -50 52q-26 0 -43 -17.5t-17 -44.5q0 -22 13.5 -36t35.5 -14z" />
    <glyph glyph-name="uni030B" unicode="&#x30b;" 
d="M-120 599l150 156h156l-183 -156h-123zM95 599l149 156h158l-182 -156h-125z" />
    <glyph glyph-name="uni030C" unicode="&#x30c;" 
d="M-7 599l-97 156h127l53 -72l81 72h126l-159 -156h-131z" />
    <glyph glyph-name="uni0312" unicode="&#x312;" 
d="M163 818l24 -41q-71 -21 -100 -53h8q26 0 42 -15t16 -39q0 -30 -23 -50.5t-58 -20.5q-31 0 -49.5 18t-18.5 48q0 53 43 93.5t116 59.5z" />
    <glyph glyph-name="uni0315" unicode="&#x315;" 
d="M-22 531q20 70 50 209h142q-14 -57 -32.5 -113t-35.5 -96h-124z" />
    <glyph glyph-name="dotbelowcomb" unicode="&#x323;" 
d="M-88 -218q-31 0 -49.5 19t-18.5 50q0 35 24 59.5t60 24.5q31 0 50 -19t19 -49q0 -37 -24 -61t-61 -24z" />
    <glyph glyph-name="uni0326" unicode="&#x326;" 
d="M-161 -284l-24 41q70 21 99 53h-8q-25 0 -41 15t-16 39q0 29 23.5 50t56.5 21q32 0 51 -18t19 -48q0 -52 -43 -93t-117 -60z" />
    <glyph glyph-name="uni0327" unicode="&#x327;" 
d="M-92 -229q-27 0 -54 5t-49 13l31 67q36 -15 71 -15q28 0 45 9.5t17 24.5q0 24 -54 24q-27 0 -49 -5l54 121h74l-29 -61h3q44 0 69.5 -19.5t25.5 -54.5q0 -50 -42 -79.5t-113 -29.5z" />
    <glyph glyph-name="uni0328" unicode="&#x328;" 
d="M-134 -229q-48 0 -76.5 23t-28.5 62q0 51 51.5 95t145.5 75l44 -26q-65 -24 -102 -55t-37 -62q0 -33 35 -33q30 0 63 12l4 -74q-48 -17 -99 -17z" />
    <glyph glyph-name="uni0344" unicode="&#x344;" 
d="M-6 602l95 206h155l-133 -206h-117zM-90 606q-29 0 -47 17.5t-18 47.5q0 35 23 57.5t58 22.5q29 0 47.5 -17.5t18.5 -46.5q0 -34 -23.5 -57.5t-58.5 -23.5zM268 606q-29 0 -46.5 17.5t-17.5 47.5q0 35 23 57.5t57 22.5q29 0 47.5 -17.5t18.5 -46.5q0 -34 -23.5 -57.5
t-58.5 -23.5z" />
    <glyph glyph-name="uni0374" unicode="&#x374;" horiz-adv-x="268" 
d="M72 467l117 273h172l-152 -273h-137z" />
    <glyph glyph-name="uni0375" unicode="&#x375;" horiz-adv-x="268" 
d="M-71 -104l152 273h137l-117 -273h-172z" />
    <glyph glyph-name="uni037E" unicode="&#x37e;" horiz-adv-x="280" 
d="M-7 -177l-34 58q43 15 77 44t54 65q-35 1 -57.5 23t-22.5 57q0 43 30 72.5t73 29.5q41 0 64.5 -26.5t23.5 -73.5q0 -51 -27.5 -100.5t-74.5 -89t-106 -59.5zM165 348q-38 0 -61.5 22t-23.5 59q0 43 30.5 72t74.5 29q38 0 61 -22t23 -60q0 -43 -29.5 -71.5t-74.5 -28.5z
" />
    <glyph glyph-name="tonos" unicode="&#x384;" horiz-adv-x="500" 
d="M203 602l102 206h164l-141 -206h-125z" />
    <glyph glyph-name="dieresistonos" unicode="&#x385;" horiz-adv-x="500" 
d="M228 602l95 206h155l-133 -206h-117zM144 606q-29 0 -47 17.5t-18 47.5q0 35 23 57.5t58 22.5q29 0 47.5 -17.5t18.5 -46.5q0 -34 -23.5 -57.5t-58.5 -23.5zM502 606q-29 0 -46.5 17.5t-17.5 47.5q0 35 23 57.5t57 22.5q29 0 47.5 -17.5t18.5 -46.5q0 -34 -23.5 -57.5
t-58.5 -23.5z" />
    <glyph glyph-name="Alphatonos" unicode="&#x386;" horiz-adv-x="724" 
d="M-39 0l401 700h169l130 -700h-174l-20 149h-252l-78 -149h-176zM285 281h164l-34 248zM-31 458l87 242h163l-125 -242h-125z" />
    <glyph glyph-name="anoteleia" unicode="&#x387;" horiz-adv-x="280" 
d="M165 348q-38 0 -61.5 22t-23.5 59q0 43 30.5 72t74.5 29q38 0 61 -22t23 -60q0 -43 -29.5 -71.5t-74.5 -28.5z" />
    <glyph glyph-name="Epsilontonos" unicode="&#x388;" horiz-adv-x="595" 
d="M22 0l136 700h458l-4 -133h-322l-28 -145h288l-25 -133h-289l-31 -156h341l-41 -133h-483zM-164 458l87 242h163l-125 -242h-125z" />
    <glyph glyph-name="Etatonos" unicode="&#x389;" horiz-adv-x="739" 
d="M22 0l136 700h162l-53 -275h270l53 275h162l-136 -700h-162l55 284h-270l-55 -284h-162zM-164 458l87 242h163l-125 -242h-125z" />
    <glyph glyph-name="Iotatonos" unicode="&#x38a;" horiz-adv-x="307" 
d="M22 0l136 700h162l-136 -700h-162zM-164 458l87 242h163l-125 -242h-125z" />
    <glyph glyph-name="Omicrontonos" unicode="&#x38c;" horiz-adv-x="811" 
d="M381 -16q-98 0 -170.5 38.5t-112 109t-39.5 164.5q0 91 30 168t85 133.5t129 87.5t162 31q98 0 170 -38.5t112 -108.5t40 -165q0 -91 -30 -167.5t-85 -133t-129 -88t-162 -31.5zM393 124q64 0 115 35.5t81 97t30 137.5q0 85 -44 133.5t-121 48.5q-64 0 -115.5 -35.5
t-81.5 -96.5t-30 -138q0 -85 44 -133.5t122 -48.5zM-138 458l87 242h163l-125 -242h-125z" />
    <glyph glyph-name="Upsilontonos" unicode="&#x38e;" horiz-adv-x="689" 
d="M214 0l54 276l-169 424h173l97 -296l206 296h187l-332 -424l-54 -276h-162zM-218 458l87 242h163l-125 -242h-125z" />
    <glyph glyph-name="Omegatonos" unicode="&#x38f;" horiz-adv-x="814" 
d="M4 0l26 133h148q-53 43 -76.5 101t-23.5 121q0 75 29.5 140.5t82 115.5t121 78t145.5 28q93 0 164.5 -37t112 -104t40.5 -157q0 -86 -45 -161t-121 -125h129l-41 -133h-290l25 126q49 19 88.5 63.5t63 102t23.5 113.5q0 76 -40.5 123.5t-116.5 47.5q-59 0 -104 -34.5
t-70.5 -92.5t-25.5 -130q0 -66 21.5 -118t55.5 -75l-25 -126h-296zM-128 458l87 242h163l-125 -242h-125z" />
    <glyph glyph-name="iotadieresistonos" unicode="&#x390;" horiz-adv-x="337" 
d="M157 -10q-60 0 -91.5 32.5t-31.5 92.5q0 14 2 28.5t5 31.5l66 345h154l-62 -322q-5 -22 -5 -39q0 -22 12 -30t36 -8q19 0 43 10l-6 -118q-31 -12 -57.5 -17.5t-64.5 -5.5zM128 602l95 206h155l-133 -206h-117zM44 606q-29 0 -47 17.5t-18 47.5q0 35 23 57.5t58 22.5
q29 0 47.5 -17.5t18.5 -46.5q0 -34 -23.5 -57.5t-58.5 -23.5zM402 606q-29 0 -46.5 17.5t-17.5 47.5q0 35 23 57.5t57 22.5q29 0 47.5 -17.5t18.5 -46.5q0 -34 -23.5 -57.5t-58.5 -23.5z" />
    <glyph glyph-name="Alpha" unicode="&#x391;" horiz-adv-x="724" 
d="M-39 0l401 700h169l130 -700h-174l-20 149h-252l-78 -149h-176zM285 281h164l-34 248z" />
    <glyph glyph-name="Beta" unicode="&#x392;" horiz-adv-x="659" 
d="M22 0l136 700h255q108 0 166 -41.5t58 -118.5q0 -63 -39 -109.5t-105 -65.5q54 -12 85 -49t31 -91q0 -67 -37.5 -118t-104.5 -79t-157 -28h-288zM384 578h-96l-30 -158h95q58 0 90.5 25t32.5 69q0 64 -92 64zM345 303h-110l-35 -181h118q63 0 98.5 27.5t35.5 76.5
q0 77 -107 77z" />
    <glyph glyph-name="Gamma" unicode="&#x393;" horiz-adv-x="544" 
d="M22 0l137 700h431l-5 -139h-292l-109 -561h-162z" />
    <glyph glyph-name="uni0394" unicode="&#x394;" horiz-adv-x="717" 
d="M-19 0l21 107l356 593h170l127 -593l-21 -107h-653zM181 131h299l-70 406z" />
    <glyph glyph-name="Epsilon" unicode="&#x395;" horiz-adv-x="595" 
d="M22 0l136 700h458l-4 -133h-322l-28 -145h288l-25 -133h-289l-31 -156h341l-41 -133h-483z" />
    <glyph glyph-name="Zeta" unicode="&#x396;" horiz-adv-x="641" 
d="M-7 0l24 123l435 444h-333l40 133h518l-23 -123l-432 -444h358l-40 -133h-547z" />
    <glyph glyph-name="Eta" unicode="&#x397;" horiz-adv-x="739" 
d="M22 0l136 700h162l-53 -275h270l53 275h162l-136 -700h-162l55 284h-270l-55 -284h-162z" />
    <glyph glyph-name="Theta" unicode="&#x398;" horiz-adv-x="810" 
d="M380 -16q-97 0 -169.5 38.5t-112 108.5t-39.5 165q0 91 30 168t85 133.5t129 87.5t162 31q98 0 170 -38.5t111.5 -108.5t39.5 -165q0 -91 -30 -167.5t-85 -133t-129 -88t-162 -31.5zM392 124q64 0 115 35.5t80.5 97t29.5 137.5q0 86 -43.5 134t-120.5 48
q-64 0 -115.5 -35.5t-81 -96.5t-29.5 -138q0 -85 43.5 -133.5t121.5 -48.5zM285 288l26 133h243l-26 -133h-243z" />
    <glyph glyph-name="Iota" unicode="&#x399;" horiz-adv-x="307" 
d="M22 0l136 700h162l-136 -700h-162z" />
    <glyph glyph-name="Kappa" unicode="&#x39a;" horiz-adv-x="702" 
d="M22 0l136 700h162l-59 -304l301 304h190l-297 -285l184 -415h-177l-128 297l-113 -108l-37 -189h-162z" />
    <glyph glyph-name="Lambda" unicode="&#x39b;" horiz-adv-x="698" 
d="M-39 0l388 700h169l117 -700h-174l-61 519l-263 -519h-176z" />
    <glyph glyph-name="Mu" unicode="&#x39c;" horiz-adv-x="872" 
d="M22 0l136 700h191l89 -427l252 427h195l-136 -700h-149l93 481l-218 -363h-132l-79 363l-93 -481h-149z" />
    <glyph glyph-name="Nu" unicode="&#x39d;" horiz-adv-x="729" 
d="M22 0l136 700h160l179 -472l92 472h153l-136 -700h-155l-184 472l-92 -472h-153z" />
    <glyph glyph-name="Xi" unicode="&#x39e;" horiz-adv-x="617" 
d="M103 550l29 150h523l-29 -150h-523zM135 289l26 134h357l-26 -134h-357zM-14 0l29 150h544l-29 -150h-544z" />
    <glyph glyph-name="Omicron" unicode="&#x39f;" horiz-adv-x="811" 
d="M381 -16q-98 0 -170.5 38.5t-112 109t-39.5 164.5q0 91 30 168t85 133.5t129 87.5t162 31q98 0 170 -38.5t112 -108.5t40 -165q0 -91 -30 -167.5t-85 -133t-129 -88t-162 -31.5zM393 124q64 0 115 35.5t81 97t30 137.5q0 85 -44 133.5t-121 48.5q-64 0 -115.5 -35.5
t-81.5 -96.5t-30 -138q0 -85 44 -133.5t122 -48.5z" />
    <glyph glyph-name="Pi" unicode="&#x3a0;" horiz-adv-x="729" 
d="M22 0l136 700h584l-136 -700h-162l109 560h-260l-109 -560h-162z" />
    <glyph glyph-name="Rho" unicode="&#x3a1;" horiz-adv-x="618" 
d="M22 0l136 700h235q107 0 169 -53t62 -145q0 -80 -38.5 -140t-108.5 -92.5t-164 -32.5h-89l-46 -237h-156zM363 574h-74l-41 -211h77q62 0 99.5 34.5t37.5 91.5q0 41 -26 63t-73 22z" />
    <glyph glyph-name="Sigma" unicode="&#x3a3;" horiz-adv-x="614" 
d="M-3 0l25 128l245 230l-152 214l24 128h501l-5 -140h-335l142 -201l-225 -218h353l-43 -141h-530z" />
    <glyph glyph-name="Tau" unicode="&#x3a4;" horiz-adv-x="618" 
d="M178 0l109 561h-212l27 139h586l-27 -139h-212l-109 -561h-162z" />
    <glyph glyph-name="Upsilon" unicode="&#x3a5;" horiz-adv-x="689" 
d="M214 0l54 276l-169 424h173l97 -296l206 296h187l-332 -424l-54 -276h-162z" />
    <glyph glyph-name="Phi" unicode="&#x3a6;" horiz-adv-x="859" 
d="M303 0l13 68q-115 18 -183.5 80.5t-68.5 178.5q0 99 48 169t131 110t187 49l12 61h153l-13 -66q118 -18 186 -84t68 -173q0 -102 -48.5 -173.5t-132 -111.5t-188.5 -47l-12 -61h-152zM225 340q0 -64 32 -100.5t88 -50.5l66 344q-86 -11 -136 -58.5t-50 -134.5zM674 380
q0 62 -32 98t-88 50l-67 -344q86 11 136.5 59.5t50.5 136.5z" />
    <glyph glyph-name="Chi" unicode="&#x3a7;" horiz-adv-x="695" 
d="M-39 0l318 363l-158 337h178l95 -223l180 223h184l-299 -346l174 -354h-181l-107 240l-196 -240h-188z" />
    <glyph glyph-name="Psi" unicode="&#x3a8;" horiz-adv-x="798" 
d="M271 0l35 180q-105 16 -165.5 71.5t-60.5 159.5q0 18 2 37t6 40l40 212h159l-39 -206q-4 -18 -5.5 -34.5t-1.5 -30.5q0 -50 22.5 -78.5t68.5 -38.5l75 388h156l-76 -389q51 10 81.5 34t47 59t24.5 78l43 218h159l-44 -224q-16 -87 -55 -151t-107.5 -102t-174.5 -47
l-34 -176h-156z" />
    <glyph glyph-name="uni03A9" unicode="&#x3a9;" horiz-adv-x="814" 
d="M4 0l26 133h148q-53 43 -76.5 101t-23.5 121q0 75 29.5 140.5t82 115.5t121 78t145.5 28q93 0 164.5 -37t112 -104t40.5 -157q0 -86 -45 -161t-121 -125h129l-41 -133h-290l25 126q49 19 88.5 63.5t63 102t23.5 113.5q0 76 -40.5 123.5t-116.5 47.5q-59 0 -104 -34.5
t-70.5 -92.5t-25.5 -130q0 -66 21.5 -118t55.5 -75l-25 -126h-296z" />
    <glyph glyph-name="Iotadieresis" unicode="&#x3aa;" horiz-adv-x="307" 
d="M22 0l136 700h162l-136 -700h-162zM130 769q-30 0 -48 18t-18 49q0 35 23.5 58.5t58.5 23.5q30 0 49 -18.5t19 -47.5q0 -36 -24 -59.5t-60 -23.5zM368 769q-30 0 -48 18t-18 49q0 35 24 58.5t59 23.5q29 0 48 -18.5t19 -47.5q0 -36 -24 -59.5t-60 -23.5z" />
    <glyph glyph-name="Upsilondieresis" unicode="&#x3ab;" horiz-adv-x="689" 
d="M214 0l54 276l-169 424h173l97 -296l206 296h187l-332 -424l-54 -276h-162zM315 769q-30 0 -48 18t-18 49q0 35 23.5 58.5t58.5 23.5q30 0 49 -18.5t19 -47.5q0 -36 -24 -59.5t-60 -23.5zM553 769q-30 0 -48 18t-18 49q0 35 24 58.5t59 23.5q29 0 48 -18.5t19 -47.5
q0 -36 -24 -59.5t-60 -23.5z" />
    <glyph glyph-name="alphatonos" unicode="&#x3ac;" horiz-adv-x="645" 
d="M231 -13q-56 0 -99.5 29t-68 80.5t-24.5 118.5q0 66 20 124t56 101.5t83.5 68t102.5 24.5q56 0 95.5 -27t56.5 -72q8 22 16 43t18 43h154q-28 -65 -47.5 -118t-34.5 -103q-12 -40 -21 -82.5t-9 -61.5q0 -16 6 -22t16 -6q15 0 34 10l-8 -123q-24 -10 -47.5 -14.5
t-51.5 -4.5q-82 0 -98 67q-58 -75 -149 -75zM286 119q36 0 64 23.5t44 64t16 89.5q0 48 -23.5 76.5t-64.5 28.5q-36 0 -64.5 -22.5t-45 -60.5t-16.5 -86q0 -52 24 -82.5t66 -30.5zM312 602l102 206h164l-141 -206h-125z" />
    <glyph glyph-name="epsilontonos" unicode="&#x3ad;" horiz-adv-x="514" 
d="M228 -13q-68 0 -114 19.5t-69 52t-23 70.5q0 52 32.5 88t93.5 55q-77 31 -77 101q0 52 37 87.5t97 54t128 18.5q56 0 102 -9t74 -28l-47 -117q-53 31 -131 31q-54 0 -79 -14t-25 -39q0 -19 18 -31t58 -12h108l-19 -101h-126q-41 0 -64.5 -15.5t-23.5 -41.5q0 -45 83 -45
q50 0 91 9t78 26l4 -120q-80 -39 -206 -39zM262 602l102 206h164l-141 -206h-125z" />
    <glyph glyph-name="etatonos" unicode="&#x3ae;" horiz-adv-x="626" 
d="M320 -216l98 506q6 35 6 49q0 27 -15.5 42.5t-45.5 15.5q-41 0 -71.5 -29t-40.5 -81l-55 -287h-154l63 329q2 8 3 16t1 15q0 14 -6 23.5t-22 9.5q-12 0 -26 -7l7 123q20 8 43 12t49 4q47 0 75.5 -23t32.5 -72q25 49 69 76t101 27q71 0 110 -42t39 -116q0 -20 -2 -41.5
t-5 -37.5l-99 -512h-155zM302 602l102 206h164l-141 -206h-125z" />
    <glyph glyph-name="iotatonos" unicode="&#x3af;" horiz-adv-x="337" 
d="M157 -10q-60 0 -91.5 32.5t-31.5 92.5q0 14 2 28.5t5 31.5l66 345h154l-62 -322q-5 -22 -5 -39q0 -22 12 -30t36 -8q19 0 43 10l-6 -118q-31 -12 -57.5 -17.5t-64.5 -5.5zM129 602l102 206h164l-141 -206h-125z" />
    <glyph glyph-name="upsilondieresistonos" unicode="&#x3b0;" horiz-adv-x="589" 
d="M259 -13q-62 0 -104 24.5t-63.5 65.5t-21.5 90q0 17 1.5 36t5.5 37l17 88q2 11 3 20.5t1 17.5q0 13 -4.5 20t-17.5 7q-7 0 -12.5 -2t-11.5 -5l7 124q41 15 91 15t79 -24.5t29 -84.5q0 -28 -6 -63l-20 -107q-3 -16 -5 -33t-2 -35q0 -25 12 -42t40 -17q40 0 65 34.5
t38.5 89.5t19 119t5.5 122v17.5t-1 18.5h152q1 -13 1.5 -26.5t0.5 -26.5q0 -232 -76 -356t-223 -124zM259 602l95 206h155l-133 -206h-117zM175 606q-29 0 -47 17.5t-18 47.5q0 35 23 57.5t58 22.5q29 0 47.5 -17.5t18.5 -46.5q0 -34 -23.5 -57.5t-58.5 -23.5zM533 606
q-29 0 -46.5 17.5t-17.5 47.5q0 35 23 57.5t57 22.5q29 0 47.5 -17.5t18.5 -46.5q0 -34 -23.5 -57.5t-58.5 -23.5z" />
    <glyph glyph-name="alpha" unicode="&#x3b1;" horiz-adv-x="645" 
d="M231 -13q-56 0 -99.5 29t-68 80.5t-24.5 118.5q0 66 20 124t56 101.5t83.5 68t102.5 24.5q56 0 95.5 -27t56.5 -72q8 22 16 43t18 43h154q-28 -65 -47.5 -118t-34.5 -103q-12 -40 -21 -82.5t-9 -61.5q0 -16 6 -22t16 -6q15 0 34 10l-8 -123q-24 -10 -47.5 -14.5
t-51.5 -4.5q-82 0 -98 67q-58 -75 -149 -75zM286 119q36 0 64 23.5t44 64t16 89.5q0 48 -23.5 76.5t-64.5 28.5q-36 0 -64.5 -22.5t-45 -60.5t-16.5 -86q0 -52 24 -82.5t66 -30.5z" />
    <glyph glyph-name="beta" unicode="&#x3b2;" horiz-adv-x="631" 
d="M-30 -216l141 727q23 117 91.5 179.5t190.5 62.5q58 0 104 -21.5t73.5 -59t27.5 -86.5q0 -68 -37.5 -122.5t-95.5 -75.5q56 -18 86.5 -56.5t30.5 -94.5q0 -68 -33 -125t-89 -91t-126 -34q-52 0 -92 19t-63 59l-55 -281h-154zM315 121q49 0 79.5 31.5t30.5 79.5
q0 39 -27 60.5t-73 21.5h-44l24 125h42q43 0 71.5 33.5t28.5 80.5q0 34 -20.5 53.5t-52.5 19.5q-43 0 -69.5 -25t-37.5 -80l-52 -269q-2 -11 -3 -20.5t-1 -17.5q0 -49 29 -71t75 -22z" />
    <glyph glyph-name="gamma" unicode="&#x3b3;" horiz-adv-x="588" 
d="M123 -216l43 223l-56 338q-4 27 -12 37.5t-24 10.5q-13 0 -27 -7l7 123q20 8 40 12t45 4q41 0 72 -24t39 -83l36 -264q56 93 95 184t70 182h159q-45 -120 -118.5 -254.5t-172.5 -264.5l-42 -217h-154z" />
    <glyph glyph-name="delta" unicode="&#x3b4;" horiz-adv-x="602" 
d="M274 -12q-69 0 -123.5 27t-85.5 76t-31 114q0 88 49 147.5t129 82.5q-33 23 -49 52.5t-16 70.5q0 53 31.5 97t91.5 71t145 27q58 0 112 -14.5t82 -34.5l-51 -129q-31 24 -74.5 36t-79.5 12q-53 0 -77.5 -16t-24.5 -46q0 -22 18 -36.5t56 -34.5l43 -22q71 -37 105 -87.5
t34 -113.5q0 -81 -38.5 -144t-103 -99t-142.5 -36zM280 118q36 0 63.5 20t42.5 54.5t15 76.5q0 47 -23.5 74t-66.5 27q-35 0 -62.5 -20.5t-43 -54.5t-15.5 -75q0 -48 24 -75t66 -27z" />
    <glyph glyph-name="epsilon" unicode="&#x3b5;" horiz-adv-x="514" 
d="M228 -13q-68 0 -114 19.5t-69 52t-23 70.5q0 52 32.5 88t93.5 55q-77 31 -77 101q0 52 37 87.5t97 54t128 18.5q56 0 102 -9t74 -28l-47 -117q-53 31 -131 31q-54 0 -79 -14t-25 -39q0 -19 18 -31t58 -12h108l-19 -101h-126q-41 0 -64.5 -15.5t-23.5 -41.5q0 -45 83 -45
q50 0 91 9t78 26l4 -120q-80 -39 -206 -39z" />
    <glyph glyph-name="zeta" unicode="&#x3b6;" horiz-adv-x="491" 
d="M293 -218l-70 91q35 18 53.5 36.5t18.5 41.5q0 17 -14.5 27.5t-51.5 21.5l-42 13q-63 20 -104 59t-41 108q0 58 29.5 119t98 138t186.5 182h-226l39 121h407l-22 -110q-126 -104 -204 -180.5t-114.5 -132.5t-36.5 -99q0 -36 22 -57t57 -32l44 -14q61 -19 95.5 -46.5
t34.5 -84.5q0 -60 -42 -110.5t-117 -91.5z" />
    <glyph glyph-name="eta" unicode="&#x3b7;" horiz-adv-x="626" 
d="M320 -216l98 506q6 35 6 49q0 27 -15.5 42.5t-45.5 15.5q-41 0 -71.5 -29t-40.5 -81l-55 -287h-154l63 329q2 8 3 16t1 15q0 14 -6 23.5t-22 9.5q-12 0 -26 -7l7 123q20 8 43 12t49 4q47 0 75.5 -23t32.5 -72q25 49 69 76t101 27q71 0 110 -42t39 -116q0 -20 -2 -41.5
t-5 -37.5l-99 -512h-155z" />
    <glyph glyph-name="theta" unicode="&#x3b8;" horiz-adv-x="649" 
d="M298 -13q-78 0 -130 37.5t-77.5 101.5t-25.5 145q0 90 22 175.5t64.5 155t103.5 110.5t138 41t128.5 -36t78 -100t26.5 -148q0 -88 -22 -173.5t-64 -155.5t-103 -111.5t-139 -41.5zM384 623q-35 0 -62.5 -26.5t-47.5 -70t-33 -94.5h228q2 25 2 49q0 63 -21 102.5
t-66 39.5zM306 117q36 0 64.5 28.5t49 75t32.5 100.5h-230q-3 -32 -3 -62q0 -63 21 -102.5t66 -39.5z" />
    <glyph glyph-name="iota" unicode="&#x3b9;" horiz-adv-x="337" 
d="M157 -10q-60 0 -91.5 32.5t-31.5 92.5q0 14 2 28.5t5 31.5l66 345h154l-62 -322q-5 -22 -5 -39q0 -22 12 -30t36 -8q19 0 43 10l-6 -118q-31 -12 -57.5 -17.5t-64.5 -5.5z" />
    <glyph glyph-name="kappa" unicode="&#x3ba;" horiz-adv-x="588" 
d="M12 0l101 520h154l-37 -191l210 191h184l-225 -196l130 -324h-165l-82 222l-88 -76l-28 -146h-154z" />
    <glyph glyph-name="lambda" unicode="&#x3bb;" horiz-adv-x="595" 
d="M-31 0l321 537l-1 10q-7 43 -31.5 59.5t-50.5 16.5q-19 0 -38.5 -5.5t-36.5 -14.5l-4 122q35 15 64 21.5t63 6.5q70 0 122 -44t66 -144l81 -565h-167l-31 363l-195 -363h-162z" />
    <glyph glyph-name="uni03BC" unicode="&#x3bc;" horiz-adv-x="627" 
d="M-30 -216l143 736h154l-56 -290q-6 -33 -6 -50q0 -27 15.5 -42.5t45.5 -15.5q41 0 71.5 29t40.5 82l56 287h154l-64 -329q-1 -8 -2.5 -16t-1.5 -15q0 -15 6 -24t22 -9q14 0 26 6l-6 -123q-40 -15 -93 -15q-48 0 -76.5 23t-31.5 75q-26 -50 -66 -78t-80 -28q-33 0 -55 16
l-42 -219h-154z" />
    <glyph glyph-name="nu" unicode="&#x3bd;" horiz-adv-x="586" 
d="M168 0l-57 345q-4 27 -12 37.5t-24 10.5q-13 0 -27 -7l7 124q20 8 40 11.5t45 3.5q41 0 72.5 -24t38.5 -83l34 -265q47 80 87.5 169t77.5 198h158q-46 -123 -119 -256.5t-171 -263.5h-150z" />
    <glyph glyph-name="xi" unicode="&#x3be;" horiz-adv-x="544" 
d="M320 -218l-70 91q35 18 54 36.5t19 41.5q0 17 -15 28t-51 21l-43 13q-181 55 -181 185q0 68 49.5 122t131.5 76q-45 16 -70 51.5t-25 86.5q0 60 36 110t100 79.5t147 29.5q51 0 100.5 -12.5t85.5 -33.5l-50 -128q-62 43 -137 43q-59 0 -92.5 -26t-33.5 -70
q0 -38 26 -58.5t72 -20.5h101l-26 -127h-106q-71 0 -111.5 -25.5t-40.5 -68.5q0 -38 28 -58.5t88 -38.5l43 -13q62 -19 96 -47t34 -85q0 -60 -41.5 -110.5t-117.5 -91.5z" />
    <glyph glyph-name="omicron" unicode="&#x3bf;" horiz-adv-x="619" 
d="M280 -13q-73 0 -127 29t-83.5 82t-29.5 124q0 91 38.5 161t106.5 110t156 40q72 0 125.5 -29t83 -81.5t29.5 -123.5q0 -92 -38 -162.5t-105.5 -110t-155.5 -39.5zM292 119q37 0 66.5 22.5t46.5 61t17 87.5q0 53 -24.5 82t-68.5 29q-37 0 -67 -22.5t-47.5 -60.5t-17.5 -86
q0 -52 26 -82.5t69 -30.5z" />
    <glyph glyph-name="pi" unicode="&#x3c0;" horiz-adv-x="638" 
d="M42 0l77 395h-82l39 125h578l-24 -125h-81l-40 -204q-1 -8 -2.5 -16t-1.5 -15q0 -15 6 -24t22 -9q14 0 26 6l-6 -123q-20 -7 -41.5 -11t-48.5 -4q-66 0 -92 31.5t-26 79.5q0 17 2 34.5t5 34.5l43 220h-122l-77 -395h-154z" />
    <glyph glyph-name="rho" unicode="&#x3c1;" horiz-adv-x="625" 
d="M-35 -216l95 488q15 75 52 134t96.5 93t139.5 34q72 0 125 -29t82 -81.5t29 -124.5q0 -90 -33.5 -160.5t-94.5 -110.5t-145 -40q-46 0 -81 19.5t-57 52.5l-54 -275h-154zM299 119q38 0 67 22t45.5 60.5t16.5 85.5q0 53 -24 83.5t-68 30.5q-36 0 -64.5 -24t-44.5 -64
t-16 -90q0 -48 23.5 -76t64.5 -28z" />
    <glyph glyph-name="sigma1" unicode="&#x3c2;" horiz-adv-x="507" 
d="M270 -190l-69 94q38 23 54 40t16 37q0 18 -10.5 28.5t-43.5 23.5l-28 11q-67 27 -106 76t-39 128q0 80 34.5 144.5t99 102.5t154.5 38q57 0 107.5 -14t87.5 -40l-51 -126q-65 48 -143 48q-69 0 -100.5 -39.5t-31.5 -93.5q0 -49 22 -73t67 -42l33 -13q55 -22 80 -51.5
t25 -72.5q0 -69 -40 -115.5t-118 -90.5z" />
    <glyph glyph-name="sigma" unicode="&#x3c3;" horiz-adv-x="628" 
d="M281 -13q-72 0 -127 29t-85.5 81t-30.5 122q0 84 37 152.5t101.5 108.5t147.5 40h335l-40 -126h-137q29 -24 50.5 -65t21.5 -89q0 -53 -22 -99t-60.5 -80.5t-87.5 -54t-103 -19.5zM287 118q39 0 66.5 24.5t42 64.5t14.5 87q0 62 -33 100h-56q-39 0 -67.5 -25t-43.5 -64.5
t-15 -81.5q0 -48 24.5 -76.5t67.5 -28.5z" />
    <glyph glyph-name="tau" unicode="&#x3c4;" horiz-adv-x="510" 
d="M278 -10q-67 0 -105.5 30.5t-38.5 93.5q0 30 7 62l43 218h-147l39 126h450l-24 -126h-164l-38 -189q-5 -25 -5 -43q0 -20 9 -31t33 -11q14 0 27 3.5t28 12.5l-7 -121q-30 -13 -53 -19t-54 -6z" />
    <glyph glyph-name="upsilon" unicode="&#x3c5;" horiz-adv-x="589" 
d="M259 -13q-62 0 -104 24.5t-63.5 65.5t-21.5 90q0 17 1.5 36t5.5 37l17 88q2 11 3 20.5t1 17.5q0 13 -4.5 20t-17.5 7q-7 0 -12.5 -2t-11.5 -5l7 124q41 15 91 15t79 -24.5t29 -84.5q0 -28 -6 -63l-20 -107q-3 -16 -5 -33t-2 -35q0 -25 12 -42t40 -17q40 0 65 34.5
t38.5 89.5t19 119t5.5 122v17.5t-1 18.5h152q1 -13 1.5 -26.5t0.5 -26.5q0 -232 -76 -356t-223 -124z" />
    <glyph glyph-name="phi" unicode="&#x3c6;" horiz-adv-x="793" 
d="M227 -216l41 211q-106 20 -166.5 82t-60.5 157q0 132 88.5 208.5t241.5 88.5l34 169h152l-35 -175q107 -19 168.5 -82t61.5 -158q0 -133 -89.5 -209t-244.5 -87l-39 -205h-152zM194 244q0 -51 28 -84.5t77 -47.5l59 301q-80 -12 -122 -55t-42 -114zM599 275
q0 52 -28.5 85.5t-78.5 47.5l-58 -302q80 11 122.5 54t42.5 115z" />
    <glyph glyph-name="chi" unicode="&#x3c7;" horiz-adv-x="591" 
d="M393 -229q-52 0 -73.5 25t-32.5 69l-38 146l-159 -227h-165l276 384l-49 177q-7 27 -18 36.5t-28 9.5q-7 0 -15.5 -2.5t-14.5 -5.5l6 126q18 7 40.5 11.5t46.5 4.5q44 0 68 -20.5t38 -74.5l33 -125l147 215h169l-266 -369l53 -200q8 -28 18.5 -37t26.5 -9q9 0 16.5 2
t14.5 5l-7 -124q-17 -7 -39.5 -12t-47.5 -5z" />
    <glyph glyph-name="psi" unicode="&#x3c8;" horiz-adv-x="757" 
d="M210 -216l41 209q-99 16 -153.5 70t-54.5 138q0 27 6 55l52 264h150l-50 -259q-2 -13 -3.5 -24.5t-1.5 -22.5q0 -77 79 -96l113 582h151l-113 -582q58 12 88 47t42 96l50 259h151l-51 -264q-46 -239 -305 -266l-40 -206h-151z" />
    <glyph glyph-name="omega" unicode="&#x3c9;" horiz-adv-x="808" 
d="M199 -13q-74 0 -117 47.5t-43 131.5q0 55 17.5 116.5t49.5 122.5t76 115h154q-67 -87 -103.5 -174.5t-36.5 -155.5q0 -71 44 -71q32 0 55.5 38.5t39.5 123.5l23 118h143l-23 -118q-12 -63 -12 -95q0 -68 45 -68q27 0 48.5 28.5t34 76.5t12.5 107q0 88 -35 190h154
q18 -42 27.5 -92.5t9.5 -100.5q0 -98 -33.5 -175t-92 -121t-133.5 -44q-55 0 -89 34.5t-40 94.5q-28 -61 -73 -95t-102 -34z" />
    <glyph glyph-name="iotadieresis" unicode="&#x3ca;" horiz-adv-x="337" 
d="M157 -10q-60 0 -91.5 32.5t-31.5 92.5q0 14 2 28.5t5 31.5l66 345h154l-62 -322q-5 -22 -5 -39q0 -22 12 -30t36 -8q19 0 43 10l-6 -118q-31 -12 -57.5 -17.5t-64.5 -5.5zM94 606q-30 0 -47.5 17.5t-17.5 47.5q0 35 23 57.5t57 22.5q29 0 47.5 -17.5t18.5 -46.5
q0 -34 -23 -57.5t-58 -23.5zM317 606q-29 0 -46.5 17.5t-17.5 47.5q0 35 23 57.5t57 22.5q29 0 47.5 -17.5t18.5 -46.5q0 -35 -23.5 -58t-58.5 -23z" />
    <glyph glyph-name="upsilondieresis" unicode="&#x3cb;" horiz-adv-x="589" 
d="M259 -13q-62 0 -104 24.5t-63.5 65.5t-21.5 90q0 17 1.5 36t5.5 37l17 88q2 11 3 20.5t1 17.5q0 13 -4.5 20t-17.5 7q-7 0 -12.5 -2t-11.5 -5l7 124q41 15 91 15t79 -24.5t29 -84.5q0 -28 -6 -63l-20 -107q-3 -16 -5 -33t-2 -35q0 -25 12 -42t40 -17q40 0 65 34.5
t38.5 89.5t19 119t5.5 122v17.5t-1 18.5h152q1 -13 1.5 -26.5t0.5 -26.5q0 -232 -76 -356t-223 -124zM225 606q-30 0 -47.5 17.5t-17.5 47.5q0 35 23 57.5t57 22.5q29 0 47.5 -17.5t18.5 -46.5q0 -34 -23 -57.5t-58 -23.5zM448 606q-29 0 -46.5 17.5t-17.5 47.5
q0 35 23 57.5t57 22.5q29 0 47.5 -17.5t18.5 -46.5q0 -35 -23.5 -58t-58.5 -23z" />
    <glyph glyph-name="omicrontonos" unicode="&#x3cc;" horiz-adv-x="619" 
d="M280 -13q-73 0 -127 29t-83.5 82t-29.5 124q0 91 38.5 161t106.5 110t156 40q72 0 125.5 -29t83 -81.5t29.5 -123.5q0 -92 -38 -162.5t-105.5 -110t-155.5 -39.5zM292 119q37 0 66.5 22.5t46.5 61t17 87.5q0 53 -24.5 82t-68.5 29q-37 0 -67 -22.5t-47.5 -60.5t-17.5 -86
q0 -52 26 -82.5t69 -30.5zM295 602l102 206h164l-141 -206h-125z" />
    <glyph glyph-name="upsilontonos" unicode="&#x3cd;" horiz-adv-x="589" 
d="M259 -13q-62 0 -104 24.5t-63.5 65.5t-21.5 90q0 17 1.5 36t5.5 37l17 88q2 11 3 20.5t1 17.5q0 13 -4.5 20t-17.5 7q-7 0 -12.5 -2t-11.5 -5l7 124q41 15 91 15t79 -24.5t29 -84.5q0 -28 -6 -63l-20 -107q-3 -16 -5 -33t-2 -35q0 -25 12 -42t40 -17q40 0 65 34.5
t38.5 89.5t19 119t5.5 122v17.5t-1 18.5h152q1 -13 1.5 -26.5t0.5 -26.5q0 -232 -76 -356t-223 -124zM260 602l102 206h164l-141 -206h-125z" />
    <glyph glyph-name="omegatonos" unicode="&#x3ce;" horiz-adv-x="808" 
d="M199 -13q-74 0 -117 47.5t-43 131.5q0 55 17.5 116.5t49.5 122.5t76 115h154q-67 -87 -103.5 -174.5t-36.5 -155.5q0 -71 44 -71q32 0 55.5 38.5t39.5 123.5l23 118h143l-23 -118q-12 -63 -12 -95q0 -68 45 -68q27 0 48.5 28.5t34 76.5t12.5 107q0 88 -35 190h154
q18 -42 27.5 -92.5t9.5 -100.5q0 -98 -33.5 -175t-92 -121t-133.5 -44q-55 0 -89 34.5t-40 94.5q-28 -61 -73 -95t-102 -34zM405 602l102 206h164l-141 -206h-125z" />
    <glyph glyph-name="kaiSymbol" unicode="&#x3d7;" horiz-adv-x="599" 
d="M12 0l101 520h154l-37 -191l210 191h184l-221 -192l96 -201q17 -36 26.5 -68.5t9.5 -64.5q0 -64 -33.5 -114.5t-90.5 -79.5t-130 -29q-46 0 -92 9.5t-82 27.5l44 122q26 -14 61.5 -22.5t69.5 -8.5q47 0 73.5 25.5t26.5 65.5q0 32 -27 89l-69 147l-92 -80l-28 -146h-154z
" />
    <glyph glyph-name="uni0400" unicode="&#x400;" horiz-adv-x="595" 
d="M22 0l136 700h458l-4 -133h-322l-28 -145h288l-25 -133h-289l-31 -156h341l-41 -133h-483zM363 772l-142 130h179l116 -130h-153z" />
    <glyph glyph-name="uni0401" unicode="&#x401;" horiz-adv-x="595" 
d="M22 0l136 700h458l-4 -133h-322l-28 -145h288l-25 -133h-289l-31 -156h341l-41 -133h-483zM289 769q-30 0 -48 18t-18 49q0 35 23.5 58.5t58.5 23.5q30 0 49 -18.5t19 -47.5q0 -36 -24 -59.5t-60 -23.5zM527 769q-30 0 -48 18t-18 49q0 35 24 58.5t59 23.5q29 0 48 -18.5
t19 -47.5q0 -36 -24 -59.5t-60 -23.5z" />
    <glyph glyph-name="uni0402" unicode="&#x402;" horiz-adv-x="827" 
d="M137 0l109 560h-171l27 140h604l-28 -140h-271l-30 -153q86 31 164 31q62 0 110 -22.5t75.5 -65t27.5 -104.5q0 -118 -63.5 -185t-180.5 -67q-28 0 -53.5 4t-37.5 8l38 124q20 -6 44 -6q40 0 65 26t25 72q0 80 -97 80q-35 0 -70.5 -6.5t-72.5 -20.5l-53 -275h-161z" />
    <glyph glyph-name="uni0403" unicode="&#x403;" horiz-adv-x="544" 
d="M22 0l137 700h431l-5 -139h-292l-109 -561h-162zM297 772l167 130h183l-193 -130h-157z" />
    <glyph glyph-name="uni0404" unicode="&#x404;" horiz-adv-x="676" 
d="M382 -16q-98 0 -170.5 39.5t-112 111t-39.5 167.5q0 90 31.5 165.5t88.5 131.5t135 86.5t171 30.5q56 0 115.5 -16t100.5 -42l-49 -131q-76 49 -172 49q-88 0 -152.5 -41.5t-91.5 -115.5h323l-26 -131h-313q8 -86 55.5 -125t127.5 -39q53 0 100.5 12t92.5 37l1 -136
q-40 -26 -98 -39.5t-118 -13.5z" />
    <glyph glyph-name="uni0405" unicode="&#x405;" horiz-adv-x="595" 
d="M244 -16q-68 0 -134 18t-120 50l47 128q44 -31 97 -47.5t109 -16.5q134 0 134 92q0 21 -9 33t-33 22t-69 25q-59 20 -98.5 44t-59.5 58.5t-20 86.5q0 73 36 126.5t99.5 83t147.5 29.5q64 0 124 -17t106 -48l-49 -123q-38 26 -85.5 41t-93.5 15q-56 0 -89.5 -23t-33.5 -63
q0 -33 25.5 -47t83.5 -34q58 -19 98.5 -41.5t62 -57t21.5 -90.5q0 -74 -37 -129t-103.5 -85t-156.5 -30z" />
    <glyph glyph-name="uni0406" unicode="&#x406;" horiz-adv-x="307" 
d="M22 0l136 700h162l-136 -700h-162z" />
    <glyph glyph-name="uni0407" unicode="&#x407;" horiz-adv-x="307" 
d="M22 0l136 700h162l-136 -700h-162zM130 769q-30 0 -48 18t-18 49q0 35 23.5 58.5t58.5 23.5q30 0 49 -18.5t19 -47.5q0 -36 -24 -59.5t-60 -23.5zM368 769q-30 0 -48 18t-18 49q0 35 24 58.5t59 23.5q29 0 48 -18.5t19 -47.5q0 -36 -24 -59.5t-60 -23.5z" />
    <glyph glyph-name="uni0408" unicode="&#x408;" horiz-adv-x="550" 
d="M173 -16q-52 0 -102.5 13.5t-85.5 38.5l47 129q33 -22 66.5 -32.5t72.5 -10.5q65 0 101 38t54 129l80 411h162l-79 -408q-21 -109 -60 -177t-101.5 -99.5t-154.5 -31.5z" />
    <glyph glyph-name="uni0409" unicode="&#x409;" horiz-adv-x="1037" 
d="M249 700h471l-47 -243h104q100 0 158.5 -51t58.5 -146q0 -81 -37 -139.5t-106.5 -89.5t-165.5 -31h-262l108 560h-160q-24 -112 -43 -194.5t-31 -124.5q-25 -89 -56.5 -143.5t-77 -79t-111.5 -24.5q-54 0 -90 15l38 143q11 -3 21.5 -5t21.5 -2q47 0 82 56.5t63 190.5
q16 74 30.5 148t30.5 160zM739 331h-91l-40 -205h89q65 0 101.5 31t36.5 85q0 41 -24 65t-72 24z" />
    <glyph glyph-name="uni040A" unicode="&#x40a;" horiz-adv-x="1045" 
d="M22 0l136 700h162l-53 -274h250l53 274h162l-47 -243h100q100 0 158.5 -50.5t58.5 -144.5q0 -124 -82.5 -193t-226.5 -69h-259l55 284h-250l-55 -284h-162zM747 331h-87l-40 -205h85q65 0 101.5 31t36.5 86q0 41 -24 64.5t-72 23.5z" />
    <glyph glyph-name="uni040B" unicode="&#x40b;" horiz-adv-x="819" 
d="M136 0l109 560h-170l27 140h604l-28 -140h-271l-29 -149q45 14 86.5 20.5t81.5 6.5q94 0 149.5 -48.5t55.5 -131.5q0 -19 -2.5 -43t-7.5 -45l-33 -170h-162l32 164q3 17 5 32.5t2 25.5q0 39 -23.5 59.5t-76.5 20.5q-31 0 -64 -5.5t-69 -18.5l-54 -278h-162z" />
    <glyph glyph-name="uni040C" unicode="&#x40c;" horiz-adv-x="686" 
d="M22 0l137 700h161l-53 -275h71l212 275h186l-278 -345l168 -355h-181l-126 285h-80l-55 -285h-162zM341 772l167 130h183l-193 -130h-157z" />
    <glyph glyph-name="uni040D" unicode="&#x40d;" horiz-adv-x="736" 
d="M22 0l137 700h153l-90 -457l366 457h161l-136 -700h-153l89 456l-368 -456h-159zM411 772l-142 130h179l116 -130h-153z" />
    <glyph glyph-name="uni040E" unicode="&#x40e;" horiz-adv-x="707" 
d="M206 -16q-40 0 -66.5 5.5t-48.5 14.5l29 129q17 -8 39 -13.5t44 -5.5q29 0 53 10t42 33l-200 543h166l133 -404l207 404h175l-310 -534q-41 -70 -80.5 -109.5t-83.5 -56t-99 -16.5zM447 750q-91 0 -137 35t-46 99v6l127 15v-10q0 -66 65 -66q35 0 55.5 19.5t29.5 56.5
l129 -15q-18 -69 -72.5 -104.5t-150.5 -35.5z" />
    <glyph glyph-name="uni040F" unicode="&#x40f;" horiz-adv-x="720" 
d="M22 0l136 700h162l-109 -561h251l110 561h161l-136 -700h-203l-33 -170h-148l33 170h-224z" />
    <glyph glyph-name="uni0410" unicode="&#x410;" horiz-adv-x="724" 
d="M-39 0l401 700h169l130 -700h-174l-20 149h-252l-78 -149h-176zM285 281h164l-34 248z" />
    <glyph glyph-name="uni0411" unicode="&#x411;" horiz-adv-x="641" 
d="M22 0l137 700h461l-12 -140h-322l-27 -141h104q111 0 171 -45.5t60 -131.5q0 -80 -40 -134t-107.5 -81t-152.5 -27h-272zM201 122h102q59 0 93 27.5t34 77.5q0 75 -100 75h-94z" />
    <glyph glyph-name="uni0412" unicode="&#x412;" horiz-adv-x="659" 
d="M22 0l136 700h255q108 0 166 -41.5t58 -118.5q0 -63 -39 -109.5t-105 -65.5q54 -12 85 -49t31 -91q0 -67 -37.5 -118t-104.5 -79t-157 -28h-288zM384 578h-96l-30 -158h95q58 0 90.5 25t32.5 69q0 64 -92 64zM345 303h-110l-35 -181h118q63 0 98.5 27.5t35.5 76.5
q0 77 -107 77z" />
    <glyph glyph-name="uni0413" unicode="&#x413;" horiz-adv-x="544" 
d="M22 0l137 700h431l-5 -139h-292l-109 -561h-162z" />
    <glyph glyph-name="uni0414" unicode="&#x414;" horiz-adv-x="791" 
d="M-53 -170l61 309h77q44 51 75.5 119t56.5 165q23 89 38 153.5t28 123.5h470l-108 -561h92l-60 -309h-148l33 170h-434l-33 -170h-148zM364 401q-24 -91 -50 -154.5t-58 -107.5h233l82 422h-167q-10 -39 -20 -80t-20 -80z" />
    <glyph glyph-name="uni0415" unicode="&#x415;" horiz-adv-x="595" 
d="M22 0l136 700h458l-4 -133h-322l-28 -145h288l-25 -133h-289l-31 -156h341l-41 -133h-483z" />
    <glyph glyph-name="uni0416" unicode="&#x416;" horiz-adv-x="1065" 
d="M-38 0l307 371l-135 329h174l97 -275h80l53 275h161l-53 -275h76l213 275h185l-282 -348l164 -352h-181l-120 285h-83l-55 -285h-161l55 285h-76l-222 -285h-197z" />
    <glyph glyph-name="uni0417" unicode="&#x417;" horiz-adv-x="577" 
d="M216 -16q-64 0 -125 16.5t-103 44.5l52 123q43 -27 84.5 -39.5t100.5 -12.5q63 0 104.5 27t41.5 77q0 35 -25.5 56t-78.5 21h-128l25 130h124q50 0 82 23.5t32 64.5q0 69 -98 69q-96 0 -180 -41l-8 123q98 50 222 50q107 0 166 -47t59 -124q0 -65 -37.5 -112t-98.5 -70
q43 -18 71 -55t28 -92q0 -74 -38.5 -126t-108 -79t-163.5 -27z" />
    <glyph glyph-name="uni0418" unicode="&#x418;" horiz-adv-x="736" 
d="M22 0l137 700h153l-90 -457l366 457h161l-136 -700h-153l89 456l-368 -456h-159z" />
    <glyph glyph-name="uni0419" unicode="&#x419;" horiz-adv-x="736" 
d="M22 0l137 700h153l-90 -457l366 457h161l-136 -700h-153l89 456l-368 -456h-159zM457 750q-91 0 -137 35t-46 99v6l127 15v-10q0 -66 65 -66q35 0 55.5 19.5t29.5 56.5l129 -15q-18 -69 -72.5 -104.5t-150.5 -35.5z" />
    <glyph glyph-name="uni041A" unicode="&#x41a;" horiz-adv-x="686" 
d="M22 0l137 700h161l-53 -275h71l212 275h186l-278 -345l168 -355h-181l-126 285h-80l-55 -285h-162z" />
    <glyph glyph-name="uni041B" unicode="&#x41b;" horiz-adv-x="720" 
d="M52 -6q-54 0 -90 15l38 143q11 -3 21.5 -5t21.5 -2q47 0 82 56.5t63 190.5q16 74 30.5 148t30.5 160h484l-137 -700h-162l109 560h-172q-24 -112 -43 -194.5t-31 -124.5q-25 -89 -56.5 -143.5t-77 -79t-111.5 -24.5z" />
    <glyph glyph-name="uni041C" unicode="&#x41c;" horiz-adv-x="872" 
d="M22 0l136 700h191l89 -427l252 427h195l-136 -700h-149l93 481l-218 -363h-132l-79 363l-93 -481h-149z" />
    <glyph glyph-name="uni041D" unicode="&#x41d;" horiz-adv-x="739" 
d="M22 0l136 700h162l-53 -275h270l53 275h162l-136 -700h-162l55 284h-270l-55 -284h-162z" />
    <glyph glyph-name="uni041E" unicode="&#x41e;" horiz-adv-x="811" 
d="M381 -16q-98 0 -170.5 38.5t-112 109t-39.5 164.5q0 91 30 168t85 133.5t129 87.5t162 31q98 0 170 -38.5t112 -108.5t40 -165q0 -91 -30 -167.5t-85 -133t-129 -88t-162 -31.5zM393 124q64 0 115 35.5t81 97t30 137.5q0 85 -44 133.5t-121 48.5q-64 0 -115.5 -35.5
t-81.5 -96.5t-30 -138q0 -85 44 -133.5t122 -48.5z" />
    <glyph glyph-name="uni041F" unicode="&#x41f;" horiz-adv-x="725" 
d="M22 0l137 700h579l-136 -700h-162l109 560h-256l-109 -560h-162z" />
    <glyph glyph-name="uni0420" unicode="&#x420;" horiz-adv-x="618" 
d="M22 0l136 700h235q107 0 169 -53t62 -145q0 -80 -38.5 -140t-108.5 -92.5t-164 -32.5h-89l-46 -237h-156zM363 574h-74l-41 -211h77q62 0 99.5 34.5t37.5 91.5q0 41 -26 63t-73 22z" />
    <glyph glyph-name="uni0421" unicode="&#x421;" horiz-adv-x="680" 
d="M378 -16q-97 0 -168.5 39t-111 110t-39.5 166q0 91 31.5 167t88.5 132t135 87t171 31q57 0 116.5 -16t100.5 -42l-49 -131q-74 49 -173 49q-74 0 -131 -34t-89.5 -93.5t-32.5 -137.5q0 -87 46.5 -137t128.5 -50q105 0 195 51l2 -137q-40 -25 -98.5 -39.5t-122.5 -14.5z
" />
    <glyph glyph-name="uni0422" unicode="&#x422;" horiz-adv-x="618" 
d="M178 0l109 561h-212l27 139h586l-27 -139h-212l-109 -561h-162z" />
    <glyph glyph-name="uni0423" unicode="&#x423;" horiz-adv-x="707" 
d="M206 -16q-40 0 -66.5 5.5t-48.5 14.5l29 129q17 -8 39 -13.5t44 -5.5q29 0 53 10t42 33l-200 543h166l133 -404l207 404h175l-310 -534q-41 -70 -80.5 -109.5t-83.5 -56t-99 -16.5z" />
    <glyph glyph-name="uni0424" unicode="&#x424;" horiz-adv-x="859" 
d="M303 0l13 68q-115 18 -183.5 80.5t-68.5 178.5q0 99 48 169t131 110t187 49l12 61h153l-13 -66q118 -18 186 -84t68 -173q0 -102 -48.5 -173.5t-132 -111.5t-188.5 -47l-12 -61h-152zM225 340q0 -64 32 -100.5t88 -50.5l66 344q-86 -11 -136 -58.5t-50 -134.5zM674 380
q0 62 -32 98t-88 50l-67 -344q86 11 136.5 59.5t50.5 136.5z" />
    <glyph glyph-name="uni0425" unicode="&#x425;" horiz-adv-x="695" 
d="M-39 0l318 363l-158 337h178l95 -223l180 223h184l-299 -346l174 -354h-181l-107 240l-196 -240h-188z" />
    <glyph glyph-name="uni0426" unicode="&#x426;" horiz-adv-x="771" 
d="M22 0l136 700h162l-109 -561h251l109 561h162l-109 -561h93l-60 -309h-148l33 170h-520z" />
    <glyph glyph-name="uni0427" unicode="&#x427;" horiz-adv-x="710" 
d="M303 228q-98 0 -154 49t-56 132q0 19 2.5 42t6.5 43l41 206h162l-39 -197q-3 -14 -5 -30t-2 -30q0 -39 25 -59t82 -20q66 0 135 26l60 310h162l-136 -700h-162l50 255q-46 -14 -88 -20.5t-84 -6.5z" />
    <glyph glyph-name="uni0428" unicode="&#x428;" horiz-adv-x="996" 
d="M22 0l136 700h159l-109 -561h188l108 561h159l-108 -561h186l109 561h159l-136 -700h-851z" />
    <glyph glyph-name="uni0429" unicode="&#x429;" horiz-adv-x="1047" 
d="M22 0l136 700h159l-109 -561h188l108 561h159l-108 -561h186l109 561h159l-109 -561h93l-60 -309h-148l33 170h-796z" />
    <glyph glyph-name="uni042A" unicode="&#x42a;" horiz-adv-x="781" 
d="M160 0l109 560h-202l42 140h349l-44 -228h106q100 0 159 -53t59 -145q0 -86 -38 -147.5t-107.5 -94t-164.5 -32.5h-268zM347 126h94q64 0 101 35.5t37 95.5q0 42 -24 66t-73 24h-92z" />
    <glyph glyph-name="uni042B" unicode="&#x42b;" horiz-adv-x="914" 
d="M22 0l136 700h162l-44 -228h107q100 0 158.5 -53t58.5 -146q0 -85 -37.5 -146.5t-106.5 -94t-165 -32.5h-269zM629 0l136 700h162l-136 -700h-162zM209 126h94q65 0 101.5 35.5t36.5 95.5q0 42 -24 66t-72 24h-93z" />
    <glyph glyph-name="uni042C" unicode="&#x42c;" horiz-adv-x="643" 
d="M22 0l136 700h162l-44 -228h107q100 0 158.5 -53t58.5 -146q0 -85 -37.5 -146.5t-106.5 -94t-165 -32.5h-269zM209 126h94q65 0 101.5 35.5t36.5 95.5q0 42 -24 66t-72 24h-93z" />
    <glyph glyph-name="uni042D" unicode="&#x42d;" horiz-adv-x="671" 
d="M230 -16q-144 0 -231 60l47 129q35 -24 82 -36.5t109 -12.5q98 0 156.5 44t79.5 120h-324l26 131h311q-6 77 -50.5 117t-127.5 40q-100 0 -192 -49l-5 130q48 28 107 43.5t122 15.5q92 0 160.5 -38.5t107 -107t38.5 -160.5q0 -131 -50 -227t-143 -147.5t-223 -51.5z" />
    <glyph glyph-name="uni042E" unicode="&#x42e;" horiz-adv-x="1064" 
d="M22 0l136 700h162l-53 -275h74q25 87 79.5 152.5t132.5 102t172 36.5q96 0 166.5 -38.5t109.5 -108.5t39 -165q0 -91 -29.5 -167.5t-83.5 -133t-127 -88t-160 -31.5q-94 0 -164 37t-109.5 104t-42.5 159h-85l-55 -284h-162zM652 124q63 0 112.5 35.5t78.5 97t29 137.5
q0 86 -42.5 134t-116.5 48q-63 0 -113 -35.5t-79 -96.5t-29 -138q0 -85 42 -133.5t118 -48.5z" />
    <glyph glyph-name="uni042F" unicode="&#x42f;" horiz-adv-x="666" 
d="M-13 0l221 292q-41 23 -66.5 64t-25.5 98q0 80 41.5 135t112.5 83t159 28h250l-136 -700h-157l49 253h-80l-180 -253h-188zM378 379h82l38 195h-79q-61 0 -99.5 -29.5t-38.5 -83.5q0 -82 97 -82z" />
    <glyph glyph-name="uni0430" unicode="&#x430;" horiz-adv-x="564" 
d="M166 -13q-69 0 -109.5 39.5t-40.5 106.5q0 93 77 141.5t228 49.5l49 1q3 18 3 25q0 61 -91 61q-86 0 -169 -47l-2 120q98 49 201 49q96 0 151 -46.5t55 -126.5q0 -16 -1.5 -37t-5.5 -41l-56 -282h-131l10 70q-28 -39 -72 -61t-96 -22zM166 156q0 -53 61 -53q47 0 80.5 31
t43.5 83l3 18l-33 -1q-79 -1 -117 -20.5t-38 -57.5z" />
    <glyph glyph-name="uni0431" unicode="&#x431;" horiz-adv-x="622" 
d="M292 -13q-119 0 -179 73.5t-60 194.5q0 58 12.5 117t32.5 112q36 95 95 154.5t154 78.5q21 4 61.5 10t90 11.5t94.5 7.5l4 -138q-48 -1 -96 -6t-85 -10.5t-53 -8.5q-50 -10 -88 -45.5t-63 -118.5q30 39 74 62t101 23q86 0 139.5 -56.5t53.5 -163.5q0 -89 -37.5 -156
t-102.5 -104t-148 -37zM296 113q59 0 93.5 45.5t34.5 111.5q0 56 -24.5 84t-67.5 28q-38 0 -68 -21t-47 -56.5t-17 -79.5q0 -55 26 -83.5t70 -28.5z" />
    <glyph glyph-name="uni0432" unicode="&#x432;" horiz-adv-x="562" 
d="M12 0l101 520h242q86 0 133 -32.5t47 -89.5q0 -49 -30.5 -82t-87.5 -48q89 -20 89 -106q0 -77 -64 -119.5t-175 -42.5h-255zM323 417h-83l-20 -102h79q83 0 83 60q0 42 -59 42zM179 104h98q38 0 60 16t22 46q0 50 -68 50h-90z" />
    <glyph glyph-name="uni0433" unicode="&#x433;" horiz-adv-x="441" 
d="M12 0l101 520h352l-4 -124h-218l-77 -396h-154z" />
    <glyph glyph-name="uni0434" unicode="&#x434;" horiz-adv-x="662" 
d="M-57 -142l52 266h63q29 35 55 84.5t44 115.5q8 30 21 79.5t27 116.5h401l-77 -396h86l-52 -266h-135l28 142h-350l-28 -142h-135zM278 277q-26 -90 -67 -153h171l52 272h-125q-7 -28 -14.5 -57.5t-16.5 -61.5z" />
    <glyph glyph-name="uni0435" unicode="&#x435;" horiz-adv-x="572" 
d="M285 -13q-115 0 -180 63.5t-65 175.5q0 89 38 158.5t103.5 109t149.5 39.5q98 0 154 -55t56 -151q0 -26 -4 -57t-11 -53h-336q8 -107 125 -107q79 0 159 42l1 -122q-77 -43 -190 -43zM321 419q-40 0 -72 -29.5t-48 -76.5h198q1 9 1 20q0 41 -20.5 63.5t-58.5 22.5z" />
    <glyph glyph-name="uni0436" unicode="&#x436;" horiz-adv-x="875" 
d="M-42 0l234 280l-108 240h163l72 -193h59l37 193h149l-37 -193h55l152 193h170l-210 -256l122 -264h-168l-85 203h-61l-39 -203h-149l39 203h-50l-165 -203h-180z" />
    <glyph glyph-name="uni0437" unicode="&#x437;" horiz-adv-x="486" 
d="M185 -13q-65 0 -113 14t-82 39l42 105q23 -17 61.5 -30t87.5 -13q41 0 71 15.5t30 52.5q0 20 -14.5 32t-47.5 12h-97l20 103h87q31 0 53.5 13.5t22.5 41.5q0 23 -16.5 35t-54.5 12q-40 0 -80 -13t-74 -33l-6 112q39 22 89.5 35t112.5 13q88 0 135.5 -37.5t47.5 -93.5
q0 -47 -27.5 -80.5t-72.5 -51.5q70 -27 70 -104q0 -61 -33.5 -101t-89 -59t-122.5 -19z" />
    <glyph glyph-name="uni0438" unicode="&#x438;" horiz-adv-x="606" 
d="M12 0l101 520h150l-59 -301l249 301h141l-101 -520h-150l57 294l-247 -294h-141z" />
    <glyph glyph-name="uni0439" unicode="&#x439;" horiz-adv-x="606" 
d="M12 0l101 520h150l-59 -301l249 301h141l-101 -520h-150l57 294l-247 -294h-141zM373 583q-165 0 -165 146v6l124 15v-15q0 -76 53 -76q60 0 82 91l123 -15q-49 -152 -217 -152z" />
    <glyph glyph-name="uni043A" unicode="&#x43a;" horiz-adv-x="581" 
d="M12 0l101 520h154l-37 -193h50l158 193h170l-215 -256l129 -264h-169l-92 203h-56l-39 -203h-154z" />
    <glyph glyph-name="uni043B" unicode="&#x43b;" horiz-adv-x="614" 
d="M42 -4q-21 0 -38 3.5t-34 8.5l33 127q8 -2 15.5 -3.5t16.5 -1.5q29 0 49.5 26t39.5 91q12 43 30.5 117t33.5 156h414l-101 -520h-154l77 396h-129q-16 -68 -31 -127.5t-25 -94.5q-28 -98 -74.5 -138t-122.5 -40z" />
    <glyph glyph-name="uni043C" unicode="&#x43c;" horiz-adv-x="756" 
d="M12 0l101 520h173l83 -296l202 296h173l-101 -520h-142l64 331l-173 -253h-96l-77 256l-65 -334h-142z" />
    <glyph glyph-name="uni043D" unicode="&#x43d;" horiz-adv-x="599" 
d="M12 0l101 520h154l-37 -189h166l37 189h154l-101 -520h-154l40 207h-166l-40 -207h-154z" />
    <glyph glyph-name="uni043E" unicode="&#x43e;" horiz-adv-x="619" 
d="M280 -13q-73 0 -127 29t-83.5 82t-29.5 124q0 91 38.5 161t106.5 110t156 40q72 0 125.5 -29t83 -81.5t29.5 -123.5q0 -92 -38 -162.5t-105.5 -110t-155.5 -39.5zM292 119q37 0 66.5 22.5t46.5 61t17 87.5q0 53 -24.5 82t-68.5 29q-37 0 -67 -22.5t-47.5 -60.5t-17.5 -86
q0 -52 26 -82.5t69 -30.5z" />
    <glyph glyph-name="uni043F" unicode="&#x43f;" horiz-adv-x="594" 
d="M12 0l101 520h469l-102 -520h-154l77 396h-160l-77 -396h-154z" />
    <glyph glyph-name="uni0440" unicode="&#x440;" horiz-adv-x="633" 
d="M-29 -216l143 736h137l-10 -73q28 41 68.5 63.5t89.5 22.5q57 0 101 -30t68.5 -83t24.5 -123q0 -64 -20.5 -120.5t-56.5 -99t-83.5 -66.5t-101.5 -24q-53 0 -92 23.5t-57 65.5l-57 -292h-154zM303 119q38 0 68 22t48 60t18 85q0 53 -25 84t-69 31q-37 0 -67.5 -22.5
t-48.5 -60.5t-18 -85q0 -53 25.5 -83.5t68.5 -30.5z" />
    <glyph glyph-name="uni0441" unicode="&#x441;" horiz-adv-x="520" 
d="M288 -13q-76 0 -131.5 29.5t-86 83.5t-30.5 127q0 89 40 158t110.5 108.5t159.5 39.5q49 0 93.5 -11.5t75.5 -32.5l-49 -121q-51 34 -114 34q-73 0 -116.5 -45t-43.5 -122q0 -55 31 -86t86 -31q70 0 132 38v-130q-70 -39 -157 -39z" />
    <glyph glyph-name="uni0442" unicode="&#x442;" horiz-adv-x="499" 
d="M122 0l77 396h-161l24 124h477l-25 -124h-161l-77 -396h-154z" />
    <glyph glyph-name="uni0443" unicode="&#x443;" horiz-adv-x="578" 
d="M52 -229q-32 0 -60.5 6t-48.5 18l38 122q32 -17 71 -17q72 0 112 75l13 24l-117 521h163l57 -369l177 369h164l-313 -557q-40 -72 -77.5 -114t-79.5 -60t-99 -18z" />
    <glyph glyph-name="uni0444" unicode="&#x444;" horiz-adv-x="793" 
d="M227 -216l41 211q-106 20 -166.5 82t-60.5 157q0 132 88.5 208.5t241.5 88.5l34 169h152l-35 -175q107 -19 168.5 -82t61.5 -158q0 -133 -89.5 -209t-244.5 -87l-39 -205h-152zM194 244q0 -51 28 -84.5t77 -47.5l59 301q-80 -12 -122 -55t-42 -114zM599 275
q0 52 -28.5 85.5t-78.5 47.5l-58 -302q80 11 122.5 54t42.5 115z" />
    <glyph glyph-name="uni0445" unicode="&#x445;" horiz-adv-x="583" 
d="M-31 0l241 267l-132 253h166l69 -154l126 154h174l-242 -265l138 -255h-169l-69 151l-126 -151h-176z" />
    <glyph glyph-name="uni0446" unicode="&#x446;" horiz-adv-x="637" 
d="M12 0l101 520h154l-77 -396h160l77 396h154l-77 -396h86l-52 -266h-135l28 142h-419z" />
    <glyph glyph-name="uni0447" unicode="&#x447;" horiz-adv-x="574" 
d="M307 0l35 179q-56 -16 -121 -16q-78 0 -125 35.5t-47 103.5q0 13 1.5 28t4.5 28l32 162h154l-31 -157q-3 -15 -3 -30q0 -52 68 -52q21 0 44.5 4t44.5 14l44 221h154l-101 -520h-154z" />
    <glyph glyph-name="uni0448" unicode="&#x448;" horiz-adv-x="842" 
d="M12 0l101 520h151l-77 -396h133l76 396h151l-77 -396h133l76 396h151l-101 -520h-717z" />
    <glyph glyph-name="uni0449" unicode="&#x449;" horiz-adv-x="886" 
d="M12 0l101 520h151l-77 -396h133l76 396h151l-77 -396h133l76 396h151l-77 -396h86l-52 -266h-135l28 142h-668z" />
    <glyph glyph-name="uni044A" unicode="&#x44a;" horiz-adv-x="623" 
d="M94 0l76 396h-137l38 124h278l-32 -164h78q90 0 139.5 -40.5t49.5 -109.5q0 -99 -68 -152.5t-189 -53.5h-233zM268 102h65q45 0 71 24t26 67q0 61 -66 61h-67z" />
    <glyph glyph-name="uni044B" unicode="&#x44b;" horiz-adv-x="797" 
d="M502 206q0 -99 -68 -152.5t-189 -53.5h-233l101 520h154l-32 -164h78q90 0 139.5 -40.5t49.5 -109.5zM530 0l102 520h154l-102 -520h-154zM186 102h65q45 0 71 24t26 67q0 61 -66 61h-67z" />
    <glyph glyph-name="uni044C" unicode="&#x44c;" horiz-adv-x="541" 
d="M12 0l101 520h154l-32 -164h78q90 0 139.5 -40.5t49.5 -109.5q0 -99 -68 -152.5t-189 -53.5h-233zM186 102h65q45 0 71 24t26 67q0 61 -66 61h-67z" />
    <glyph glyph-name="uni044D" unicode="&#x44d;" horiz-adv-x="540" 
d="M183 -13q-70 0 -115.5 14.5t-77.5 33.5l50 123q29 -22 63.5 -33.5t83.5 -11.5q61 0 99 25.5t54 73.5h-230l19 103h219q-13 93 -118 93q-40 0 -74.5 -9.5t-77.5 -31.5l-1 123q38 20 82 31.5t100 11.5q75 0 129 -29t83 -81.5t29 -122.5q0 -96 -38 -166.5t-109 -108.5
t-170 -38z" />
    <glyph glyph-name="uni044E" unicode="&#x44e;" horiz-adv-x="849" 
d="M12 0l101 520h154l-37 -189h57q29 92 105 147t179 55q73 0 126 -29t82.5 -81.5t29.5 -124.5q0 -91 -38 -161.5t-105 -110t-155 -39.5q-106 0 -171 59.5t-70 160.5h-64l-40 -207h-154zM523 118q37 0 66.5 22.5t46.5 61.5t17 87q0 53 -25 83t-69 30q-38 0 -68 -22.5
t-47.5 -61t-17.5 -86.5q0 -52 26 -83t71 -31z" />
    <glyph glyph-name="uni044F" unicode="&#x44f;" horiz-adv-x="541" 
d="M-32 0l151 201q-30 20 -49 51.5t-19 72.5q0 66 34.5 109t94.5 64.5t135 21.5h214l-101 -520h-149l31 163h-60h-4l-110 -163h-168zM276 266h54l30 152h-54q-46 0 -75.5 -23t-29.5 -65q0 -29 19 -46.5t56 -17.5z" />
    <glyph glyph-name="uni0450" unicode="&#x450;" horiz-adv-x="572" 
d="M285 -13q-115 0 -180 63.5t-65 175.5q0 89 38 158.5t103.5 109t149.5 39.5q98 0 154 -55t56 -151q0 -26 -4 -57t-11 -53h-336q8 -107 125 -107q79 0 159 42l1 -122q-77 -43 -190 -43zM321 419q-40 0 -72 -29.5t-48 -76.5h198q1 9 1 20q0 41 -20.5 63.5t-58.5 22.5z
M304 599l-120 156h160l88 -156h-128z" />
    <glyph glyph-name="uni0451" unicode="&#x451;" horiz-adv-x="572" 
d="M285 -13q-115 0 -180 63.5t-65 175.5q0 89 38 158.5t103.5 109t149.5 39.5q98 0 154 -55t56 -151q0 -26 -4 -57t-11 -53h-336q8 -107 125 -107q79 0 159 42l1 -122q-77 -43 -190 -43zM321 419q-40 0 -72 -29.5t-48 -76.5h198q1 9 1 20q0 41 -20.5 63.5t-58.5 22.5z
M247 606q-30 0 -47.5 17.5t-17.5 47.5q0 35 23 57.5t57 22.5q29 0 47.5 -17.5t18.5 -46.5q0 -34 -23 -57.5t-58 -23.5zM470 606q-29 0 -46.5 17.5t-17.5 47.5q0 35 23 57.5t57 22.5q29 0 47.5 -17.5t18.5 -46.5q0 -35 -23.5 -58t-58.5 -23z" />
    <glyph glyph-name="uni0452" unicode="&#x452;" horiz-adv-x="594" 
d="M299 -137q-23 0 -46.5 4.5t-37.5 11.5l30 117q14 -6 35 -6q41 0 62.5 37.5t37.5 119.5q11 53 15.5 93t4.5 62q0 37 -13.5 60t-47.5 23q-40 0 -69 -31t-39 -81l-53 -273h-154l113 583h-62l18 90h62l13 67h154l-13 -67h159l-18 -90h-158l-26 -133q58 70 144 70
q72 0 106.5 -53.5t34.5 -137.5q0 -34 -5 -84.5t-16 -106.5q-30 -148 -86 -211.5t-145 -63.5z" />
    <glyph glyph-name="uni0453" unicode="&#x453;" horiz-adv-x="441" 
d="M12 0l101 520h352l-4 -124h-218l-77 -396h-154zM215 599l151 156h167l-182 -156h-136z" />
    <glyph glyph-name="uni0454" unicode="&#x454;" horiz-adv-x="540" 
d="M283 -13q-74 0 -128.5 29.5t-84.5 83.5t-30 127q0 89 41 158t112.5 108.5t164.5 39.5q60 0 105.5 -11.5t82.5 -34.5l-48 -121q-29 21 -65 31.5t-73 10.5q-56 0 -96 -25t-59 -69h227l-20 -102h-221q7 -48 38.5 -73.5t85.5 -25.5q77 0 149 43v-124q-38 -23 -84.5 -34
t-96.5 -11z" />
    <glyph glyph-name="uni0455" unicode="&#x455;" horiz-adv-x="480" 
d="M183 -13q-113 0 -197 54l45 116q78 -50 153 -50q42 0 65 13t23 36q0 19 -16 29.5t-71 25.5q-72 20 -105 55t-33 90q0 53 29.5 93t82.5 62t123 22q51 0 100 -12.5t86 -35.5l-46 -114q-30 20 -67 31t-72 11q-84 0 -84 -45q0 -17 17.5 -28.5t70.5 -25.5q71 -19 104 -53.5
t33 -89.5t-30 -96.5t-84.5 -64.5t-126.5 -23z" />
    <glyph glyph-name="uni0456" unicode="&#x456;" horiz-adv-x="279" 
d="M211 584q-39 0 -62 21.5t-23 58.5q0 42 29 70t73 28q38 0 62 -21.5t24 -56.5q0 -43 -29.5 -71.5t-73.5 -28.5zM12 0l100 520h154l-100 -520h-154z" />
    <glyph glyph-name="uni0457" unicode="&#x457;" horiz-adv-x="279" 
d="M12 0l100 520h154l-100 -520h-154zM99 606q-30 0 -47.5 17.5t-17.5 47.5q0 35 23 57.5t57 22.5q29 0 47.5 -17.5t18.5 -46.5q0 -34 -23 -57.5t-58 -23.5zM322 606q-29 0 -46.5 17.5t-17.5 47.5q0 35 23 57.5t57 22.5q29 0 47.5 -17.5t18.5 -46.5q0 -35 -23.5 -58
t-58.5 -23z" />
    <glyph glyph-name="uni0458" unicode="&#x458;" horiz-adv-x="279" 
d="M211 584q-39 0 -62 21.5t-23 58.5q0 42 29 70t73 28q38 0 62 -21.5t24 -56.5q0 -43 -29.5 -71.5t-73.5 -28.5zM-64 -229q-66 0 -120 26l44 120q35 -17 65 -17q35 0 55 22.5t30 71.5l102 526h154l-105 -541q-20 -106 -75.5 -157t-149.5 -51z" />
    <glyph glyph-name="uni0459" unicode="&#x459;" horiz-adv-x="859" 
d="M42 -4q-21 0 -38 3.5t-34 8.5l33 127q8 -2 15.5 -3.5t16.5 -1.5q29 0 50 26t39 91q12 43 30.5 117t33.5 156h402l-31 -164h72q90 0 139.5 -40.5t49.5 -109.5q0 -99 -68 -152.5t-189 -53.5h-227l77 396h-118q-16 -68 -31 -127.5t-25 -94.5q-28 -98 -74.5 -138t-122.5 -40z
M600 254h-61l-29 -152h59q45 0 71 24t26 67q0 61 -66 61z" />
    <glyph glyph-name="uni045A" unicode="&#x45a;" horiz-adv-x="850" 
d="M12 0l101 520h154l-36 -189h162l36 189h154l-32 -164h71q90 0 139.5 -40.5t49.5 -109.5q0 -99 -68 -152.5t-189 -53.5h-226l40 207h-162l-40 -207h-154zM591 254h-60l-29 -152h58q45 0 71 24t26 67q0 61 -66 61z" />
    <glyph glyph-name="uni045B" unicode="&#x45b;" horiz-adv-x="607" 
d="M24 0l113 582h-63l18 92h63l13 66h154l-13 -66h158l-18 -92h-158l-27 -140q55 78 150 78q70 0 110 -41.5t40 -115.5q0 -11 -1.5 -26.5t-6.5 -40.5l-57 -296h-154l55 286q5 23 5 40q0 59 -61 59q-42 0 -71.5 -28t-39.5 -77l-55 -280h-154z" />
    <glyph glyph-name="uni045C" unicode="&#x45c;" horiz-adv-x="581" 
d="M12 0l101 520h154l-37 -193h50l158 193h170l-215 -256l129 -264h-169l-92 203h-56l-39 -203h-154zM274 599l151 156h167l-182 -156h-136z" />
    <glyph glyph-name="uni045D" unicode="&#x45d;" horiz-adv-x="606" 
d="M12 0l101 520h150l-59 -301l249 301h141l-101 -520h-150l57 294l-247 -294h-141zM325 599l-120 156h160l88 -156h-128z" />
    <glyph glyph-name="uni045E" unicode="&#x45e;" horiz-adv-x="578" 
d="M52 -229q-32 0 -60.5 6t-48.5 18l38 122q32 -17 71 -17q72 0 112 75l13 24l-117 521h163l57 -369l177 369h164l-313 -557q-40 -72 -77.5 -114t-79.5 -60t-99 -18zM352 583q-165 0 -165 146v6l124 15v-15q0 -76 53 -76q60 0 82 91l123 -15q-49 -152 -217 -152z" />
    <glyph glyph-name="uni045F" unicode="&#x45f;" horiz-adv-x="593" 
d="M12 0l100 520h155l-77 -395h159l77 395h155l-102 -520h-160l-28 -142h-135l27 142h-171z" />
    <glyph glyph-name="uni0462" unicode="&#x462;" horiz-adv-x="647" 
d="M26 0l104 537h-90l19 99h91l12 64h162l-12 -64h161l-19 -99h-162l-12 -65h107q100 0 158.5 -53t58.5 -146q0 -85 -37.5 -146.5t-106.5 -94t-165 -32.5h-269zM213 126h94q65 0 101.5 35.5t36.5 95.5q0 42 -24 66t-72 24h-93z" />
    <glyph glyph-name="uni0463" unicode="&#x463;" horiz-adv-x="536" 
d="M7 0l84 431h-72l17 89h73l43 220h153l-43 -220h153l-17 -89h-153l-15 -75h78q90 0 139.5 -40.5t49.5 -109.5q0 -99 -68 -152.5t-189 -53.5h-233zM181 102h65q45 0 71 24t26 67q0 61 -66 61h-66z" />
    <glyph glyph-name="uni0472" unicode="&#x472;" horiz-adv-x="811" 
d="M381 -16q-98 0 -170.5 38.5t-112 109t-39.5 164.5q0 91 30 168t85 133.5t129 87.5t162 31q98 0 170 -38.5t112 -108.5t40 -165q0 -91 -30 -167.5t-85 -133t-129 -88t-162 -31.5zM441 396q30 -11 51 -15.5t43 -4.5q39 0 84 23q-2 83 -45.5 130t-119.5 47q-52 0 -96.5 -24
t-75.5 -66.5t-45 -98.5q54 30 106 30q41 0 98 -21zM393 124q75 0 132.5 49.5t80.5 128.5q-47 -26 -93 -26q-22 0 -47.5 5t-57.5 16q-28 11 -49.5 15.5t-35.5 4.5q-24 0 -46 -5.5t-50 -19.5q4 -79 47.5 -123.5t118.5 -44.5z" />
    <glyph glyph-name="uni0473" unicode="&#x473;" horiz-adv-x="619" 
d="M280 -13q-72 0 -126 29t-84 82t-30 124q0 91 38.5 161t106.5 110t156 40q73 0 126 -29t82.5 -82t29.5 -124q0 -91 -38 -161.5t-105.5 -110t-155.5 -39.5zM320 298q14 -6 29.5 -11t35.5 -5q11 0 22 2t21 7q-1 55 -27 85.5t-72 30.5t-80.5 -31t-49.5 -80q16 9 32 13.5
t30 4.5q17 0 31.5 -4.5t27.5 -11.5zM291 113q43 0 76 28t49 73q-26 -15 -53 -15q-19 0 -34 5t-29 12q-13 6 -27 10.5t-33 4.5q-12 0 -25 -2.5t-25 -8.5q4 -51 30.5 -79t70.5 -28z" />
    <glyph glyph-name="uni0474" unicode="&#x474;" horiz-adv-x="733" 
d="M221 0l-125 700h169l68 -525l181 347q37 72 71 112t70.5 56.5t79.5 16.5q20 0 40 -3.5t37 -9.5l-43 -124q-5 2 -10 3t-11 1q-25 0 -47 -23.5t-55 -82.5l-263 -468h-162z" />
    <glyph glyph-name="uni0475" unicode="&#x475;" horiz-adv-x="588" 
d="M156 0l-98 520h159l43 -370l121 236q40 77 81.5 108.5t107.5 31.5q13 0 29.5 -1.5t33.5 -5.5l-38 -112q-6 1 -17 1q-18 0 -33.5 -15.5t-39.5 -57.5l-194 -335h-155z" />
    <glyph glyph-name="uni0490" unicode="&#x490;" horiz-adv-x="545" 
d="M22 0l137 700h307l27 140h148l-55 -280h-147v1h-146l-109 -561h-162z" />
    <glyph glyph-name="uni0491" unicode="&#x491;" horiz-adv-x="441" 
d="M12 0l101 520h241l22 114h131l-46 -239h-131v1h-87l-77 -396h-154z" />
    <glyph glyph-name="uni0492" unicode="&#x492;" horiz-adv-x="584" 
d="M62 0l55 280h-109l25 126h108l58 294h431l-5 -139h-292l-30 -155h182l-25 -126h-182l-54 -280h-162z" />
    <glyph glyph-name="uni0493" unicode="&#x493;" horiz-adv-x="455" 
d="M26 0l33 169h-70l22 110h69l47 241h352l-4 -124h-218l-23 -117h138l-22 -110h-137l-33 -169h-154z" />
    <glyph glyph-name="uni0496" unicode="&#x496;" horiz-adv-x="1111" 
d="M-38 0l307 371l-135 329h174l97 -275h80l53 275h161l-53 -275h76l213 275h185l-282 -348l99 -213h119l-60 -309h-148l33 170h-60l-120 285h-83l-55 -285h-161l55 285h-76l-222 -285h-197z" />
    <glyph glyph-name="uni0497" unicode="&#x497;" horiz-adv-x="904" 
d="M-42 0l234 280l-108 240h163l72 -193h59l37 193h149l-37 -193h55l152 193h170l-210 -256l65 -140h98l-52 -266h-135l28 142h-50l-85 203h-61l-39 -203h-149l39 203h-50l-165 -203h-180z" />
    <glyph glyph-name="uni049A" unicode="&#x49a;" horiz-adv-x="737" 
d="M22 0l137 700h161l-53 -275h71l212 275h186l-278 -345l102 -216h122l-60 -309h-148l33 170h-62l-126 285h-80l-55 -285h-162z" />
    <glyph glyph-name="uni049B" unicode="&#x49b;" horiz-adv-x="613" 
d="M12 0l101 520h154l-37 -193h50l158 193h170l-215 -256l68 -140h105l-52 -266h-135l28 142h-54l-92 203h-56l-39 -203h-154z" />
    <glyph glyph-name="uni04A2" unicode="&#x4a2;" horiz-adv-x="790" 
d="M22 0l136 700h162l-53 -275h270l53 275h162l-109 -561h93l-60 -309h-148l33 170h-107l55 284h-270l-55 -284h-162z" />
    <glyph glyph-name="uni04A3" unicode="&#x4a3;" horiz-adv-x="643" 
d="M12 0l101 520h154l-37 -189h166l37 189h154l-77 -396h86l-52 -266h-135l28 142h-105l40 207h-166l-40 -207h-154z" />
    <glyph glyph-name="uni04AE" unicode="&#x4ae;" horiz-adv-x="689" 
d="M214 0l54 276l-169 424h173l97 -296l206 296h187l-332 -424l-54 -276h-162z" />
    <glyph glyph-name="uni04AF" unicode="&#x4af;" horiz-adv-x="569" 
d="M112 -216l50 255l-104 481h166l42 -335l184 335h161l-297 -486l-48 -250h-154z" />
    <glyph glyph-name="uni04B0" unicode="&#x4b0;" horiz-adv-x="689" 
d="M81 150l25 125h162v1l-169 424h173l97 -296l206 296h187l-332 -424v-1h168l-25 -125h-168l-29 -150h-162l29 150h-162z" />
    <glyph glyph-name="uni04B1" unicode="&#x4b1;" horiz-adv-x="569" 
d="M9 0l22 110h115l-88 410h166l42 -335l184 335h161l-250 -410h118l-22 -110h-149l-42 -216h-154l42 216h-145z" />
    <glyph glyph-name="uni04BA" unicode="&#x4ba;" horiz-adv-x="708" 
d="M22 0l136 700h162l-52 -270q45 15 86 21.5t80 6.5q95 0 150.5 -49.5t55.5 -132.5q0 -19 -2.5 -42t-6.5 -43l-37 -191h-162l35 180q3 17 5 33.5t2 27.5q0 39 -23.5 59.5t-75.5 20.5q-31 0 -64 -5.5t-69 -18.5l-58 -297h-162z" />
    <glyph glyph-name="uni04BB" unicode="&#x4bb;" horiz-adv-x="595" 
d="M12 0l144 740h154l-53 -272q55 65 147 65q70 0 109 -40.5t39 -122.5q0 -16 -1.5 -36t-5.5 -37l-58 -297h-154l57 295q2 10 3.5 23t1.5 22q0 59 -60 59q-43 0 -72.5 -29.5t-39.5 -80.5l-57 -289h-154z" />
    <glyph glyph-name="uni04D8" unicode="&#x4d8;" horiz-adv-x="726" 
d="M315 -16q-89 0 -148 36t-87.5 98t-28.5 140q0 36 6.5 77.5t16.5 68.5h470q0 85 -42.5 131.5t-121.5 46.5q-56 0 -107.5 -16.5t-102.5 -47.5l-15 130q53 33 119 50.5t133 17.5q93 0 159 -38.5t101 -108.5t35 -164q0 -84 -26 -159.5t-76 -134.5t-122 -93t-163 -34zM204 255
q0 -62 30.5 -99.5t92.5 -37.5q78 0 127.5 46t71.5 116h-321q-1 -13 -1 -25z" />
    <glyph glyph-name="uni04D9" unicode="&#x4d9;" horiz-adv-x="572" 
d="M241 -13q-97 0 -153 55t-56 151q0 28 4 58.5t11 51.5h335q-8 107 -124 107q-80 0 -160 -42l-1 122q35 20 84 31.5t101 11.5q117 0 183.5 -64t66.5 -176q0 -88 -37.5 -157.5t-103 -109t-150.5 -39.5zM172 187q0 -41 20.5 -63.5t58.5 -22.5q41 0 73 29t47 77h-198
q-1 -10 -1 -20z" />
    <glyph glyph-name="uni04E8" unicode="&#x4e8;" horiz-adv-x="811" 
d="M381 -16q-98 0 -170.5 38.5t-112 109t-39.5 164.5q0 91 30 168t85 133.5t129 87.5t162 31q98 0 170 -38.5t112 -108.5t40 -165q0 -91 -30 -167.5t-85 -133t-129 -88t-162 -31.5zM454 576q-73 0 -129.5 -46t-81.5 -120h376q-5 78 -48 122t-117 44zM393 124q75 0 132.5 49
t80.5 127h-379q2 -83 46 -129.5t120 -46.5z" />
    <glyph glyph-name="uni04E9" unicode="&#x4e9;" horiz-adv-x="619" 
d="M280 -13q-72 0 -126 29t-84 82t-30 124q0 91 38.5 161t106.5 110t156 40q73 0 126 -29t82.5 -82t29.5 -124q0 -91 -38 -161.5t-105.5 -110t-155.5 -39.5zM329 407q-44 0 -78 -29t-50 -75h227q-4 49 -30 76.5t-69 27.5zM291 113q44 0 78 29.5t49 77.5h-228
q4 -50 30.5 -78.5t70.5 -28.5z" />
    <glyph glyph-name="uni0E3F" unicode="&#xe3f;" horiz-adv-x="612" 
d="M2 0l133 684h205l21 110h79l-22 -111q85 -8 131.5 -49.5t46.5 -112.5q0 -60 -37 -103.5t-103 -61.5q53 -12 83 -48.5t30 -91.5q0 -64 -35.5 -113t-99.5 -76t-148 -27l-21 -110h-80l21 110h-204zM256 571l-33 -168h62l33 168h-62zM445 503q0 51 -49 64l-31 -160
q38 9 59 34t21 62zM166 113h62l37 189h-62zM422 222q0 69 -78 78l-36 -186q54 4 84 32.5t30 75.5z" />
    <glyph glyph-name="uni1E24" unicode="&#x1e24;" horiz-adv-x="739" 
d="M22 0l136 700h162l-53 -275h270l53 275h162l-136 -700h-162l55 284h-270l-55 -284h-162zM281 -220q-31 0 -50 19t-19 51q0 36 24 60.5t61 24.5q32 0 51 -19t19 -51q0 -37 -24.5 -61t-61.5 -24z" />
    <glyph glyph-name="uni1E25" unicode="&#x1e25;" horiz-adv-x="595" 
d="M12 0l144 740h154l-53 -272q55 65 147 65q70 0 109 -40.5t39 -122.5q0 -16 -1.5 -36t-5.5 -37l-58 -297h-154l57 295q2 10 3.5 23t1.5 22q0 59 -60 59q-43 0 -72.5 -29.5t-39.5 -80.5l-57 -289h-154zM221 -218q-31 0 -49.5 19t-18.5 50q0 35 24 59.5t60 24.5q31 0 50 -19
t19 -49q0 -37 -24 -61t-61 -24z" />
    <glyph glyph-name="uni1E36" unicode="&#x1e36;" horiz-adv-x="563" 
d="M22 0l136 700h162l-109 -560h320l-43 -140h-466zM248 -220q-31 0 -50 19t-19 51q0 36 24 60.5t61 24.5q32 0 51 -19t19 -51q0 -37 -24.5 -61t-61.5 -24z" />
    <glyph glyph-name="uni1E37" unicode="&#x1e37;" horiz-adv-x="279" 
d="M12 0l144 740h154l-144 -740h-154zM54 -218q-31 0 -49.5 19t-18.5 50q0 35 24 59.5t60 24.5q31 0 50 -19t19 -49q0 -37 -24 -61t-61 -24z" />
    <glyph glyph-name="Wgrave" unicode="&#x1e80;" horiz-adv-x="990" 
d="M154 0l-54 700h168l14 -505l222 505h157l26 -503l206 503h169l-326 -700h-161l-26 516l-232 -516h-163zM547 772l-142 130h179l116 -130h-153z" />
    <glyph glyph-name="wgrave" unicode="&#x1e81;" horiz-adv-x="830" 
d="M118 0l-56 520h161l6 -370l160 370h151l18 -372l152 372h158l-256 -520h-156l-19 364l-159 -364h-160zM429 599l-120 156h160l88 -156h-128z" />
    <glyph glyph-name="Wacute" unicode="&#x1e82;" horiz-adv-x="990" 
d="M154 0l-54 700h168l14 -505l222 505h157l26 -503l206 503h169l-326 -700h-161l-26 516l-232 -516h-163zM492 772l167 130h183l-193 -130h-157z" />
    <glyph glyph-name="wacute" unicode="&#x1e83;" horiz-adv-x="830" 
d="M118 0l-56 520h161l6 -370l160 370h151l18 -372l152 372h158l-256 -520h-156l-19 364l-159 -364h-160zM383 599l151 156h167l-182 -156h-136z" />
    <glyph glyph-name="Wdieresis" unicode="&#x1e84;" horiz-adv-x="990" 
d="M154 0l-54 700h168l14 -505l222 505h157l26 -503l206 503h169l-326 -700h-161l-26 516l-232 -516h-163zM473 769q-30 0 -48 18t-18 49q0 35 23.5 58.5t58.5 23.5q30 0 49 -18.5t19 -47.5q0 -36 -24 -59.5t-60 -23.5zM711 769q-30 0 -48 18t-18 49q0 35 24 58.5t59 23.5
q29 0 48 -18.5t19 -47.5q0 -36 -24 -59.5t-60 -23.5z" />
    <glyph glyph-name="wdieresis" unicode="&#x1e85;" horiz-adv-x="830" 
d="M118 0l-56 520h161l6 -370l160 370h151l18 -372l152 372h158l-256 -520h-156l-19 364l-159 -364h-160zM372 606q-30 0 -47.5 17.5t-17.5 47.5q0 35 23 57.5t57 22.5q29 0 47.5 -17.5t18.5 -46.5q0 -34 -23 -57.5t-58 -23.5zM595 606q-29 0 -46.5 17.5t-17.5 47.5
q0 35 23 57.5t57 22.5q29 0 47.5 -17.5t18.5 -46.5q0 -35 -23.5 -58t-58.5 -23z" />
    <glyph glyph-name="uni1E9E" unicode="&#x1e9e;" horiz-adv-x="742" 
d="M405 -16q-50 0 -97 10.5t-77 29.5l45 128q57 -34 128 -34q59 0 91.5 25t32.5 71q0 43 -33 63t-107 24l-20 1l21 108l170 159q-42 10 -88 10q-179 0 -211 -166l-80 -413h-162l82 426q27 139 122.5 214.5t243.5 75.5q69 0 138.5 -17t121.5 -46l-24 -120l-153 -141
q142 -32 142 -171q0 -69 -36.5 -122.5t-101 -84t-148.5 -30.5z" />
    <glyph glyph-name="Ygrave" unicode="&#x1ef2;" horiz-adv-x="689" 
d="M214 0l54 276l-169 424h173l97 -296l206 296h187l-332 -424l-54 -276h-162zM389 772l-142 130h179l116 -130h-153z" />
    <glyph glyph-name="ygrave" unicode="&#x1ef3;" horiz-adv-x="578" 
d="M52 -229q-32 0 -60.5 6t-48.5 18l38 122q32 -17 71 -17q72 0 112 75l13 24l-117 521h163l57 -369l177 369h164l-313 -557q-40 -72 -77.5 -114t-79.5 -60t-99 -18zM304 599l-120 156h160l88 -156h-128z" />
    <glyph glyph-name="uni2000" unicode="&#x2000;" horiz-adv-x="500" 
 />
    <glyph glyph-name="uni2001" unicode="&#x2001;" horiz-adv-x="1000" 
 />
    <glyph glyph-name="uni2002" unicode="&#x2002;" horiz-adv-x="500" 
 />
    <glyph glyph-name="uni2003" unicode="&#x2003;" horiz-adv-x="1000" 
 />
    <glyph glyph-name="uni2004" unicode="&#x2004;" horiz-adv-x="333" 
 />
    <glyph glyph-name="uni2005" unicode="&#x2005;" horiz-adv-x="250" 
 />
    <glyph glyph-name="uni2006" unicode="&#x2006;" horiz-adv-x="167" 
 />
    <glyph glyph-name="uni2007" unicode="&#x2007;" horiz-adv-x="612" 
 />
    <glyph glyph-name="uni2008" unicode="&#x2008;" horiz-adv-x="280" 
 />
    <glyph glyph-name="uni2009" unicode="&#x2009;" horiz-adv-x="200" 
 />
    <glyph glyph-name="uni200A" unicode="&#x200a;" horiz-adv-x="150" 
 />
    <glyph glyph-name="uni200B" unicode="&#x200b;" 
 />
    <glyph glyph-name="endash" unicode="&#x2013;" horiz-adv-x="500" 
d="M-6 229l26 131h500l-26 -131h-500z" />
    <glyph glyph-name="emdash" unicode="&#x2014;" horiz-adv-x="1000" 
d="M-6 229l26 131h1000l-26 -131h-1000z" />
    <glyph glyph-name="quoteleft" unicode="&#x2018;" horiz-adv-x="280" 
d="M174 385q-38 0 -60 25.5t-22 69.5q0 47 25.5 94t70.5 85.5t102 61.5l34 -58q-41 -16 -74.5 -43.5t-52.5 -59.5q37 -1 58 -21t21 -53q0 -41 -30 -71t-72 -30z" />
    <glyph glyph-name="quoteright" unicode="&#x2019;" horiz-adv-x="280" 
d="M102 376l-35 58q42 16 75 43.5t52 59.5q-37 1 -58 21.5t-21 52.5q0 41 30 71t72 30q39 0 61 -25.5t22 -69.5q0 -47 -25.5 -94t-70 -85.5t-102.5 -61.5z" />
    <glyph glyph-name="quotesinglbase" unicode="&#x201a;" horiz-adv-x="280" 
d="M-3 -164l-35 58q42 16 75 43.5t52 59.5q-37 1 -58 21.5t-21 52.5q0 41 30 71t72 30q39 0 61 -25.5t22 -69.5q0 -47 -25.5 -94t-70 -85.5t-102.5 -61.5z" />
    <glyph glyph-name="quotedblleft" unicode="&#x201c;" horiz-adv-x="523" 
d="M174 385q-38 0 -60 25.5t-22 69.5q0 47 25.5 94t70.5 85.5t102 61.5l34 -58q-41 -16 -74.5 -43.5t-52.5 -59.5q37 -1 58 -21t21 -53q0 -41 -30 -71t-72 -30zM417 385q-38 0 -60 25.5t-22 69.5q0 47 25.5 94t70.5 85.5t102 61.5l34 -58q-41 -16 -74.5 -43.5t-52.5 -59.5
q37 -1 58 -21t21 -53q0 -41 -30 -71t-72 -30z" />
    <glyph glyph-name="quotedblright" unicode="&#x201d;" horiz-adv-x="523" 
d="M102 376l-35 58q42 16 75 43.5t52 59.5q-37 1 -58 21.5t-21 52.5q0 41 30 71t72 30q39 0 61 -25.5t22 -69.5q0 -47 -25.5 -94t-70 -85.5t-102.5 -61.5zM345 376l-35 58q42 16 75 43.5t52 59.5q-37 1 -58 21.5t-21 52.5q0 41 30 71t72 30q39 0 61 -25.5t22 -69.5
q0 -47 -25.5 -94t-70 -85.5t-102.5 -61.5z" />
    <glyph glyph-name="quotedblbase" unicode="&#x201e;" horiz-adv-x="523" 
d="M-3 -164l-35 58q42 16 75 43.5t52 59.5q-37 1 -58 21.5t-21 52.5q0 41 30 71t72 30q39 0 61 -25.5t22 -69.5q0 -47 -25.5 -94t-70 -85.5t-102.5 -61.5zM240 -164l-35 58q42 16 75 43.5t52 59.5q-37 1 -58 21.5t-21 52.5q0 41 30 71t72 30q39 0 61 -25.5t22 -69.5
q0 -47 -25.5 -94t-70 -85.5t-102.5 -61.5z" />
    <glyph glyph-name="dagger" unicode="&#x2020;" horiz-adv-x="482" 
d="M94 -98l111 513l-154 -5l25 133l153 -5l28 202h155l-50 -202l154 5l-25 -133l-153 5l-88 -513h-156z" />
    <glyph glyph-name="daggerdbl" unicode="&#x2021;" horiz-adv-x="502" 
d="M104 -98l47 187l-155 -5l27 133l151 -4l11 108l32 108l-154 -4l26 133l152 -5l26 187h154l-47 -187l155 5l-27 -133l-152 4l-10 -108l-32 -108l154 4l-26 -133l-152 5l-25 -187h-155z" />
    <glyph glyph-name="bullet" unicode="&#x2022;" horiz-adv-x="349" 
d="M178 139q-58 0 -96.5 38.5t-38.5 96.5q0 59 38.5 97t96.5 38t95.5 -38t37.5 -97t-37.5 -97t-95.5 -38z" />
    <glyph glyph-name="ellipsis" unicode="&#x2026;" horiz-adv-x="1000" 
d="M122 -10q-38 0 -61.5 22t-23.5 59q0 43 30.5 72t74.5 29q38 0 61 -22t23 -60q0 -43 -29.5 -71.5t-74.5 -28.5zM455 -10q-38 0 -61.5 22t-23.5 59q0 43 30.5 72t74.5 29q38 0 61 -22t23 -60q0 -43 -29.5 -71.5t-74.5 -28.5zM788 -10q-38 0 -61.5 22t-23.5 59q0 43 30.5 72
t74.5 29q38 0 61 -22t23 -60q0 -43 -29.5 -71.5t-74.5 -28.5z" />
    <glyph glyph-name="perthousand" unicode="&#x2030;" horiz-adv-x="1328" 
d="M194 0l459 684h118l-459 -684h-118zM695 -8q-66 0 -103.5 43t-37.5 117q0 70 24.5 124.5t68 86t98.5 31.5q66 0 102.5 -41.5t36.5 -116.5q0 -71 -24 -126.5t-66.5 -86.5t-98.5 -31zM704 80q21 0 37.5 21t26.5 55.5t10 76.5q0 73 -42 73q-20 0 -38 -21t-28.5 -55
t-10.5 -74q0 -76 45 -76zM1093 -8q-66 0 -103.5 43t-37.5 117q0 70 24.5 124.5t68 86t98.5 31.5q66 0 102.5 -41.5t36.5 -116.5q0 -71 -24 -126.5t-66.5 -86.5t-98.5 -31zM1102 80q21 0 37.5 21t26.5 55.5t10 76.5q0 73 -42 73q-20 0 -38 -21t-28.5 -55t-10.5 -74
q0 -76 45 -76zM221 290q-66 0 -103.5 43t-37.5 117q0 70 24.5 124.5t68 86t98.5 31.5q66 0 102.5 -41.5t36.5 -116.5q0 -71 -24 -126.5t-66.5 -86.5t-98.5 -31zM230 378q21 0 37.5 21t26.5 55.5t10 76.5q0 73 -42 73q-20 0 -38 -21t-28.5 -55t-10.5 -74q0 -76 45 -76z" />
    <glyph glyph-name="guilsinglleft" unicode="&#x2039;" horiz-adv-x="374" 
d="M133 52l-95 210l175 210h160l-172 -217l83 -203h-151z" />
    <glyph glyph-name="guilsinglright" unicode="&#x203a;" horiz-adv-x="374" 
d="M242 472l95 -210l-175 -210h-160l172 217l-83 203h151z" />
    <glyph glyph-name="fraction" unicode="&#x2044;" horiz-adv-x="131" 
d="M-197 0l459 684h118l-459 -684h-118z" />
    <glyph glyph-name="uni2070" unicode="&#x2070;" horiz-adv-x="397" 
d="M237 380q-66 0 -103.5 43t-37.5 117q0 70 24.5 124.5t68 86t98.5 31.5q66 0 102.5 -41.5t36.5 -116.5q0 -71 -24 -126.5t-66.5 -86.5t-98.5 -31zM246 468q21 0 37.5 21t26.5 55.5t10 76.5q0 73 -42 73q-20 0 -38 -21t-28.5 -55t-10.5 -74q0 -76 45 -76z" />
    <glyph glyph-name="uni2074" unicode="&#x2074;" horiz-adv-x="397" 
d="M243 388l13 68h-186l15 81l227 237h102l-46 -236h52l-25 -82h-43l-13 -68h-96zM185 538h87l22 114z" />
    <glyph glyph-name="uni2075" unicode="&#x2075;" horiz-adv-x="397" 
d="M210 380q-40 0 -71.5 8t-62.5 24l33 80q45 -28 104 -28q34 0 53.5 14t19.5 37q0 37 -58 37q-34 0 -71 -10l-34 19l60 213h231l-7 -87h-159l-17 -62q23 7 47 7q54 0 84 -27.5t30 -76.5q0 -67 -50 -107.5t-132 -40.5z" />
    <glyph glyph-name="uni2076" unicode="&#x2076;" horiz-adv-x="397" 
d="M254 380q-72 0 -112.5 43.5t-40.5 120.5q0 70 29 123.5t80 84t117 30.5q29 0 57 -5.5t47 -15.5l-29 -81q-36 16 -76 16q-95 0 -115 -96q35 37 89 37q49 0 78 -30t29 -80q0 -41 -20 -74.5t-54.5 -53t-78.5 -19.5zM250 461q25 0 40.5 16t15.5 40q0 20 -12 31.5t-32 11.5
q-24 0 -40.5 -15.5t-16.5 -38.5q0 -19 13 -32t32 -13z" />
    <glyph glyph-name="uni2077" unicode="&#x2077;" horiz-adv-x="397" 
d="M110 388l205 296h-188l28 90h290l-16 -85l-203 -301h-116z" />
    <glyph glyph-name="uni2078" unicode="&#x2078;" horiz-adv-x="397" 
d="M230 380q-68 0 -106.5 27t-38.5 74q0 37 24 64.5t64 40.5q-43 23 -43 74q0 54 45 88t116 34q60 0 97 -27.5t37 -72.5q0 -33 -20.5 -59t-55.5 -39q53 -23 53 -81q0 -56 -46.5 -89.5t-125.5 -33.5zM270 621q25 0 41.5 13t16.5 32q0 38 -46 38q-25 0 -41.5 -12.5
t-16.5 -32.5q0 -38 46 -38zM240 459q28 0 45 13t17 35q0 39 -52 39q-28 0 -45 -13t-17 -35q0 -39 52 -39z" />
    <glyph glyph-name="uni2079" unicode="&#x2079;" horiz-adv-x="397" 
d="M266 782q72 0 112.5 -43.5t40.5 -120.5q0 -69 -29 -123t-80 -84.5t-117 -30.5q-28 0 -56 5.5t-48 15.5l29 81q36 -16 76 -16q95 0 115 96q-35 -37 -89 -37q-49 0 -78 30.5t-29 79.5q0 42 20 75t55 52.5t78 19.5zM270 701q-24 0 -40 -15.5t-16 -40.5q0 -19 12.5 -31
t31.5 -12q24 0 40.5 15.5t16.5 38.5q0 20 -12.5 32.5t-32.5 12.5z" />
    <glyph glyph-name="uni2080" unicode="&#x2080;" horiz-adv-x="397" 
d="M145 -98q-66 0 -103.5 43t-37.5 117q0 70 24.5 124.5t68 86t98.5 31.5q66 0 102.5 -41.5t36.5 -116.5q0 -71 -24 -126.5t-66.5 -86.5t-98.5 -31zM154 -10q21 0 37.5 21t26.5 55.5t10 76.5q0 73 -42 73q-20 0 -38 -21t-28.5 -55t-10.5 -74q0 -76 45 -76z" />
    <glyph glyph-name="uni2081" unicode="&#x2081;" horiz-adv-x="397" 
d="M106 -90l54 274l-78 -45l-29 78l140 79h91l-75 -386h-103z" />
    <glyph glyph-name="uni2082" unicode="&#x2082;" horiz-adv-x="397" 
d="M-17 -90l15 75q47 29 85 54.5t66 47.5q33 25 47.5 45t14.5 42q0 42 -48 42q-46 0 -102 -36l-12 82q64 42 141 42q60 0 95.5 -29.5t35.5 -79.5q0 -37 -19.5 -68.5t-58.5 -65.5q-33 -28 -93 -65h144l-26 -86h-285z" />
    <glyph glyph-name="uni2083" unicode="&#x2083;" horiz-adv-x="397" 
d="M125 -98q-40 0 -77 9t-65 25l33 78q21 -13 49.5 -20.5t54.5 -7.5q32 0 50 12t18 34q0 34 -57 34h-56l16 82h52q32 0 51 11t19 30q0 31 -50 31q-46 0 -105 -28l-4 78q31 16 66.5 25t69.5 9q60 0 94 -25t34 -69q0 -35 -20.5 -62t-57.5 -41q52 -22 52 -77q0 -58 -45.5 -93
t-121.5 -35z" />
    <glyph glyph-name="uni2084" unicode="&#x2084;" horiz-adv-x="397" 
d="M151 -90l13 68h-186l15 81l227 237h102l-46 -236h52l-25 -82h-43l-13 -68h-96zM93 60h87l22 114z" />
    <glyph glyph-name="uni2085" unicode="&#x2085;" horiz-adv-x="397" 
d="M118 -98q-40 0 -71.5 8t-62.5 24l33 80q45 -28 104 -28q34 0 53.5 14t19.5 37q0 37 -58 37q-34 0 -71 -10l-34 19l60 213h231l-7 -87h-159l-17 -62q23 7 47 7q54 0 84 -27.5t30 -76.5q0 -67 -50 -107.5t-132 -40.5z" />
    <glyph glyph-name="uni2086" unicode="&#x2086;" horiz-adv-x="397" 
d="M162 -98q-72 0 -112.5 43.5t-40.5 120.5q0 70 29 123.5t80 84t117 30.5q29 0 57 -5.5t47 -15.5l-29 -81q-36 16 -76 16q-95 0 -115 -96q35 37 89 37q49 0 78 -30t29 -80q0 -41 -20 -74.5t-54.5 -53t-78.5 -19.5zM158 -17q25 0 40.5 16t15.5 40q0 20 -12 31.5t-32 11.5
q-24 0 -40.5 -15.5t-16.5 -38.5q0 -19 13 -32t32 -13z" />
    <glyph glyph-name="uni2087" unicode="&#x2087;" horiz-adv-x="397" 
d="M18 -90l205 296h-188l28 90h290l-16 -85l-203 -301h-116z" />
    <glyph glyph-name="uni2088" unicode="&#x2088;" horiz-adv-x="397" 
d="M138 -98q-68 0 -106.5 27t-38.5 74q0 37 24 64.5t64 40.5q-43 23 -43 74q0 54 45 88t116 34q60 0 97 -27.5t37 -72.5q0 -33 -20.5 -59t-55.5 -39q53 -23 53 -81q0 -56 -46.5 -89.5t-125.5 -33.5zM178 143q25 0 41.5 13t16.5 32q0 38 -46 38q-25 0 -41.5 -12.5
t-16.5 -32.5q0 -38 46 -38zM148 -19q28 0 45 13t17 35q0 39 -52 39q-28 0 -45 -13t-17 -35q0 -39 52 -39z" />
    <glyph glyph-name="uni2089" unicode="&#x2089;" horiz-adv-x="397" 
d="M174 304q72 0 112.5 -43.5t40.5 -120.5q0 -69 -29 -123t-80 -84.5t-117 -30.5q-28 0 -56 5.5t-48 15.5l29 81q36 -16 76 -16q95 0 115 96q-35 -37 -89 -37q-49 0 -78 30.5t-29 79.5q0 42 20 75t55 52.5t78 19.5zM178 223q-24 0 -40 -15.5t-16 -40.5q0 -19 12.5 -31
t31.5 -12q24 0 40.5 15.5t16.5 38.5q0 20 -12.5 32.5t-32.5 12.5z" />
    <glyph glyph-name="uni20A9" unicode="&#x20a9;" horiz-adv-x="992" 
d="M160 0l-21 285h-117l17 87h93l-5 70h-74l16 88h51l-11 154h159l4 -154h164l63 154h159l4 -154h162l64 154h159l-71 -154h51l-17 -88h-74l-33 -70h94l-17 -87h-117l-131 -285h-161l-8 285h-124l-117 -285h-162zM475 372h85l-5 193zM665 372h94l29 70h-124zM276 372h95
l29 70h-126zM278 285l4 -131l53 131h-57zM668 285l3 -127l52 127h-55z" />
    <glyph glyph-name="dong" unicode="&#x20ab;" horiz-adv-x="612" 
d="M205 -12q-52 0 -94 28.5t-66.5 77.5t-24.5 110q0 83 32.5 149t88 104t125.5 38q51 0 89.5 -24t56.5 -65l26 137h-149l18 89h148l10 52h148l-10 -52h69l-18 -89h-68l-106 -543h-132l9 67q-29 -38 -68 -58.5t-84 -20.5zM263 111q35 0 64 21t46 56.5t17 78.5q0 49 -25 77.5
t-68 28.5q-35 0 -63.5 -21t-45 -56t-16.5 -79q0 -49 24.5 -77.5t66.5 -28.5zM-39 -161l18 90h487l-18 -90h-487z" />
    <glyph glyph-name="Euro" unicode="&#x20ac;" horiz-adv-x="612" 
d="M18 218l29 90h50q2 36 9 71h-57l30 89h54q30 69 80.5 121t117 80.5t144.5 28.5q107 0 182 -52l-50 -125q-59 44 -135 44q-55 0 -98.5 -25.5t-71.5 -71.5h237l-29 -89h-243q-7 -34 -9 -71h230l-29 -90h-193q24 -98 130 -98q83 0 156 47l2 -128q-75 -53 -190 -53
q-109 0 -177.5 61t-84.5 171h-84z" />
    <glyph glyph-name="uni20B4" unicode="&#x20b4;" horiz-adv-x="612" 
d="M64 382l18 88h345q20 21 20 46q0 55 -94 55q-81 0 -195 -52l-3 121q53 29 112.5 43.5t120.5 14.5q101 0 157 -35.5t56 -97.5q0 -50 -33 -95h50l-18 -88h-536zM34 223l17 88h536l-17 -88h-333q-31 -25 -31 -57q0 -53 100 -53q102 0 213 57l5 -122q-51 -31 -114.5 -46.5
t-133.5 -15.5q-107 0 -167 37.5t-60 104.5q0 50 40 95h-55z" />
    <glyph glyph-name="uni20B9" unicode="&#x20b9;" horiz-adv-x="612" 
d="M300 0l-229 256l17 92h139q114 0 147 78h-271l17 90h264q-13 78 -109 78h-140l17 90h501l-17 -86h-142q35 -31 44 -82h82l-17 -90h-69q-20 -75 -94.5 -117.5t-191.5 -44.5l250 -264h-198z" />
    <glyph glyph-name="uni20BA" unicode="&#x20ba;" horiz-adv-x="612" 
d="M45 0l41 209l-75 -35l20 99l74 34l15 79l-74 -34l19 99l74 34l39 199h153l-23 -121l167 78l-19 -99l-168 -78l-15 -79l167 78l-19 -99l-167 -77l-30 -155h20q82 0 131.5 46.5t59.5 133.5l152 -16q-18 -141 -117.5 -218.5t-263.5 -77.5h-161z" />
    <glyph glyph-name="uni20BD" unicode="&#x20bd;" horiz-adv-x="612" 
d="M46 0l20 105h-67l17 89h68l13 70h-67l17 90h68l64 330h237q98 0 154 -50t56 -138q0 -70 -35.5 -122.5t-100.5 -81t-153 -28.5h-87l-13 -70h149l-17 -89h-150l-20 -105h-153zM374 561h-66l-40 -207h66q61 0 96.5 33t35.5 89q0 85 -92 85z" />
    <glyph glyph-name="trademark" unicode="&#x2122;" horiz-adv-x="991" 
d="M500 308v392h138l88 -217l88 217h135v-392h-105v248l-77 -182h-85l-77 182v-248h-105zM218 308v296h-122v96h355v-96h-122v-296h-111z" />
    <glyph glyph-name="uni2150" unicode="&#x2150;" horiz-adv-x="931" 
d="M157 0l459 684h118l-459 -684h-118zM568 0l205 296h-188l28 90h290l-16 -85l-203 -301h-116zM170 298l54 274l-78 -45l-29 78l140 79h91l-75 -386h-103z" />
    <glyph glyph-name="uni2151" unicode="&#x2151;" horiz-adv-x="931" 
d="M167 0l459 684h118l-459 -684h-118zM724 394q72 0 112.5 -43.5t40.5 -120.5q0 -69 -29 -123t-80 -84.5t-117 -30.5q-28 0 -56 5.5t-48 15.5l29 81q36 -16 76 -16q95 0 115 96q-35 -37 -89 -37q-49 0 -78 30.5t-29 79.5q0 42 20 75t55 52.5t78 19.5zM728 313
q-24 0 -40 -15.5t-16 -40.5q0 -19 12.5 -31t31.5 -12q24 0 40.5 15.5t16.5 38.5q0 20 -12.5 32.5t-32.5 12.5zM170 298l54 274l-78 -45l-29 78l140 79h91l-75 -386h-103z" />
    <glyph glyph-name="uni2153" unicode="&#x2153;" horiz-adv-x="931" 
d="M163 0l459 684h118l-459 -684h-118zM675 -8q-40 0 -77 9t-65 25l33 78q21 -13 49.5 -20.5t54.5 -7.5q32 0 50 12t18 34q0 34 -57 34h-56l16 82h52q32 0 51 11t19 30q0 31 -50 31q-46 0 -105 -28l-4 78q31 16 66.5 25t69.5 9q60 0 94 -25t34 -69q0 -35 -20.5 -62
t-57.5 -41q52 -22 52 -77q0 -58 -45.5 -93t-121.5 -35zM170 298l54 274l-78 -45l-29 78l140 79h91l-75 -386h-103z" />
    <glyph glyph-name="uni2154" unicode="&#x2154;" horiz-adv-x="931" 
d="M190 0l459 684h118l-459 -684h-118zM675 -8q-40 0 -77 9t-65 25l33 78q21 -13 49.5 -20.5t54.5 -7.5q32 0 50 12t18 34q0 34 -57 34h-56l16 82h52q32 0 51 11t19 30q0 31 -50 31q-46 0 -105 -28l-4 78q31 16 66.5 25t69.5 9q60 0 94 -25t34 -69q0 -35 -20.5 -62
t-57.5 -41q52 -22 52 -77q0 -58 -45.5 -93t-121.5 -35zM50 298l15 75q47 29 85 54.5t66 47.5q33 25 47.5 45t14.5 42q0 42 -48 42q-46 0 -102 -36l-12 82q64 42 141 42q60 0 95.5 -29.5t35.5 -79.5q0 -37 -19.5 -68.5t-58.5 -65.5q-33 -28 -93 -65h144l-26 -86h-285z" />
    <glyph glyph-name="uni2155" unicode="&#x2155;" horiz-adv-x="931" 
d="M170 0l459 684h118l-459 -684h-118zM668 -8q-40 0 -71.5 8t-62.5 24l33 80q45 -28 104 -28q34 0 53.5 14t19.5 37q0 37 -58 37q-34 0 -71 -10l-34 19l60 213h231l-7 -87h-159l-17 -62q23 7 47 7q54 0 84 -27.5t30 -76.5q0 -67 -50 -107.5t-132 -40.5zM170 298l54 274
l-78 -45l-29 78l140 79h91l-75 -386h-103z" />
    <glyph glyph-name="uni2156" unicode="&#x2156;" horiz-adv-x="931" 
d="M198 0l459 684h118l-459 -684h-118zM668 -8q-40 0 -71.5 8t-62.5 24l33 80q45 -28 104 -28q34 0 53.5 14t19.5 37q0 37 -58 37q-34 0 -71 -10l-34 19l60 213h231l-7 -87h-159l-17 -62q23 7 47 7q54 0 84 -27.5t30 -76.5q0 -67 -50 -107.5t-132 -40.5zM43 298l15 75
q47 29 85 54.5t66 47.5q33 25 47.5 45t14.5 42q0 42 -48 42q-46 0 -102 -36l-12 82q64 42 141 42q60 0 95.5 -29.5t35.5 -79.5q0 -37 -19.5 -68.5t-58.5 -65.5q-33 -28 -93 -65h144l-26 -86h-285z" />
    <glyph glyph-name="uni2157" unicode="&#x2157;" horiz-adv-x="931" 
d="M184 0l459 684h118l-459 -684h-118zM668 -8q-40 0 -71.5 8t-62.5 24l33 80q45 -28 104 -28q34 0 53.5 14t19.5 37q0 37 -58 37q-34 0 -71 -10l-34 19l60 213h231l-7 -87h-159l-17 -62q23 7 47 7q54 0 84 -27.5t30 -76.5q0 -67 -50 -107.5t-132 -40.5zM195 290
q-40 0 -77 9t-65 25l33 78q21 -13 49.5 -20.5t54.5 -7.5q32 0 50 12t18 34q0 34 -57 34h-56l16 82h52q32 0 51 11t19 30q0 31 -50 31q-46 0 -105 -28l-4 78q31 16 66.5 25t69.5 9q60 0 94 -25t34 -69q0 -35 -20.5 -62t-57.5 -41q52 -22 52 -77q0 -58 -45.5 -93t-121.5 -35z
" />
    <glyph glyph-name="uni2158" unicode="&#x2158;" horiz-adv-x="931" 
d="M201 0l459 684h118l-459 -684h-118zM668 -8q-40 0 -71.5 8t-62.5 24l33 80q45 -28 104 -28q34 0 53.5 14t19.5 37q0 37 -58 37q-34 0 -71 -10l-34 19l60 213h231l-7 -87h-159l-17 -62q23 7 47 7q54 0 84 -27.5t30 -76.5q0 -67 -50 -107.5t-132 -40.5zM228 298l13 68h-186
l15 81l227 237h102l-46 -236h52l-25 -82h-43l-13 -68h-96zM170 448h87l22 114z" />
    <glyph glyph-name="uni2159" unicode="&#x2159;" horiz-adv-x="931" 
d="M172 0l459 684h118l-459 -684h-118zM712 -8q-72 0 -112.5 43.5t-40.5 120.5q0 70 29 123.5t80 84t117 30.5q29 0 57 -5.5t47 -15.5l-29 -81q-36 16 -76 16q-95 0 -115 -96q35 37 89 37q49 0 78 -30t29 -80q0 -41 -20 -74.5t-54.5 -53t-78.5 -19.5zM708 73q25 0 40.5 16
t15.5 40q0 20 -12 31.5t-32 11.5q-24 0 -40.5 -15.5t-16.5 -38.5q0 -19 13 -32t32 -13zM170 298l54 274l-78 -45l-29 78l140 79h91l-75 -386h-103z" />
    <glyph glyph-name="uni215A" unicode="&#x215a;" horiz-adv-x="931" 
d="M193 0l459 684h118l-459 -684h-118zM712 -8q-72 0 -112.5 43.5t-40.5 120.5q0 70 29 123.5t80 84t117 30.5q29 0 57 -5.5t47 -15.5l-29 -81q-36 16 -76 16q-95 0 -115 -96q35 37 89 37q49 0 78 -30t29 -80q0 -41 -20 -74.5t-54.5 -53t-78.5 -19.5zM708 73q25 0 40.5 16
t15.5 40q0 20 -12 31.5t-32 11.5q-24 0 -40.5 -15.5t-16.5 -38.5q0 -19 13 -32t32 -13zM195 290q-40 0 -71.5 8t-62.5 24l33 80q45 -28 104 -28q34 0 53.5 14t19.5 37q0 37 -58 37q-34 0 -71 -10l-34 19l60 213h231l-7 -87h-159l-17 -62q23 7 47 7q54 0 84 -27.5t30 -76.5
q0 -67 -50 -107.5t-132 -40.5z" />
    <glyph glyph-name="oneeighth" unicode="&#x215b;" horiz-adv-x="931" 
d="M175 0l459 684h118l-459 -684h-118zM688 -8q-68 0 -106.5 27t-38.5 74q0 37 24 64.5t64 40.5q-43 23 -43 74q0 54 45 88t116 34q60 0 97 -27.5t37 -72.5q0 -33 -20.5 -59t-55.5 -39q53 -23 53 -81q0 -56 -46.5 -89.5t-125.5 -33.5zM728 233q25 0 41.5 13t16.5 32
q0 38 -46 38q-25 0 -41.5 -12.5t-16.5 -32.5q0 -38 46 -38zM698 71q28 0 45 13t17 35q0 39 -52 39q-28 0 -45 -13t-17 -35q0 -39 52 -39zM176 298l54 274l-78 -45l-29 78l140 79h91l-75 -386h-103z" />
    <glyph glyph-name="threeeighths" unicode="&#x215c;" horiz-adv-x="931" 
d="M181 0l459 684h118l-459 -684h-118zM688 -8q-68 0 -106.5 27t-38.5 74q0 37 24 64.5t64 40.5q-43 23 -43 74q0 54 45 88t116 34q60 0 97 -27.5t37 -72.5q0 -33 -20.5 -59t-55.5 -39q53 -23 53 -81q0 -56 -46.5 -89.5t-125.5 -33.5zM728 233q25 0 41.5 13t16.5 32
q0 38 -46 38q-25 0 -41.5 -12.5t-16.5 -32.5q0 -38 46 -38zM698 71q28 0 45 13t17 35q0 39 -52 39q-28 0 -45 -13t-17 -35q0 -39 52 -39zM195 290q-40 0 -77 9t-65 25l33 78q21 -13 49.5 -20.5t54.5 -7.5q32 0 50 12t18 34q0 34 -57 34h-56l16 82h52q32 0 51 11t19 30
q0 31 -50 31q-46 0 -105 -28l-4 78q31 16 66.5 25t69.5 9q60 0 94 -25t34 -69q0 -35 -20.5 -62t-57.5 -41q52 -22 52 -77q0 -58 -45.5 -93t-121.5 -35z" />
    <glyph glyph-name="fiveeighths" unicode="&#x215d;" horiz-adv-x="931" 
d="M191 0l459 684h118l-459 -684h-118zM688 -8q-68 0 -106.5 27t-38.5 74q0 37 24 64.5t64 40.5q-43 23 -43 74q0 54 45 88t116 34q60 0 97 -27.5t37 -72.5q0 -33 -20.5 -59t-55.5 -39q53 -23 53 -81q0 -56 -46.5 -89.5t-125.5 -33.5zM728 233q25 0 41.5 13t16.5 32
q0 38 -46 38q-25 0 -41.5 -12.5t-16.5 -32.5q0 -38 46 -38zM698 71q28 0 45 13t17 35q0 39 -52 39q-28 0 -45 -13t-17 -35q0 -39 52 -39zM195 290q-40 0 -71.5 8t-62.5 24l33 80q45 -28 104 -28q34 0 53.5 14t19.5 37q0 37 -58 37q-34 0 -71 -10l-34 19l60 213h231l-7 -87
h-159l-17 -62q23 7 47 7q54 0 84 -27.5t30 -76.5q0 -67 -50 -107.5t-132 -40.5z" />
    <glyph glyph-name="seveneighths" unicode="&#x215e;" horiz-adv-x="931" 
d="M161 0l459 684h118l-459 -684h-118zM688 -8q-68 0 -106.5 27t-38.5 74q0 37 24 64.5t64 40.5q-43 23 -43 74q0 54 45 88t116 34q60 0 97 -27.5t37 -72.5q0 -33 -20.5 -59t-55.5 -39q53 -23 53 -81q0 -56 -46.5 -89.5t-125.5 -33.5zM728 233q25 0 41.5 13t16.5 32
q0 38 -46 38q-25 0 -41.5 -12.5t-16.5 -32.5q0 -38 46 -38zM698 71q28 0 45 13t17 35q0 39 -52 39q-28 0 -45 -13t-17 -35q0 -39 52 -39zM98 298l205 296h-188l28 90h290l-16 -85l-203 -301h-116z" />
    <glyph glyph-name="minus" unicode="&#x2212;" horiz-adv-x="612" 
d="M80 280v123h484v-123h-484z" />
    <glyph glyph-name="uniFEFF" unicode="&#xfeff;" 
 />
    <glyph glyph-name="uniFFFD" unicode="&#xfffd;" horiz-adv-x="1000" 
d="M518 -121l-475 474l475 475l475 -475zM474 198h70v18q0 28 16 50.5t54 47.5q56 38 78.5 74t22.5 86q0 71 -51 113t-140 42q-42 0 -88 -13t-76 -33l19 -59q26 20 63 30.5t75 10.5q56 0 87.5 -25t31.5 -70q0 -34 -18 -60.5t-62 -57.5t-63 -62.5t-19 -73.5v-18zM508 19
q23 0 38.5 15.5t15.5 37.5q0 23 -15.5 37.5t-38.5 14.5t-38.5 -14.5t-15.5 -37.5q0 -22 15.5 -37.5t38.5 -15.5z" />
    <glyph glyph-name="zero.pnum" horiz-adv-x="633" 
d="M289 -14q-111 0 -171.5 73t-60.5 208q0 93 24 172t67 137t101.5 90t127.5 32q111 0 171.5 -73t60.5 -208q0 -93 -24 -172t-67 -137t-101.5 -90t-127.5 -32zM298 121q41 0 75 41t54.5 110t20.5 152q0 139 -80 139q-41 0 -75 -41t-54.5 -110t-20.5 -152q0 -139 80 -139z
" />
    <glyph glyph-name="one.pnum" horiz-adv-x="443" 
d="M152 0l98 508l-129 -77l-47 119l230 134h139l-133 -684h-158z" />
    <glyph glyph-name="two.pnum" horiz-adv-x="559" 
d="M-19 0l22 114q35 24 81 57.5t91 68t78 61.5q72 59 103 102t31 83q0 77 -94 77q-82 0 -177 -61l-17 122q109 74 234 74q98 0 156.5 -51t58.5 -137q0 -72 -40 -135t-132 -136q-23 -19 -58.5 -44.5t-87.5 -61.5h268l-41 -133h-476z" />
    <glyph glyph-name="three.pnum" horiz-adv-x="561" 
d="M216 -14q-69 0 -130 15.5t-99 43.5l51 117q85 -49 173 -49q63 0 99.5 27t36.5 73q0 74 -105 74h-93l24 127h88q62 0 98 24t36 66q0 67 -93 67q-86 0 -180 -50l-7 117q44 29 100.5 44.5t114.5 15.5q104 0 164 -44t60 -121q0 -63 -36.5 -110.5t-106.5 -73.5
q46 -16 70.5 -51.5t24.5 -84.5q0 -70 -35 -121t-100 -78.5t-155 -27.5z" />
    <glyph glyph-name="four.pnum" horiz-adv-x="602" 
d="M291 0l26 133h-319l23 123l394 428h156l-82 -424h87l-40 -127h-71l-26 -133h-148zM178 260h164l44 227z" />
    <glyph glyph-name="five.pnum" horiz-adv-x="565" 
d="M222 -14q-136 0 -231 57l52 120q76 -48 176 -48q66 0 103.5 29t37.5 80q0 81 -109 81q-29 0 -58 -4.5t-62 -13.5l-54 28l101 369h386l-11 -135h-275l-37 -137q41 12 86 12q89 0 140.5 -47.5t51.5 -127.5t-36.5 -139t-103 -91.5t-157.5 -32.5z" />
    <glyph glyph-name="six.pnum" horiz-adv-x="597" 
d="M291 -14q-115 0 -179.5 72.5t-64.5 201.5q0 96 28 176t79 138.5t120.5 91t152.5 32.5q94 0 167 -39l-52 -122q-54 30 -121 30q-79 0 -134 -51.5t-75 -143.5q28 31 67.5 48t86.5 17q83 0 132 -52t49 -140q0 -74 -33.5 -132.5t-91.5 -92.5t-131 -34zM288 113q45 0 75.5 35
t30.5 84q0 41 -22 64t-60 23q-46 0 -77 -34t-31 -84q0 -40 23 -64t61 -24z" />
    <glyph glyph-name="seven.pnum" horiz-adv-x="536" 
d="M46 0l363 549h-336l42 135h485l-26 -129l-358 -555h-170z" />
    <glyph glyph-name="eight.pnum" horiz-adv-x="602" 
d="M264 -14q-109 0 -173.5 47.5t-64.5 129.5q0 66 40.5 116t110.5 72q-70 41 -70 133q0 62 34.5 110t94 76t134.5 28q98 0 156.5 -47t58.5 -127q0 -58 -34.5 -104.5t-95.5 -70.5q44 -19 68 -55t24 -84q0 -66 -35.5 -116.5t-99.5 -79t-148 -28.5zM335 409q45 0 74 26t29 67
q0 34 -21.5 53.5t-59.5 19.5q-46 0 -74.5 -26t-28.5 -67q0 -34 21 -53.5t60 -19.5zM276 109q51 0 83 28t32 72q0 38 -24.5 59t-68.5 21q-51 0 -83.5 -28t-32.5 -72q0 -37 25.5 -58.5t68.5 -21.5z" />
    <glyph glyph-name="nine.pnum" horiz-adv-x="597" 
d="M338 698q113 0 176.5 -72.5t63.5 -202.5q0 -96 -28 -176t-79 -138.5t-120.5 -90.5t-152.5 -32q-96 0 -167 39l53 122q54 -30 121 -30q79 0 134 52t75 143q-28 -31 -67.5 -48t-86.5 -17q-83 0 -132.5 52t-49.5 140q0 74 34 132.5t93 92.5t133 34zM337 570q-45 0 -75 -34.5
t-30 -84.5q0 -40 22.5 -63.5t59.5 -23.5q46 0 77 35t31 84q0 40 -23.5 63.5t-61.5 23.5z" />
    <glyph glyph-name="zero.dnom" horiz-adv-x="397" 
d="M162 -8q-66 0 -103.5 43t-37.5 117q0 70 24.5 124.5t68 86t98.5 31.5q66 0 102.5 -41.5t36.5 -116.5q0 -71 -24 -126.5t-66.5 -86.5t-98.5 -31zM171 80q21 0 37.5 21t26.5 55.5t10 76.5q0 73 -42 73q-20 0 -38 -21t-28.5 -55t-10.5 -74q0 -76 45 -76z" />
    <glyph glyph-name="one.dnom" horiz-adv-x="397" 
d="M123 0l54 274l-78 -45l-29 78l140 79h91l-75 -386h-103z" />
    <glyph glyph-name="two.dnom" horiz-adv-x="397" 
d="M0 0l15 75q47 29 85 54.5t66 47.5q33 25 47.5 45t14.5 42q0 42 -48 42q-46 0 -102 -36l-12 82q64 42 141 42q60 0 95.5 -29.5t35.5 -79.5q0 -37 -19.5 -68.5t-58.5 -65.5q-33 -28 -93 -65h144l-26 -86h-285z" />
    <glyph glyph-name="three.dnom" horiz-adv-x="397" 
d="M142 -8q-40 0 -77 9t-65 25l33 78q21 -13 49.5 -20.5t54.5 -7.5q32 0 50 12t18 34q0 34 -57 34h-56l16 82h52q32 0 51 11t19 30q0 31 -50 31q-46 0 -105 -28l-4 78q31 16 66.5 25t69.5 9q60 0 94 -25t34 -69q0 -35 -20.5 -62t-57.5 -41q52 -22 52 -77q0 -58 -45.5 -93
t-121.5 -35z" />
    <glyph glyph-name="four.dnom" horiz-adv-x="397" 
d="M168 0l13 68h-186l15 81l227 237h102l-46 -236h52l-25 -82h-43l-13 -68h-96zM110 150h87l22 114z" />
    <glyph glyph-name="five.dnom" horiz-adv-x="397" 
d="M135 -8q-40 0 -71.5 8t-62.5 24l33 80q45 -28 104 -28q34 0 53.5 14t19.5 37q0 37 -58 37q-34 0 -71 -10l-34 19l60 213h231l-7 -87h-159l-17 -62q23 7 47 7q54 0 84 -27.5t30 -76.5q0 -67 -50 -107.5t-132 -40.5z" />
    <glyph glyph-name="six.dnom" horiz-adv-x="397" 
d="M179 -8q-72 0 -112.5 43.5t-40.5 120.5q0 70 29 123.5t80 84t117 30.5q29 0 57 -5.5t47 -15.5l-29 -81q-36 16 -76 16q-95 0 -115 -96q35 37 89 37q49 0 78 -30t29 -80q0 -41 -20 -74.5t-54.5 -53t-78.5 -19.5zM175 73q25 0 40.5 16t15.5 40q0 20 -12 31.5t-32 11.5
q-24 0 -40.5 -15.5t-16.5 -38.5q0 -19 13 -32t32 -13z" />
    <glyph glyph-name="seven.dnom" horiz-adv-x="397" 
d="M35 0l205 296h-188l28 90h290l-16 -85l-203 -301h-116z" />
    <glyph glyph-name="eight.dnom" horiz-adv-x="397" 
d="M155 -8q-68 0 -106.5 27t-38.5 74q0 37 24 64.5t64 40.5q-43 23 -43 74q0 54 45 88t116 34q60 0 97 -27.5t37 -72.5q0 -33 -20.5 -59t-55.5 -39q53 -23 53 -81q0 -56 -46.5 -89.5t-125.5 -33.5zM195 233q25 0 41.5 13t16.5 32q0 38 -46 38q-25 0 -41.5 -12.5t-16.5 -32.5
q0 -38 46 -38zM165 71q28 0 45 13t17 35q0 39 -52 39q-28 0 -45 -13t-17 -35q0 -39 52 -39z" />
    <glyph glyph-name="nine.dnom" horiz-adv-x="397" 
d="M191 394q72 0 112.5 -43.5t40.5 -120.5q0 -69 -29 -123t-80 -84.5t-117 -30.5q-28 0 -56 5.5t-48 15.5l29 81q36 -16 76 -16q95 0 115 96q-35 -37 -89 -37q-49 0 -78 30.5t-29 79.5q0 42 20 75t55 52.5t78 19.5zM195 313q-24 0 -40 -15.5t-16 -40.5q0 -19 12.5 -31
t31.5 -12q24 0 40.5 15.5t16.5 38.5q0 20 -12.5 32.5t-32.5 12.5z" />
    <glyph glyph-name="zero.numr" horiz-adv-x="397" 
d="M220 290q-66 0 -103.5 43t-37.5 117q0 70 24.5 124.5t68 86t98.5 31.5q66 0 102.5 -41.5t36.5 -116.5q0 -71 -24 -126.5t-66.5 -86.5t-98.5 -31zM229 378q21 0 37.5 21t26.5 55.5t10 76.5q0 73 -42 73q-20 0 -38 -21t-28.5 -55t-10.5 -74q0 -76 45 -76z" />
    <glyph glyph-name="one.numr" horiz-adv-x="397" 
d="M181 298l54 274l-78 -45l-29 78l140 79h91l-75 -386h-103z" />
    <glyph glyph-name="two.numr" horiz-adv-x="397" 
d="M58 298l15 75q47 29 85 54.5t66 47.5q33 25 47.5 45t14.5 42q0 42 -48 42q-46 0 -102 -36l-12 82q64 42 141 42q60 0 95.5 -29.5t35.5 -79.5q0 -37 -19.5 -68.5t-58.5 -65.5q-33 -28 -93 -65h144l-26 -86h-285z" />
    <glyph glyph-name="three.numr" horiz-adv-x="397" 
d="M200 290q-40 0 -77 9t-65 25l33 78q21 -13 49.5 -20.5t54.5 -7.5q32 0 50 12t18 34q0 34 -57 34h-56l16 82h52q32 0 51 11t19 30q0 31 -50 31q-46 0 -105 -28l-4 78q31 16 66.5 25t69.5 9q60 0 94 -25t34 -69q0 -35 -20.5 -62t-57.5 -41q52 -22 52 -77q0 -58 -45.5 -93
t-121.5 -35z" />
    <glyph glyph-name="four.numr" horiz-adv-x="397" 
d="M226 298l13 68h-186l15 81l227 237h102l-46 -236h52l-25 -82h-43l-13 -68h-96zM168 448h87l22 114z" />
    <glyph glyph-name="five.numr" horiz-adv-x="397" 
d="M193 290q-40 0 -71.5 8t-62.5 24l33 80q45 -28 104 -28q34 0 53.5 14t19.5 37q0 37 -58 37q-34 0 -71 -10l-34 19l60 213h231l-7 -87h-159l-17 -62q23 7 47 7q54 0 84 -27.5t30 -76.5q0 -67 -50 -107.5t-132 -40.5z" />
    <glyph glyph-name="six.numr" horiz-adv-x="397" 
d="M237 290q-72 0 -112.5 43.5t-40.5 120.5q0 70 29 123.5t80 84t117 30.5q29 0 57 -5.5t47 -15.5l-29 -81q-36 16 -76 16q-95 0 -115 -96q35 37 89 37q49 0 78 -30t29 -80q0 -41 -20 -74.5t-54.5 -53t-78.5 -19.5zM233 371q25 0 40.5 16t15.5 40q0 20 -12 31.5t-32 11.5
q-24 0 -40.5 -15.5t-16.5 -38.5q0 -19 13 -32t32 -13z" />
    <glyph glyph-name="seven.numr" horiz-adv-x="397" 
d="M93 298l205 296h-188l28 90h290l-16 -85l-203 -301h-116z" />
    <glyph glyph-name="eight.numr" horiz-adv-x="397" 
d="M213 290q-68 0 -106.5 27t-38.5 74q0 37 24 64.5t64 40.5q-43 23 -43 74q0 54 45 88t116 34q60 0 97 -27.5t37 -72.5q0 -33 -20.5 -59t-55.5 -39q53 -23 53 -81q0 -56 -46.5 -89.5t-125.5 -33.5zM253 531q25 0 41.5 13t16.5 32q0 38 -46 38q-25 0 -41.5 -12.5
t-16.5 -32.5q0 -38 46 -38zM223 369q28 0 45 13t17 35q0 39 -52 39q-28 0 -45 -13t-17 -35q0 -39 52 -39z" />
    <glyph glyph-name="nine.numr" horiz-adv-x="397" 
d="M249 692q72 0 112.5 -43.5t40.5 -120.5q0 -69 -29 -123t-80 -84.5t-117 -30.5q-28 0 -56 5.5t-48 15.5l29 81q36 -16 76 -16q95 0 115 96q-35 -37 -89 -37q-49 0 -78 30.5t-29 79.5q0 42 20 75t55 52.5t78 19.5zM253 611q-24 0 -40 -15.5t-16 -40.5q0 -19 12.5 -31
t31.5 -12q24 0 40.5 15.5t16.5 38.5q0 20 -12.5 32.5t-32.5 12.5z" />
    <glyph glyph-name="two_fraction_seven" horiz-adv-x="931" 
d="M180 0l459 684h118l-459 -684h-118zM568 0l205 296h-188l28 90h290l-16 -85l-203 -301h-116zM43 298l15 75q47 29 85 54.5t66 47.5q33 25 47.5 45t14.5 42q0 42 -48 42q-46 0 -102 -36l-12 82q64 42 141 42q60 0 95.5 -29.5t35.5 -79.5q0 -37 -19.5 -68.5t-58.5 -65.5
q-33 -28 -93 -65h144l-26 -86h-285z" />
    <glyph glyph-name="three_fraction_seven" horiz-adv-x="931" 
d="M177 0l459 684h118l-459 -684h-118zM568 0l205 296h-188l28 90h290l-16 -85l-203 -301h-116zM195 290q-40 0 -77 9t-65 25l33 78q21 -13 49.5 -20.5t54.5 -7.5q32 0 50 12t18 34q0 34 -57 34h-56l16 82h52q32 0 51 11t19 30q0 31 -50 31q-46 0 -105 -28l-4 78
q31 16 66.5 25t69.5 9q60 0 94 -25t34 -69q0 -35 -20.5 -62t-57.5 -41q52 -22 52 -77q0 -58 -45.5 -93t-121.5 -35z" />
    <glyph glyph-name="four_fraction_seven" horiz-adv-x="931" 
d="M190 0l459 684h118l-459 -684h-118zM568 0l205 296h-188l28 90h290l-16 -85l-203 -301h-116zM228 298l13 68h-186l15 81l227 237h102l-46 -236h52l-25 -82h-43l-13 -68h-96zM170 448h87l22 114z" />
    <glyph glyph-name="five_fraction_seven" horiz-adv-x="931" 
d="M180 0l459 684h118l-459 -684h-118zM568 0l205 296h-188l28 90h290l-16 -85l-203 -301h-116zM195 290q-40 0 -71.5 8t-62.5 24l33 80q45 -28 104 -28q34 0 53.5 14t19.5 37q0 37 -58 37q-34 0 -71 -10l-34 19l60 213h231l-7 -87h-159l-17 -62q23 7 47 7q54 0 84 -27.5
t30 -76.5q0 -67 -50 -107.5t-132 -40.5z" />
    <glyph glyph-name="six_fraction_seven" horiz-adv-x="931" 
d="M179 0l459 684h118l-459 -684h-118zM568 0l205 296h-188l28 90h290l-16 -85l-203 -301h-116zM229 290q-72 0 -112.5 43.5t-40.5 120.5q0 70 29 123.5t80 84t117 30.5q29 0 57 -5.5t47 -15.5l-29 -81q-36 16 -76 16q-95 0 -115 -96q35 37 89 37q49 0 78 -30t29 -80
q0 -41 -20 -74.5t-54.5 -53t-78.5 -19.5zM225 371q25 0 40.5 16t15.5 40q0 20 -12 31.5t-32 11.5q-24 0 -40.5 -15.5t-16.5 -38.5q0 -19 13 -32t32 -13z" />
    <glyph glyph-name="two_fraction_nine" horiz-adv-x="931" 
d="M190 0l459 684h118l-459 -684h-118zM724 394q72 0 112.5 -43.5t40.5 -120.5q0 -69 -29 -123t-80 -84.5t-117 -30.5q-28 0 -56 5.5t-48 15.5l29 81q36 -16 76 -16q95 0 115 96q-35 -37 -89 -37q-49 0 -78 30.5t-29 79.5q0 42 20 75t55 52.5t78 19.5zM728 313
q-24 0 -40 -15.5t-16 -40.5q0 -19 12.5 -31t31.5 -12q24 0 40.5 15.5t16.5 38.5q0 20 -12.5 32.5t-32.5 12.5zM43 298l15 75q47 29 85 54.5t66 47.5q33 25 47.5 45t14.5 42q0 42 -48 42q-46 0 -102 -36l-12 82q64 42 141 42q60 0 95.5 -29.5t35.5 -79.5q0 -37 -19.5 -68.5
t-58.5 -65.5q-33 -28 -93 -65h144l-26 -86h-285z" />
    <glyph glyph-name="four_fraction_nine" horiz-adv-x="931" 
d="M197 0l459 684h118l-459 -684h-118zM724 394q72 0 112.5 -43.5t40.5 -120.5q0 -69 -29 -123t-80 -84.5t-117 -30.5q-28 0 -56 5.5t-48 15.5l29 81q36 -16 76 -16q95 0 115 96q-35 -37 -89 -37q-49 0 -78 30.5t-29 79.5q0 42 20 75t55 52.5t78 19.5zM728 313
q-24 0 -40 -15.5t-16 -40.5q0 -19 12.5 -31t31.5 -12q24 0 40.5 15.5t16.5 38.5q0 20 -12.5 32.5t-32.5 12.5zM228 298l13 68h-186l15 81l227 237h102l-46 -236h52l-25 -82h-43l-13 -68h-96zM170 448h87l22 114z" />
    <glyph glyph-name="five_fraction_nine" horiz-adv-x="931" 
d="M184 0l459 684h118l-459 -684h-118zM724 394q72 0 112.5 -43.5t40.5 -120.5q0 -69 -29 -123t-80 -84.5t-117 -30.5q-28 0 -56 5.5t-48 15.5l29 81q36 -16 76 -16q95 0 115 96q-35 -37 -89 -37q-49 0 -78 30.5t-29 79.5q0 42 20 75t55 52.5t78 19.5zM728 313
q-24 0 -40 -15.5t-16 -40.5q0 -19 12.5 -31t31.5 -12q24 0 40.5 15.5t16.5 38.5q0 20 -12.5 32.5t-32.5 12.5zM195 290q-40 0 -71.5 8t-62.5 24l33 80q45 -28 104 -28q34 0 53.5 14t19.5 37q0 37 -58 37q-34 0 -71 -10l-34 19l60 213h231l-7 -87h-159l-17 -62q23 7 47 7
q54 0 84 -27.5t30 -76.5q0 -67 -50 -107.5t-132 -40.5z" />
    <glyph glyph-name="seven_fraction_nine" horiz-adv-x="931" 
d="M149 0l459 684h118l-459 -684h-118zM724 394q72 0 112.5 -43.5t40.5 -120.5q0 -69 -29 -123t-80 -84.5t-117 -30.5q-28 0 -56 5.5t-48 15.5l29 81q36 -16 76 -16q95 0 115 96q-35 -37 -89 -37q-49 0 -78 30.5t-29 79.5q0 42 20 75t55 52.5t78 19.5zM728 313
q-24 0 -40 -15.5t-16 -40.5q0 -19 12.5 -31t31.5 -12q24 0 40.5 15.5t16.5 38.5q0 20 -12.5 32.5t-32.5 12.5zM92 298l205 296h-188l28 90h290l-16 -85l-203 -301h-116z" />
    <glyph glyph-name="eight_fraction_nine" horiz-adv-x="931" 
d="M193 0l459 684h118l-459 -684h-118zM724 394q72 0 112.5 -43.5t40.5 -120.5q0 -69 -29 -123t-80 -84.5t-117 -30.5q-28 0 -56 5.5t-48 15.5l29 81q36 -16 76 -16q95 0 115 96q-35 -37 -89 -37q-49 0 -78 30.5t-29 79.5q0 42 20 75t55 52.5t78 19.5zM728 313
q-24 0 -40 -15.5t-16 -40.5q0 -19 12.5 -31t31.5 -12q24 0 40.5 15.5t16.5 38.5q0 20 -12.5 32.5t-32.5 12.5zM213 290q-68 0 -106.5 27t-38.5 74q0 37 24 64.5t64 40.5q-43 23 -43 74q0 54 45 88t116 34q60 0 97 -27.5t37 -72.5q0 -33 -20.5 -59t-55.5 -39q53 -23 53 -81
q0 -56 -46.5 -89.5t-125.5 -33.5zM253 531q25 0 41.5 13t16.5 32q0 38 -46 38q-25 0 -41.5 -12.5t-16.5 -32.5q0 -38 46 -38zM223 369q28 0 45 13t17 35q0 39 -52 39q-28 0 -45 -13t-17 -35q0 -39 52 -39z" />
    <glyph glyph-name="shekel" horiz-adv-x="886" 
d="M205 0l94 487h141l-70 -363h161q59 0 90.5 28.5t45.5 101.5l83 430h143l-82 -421q-27 -137 -102 -200t-210 -63h-294zM-3 0l133 684h284q116 0 172.5 -44t56.5 -136q0 -40 -8 -83l-44 -224h-142l45 233q4 20 5 32.5t1 19.5q0 41 -24 59.5t-77 18.5h-150l-109 -560h-143z
" />
    <glyph glyph-name="hyphen.case" horiz-adv-x="389" 
d="M43 285l26 131h313l-26 -131h-313z" />
    <glyph glyph-name="endash.case" horiz-adv-x="500" 
d="M4 285l26 131h500l-26 -131h-500z" />
    <glyph glyph-name="emdash.case" horiz-adv-x="1000" 
d="M4 285l26 131h1000l-26 -131h-1000z" />
    <glyph glyph-name="parenleft.case" horiz-adv-x="385" 
d="M192 -140q-67 74 -102.5 172.5t-35.5 212.5q0 118 37 226.5t108.5 202.5t172.5 166l94 -80q-122 -106 -186 -241t-64 -290q0 -85 19.5 -156t57.5 -133z" />
    <glyph glyph-name="parenright.case" horiz-adv-x="385" 
d="M228 840q68 -73 103 -172t35 -213q0 -117 -37 -226t-108 -202.5t-173 -166.5l-94 80q122 106 186 241t64 290q0 85 -19.5 156.5t-57.5 132.5z" />
    <glyph glyph-name="slash.case" horiz-adv-x="498" 
d="M-56 -98l473 896h173l-473 -896h-173z" />
    <glyph glyph-name="backslash.case" horiz-adv-x="500" 
d="M251 -98l-124 896h155l125 -896h-156z" />
    <glyph glyph-name="bracketleft.case" horiz-adv-x="364" 
d="M2 -98l175 896h254l-4 -124h-119l-127 -648h121l-38 -124h-262z" />
    <glyph glyph-name="bracketright.case" horiz-adv-x="364" 
d="M396 798l-175 -896h-252l4 124h117l127 648h-121l38 124h262z" />
    <glyph glyph-name="braceleft.case" horiz-adv-x="363" 
d="M182 -98q-64 0 -100.5 32.5t-36.5 90.5q0 35 12.5 73t24.5 74t12 63q0 54 -65 54l24 122q79 0 93 81q7 34 6.5 68.5t7.5 77.5q14 74 67 117t129 43h74l-3 -124h-43q-34 0 -53 -17.5t-27 -57.5q-6 -28 -7 -51.5t-1.5 -45.5t-6.5 -49q-7 -39 -37 -65.5t-75 -36.5
q74 -18 74 -85q0 -27 -12 -63t-24 -70t-12 -59q0 -48 57 -48h43l-37 -124h-84z" />
    <glyph glyph-name="braceright.case" horiz-adv-x="363" 
d="M216 798q64 0 100.5 -32.5t36.5 -90.5q0 -34 -12 -72.5t-24.5 -74t-12.5 -63.5q0 -54 65 -54l-25 -122q-40 0 -62 -19.5t-30 -61.5q-7 -34 -6.5 -68t-7.5 -78q-14 -73 -66.5 -116.5t-129.5 -43.5h-74l2 124h43q35 0 54 17.5t27 57.5q9 43 8 74.5t6 71.5q8 39 37.5 65.5
t75.5 36.5q-74 18 -74 85q0 28 12 63.5t24 70t12 58.5q0 48 -57 48h-43l37 124h84z" />
    <glyph glyph-name="bullet.case" horiz-adv-x="348" 
d="M192 215q-58 0 -96.5 38.5t-38.5 96.5q0 59 38.5 97t96.5 38t95.5 -38t37.5 -97t-37.5 -97t-95.5 -38z" />
    <glyph glyph-name="guilsinglleft.case" horiz-adv-x="374" 
d="M150 140l-95 210l175 210h160l-172 -217l83 -203h-151z" />
    <glyph glyph-name="guilsinglright.case" horiz-adv-x="375" 
d="M259 560l95 -210l-175 -210h-160l172 217l-83 203h151z" />
    <glyph glyph-name="guillemotleft.case" horiz-adv-x="636" 
d="M150 140l-95 210l175 210h160l-172 -217l83 -203h-151zM412 140l-95 210l175 210h160l-172 -217l83 -203h-151z" />
    <glyph glyph-name="guillemotright.case" horiz-adv-x="637" 
d="M259 560l95 -210l-175 -210h-160l172 217l-83 203h151zM521 560l95 -210l-175 -210h-160l172 217l-83 203h151z" />
    <glyph glyph-name="at.case" horiz-adv-x="993" 
d="M474 -101q-127 0 -220 47.5t-143 135.5t-50 209q0 108 40 201t111.5 162.5t167.5 108t208 38.5q118 0 205.5 -43t136.5 -121t49 -183q0 -69 -19.5 -128t-55 -103.5t-82 -69.5t-100.5 -25q-51 0 -84 22t-42 61q-23 -39 -60 -61t-84 -22q-73 0 -117 52t-44 137
q0 71 28.5 128.5t77 92t106.5 34.5q48 0 79.5 -23t41.5 -64l19 74h114l-49 -250q-5 -22 -5 -42q0 -43 42 -43q37 0 66 30t46.5 81t17.5 114q0 121 -78 190t-215 69q-90 0 -166.5 -30.5t-132.5 -86t-87 -130.5t-31 -164q0 -144 84.5 -224.5t236.5 -80.5q54 0 108 11.5
t102 32.5l13 -90q-50 -22 -110.5 -34.5t-124.5 -12.5zM493 241q28 0 50.5 18.5t36 49t13.5 66.5q0 39 -17.5 61.5t-48.5 22.5q-27 0 -50 -18.5t-37 -48.5t-14 -67q0 -39 18 -61.5t49 -22.5z" />
    <glyph glyph-name="periodcentered.loclCAT" horiz-adv-x="188" 
d="M105 279q-38 0 -61.5 22t-23.5 59q0 43 30.5 72t74.5 29q38 0 61 -22t23 -60q0 -43 -29.5 -71.5t-74.5 -28.5z" />
    <glyph glyph-name="periodcentered.loclCAT.cap" 
d="M-111 330q-38 0 -61.5 22t-23.5 59q0 43 30.5 72t74.5 29q38 0 61 -22t23 -60q0 -43 -29.5 -71.5t-74.5 -28.5z" />
    <glyph glyph-name="dotlessij" horiz-adv-x="591" 
d="M180 -229q-60 0 -111.5 13.5t-88.5 38.5l44 122q66 -45 148 -45q130 0 157 134l6 30q-50 -64 -138 -64q-71 0 -111 42t-40 117q0 32 8 70l56 291h154l-54 -281q-4 -19 -5 -29.5t-1 -15.5q0 -58 57 -58q41 0 70 29t39 79l54 276h154l-91 -470q-28 -143 -102.5 -211
t-204.5 -68z" />
    <glyph glyph-name="IJacute" horiz-adv-x="687" 
d="M263 -16q-136 0 -223 52l47 129q81 -43 169 -43q82 0 125.5 41.5t62.5 138.5l78 398h162l-79 -408q-31 -162 -112 -235t-230 -73zM69 244l89 456h162l-88 -456h-163zM149 772l167 130h183l-193 -130h-157zM514 772l167 130h183l-193 -130h-157z" />
    <glyph glyph-name="ijacute" horiz-adv-x="591" 
d="M180 -229q-60 0 -111.5 13.5t-88.5 38.5l44 122q66 -45 148 -45q130 0 157 134l6 30q-50 -64 -138 -64q-71 0 -111 42t-40 117q0 32 8 70l56 291h154l-54 -281q-4 -19 -5 -29.5t-1 -15.5q0 -58 57 -58q41 0 70 29t39 79l54 276h154l-91 -470q-28 -143 -102.5 -211
t-204.5 -68zM109 599l151 156h167l-182 -156h-136zM423 599l151 156h167l-182 -156h-136z" />
    <glyph glyph-name="uni0327.cap" 
d="M-94 -229q-26 0 -54 5t-50 12l30 70q33 -12 70 -12q30 0 48 8t18 21q0 22 -53 22q-28 0 -50 -5l54 123h74l-28 -59h4q45 0 71 -20.5t26 -57.5q0 -49 -43.5 -78t-116.5 -29z" />
    </font>
</defs>
</svg>
