<?xml version="1.0" standalone="no"?>
<!DOCTYPE svg PUBLIC "-//W3C//DTD SVG 1.1//EN" "http://www.w3.org/Graphics/SVG/1.1/DTD/svg11.dtd" >
<svg xmlns="http://www.w3.org/2000/svg" xmlns:xlink="http://www.w3.org/1999/xlink" version="1.1">
<metadata>
Created by FontForge 20170731 at Thu Nov  7 21:04:28 2019
 By Aleksey,,,
Copyright 2019 FedEx Corporation. This font may not be altered in any way without prior permission of the FedEx Corporation.
</metadata>
<defs>
<font id="FedExSans-CondensedXBold" horiz-adv-x="0" >
  <font-face 
    font-family="FedEx Sans Cd XBold"
    font-weight="800"
    font-stretch="condensed"
    units-per-em="1000"
    panose-1="2 11 9 6 2 2 3 2 2 4"
    ascent="740"
    descent="-260"
    x-height="523"
    cap-height="700"
    bbox="-255 -552 1202 1125"
    underline-thickness="76"
    underline-position="-222"
    unicode-range="U+000D-FFFD"
  />
<missing-glyph horiz-adv-x="500" 
d="M0 0v700h500v-700h-500zM87 654l162 -260l162 260h-324zM278 350l168 -268v536zM221 350l-167 266v-533zM249 305l-162 -259h324z" />
    <glyph glyph-name="uniFB00" unicode="ff" horiz-adv-x="695" 
d="M6 367l17 144h66v24q0 218 188 218q57 0 100 -21l-16 -144q-15 8 -25.5 11t-24.5 3q-26 0 -38 -14.5t-12 -46.5v-30h141v20q0 222 199 222q60 0 111 -23l-16 -144q-19 9 -31.5 12.5t-29.5 3.5q-33 0 -47 -15t-14 -50v-26h114v-144h-114v-367h-172v367h-141v-367h-172v367
h-83z" />
    <glyph glyph-name="uniFB01" unicode="fi" horiz-adv-x="613" 
d="M574 0h-172v367h-141v-367h-172v367h-83l17 144h66v24q0 218 188 218q57 0 100 -21l-16 -144q-15 8 -25.5 11t-24.5 3q-26 0 -38 -14.5t-12 -46.5v-30h313v-511zM491 553q-45 0 -72 28.5t-27 71.5q0 44 27 72t72 28t72 -28t27 -72q0 -43 -27 -71.5t-72 -28.5z" />
    <glyph glyph-name="uniFB02" unicode="fl" horiz-adv-x="613" 
d="M351 367h-90v-367h-172v367h-83l17 144h66v24q0 218 188 218q57 0 100 -21l-16 -144q-15 8 -25.5 11t-24.5 3q-26 0 -38 -14.5t-12 -46.5v-30h90v-144zM574 0h-172v740h172v-740z" />
    <glyph glyph-name="uniFB03" unicode="ffi" horiz-adv-x="926" 
d="M377 732l-16 -144q-15 8 -25.5 11t-24.5 3q-26 0 -38 -14.5t-12 -46.5v-30h141v24q0 218 188 218q57 0 100 -21l-16 -144q-15 8 -25.5 11t-24.5 3q-26 0 -38 -14.5t-12 -46.5v-30h313v-511h-172v367h-141v-367h-172v367h-141v-367h-172v367h-83l17 144h66v24
q0 218 188 218q57 0 100 -21zM804 553q-45 0 -72 28.5t-27 71.5q0 44 27 72t72 28t72 -28t27 -72q0 -43 -27 -71.5t-72 -28.5z" />
    <glyph glyph-name="uniFB04" unicode="ffl" horiz-adv-x="926" 
d="M664 367h-90v-367h-172v367h-141v-367h-172v367h-83l17 144h66v24q0 218 188 218q57 0 100 -21l-16 -144q-15 8 -25.5 11t-24.5 3q-26 0 -38 -14.5t-12 -46.5v-30h141v24q0 218 188 218q57 0 100 -21l-16 -144q-15 8 -25.5 11t-24.5 3q-26 0 -38 -14.5t-12 -46.5v-30h90
v-144zM887 0h-172v740h172v-740z" />
    <glyph glyph-name="f_b" unicode="fb" horiz-adv-x="880" 
d="M351 367h-90v-367h-172v367h-83l17 144h66v24q0 218 188 218q57 0 100 -21l-16 -144q-15 8 -25.5 11t-24.5 3q-26 0 -38 -14.5t-12 -46.5v-30h90v-144zM678 -13q-83 0 -121 77l-5 -64h-150v740h172v-265q38 61 108 61q53 0 92 -34t60 -95.5t21 -144.5q0 -81 -22 -143
t-61.5 -97t-93.5 -35zM622 139q31 0 45 32t14 91t-14 90.5t-45 31.5t-46 -31.5t-15 -90.5t15 -91t46 -32z" />
    <glyph glyph-name="f_h" unicode="fh" horiz-adv-x="865" 
d="M351 367h-90v-367h-172v367h-83l17 144h66v24q0 218 188 218q57 0 100 -21l-16 -144q-15 8 -25.5 11t-24.5 3q-26 0 -38 -14.5t-12 -46.5v-30h90v-144zM830 0h-172v302q0 42 -7.5 59.5t-30.5 17.5q-25 0 -35.5 -20.5t-10.5 -61.5v-297h-172v740h172v-267q37 63 111 63
q145 0 145 -205v-331z" />
    <glyph glyph-name="f_j" unicode="fj" horiz-adv-x="613" 
d="M574 -10q0 -111 -46.5 -165t-142.5 -54q-32 0 -60 5.5t-54 18.5l23 140q26 -13 54 -13q31 0 42.5 19t11.5 65v361h-141v-367h-172v367h-83l17 144h66v24q0 218 188 218q57 0 100 -21l-16 -144q-15 8 -25.5 11t-24.5 3q-26 0 -38 -14.5t-12 -46.5v-30h313v-521zM491 553
q-45 0 -72 28.5t-27 71.5q0 44 27 72t72 28t72 -28t27 -72q0 -43 -27 -71.5t-72 -28.5z" />
    <glyph glyph-name="f_k" unicode="fk" horiz-adv-x="894" 
d="M351 367h-90v-367h-172v367h-83l17 144h66v24q0 218 188 218q57 0 100 -21l-16 -144q-15 8 -25.5 11t-24.5 3q-26 0 -38 -14.5t-12 -46.5v-30h90v-144zM402 0v740h172v-382l113 165h195l-135 -169l142 -354h-184l-75 209l-56 -70v-139h-172z" />
    <glyph glyph-name="f_t" unicode="ft" horiz-adv-x="699" 
d="M6 367l17 144h66v24q0 218 188 218q57 0 100 -21l-16 -144q-15 8 -25.5 11t-24.5 3q-26 0 -38 -14.5t-12 -46.5v-30h137v167h172v-167h105v-144h-105v-144q0 -45 11 -63.5t39 -18.5q14 0 24.5 3t25.5 13l16 -143q-24 -12 -52 -18t-56 -6q-93 0 -136.5 50.5t-43.5 159.5
v167h-137v-367h-172v367h-83z" />
    <glyph glyph-name="f_f_b" unicode="ffb" horiz-adv-x="1193" 
d="M664 367h-90v-367h-172v367h-141v-367h-172v367h-83l17 144h66v24q0 218 188 218q57 0 100 -21l-16 -144q-15 8 -25.5 11t-24.5 3q-26 0 -38 -14.5t-12 -46.5v-30h141v24q0 218 188 218q57 0 100 -21l-16 -144q-15 8 -25.5 11t-24.5 3q-26 0 -38 -14.5t-12 -46.5v-30h90
v-144zM991 -13q-83 0 -121 77l-5 -64h-150v740h172v-265q38 61 108 61q53 0 92 -34t60 -95.5t21 -144.5q0 -81 -22 -143t-61.5 -97t-93.5 -35zM935 139q31 0 45 32t14 91t-14 90.5t-45 31.5t-46 -31.5t-15 -90.5t15 -91t46 -32z" />
    <glyph glyph-name="f_f_h" unicode="ffh" horiz-adv-x="1178" 
d="M664 367h-90v-367h-172v367h-141v-367h-172v367h-83l17 144h66v24q0 218 188 218q57 0 100 -21l-16 -144q-15 8 -25.5 11t-24.5 3q-26 0 -38 -14.5t-12 -46.5v-30h141v24q0 218 188 218q57 0 100 -21l-16 -144q-15 8 -25.5 11t-24.5 3q-26 0 -38 -14.5t-12 -46.5v-30h90
v-144zM1143 0h-172v302q0 42 -7.5 59.5t-30.5 17.5q-25 0 -35.5 -20.5t-10.5 -61.5v-297h-172v740h172v-267q37 63 111 63q145 0 145 -205v-331z" />
    <glyph glyph-name="f_f_j" unicode="ffj" horiz-adv-x="926" 
d="M377 732l-16 -144q-15 8 -25.5 11t-24.5 3q-26 0 -38 -14.5t-12 -46.5v-30h141v24q0 218 188 218q57 0 100 -21l-16 -144q-15 8 -25.5 11t-24.5 3q-26 0 -38 -14.5t-12 -46.5v-30h313v-521q0 -111 -46.5 -165t-142.5 -54q-32 0 -60 5.5t-54 18.5l23 140q26 -13 54 -13
q31 0 42.5 19t11.5 65v361h-141v-367h-172v367h-141v-367h-172v367h-83l17 144h66v24q0 218 188 218q57 0 100 -21zM804 553q-45 0 -72 28.5t-27 71.5q0 44 27 72t72 28t72 -28t27 -72q0 -43 -27 -71.5t-72 -28.5z" />
    <glyph glyph-name="f_f_k" unicode="ffk" horiz-adv-x="1207" 
d="M664 367h-90v-367h-172v367h-141v-367h-172v367h-83l17 144h66v24q0 218 188 218q57 0 100 -21l-16 -144q-15 8 -25.5 11t-24.5 3q-26 0 -38 -14.5t-12 -46.5v-30h141v24q0 218 188 218q57 0 100 -21l-16 -144q-15 8 -25.5 11t-24.5 3q-26 0 -38 -14.5t-12 -46.5v-30h90
v-144zM887 0h-172v740h172v-382l113 165h195l-135 -169l142 -354h-184l-75 209l-56 -70v-139z" />
    <glyph glyph-name="f_f_t" unicode="fft" horiz-adv-x="1012" 
d="M377 732l-16 -144q-15 8 -25.5 11t-24.5 3q-26 0 -38 -14.5t-12 -46.5v-30h141v24q0 218 188 218q57 0 100 -21l-16 -144q-15 8 -25.5 11t-24.5 3q-26 0 -38 -14.5t-12 -46.5v-30h137v167h172v-167h105v-144h-105v-144q0 -45 11 -63.5t39 -18.5q14 0 24.5 3t25.5 13
l16 -143q-24 -12 -52 -18t-56 -6q-93 0 -136.5 50.5t-43.5 159.5v167h-137v-367h-172v367h-141v-367h-172v367h-83l17 144h66v24q0 218 188 218q57 0 100 -21z" />
    <glyph glyph-name=".notdef" horiz-adv-x="500" 
d="M0 0v700h500v-700h-500zM87 654l162 -260l162 260h-324zM278 350l168 -268v536zM221 350l-167 266v-533zM249 305l-162 -259h324z" />
    <glyph glyph-name="uni0000" 
 />
    <glyph glyph-name="uni0000" 
 />
    <glyph glyph-name="uni000D" unicode="&#xd;" horiz-adv-x="137" 
 />
    <glyph glyph-name="space" unicode=" " horiz-adv-x="137" 
 />
    <glyph glyph-name="exclam" unicode="!" horiz-adv-x="262" 
d="M220 700l-16 -453h-146l-16 453h178zM131 -12q-45 0 -73 29.5t-28 73.5q0 46 28 75t73 29t73 -29t28 -75q0 -44 -28 -73.5t-73 -29.5z" />
    <glyph glyph-name="quotedbl" unicode="&#x22;" horiz-adv-x="413" 
d="M174 398h-140l-10 302h160zM379 398h-140l-10 302h160z" />
    <glyph glyph-name="numbersign" unicode="#" horiz-adv-x="506" 
d="M48 0l19 156h-53v117h67l17 142h-60v117h74l18 152h126l-18 -152h76l18 152h126l-18 -152h52v-117h-66l-17 -142h59v-117h-73l-19 -156h-126l19 156h-76l-19 -156h-126zM207 273h76l17 142h-76z" />
    <glyph glyph-name="dollar" unicode="$" horiz-adv-x="506" 
d="M19 42l33 143q43 -31 80 -43t83 -12q39 0 63 15t24 46q0 28 -19 46.5t-73 34.5q-88 27 -131.5 78.5t-43.5 131.5q0 84 48 140t132 71v101h96v-98q84 -8 147 -51l-32 -140q-39 27 -69 38t-70 11q-39 0 -62.5 -15.5t-23.5 -44.5q0 -27 19 -45.5t73 -35.5
q89 -26 133.5 -77.5t44.5 -132.5q0 -80 -42.5 -134t-117.5 -73v-106h-96v96q-57 1 -103 13.5t-93 42.5z" />
    <glyph glyph-name="percent" unicode="%" horiz-adv-x="750" 
d="M318 0h-116l230 684h116zM589 -8q-68 0 -103.5 52t-35.5 149t35.5 149t103.5 52t103.5 -52t35.5 -149t-35.5 -149t-103.5 -52zM589 87q17 0 23 25.5t6 80.5t-6 80.5t-23 25.5q-16 0 -22.5 -25.5t-6.5 -80.5t6.5 -80.5t22.5 -25.5zM161 290q-68 0 -103.5 52t-35.5 149
t35.5 149t103.5 52t103.5 -52t35.5 -149t-35.5 -149t-103.5 -52zM161 385q17 0 23 25.5t6 80.5t-6 80.5t-23 25.5q-16 0 -22.5 -25.5t-6.5 -80.5t6.5 -80.5t22.5 -25.5z" />
    <glyph glyph-name="ampersand" unicode="&#x26;" horiz-adv-x="662" 
d="M264 -14q-109 0 -173 52t-64 148q0 106 123 188q-28 38 -43 76.5t-15 78.5q0 86 49.5 135.5t137.5 49.5q85 0 134 -45.5t49 -124.5q0 -55 -29 -99.5t-94 -89.5l94 -110q16 52 17 124l140 -17q-5 -133 -58 -223l110 -129h-191l-22 27q-71 -41 -165 -41zM230 524
q0 -22 9 -41.5t30 -44.5q26 20 39 39.5t13 47.5q0 65 -44 65q-23 0 -35 -17.5t-12 -48.5zM189 205q0 -84 89 -84q36 0 65 12l-120 149q-34 -32 -34 -77z" />
    <glyph glyph-name="quotesingle" unicode="'" horiz-adv-x="208" 
d="M174 398h-140l-10 302h160z" />
    <glyph glyph-name="parenleft" unicode="(" horiz-adv-x="324" 
d="M26 292q0 158 46 282.5t134 215.5l107 -85q-55 -82 -80.5 -182t-25.5 -231t25.5 -231t80.5 -182l-107 -85q-88 92 -134 216t-46 282z" />
    <glyph glyph-name="parenright" unicode=")" horiz-adv-x="324" 
d="M298 292q0 -158 -46 -282t-134 -216l-107 85q56 82 81 182t25 231t-25 231t-81 182l107 85q88 -91 134 -215.5t46 -282.5z" />
    <glyph glyph-name="asterisk" unicode="*" horiz-adv-x="373" 
d="M121 354l-81 61l80 91l-102 30l37 102l88 -48l-10 110h107l-10 -109l88 47l37 -102l-102 -30l79 -91l-81 -61l-65 101z" />
    <glyph glyph-name="plus" unicode="+" horiz-adv-x="506" 
d="M179 114v158h-147v140h147v158h148v-158h147v-140h-147v-158h-148z" />
    <glyph glyph-name="comma" unicode="," horiz-adv-x="258" 
d="M21 -120q40 14 69.5 42.5t43.5 65.5h-7q-43 0 -72 28t-29 73q0 47 28 76.5t72 29.5q50 0 78 -35.5t28 -97.5q0 -55 -20.5 -104.5t-57.5 -87t-87 -56.5z" />
    <glyph glyph-name="hyphen" unicode="-" horiz-adv-x="326" 
d="M24 223v147h278v-147h-278z" />
    <glyph glyph-name="hyphen" unicode="&#x2011;" horiz-adv-x="326" 
d="M24 223v147h278v-147h-278z" />
    <glyph glyph-name="hyphen" unicode="&#x2010;" horiz-adv-x="326" 
d="M24 223v147h278v-147h-278z" />
    <glyph glyph-name="hyphen" unicode="&#xad;" horiz-adv-x="326" 
d="M24 223v147h278v-147h-278z" />
    <glyph glyph-name="period" unicode="." horiz-adv-x="258" 
d="M129 -12q-45 0 -73 29.5t-28 73.5q0 46 28 75t73 29t73 -29t28 -75q0 -44 -28 -73.5t-73 -29.5z" />
    <glyph glyph-name="slash" unicode="/" horiz-adv-x="411" 
d="M8 -156l219 896h176l-219 -896h-176z" />
    <glyph glyph-name="zero" unicode="0" horiz-adv-x="506" 
d="M253 -14q-113 0 -172 92t-59 264t59 264t172 92t172 -92t59 -264t-59 -264t-172 -92zM253 542q-29 0 -40 -48.5t-11 -151.5t11 -151.5t40 -48.5t40 48.5t11 151.5t-11 151.5t-40 48.5z" />
    <glyph glyph-name="one" unicode="1" horiz-adv-x="506" 
d="M207 0v487l-92 -70l-86 126l196 141h158v-684h-176z" />
    <glyph glyph-name="two" unicode="2" horiz-adv-x="506" 
d="M29 629q41 34 90.5 51.5t101.5 17.5q109 0 169.5 -54t60.5 -151q0 -40 -11.5 -77t-40 -80.5t-78.5 -103.5q-14 -17 -31.5 -37t-38.5 -43h217l-18 -152h-416v127q44 44 78 80.5t59 67.5q38 47 60.5 78.5t32 58.5t9.5 58q0 35 -19.5 53.5t-54.5 18.5q-68 0 -123 -52z" />
    <glyph glyph-name="three" unicode="3" horiz-adv-x="506" 
d="M24 37l35 136q57 -41 142 -41q41 0 64.5 19t23.5 53q0 71 -100 71h-50v146h47q46 0 70.5 18t24.5 52q0 29 -20 45t-56 16q-80 0 -131 -40l-36 130q34 26 84.5 41t107.5 15q104 0 163 -50t59 -136q0 -54 -26.5 -94.5t-77.5 -62.5q54 -19 85 -61t31 -102
q0 -97 -66.5 -151.5t-184.5 -54.5q-58 0 -107.5 13.5t-81.5 37.5z" />
    <glyph glyph-name="four" unicode="4" horiz-adv-x="506" 
d="M270 0v120h-256v138l247 426h172v-418h65l-17 -146h-48v-120h-163zM270 266v198l-114 -198h114z" />
    <glyph glyph-name="five" unicode="5" horiz-adv-x="506" 
d="M207 -14q-51 0 -98.5 12t-79.5 33l35 142q29 -20 63 -30.5t69 -10.5q96 0 96 83q0 81 -89 81q-18 0 -39 -3t-42 -11l-62 29l23 373h344l18 -153h-223l-6 -105q25 5 49 5q95 0 148.5 -56t53.5 -154q0 -111 -69 -173t-191 -62z" />
    <glyph glyph-name="six" unicode="6" horiz-adv-x="506" 
d="M265 -14q-117 0 -176 84.5t-59 248.5q0 118 35 203t100.5 130.5t156.5 45.5q79 0 145 -31l-43 -142q-24 11 -45 16.5t-49 5.5q-126 0 -132 -187q36 78 119 78q77 0 120 -60t43 -156q0 -72 -26.5 -125t-75 -82t-113.5 -29zM264 130q46 0 46 87t-45 87q-46 0 -46 -87
t45 -87z" />
    <glyph glyph-name="seven" unicode="7" horiz-adv-x="506" 
d="M95 0l195 528h-263l18 156h424v-145l-188 -539h-186z" />
    <glyph glyph-name="eight" unicode="8" horiz-adv-x="506" 
d="M253 -14q-103 0 -164.5 54t-61.5 145q0 126 109 164q-92 43 -92 155q0 89 56.5 141.5t152.5 52.5t152.5 -52.5t56.5 -141.5q0 -112 -92 -155q109 -38 109 -164q0 -91 -61 -145t-165 -54zM253 414q48 0 48 71q0 73 -48 73t-48 -73q0 -71 48 -71zM253 128q54 0 54 74
q0 76 -54 76t-54 -76q0 -74 54 -74z" />
    <glyph glyph-name="nine" unicode="9" horiz-adv-x="506" 
d="M43 17l43 142q24 -11 45 -16.5t49 -5.5q63 0 94 47.5t34 139.5q-36 -78 -119 -78q-76 0 -119.5 60t-43.5 156q0 72 26.5 125t75 82t113.5 29q117 0 176 -84.5t59 -248.5q0 -118 -34 -203t-98 -130.5t-156 -45.5q-79 0 -145 31zM241 380q46 0 46 87t-45 87q-46 0 -46 -87
t45 -87z" />
    <glyph glyph-name="colon" unicode=":" horiz-adv-x="258" 
d="M129 -12q-45 0 -73 29.5t-28 73.5q0 46 28 75t73 29t73 -29t28 -75q0 -44 -28 -73.5t-73 -29.5zM129 328q-45 0 -73 29.5t-28 73.5q0 46 28 75t73 29t73 -29t28 -75q0 -44 -28 -73.5t-73 -29.5z" />
    <glyph glyph-name="semicolon" unicode=";" horiz-adv-x="258" 
d="M21 -120q40 14 69.5 42.5t43.5 65.5h-7q-43 0 -72 28t-29 73q0 47 28 76.5t72 29.5q50 0 78 -35.5t28 -97.5q0 -55 -20.5 -104.5t-57.5 -87t-87 -56.5zM129 328q-45 0 -73 29.5t-28 73.5q0 46 28 75t73 29t73 -29t28 -75q0 -44 -28 -73.5t-73 -29.5z" />
    <glyph glyph-name="less" unicode="&#x3c;" horiz-adv-x="506" 
d="M474 102l-442 172v136l442 172v-160l-281 -79l281 -79v-162z" />
    <glyph glyph-name="equal" unicode="=" horiz-adv-x="506" 
d="M32 141v140h442v-140h-442zM32 403v140h442v-140h-442z" />
    <glyph glyph-name="greater" unicode="&#x3e;" horiz-adv-x="506" 
d="M32 102v162l281 79l-281 79v160l442 -172v-136z" />
    <glyph glyph-name="question" unicode="?" horiz-adv-x="429" 
d="M255 258v-11h-138v11q0 54 12.5 88.5t42.5 64.5q33 32 45 53t12 46q0 55 -67 55q-58 0 -104 -38l-39 142q35 22 78 34.5t91 12.5q102 0 159 -49.5t57 -137.5q0 -52 -22 -89t-68 -77q-34 -29 -46.5 -52.5t-12.5 -52.5zM186 -12q-45 0 -73 29.5t-28 73.5q0 46 28 75t73 29
t73 -29t28 -75q0 -44 -28 -73.5t-73 -29.5z" />
    <glyph glyph-name="at" unicode="@" horiz-adv-x="807" 
d="M571 185q-1 -5 -1.5 -11t-0.5 -12q0 -22 6.5 -31t21.5 -9q35 0 57 56t22 146q0 128 -62 198t-182 70q-92 0 -159 -47.5t-103.5 -132t-36.5 -194.5q0 -158 68.5 -245t196.5 -87q47 0 95.5 11.5t87.5 33.5l22 -95q-42 -22 -100 -35t-115 -13q-113 0 -194 52t-124 148
t-43 228q0 105 30 191.5t84.5 150t129 98t163.5 34.5q107 0 184.5 -44t119.5 -124.5t42 -191.5q0 -95 -24.5 -165.5t-69.5 -109t-107 -38.5q-105 0 -117 96q-16 -45 -49 -70.5t-76 -25.5q-60 0 -95 53.5t-34 144.5q1 71 22.5 126.5t58.5 87.5t84 32q36 0 61 -21t36 -59
l15 67h124zM389 141q23 0 39 34t17 83q0 37 -10 58t-29 21q-24 0 -38 -33.5t-15 -80.5q0 -39 9.5 -60.5t26.5 -21.5z" />
    <glyph glyph-name="A" unicode="A" horiz-adv-x="626" 
d="M422 0l-29 130h-165l-30 -130h-191l214 700h184l214 -700h-197zM262 281h97l-48 211z" />
    <glyph glyph-name="B" unicode="B" horiz-adv-x="552" 
d="M528 202q0 -93 -61 -147.5t-168 -54.5h-255v700h242q100 0 157.5 -50t57.5 -134q0 -52 -24 -91t-63 -57q51 -12 82.5 -56.5t31.5 -109.5zM268 427q61 0 61 71q0 65 -60 65h-55v-136h54zM283 137q35 0 52.5 21t17.5 59t-18 58.5t-55 20.5h-66v-159h69z" />
    <glyph glyph-name="C" unicode="C" horiz-adv-x="564" 
d="M27 346q0 110 40 193.5t114.5 130t176.5 46.5q46 0 93 -12t83 -35l-33 -157q-31 22 -62.5 32.5t-66.5 10.5q-74 0 -116 -53.5t-42 -149.5q0 -100 41 -153.5t117 -53.5q69 0 138 46l30 -155q-38 -25 -87 -38.5t-99 -13.5q-102 0 -175.5 43.5t-112.5 125t-39 193.5z" />
    <glyph glyph-name="D" unicode="D" horiz-adv-x="613" 
d="M295 0h-251v700h251q137 0 214 -92.5t77 -257.5t-77 -257.5t-214 -92.5zM278 159q62 0 91.5 48t29.5 143q0 96 -29 143.5t-92 47.5h-56v-382h56z" />
    <glyph glyph-name="E" unicode="E" horiz-adv-x="503" 
d="M44 0v700h412l18 -151h-255v-118h228v-151h-228v-129h271l-18 -151h-428z" />
    <glyph glyph-name="F" unicode="F" horiz-adv-x="481" 
d="M44 0v700h408l18 -151h-251v-130h220v-151h-220v-268h-175z" />
    <glyph glyph-name="G" unicode="G" horiz-adv-x="603" 
d="M567 25q-100 -41 -218 -41q-99 0 -171.5 43.5t-111.5 124.5t-39 194t42.5 196t120 128.5t181.5 45.5q48 0 98 -12.5t88 -36.5l-33 -157q-34 23 -67.5 34t-71.5 11q-82 0 -126.5 -51.5t-44.5 -151.5q0 -103 39 -156t114 -53q20 0 40 3v123h-86v137h246v-381z" />
    <glyph glyph-name="H" unicode="H" horiz-adv-x="610" 
d="M44 0v700h180v-264h162v264h180v-700h-180v273h-162v-273h-180z" />
    <glyph glyph-name="I" unicode="I" horiz-adv-x="268" 
d="M44 0v700h180v-700h-180z" />
    <glyph glyph-name="J" unicode="J" horiz-adv-x="468" 
d="M160 -16q-41 0 -79.5 11t-62.5 30l29 151q21 -15 46.5 -24t52.5 -9q59 0 80.5 39t21.5 136v382h180v-395q0 -165 -65 -243t-203 -78z" />
    <glyph glyph-name="K" unicode="K" horiz-adv-x="618" 
d="M44 0v700h180v-260l160 260h200l-176 -256l202 -444h-204l-114 277l-68 -99v-178h-180z" />
    <glyph glyph-name="L" unicode="L" horiz-adv-x="481" 
d="M44 0v700h180v-539h253l-19 -161h-414z" />
    <glyph glyph-name="M" unicode="M" horiz-adv-x="723" 
d="M44 0v700h217l103 -391l104 391h211v-700h-163v449l-90 -331h-129l-90 331v-449h-163z" />
    <glyph glyph-name="N" unicode="N" horiz-adv-x="608" 
d="M44 0v700h186l167 -398v398h167v-700h-182l-171 401v-401h-167z" />
    <glyph glyph-name="O" unicode="O" horiz-adv-x="660" 
d="M330 -16q-91 0 -159.5 45.5t-106 128t-37.5 192.5t37.5 192.5t106 128t159.5 45.5q92 0 160 -45.5t105.5 -128t37.5 -192.5t-37.5 -192.5t-105.5 -128t-160 -45.5zM330 145q56 0 86 54t30 151q0 95 -30 150t-86 55t-86 -55t-30 -150q0 -97 30 -151t86 -54z" />
    <glyph glyph-name="P" unicode="P" horiz-adv-x="521" 
d="M271 222h-54v-222h-173v700h227q105 0 166 -64.5t61 -174.5q0 -109 -61 -174t-166 -65zM257 365q30 0 45 25t15 71t-15 71t-45 25h-40v-192h40z" />
    <glyph glyph-name="Q" unicode="Q" horiz-adv-x="660" 
d="M330 -16q-91 0 -159.5 45.5t-106 128t-37.5 192.5t37.5 192.5t106 128t159.5 45.5q92 0 160 -45.5t105.5 -128t37.5 -192.5q0 -77 -18.5 -140.5t-53.5 -110.5l82 -103l-98 -80l-79 100q-61 -32 -136 -32zM330 145q16 0 30 4l-85 106l98 80l65 -81q8 40 8 96q0 95 -30 150
t-86 55t-86 -55t-30 -150q0 -97 30 -151t86 -54z" />
    <glyph glyph-name="R" unicode="R" horiz-adv-x="557" 
d="M360 0l-95 235h-48v-235h-173v700h230q107 0 169 -62.5t62 -169.5q0 -62 -23.5 -110t-66.5 -76l124 -282h-179zM260 557h-43v-179h43q32 0 48 23.5t16 66.5q0 42 -16 65.5t-48 23.5z" />
    <glyph glyph-name="S" unicode="S" horiz-adv-x="503" 
d="M478 207q0 -68 -31 -118.5t-86.5 -77.5t-131.5 -27q-64 0 -113.5 13t-101.5 45l34 150q44 -31 82 -44t85 -13q38 0 62 15t24 46q0 28 -19 46.5t-72 34.5q-91 28 -135.5 81t-44.5 136q0 67 30 117t85 77.5t130 27.5q111 0 190 -54l-33 -148q-40 28 -71 39.5t-72 11.5
q-38 0 -61.5 -15.5t-23.5 -44.5q0 -27 19 -46t72 -35q92 -28 137.5 -81t45.5 -136z" />
    <glyph glyph-name="T" unicode="T" horiz-adv-x="538" 
d="M179 0v539h-168v161h516v-161h-168v-539h-180z" />
    <glyph glyph-name="U" unicode="U" horiz-adv-x="593" 
d="M40 268v432h180v-417q0 -72 17.5 -105t60.5 -33t61 33t18 105v417h176v-432q0 -138 -66 -211t-194 -73q-125 0 -189 72.5t-64 211.5z" />
    <glyph glyph-name="V" unicode="V" horiz-adv-x="618" 
d="M611 700l-210 -700h-184l-210 700h197l108 -483l108 483h191z" />
    <glyph glyph-name="W" unicode="W" horiz-adv-x="837" 
d="M503 0l-85 490l-84 -490h-184l-140 700h192l58 -461l70 461h179l73 -466l59 466h186l-140 -700h-184z" />
    <glyph glyph-name="X" unicode="X" horiz-adv-x="626" 
d="M8 0l203 355l-187 345h198l92 -205l96 205h192l-190 -342l206 -358h-203l-105 215l-105 -215h-197z" />
    <glyph glyph-name="Y" unicode="Y" horiz-adv-x="614" 
d="M217 0v271l-209 429h210l92 -266l93 266h203l-209 -429v-271h-180z" />
    <glyph glyph-name="Z" unicode="Z" horiz-adv-x="543" 
d="M27 0v137l283 411h-274l18 152h454v-137l-282 -411h297l-18 -152h-478z" />
    <glyph glyph-name="bracketleft" unicode="[" horiz-adv-x="322" 
d="M44 -156v896h250l17 -143h-96v-610h96l-17 -143h-250z" />
    <glyph glyph-name="backslash" unicode="\" horiz-adv-x="411" 
d="M403 -156h-176l-219 896h176z" />
    <glyph glyph-name="bracketright" unicode="]" horiz-adv-x="322" 
d="M278 -156h-250l-17 143h96v610h-96l17 143h250v-896z" />
    <glyph glyph-name="asciicircum" unicode="^" horiz-adv-x="506" 
d="M20 290l169 394h128l169 -394h-170l-65 225l-65 -225h-166z" />
    <glyph glyph-name="underscore" unicode="_" horiz-adv-x="390" 
d="M0 -172v139h390v-139h-390z" />
    <glyph glyph-name="grave" unicode="`" horiz-adv-x="380" 
d="M137 594l-147 158h190l110 -158h-153z" />
    <glyph glyph-name="a" unicode="a" horiz-adv-x="472" 
d="M437 311v-311h-140l-5 61q-36 -74 -125 -74q-67 0 -106 43.5t-39 117.5q0 89 55.5 132.5t169.5 45.5l29 1q-2 37 -20.5 53.5t-61.5 16.5q-32 0 -59.5 -8.5t-59.5 -30.5l-26 132q69 46 167 46q221 0 221 -225zM182 168q0 -50 43 -50q51 0 51 86v26h-17q-40 -1 -58.5 -15.5
t-18.5 -46.5z" />
    <glyph glyph-name="b" unicode="b" horiz-adv-x="517" 
d="M492 262q0 -81 -22 -143t-61.5 -97t-93.5 -35q-83 0 -121 77l-5 -64h-150v740h172v-265q38 61 108 61q53 0 92 -34t60 -95.5t21 -144.5zM198 262q0 -59 15 -91t46 -32t45 32t14 91t-14 90.5t-45 31.5t-46 -31.5t-15 -90.5z" />
    <glyph glyph-name="c" unicode="c" horiz-adv-x="437" 
d="M25 257q0 83 31.5 146t90 98t138.5 35q32 0 65.5 -8t58.5 -24l-29 -147q-20 14 -39.5 20.5t-42.5 6.5q-46 0 -72.5 -32t-26.5 -89q0 -60 26 -92t74 -32q43 0 88 29l28 -144q-28 -18 -63 -27.5t-71 -9.5q-120 0 -188 72t-68 198z" />
    <glyph glyph-name="d" unicode="d" horiz-adv-x="517" 
d="M478 0h-150l-5 71q-39 -84 -125 -84q-53 0 -92 34t-60 95.5t-21 144.5q0 81 22 143t62 97t93 35q66 0 104 -56v260h172v-740zM319 261q0 59 -14.5 91t-46.5 32q-31 0 -45 -32t-14 -91q0 -58 14 -90t45 -32q32 0 46.5 31.5t14.5 90.5z" />
    <glyph glyph-name="e" unicode="e" horiz-adv-x="475" 
d="M453 264q0 -14 -1 -26.5t-3 -24.5h-261q16 -84 102 -84q33 0 59.5 7.5t56.5 26.5l26 -136q-70 -40 -166 -40q-112 0 -176.5 73t-64.5 201q0 85 27 146.5t77 95t118 33.5q98 0 152 -70.5t54 -201.5zM245 408q-26 0 -40 -22t-17 -70h110q-3 51 -15 71.5t-38 20.5z" />
    <glyph glyph-name="f" unicode="f" horiz-adv-x="382" 
d="M6 367l17 144h66v20q0 222 199 222q60 0 111 -23l-16 -144q-19 9 -31.5 12.5t-29.5 3.5q-33 0 -47 -15t-14 -50v-26h114v-144h-114v-367h-172v367h-83z" />
    <glyph glyph-name="g" unicode="g" horiz-adv-x="517" 
d="M59 -184l31 143q25 -17 56.5 -27.5t65.5 -10.5q52 0 73 22.5t21 76.5v41q-38 -61 -108 -61q-53 0 -92 33t-60 93.5t-21 141.5q0 79 22 139.5t62 94.5t93 34q83 0 121 -76l5 63h150v-486q0 -135 -62.5 -200.5t-193.5 -65.5q-46 0 -90 12.5t-73 32.5zM319 268
q0 56 -14.5 86t-46.5 30q-31 0 -45 -30t-14 -86q0 -55 14 -85.5t45 -30.5q32 0 46.5 30t14.5 86z" />
    <glyph glyph-name="h" unicode="h" horiz-adv-x="502" 
d="M211 297v-297h-172v740h172v-267q37 63 111 63q145 0 145 -205v-331h-172v302q0 42 -7.5 59.5t-30.5 17.5q-25 0 -35.5 -20.5t-10.5 -61.5z" />
    <glyph glyph-name="i" unicode="i" horiz-adv-x="250" 
d="M125 568q-46 0 -74 28.5t-28 71.5q0 44 28 72t74 28q47 0 74.5 -28t27.5 -72q0 -43 -27.5 -71.5t-74.5 -28.5zM39 0v523h172v-523h-172z" />
    <glyph glyph-name="j" unicode="j" horiz-adv-x="250" 
d="M125 568q-46 0 -74 28.5t-28 71.5q0 44 28 72t74 28q47 0 74.5 -28t27.5 -72q0 -43 -27.5 -71.5t-74.5 -28.5zM-92 -205l23 140q26 -13 54 -13q31 0 42.5 19t11.5 65v517h172v-533q0 -111 -46.5 -165t-142.5 -54q-32 0 -60 5.5t-54 18.5z" />
    <glyph glyph-name="k" unicode="k" horiz-adv-x="531" 
d="M39 0v740h172v-382l113 165h195l-135 -169l142 -354h-184l-75 209l-56 -70v-139h-172z" />
    <glyph glyph-name="l" unicode="l" horiz-adv-x="250" 
d="M39 0v740h172v-740h-172z" />
    <glyph glyph-name="m" unicode="m" horiz-adv-x="736" 
d="M211 297v-297h-172v523h150l5 -73q16 42 47.5 64t74.5 22q91 0 122 -88q17 43 49 65.5t74 22.5q140 0 140 -205v-331h-172v302q0 42 -6.5 59.5t-26.5 17.5q-22 0 -31 -20.5t-9 -61.5v-297h-172v302q0 42 -6.5 59.5t-26.5 17.5q-22 0 -31 -20.5t-9 -61.5z" />
    <glyph glyph-name="n" unicode="n" horiz-adv-x="502" 
d="M467 331v-331h-172v302q0 42 -7.5 59.5t-30.5 17.5q-25 0 -35.5 -20.5t-10.5 -61.5v-297h-172v523h150l6 -78q16 44 49 67.5t78 23.5q145 0 145 -205z" />
    <glyph glyph-name="o" unicode="o" horiz-adv-x="512" 
d="M256 -13q-70 0 -122 34t-80.5 96t-28.5 145t28.5 144.5t80.5 95.5t122 34t122 -34t80.5 -95.5t28.5 -144.5t-28.5 -145t-80.5 -96t-122 -34zM256 139q30 0 43.5 32t13.5 91t-13.5 90.5t-43.5 31.5t-43.5 -31.5t-13.5 -90.5t13.5 -91t43.5 -32z" />
    <glyph glyph-name="p" unicode="p" horiz-adv-x="517" 
d="M315 -13q-66 0 -104 56v-259h-172v739h150l5 -71q39 84 125 84q53 0 92 -34t60 -95.5t21 -144.5q0 -81 -22 -143t-61.5 -97t-93.5 -35zM198 262q0 -59 15 -91t46 -32t45 32t14 91t-14 90.5t-45 31.5t-46 -31.5t-15 -90.5z" />
    <glyph glyph-name="q" unicode="q" horiz-adv-x="517" 
d="M478 523v-739h-172v265q-38 -62 -108 -62q-53 0 -92 34t-60 95.5t-21 144.5q0 81 22 143t62 97t93 35q83 0 121 -78l5 65h150zM319 261q0 59 -14.5 91t-46.5 32q-31 0 -45 -32t-14 -91q0 -58 14 -90t45 -32q32 0 46.5 31.5t14.5 90.5z" />
    <glyph glyph-name="r" unicode="r" horiz-adv-x="362" 
d="M211 226v-226h-172v523h150l7 -94q26 104 113 104q28 0 47 -9l-8 -169q-22 11 -46 11q-91 0 -91 -140z" />
    <glyph glyph-name="s" unicode="s" horiz-adv-x="422" 
d="M194 -13q-53 0 -94.5 10t-85.5 35l31 133q35 -22 65.5 -31.5t67.5 -9.5q23 0 37.5 8.5t14.5 24.5q0 14 -12 23.5t-45 19.5q-73 21 -109.5 60t-36.5 100q0 81 56 128.5t153 47.5q92 0 157 -40l-30 -133q-32 20 -57.5 28t-59.5 8q-23 0 -37.5 -8t-14.5 -24q0 -13 12 -22.5
t45 -19.5q76 -22 113 -61t37 -100q0 -81 -56 -129t-151 -48z" />
    <glyph glyph-name="t" unicode="t" horiz-adv-x="390" 
d="M377 14q-24 -12 -52 -18t-56 -6q-93 0 -136.5 50.5t-43.5 159.5v179h-83l17 144h66v167h172v-167h105v-144h-105v-156q0 -45 11 -63.5t39 -18.5q14 0 24.5 3t25.5 13z" />
    <glyph glyph-name="u" unicode="u" horiz-adv-x="498" 
d="M309 0l-6 78q-16 -44 -48.5 -67.5t-76.5 -23.5q-143 0 -143 205v331h172v-302q0 -42 7.5 -59.5t28.5 -17.5q24 0 34 20.5t10 61.5v297h172v-523h-150z" />
    <glyph glyph-name="v" unicode="v" horiz-adv-x="514" 
d="M509 523l-164 -523h-176l-164 523h186l69 -335l69 335h180z" />
    <glyph glyph-name="w" unicode="w" horiz-adv-x="719" 
d="M125 0l-117 523h174l45 -337l49 337h172l50 -333l45 333h168l-117 -523h-176l-59 370l-58 -370h-176z" />
    <glyph glyph-name="x" unicode="x" horiz-adv-x="525" 
d="M12 0l161 272l-156 251h177l71 -134l70 134h173l-155 -253l160 -270h-181l-73 144l-72 -144h-175z" />
    <glyph glyph-name="y" unicode="y" horiz-adv-x="517" 
d="M35 -208l17 142q26 -13 65 -13q26 0 39 12t24 40l-175 550h186l69 -333l72 333h180l-169 -541q-23 -74 -48.5 -121t-62 -68.5t-94.5 -21.5q-32 0 -54.5 4.5t-48.5 16.5z" />
    <glyph glyph-name="z" unicode="z" horiz-adv-x="441" 
d="M26 0v124l196 261h-197l17 138h367v-124l-195 -261h209l-17 -138h-380z" />
    <glyph glyph-name="braceleft" unicode="{" horiz-adv-x="334" 
d="M323 -13l-18 -143h-83q-72 0 -115 44.5t-43 120.5q0 41 6.5 72t6.5 61q0 41 -15 61t-49 20v138q34 0 49 20t15 61q0 30 -6.5 61t-6.5 72q0 77 43 121t115 44h83l18 -143h-37q-56 0 -56 -69q0 -29 3 -49.5t6 -40t3 -44.5q0 -82 -108 -102q108 -20 108 -102q0 -25 -3 -44.5
t-6 -40t-3 -49.5q0 -69 56 -69h37z" />
    <glyph glyph-name="bar" unicode="|" horiz-adv-x="268" 
d="M48 -216v956h172v-956h-172z" />
    <glyph glyph-name="braceright" unicode="}" horiz-adv-x="334" 
d="M270 9q0 -76 -43 -120.5t-115 -44.5h-83l-18 143h37q56 0 56 69q0 29 -3 49.5t-6 40t-3 44.5q0 82 108 102q-108 20 -108 102q0 25 3 44.5t6 40t3 49.5q0 69 -56 69h-37l18 143h83q72 0 115 -44t43 -121q0 -41 -6.5 -72t-6.5 -61q0 -41 15 -61t49 -20v-138q-34 0 -49 -20
t-15 -61q0 -30 6.5 -61t6.5 -72z" />
    <glyph glyph-name="asciitilde" unicode="~" horiz-adv-x="506" 
d="M219 284q-25 26 -33 32t-17 6q-12 0 -16.5 -20.5t-5.5 -84.5l-127 10q2 125 34.5 182t102.5 57q38 0 67 -16.5t63 -50.5q26 -25 33.5 -31.5t16.5 -6.5q12 0 16.5 20.5t5.5 84.5l127 -10q-2 -125 -34.5 -182t-102.5 -57q-37 0 -66.5 16.5t-63.5 50.5z" />
    <glyph glyph-name="uni00A0" unicode="&#xa0;" horiz-adv-x="137" 
 />
    <glyph glyph-name="exclamdown" unicode="&#xa1;" horiz-adv-x="262" 
d="M131 328q-45 0 -73 29t-28 75q0 44 28 73.5t73 29.5t73 -29.5t28 -73.5q0 -46 -28 -75t-73 -29zM220 -177h-178l16 453h146z" />
    <glyph glyph-name="cent" unicode="&#xa2;" horiz-adv-x="506" 
d="M303 -35h-97l16 120q-86 23 -133.5 90t-47.5 170q0 81 30.5 142.5t87 97.5t134.5 40l15 110h97l-16 -120q32 -8 56 -22l-29 -145q-22 13 -43 20l-33 -242q40 3 83 28l28 -142q-57 -34 -134 -37zM212 351q0 -67 35 -99l28 214q-29 -13 -46 -42t-17 -73z" />
    <glyph glyph-name="sterling" unicode="&#xa3;" horiz-adv-x="506" 
d="M386 305h-112q2 -11 3 -21.5t1 -20.5q0 -68 -49 -107h257l-18 -156h-425v130q65 36 65 114q0 15 -1.5 30.5t-4.5 30.5h-69v94h50q-3 18 -5 35.5t-2 36.5q0 106 63 166.5t172 60.5q94 0 160 -46l-31 -149q-28 21 -50.5 29.5t-50.5 8.5q-85 0 -85 -96q0 -12 1 -23.5
t2 -22.5h129v-94z" />
    <glyph glyph-name="currency" unicode="&#xa4;" horiz-adv-x="506" 
d="M491 137l-72 -62l-78 86q-41 -16 -88 -16q-48 0 -88 17l-78 -87l-72 62l73 81q-20 25 -31 56.5t-11 67.5t11 67.5t31 56.5l-73 81l72 62l78 -87q40 17 88 17q47 0 88 -16l78 86l72 -62l-73 -81q20 -25 31 -56.5t11 -67.5t-11 -67.5t-31 -56.5zM253 269q32 0 50.5 20.5
t18.5 52.5t-18.5 52.5t-50.5 20.5q-31 0 -50 -20.5t-19 -52.5t19 -52.5t50 -20.5z" />
    <glyph glyph-name="yen" unicode="&#xa5;" horiz-adv-x="506" 
d="M341 0h-176v108h-112v94h112v57h-112v94h70l-148 331h194l86 -282l87 282h189l-148 -331h70v-94h-112v-57h112v-94h-112v-108z" />
    <glyph glyph-name="brokenbar" unicode="&#xa6;" horiz-adv-x="265" 
d="M48 363v377h172v-377h-172zM48 -216v396h172v-396h-172z" />
    <glyph glyph-name="section" unicode="&#xa7;" horiz-adv-x="453" 
d="M413 15q0 -85 -55 -135t-149 -50q-52 0 -91.5 10.5t-82.5 35.5l31 133q33 -23 62 -32.5t65 -9.5q23 0 36.5 9t13.5 31q0 14 -9 25t-36 25l-45 24q-71 38 -99.5 76t-28.5 95q0 88 85 148q-33 27 -47 59.5t-14 75.5q0 83 56 132t150 49q89 0 151 -40l-30 -133
q-31 20 -55 28t-56 8q-49 0 -49 -41q0 -16 9.5 -26.5t36.5 -24.5l46 -23q68 -34 96 -72.5t28 -97.5q0 -85 -81 -145q33 -27 47.5 -58.5t14.5 -75.5zM182 288q0 -26 10.5 -41.5t44.5 -32.5l16 -8q21 25 21 52q0 26 -10 41t-46 34l-16 9q-20 -25 -20 -54z" />
    <glyph glyph-name="dieresis" unicode="&#xa8;" horiz-adv-x="380" 
d="M76 589q-37 0 -59.5 24t-22.5 60q0 37 22.5 60.5t59.5 23.5t59.5 -23.5t22.5 -60.5q0 -36 -22.5 -60t-59.5 -24zM304 589q-37 0 -59.5 24t-22.5 60q0 37 22.5 60.5t59.5 23.5t59.5 -23.5t22.5 -60.5q0 -36 -22.5 -60t-59.5 -24z" />
    <glyph glyph-name="copyright" unicode="&#xa9;" horiz-adv-x="672" 
d="M336 -16q-93 0 -162.5 46.5t-108 129t-38.5 190.5q0 109 38.5 191t108 128.5t162.5 46.5q94 0 163 -46.5t107.5 -128.5t38.5 -191q0 -108 -38.5 -190.5t-107.5 -129t-163 -46.5zM336 77q95 0 150 74t55 199q0 83 -25 144.5t-70.5 95t-109.5 33.5q-63 0 -109 -33.5
t-71 -95t-25 -144.5q0 -125 55 -199t150 -74zM311 350q0 -98 72 -98q13 0 27.5 4t28.5 14l21 -104q-39 -28 -95 -28q-88 0 -138 55.5t-50 152.5q0 98 51.5 156.5t138.5 58.5q24 0 47.5 -6.5t40.5 -18.5l-21 -106q-14 10 -26 13.5t-26 3.5q-71 0 -71 -97z" />
    <glyph glyph-name="ordfeminine" unicode="&#xaa;" horiz-adv-x="352" 
d="M21 425q0 131 152 134l29 1q-2 30 -15 43t-43 13q-22 0 -41.5 -7t-42.5 -25l-20 98q52 33 121 33q157 0 157 -169v-228h-101l-4 47q-24 -57 -88 -57q-48 0 -76 32t-28 85zM137 438q0 -36 29 -36q36 0 36 67v15l-20 -1q-24 -1 -34.5 -11.5t-10.5 -33.5z" />
    <glyph glyph-name="guillemotleft" unicode="&#xab;" horiz-adv-x="594" 
d="M126 52l-103 210l103 210h173l-95 -210l95 -210h-173zM395 52l-103 210l103 210h173l-95 -210l95 -210h-173z" />
    <glyph glyph-name="logicalnot" unicode="&#xac;" horiz-adv-x="506" 
d="M32 433h442v-298h-148v158h-294v140z" />
    <glyph glyph-name="registered" unicode="&#xae;" horiz-adv-x="398" 
d="M199 295q-80 0 -127.5 57.5t-47.5 153.5q0 95 47.5 152.5t127.5 57.5t127.5 -57.5t47.5 -152.5q0 -96 -47.5 -153.5t-127.5 -57.5zM199 342q59 0 90.5 43.5t31.5 120.5q0 76 -31.5 119.5t-90.5 43.5q-58 0 -90 -43.5t-32 -119.5q0 -77 32 -120.5t90 -43.5zM185 399h-67
v213h82q39 0 61.5 -21t22.5 -56q0 -38 -27 -59l35 -77h-71l-23 58h-13v-58zM185 510h10q17 0 17 25q0 24 -17 24h-10v-49z" />
    <glyph glyph-name="macron" unicode="&#xaf;" horiz-adv-x="380" 
d="M16 731h348v-115h-348v115z" />
    <glyph glyph-name="degree" unicode="&#xb0;" horiz-adv-x="418" 
d="M209 698q56 0 98 -23t66 -63t24 -92t-24 -92t-66 -63t-98 -23q-55 0 -97.5 23t-66.5 63t-24 92t24 92t66.5 63t97.5 23zM209 445q30 0 47.5 20.5t17.5 54.5q0 35 -17.5 55t-47.5 20t-47.5 -20t-17.5 -55q0 -34 17.5 -54.5t47.5 -20.5z" />
    <glyph glyph-name="plusminus" unicode="&#xb1;" horiz-adv-x="506" 
d="M32 0v140h442v-140h-442zM179 211v158h-147v140h147v158h148v-158h147v-140h-147v-158h-148z" />
    <glyph glyph-name="uni00B2" unicode="&#xb2;" horiz-adv-x="322" 
d="M289 482l-11 -94h-244v77q25 23 44 42.5t33 35.5q32 37 45.5 57t13.5 45q0 41 -42 41q-38 0 -69 -31l-30 86q49 41 116 41q62 0 98 -32t36 -88q0 -34 -14.5 -64t-52.5 -74q-8 -9 -18 -19.5t-21 -22.5h116z" />
    <glyph glyph-name="uni00B3" unicode="&#xb3;" horiz-adv-x="322" 
d="M26 409l22 85q32 -24 80 -24q23 0 36.5 9.5t13.5 25.5q0 35 -57 35h-28v89h27q55 0 55 34q0 29 -44 29q-46 0 -75 -23l-22 81q20 15 49.5 23.5t62.5 8.5q63 0 98.5 -28t35.5 -78q0 -63 -63 -87q32 -11 50.5 -34.5t18.5 -56.5q0 -56 -39.5 -87t-111.5 -31q-69 0 -109 29z
" />
    <glyph glyph-name="acute" unicode="&#xb4;" horiz-adv-x="380" 
d="M243 594h-153l110 158h190z" />
    <glyph glyph-name="paragraph" unicode="&#xb6;" horiz-adv-x="592" 
d="M20 493q0 100 57.5 153.5t160.5 53.5h310v-847h-151v714h-68v-714h-151v438q-76 14 -117 66t-41 136z" />
    <glyph glyph-name="periodcentered" unicode="&#xb7;" horiz-adv-x="258" 
d="M129 158q-45 0 -73 29.5t-28 73.5q0 46 28 75t73 29t73 -29t28 -75q0 -44 -28 -73.5t-73 -29.5z" />
    <glyph glyph-name="cedilla" unicode="&#xb8;" horiz-adv-x="380" 
d="M91 -214l20 77q21 -11 51 -11q48 0 48 26q0 22 -42 22q-9 0 -21 -1.5t-20 -3.5l25 120h83l-14 -54h1q44 0 68.5 -23.5t24.5 -65.5q0 -47 -36.5 -74t-100.5 -27q-28 0 -48.5 4t-38.5 11z" />
    <glyph glyph-name="uni00B9" unicode="&#xb9;" horiz-adv-x="322" 
d="M237 388h-107v265l-53 -41l-50 78l114 84h96v-386z" />
    <glyph glyph-name="ordmasculine" unicode="&#xba;" horiz-adv-x="386" 
d="M193 308q-77 0 -123.5 56t-46.5 148t46.5 147.5t123.5 55.5t123.5 -55.5t46.5 -147.5t-46.5 -148t-123.5 -56zM193 417q21 0 32.5 25t11.5 70q0 44 -11.5 69t-32.5 25t-32.5 -25t-11.5 -69q0 -45 11.5 -70t32.5 -25z" />
    <glyph glyph-name="guillemotright" unicode="&#xbb;" horiz-adv-x="594" 
d="M199 52h-173l95 210l-95 210h173l103 -210zM468 52h-173l95 210l-95 210h173l103 -210z" />
    <glyph glyph-name="onequarter" unicode="&#xbc;" horiz-adv-x="750" 
d="M318 0h-116l230 684h116zM692 0h-99v65h-150v84l144 237h105v-234h40l-10 -87h-30v-65zM593 152v101l-61 -101h61zM237 298h-107v265l-53 -41l-50 78l114 84h96v-386z" />
    <glyph glyph-name="onehalf" unicode="&#xbd;" horiz-adv-x="750" 
d="M298 0h-116l230 684h116zM717 94l-11 -94h-244v77q25 23 44 42.5t33 35.5q32 37 45.5 57t13.5 45q0 41 -42 41q-38 0 -69 -31l-30 86q49 41 116 41q62 0 98 -32t36 -88q0 -34 -14.5 -64t-52.5 -74q-8 -9 -18 -19.5t-21 -22.5h116zM237 298h-107v265l-53 -41l-50 78
l114 84h96v-386z" />
    <glyph glyph-name="threequarters" unicode="&#xbe;" horiz-adv-x="750" 
d="M332 0h-116l230 684h116zM692 0h-99v65h-150v84l144 237h105v-234h40l-10 -87h-30v-65zM593 152v101l-61 -101h61zM26 319l22 85q32 -24 80 -24q23 0 36.5 9.5t13.5 25.5q0 35 -57 35h-28v89h27q55 0 55 34q0 29 -44 29q-46 0 -75 -23l-22 81q20 15 49.5 23.5t62.5 8.5
q63 0 98.5 -28t35.5 -78q0 -63 -63 -87q32 -11 50.5 -34.5t18.5 -56.5q0 -56 -39.5 -87t-111.5 -31q-69 0 -109 29z" />
    <glyph glyph-name="questiondown" unicode="&#xbf;" horiz-adv-x="429" 
d="M243 328q-45 0 -73 29t-28 75q0 44 28 73.5t73 29.5t73 -29.5t28 -73.5q0 -46 -28 -75t-73 -29zM174 265v11h138v-11q0 -54 -12.5 -88.5t-42.5 -64.5q-33 -32 -45 -52.5t-12 -46.5q0 -55 67 -55q58 0 104 38l39 -142q-34 -22 -77.5 -34.5t-91.5 -12.5q-102 0 -159 49.5
t-57 137.5q0 52 22 89t68 77q34 29 46.5 53t12.5 52z" />
    <glyph glyph-name="Agrave" unicode="&#xc0;" horiz-adv-x="626" 
d="M422 0l-29 130h-165l-30 -130h-191l214 700h184l214 -700h-197zM262 281h97l-48 211zM241 772l-150 132h207l126 -132h-183z" />
    <glyph glyph-name="Aacute" unicode="&#xc1;" horiz-adv-x="626" 
d="M422 0l-29 130h-165l-30 -130h-191l214 700h184l214 -700h-197zM262 281h97l-48 211zM385 772h-183l126 132h207z" />
    <glyph glyph-name="Acircumflex" unicode="&#xc2;" horiz-adv-x="626" 
d="M422 0l-29 130h-165l-30 -130h-191l214 700h184l214 -700h-197zM262 281h97l-48 211zM256 772h-148l127 132h156l127 -132h-150l-56 49z" />
    <glyph glyph-name="Atilde" unicode="&#xc3;" horiz-adv-x="626" 
d="M422 0l-29 130h-165l-30 -130h-191l214 700h184l214 -700h-197zM262 281h97l-48 211zM503 920q-1 -73 -31.5 -112t-86.5 -39q-25 0 -44.5 7.5t-54.5 29.5q-20 13 -31 13q-16 0 -21.5 -12t-6.5 -38l-104 11q1 73 31.5 112t86.5 39q25 0 44 -7t54 -30q20 -13 32 -13
q17 0 22 12t6 38z" />
    <glyph glyph-name="Adieresis" unicode="&#xc4;" horiz-adv-x="626" 
d="M422 0l-29 130h-165l-30 -130h-191l214 700h184l214 -700h-197zM262 281h97l-48 211zM193 763q-37 0 -60 24t-23 61q0 38 23 61.5t60 23.5q38 0 60.5 -23.5t22.5 -61.5q0 -37 -22.5 -61t-60.5 -24zM433 763q-37 0 -60 24t-23 61q0 38 23 61.5t60 23.5q38 0 60.5 -23.5
t22.5 -61.5q0 -37 -22.5 -61t-60.5 -24z" />
    <glyph glyph-name="Aring" unicode="&#xc5;" horiz-adv-x="626" 
d="M422 0l-29 130h-165l-30 -130h-191l214 700h184l214 -700h-197zM262 281h97l-48 211zM313 982q53 0 87 -30.5t34 -79.5q0 -47 -34 -78t-87 -31t-87 31t-34 78q0 49 34 79.5t87 30.5zM313 826q23 0 36 13t13 33q0 22 -13 34.5t-36 12.5t-36 -12.5t-13 -34.5q0 -20 13 -33
t36 -13z" />
    <glyph glyph-name="AE" unicode="&#xc6;" horiz-adv-x="897" 
d="M452 0v130h-194l-52 -130h-199l320 700h523l18 -151h-245v-118h218v-151h-218v-129h261l-18 -151h-414zM452 549h-26l-107 -268h133v268z" />
    <glyph glyph-name="Ccedilla" unicode="&#xc7;" horiz-adv-x="564" 
d="M27 346q0 110 40 193.5t114.5 130t176.5 46.5q46 0 93 -12t83 -35l-33 -157q-31 22 -62.5 32.5t-66.5 10.5q-74 0 -116 -53.5t-42 -149.5q0 -100 41 -153.5t117 -53.5q69 0 138 46l30 -155q-38 -25 -87 -38.5t-99 -13.5q-102 0 -175.5 43.5t-112.5 125t-39 193.5z
M338 -229q-29 0 -50.5 4t-40.5 11l20 79q22 -11 55 -11q52 0 52 24q0 21 -46 21q-9 0 -21.5 -1.5t-20.5 -3.5l25 121h85l-14 -53q45 0 71 -23.5t26 -66.5q0 -47 -38 -74t-103 -27z" />
    <glyph glyph-name="Egrave" unicode="&#xc8;" horiz-adv-x="503" 
d="M44 0v700h412l18 -151h-255v-118h228v-151h-228v-129h271l-18 -151h-428zM193 772l-150 132h207l126 -132h-183z" />
    <glyph glyph-name="Eacute" unicode="&#xc9;" horiz-adv-x="503" 
d="M44 0v700h412l18 -151h-255v-118h228v-151h-228v-129h271l-18 -151h-428zM337 772h-183l126 132h207z" />
    <glyph glyph-name="Ecircumflex" unicode="&#xca;" horiz-adv-x="503" 
d="M44 0v700h412l18 -151h-255v-118h228v-151h-228v-129h271l-18 -151h-428zM208 772h-148l127 132h156l127 -132h-150l-56 49z" />
    <glyph glyph-name="Edieresis" unicode="&#xcb;" horiz-adv-x="503" 
d="M44 0v700h412l18 -151h-255v-118h228v-151h-228v-129h271l-18 -151h-428zM145 763q-37 0 -60 24t-23 61q0 38 23 61.5t60 23.5q38 0 60.5 -23.5t22.5 -61.5q0 -37 -22.5 -61t-60.5 -24zM385 763q-37 0 -60 24t-23 61q0 38 23 61.5t60 23.5q38 0 60.5 -23.5t22.5 -61.5
q0 -37 -22.5 -61t-60.5 -24z" />
    <glyph glyph-name="Igrave" unicode="&#xcc;" horiz-adv-x="268" 
d="M44 0v700h180v-700h-180zM62 772l-150 132h207l126 -132h-183z" />
    <glyph glyph-name="Iacute" unicode="&#xcd;" horiz-adv-x="268" 
d="M44 0v700h180v-700h-180zM206 772h-183l126 132h207z" />
    <glyph glyph-name="Icircumflex" unicode="&#xce;" horiz-adv-x="268" 
d="M44 0v700h180v-700h-180zM77 772h-148l127 132h156l127 -132h-150l-56 49z" />
    <glyph glyph-name="Idieresis" unicode="&#xcf;" horiz-adv-x="268" 
d="M44 0v700h180v-700h-180zM14 763q-37 0 -60 24t-23 61q0 38 23 61.5t60 23.5q38 0 60.5 -23.5t22.5 -61.5q0 -37 -22.5 -61t-60.5 -24zM254 763q-37 0 -60 24t-23 61q0 38 23 61.5t60 23.5q38 0 60.5 -23.5t22.5 -61.5q0 -37 -22.5 -61t-60.5 -24z" />
    <glyph glyph-name="Eth" unicode="&#xd0;" horiz-adv-x="627" 
d="M309 0h-251v302h-47v128h47v270h251q137 0 214 -92.5t77 -257.5t-77 -257.5t-214 -92.5zM292 159q62 0 91.5 48t29.5 143q0 96 -29 143.5t-92 47.5h-56v-111h84v-128h-84v-143h56z" />
    <glyph glyph-name="Ntilde" unicode="&#xd1;" horiz-adv-x="608" 
d="M44 0v700h186l167 -398v398h167v-700h-182l-171 401v-401h-167zM503 920q-1 -73 -31.5 -112t-86.5 -39q-25 0 -44.5 7.5t-54.5 29.5q-20 13 -31 13q-16 0 -21.5 -12t-6.5 -38l-104 11q1 73 31.5 112t86.5 39q25 0 44 -7t54 -30q20 -13 32 -13q17 0 22 12t6 38z" />
    <glyph glyph-name="Ograve" unicode="&#xd2;" horiz-adv-x="660" 
d="M330 -16q-91 0 -159.5 45.5t-106 128t-37.5 192.5t37.5 192.5t106 128t159.5 45.5q92 0 160 -45.5t105.5 -128t37.5 -192.5t-37.5 -192.5t-105.5 -128t-160 -45.5zM330 145q56 0 86 54t30 151q0 95 -30 150t-86 55t-86 -55t-30 -150q0 -97 30 -151t86 -54zM258 772
l-150 132h207l126 -132h-183z" />
    <glyph glyph-name="Oacute" unicode="&#xd3;" horiz-adv-x="660" 
d="M330 -16q-91 0 -159.5 45.5t-106 128t-37.5 192.5t37.5 192.5t106 128t159.5 45.5q92 0 160 -45.5t105.5 -128t37.5 -192.5t-37.5 -192.5t-105.5 -128t-160 -45.5zM330 145q56 0 86 54t30 151q0 95 -30 150t-86 55t-86 -55t-30 -150q0 -97 30 -151t86 -54zM402 772h-183
l126 132h207z" />
    <glyph glyph-name="Ocircumflex" unicode="&#xd4;" horiz-adv-x="660" 
d="M330 -16q-91 0 -159.5 45.5t-106 128t-37.5 192.5t37.5 192.5t106 128t159.5 45.5q92 0 160 -45.5t105.5 -128t37.5 -192.5t-37.5 -192.5t-105.5 -128t-160 -45.5zM330 145q56 0 86 54t30 151q0 95 -30 150t-86 55t-86 -55t-30 -150q0 -97 30 -151t86 -54zM273 772h-148
l127 132h156l127 -132h-150l-56 49z" />
    <glyph glyph-name="Otilde" unicode="&#xd5;" horiz-adv-x="660" 
d="M330 -16q-91 0 -159.5 45.5t-106 128t-37.5 192.5t37.5 192.5t106 128t159.5 45.5q92 0 160 -45.5t105.5 -128t37.5 -192.5t-37.5 -192.5t-105.5 -128t-160 -45.5zM330 145q56 0 86 54t30 151q0 95 -30 150t-86 55t-86 -55t-30 -150q0 -97 30 -151t86 -54zM520 920
q-1 -73 -31.5 -112t-86.5 -39q-25 0 -44.5 7.5t-54.5 29.5q-20 13 -31 13q-16 0 -21.5 -12t-6.5 -38l-104 11q1 73 31.5 112t86.5 39q25 0 44 -7t54 -30q20 -13 32 -13q17 0 22 12t6 38z" />
    <glyph glyph-name="Odieresis" unicode="&#xd6;" horiz-adv-x="660" 
d="M330 -16q-91 0 -159.5 45.5t-106 128t-37.5 192.5t37.5 192.5t106 128t159.5 45.5q92 0 160 -45.5t105.5 -128t37.5 -192.5t-37.5 -192.5t-105.5 -128t-160 -45.5zM330 145q56 0 86 54t30 151q0 95 -30 150t-86 55t-86 -55t-30 -150q0 -97 30 -151t86 -54zM210 763
q-37 0 -60 24t-23 61q0 38 23 61.5t60 23.5q38 0 60.5 -23.5t22.5 -61.5q0 -37 -22.5 -61t-60.5 -24zM450 763q-37 0 -60 24t-23 61q0 38 23 61.5t60 23.5q38 0 60.5 -23.5t22.5 -61.5q0 -37 -22.5 -61t-60.5 -24z" />
    <glyph glyph-name="multiply" unicode="&#xd7;" horiz-adv-x="506" 
d="M373 126l-120 120l-120 -120l-96 96l120 120l-120 120l96 96l120 -120l120 120l96 -96l-120 -120l120 -120z" />
    <glyph glyph-name="Oslash" unicode="&#xd8;" horiz-adv-x="660" 
d="M330 -16q-71 0 -130 29l-41 -71l-101 64l48 83q-38 48 -58.5 114t-20.5 147q0 110 37.5 192.5t106 128t159.5 45.5q71 0 129 -29l42 71l101 -64l-48 -83q38 -48 58.5 -114t20.5 -147q0 -110 -37.5 -192.5t-105.5 -128t-160 -45.5zM211 350q0 -46 7 -83l163 277
q-23 14 -51 14q-58 0 -88.5 -56t-30.5 -152zM330 142q58 0 88.5 55.5t30.5 152.5q0 45 -7 82l-163 -276q23 -14 51 -14z" />
    <glyph glyph-name="Ugrave" unicode="&#xd9;" horiz-adv-x="593" 
d="M40 268v432h180v-417q0 -72 17.5 -105t60.5 -33t61 33t18 105v417h176v-432q0 -138 -66 -211t-194 -73q-125 0 -189 72.5t-64 211.5zM225 772l-150 132h207l126 -132h-183z" />
    <glyph glyph-name="Uacute" unicode="&#xda;" horiz-adv-x="593" 
d="M40 268v432h180v-417q0 -72 17.5 -105t60.5 -33t61 33t18 105v417h176v-432q0 -138 -66 -211t-194 -73q-125 0 -189 72.5t-64 211.5zM369 772h-183l126 132h207z" />
    <glyph glyph-name="Ucircumflex" unicode="&#xdb;" horiz-adv-x="593" 
d="M40 268v432h180v-417q0 -72 17.5 -105t60.5 -33t61 33t18 105v417h176v-432q0 -138 -66 -211t-194 -73q-125 0 -189 72.5t-64 211.5zM240 772h-148l127 132h156l127 -132h-150l-56 49z" />
    <glyph glyph-name="Udieresis" unicode="&#xdc;" horiz-adv-x="593" 
d="M40 268v432h180v-417q0 -72 17.5 -105t60.5 -33t61 33t18 105v417h176v-432q0 -138 -66 -211t-194 -73q-125 0 -189 72.5t-64 211.5zM177 763q-37 0 -60 24t-23 61q0 38 23 61.5t60 23.5q38 0 60.5 -23.5t22.5 -61.5q0 -37 -22.5 -61t-60.5 -24zM417 763q-37 0 -60 24
t-23 61q0 38 23 61.5t60 23.5q38 0 60.5 -23.5t22.5 -61.5q0 -37 -22.5 -61t-60.5 -24z" />
    <glyph glyph-name="Yacute" unicode="&#xdd;" horiz-adv-x="614" 
d="M217 0v271l-209 429h210l92 -266l93 266h203l-209 -429v-271h-180zM383 772h-183l126 132h207z" />
    <glyph glyph-name="Thorn" unicode="&#xde;" horiz-adv-x="521" 
d="M217 700v-105h54q105 0 166 -64.5t61 -174.5q0 -109 -61 -174t-166 -65h-54v-117h-173v700h173zM257 260q30 0 45 25t15 71t-15 71t-45 25h-40v-192h40z" />
    <glyph glyph-name="germandbls" unicode="&#xdf;" horiz-adv-x="535" 
d="M320 -13q-28 0 -48 4t-38 11l27 137q12 -6 29 -6q45 0 45 79q0 81 -68 81h-26v145h11q57 0 57 88q0 81 -48 81q-52 0 -52 -84v-523h-173v510q0 114 61.5 178.5t170.5 64.5q100 0 156.5 -56t56.5 -152q0 -59 -22 -100.5t-61 -60.5q54 -17 83.5 -64.5t29.5 -120.5
q0 -99 -50.5 -155.5t-140.5 -56.5z" />
    <glyph glyph-name="agrave" unicode="&#xe0;" horiz-adv-x="472" 
d="M437 311v-311h-140l-5 61q-36 -74 -125 -74q-67 0 -106 43.5t-39 117.5q0 89 55.5 132.5t169.5 45.5l29 1q-2 37 -20.5 53.5t-61.5 16.5q-32 0 -59.5 -8.5t-59.5 -30.5l-26 132q69 46 167 46q221 0 221 -225zM182 168q0 -50 43 -50q51 0 51 86v26h-17q-40 -1 -58.5 -15.5
t-18.5 -46.5zM178 594l-147 158h190l110 -158h-153z" />
    <glyph glyph-name="aacute" unicode="&#xe1;" horiz-adv-x="472" 
d="M437 311v-311h-140l-5 61q-36 -74 -125 -74q-67 0 -106 43.5t-39 117.5q0 89 55.5 132.5t169.5 45.5l29 1q-2 37 -20.5 53.5t-61.5 16.5q-32 0 -59.5 -8.5t-59.5 -30.5l-26 132q69 46 167 46q221 0 221 -225zM182 168q0 -50 43 -50q51 0 51 86v26h-17q-40 -1 -58.5 -15.5
t-18.5 -46.5zM284 594h-153l110 158h190z" />
    <glyph glyph-name="acircumflex" unicode="&#xe2;" horiz-adv-x="472" 
d="M437 311v-311h-140l-5 61q-36 -74 -125 -74q-67 0 -106 43.5t-39 117.5q0 89 55.5 132.5t169.5 45.5l29 1q-2 37 -20.5 53.5t-61.5 16.5q-32 0 -59.5 -8.5t-59.5 -30.5l-26 132q69 46 167 46q221 0 221 -225zM182 168q0 -50 43 -50q51 0 51 86v26h-17q-40 -1 -58.5 -15.5
t-18.5 -46.5zM181 594h-139l117 158h144l117 -158h-141l-49 60z" />
    <glyph glyph-name="atilde" unicode="&#xe3;" horiz-adv-x="472" 
d="M437 311v-311h-140l-5 61q-36 -74 -125 -74q-67 0 -106 43.5t-39 117.5q0 89 55.5 132.5t169.5 45.5l29 1q-2 37 -20.5 53.5t-61.5 16.5q-32 0 -59.5 -8.5t-59.5 -30.5l-26 132q69 46 167 46q221 0 221 -225zM182 168q0 -50 43 -50q51 0 51 86v26h-17q-40 -1 -58.5 -15.5
t-18.5 -46.5zM55 601q0 73 28.5 114.5t77.5 41.5q41 0 87 -38q12 -10 19.5 -14.5t14.5 -4.5q15 0 20 13.5t6 43.5l99 -12q0 -73 -28 -114.5t-78 -41.5q-41 0 -87 38q-12 10 -19 14.5t-15 4.5q-15 0 -20 -13.5t-6 -43.5z" />
    <glyph glyph-name="adieresis" unicode="&#xe4;" horiz-adv-x="472" 
d="M437 311v-311h-140l-5 61q-36 -74 -125 -74q-67 0 -106 43.5t-39 117.5q0 89 55.5 132.5t169.5 45.5l29 1q-2 37 -20.5 53.5t-61.5 16.5q-32 0 -59.5 -8.5t-59.5 -30.5l-26 132q69 46 167 46q221 0 221 -225zM182 168q0 -50 43 -50q51 0 51 86v26h-17q-40 -1 -58.5 -15.5
t-18.5 -46.5zM117 589q-37 0 -59.5 24t-22.5 60q0 37 22.5 60.5t59.5 23.5t59.5 -23.5t22.5 -60.5q0 -36 -22.5 -60t-59.5 -24zM345 589q-37 0 -59.5 24t-22.5 60q0 37 22.5 60.5t59.5 23.5t59.5 -23.5t22.5 -60.5q0 -36 -22.5 -60t-59.5 -24z" />
    <glyph glyph-name="aring" unicode="&#xe5;" horiz-adv-x="472" 
d="M437 311v-311h-140l-5 61q-36 -74 -125 -74q-67 0 -106 43.5t-39 117.5q0 89 55.5 132.5t169.5 45.5l29 1q-2 37 -20.5 53.5t-61.5 16.5q-32 0 -59.5 -8.5t-59.5 -30.5l-26 132q69 46 167 46q221 0 221 -225zM182 168q0 -50 43 -50q51 0 51 86v26h-17q-40 -1 -58.5 -15.5
t-18.5 -46.5zM231 800q52 0 85 -30.5t33 -78.5q0 -49 -33 -79.5t-85 -30.5t-85.5 30.5t-33.5 79.5q0 48 33.5 78.5t85.5 30.5zM231 642q23 0 35.5 13.5t12.5 35.5q0 23 -12.5 35.5t-35.5 12.5q-49 0 -49 -48q0 -22 13 -35.5t36 -13.5z" />
    <glyph glyph-name="ae" unicode="&#xe6;" horiz-adv-x="714" 
d="M671 27q-68 -40 -163 -40q-118 0 -179 91q-24 -44 -64.5 -67.5t-95.5 -23.5q-67 0 -107 42t-40 113q0 86 53.5 128t162.5 44h32q0 45 -18 64t-61 19q-31 0 -58 -8.5t-58 -30.5l-26 132q67 46 164 46q91 0 140 -56q54 56 136 56q96 0 149.5 -70.5t53.5 -201.5
q0 -14 -1 -26.5t-3 -24.5h-255q15 -84 99 -84q32 0 58 7.5t55 26.5zM487 408q-25 0 -38 -22t-16 -70h104q-2 51 -14 71.5t-36 20.5zM182 162q0 -44 40 -44q48 0 48 86v12h-20q-36 -1 -52 -13.5t-16 -40.5z" />
    <glyph glyph-name="ccedilla" unicode="&#xe7;" horiz-adv-x="437" 
d="M25 257q0 83 31.5 146t90 98t138.5 35q32 0 65.5 -8t58.5 -24l-29 -147q-20 14 -39.5 20.5t-42.5 6.5q-46 0 -72.5 -32t-26.5 -89q0 -60 26 -92t74 -32q43 0 88 29l28 -144q-28 -18 -63 -27.5t-71 -9.5q-120 0 -188 72t-68 198zM182 -214l20 77q21 -11 51 -11q48 0 48 26
q0 22 -42 22q-9 0 -21 -1.5t-20 -3.5l25 120h83l-14 -54h1q44 0 68.5 -23.5t24.5 -65.5q0 -47 -36.5 -74t-100.5 -27q-28 0 -48.5 4t-38.5 11z" />
    <glyph glyph-name="egrave" unicode="&#xe8;" horiz-adv-x="475" 
d="M453 264q0 -14 -1 -26.5t-3 -24.5h-261q16 -84 102 -84q33 0 59.5 7.5t56.5 26.5l26 -136q-70 -40 -166 -40q-112 0 -176.5 73t-64.5 201q0 85 27 146.5t77 95t118 33.5q98 0 152 -70.5t54 -201.5zM245 408q-26 0 -40 -22t-17 -70h110q-3 51 -15 71.5t-38 20.5zM194 594
l-147 158h190l110 -158h-153z" />
    <glyph glyph-name="eacute" unicode="&#xe9;" horiz-adv-x="475" 
d="M453 264q0 -14 -1 -26.5t-3 -24.5h-261q16 -84 102 -84q33 0 59.5 7.5t56.5 26.5l26 -136q-70 -40 -166 -40q-112 0 -176.5 73t-64.5 201q0 85 27 146.5t77 95t118 33.5q98 0 152 -70.5t54 -201.5zM245 408q-26 0 -40 -22t-17 -70h110q-3 51 -15 71.5t-38 20.5zM300 594
h-153l110 158h190z" />
    <glyph glyph-name="ecircumflex" unicode="&#xea;" horiz-adv-x="475" 
d="M453 264q0 -14 -1 -26.5t-3 -24.5h-261q16 -84 102 -84q33 0 59.5 7.5t56.5 26.5l26 -136q-70 -40 -166 -40q-112 0 -176.5 73t-64.5 201q0 85 27 146.5t77 95t118 33.5q98 0 152 -70.5t54 -201.5zM245 408q-26 0 -40 -22t-17 -70h110q-3 51 -15 71.5t-38 20.5zM197 594
h-139l117 158h144l117 -158h-141l-49 60z" />
    <glyph glyph-name="edieresis" unicode="&#xeb;" horiz-adv-x="475" 
d="M453 264q0 -14 -1 -26.5t-3 -24.5h-261q16 -84 102 -84q33 0 59.5 7.5t56.5 26.5l26 -136q-70 -40 -166 -40q-112 0 -176.5 73t-64.5 201q0 85 27 146.5t77 95t118 33.5q98 0 152 -70.5t54 -201.5zM245 408q-26 0 -40 -22t-17 -70h110q-3 51 -15 71.5t-38 20.5zM133 589
q-37 0 -59.5 24t-22.5 60q0 37 22.5 60.5t59.5 23.5t59.5 -23.5t22.5 -60.5q0 -36 -22.5 -60t-59.5 -24zM361 589q-37 0 -59.5 24t-22.5 60q0 37 22.5 60.5t59.5 23.5t59.5 -23.5t22.5 -60.5q0 -36 -22.5 -60t-59.5 -24z" />
    <glyph glyph-name="igrave" unicode="&#xec;" horiz-adv-x="250" 
d="M39 0v523h172v-523h-172zM72 594l-147 158h190l110 -158h-153z" />
    <glyph glyph-name="iacute" unicode="&#xed;" horiz-adv-x="250" 
d="M39 0v523h172v-523h-172zM178 594h-153l110 158h190z" />
    <glyph glyph-name="icircumflex" unicode="&#xee;" horiz-adv-x="250" 
d="M39 0v523h172v-523h-172zM75 594h-139l117 158h144l117 -158h-141l-49 60z" />
    <glyph glyph-name="idieresis" unicode="&#xef;" horiz-adv-x="250" 
d="M39 0v523h172v-523h-172zM11 589q-37 0 -59.5 24t-22.5 60q0 37 22.5 60.5t59.5 23.5t59.5 -23.5t22.5 -60.5q0 -36 -22.5 -60t-59.5 -24zM239 589q-37 0 -59.5 24t-22.5 60q0 37 22.5 60.5t59.5 23.5t59.5 -23.5t22.5 -60.5q0 -36 -22.5 -60t-59.5 -24z" />
    <glyph glyph-name="eth" unicode="&#xf0;" horiz-adv-x="512" 
d="M443 662l-63 -31q107 -139 107 -352q0 -136 -63.5 -214t-176.5 -78q-68 0 -118 32t-77 90t-27 136q0 115 48.5 182.5t131.5 67.5q73 0 111 -63q-17 76 -64 137l-117 -57l-39 87l84 41q-28 21 -60 39l130 74q34 -23 62 -49l92 45zM255 135q32 0 46 28.5t14 81.5t-14 81.5
t-46 28.5q-30 0 -44.5 -28.5t-14.5 -81.5t14.5 -81.5t44.5 -28.5z" />
    <glyph glyph-name="ntilde" unicode="&#xf1;" horiz-adv-x="502" 
d="M467 331v-331h-172v302q0 42 -7.5 59.5t-30.5 17.5q-25 0 -35.5 -20.5t-10.5 -61.5v-297h-172v523h150l6 -78q16 44 49 67.5t78 23.5q145 0 145 -205zM87 601q0 73 28.5 114.5t77.5 41.5q41 0 87 -38q12 -10 19.5 -14.5t14.5 -4.5q15 0 20 13.5t6 43.5l99 -12
q0 -73 -28 -114.5t-78 -41.5q-41 0 -87 38q-12 10 -19 14.5t-15 4.5q-15 0 -20 -13.5t-6 -43.5z" />
    <glyph glyph-name="ograve" unicode="&#xf2;" horiz-adv-x="512" 
d="M256 -13q-70 0 -122 34t-80.5 96t-28.5 145t28.5 144.5t80.5 95.5t122 34t122 -34t80.5 -95.5t28.5 -144.5t-28.5 -145t-80.5 -96t-122 -34zM256 139q30 0 43.5 32t13.5 91t-13.5 90.5t-43.5 31.5t-43.5 -31.5t-13.5 -90.5t13.5 -91t43.5 -32zM203 594l-147 158h190
l110 -158h-153z" />
    <glyph glyph-name="oacute" unicode="&#xf3;" horiz-adv-x="512" 
d="M256 -13q-70 0 -122 34t-80.5 96t-28.5 145t28.5 144.5t80.5 95.5t122 34t122 -34t80.5 -95.5t28.5 -144.5t-28.5 -145t-80.5 -96t-122 -34zM256 139q30 0 43.5 32t13.5 91t-13.5 90.5t-43.5 31.5t-43.5 -31.5t-13.5 -90.5t13.5 -91t43.5 -32zM309 594h-153l110 158h190z
" />
    <glyph glyph-name="ocircumflex" unicode="&#xf4;" horiz-adv-x="512" 
d="M256 -13q-70 0 -122 34t-80.5 96t-28.5 145t28.5 144.5t80.5 95.5t122 34t122 -34t80.5 -95.5t28.5 -144.5t-28.5 -145t-80.5 -96t-122 -34zM256 139q30 0 43.5 32t13.5 91t-13.5 90.5t-43.5 31.5t-43.5 -31.5t-13.5 -90.5t13.5 -91t43.5 -32zM206 594h-139l117 158h144
l117 -158h-141l-49 60z" />
    <glyph glyph-name="otilde" unicode="&#xf5;" horiz-adv-x="512" 
d="M256 -13q-70 0 -122 34t-80.5 96t-28.5 145t28.5 144.5t80.5 95.5t122 34t122 -34t80.5 -95.5t28.5 -144.5t-28.5 -145t-80.5 -96t-122 -34zM256 139q30 0 43.5 32t13.5 91t-13.5 90.5t-43.5 31.5t-43.5 -31.5t-13.5 -90.5t13.5 -91t43.5 -32zM80 601q0 73 28.5 114.5
t77.5 41.5q41 0 87 -38q12 -10 19.5 -14.5t14.5 -4.5q15 0 20 13.5t6 43.5l99 -12q0 -73 -28 -114.5t-78 -41.5q-41 0 -87 38q-12 10 -19 14.5t-15 4.5q-15 0 -20 -13.5t-6 -43.5z" />
    <glyph glyph-name="odieresis" unicode="&#xf6;" horiz-adv-x="512" 
d="M256 -13q-70 0 -122 34t-80.5 96t-28.5 145t28.5 144.5t80.5 95.5t122 34t122 -34t80.5 -95.5t28.5 -144.5t-28.5 -145t-80.5 -96t-122 -34zM256 139q30 0 43.5 32t13.5 91t-13.5 90.5t-43.5 31.5t-43.5 -31.5t-13.5 -90.5t13.5 -91t43.5 -32zM142 589q-37 0 -59.5 24
t-22.5 60q0 37 22.5 60.5t59.5 23.5t59.5 -23.5t22.5 -60.5q0 -36 -22.5 -60t-59.5 -24zM370 589q-37 0 -59.5 24t-22.5 60q0 37 22.5 60.5t59.5 23.5t59.5 -23.5t22.5 -60.5q0 -36 -22.5 -60t-59.5 -24z" />
    <glyph glyph-name="divide" unicode="&#xf7;" horiz-adv-x="506" 
d="M253 458q-42 0 -68 27t-26 69t26 69t68 27t67.5 -27t25.5 -69t-25.5 -69t-67.5 -27zM474 272h-442v140h442v-140zM253 34q-42 0 -68 27t-26 69t26 69t68 27t67.5 -27t25.5 -69t-25.5 -69t-67.5 -27z" />
    <glyph glyph-name="oslash" unicode="&#xf8;" horiz-adv-x="512" 
d="M256 -13q-54 0 -98 21l-34 -57l-79 52l39 64q-28 36 -43.5 85.5t-15.5 109.5q0 83 28.5 144.5t80.5 95.5t122 34q53 0 98 -21l34 57l79 -52l-39 -64q28 -36 43.5 -85t15.5 -109q0 -83 -28.5 -145t-80.5 -96t-122 -34zM193 262q0 -14 1 -26l88 147q-11 7 -26 7
q-34 0 -48.5 -33t-14.5 -95zM256 133q34 0 48.5 33.5t14.5 95.5q0 14 -1 25l-88 -147q11 -7 26 -7z" />
    <glyph glyph-name="ugrave" unicode="&#xf9;" horiz-adv-x="498" 
d="M309 0l-6 78q-16 -44 -48.5 -67.5t-76.5 -23.5q-143 0 -143 205v331h172v-302q0 -42 7.5 -59.5t28.5 -17.5q24 0 34 20.5t10 61.5v297h172v-523h-150zM194 594l-147 158h190l110 -158h-153z" />
    <glyph glyph-name="uacute" unicode="&#xfa;" horiz-adv-x="498" 
d="M309 0l-6 78q-16 -44 -48.5 -67.5t-76.5 -23.5q-143 0 -143 205v331h172v-302q0 -42 7.5 -59.5t28.5 -17.5q24 0 34 20.5t10 61.5v297h172v-523h-150zM300 594h-153l110 158h190z" />
    <glyph glyph-name="ucircumflex" unicode="&#xfb;" horiz-adv-x="498" 
d="M309 0l-6 78q-16 -44 -48.5 -67.5t-76.5 -23.5q-143 0 -143 205v331h172v-302q0 -42 7.5 -59.5t28.5 -17.5q24 0 34 20.5t10 61.5v297h172v-523h-150zM197 594h-139l117 158h144l117 -158h-141l-49 60z" />
    <glyph glyph-name="udieresis" unicode="&#xfc;" horiz-adv-x="498" 
d="M309 0l-6 78q-16 -44 -48.5 -67.5t-76.5 -23.5q-143 0 -143 205v331h172v-302q0 -42 7.5 -59.5t28.5 -17.5q24 0 34 20.5t10 61.5v297h172v-523h-150zM133 589q-37 0 -59.5 24t-22.5 60q0 37 22.5 60.5t59.5 23.5t59.5 -23.5t22.5 -60.5q0 -36 -22.5 -60t-59.5 -24z
M361 589q-37 0 -59.5 24t-22.5 60q0 37 22.5 60.5t59.5 23.5t59.5 -23.5t22.5 -60.5q0 -36 -22.5 -60t-59.5 -24z" />
    <glyph glyph-name="yacute" unicode="&#xfd;" horiz-adv-x="517" 
d="M35 -208l17 142q26 -13 65 -13q26 0 39 12t24 40l-175 550h186l69 -333l72 333h180l-169 -541q-23 -74 -48.5 -121t-62 -68.5t-94.5 -21.5q-32 0 -54.5 4.5t-48.5 16.5zM311 594h-153l110 158h190z" />
    <glyph glyph-name="thorn" unicode="&#xfe;" horiz-adv-x="517" 
d="M315 -13q-66 0 -104 56v-259h-172v956h172v-262q38 58 108 58q53 0 92 -34t60 -95.5t21 -144.5q0 -81 -22 -143t-61.5 -97t-93.5 -35zM198 262q0 -59 15 -91t46 -32t45 32t14 91t-14 90.5t-45 31.5t-46 -31.5t-15 -90.5z" />
    <glyph glyph-name="ydieresis" unicode="&#xff;" horiz-adv-x="517" 
d="M35 -208l17 142q26 -13 65 -13q26 0 39 12t24 40l-175 550h186l69 -333l72 333h180l-169 -541q-23 -74 -48.5 -121t-62 -68.5t-94.5 -21.5q-32 0 -54.5 4.5t-48.5 16.5zM144 589q-37 0 -59.5 24t-22.5 60q0 37 22.5 60.5t59.5 23.5t59.5 -23.5t22.5 -60.5
q0 -36 -22.5 -60t-59.5 -24zM372 589q-37 0 -59.5 24t-22.5 60q0 37 22.5 60.5t59.5 23.5t59.5 -23.5t22.5 -60.5q0 -36 -22.5 -60t-59.5 -24z" />
    <glyph glyph-name="Amacron" unicode="&#x100;" horiz-adv-x="626" 
d="M422 0l-29 130h-165l-30 -130h-191l214 700h184l214 -700h-197zM262 281h97l-48 211zM125 897h376v-117h-376v117z" />
    <glyph glyph-name="amacron" unicode="&#x101;" horiz-adv-x="472" 
d="M437 311v-311h-140l-5 61q-36 -74 -125 -74q-67 0 -106 43.5t-39 117.5q0 89 55.5 132.5t169.5 45.5l29 1q-2 37 -20.5 53.5t-61.5 16.5q-32 0 -59.5 -8.5t-59.5 -30.5l-26 132q69 46 167 46q221 0 221 -225zM182 168q0 -50 43 -50q51 0 51 86v26h-17q-40 -1 -58.5 -15.5
t-18.5 -46.5zM57 731h348v-115h-348v115z" />
    <glyph glyph-name="Abreve" unicode="&#x102;" horiz-adv-x="626" 
d="M422 0l-29 130h-165l-30 -130h-191l214 700h184l214 -700h-197zM262 281h97l-48 211zM313 863q33 0 48.5 15.5t17.5 48.5l111 -12q0 -69 -47 -108t-130 -39t-130 39t-47 108l111 12q2 -33 17.5 -48.5t48.5 -15.5z" />
    <glyph glyph-name="abreve" unicode="&#x103;" horiz-adv-x="472" 
d="M437 311v-311h-140l-5 61q-36 -74 -125 -74q-67 0 -106 43.5t-39 117.5q0 89 55.5 132.5t169.5 45.5l29 1q-2 37 -20.5 53.5t-61.5 16.5q-32 0 -59.5 -8.5t-59.5 -30.5l-26 132q69 46 167 46q221 0 221 -225zM182 168q0 -50 43 -50q51 0 51 86v26h-17q-40 -1 -58.5 -15.5
t-18.5 -46.5zM231 681q49 0 52 71l102 -11q0 -71 -41 -111.5t-113 -40.5t-113 40.5t-41 111.5l102 11q3 -71 52 -71z" />
    <glyph glyph-name="Aogonek" unicode="&#x104;" horiz-adv-x="626" 
d="M422 0l-29 130h-165l-30 -130h-191l214 700h184l214 -700h-197zM262 281h97l-48 211zM515 -100q0 -32 42 -32q24 0 43 10l19 -91q-36 -16 -86 -16q-59 0 -93 25t-34 70q0 48 41 90.5t115 70.5l57 -27q-104 -44 -104 -100z" />
    <glyph glyph-name="aogonek" unicode="&#x105;" horiz-adv-x="472" 
d="M437 311v-311h-140l-5 61q-36 -74 -125 -74q-67 0 -106 43.5t-39 117.5q0 89 55.5 132.5t169.5 45.5l29 1q-2 37 -20.5 53.5t-61.5 16.5q-32 0 -59.5 -8.5t-59.5 -30.5l-26 132q69 46 167 46q221 0 221 -225zM182 168q0 -50 43 -50q51 0 51 86v26h-17q-40 -1 -58.5 -15.5
t-18.5 -46.5zM232 -135q0 48 39 90.5t110 70.5l56 -26q-98 -44 -98 -101q0 -33 40 -33q22 0 39 10l19 -89q-35 -16 -82 -16q-59 0 -91 25.5t-32 68.5z" />
    <glyph glyph-name="Cacute" unicode="&#x106;" horiz-adv-x="564" 
d="M27 346q0 110 40 193.5t114.5 130t176.5 46.5q46 0 93 -12t83 -35l-33 -157q-31 22 -62.5 32.5t-66.5 10.5q-74 0 -116 -53.5t-42 -149.5q0 -100 41 -153.5t117 -53.5q69 0 138 46l30 -155q-38 -25 -87 -38.5t-99 -13.5q-102 0 -175.5 43.5t-112.5 125t-39 193.5z
M422 772h-183l126 132h207z" />
    <glyph glyph-name="cacute" unicode="&#x107;" horiz-adv-x="437" 
d="M25 257q0 83 31.5 146t90 98t138.5 35q32 0 65.5 -8t58.5 -24l-29 -147q-20 14 -39.5 20.5t-42.5 6.5q-46 0 -72.5 -32t-26.5 -89q0 -60 26 -92t74 -32q43 0 88 29l28 -144q-28 -18 -63 -27.5t-71 -9.5q-120 0 -188 72t-68 198zM315 594h-153l110 158h190z" />
    <glyph glyph-name="Cdotaccent" unicode="&#x10a;" horiz-adv-x="564" 
d="M27 346q0 110 40 193.5t114.5 130t176.5 46.5q46 0 93 -12t83 -35l-33 -157q-31 22 -62.5 32.5t-66.5 10.5q-74 0 -116 -53.5t-42 -149.5q0 -100 41 -153.5t117 -53.5q69 0 138 46l30 -155q-38 -25 -87 -38.5t-99 -13.5q-102 0 -175.5 43.5t-112.5 125t-39 193.5z
M350 761q-38 0 -62 25t-24 63t24 63t62 25t62 -25t24 -63t-24 -63t-62 -25z" />
    <glyph glyph-name="cdotaccent" unicode="&#x10b;" horiz-adv-x="437" 
d="M25 257q0 83 31.5 146t90 98t138.5 35q32 0 65.5 -8t58.5 -24l-29 -147q-20 14 -39.5 20.5t-42.5 6.5q-46 0 -72.5 -32t-26.5 -89q0 -60 26 -92t74 -32q43 0 88 29l28 -144q-28 -18 -63 -27.5t-71 -9.5q-120 0 -188 72t-68 198zM262 586q-38 0 -61.5 24.5t-23.5 61.5
q0 39 23.5 63.5t61.5 24.5t61.5 -24.5t23.5 -63.5q0 -37 -23.5 -61.5t-61.5 -24.5z" />
    <glyph glyph-name="Ccaron" unicode="&#x10c;" horiz-adv-x="564" 
d="M27 346q0 110 40 193.5t114.5 130t176.5 46.5q46 0 93 -12t83 -35l-33 -157q-31 22 -62.5 32.5t-66.5 10.5q-74 0 -116 -53.5t-42 -149.5q0 -100 41 -153.5t117 -53.5q69 0 138 46l30 -155q-38 -25 -87 -38.5t-99 -13.5q-102 0 -175.5 43.5t-112.5 125t-39 193.5z
M407 904h148l-127 -132h-156l-127 132h150l56 -49z" />
    <glyph glyph-name="ccaron" unicode="&#x10d;" horiz-adv-x="437" 
d="M25 257q0 83 31.5 146t90 98t138.5 35q32 0 65.5 -8t58.5 -24l-29 -147q-20 14 -39.5 20.5t-42.5 6.5q-46 0 -72.5 -32t-26.5 -89q0 -60 26 -92t74 -32q43 0 88 29l28 -144q-28 -18 -63 -27.5t-71 -9.5q-120 0 -188 72t-68 198zM312 752h139l-117 -158h-144l-117 158h141
l49 -60z" />
    <glyph glyph-name="Dcaron" unicode="&#x10e;" horiz-adv-x="613" 
d="M295 0h-251v700h251q137 0 214 -92.5t77 -257.5t-77 -257.5t-214 -92.5zM278 159q62 0 91.5 48t29.5 143q0 96 -29 143.5t-92 47.5h-56v-382h56zM325 904h148l-127 -132h-156l-127 132h150l56 -49z" />
    <glyph glyph-name="dcaron" unicode="&#x10f;" horiz-adv-x="711" 
d="M478 0h-150l-5 71q-39 -84 -125 -84q-53 0 -92 34t-60 95.5t-21 144.5q0 81 22 143t62 97t93 35q66 0 104 -56v260h172v-740zM319 261q0 59 -14.5 91t-46.5 32q-31 0 -45 -32t-14 -91q0 -58 14 -90t45 -32q32 0 46.5 31.5t14.5 90.5zM696 740q-4 -67 -11 -119t-18 -100
h-133q5 52 7 104.5t3 114.5h152z" />
    <glyph glyph-name="Dcroat" unicode="&#x110;" horiz-adv-x="627" 
d="M309 0h-251v302h-47v128h47v270h251q137 0 214 -92.5t77 -257.5t-77 -257.5t-214 -92.5zM292 159q62 0 91.5 48t29.5 143q0 96 -29 143.5t-92 47.5h-56v-111h84v-128h-84v-143h56z" />
    <glyph glyph-name="dcroat" unicode="&#x111;" horiz-adv-x="527" 
d="M198 -13q-53 0 -92 33.5t-60 93.5t-21 141q0 79 22 139.5t62 95t93 34.5q67 0 104 -56v115h-129v97h129v60h172v-60h42v-97h-42v-583h-150l-5 69q-39 -82 -125 -82zM319 255q0 56 -14.5 86.5t-46.5 30.5q-31 0 -45 -30.5t-14 -86.5q0 -55 14 -85.5t45 -30.5q32 0 46.5 30
t14.5 86z" />
    <glyph glyph-name="Emacron" unicode="&#x112;" horiz-adv-x="503" 
d="M44 0v700h412l18 -151h-255v-118h228v-151h-228v-129h271l-18 -151h-428zM77 897h376v-117h-376v117z" />
    <glyph glyph-name="emacron" unicode="&#x113;" horiz-adv-x="475" 
d="M453 264q0 -14 -1 -26.5t-3 -24.5h-261q16 -84 102 -84q33 0 59.5 7.5t56.5 26.5l26 -136q-70 -40 -166 -40q-112 0 -176.5 73t-64.5 201q0 85 27 146.5t77 95t118 33.5q98 0 152 -70.5t54 -201.5zM245 408q-26 0 -40 -22t-17 -70h110q-3 51 -15 71.5t-38 20.5zM73 731
h348v-115h-348v115z" />
    <glyph glyph-name="Edotaccent" unicode="&#x116;" horiz-adv-x="503" 
d="M44 0v700h412l18 -151h-255v-118h228v-151h-228v-129h271l-18 -151h-428zM265 761q-38 0 -62 25t-24 63t24 63t62 25t62 -25t24 -63t-24 -63t-62 -25z" />
    <glyph glyph-name="edotaccent" unicode="&#x117;" horiz-adv-x="475" 
d="M453 264q0 -14 -1 -26.5t-3 -24.5h-261q16 -84 102 -84q33 0 59.5 7.5t56.5 26.5l26 -136q-70 -40 -166 -40q-112 0 -176.5 73t-64.5 201q0 85 27 146.5t77 95t118 33.5q98 0 152 -70.5t54 -201.5zM245 408q-26 0 -40 -22t-17 -70h110q-3 51 -15 71.5t-38 20.5zM247 586
q-38 0 -61.5 24.5t-23.5 61.5q0 39 23.5 63.5t61.5 24.5t61.5 -24.5t23.5 -63.5q0 -37 -23.5 -61.5t-61.5 -24.5z" />
    <glyph glyph-name="Eogonek" unicode="&#x118;" horiz-adv-x="503" 
d="M44 0v700h412l18 -151h-255v-118h228v-151h-228v-129h271l-18 -151h-428zM368 -100q0 -32 42 -32q24 0 43 10l19 -91q-36 -16 -86 -16q-59 0 -93 25t-34 70q0 48 41 90.5t115 70.5l57 -27q-104 -44 -104 -100z" />
    <glyph glyph-name="eogonek" unicode="&#x119;" horiz-adv-x="475" 
d="M453 264q0 -14 -1 -26.5t-3 -24.5h-261q16 -84 102 -84q33 0 59.5 7.5t56.5 26.5l26 -136q-70 -40 -166 -40q-112 0 -176.5 73t-64.5 201q0 85 27 146.5t77 95t118 33.5q98 0 152 -70.5t54 -201.5zM245 408q-26 0 -40 -22t-17 -70h110q-3 51 -15 71.5t-38 20.5zM301 -101
q0 -33 40 -33q22 0 39 10l19 -89q-35 -16 -82 -16q-59 0 -91 25.5t-32 68.5q0 54 44 102t125 79l56 -26q-118 -54 -118 -121z" />
    <glyph glyph-name="Ecaron" unicode="&#x11a;" horiz-adv-x="503" 
d="M44 0v700h412l18 -151h-255v-118h228v-151h-228v-129h271l-18 -151h-428zM322 904h148l-127 -132h-156l-127 132h150l56 -49z" />
    <glyph glyph-name="ecaron" unicode="&#x11b;" horiz-adv-x="475" 
d="M453 264q0 -14 -1 -26.5t-3 -24.5h-261q16 -84 102 -84q33 0 59.5 7.5t56.5 26.5l26 -136q-70 -40 -166 -40q-112 0 -176.5 73t-64.5 201q0 85 27 146.5t77 95t118 33.5q98 0 152 -70.5t54 -201.5zM245 408q-26 0 -40 -22t-17 -70h110q-3 51 -15 71.5t-38 20.5zM297 752
h139l-117 -158h-144l-117 158h141l49 -60z" />
    <glyph glyph-name="Gbreve" unicode="&#x11e;" horiz-adv-x="603" 
d="M567 25q-100 -41 -218 -41q-99 0 -171.5 43.5t-111.5 124.5t-39 194t42.5 196t120 128.5t181.5 45.5q48 0 98 -12.5t88 -36.5l-33 -157q-34 23 -67.5 34t-71.5 11q-82 0 -126.5 -51.5t-44.5 -151.5q0 -103 39 -156t114 -53q20 0 40 3v123h-86v137h246v-381zM360 863
q33 0 48.5 15.5t17.5 48.5l111 -12q0 -69 -47 -108t-130 -39t-130 39t-47 108l111 12q2 -33 17.5 -48.5t48.5 -15.5z" />
    <glyph glyph-name="gbreve" unicode="&#x11f;" horiz-adv-x="517" 
d="M59 -184l31 143q25 -17 56.5 -27.5t65.5 -10.5q52 0 73 22.5t21 76.5v41q-38 -61 -108 -61q-53 0 -92 33t-60 93.5t-21 141.5q0 79 22 139.5t62 94.5t93 34q83 0 121 -76l5 63h150v-486q0 -135 -62.5 -200.5t-193.5 -65.5q-46 0 -90 12.5t-73 32.5zM319 268
q0 56 -14.5 86t-46.5 30q-31 0 -45 -30t-14 -86q0 -55 14 -85.5t45 -30.5q32 0 46.5 30t14.5 86zM257 681q49 0 52 71l102 -11q0 -71 -41 -111.5t-113 -40.5t-113 40.5t-41 111.5l102 11q3 -71 52 -71z" />
    <glyph glyph-name="Gdotaccent" unicode="&#x120;" horiz-adv-x="603" 
d="M567 25q-100 -41 -218 -41q-99 0 -171.5 43.5t-111.5 124.5t-39 194t42.5 196t120 128.5t181.5 45.5q48 0 98 -12.5t88 -36.5l-33 -157q-34 23 -67.5 34t-71.5 11q-82 0 -126.5 -51.5t-44.5 -151.5q0 -103 39 -156t114 -53q20 0 40 3v123h-86v137h246v-381zM360 761
q-38 0 -62 25t-24 63t24 63t62 25t62 -25t24 -63t-24 -63t-62 -25z" />
    <glyph glyph-name="gdotaccent" unicode="&#x121;" horiz-adv-x="517" 
d="M59 -184l31 143q25 -17 56.5 -27.5t65.5 -10.5q52 0 73 22.5t21 76.5v41q-38 -61 -108 -61q-53 0 -92 33t-60 93.5t-21 141.5q0 79 22 139.5t62 94.5t93 34q83 0 121 -76l5 63h150v-486q0 -135 -62.5 -200.5t-193.5 -65.5q-46 0 -90 12.5t-73 32.5zM319 268
q0 56 -14.5 86t-46.5 30q-31 0 -45 -30t-14 -86q0 -55 14 -85.5t45 -30.5q32 0 46.5 30t14.5 86zM257 586q-38 0 -61.5 24.5t-23.5 61.5q0 39 23.5 63.5t61.5 24.5t61.5 -24.5t23.5 -63.5q0 -37 -23.5 -61.5t-61.5 -24.5z" />
    <glyph glyph-name="uni0122" unicode="&#x122;" horiz-adv-x="603" 
d="M567 25q-100 -41 -218 -41q-99 0 -171.5 43.5t-111.5 124.5t-39 194t42.5 196t120 128.5t181.5 45.5q48 0 98 -12.5t88 -36.5l-33 -157q-34 23 -67.5 34t-71.5 11q-82 0 -126.5 -51.5t-44.5 -151.5q0 -103 39 -156t114 -53q20 0 40 3v123h-86v137h246v-381zM274 -258
q64 17 93 53q-11 -2 -21 -2q-30 0 -49 19.5t-19 50.5q0 32 22.5 52t57.5 20q41 0 62 -22.5t21 -63.5q0 -52 -34.5 -92t-99.5 -60z" />
    <glyph glyph-name="uni0123" unicode="&#x123;" horiz-adv-x="517" 
d="M59 -184l31 143q25 -17 56.5 -27.5t65.5 -10.5q52 0 73 22.5t21 76.5v41q-38 -61 -108 -61q-53 0 -92 33t-60 93.5t-21 141.5q0 79 22 139.5t62 94.5t93 34q83 0 121 -76l5 63h150v-486q0 -135 -62.5 -200.5t-193.5 -65.5q-46 0 -90 12.5t-73 32.5zM319 268
q0 56 -14.5 86t-46.5 30q-31 0 -45 -30t-14 -86q0 -55 14 -85.5t45 -30.5q32 0 46.5 30t14.5 86zM342 793q-66 -18 -95 -57q12 3 23 3q30 0 49 -19t19 -50t-22 -51t-57 -20q-40 0 -61 23t-21 63q0 53 34.5 92.5t98.5 59.5z" />
    <glyph glyph-name="Hbar" unicode="&#x126;" horiz-adv-x="638" 
d="M58 0v508h-47v115h47v77h180v-77h162v77h180v-77h47v-115h-47v-508h-180v261h-162v-261h-180zM238 424h162v84h-162v-84z" />
    <glyph glyph-name="hbar" unicode="&#x127;" horiz-adv-x="512" 
d="M350 583h-129v-122q37 63 111 63q145 0 145 -205v-319h-172v290q0 42 -7.5 59.5t-30.5 17.5q-25 0 -35.5 -20.5t-10.5 -61.5v-285h-172v583h-42v97h42v60h172v-60h129v-97z" />
    <glyph glyph-name="Itilde" unicode="&#x128;" horiz-adv-x="268" 
d="M44 0v700h180v-700h-180zM324 920q-1 -73 -31.5 -112t-86.5 -39q-25 0 -44.5 7.5t-54.5 29.5q-20 13 -31 13q-16 0 -21.5 -12t-6.5 -38l-104 11q1 73 31.5 112t86.5 39q25 0 44 -7t54 -30q20 -13 32 -13q17 0 22 12t6 38z" />
    <glyph glyph-name="itilde" unicode="&#x129;" horiz-adv-x="250" 
d="M39 0v523h172v-523h-172zM-51 601q0 73 28.5 114.5t77.5 41.5q41 0 87 -38q12 -10 19.5 -14.5t14.5 -4.5q15 0 20 13.5t6 43.5l99 -12q0 -73 -28 -114.5t-78 -41.5q-41 0 -87 38q-12 10 -19 14.5t-15 4.5q-15 0 -20 -13.5t-6 -43.5z" />
    <glyph glyph-name="Imacron" unicode="&#x12a;" horiz-adv-x="268" 
d="M44 0v700h180v-700h-180zM-54 897h376v-117h-376v117z" />
    <glyph glyph-name="imacron" unicode="&#x12b;" horiz-adv-x="250" 
d="M39 0v523h172v-523h-172zM-49 731h348v-115h-348v115z" />
    <glyph glyph-name="Iogonek" unicode="&#x12e;" horiz-adv-x="268" 
d="M44 0v700h180v-700h-180zM120 -100q0 -32 42 -32q24 0 43 10l19 -91q-36 -16 -86 -16q-59 0 -93 25t-34 70q0 48 41 90.5t115 70.5l57 -27q-104 -44 -104 -100z" />
    <glyph glyph-name="iogonek" unicode="&#x12f;" horiz-adv-x="250" 
d="M125 568q-46 0 -74 28.5t-28 71.5q0 44 28 72t74 28q47 0 74.5 -28t27.5 -72q0 -43 -27.5 -71.5t-74.5 -28.5zM39 0v523h172v-523h-172zM6 -135q0 48 39 90.5t110 70.5l56 -26q-98 -44 -98 -101q0 -33 40 -33q22 0 39 10l19 -89q-35 -16 -82 -16q-59 0 -91 25.5t-32 68.5
z" />
    <glyph glyph-name="Idotaccent" unicode="&#x130;" horiz-adv-x="268" 
d="M44 0v700h180v-700h-180zM134 761q-38 0 -62 25t-24 63t24 63t62 25t62 -25t24 -63t-24 -63t-62 -25z" />
    <glyph glyph-name="dotlessi" unicode="&#x131;" horiz-adv-x="250" 
d="M39 0v523h172v-523h-172z" />
    <glyph glyph-name="IJ" unicode="&#x132;" horiz-adv-x="553" 
d="M224 265h-180v435h180v-435zM49 33l34 152q59 -42 123 -42q49 0 76.5 18.5t39 61.5t11.5 115v362h180v-375q0 -175 -71 -258t-222 -83q-49 0 -95.5 13.5t-75.5 35.5z" />
    <glyph glyph-name="ij" unicode="&#x133;" horiz-adv-x="498" 
d="M121 568q-46 0 -74 28.5t-28 71.5q0 44 28 72t74 28q47 0 74.5 -28t27.5 -72q0 -43 -27.5 -71.5t-74.5 -28.5zM373 568q-46 0 -74 28.5t-28 71.5q0 44 28 72t74 28q47 0 74.5 -28t27.5 -72q0 -43 -27.5 -71.5t-74.5 -28.5zM459 32q0 -133 -62.5 -197t-193.5 -64
q-46 0 -90 12.5t-73 31.5l31 143q25 -16 56.5 -26.5t65.5 -10.5q52 0 73 21.5t21 72.5v47q-36 -62 -109 -62q-143 0 -143 205v318h172v-289q0 -42 7.5 -59.5t28.5 -17.5q24 0 34 20.5t10 61.5v284h172v-491z" />
    <glyph glyph-name="uni0136" unicode="&#x136;" horiz-adv-x="618" 
d="M44 0v700h180v-260l160 260h200l-176 -256l202 -444h-204l-114 277l-68 -99v-178h-180zM234 -258q64 17 93 53q-11 -2 -21 -2q-30 0 -49 19.5t-19 50.5q0 32 22.5 52t57.5 20q41 0 62 -22.5t21 -63.5q0 -52 -34.5 -92t-99.5 -60z" />
    <glyph glyph-name="uni0137" unicode="&#x137;" horiz-adv-x="531" 
d="M39 0v740h172v-382l113 165h195l-135 -169l142 -354h-184l-75 209l-56 -70v-139h-172zM190 -259q66 18 95 57q-12 -3 -23 -3q-30 0 -49 19t-19 50t22.5 51t56.5 20q40 0 61 -22.5t21 -63.5q0 -52 -34 -92t-99 -60z" />
    <glyph glyph-name="Lacute" unicode="&#x139;" horiz-adv-x="481" 
d="M44 0v700h180v-539h253l-19 -161h-414zM206 772h-183l126 132h207z" />
    <glyph glyph-name="lacute" unicode="&#x13a;" horiz-adv-x="250" 
d="M39 0v740h172v-740h-172zM197 817h-183l126 132h207z" />
    <glyph glyph-name="uni013B" unicode="&#x13b;" horiz-adv-x="481" 
d="M44 0v700h180v-539h253l-19 -161h-414zM183 -258q64 17 93 53q-11 -2 -21 -2q-30 0 -49 19.5t-19 50.5q0 32 22.5 52t57.5 20q41 0 62 -22.5t21 -63.5q0 -52 -34.5 -92t-99.5 -60z" />
    <glyph glyph-name="uni013C" unicode="&#x13c;" horiz-adv-x="250" 
d="M39 0v740h172v-740h-172zM40 -259q66 18 95 57q-12 -3 -23 -3q-30 0 -49 19t-19 50t22.5 51t56.5 20q40 0 61 -22.5t21 -63.5q0 -52 -34 -92t-99 -60z" />
    <glyph glyph-name="Lcaron" unicode="&#x13d;" horiz-adv-x="481" 
d="M44 0v700h180v-539h253l-19 -161h-414zM455 700q-4 -67 -11 -119t-18 -100h-133q5 52 7 104.5t3 114.5h152z" />
    <glyph glyph-name="lcaron" unicode="&#x13e;" horiz-adv-x="444" 
d="M39 0v740h172v-740h-172zM429 740q-4 -67 -11 -119t-18 -100h-133q5 52 7 104.5t3 114.5h152z" />
    <glyph glyph-name="Ldot" unicode="&#x13f;" horiz-adv-x="481" 
d="M44 0v700h180v-539h253l-19 -161h-414zM374 329q-45 0 -73 29.5t-28 73.5q0 46 28 75t73 29t73 -29t28 -75q0 -44 -28 -73.5t-73 -29.5z" />
    <glyph glyph-name="ldot" unicode="&#x140;" horiz-adv-x="452" 
d="M39 0v740h172v-740h-172zM351 264q-45 0 -73 29.5t-28 73.5q0 46 28 75t73 29t73 -29t28 -75q0 -44 -28 -73.5t-73 -29.5z" />
    <glyph glyph-name="Lslash" unicode="&#x141;" horiz-adv-x="495" 
d="M58 0v228l-47 -27v149l47 27v323h180v-220l114 65v-149l-114 -65v-170h253l-19 -161h-414z" />
    <glyph glyph-name="lslash" unicode="&#x142;" horiz-adv-x="270" 
d="M49 0v300l-43 -18v113l43 18v327h172v-257l43 17v-113l-43 -17v-370h-172z" />
    <glyph glyph-name="Nacute" unicode="&#x143;" horiz-adv-x="608" 
d="M44 0v700h186l167 -398v398h167v-700h-182l-171 401v-401h-167zM385 772h-183l126 132h207z" />
    <glyph glyph-name="nacute" unicode="&#x144;" horiz-adv-x="502" 
d="M467 331v-331h-172v302q0 42 -7.5 59.5t-30.5 17.5q-25 0 -35.5 -20.5t-10.5 -61.5v-297h-172v523h150l6 -78q16 44 49 67.5t78 23.5q145 0 145 -205zM316 594h-153l110 158h190z" />
    <glyph glyph-name="uni0145" unicode="&#x145;" horiz-adv-x="608" 
d="M44 0v700h186l167 -398v398h167v-700h-182l-171 401v-401h-167zM227 -258q64 17 93 53q-11 -2 -21 -2q-30 0 -49 19.5t-19 50.5q0 32 22.5 52t57.5 20q41 0 62 -22.5t21 -63.5q0 -52 -34.5 -92t-99.5 -60z" />
    <glyph glyph-name="uni0146" unicode="&#x146;" horiz-adv-x="502" 
d="M467 331v-331h-172v302q0 42 -7.5 59.5t-30.5 17.5q-25 0 -35.5 -20.5t-10.5 -61.5v-297h-172v523h150l6 -78q16 44 49 67.5t78 23.5q145 0 145 -205zM168 -259q66 18 95 57q-12 -3 -23 -3q-30 0 -49 19t-19 50t22.5 51t56.5 20q40 0 61 -22.5t21 -63.5q0 -52 -34 -92
t-99 -60z" />
    <glyph glyph-name="Ncaron" unicode="&#x147;" horiz-adv-x="608" 
d="M44 0v700h186l167 -398v398h167v-700h-182l-171 401v-401h-167zM370 904h148l-127 -132h-156l-127 132h150l56 -49z" />
    <glyph glyph-name="ncaron" unicode="&#x148;" horiz-adv-x="502" 
d="M467 331v-331h-172v302q0 42 -7.5 59.5t-30.5 17.5q-25 0 -35.5 -20.5t-10.5 -61.5v-297h-172v523h150l6 -78q16 44 49 67.5t78 23.5q145 0 145 -205zM313 752h139l-117 -158h-144l-117 158h141l49 -60z" />
    <glyph glyph-name="Eng" unicode="&#x14a;" horiz-adv-x="607" 
d="M241 -202l24 149q17 -10 30 -13.5t31 -3.5q33 0 46.5 23t13.5 81v382q0 74 -14.5 104.5t-58.5 30.5q-48 0 -68.5 -35.5t-20.5 -108.5v-407h-180v700h157l6 -84q24 49 66.5 74.5t96.5 25.5q196 0 196 -274v-426q0 -124 -50 -184.5t-153 -60.5q-34 0 -64 6.5t-58 20.5z" />
    <glyph glyph-name="eng" unicode="&#x14b;" horiz-adv-x="502" 
d="M467 -10q0 -111 -46.5 -165t-142.5 -54q-32 0 -60 5.5t-54 18.5l23 140q26 -13 54 -13q31 0 42.5 19t11.5 65v296q0 42 -7.5 59.5t-30.5 17.5q-25 0 -35.5 -20.5t-10.5 -61.5v-297h-172v523h150l6 -78q16 44 49 67.5t78 23.5q145 0 145 -205v-341z" />
    <glyph glyph-name="Omacron" unicode="&#x14c;" horiz-adv-x="660" 
d="M330 -16q-91 0 -159.5 45.5t-106 128t-37.5 192.5t37.5 192.5t106 128t159.5 45.5q92 0 160 -45.5t105.5 -128t37.5 -192.5t-37.5 -192.5t-105.5 -128t-160 -45.5zM330 145q56 0 86 54t30 151q0 95 -30 150t-86 55t-86 -55t-30 -150q0 -97 30 -151t86 -54zM142 897h376
v-117h-376v117z" />
    <glyph glyph-name="omacron" unicode="&#x14d;" horiz-adv-x="512" 
d="M256 -13q-70 0 -122 34t-80.5 96t-28.5 145t28.5 144.5t80.5 95.5t122 34t122 -34t80.5 -95.5t28.5 -144.5t-28.5 -145t-80.5 -96t-122 -34zM256 139q30 0 43.5 32t13.5 91t-13.5 90.5t-43.5 31.5t-43.5 -31.5t-13.5 -90.5t13.5 -91t43.5 -32zM82 731h348v-115h-348v115z
" />
    <glyph glyph-name="Ohungarumlaut" unicode="&#x150;" horiz-adv-x="660" 
d="M330 -16q-91 0 -159.5 45.5t-106 128t-37.5 192.5t37.5 192.5t106 128t159.5 45.5q92 0 160 -45.5t105.5 -128t37.5 -192.5t-37.5 -192.5t-105.5 -128t-160 -45.5zM330 145q56 0 86 54t30 151q0 95 -30 150t-86 55t-86 -55t-30 -150q0 -97 30 -151t86 -54zM310 772h-167
l127 132h193zM553 772h-167l126 132h192z" />
    <glyph glyph-name="ohungarumlaut" unicode="&#x151;" horiz-adv-x="512" 
d="M256 -13q-70 0 -122 34t-80.5 96t-28.5 145t28.5 144.5t80.5 95.5t122 34t122 -34t80.5 -95.5t28.5 -144.5t-28.5 -145t-80.5 -96t-122 -34zM256 139q30 0 43.5 32t13.5 91t-13.5 90.5t-43.5 31.5t-43.5 -31.5t-13.5 -90.5t13.5 -91t43.5 -32zM225 594h-141l110 158h178z
M453 594h-141l110 158h178z" />
    <glyph glyph-name="OE" unicode="&#x152;" horiz-adv-x="850" 
d="M339 -16q-98 0 -168 44t-107 126t-37 196q0 112 38 194t108 127t166 45q28 0 56.5 -4t53.5 -12h354l18 -151h-245v-118h218v-151h-218v-129h261l-18 -151h-370q-53 -16 -110 -16zM214 350q0 -98 35.5 -151.5t100.5 -53.5q30 0 55 11v388q-21 11 -55 11
q-65 0 -100.5 -53.5t-35.5 -151.5z" />
    <glyph glyph-name="oe" unicode="&#x153;" horiz-adv-x="751" 
d="M708 27q-68 -40 -163 -40q-100 0 -161 67q-27 -32 -63 -49.5t-78 -17.5q-66 0 -115 34t-76 96t-27 145t27 144.5t76 95.5t115 34q84 0 140 -63q55 63 143 63q96 0 149.5 -70.5t53.5 -201.5q0 -14 -1 -26.5t-3 -24.5h-255q15 -84 99 -84q32 0 58 7.5t55 26.5zM524 408
q-25 0 -38 -22t-16 -70h104q-2 51 -14 71.5t-36 20.5zM253 139q29 0 41.5 32t12.5 91t-12.5 90.5t-41.5 31.5q-28 0 -41 -31.5t-13 -90.5t13 -91t41 -32z" />
    <glyph glyph-name="Racute" unicode="&#x154;" horiz-adv-x="557" 
d="M360 0l-95 235h-48v-235h-173v700h230q107 0 169 -62.5t62 -169.5q0 -62 -23.5 -110t-66.5 -76l124 -282h-179zM260 557h-43v-179h43q32 0 48 23.5t16 66.5q0 42 -16 65.5t-48 23.5zM339 772h-183l126 132h207z" />
    <glyph glyph-name="racute" unicode="&#x155;" horiz-adv-x="362" 
d="M211 226v-226h-172v523h150l7 -94q26 104 113 104q28 0 47 -9l-8 -169q-22 11 -46 11q-91 0 -91 -140zM261 594h-153l110 158h190z" />
    <glyph glyph-name="uni0156" unicode="&#x156;" horiz-adv-x="557" 
d="M360 0l-95 235h-48v-235h-173v700h230q107 0 169 -62.5t62 -169.5q0 -62 -23.5 -110t-66.5 -76l124 -282h-179zM260 557h-43v-179h43q32 0 48 23.5t16 66.5q0 42 -16 65.5t-48 23.5zM206 -258q64 17 93 53q-11 -2 -21 -2q-30 0 -49 19.5t-19 50.5q0 32 22.5 52t57.5 20
q41 0 62 -22.5t21 -63.5q0 -52 -34.5 -92t-99.5 -60z" />
    <glyph glyph-name="uni0157" unicode="&#x157;" horiz-adv-x="362" 
d="M211 226v-226h-172v523h150l7 -94q26 104 113 104q28 0 47 -9l-8 -169q-22 11 -46 11q-91 0 -91 -140zM40 -259q66 18 95 57q-12 -3 -23 -3q-30 0 -49 19t-19 50t22.5 51t56.5 20q40 0 61 -22.5t21 -63.5q0 -52 -34 -92t-99 -60z" />
    <glyph glyph-name="Rcaron" unicode="&#x158;" horiz-adv-x="557" 
d="M360 0l-95 235h-48v-235h-173v700h230q107 0 169 -62.5t62 -169.5q0 -62 -23.5 -110t-66.5 -76l124 -282h-179zM260 557h-43v-179h43q32 0 48 23.5t16 66.5q0 42 -16 65.5t-48 23.5zM324 904h148l-127 -132h-156l-127 132h150l56 -49z" />
    <glyph glyph-name="rcaron" unicode="&#x159;" horiz-adv-x="362" 
d="M211 226v-226h-172v523h150l7 -94q26 104 113 104q28 0 47 -9l-8 -169q-22 11 -46 11q-91 0 -91 -140zM258 752h139l-117 -158h-144l-117 158h141l49 -60z" />
    <glyph glyph-name="Sacute" unicode="&#x15a;" horiz-adv-x="503" 
d="M478 207q0 -68 -31 -118.5t-86.5 -77.5t-131.5 -27q-64 0 -113.5 13t-101.5 45l34 150q44 -31 82 -44t85 -13q38 0 62 15t24 46q0 28 -19 46.5t-72 34.5q-91 28 -135.5 81t-44.5 136q0 67 30 117t85 77.5t130 27.5q111 0 190 -54l-33 -148q-40 28 -71 39.5t-72 11.5
q-38 0 -61.5 -15.5t-23.5 -44.5q0 -27 19 -46t72 -35q92 -28 137.5 -81t45.5 -136zM341 772h-183l126 132h207z" />
    <glyph glyph-name="sacute" unicode="&#x15b;" horiz-adv-x="422" 
d="M194 -13q-53 0 -94.5 10t-85.5 35l31 133q35 -22 65.5 -31.5t67.5 -9.5q23 0 37.5 8.5t14.5 24.5q0 14 -12 23.5t-45 19.5q-73 21 -109.5 60t-36.5 100q0 81 56 128.5t153 47.5q92 0 157 -40l-30 -133q-32 20 -57.5 28t-59.5 8q-23 0 -37.5 -8t-14.5 -24q0 -13 12 -22.5
t45 -19.5q76 -22 113 -61t37 -100q0 -81 -56 -129t-151 -48zM271 594h-153l110 158h190z" />
    <glyph glyph-name="Scedilla" unicode="&#x15e;" horiz-adv-x="503" 
d="M478 207q0 -68 -31 -118.5t-86.5 -77.5t-131.5 -27q-64 0 -113.5 13t-101.5 45l34 150q44 -31 82 -44t85 -13q38 0 62 15t24 46q0 28 -19 46.5t-72 34.5q-91 28 -135.5 81t-44.5 136q0 67 30 117t85 77.5t130 27.5q111 0 190 -54l-33 -148q-40 28 -71 39.5t-72 11.5
q-38 0 -61.5 -15.5t-23.5 -44.5q0 -27 19 -46t72 -35q92 -28 137.5 -81t45.5 -136zM245 -229q-29 0 -50.5 4t-40.5 11l20 79q22 -11 55 -11q52 0 52 24q0 21 -46 21q-9 0 -21.5 -1.5t-20.5 -3.5l25 121h85l-14 -53q45 0 71 -23.5t26 -66.5q0 -47 -38 -74t-103 -27z" />
    <glyph glyph-name="scedilla" unicode="&#x15f;" horiz-adv-x="422" 
d="M194 -13q-53 0 -94.5 10t-85.5 35l31 133q35 -22 65.5 -31.5t67.5 -9.5q23 0 37.5 8.5t14.5 24.5q0 14 -12 23.5t-45 19.5q-73 21 -109.5 60t-36.5 100q0 81 56 128.5t153 47.5q92 0 157 -40l-30 -133q-32 20 -57.5 28t-59.5 8q-23 0 -37.5 -8t-14.5 -24q0 -13 12 -22.5
t45 -19.5q76 -22 113 -61t37 -100q0 -81 -56 -129t-151 -48zM119 -214l20 77q21 -11 51 -11q48 0 48 26q0 22 -42 22q-9 0 -21 -1.5t-20 -3.5l25 120h83l-14 -54h1q44 0 68.5 -23.5t24.5 -65.5q0 -47 -36.5 -74t-100.5 -27q-28 0 -48.5 4t-38.5 11z" />
    <glyph glyph-name="Scaron" unicode="&#x160;" horiz-adv-x="503" 
d="M478 207q0 -68 -31 -118.5t-86.5 -77.5t-131.5 -27q-64 0 -113.5 13t-101.5 45l34 150q44 -31 82 -44t85 -13q38 0 62 15t24 46q0 28 -19 46.5t-72 34.5q-91 28 -135.5 81t-44.5 136q0 67 30 117t85 77.5t130 27.5q111 0 190 -54l-33 -148q-40 28 -71 39.5t-72 11.5
q-38 0 -61.5 -15.5t-23.5 -44.5q0 -27 19 -46t72 -35q92 -28 137.5 -81t45.5 -136zM326 904h148l-127 -132h-156l-127 132h150l56 -49z" />
    <glyph glyph-name="scaron" unicode="&#x161;" horiz-adv-x="422" 
d="M194 -13q-53 0 -94.5 10t-85.5 35l31 133q35 -22 65.5 -31.5t67.5 -9.5q23 0 37.5 8.5t14.5 24.5q0 14 -12 23.5t-45 19.5q-73 21 -109.5 60t-36.5 100q0 81 56 128.5t153 47.5q92 0 157 -40l-30 -133q-32 20 -57.5 28t-59.5 8q-23 0 -37.5 -8t-14.5 -24q0 -13 12 -22.5
t45 -19.5q76 -22 113 -61t37 -100q0 -81 -56 -129t-151 -48zM268 752h139l-117 -158h-144l-117 158h141l49 -60z" />
    <glyph glyph-name="uni0162" unicode="&#x162;" horiz-adv-x="538" 
d="M179 0v539h-168v161h516v-161h-168v-539h-180zM257 -229q-29 0 -50.5 4t-40.5 11l20 79q22 -11 55 -11q52 0 52 24q0 21 -46 21q-9 0 -21.5 -1.5t-20.5 -3.5l25 121h85l-14 -53q45 0 71 -23.5t26 -66.5q0 -47 -38 -74t-103 -27z" />
    <glyph glyph-name="uni0163" unicode="&#x163;" horiz-adv-x="390" 
d="M377 14q-24 -12 -52 -18t-56 -6q-93 0 -136.5 50.5t-43.5 159.5v179h-83l17 144h66v167h172v-167h105v-144h-105v-156q0 -45 11 -63.5t39 -18.5q14 0 24.5 3t25.5 13zM145 -214l20 77q21 -11 51 -11q48 0 48 26q0 22 -42 22q-9 0 -21 -1.5t-20 -3.5l25 120h83l-14 -54h1
q44 0 68.5 -23.5t24.5 -65.5q0 -47 -36.5 -74t-100.5 -27q-28 0 -48.5 4t-38.5 11z" />
    <glyph glyph-name="Tcaron" unicode="&#x164;" horiz-adv-x="538" 
d="M179 0v539h-168v161h516v-161h-168v-539h-180zM326 904h148l-127 -132h-156l-127 132h150l56 -49z" />
    <glyph glyph-name="tcaron" unicode="&#x165;" horiz-adv-x="390" 
d="M377 14q-24 -12 -52 -18t-56 -6q-93 0 -136.5 50.5t-43.5 159.5v179h-83l17 144h66v167h172v-167h105v-144h-105v-156q0 -45 11 -63.5t39 -18.5q14 0 24.5 3t25.5 13zM439 566h-133q5 42 7 83t3 91h152q-4 -54 -11 -95t-18 -79z" />
    <glyph glyph-name="Tbar" unicode="&#x166;" horiz-adv-x="538" 
d="M179 0v240h-85v128h85v171h-168v161h516v-161h-168v-171h85v-128h-85v-240h-180z" />
    <glyph glyph-name="tbar" unicode="&#x167;" horiz-adv-x="390" 
d="M15 221v97h74v61h-83l17 144h66v167h172v-167h105v-144h-105v-61h105v-97h-105q0 -44 11.5 -62t38.5 -18q14 0 24.5 3t25.5 13l16 -143q-24 -12 -52 -18t-56 -6q-93 0 -136.5 50.5t-43.5 159.5v21h-74z" />
    <glyph glyph-name="Utilde" unicode="&#x168;" horiz-adv-x="593" 
d="M40 268v432h180v-417q0 -72 17.5 -105t60.5 -33t61 33t18 105v417h176v-432q0 -138 -66 -211t-194 -73q-125 0 -189 72.5t-64 211.5zM487 920q-1 -73 -31.5 -112t-86.5 -39q-25 0 -44.5 7.5t-54.5 29.5q-20 13 -31 13q-16 0 -21.5 -12t-6.5 -38l-104 11q1 73 31.5 112
t86.5 39q25 0 44 -7t54 -30q20 -13 32 -13q17 0 22 12t6 38z" />
    <glyph glyph-name="utilde" unicode="&#x169;" horiz-adv-x="498" 
d="M309 0l-6 78q-16 -44 -48.5 -67.5t-76.5 -23.5q-143 0 -143 205v331h172v-302q0 -42 7.5 -59.5t28.5 -17.5q24 0 34 20.5t10 61.5v297h172v-523h-150zM71 601q0 73 28.5 114.5t77.5 41.5q41 0 87 -38q12 -10 19.5 -14.5t14.5 -4.5q15 0 20 13.5t6 43.5l99 -12
q0 -73 -28 -114.5t-78 -41.5q-41 0 -87 38q-12 10 -19 14.5t-15 4.5q-15 0 -20 -13.5t-6 -43.5z" />
    <glyph glyph-name="Umacron" unicode="&#x16a;" horiz-adv-x="593" 
d="M40 268v432h180v-417q0 -72 17.5 -105t60.5 -33t61 33t18 105v417h176v-432q0 -138 -66 -211t-194 -73q-125 0 -189 72.5t-64 211.5zM109 897h376v-117h-376v117z" />
    <glyph glyph-name="umacron" unicode="&#x16b;" horiz-adv-x="498" 
d="M309 0l-6 78q-16 -44 -48.5 -67.5t-76.5 -23.5q-143 0 -143 205v331h172v-302q0 -42 7.5 -59.5t28.5 -17.5q24 0 34 20.5t10 61.5v297h172v-523h-150zM73 731h348v-115h-348v115z" />
    <glyph glyph-name="Uring" unicode="&#x16e;" horiz-adv-x="593" 
d="M40 268v432h180v-417q0 -72 17.5 -105t60.5 -33t61 33t18 105v417h176v-432q0 -138 -66 -211t-194 -73q-125 0 -189 72.5t-64 211.5zM297 982q53 0 87 -30.5t34 -79.5q0 -47 -34 -78t-87 -31t-87 31t-34 78q0 49 34 79.5t87 30.5zM297 826q23 0 36 13t13 33
q0 22 -13 34.5t-36 12.5t-36 -12.5t-13 -34.5q0 -20 13 -33t36 -13z" />
    <glyph glyph-name="uring" unicode="&#x16f;" horiz-adv-x="498" 
d="M309 0l-6 78q-16 -44 -48.5 -67.5t-76.5 -23.5q-143 0 -143 205v331h172v-302q0 -42 7.5 -59.5t28.5 -17.5q24 0 34 20.5t10 61.5v297h172v-523h-150zM247 800q52 0 85 -30.5t33 -78.5q0 -49 -33 -79.5t-85 -30.5t-85.5 30.5t-33.5 79.5q0 48 33.5 78.5t85.5 30.5z
M247 642q23 0 35.5 13.5t12.5 35.5q0 23 -12.5 35.5t-35.5 12.5q-49 0 -49 -48q0 -22 13 -35.5t36 -13.5z" />
    <glyph glyph-name="Uhungarumlaut" unicode="&#x170;" horiz-adv-x="593" 
d="M40 268v432h180v-417q0 -72 17.5 -105t60.5 -33t61 33t18 105v417h176v-432q0 -138 -66 -211t-194 -73q-125 0 -189 72.5t-64 211.5zM277 772h-167l127 132h193zM520 772h-167l126 132h192z" />
    <glyph glyph-name="uhungarumlaut" unicode="&#x171;" horiz-adv-x="498" 
d="M309 0l-6 78q-16 -44 -48.5 -67.5t-76.5 -23.5q-143 0 -143 205v331h172v-302q0 -42 7.5 -59.5t28.5 -17.5q24 0 34 20.5t10 61.5v297h172v-523h-150zM216 594h-141l110 158h178zM444 594h-141l110 158h178z" />
    <glyph glyph-name="Uogonek" unicode="&#x172;" horiz-adv-x="593" 
d="M40 268v432h180v-417q0 -72 17.5 -105t60.5 -33t61 33t18 105v417h176v-432q0 -138 -66 -211t-194 -73q-125 0 -189 72.5t-64 211.5zM317 -100q0 -32 42 -32q24 0 43 10l19 -91q-36 -16 -86 -16q-59 0 -93 25t-34 70q0 54 46 102t130 79l57 -27q-124 -54 -124 -120z" />
    <glyph glyph-name="uogonek" unicode="&#x173;" horiz-adv-x="498" 
d="M309 0l-6 78q-16 -44 -48.5 -67.5t-76.5 -23.5q-143 0 -143 205v331h172v-302q0 -42 7.5 -59.5t28.5 -17.5q24 0 34 20.5t10 61.5v297h172v-523h-150zM254 -135q0 48 39 90.5t110 70.5l56 -26q-98 -44 -98 -101q0 -33 40 -33q22 0 39 10l19 -89q-35 -16 -82 -16
q-59 0 -91 25.5t-32 68.5z" />
    <glyph glyph-name="Wcircumflex" unicode="&#x174;" horiz-adv-x="837" 
d="M503 0l-85 490l-84 -490h-184l-140 700h192l58 -461l70 461h179l73 -466l59 466h186l-140 -700h-184zM363 772h-148l127 132h156l127 -132h-150l-56 49z" />
    <glyph glyph-name="wcircumflex" unicode="&#x175;" horiz-adv-x="719" 
d="M125 0l-117 523h174l45 -337l49 337h172l50 -333l45 333h168l-117 -523h-176l-59 370l-58 -370h-176zM312 594h-139l117 158h144l117 -158h-141l-49 60z" />
    <glyph glyph-name="Ycircumflex" unicode="&#x176;" horiz-adv-x="614" 
d="M217 0v271l-209 429h210l92 -266l93 266h203l-209 -429v-271h-180zM254 772h-148l127 132h156l127 -132h-150l-56 49z" />
    <glyph glyph-name="ycircumflex" unicode="&#x177;" horiz-adv-x="517" 
d="M35 -208l17 142q26 -13 65 -13q26 0 39 12t24 40l-175 550h186l69 -333l72 333h180l-169 -541q-23 -74 -48.5 -121t-62 -68.5t-94.5 -21.5q-32 0 -54.5 4.5t-48.5 16.5zM208 594h-139l117 158h144l117 -158h-141l-49 60z" />
    <glyph glyph-name="Ydieresis" unicode="&#x178;" horiz-adv-x="614" 
d="M217 0v271l-209 429h210l92 -266l93 266h203l-209 -429v-271h-180zM191 763q-37 0 -60 24t-23 61q0 38 23 61.5t60 23.5q38 0 60.5 -23.5t22.5 -61.5q0 -37 -22.5 -61t-60.5 -24zM431 763q-37 0 -60 24t-23 61q0 38 23 61.5t60 23.5q38 0 60.5 -23.5t22.5 -61.5
q0 -37 -22.5 -61t-60.5 -24z" />
    <glyph glyph-name="Zacute" unicode="&#x179;" horiz-adv-x="543" 
d="M27 0v137l283 411h-274l18 152h454v-137l-282 -411h297l-18 -152h-478zM353 772h-183l126 132h207z" />
    <glyph glyph-name="zacute" unicode="&#x17a;" horiz-adv-x="441" 
d="M26 0v124l196 261h-197l17 138h367v-124l-195 -261h209l-17 -138h-380zM278 594h-153l110 158h190z" />
    <glyph glyph-name="Zdotaccent" unicode="&#x17b;" horiz-adv-x="543" 
d="M27 0v137l283 411h-274l18 152h454v-137l-282 -411h297l-18 -152h-478zM281 761q-38 0 -62 25t-24 63t24 63t62 25t62 -25t24 -63t-24 -63t-62 -25z" />
    <glyph glyph-name="zdotaccent" unicode="&#x17c;" horiz-adv-x="441" 
d="M26 0v124l196 261h-197l17 138h367v-124l-195 -261h209l-17 -138h-380zM225 586q-38 0 -61.5 24.5t-23.5 61.5q0 39 23.5 63.5t61.5 24.5t61.5 -24.5t23.5 -63.5q0 -37 -23.5 -61.5t-61.5 -24.5z" />
    <glyph glyph-name="Zcaron" unicode="&#x17d;" horiz-adv-x="543" 
d="M27 0v137l283 411h-274l18 152h454v-137l-282 -411h297l-18 -152h-478zM338 904h148l-127 -132h-156l-127 132h150l56 -49z" />
    <glyph glyph-name="zcaron" unicode="&#x17e;" horiz-adv-x="441" 
d="M26 0v124l196 261h-197l17 138h367v-124l-195 -261h209l-17 -138h-380zM275 752h139l-117 -158h-144l-117 158h141l49 -60z" />
    <glyph glyph-name="uni0218" unicode="&#x218;" horiz-adv-x="503" 
d="M478 207q0 -68 -31 -118.5t-86.5 -77.5t-131.5 -27q-64 0 -113.5 13t-101.5 45l34 150q44 -31 82 -44t85 -13q38 0 62 15t24 46q0 28 -19 46.5t-72 34.5q-91 28 -135.5 81t-44.5 136q0 67 30 117t85 77.5t130 27.5q111 0 190 -54l-33 -148q-40 28 -71 39.5t-72 11.5
q-38 0 -61.5 -15.5t-23.5 -44.5q0 -27 19 -46t72 -35q92 -28 137.5 -81t45.5 -136zM171 -258q64 17 93 53q-11 -2 -21 -2q-30 0 -49 19.5t-19 50.5q0 32 22.5 52t57.5 20q41 0 62 -22.5t21 -63.5q0 -52 -34.5 -92t-99.5 -60z" />
    <glyph glyph-name="uni0219" unicode="&#x219;" horiz-adv-x="422" 
d="M194 -13q-53 0 -94.5 10t-85.5 35l31 133q35 -22 65.5 -31.5t67.5 -9.5q23 0 37.5 8.5t14.5 24.5q0 14 -12 23.5t-45 19.5q-73 21 -109.5 60t-36.5 100q0 81 56 128.5t153 47.5q92 0 157 -40l-30 -133q-32 20 -57.5 28t-59.5 8q-23 0 -37.5 -8t-14.5 -24q0 -13 12 -22.5
t45 -19.5q76 -22 113 -61t37 -100q0 -81 -56 -129t-151 -48zM133 -259q66 18 95 57q-12 -3 -23 -3q-30 0 -49 19t-19 50t22.5 51t56.5 20q40 0 61 -22.5t21 -63.5q0 -52 -34 -92t-99 -60z" />
    <glyph glyph-name="uni021A" unicode="&#x21a;" horiz-adv-x="538" 
d="M179 0v539h-168v161h516v-161h-168v-539h-180zM183 -258q64 17 93 53q-11 -2 -21 -2q-30 0 -49 19.5t-19 50.5q0 32 22.5 52t57.5 20q41 0 62 -22.5t21 -63.5q0 -52 -34.5 -92t-99.5 -60z" />
    <glyph glyph-name="uni021B" unicode="&#x21b;" horiz-adv-x="390" 
d="M377 14q-24 -12 -52 -18t-56 -6q-93 0 -136.5 50.5t-43.5 159.5v179h-83l17 144h66v167h172v-167h105v-144h-105v-156q0 -45 11 -63.5t39 -18.5q14 0 24.5 3t25.5 13zM159 -259q66 18 95 57q-12 -3 -23 -3q-30 0 -49 19t-19 50t22.5 51t56.5 20q40 0 61 -22.5t21 -63.5
q0 -52 -34 -92t-99 -60z" />
    <glyph glyph-name="uni0237" unicode="&#x237;" horiz-adv-x="250" 
d="M-92 -205l23 140q26 -13 54 -13q31 0 42.5 19t11.5 65v517h172v-533q0 -111 -46.5 -165t-142.5 -54q-32 0 -60 5.5t-54 18.5z" />
    <glyph glyph-name="circumflex" unicode="&#x2c6;" horiz-adv-x="380" 
d="M140 594h-139l117 158h144l117 -158h-141l-49 60z" />
    <glyph glyph-name="caron" unicode="&#x2c7;" horiz-adv-x="380" 
d="M240 752h139l-117 -158h-144l-117 158h141l49 -60z" />
    <glyph glyph-name="breve" unicode="&#x2d8;" horiz-adv-x="380" 
d="M190 681q49 0 52 71l102 -11q0 -71 -41 -111.5t-113 -40.5t-113 40.5t-41 111.5l102 11q3 -71 52 -71z" />
    <glyph glyph-name="dotaccent" unicode="&#x2d9;" horiz-adv-x="380" 
d="M190 586q-38 0 -61.5 24.5t-23.5 61.5q0 39 23.5 63.5t61.5 24.5t61.5 -24.5t23.5 -63.5q0 -37 -23.5 -61.5t-61.5 -24.5z" />
    <glyph glyph-name="ring" unicode="&#x2da;" horiz-adv-x="380" 
d="M190 800q52 0 85 -30.5t33 -78.5q0 -49 -33 -79.5t-85 -30.5t-85.5 30.5t-33.5 79.5q0 48 33.5 78.5t85.5 30.5zM190 642q23 0 35.5 13.5t12.5 35.5q0 23 -12.5 35.5t-35.5 12.5q-49 0 -49 -48q0 -22 13 -35.5t36 -13.5z" />
    <glyph glyph-name="ogonek" unicode="&#x2db;" horiz-adv-x="380" 
d="M40 -135q0 48 39 90.5t110 70.5l56 -26q-98 -44 -98 -101q0 -33 40 -33q22 0 39 10l19 -89q-35 -16 -82 -16q-59 0 -91 25.5t-32 68.5z" />
    <glyph glyph-name="tilde" unicode="&#x2dc;" horiz-adv-x="380" 
d="M14 601q0 73 28.5 114.5t77.5 41.5q41 0 87 -38q12 -10 19.5 -14.5t14.5 -4.5q15 0 20 13.5t6 43.5l99 -12q0 -73 -28 -114.5t-78 -41.5q-41 0 -87 38q-12 10 -19 14.5t-15 4.5q-15 0 -20 -13.5t-6 -43.5z" />
    <glyph glyph-name="hungarumlaut" unicode="&#x2dd;" horiz-adv-x="380" 
d="M159 594h-141l110 158h178zM387 594h-141l110 158h178z" />
    <glyph glyph-name="gravecomb" unicode="&#x300;" 
d="M-53 594l-147 158h190l110 -158h-153z" />
    <glyph glyph-name="acutecomb" unicode="&#x301;" 
d="M53 594h-153l110 158h190z" />
    <glyph glyph-name="uni0302" unicode="&#x302;" 
d="M-50 594h-139l117 158h144l117 -158h-141l-49 60z" />
    <glyph glyph-name="tildecomb" unicode="&#x303;" 
d="M-176 601q0 73 28.5 114.5t77.5 41.5q41 0 87 -38q12 -10 19.5 -14.5t14.5 -4.5q15 0 20 13.5t6 43.5l99 -12q0 -73 -28 -114.5t-78 -41.5q-41 0 -87 38q-12 10 -19 14.5t-15 4.5q-15 0 -20 -13.5t-6 -43.5z" />
    <glyph glyph-name="uni0304" unicode="&#x304;" 
d="M-174 731h348v-115h-348v115z" />
    <glyph glyph-name="uni0306" unicode="&#x306;" 
d="M0 681q49 0 52 71l102 -11q0 -71 -41 -111.5t-113 -40.5t-113 40.5t-41 111.5l102 11q3 -71 52 -71z" />
    <glyph glyph-name="uni0307" unicode="&#x307;" 
d="M0 586q-38 0 -61.5 24.5t-23.5 61.5q0 39 23.5 63.5t61.5 24.5t61.5 -24.5t23.5 -63.5q0 -37 -23.5 -61.5t-61.5 -24.5z" />
    <glyph glyph-name="uni0308" unicode="&#x308;" 
d="M-114 589q-37 0 -59.5 24t-22.5 60q0 37 22.5 60.5t59.5 23.5t59.5 -23.5t22.5 -60.5q0 -36 -22.5 -60t-59.5 -24zM114 589q-37 0 -59.5 24t-22.5 60q0 37 22.5 60.5t59.5 23.5t59.5 -23.5t22.5 -60.5q0 -36 -22.5 -60t-59.5 -24z" />
    <glyph glyph-name="uni030A" unicode="&#x30a;" 
d="M0 800q52 0 85 -30.5t33 -78.5q0 -49 -33 -79.5t-85 -30.5t-85.5 30.5t-33.5 79.5q0 48 33.5 78.5t85.5 30.5zM0 642q23 0 35.5 13.5t12.5 35.5q0 23 -12.5 35.5t-35.5 12.5q-49 0 -49 -48q0 -22 13 -35.5t36 -13.5z" />
    <glyph glyph-name="uni030B" unicode="&#x30b;" 
d="M-31 594h-141l110 158h178zM197 594h-141l110 158h178z" />
    <glyph glyph-name="uni030C" unicode="&#x30c;" 
d="M50 752h139l-117 -158h-144l-117 158h141l49 -60z" />
    <glyph glyph-name="uni0312" unicode="&#x312;" 
d="M85 793q-66 -18 -95 -57q12 3 23 3q30 0 49 -19t19 -50t-22 -51t-57 -20q-40 0 -61 23t-21 63q0 53 34.5 92.5t98.5 59.5z" />
    <glyph glyph-name="uni0315" unicode="&#x315;" 
d="M76 740q-4 -67 -11 -119t-18 -100h-133q5 52 7 104.5t3 114.5h152z" />
    <glyph glyph-name="dotbelowcomb" unicode="&#x323;" 
d="M0 -239q-38 0 -61.5 24.5t-23.5 61.5q0 39 23.5 63.5t61.5 24.5t61.5 -24.5t23.5 -63.5q0 -37 -23.5 -61.5t-61.5 -24.5z" />
    <glyph glyph-name="uni0326" unicode="&#x326;" 
d="M-85 -259q66 18 95 57q-12 -3 -23 -3q-30 0 -49 19t-19 50t22.5 51t56.5 20q40 0 61 -22.5t21 -63.5q0 -52 -34 -92t-99 -60z" />
    <glyph glyph-name="uni0327" unicode="&#x327;" 
d="M-99 -214l20 77q21 -11 51 -11q48 0 48 26q0 22 -42 22q-9 0 -21 -1.5t-20 -3.5l25 120h83l-14 -54h1q44 0 68.5 -23.5t24.5 -65.5q0 -47 -36.5 -74t-100.5 -27q-28 0 -48.5 4t-38.5 11z" />
    <glyph glyph-name="uni0328" unicode="&#x328;" 
d="M-150 -135q0 48 39 90.5t110 70.5l56 -26q-98 -44 -98 -101q0 -33 40 -33q22 0 39 10l19 -89q-35 -16 -82 -16q-59 0 -91 25.5t-32 68.5z" />
    <glyph glyph-name="uni0344" unicode="&#x344;" 
d="M-72 599l41 215h169l-88 -215h-122zM-173 589q-37 0 -59.5 24t-22.5 60q0 37 22.5 60.5t59.5 23.5t59.5 -23.5t22.5 -60.5q0 -36 -22.5 -60t-59.5 -24zM201 589q-37 0 -59.5 24t-22.5 60q0 37 22.5 60.5t59.5 23.5t59.5 -23.5t22.5 -60.5q0 -36 -22.5 -60t-59.5 -24z" />
    <glyph glyph-name="uni0374" unicode="&#x374;" horiz-adv-x="273" 
d="M21 447l50 293h202l-85 -293h-167z" />
    <glyph glyph-name="uni0375" unicode="&#x375;" horiz-adv-x="273" 
d="M0 -104l85 293h167l-50 -293h-202z" />
    <glyph glyph-name="uni037E" unicode="&#x37e;" horiz-adv-x="258" 
d="M21 -120q40 14 69.5 42.5t43.5 65.5h-7q-43 0 -72 28t-29 73q0 47 28 76.5t72 29.5q50 0 78 -35.5t28 -97.5q0 -55 -20.5 -104.5t-57.5 -87t-87 -56.5zM129 328q-45 0 -73 29.5t-28 73.5q0 46 28 75t73 29t73 -29t28 -75q0 -44 -28 -73.5t-73 -29.5z" />
    <glyph glyph-name="tonos" unicode="&#x384;" horiz-adv-x="380" 
d="M77 599l51 215h175l-98 -215h-128z" />
    <glyph glyph-name="dieresistonos" unicode="&#x385;" horiz-adv-x="380" 
d="M104 599l41 215h169l-88 -215h-122zM3 589q-37 0 -59.5 24t-22.5 60q0 37 22.5 60.5t59.5 23.5t59.5 -23.5t22.5 -60.5q0 -36 -22.5 -60t-59.5 -24zM377 589q-37 0 -59.5 24t-22.5 60q0 37 22.5 60.5t59.5 23.5t59.5 -23.5t22.5 -60.5q0 -36 -22.5 -60t-59.5 -24z" />
    <glyph glyph-name="Alphatonos" unicode="&#x386;" horiz-adv-x="732" 
d="M528 0l-29 130h-165l-30 -130h-191l214 700h184l214 -700h-197zM368 281h97l-48 211zM20 448l36 252h187l-74 -252h-149z" />
    <glyph glyph-name="anoteleia" unicode="&#x387;" horiz-adv-x="258" 
d="M129 328q-45 0 -73 29.5t-28 73.5q0 46 28 75t73 29t73 -29t28 -75q0 -44 -28 -73.5t-73 -29.5z" />
    <glyph glyph-name="Epsilontonos" unicode="&#x388;" horiz-adv-x="756" 
d="M297 0v700h412l18 -151h-255v-118h228v-151h-228v-129h271l-18 -151h-428zM20 448l36 252h187l-74 -252h-149z" />
    <glyph glyph-name="Etatonos" unicode="&#x389;" horiz-adv-x="863" 
d="M297 0v700h180v-264h162v264h180v-700h-180v273h-162v-273h-180zM20 448l36 252h187l-74 -252h-149z" />
    <glyph glyph-name="Iotatonos" unicode="&#x38a;" horiz-adv-x="521" 
d="M297 0v700h180v-700h-180zM20 448l36 252h187l-74 -252h-149z" />
    <glyph glyph-name="Omicrontonos" unicode="&#x38c;" horiz-adv-x="865" 
d="M535 -16q-91 0 -159.5 45.5t-106 128t-37.5 192.5t37.5 192.5t106 128t159.5 45.5q92 0 160 -45.5t105.5 -128t37.5 -192.5t-37.5 -192.5t-105.5 -128t-160 -45.5zM535 145q56 0 86 54t30 151q0 95 -30 150t-86 55t-86 -55t-30 -150q0 -97 30 -151t86 -54zM20 448l36 252
h187l-74 -252h-149z" />
    <glyph glyph-name="Upsilontonos" unicode="&#x38e;" horiz-adv-x="888" 
d="M491 0v271l-209 429h210l92 -266l93 266h203l-209 -429v-271h-180zM20 448l36 252h187l-74 -252h-149z" />
    <glyph glyph-name="Omegatonos" unicode="&#x38f;" horiz-adv-x="874" 
d="M230 0v151h108q-57 46 -79 108t-22 130q0 98 37 171.5t103 114.5t153 41q88 0 153.5 -41t102.5 -114.5t37 -171.5q0 -68 -22 -130t-79 -108h115l-17 -151h-255v148q14 13 30.5 40.5t28.5 72t12 105.5q0 88 -27 138.5t-79 50.5t-79 -50.5t-27 -138.5q0 -61 12 -105.5
t28.5 -72t30.5 -40.5v-148h-265zM20 448l36 252h187l-74 -252h-149z" />
    <glyph glyph-name="iotadieresistonos" unicode="&#x390;" horiz-adv-x="317" 
d="M191 -10q-74 0 -114 45t-40 140v348h172v-314q0 -40 11 -53.5t36 -13.5q8 0 19 2.5t21 6.5l15 -134q-28 -14 -56 -20.5t-64 -6.5zM51 599l41 215h169l-88 -215h-122zM-50 589q-37 0 -59.5 24t-22.5 60q0 37 22.5 60.5t59.5 23.5t59.5 -23.5t22.5 -60.5q0 -36 -22.5 -60
t-59.5 -24zM324 589q-37 0 -59.5 24t-22.5 60q0 37 22.5 60.5t59.5 23.5t59.5 -23.5t22.5 -60.5q0 -36 -22.5 -60t-59.5 -24z" />
    <glyph glyph-name="Alpha" unicode="&#x391;" horiz-adv-x="626" 
d="M422 0l-29 130h-165l-30 -130h-191l214 700h184l214 -700h-197zM262 281h97l-48 211z" />
    <glyph glyph-name="Beta" unicode="&#x392;" horiz-adv-x="552" 
d="M528 202q0 -93 -61 -147.5t-168 -54.5h-255v700h242q100 0 157.5 -50t57.5 -134q0 -52 -24 -91t-63 -57q51 -12 82.5 -56.5t31.5 -109.5zM268 427q61 0 61 71q0 65 -60 65h-55v-136h54zM283 137q35 0 52.5 21t17.5 59t-18 58.5t-55 20.5h-66v-159h69z" />
    <glyph glyph-name="Gamma" unicode="&#x393;" horiz-adv-x="458" 
d="M44 0v700h385l19 -161h-224v-539h-180z" />
    <glyph glyph-name="uni0394" unicode="&#x394;" horiz-adv-x="622" 
d="M27 0v126l192 574h184l192 -574v-126h-568zM220 148h177l-88 358z" />
    <glyph glyph-name="Epsilon" unicode="&#x395;" horiz-adv-x="503" 
d="M44 0v700h412l18 -151h-255v-118h228v-151h-228v-129h271l-18 -151h-428z" />
    <glyph glyph-name="Zeta" unicode="&#x396;" horiz-adv-x="543" 
d="M27 0v137l283 411h-274l18 152h454v-137l-282 -411h297l-18 -152h-478z" />
    <glyph glyph-name="Eta" unicode="&#x397;" horiz-adv-x="610" 
d="M44 0v700h180v-264h162v264h180v-700h-180v273h-162v-273h-180z" />
    <glyph glyph-name="Theta" unicode="&#x398;" horiz-adv-x="660" 
d="M330 -16q-91 0 -159.5 45.5t-106 128t-37.5 192.5t37.5 192.5t106 128t159.5 45.5q92 0 160 -45.5t105.5 -128t37.5 -192.5t-37.5 -192.5t-105.5 -128t-160 -45.5zM330 145q56 0 86 54t30 151q0 95 -30 150t-86 55t-86 -55t-30 -150q0 -97 30 -151t86 -54zM265 279v151
h131v-151h-131z" />
    <glyph glyph-name="Iota" unicode="&#x399;" horiz-adv-x="268" 
d="M44 0v700h180v-700h-180z" />
    <glyph glyph-name="Kappa" unicode="&#x39a;" horiz-adv-x="618" 
d="M44 0v700h180v-260l160 260h200l-176 -256l202 -444h-204l-114 277l-68 -99v-178h-180z" />
    <glyph glyph-name="Lambda" unicode="&#x39b;" horiz-adv-x="602" 
d="M7 0l202 700h184l202 -700h-197l-99 464l-101 -464h-191z" />
    <glyph glyph-name="Mu" unicode="&#x39c;" horiz-adv-x="723" 
d="M44 0v700h217l103 -391l104 391h211v-700h-163v449l-90 -331h-129l-90 331v-449h-163z" />
    <glyph glyph-name="Nu" unicode="&#x39d;" horiz-adv-x="608" 
d="M44 0v700h186l167 -398v398h167v-700h-182l-171 401v-401h-167z" />
    <glyph glyph-name="Xi" unicode="&#x39e;" horiz-adv-x="520" 
d="M32 524v176h458v-176h-458zM103 281v151h316v-151h-316zM23 0v176h474v-176h-474z" />
    <glyph glyph-name="Omicron" unicode="&#x39f;" horiz-adv-x="660" 
d="M330 -16q-91 0 -159.5 45.5t-106 128t-37.5 192.5t37.5 192.5t106 128t159.5 45.5q92 0 160 -45.5t105.5 -128t37.5 -192.5t-37.5 -192.5t-105.5 -128t-160 -45.5zM330 145q56 0 86 54t30 151q0 95 -30 150t-86 55t-86 -55t-30 -150q0 -97 30 -151t86 -54z" />
    <glyph glyph-name="Pi" unicode="&#x3a0;" horiz-adv-x="606" 
d="M44 0v700h518v-700h-180v539h-158v-539h-180z" />
    <glyph glyph-name="Rho" unicode="&#x3a1;" horiz-adv-x="521" 
d="M271 222h-54v-222h-173v700h227q105 0 166 -64.5t61 -174.5q0 -109 -61 -174t-166 -65zM257 365q30 0 45 25t15 71t-15 71t-45 25h-40v-192h40z" />
    <glyph glyph-name="Sigma" unicode="&#x3a3;" horiz-adv-x="502" 
d="M30 0v148l139 193l-135 211v148h422l20 -163h-228l119 -186l-135 -188h259l-18 -163h-443z" />
    <glyph glyph-name="Tau" unicode="&#x3a4;" horiz-adv-x="538" 
d="M179 0v539h-168v161h516v-161h-168v-539h-180z" />
    <glyph glyph-name="Upsilon" unicode="&#x3a5;" horiz-adv-x="614" 
d="M217 0v271l-209 429h210l92 -266l93 266h203l-209 -429v-271h-180z" />
    <glyph glyph-name="Phi" unicode="&#x3a6;" horiz-adv-x="722" 
d="M277 0v67q-123 17 -186.5 88t-63.5 203q0 131 63.5 202.5t186.5 88.5v67h169v-67q123 -17 186 -88t63 -203q0 -131 -63 -202.5t-186 -88.5v-67h-169zM206 358q0 -66 19.5 -101.5t59.5 -48.5v300q-41 -14 -60 -49.5t-19 -100.5zM516 358q0 65 -19 100.5t-59 49.5v-300
q40 14 59 49.5t19 100.5z" />
    <glyph glyph-name="Chi" unicode="&#x3a7;" horiz-adv-x="626" 
d="M8 0l203 355l-187 345h198l92 -205l96 205h192l-190 -342l206 -358h-203l-105 215l-105 -215h-197z" />
    <glyph glyph-name="Psi" unicode="&#x3a8;" horiz-adv-x="702" 
d="M266 0v178q-128 18 -183 95.5t-55 209.5v217h175v-212q0 -57 12.5 -95t50.5 -56v363h170v-363q38 17 50.5 55.5t12.5 95.5v212h175v-217q0 -132 -54.5 -209.5t-183.5 -95.5v-178h-170z" />
    <glyph glyph-name="uni03A9" unicode="&#x3a9;" horiz-adv-x="681" 
d="M37 0v151h108q-57 46 -79 108t-22 130q0 98 37 171.5t103 114.5t153 41q88 0 153.5 -41t102.5 -114.5t37 -171.5q0 -68 -22 -130t-79 -108h115l-17 -151h-255v148q14 13 30.5 40.5t28.5 72t12 105.5q0 88 -27 138.5t-79 50.5t-79 -50.5t-27 -138.5q0 -61 12 -105.5
t28.5 -72t30.5 -40.5v-148h-265z" />
    <glyph glyph-name="Iotadieresis" unicode="&#x3aa;" horiz-adv-x="268" 
d="M44 0v700h180v-700h-180zM14 763q-37 0 -60 24t-23 61q0 38 23 61.5t60 23.5q38 0 60.5 -23.5t22.5 -61.5q0 -37 -22.5 -61t-60.5 -24zM254 763q-37 0 -60 24t-23 61q0 38 23 61.5t60 23.5q38 0 60.5 -23.5t22.5 -61.5q0 -37 -22.5 -61t-60.5 -24z" />
    <glyph glyph-name="Upsilondieresis" unicode="&#x3ab;" horiz-adv-x="614" 
d="M217 0v271l-209 429h210l92 -266l93 266h203l-209 -429v-271h-180zM191 763q-37 0 -60 24t-23 61q0 38 23 61.5t60 23.5q38 0 60.5 -23.5t22.5 -61.5q0 -37 -22.5 -61t-60.5 -24zM431 763q-37 0 -60 24t-23 61q0 38 23 61.5t60 23.5q38 0 60.5 -23.5t22.5 -61.5
q0 -37 -22.5 -61t-60.5 -24z" />
    <glyph glyph-name="alphatonos" unicode="&#x3ac;" horiz-adv-x="528" 
d="M198 -13q-53 0 -92 34t-60 95.5t-21 144.5q0 81 22 143t61.5 97t93.5 35q85 0 122 -84q2 18 5 35.5t7 35.5h172q-4 -23 -10 -60.5t-11 -73.5t-8 -56q-5 -41 -8.5 -79.5t-3.5 -63.5q0 -26 4 -34.5t11 -8.5q9 0 19 6l16 -138q-21 -11 -43 -15.5t-54 -4.5q-37 0 -63 19
t-39 58q-37 -85 -120 -85zM254 139q29 0 42 32t13 91t-13 90.5t-42 31.5t-42 -31.5t-13 -90.5t13 -91t42 -32zM216 599l51 215h175l-98 -215h-128z" />
    <glyph glyph-name="epsilontonos" unicode="&#x3ad;" horiz-adv-x="437" 
d="M249 -13q-108 0 -163.5 42t-55.5 113q0 50 25 82.5t57 49.5q-32 15 -53 42.5t-21 75.5q0 59 52.5 101.5t157.5 42.5q51 0 90.5 -9t64.5 -26l-26 -130q-21 12 -44.5 18.5t-52.5 6.5q-44 0 -57.5 -13t-13.5 -29q0 -11 10.5 -23.5t38.5 -12.5h99v-110h-105q-27 0 -38 -10
t-11 -27q0 -21 17 -31.5t45 -10.5q38 0 68 7.5t57 22.5l25 -134q-55 -38 -166 -38zM164 599l51 215h175l-98 -215h-128z" />
    <glyph glyph-name="etatonos" unicode="&#x3ae;" horiz-adv-x="530" 
d="M323 -216v518q0 42 -7.5 59.5t-30.5 17.5q-25 0 -35.5 -20.5t-10.5 -61.5v-297h-172v309q0 36 -5 51.5t-23 15.5q-8 0 -13 -4l-17 141q42 15 93 15q43 0 74 -20.5t43 -66.5q16 46 50.5 70.5t80.5 24.5q145 0 145 -205v-547h-172zM186 599l51 215h175l-98 -215h-128z" />
    <glyph glyph-name="iotatonos" unicode="&#x3af;" horiz-adv-x="317" 
d="M191 -10q-74 0 -114 45t-40 140v348h172v-314q0 -40 11 -53.5t36 -13.5q8 0 19 2.5t21 6.5l15 -134q-28 -14 -56 -20.5t-64 -6.5zM52 599l51 215h175l-98 -215h-128z" />
    <glyph glyph-name="upsilondieresistonos" unicode="&#x3b0;" horiz-adv-x="502" 
d="M254 -13q-100 0 -148.5 66t-48.5 188v74q0 32 -4.5 46.5t-22.5 14.5q-9 0 -14 -4l-17 141q42 15 88 15q35 0 66.5 -15t51.5 -52.5t20 -107.5v-97q0 -53 6 -84.5t27 -31.5q23 0 29 27.5t6 83.5q0 64 -4.5 126.5t-19.5 145.5h172q11 -60 18.5 -116t7.5 -114
q0 -306 -213 -306zM156 599l41 215h169l-88 -215h-122zM55 589q-37 0 -59.5 24t-22.5 60q0 37 22.5 60.5t59.5 23.5t59.5 -23.5t22.5 -60.5q0 -36 -22.5 -60t-59.5 -24zM429 589q-37 0 -59.5 24t-22.5 60q0 37 22.5 60.5t59.5 23.5t59.5 -23.5t22.5 -60.5q0 -36 -22.5 -60
t-59.5 -24z" />
    <glyph glyph-name="alpha" unicode="&#x3b1;" horiz-adv-x="528" 
d="M198 -13q-53 0 -92 34t-60 95.5t-21 144.5q0 81 22 143t61.5 97t93.5 35q85 0 122 -84q2 18 5 35.5t7 35.5h172q-4 -23 -10 -60.5t-11 -73.5t-8 -56q-5 -41 -8.5 -79.5t-3.5 -63.5q0 -26 4 -34.5t11 -8.5q9 0 19 6l16 -138q-21 -11 -43 -15.5t-54 -4.5q-37 0 -63 19
t-39 58q-37 -85 -120 -85zM254 139q29 0 42 32t13 91t-13 90.5t-42 31.5t-42 -31.5t-13 -90.5t13 -91t42 -32z" />
    <glyph glyph-name="beta" unicode="&#x3b2;" horiz-adv-x="554" 
d="M39 -216v719q0 116 63 183t178 67q62 0 109 -25.5t73 -73t26 -112.5q0 -58 -25 -101t-60 -58q54 -17 90 -63.5t36 -120.5q0 -66 -24 -113.5t-65.5 -73t-94.5 -25.5q-92 0 -134 79v-282h-172zM292 144q32 0 47.5 22t15.5 57q0 38 -21.5 57t-53.5 19h-18v143h14
q25 0 33 23.5t8 57.5q0 84 -50 84q-34 0 -45 -25.5t-11 -65.5v-272q0 -50 21.5 -75t59.5 -25z" />
    <glyph glyph-name="gamma" unicode="&#x3b3;" horiz-adv-x="512" 
d="M169 -216v222l-97 314q-9 29 -16.5 42.5t-21.5 13.5q-8 0 -13 -4l-17 141q21 8 43 11.5t50 3.5q38 0 68.5 -20.5t46.5 -79.5l63 -232q23 84 33.5 166.5t15.5 160.5h176q-11 -118 -52.5 -252t-106.5 -267v-220h-172z" />
    <glyph glyph-name="delta" unicode="&#x3b4;" horiz-adv-x="512" 
d="M254 -13q-66 0 -117.5 29.5t-81.5 82.5t-30 125q0 57 28 109.5t98 80.5q-93 51 -93 149q0 87 62 138.5t168 51.5q57 0 102 -15t67 -32l-28 -142q-58 39 -125 39q-69 0 -69 -48q0 -16 16.5 -32t60.5 -39l33 -17q62 -32 102 -88.5t40 -142.5q0 -75 -30.5 -131t-83 -87
t-119.5 -31zM256 139q57 0 57 110q0 53 -14.5 81.5t-42.5 28.5t-42.5 -28.5t-14.5 -81.5q0 -110 57 -110z" />
    <glyph glyph-name="epsilon" unicode="&#x3b5;" horiz-adv-x="437" 
d="M249 -13q-108 0 -163.5 42t-55.5 113q0 50 25 82.5t57 49.5q-32 15 -53 42.5t-21 75.5q0 59 52.5 101.5t157.5 42.5q51 0 90.5 -9t64.5 -26l-26 -130q-21 12 -44.5 18.5t-52.5 6.5q-44 0 -57.5 -13t-13.5 -29q0 -11 10.5 -23.5t38.5 -12.5h99v-110h-105q-27 0 -38 -10
t-11 -27q0 -21 17 -31.5t45 -10.5q38 0 68 7.5t57 22.5l25 -134q-55 -38 -166 -38z" />
    <glyph glyph-name="zeta" unicode="&#x3b6;" horiz-adv-x="432" 
d="M337 -223l-104 106q45 35 45 67t-52 48l-40 13q-41 14 -75.5 36t-55.5 61t-21 102q0 48 21 102t68 123.5t126 165.5h-213l17 139h380v-125q-118 -134 -171.5 -222.5t-53.5 -148.5q0 -39 17.5 -60.5t50.5 -33.5l30 -11q67 -25 106.5 -61t39.5 -104q0 -60 -26.5 -106.5
t-88.5 -90.5z" />
    <glyph glyph-name="eta" unicode="&#x3b7;" horiz-adv-x="530" 
d="M323 -216v518q0 42 -7.5 59.5t-30.5 17.5q-25 0 -35.5 -20.5t-10.5 -61.5v-297h-172v309q0 36 -5 51.5t-23 15.5q-8 0 -13 -4l-17 141q42 15 93 15q43 0 74 -20.5t43 -66.5q16 46 50.5 70.5t80.5 24.5q145 0 145 -205v-547h-172z" />
    <glyph glyph-name="theta" unicode="&#x3b8;" horiz-adv-x="549" 
d="M274 -13q-123 0 -181 99.5t-58 283.5t62 283.5t178 99.5q123 0 181 -99.5t58 -283.5t-62 -283.5t-178 -99.5zM275 601q-32 0 -48 -40t-20 -127h135q-2 85 -16.5 126t-50.5 41zM274 139q33 0 49 41t19 131h-135q2 -88 16 -130t51 -42z" />
    <glyph glyph-name="iota" unicode="&#x3b9;" horiz-adv-x="317" 
d="M191 -10q-74 0 -114 45t-40 140v348h172v-314q0 -40 11 -53.5t36 -13.5q8 0 19 2.5t21 6.5l15 -134q-28 -14 -56 -20.5t-64 -6.5z" />
    <glyph glyph-name="kappa" unicode="&#x3ba;" horiz-adv-x="531" 
d="M39 0v523h172v-173l113 173h195l-134 -172l141 -351h-184l-73 204l-58 -74v-130h-172z" />
    <glyph glyph-name="lambda" unicode="&#x3bb;" horiz-adv-x="539" 
d="M12 0l189 535q-5 28 -19 42t-30.5 19t-27.5 5q-22 0 -39 -5.5t-28 -12.5l-27 140q63 30 151 30q44 0 81 -17.5t66 -60t49 -116.5l150 -559h-185l-68 321l-81 -321h-181z" />
    <glyph glyph-name="uni03BC" unicode="&#x3bc;" horiz-adv-x="531" 
d="M39 -216v739h172v-302q0 -42 8 -59.5t30 -17.5q25 0 35.5 20.5t10.5 61.5v297h172v-309q0 -36 5 -51.5t23 -15.5q8 0 13 4l17 -141q-42 -15 -93 -15q-40 0 -69.5 17.5t-43.5 57.5q-11 -40 -34 -61.5t-56 -21.5q-10 0 -18 5v-208h-172z" />
    <glyph glyph-name="nu" unicode="&#x3bd;" horiz-adv-x="503" 
d="M167 0l-95 320q-9 29 -16.5 42.5t-21.5 13.5q-8 0 -13 -4l-17 141q21 8 43 11.5t50 3.5q38 0 69 -20.5t46 -79.5l59 -228q22 83 30.5 164.5t13.5 158.5h176q-11 -119 -51 -254t-105 -269h-168z" />
    <glyph glyph-name="xi" unicode="&#x3be;" horiz-adv-x="464" 
d="M347 -223l-104 106q45 35 45 67q0 17 -13 27.5t-39 19.5l-43 15q-87 31 -127.5 79.5t-40.5 127.5q0 63 36.5 110t96.5 66q-56 16 -86.5 58.5t-30.5 101.5q0 92 59.5 145t163.5 53q44 0 93 -13t80 -34l-28 -142q-55 37 -117 37q-79 0 -79 -78q0 -37 25 -55t65 -18h65v-146
h-67q-48 0 -75 -16t-27 -54q0 -34 21.5 -51.5t53.5 -28.5l42 -14q68 -22 107 -60t39 -106q0 -60 -26.5 -106.5t-88.5 -90.5z" />
    <glyph glyph-name="omicron" unicode="&#x3bf;" horiz-adv-x="512" 
d="M256 -13q-70 0 -122 34t-80.5 96t-28.5 145t28.5 144.5t80.5 95.5t122 34t122 -34t80.5 -95.5t28.5 -144.5t-28.5 -145t-80.5 -96t-122 -34zM256 139q30 0 43.5 32t13.5 91t-13.5 90.5t-43.5 31.5t-43.5 -31.5t-13.5 -90.5t13.5 -91t43.5 -32z" />
    <glyph glyph-name="pi" unicode="&#x3c0;" horiz-adv-x="551" 
d="M63 0v380h-58l17 143h504v-143h-57v-166q0 -36 5 -51.5t23 -15.5q8 0 13 4l17 -141q-42 -15 -89 -15q-54 0 -84 23t-42 64.5t-12 97.5v200h-68v-380h-169z" />
    <glyph glyph-name="rho" unicode="&#x3c1;" horiz-adv-x="516" 
d="M35 -216v477q0 83 27 145t77.5 96t120.5 34t122 -34t80.5 -95.5t28.5 -144.5t-24 -145t-65.5 -96t-95.5 -34q-33 0 -57.5 13.5t-41.5 36.5v-253h-172zM262 139q29 0 42 32t13 91t-13 90.5t-42 31.5t-42 -31.5t-13 -90.5t13 -91t42 -32z" />
    <glyph glyph-name="sigma1" unicode="&#x3c2;" horiz-adv-x="441" 
d="M310 -196l-104 106q45 35 45 67q0 17 -13 27.5t-39 20.5l-28 10q-73 26 -109.5 86.5t-36.5 160.5q0 75 28 132t80.5 89.5t125.5 32.5q44 0 89.5 -12.5t75.5 -34.5l-28 -146q-24 20 -49.5 30.5t-60.5 10.5q-40 0 -63.5 -29.5t-23.5 -77.5q0 -49 19.5 -72t60.5 -40l30 -12
q51 -20 83.5 -55.5t32.5 -96.5q0 -52 -23.5 -101t-91.5 -96z" />
    <glyph glyph-name="sigma" unicode="&#x3c3;" horiz-adv-x="517" 
d="M250 -13q-67 0 -117.5 33t-79 94.5t-28.5 144.5q0 82 29 141t80 91t116 32h260l-17 -143h-91q29 -26 50.5 -69t21.5 -95q0 -70 -28 -121.5t-78.5 -79.5t-117.5 -28zM252 139q56 0 56 116q0 87 -22 125h-24q-27 0 -41 -16.5t-18.5 -44t-4.5 -60.5q0 -120 54 -120z" />
    <glyph glyph-name="tau" unicode="&#x3c4;" horiz-adv-x="436" 
d="M269 -10q-74 0 -114 45t-40 140v205h-111l17 143h395v-143h-129v-171q0 -40 14 -53.5t39 -13.5q12 0 23.5 2.5t21.5 6.5l15 -134q-30 -13 -57 -20t-74 -7z" />
    <glyph glyph-name="upsilon" unicode="&#x3c5;" horiz-adv-x="502" 
d="M254 -13q-100 0 -148.5 66t-48.5 188v74q0 32 -4.5 46.5t-22.5 14.5q-9 0 -14 -4l-17 141q42 15 88 15q35 0 66.5 -15t51.5 -52.5t20 -107.5v-97q0 -53 6 -84.5t27 -31.5q23 0 29 27.5t6 83.5q0 64 -4.5 126.5t-19.5 145.5h172q11 -60 18.5 -116t7.5 -114
q0 -306 -213 -306z" />
    <glyph glyph-name="phi" unicode="&#x3c6;" horiz-adv-x="679" 
d="M255 -216v209q-116 19 -173 90t-57 178q0 108 55.5 179t174.5 90v170h169v-170q119 -19 174.5 -90t55.5 -179q0 -107 -56.5 -177.5t-173.5 -90.5v-209h-169zM487 261q0 55 -19.5 87.5t-54.5 47.5v-269q43 15 58.5 50t15.5 84zM192 261q0 -49 15 -84.5t59 -50.5v269
q-74 -30 -74 -134z" />
    <glyph glyph-name="chi" unicode="&#x3c7;" horiz-adv-x="535" 
d="M430 -229q-40 0 -64 22.5t-43 68.5l-51 125l-83 -203h-181l166 390l-67 156q-11 26 -21 36t-21 10q-10 0 -19 -7l-17 141q16 7 39 12.5t46 5.5q40 0 66.5 -21.5t45.5 -68.5l45 -107l75 192h181l-164 -368l78 -186q12 -29 23.5 -37.5t24.5 -8.5q12 0 21 7l11 -142
q-17 -7 -40 -12t-51 -5z" />
    <glyph glyph-name="psi" unicode="&#x3c8;" horiz-adv-x="640" 
d="M245 -216v209q-107 17 -161 85.5t-54 183.5v261h163v-256q0 -47 10.5 -78.5t41.5 -46.5v558h150v-558q31 15 41.5 46.5t10.5 78.5v256h163v-261q0 -115 -54 -183.5t-161 -85.5v-209h-150z" />
    <glyph glyph-name="omega" unicode="&#x3c9;" horiz-adv-x="677" 
d="M215 -13q-58 0 -93.5 25.5t-54.5 66t-25.5 86.5t-6.5 86q0 38 8 84.5t23 95.5t36 92h172q-34 -77 -50.5 -146.5t-16.5 -125.5q0 -54 8 -83t23 -29q16 0 21.5 27t5.5 100v137h147v-137q0 -73 5.5 -100t21.5 -27q15 0 23 29t8 83q0 56 -16 125.5t-51 146.5h172
q21 -43 36 -92t23 -95.5t8 -84.5q0 -40 -6.5 -86t-25.5 -86.5t-54.5 -66t-93.5 -25.5q-45 0 -76.5 26t-47.5 82q-15 -56 -46.5 -82t-76.5 -26z" />
    <glyph glyph-name="iotadieresis" unicode="&#x3ca;" horiz-adv-x="317" 
d="M191 -10q-74 0 -114 45t-40 140v348h172v-314q0 -40 11 -53.5t36 -13.5q8 0 19 2.5t21 6.5l15 -134q-28 -14 -56 -20.5t-64 -6.5zM9 589q-37 0 -59.5 24t-22.5 60q0 37 22.5 60.5t59.5 23.5t59.5 -23.5t22.5 -60.5q0 -36 -22.5 -60t-59.5 -24zM237 589q-37 0 -59.5 24
t-22.5 60q0 37 22.5 60.5t59.5 23.5t59.5 -23.5t22.5 -60.5q0 -36 -22.5 -60t-59.5 -24z" />
    <glyph glyph-name="upsilondieresis" unicode="&#x3cb;" horiz-adv-x="502" 
d="M254 -13q-100 0 -148.5 66t-48.5 188v74q0 32 -4.5 46.5t-22.5 14.5q-9 0 -14 -4l-17 141q42 15 88 15q35 0 66.5 -15t51.5 -52.5t20 -107.5v-97q0 -53 6 -84.5t27 -31.5q23 0 29 27.5t6 83.5q0 64 -4.5 126.5t-19.5 145.5h172q11 -60 18.5 -116t7.5 -114
q0 -306 -213 -306zM114 589q-37 0 -59.5 24t-22.5 60q0 37 22.5 60.5t59.5 23.5t59.5 -23.5t22.5 -60.5q0 -36 -22.5 -60t-59.5 -24zM342 589q-37 0 -59.5 24t-22.5 60q0 37 22.5 60.5t59.5 23.5t59.5 -23.5t22.5 -60.5q0 -36 -22.5 -60t-59.5 -24z" />
    <glyph glyph-name="omicrontonos" unicode="&#x3cc;" horiz-adv-x="512" 
d="M256 -13q-70 0 -122 34t-80.5 96t-28.5 145t28.5 144.5t80.5 95.5t122 34t122 -34t80.5 -95.5t28.5 -144.5t-28.5 -145t-80.5 -96t-122 -34zM256 139q30 0 43.5 32t13.5 91t-13.5 90.5t-43.5 31.5t-43.5 -31.5t-13.5 -90.5t13.5 -91t43.5 -32zM185 599l51 215h175
l-98 -215h-128z" />
    <glyph glyph-name="upsilontonos" unicode="&#x3cd;" horiz-adv-x="502" 
d="M254 -13q-100 0 -148.5 66t-48.5 188v74q0 32 -4.5 46.5t-22.5 14.5q-9 0 -14 -4l-17 141q42 15 88 15q35 0 66.5 -15t51.5 -52.5t20 -107.5v-97q0 -53 6 -84.5t27 -31.5q23 0 29 27.5t6 83.5q0 64 -4.5 126.5t-19.5 145.5h172q11 -60 18.5 -116t7.5 -114
q0 -306 -213 -306zM147 599l51 215h175l-98 -215h-128z" />
    <glyph glyph-name="omegatonos" unicode="&#x3ce;" horiz-adv-x="677" 
d="M215 -13q-58 0 -93.5 25.5t-54.5 66t-25.5 86.5t-6.5 86q0 38 8 84.5t23 95.5t36 92h172q-34 -77 -50.5 -146.5t-16.5 -125.5q0 -54 8 -83t23 -29q16 0 21.5 27t5.5 100v137h147v-137q0 -73 5.5 -100t21.5 -27q15 0 23 29t8 83q0 56 -16 125.5t-51 146.5h172
q21 -43 36 -92t23 -95.5t8 -84.5q0 -40 -6.5 -86t-25.5 -86.5t-54.5 -66t-93.5 -25.5q-45 0 -76.5 26t-47.5 82q-15 -56 -46.5 -82t-76.5 -26zM268 599l51 215h175l-98 -215h-128z" />
    <glyph glyph-name="kaiSymbol" unicode="&#x3d7;" horiz-adv-x="544" 
d="M39 0v523h172v-173l113 173h195l-125 -160l101 -227q24 -55 34 -89.5t10 -63.5q0 -64 -27.5 -111.5t-77.5 -74t-118 -26.5q-33 0 -61.5 8.5t-48.5 18.5l28 139q13 -7 26 -10.5t29 -3.5q36 0 57.5 18.5t21.5 49.5q0 14 -5.5 31t-22.5 56l-61 138l-68 -86v-130h-172z" />
    <glyph glyph-name="uni0400" unicode="&#x400;" horiz-adv-x="503" 
d="M44 0v700h412l18 -151h-255v-118h228v-151h-228v-129h271l-18 -151h-428zM193 772l-150 132h207l126 -132h-183z" />
    <glyph glyph-name="uni0401" unicode="&#x401;" horiz-adv-x="503" 
d="M44 0v700h412l18 -151h-255v-118h228v-151h-228v-129h271l-18 -151h-428zM145 763q-37 0 -60 24t-23 61q0 38 23 61.5t60 23.5q38 0 60.5 -23.5t22.5 -61.5q0 -37 -22.5 -61t-60.5 -24zM385 763q-37 0 -60 24t-23 61q0 38 23 61.5t60 23.5q38 0 60.5 -23.5t22.5 -61.5
q0 -37 -22.5 -61t-60.5 -24z" />
    <glyph glyph-name="uni0402" unicode="&#x402;" horiz-adv-x="699" 
d="M474 -6q-16 0 -36.5 1.5t-35.5 4.5l12 145q11 -4 22 -4q41 0 41 63q0 39 -17 55t-59 16q-34 0 -71 -13v-262h-180v539h-139v161h535v-161h-216v-126q36 10 64.5 14.5t58.5 4.5q107 0 156.5 -55t49.5 -175q0 -61 -23.5 -108t-65 -73.5t-96.5 -26.5z" />
    <glyph glyph-name="uni0403" unicode="&#x403;" horiz-adv-x="458" 
d="M44 0v700h385l19 -161h-224v-539h-180zM315 772h-183l126 132h207z" />
    <glyph glyph-name="uni0404" unicode="&#x404;" horiz-adv-x="553" 
d="M328 -16q-144 0 -222.5 96.5t-78.5 273.5q0 171 82 266.5t230 95.5q50 0 98.5 -12.5t85.5 -34.5l-33 -157q-27 17 -59.5 30t-74.5 13q-64 0 -99.5 -30.5t-47.5 -96.5h234v-150h-235q9 -73 42 -103t100 -30q34 0 74.5 12t74.5 34l30 -155q-44 -25 -91 -38.5t-110 -13.5z
" />
    <glyph glyph-name="uni0405" unicode="&#x405;" horiz-adv-x="503" 
d="M478 207q0 -68 -31 -118.5t-86.5 -77.5t-131.5 -27q-64 0 -113.5 13t-101.5 45l34 150q44 -31 82 -44t85 -13q38 0 62 15t24 46q0 28 -19 46.5t-72 34.5q-91 28 -135.5 81t-44.5 136q0 67 30 117t85 77.5t130 27.5q111 0 190 -54l-33 -148q-40 28 -71 39.5t-72 11.5
q-38 0 -61.5 -15.5t-23.5 -44.5q0 -27 19 -46t72 -35q92 -28 137.5 -81t45.5 -136z" />
    <glyph glyph-name="uni0406" unicode="&#x406;" horiz-adv-x="268" 
d="M44 0v700h180v-700h-180z" />
    <glyph glyph-name="uni0407" unicode="&#x407;" horiz-adv-x="268" 
d="M44 0v700h180v-700h-180zM14 763q-37 0 -60 24t-23 61q0 38 23 61.5t60 23.5q38 0 60.5 -23.5t22.5 -61.5q0 -37 -22.5 -61t-60.5 -24zM254 763q-37 0 -60 24t-23 61q0 38 23 61.5t60 23.5q38 0 60.5 -23.5t22.5 -61.5q0 -37 -22.5 -61t-60.5 -24z" />
    <glyph glyph-name="uni0408" unicode="&#x408;" horiz-adv-x="468" 
d="M160 -16q-41 0 -79.5 11t-62.5 30l29 151q21 -15 46.5 -24t52.5 -9q59 0 80.5 39t21.5 136v382h180v-395q0 -165 -65 -243t-203 -78z" />
    <glyph glyph-name="uni0409" unicode="&#x409;" horiz-adv-x="862" 
d="M73 -6q-39 0 -66 6l13 176q8 -3 15.5 -5t17.5 -2q23 0 35 24t19.5 85t14.5 171q5 70 7 129t2 122h440v-230h56q99 0 155.5 -63.5t56.5 -175.5q0 -231 -202 -231h-246v539h-99q-2 -41 -3.5 -78.5t-2.5 -66.5q-6 -127 -21 -206t-41 -121t-63.5 -57.5t-87.5 -15.5zM615 327
h-44v-184h44q49 0 49 91q0 49 -11.5 71t-37.5 22z" />
    <glyph glyph-name="uni040A" unicode="&#x40a;" horiz-adv-x="848" 
d="M825 231q0 -231 -202 -231h-246v273h-153v-273h-180v700h180v-264h153v264h180v-230h56q99 0 155.5 -63.5t56.5 -175.5zM601 327h-44v-184h44q49 0 49 91q0 49 -11.5 71t-37.5 22z" />
    <glyph glyph-name="uni040B" unicode="&#x40b;" horiz-adv-x="693" 
d="M150 0v539h-139v161h535v-161h-216v-126q36 10 64.5 14.5t58.5 4.5q78 0 121.5 -28.5t61 -81t17.5 -126.5v-196h-180v179q0 50 -15.5 73t-56.5 23q-34 0 -71 -13v-262h-180z" />
    <glyph glyph-name="uni040C" unicode="&#x40c;" horiz-adv-x="605" 
d="M44 0v700h180v-263h48l104 263h197l-150 -329l175 -371h-206l-114 274h-54v-274h-180zM360 772h-183l126 132h207z" />
    <glyph glyph-name="uni040D" unicode="&#x40d;" horiz-adv-x="610" 
d="M44 0v700h170v-371l172 371h180v-700h-170v373l-175 -373h-177zM234 772l-150 132h207l126 -132h-183z" />
    <glyph glyph-name="uni040E" unicode="&#x40e;" horiz-adv-x="592" 
d="M174 -16q-31 0 -58.5 3.5t-44.5 10.5l11 152q19 -7 36.5 -11.5t39.5 -4.5t37.5 4t26.5 12l-214 550h193l104 -350l94 350h185l-184 -543q-22 -68 -55.5 -106t-76.5 -52.5t-94 -14.5zM481 895q-12 -76 -63.5 -108.5t-127.5 -32.5t-127.5 32.5t-63.5 108.5l145 17
q2 -37 14.5 -50.5t31.5 -13.5t32 13.5t14 50.5z" />
    <glyph glyph-name="uni040F" unicode="&#x40f;" horiz-adv-x="604" 
d="M44 0v700h180v-539h156v539h180v-700h-174v-170h-168v170h-174z" />
    <glyph glyph-name="uni0410" unicode="&#x410;" horiz-adv-x="626" 
d="M422 0l-29 130h-165l-30 -130h-191l214 700h184l214 -700h-197zM262 281h97l-48 211z" />
    <glyph glyph-name="uni0411" unicode="&#x411;" horiz-adv-x="529" 
d="M44 0v700h405l19 -161h-254v-115h62q110 0 170 -52.5t60 -156.5q0 -108 -54 -161.5t-166 -53.5h-242zM214 287v-150h56q61 0 61 75t-64 75h-53z" />
    <glyph glyph-name="uni0412" unicode="&#x412;" horiz-adv-x="552" 
d="M528 202q0 -93 -61 -147.5t-168 -54.5h-255v700h242q100 0 157.5 -50t57.5 -134q0 -52 -24 -91t-63 -57q51 -12 82.5 -56.5t31.5 -109.5zM268 427q61 0 61 71q0 65 -60 65h-55v-136h54zM283 137q35 0 52.5 21t17.5 59t-18 58.5t-55 20.5h-66v-159h69z" />
    <glyph glyph-name="uni0413" unicode="&#x413;" horiz-adv-x="458" 
d="M44 0v700h385l19 -161h-224v-539h-180z" />
    <glyph glyph-name="uni0414" unicode="&#x414;" horiz-adv-x="678" 
d="M20 -170v331h65q16 31 24 69.5t12.5 92t9.5 128.5q4 56 6.5 124.5t2.5 124.5h440v-539h78v-331h-170v170h-298v-170h-170zM295 424q-6 -87 -14 -152t-22 -111h146v378h-104q-1 -35 -3 -66t-3 -49z" />
    <glyph glyph-name="uni0415" unicode="&#x415;" horiz-adv-x="503" 
d="M44 0v700h412l18 -151h-255v-118h228v-151h-228v-129h271l-18 -151h-428z" />
    <glyph glyph-name="uni0416" unicode="&#x416;" horiz-adv-x="932" 
d="M7 0l175 371l-150 329h197l104 -263h43v263h180v-263h43l104 263h197l-150 -329l175 -371h-206l-114 274h-49v-274h-180v274h-49l-114 -274h-206z" />
    <glyph glyph-name="uni0417" unicode="&#x417;" horiz-adv-x="480" 
d="M209 -16q-52 0 -102 10t-88 30l37 148q29 -16 63.5 -26.5t73.5 -10.5q38 0 63 18t25 58q0 39 -27 58t-74 19h-77v149h77q34 0 54 16.5t20 44.5q0 34 -22 50.5t-63 16.5q-35 0 -61.5 -8t-49.5 -19l-29 147q31 14 74.5 22.5t93.5 8.5q111 0 170 -49t59 -147
q0 -50 -21.5 -87t-68.5 -62q58 -19 89 -62.5t31 -110.5q0 -69 -31 -117t-86.5 -72.5t-129.5 -24.5z" />
    <glyph glyph-name="uni0418" unicode="&#x418;" horiz-adv-x="610" 
d="M44 0v700h170v-371l172 371h180v-700h-170v373l-175 -373h-177z" />
    <glyph glyph-name="uni0419" unicode="&#x419;" horiz-adv-x="610" 
d="M44 0v700h170v-371l172 371h180v-700h-170v373l-175 -373h-177zM497 895q-12 -76 -63.5 -108.5t-127.5 -32.5t-127.5 32.5t-63.5 108.5l145 17q2 -37 14.5 -50.5t31.5 -13.5t32 13.5t14 50.5z" />
    <glyph glyph-name="uni041A" unicode="&#x41a;" horiz-adv-x="605" 
d="M44 0v700h180v-263h48l104 263h197l-150 -329l175 -371h-206l-114 274h-54v-274h-180z" />
    <glyph glyph-name="uni041B" unicode="&#x41b;" horiz-adv-x="628" 
d="M73 -6q-39 0 -66 6l13 176q8 -3 15.5 -5t17.5 -2q23 0 35 24t19.5 85t14.5 171q5 70 7 129t2 122h453v-700h-180v539h-112q-2 -41 -3.5 -78.5t-2.5 -66.5q-6 -127 -21 -206t-41 -121t-63.5 -57.5t-87.5 -15.5z" />
    <glyph glyph-name="uni041C" unicode="&#x41c;" horiz-adv-x="723" 
d="M44 0v700h217l103 -391l104 391h211v-700h-163v449l-90 -331h-129l-90 331v-449h-163z" />
    <glyph glyph-name="uni041D" unicode="&#x41d;" horiz-adv-x="610" 
d="M44 0v700h180v-264h162v264h180v-700h-180v273h-162v-273h-180z" />
    <glyph glyph-name="uni041E" unicode="&#x41e;" horiz-adv-x="660" 
d="M330 -16q-91 0 -159.5 45.5t-106 128t-37.5 192.5t37.5 192.5t106 128t159.5 45.5q92 0 160 -45.5t105.5 -128t37.5 -192.5t-37.5 -192.5t-105.5 -128t-160 -45.5zM330 145q56 0 86 54t30 151q0 95 -30 150t-86 55t-86 -55t-30 -150q0 -97 30 -151t86 -54z" />
    <glyph glyph-name="uni041F" unicode="&#x41f;" horiz-adv-x="606" 
d="M44 0v700h518v-700h-180v539h-158v-539h-180z" />
    <glyph glyph-name="uni0420" unicode="&#x420;" horiz-adv-x="521" 
d="M271 222h-54v-222h-173v700h227q105 0 166 -64.5t61 -174.5q0 -109 -61 -174t-166 -65zM257 365q30 0 45 25t15 71t-15 71t-45 25h-40v-192h40z" />
    <glyph glyph-name="uni0421" unicode="&#x421;" horiz-adv-x="564" 
d="M27 346q0 110 40 193.5t114.5 130t176.5 46.5q46 0 93 -12t83 -35l-33 -157q-31 22 -62.5 32.5t-66.5 10.5q-74 0 -116 -53.5t-42 -149.5q0 -100 41 -153.5t117 -53.5q69 0 138 46l30 -155q-38 -25 -87 -38.5t-99 -13.5q-102 0 -175.5 43.5t-112.5 125t-39 193.5z" />
    <glyph glyph-name="uni0422" unicode="&#x422;" horiz-adv-x="538" 
d="M179 0v539h-168v161h516v-161h-168v-539h-180z" />
    <glyph glyph-name="uni0423" unicode="&#x423;" horiz-adv-x="592" 
d="M174 -16q-31 0 -58.5 3.5t-44.5 10.5l11 152q19 -7 36.5 -11.5t39.5 -4.5t37.5 4t26.5 12l-214 550h193l104 -350l94 350h185l-184 -543q-22 -68 -55.5 -106t-76.5 -52.5t-94 -14.5z" />
    <glyph glyph-name="uni0424" unicode="&#x424;" horiz-adv-x="722" 
d="M277 0v67q-123 17 -186.5 88t-63.5 203q0 131 63.5 202.5t186.5 88.5v67h169v-67q123 -17 186 -88t63 -203q0 -131 -63 -202.5t-186 -88.5v-67h-169zM206 358q0 -66 19.5 -101.5t59.5 -48.5v300q-41 -14 -60 -49.5t-19 -100.5zM516 358q0 65 -19 100.5t-59 49.5v-300
q40 14 59 49.5t19 100.5z" />
    <glyph glyph-name="uni0425" unicode="&#x425;" horiz-adv-x="626" 
d="M8 0l203 355l-187 345h198l92 -205l96 205h192l-190 -342l206 -358h-203l-105 215l-105 -215h-197z" />
    <glyph glyph-name="uni0426" unicode="&#x426;" horiz-adv-x="650" 
d="M630 161v-331h-168v170h-418v700h180v-539h152v539h180v-539h74z" />
    <glyph glyph-name="uni0427" unicode="&#x427;" horiz-adv-x="591" 
d="M547 0h-180v240q-28 -11 -55.5 -15.5t-59.5 -4.5q-102 0 -159 64t-57 176v240h180v-222q0 -43 18 -71t72 -28q14 0 29 2t32 7v312h180v-700z" />
    <glyph glyph-name="uni0428" unicode="&#x428;" horiz-adv-x="851" 
d="M807 0h-763v700h176v-539h117v539h176v-539h118v539h176v-700z" />
    <glyph glyph-name="uni0429" unicode="&#x429;" horiz-adv-x="905" 
d="M885 161v-331h-166v170h-675v700h176v-539h117v539h176v-539h118v539h176v-539h78z" />
    <glyph glyph-name="uni042A" unicode="&#x42a;" horiz-adv-x="659" 
d="M428 0h-262v539h-161l17 161h324v-214h71q101 0 160 -66t59 -180q0 -116 -53.5 -178t-154.5 -62zM346 343v-200h57q28 0 43 26t15 74q0 100 -58 100h-57z" />
    <glyph glyph-name="uni042B" unicode="&#x42b;" horiz-adv-x="789" 
d="M44 0v700h180v-214h71q101 0 160 -66t59 -180q0 -116 -53.5 -178t-154.5 -62h-262zM565 0v700h180v-700h-180zM224 143h57q28 0 43 26t15 74q0 100 -58 100h-57v-200z" />
    <glyph glyph-name="uni042C" unicode="&#x42c;" horiz-adv-x="537" 
d="M306 0h-262v700h180v-214h71q101 0 160 -66t59 -180q0 -116 -53.5 -178t-154.5 -62zM224 343v-200h57q28 0 43 26t15 74q0 100 -58 100h-57z" />
    <glyph glyph-name="uni042D" unicode="&#x42d;" horiz-adv-x="553" 
d="M526 354q0 -177 -78.5 -273.5t-222.5 -96.5q-63 0 -110 13.5t-91 38.5l30 155q35 -22 75 -34t74 -12q67 0 100 30t42 103h-235v150h234q-12 66 -47.5 96.5t-99.5 30.5q-42 0 -74.5 -13t-59.5 -30l-33 157q38 22 86.5 34.5t97.5 12.5q148 0 230 -95.5t82 -266.5z" />
    <glyph glyph-name="uni042E" unicode="&#x42e;" horiz-adv-x="893" 
d="M224 0h-180v700h180v-260h51q14 84 53.5 146t100.5 96t138 34q91 0 158 -45.5t104 -128t37 -192.5t-37 -192.5t-104 -128t-158 -45.5q-79 0 -140.5 35t-101 99.5t-51.5 151.5h-50v-270zM567 145q54 0 83 54t29 151q0 95 -29 150t-83 55t-83 -55t-29 -150q0 -97 29 -151
t83 -54z" />
    <glyph glyph-name="uni042F" unicode="&#x42f;" horiz-adv-x="551" 
d="M217 0h-191l122 282q-45 26 -71 73t-26 114q0 109 63.5 170t170.5 61h222v-700h-173v238h-26zM232 469q0 -41 15 -64.5t44 -23.5h43v176h-43q-29 0 -44 -23t-15 -65z" />
    <glyph glyph-name="uni0430" unicode="&#x430;" horiz-adv-x="472" 
d="M437 311v-311h-140l-5 61q-36 -74 -125 -74q-67 0 -106 43.5t-39 117.5q0 89 55.5 132.5t169.5 45.5l29 1q-2 37 -20.5 53.5t-61.5 16.5q-32 0 -59.5 -8.5t-59.5 -30.5l-26 132q69 46 167 46q221 0 221 -225zM182 168q0 -50 43 -50q51 0 51 86v26h-17q-40 -1 -58.5 -15.5
t-18.5 -46.5z" />
    <glyph glyph-name="uni0431" unicode="&#x431;" horiz-adv-x="532" 
d="M507 251q0 -77 -30.5 -136.5t-84 -93.5t-123.5 -34q-126 0 -184 92t-58 262q0 169 46 265t149 118q51 11 112 18t131 11l22 -155q-68 -4 -119.5 -8.5t-91.5 -13.5q-48 -11 -64 -45.5t-16 -97.5q17 35 49 56.5t80 21.5q81 0 131.5 -67.5t50.5 -192.5zM207 257
q0 -60 15.5 -92.5t45.5 -32.5t47.5 32t17.5 87q0 51 -17.5 83.5t-46.5 32.5q-28 0 -45 -30.5t-17 -79.5z" />
    <glyph glyph-name="uni0432" unicode="&#x432;" horiz-adv-x="477" 
d="M257 0h-218v523h213q97 0 146 -34.5t49 -99.5q0 -46 -24.5 -75t-64.5 -43q49 -10 76 -39.5t27 -78.5q0 -76 -53 -114.5t-151 -38.5zM201 412v-93h38q44 0 44 49q0 44 -43 44h-39zM201 213v-102h48q48 0 48 51t-50 51h-46z" />
    <glyph glyph-name="uni0433" unicode="&#x433;" horiz-adv-x="371" 
d="M211 0h-172v523h311l17 -151h-156v-372z" />
    <glyph glyph-name="uni0434" unicode="&#x434;" horiz-adv-x="555" 
d="M8 -142v286h51q10 26 21.5 77t18.5 114q5 52 8 96.5t4 91.5h368v-379h68v-286h-154v142h-231v-142h-154zM239 307q-5 -48 -12.5 -89.5t-16.5 -73.5h105v235h-69q-1 -18 -3 -35t-4 -37z" />
    <glyph glyph-name="uni0435" unicode="&#x435;" horiz-adv-x="475" 
d="M453 264q0 -14 -1 -26.5t-3 -24.5h-261q16 -84 102 -84q33 0 59.5 7.5t56.5 26.5l26 -136q-70 -40 -166 -40q-112 0 -176.5 73t-64.5 201q0 85 27 146.5t77 95t118 33.5q98 0 152 -70.5t54 -201.5zM245 408q-26 0 -40 -22t-17 -70h110q-3 51 -15 71.5t-38 20.5z" />
    <glyph glyph-name="uni0436" unicode="&#x436;" horiz-adv-x="772" 
d="M187 0h-182l124 282l-118 241h180l77 -185h35v185h166v-185h35l77 185h180l-118 -241l124 -282h-182l-82 194h-34v-194h-166v194h-34z" />
    <glyph glyph-name="uni0437" unicode="&#x437;" horiz-adv-x="414" 
d="M166 407q-34 0 -66 -9.5t-58 -24.5l-26 114q24 18 71 33.5t112 15.5q91 0 138 -37t47 -105q0 -36 -19 -68.5t-53 -50.5q41 -15 63.5 -47.5t22.5 -71.5q0 -169 -198 -169q-49 0 -101.5 13t-84.5 38l31 116q19 -14 52.5 -26t67.5 -12q69 0 69 46q0 23 -16.5 36t-41.5 13
h-68v112h57q25 0 40 10.5t15 34.5q0 20 -14.5 29.5t-39.5 9.5z" />
    <glyph glyph-name="uni0438" unicode="&#x438;" horiz-adv-x="512" 
d="M39 523h167v-234l104 234h163v-523h-167v227l-104 -227h-163v523z" />
    <glyph glyph-name="uni0439" unicode="&#x439;" horiz-adv-x="512" 
d="M39 523h167v-234l104 234h163v-523h-167v227l-104 -227h-163v523zM256 582q-75 0 -119.5 34.5t-55.5 122.5l137 17q2 -52 12 -67t26 -15t26.5 15t11.5 67l137 -17q-10 -88 -55 -122.5t-120 -34.5z" />
    <glyph glyph-name="uni043A" unicode="&#x43a;" horiz-adv-x="525" 
d="M211 0h-172v523h172v-185h39l84 185h180l-125 -241l131 -282h-182l-89 194h-38v-194z" />
    <glyph glyph-name="uni043B" unicode="&#x43b;" horiz-adv-x="524" 
d="M95 523h390v-523h-172v379h-71q-2 -40 -4 -76.5t-3 -55.5q-7 -91 -22.5 -146t-47.5 -80t-88 -25q-17 0 -37.5 3.5t-31.5 9.5l12 141q8 -3 20 -3q20 0 30 24t14 98q3 48 5 85.5t3.5 77t2.5 91.5z" />
    <glyph glyph-name="uni043C" unicode="&#x43c;" horiz-adv-x="651" 
d="M276 78l-80 215v-293h-157v523h197l93 -249l93 249h190v-523h-157v293l-79 -215h-100z" />
    <glyph glyph-name="uni043D" unicode="&#x43d;" horiz-adv-x="506" 
d="M211 0h-172v523h172v-181h84v181h172v-523h-172v198h-84v-198z" />
    <glyph glyph-name="uni043E" unicode="&#x43e;" horiz-adv-x="512" 
d="M256 -13q-70 0 -122 34t-80.5 96t-28.5 145t28.5 144.5t80.5 95.5t122 34t122 -34t80.5 -95.5t28.5 -144.5t-28.5 -145t-80.5 -96t-122 -34zM256 139q30 0 43.5 32t13.5 91t-13.5 90.5t-43.5 31.5t-43.5 -31.5t-13.5 -90.5t13.5 -91t43.5 -32z" />
    <glyph glyph-name="uni043F" unicode="&#x43f;" horiz-adv-x="504" 
d="M211 0h-172v523h426v-523h-172v379h-82v-379z" />
    <glyph glyph-name="uni0440" unicode="&#x440;" horiz-adv-x="517" 
d="M315 -13q-66 0 -104 56v-259h-172v739h150l5 -71q39 84 125 84q53 0 92 -34t60 -95.5t21 -144.5q0 -81 -22 -143t-61.5 -97t-93.5 -35zM198 262q0 -59 15 -91t46 -32t45 32t14 91t-14 90.5t-45 31.5t-46 -31.5t-15 -90.5z" />
    <glyph glyph-name="uni0441" unicode="&#x441;" horiz-adv-x="437" 
d="M25 257q0 83 31.5 146t90 98t138.5 35q32 0 65.5 -8t58.5 -24l-29 -147q-20 14 -39.5 20.5t-42.5 6.5q-46 0 -72.5 -32t-26.5 -89q0 -60 26 -92t74 -32q43 0 88 29l28 -144q-28 -18 -63 -27.5t-71 -9.5q-120 0 -188 72t-68 198z" />
    <glyph glyph-name="uni0442" unicode="&#x442;" horiz-adv-x="444" 
d="M308 0h-172v379h-129v144h430v-144h-129v-379z" />
    <glyph glyph-name="uni0443" unicode="&#x443;" horiz-adv-x="517" 
d="M35 -208l17 142q26 -13 65 -13q26 0 39 12t24 40l-175 550h186l69 -333l72 333h180l-169 -541q-23 -74 -48.5 -121t-62 -68.5t-94.5 -21.5q-32 0 -54.5 4.5t-48.5 16.5z" />
    <glyph glyph-name="uni0444" unicode="&#x444;" horiz-adv-x="679" 
d="M255 -216v209q-116 19 -173 90t-57 178q0 108 55.5 179t174.5 90v170h169v-170q119 -19 174.5 -90t55.5 -179q0 -107 -56.5 -177.5t-173.5 -90.5v-209h-169zM487 261q0 55 -19.5 87.5t-54.5 47.5v-269q43 15 58.5 50t15.5 84zM192 261q0 -49 15 -84.5t59 -50.5v269
q-74 -30 -74 -134z" />
    <glyph glyph-name="uni0445" unicode="&#x445;" horiz-adv-x="525" 
d="M12 0l161 272l-156 251h177l71 -134l70 134h173l-155 -253l160 -270h-181l-73 144l-72 -144h-175z" />
    <glyph glyph-name="uni0446" unicode="&#x446;" horiz-adv-x="540" 
d="M532 144v-286h-154v142h-339v523h172v-379h81v379h172v-379h68z" />
    <glyph glyph-name="uni0447" unicode="&#x447;" horiz-adv-x="489" 
d="M22 349v174h172v-154q0 -34 13.5 -51t35.5 -17q19 0 35 6v216h172v-523h-172v173q-45 -18 -80 -18q-91 0 -133.5 49t-42.5 145z" />
    <glyph glyph-name="uni0448" unicode="&#x448;" horiz-adv-x="732" 
d="M693 0h-654v523h166v-379h80v379h162v-379h80v379h166v-523z" />
    <glyph glyph-name="uni0449" unicode="&#x449;" horiz-adv-x="769" 
d="M761 144v-286h-154v142h-568v523h166v-379h80v379h162v-379h80v379h166v-379h68z" />
    <glyph glyph-name="uni044A" unicode="&#x44a;" horiz-adv-x="546" 
d="M330 0h-212v372h-113l17 151h268v-160h42q95 0 147.5 -44t52.5 -127q0 -90 -54.5 -141t-147.5 -51zM290 252v-141h26q44 0 44 71q0 70 -42 70h-28z" />
    <glyph glyph-name="uni044B" unicode="&#x44b;" horiz-adv-x="713" 
d="M39 0v523h172v-160h42q95 0 147.5 -44t52.5 -127q0 -90 -54.5 -141t-147.5 -51h-212zM502 0v523h172v-523h-172zM211 111h26q44 0 44 71q0 70 -42 70h-28v-141z" />
    <glyph glyph-name="uni044C" unicode="&#x44c;" horiz-adv-x="467" 
d="M251 0h-212v523h172v-160h42q95 0 147.5 -44t52.5 -127q0 -90 -54.5 -141t-147.5 -51zM211 252v-141h26q44 0 44 71q0 70 -42 70h-28z" />
    <glyph glyph-name="uni044D" unicode="&#x44d;" horiz-adv-x="443" 
d="M186 -13q-52 0 -95.5 10.5t-71.5 24.5l27 142q24 -14 51.5 -22.5t58.5 -8.5q44 0 67.5 15t31.5 59h-164v113h163q-10 40 -34.5 55.5t-62.5 15.5q-29 0 -53 -6.5t-56 -21.5l-26 142q23 14 58.5 23t81.5 9q122 0 189 -73t67 -203q0 -132 -63.5 -203t-168.5 -71z" />
    <glyph glyph-name="uni044E" unicode="&#x44e;" horiz-adv-x="723" 
d="M211 0h-172v523h172v-181h33q19 89 77.5 141.5t145.5 52.5q70 0 122 -34t80.5 -95.5t28.5 -144.5t-28.5 -145t-80.5 -96t-122 -34q-91 0 -151 57t-75 154h-30v-198zM467 139q30 0 43.5 32t13.5 91t-13.5 90.5t-43.5 31.5t-43.5 -31.5t-13.5 -90.5t13.5 -91t43.5 -32z" />
    <glyph glyph-name="uni044F" unicode="&#x44f;" horiz-adv-x="463" 
d="M6 0l83 194q-64 47 -64 145q0 89 52.5 136.5t149.5 47.5h197v-523h-168v155h-16l-57 -155h-177zM256 412h-23q-40 0 -40 -73t40 -73h23v146z" />
    <glyph glyph-name="uni0450" unicode="&#x450;" horiz-adv-x="475" 
d="M453 264q0 -14 -1 -26.5t-3 -24.5h-261q16 -84 102 -84q33 0 59.5 7.5t56.5 26.5l26 -136q-70 -40 -166 -40q-112 0 -176.5 73t-64.5 201q0 85 27 146.5t77 95t118 33.5q98 0 152 -70.5t54 -201.5zM245 408q-26 0 -40 -22t-17 -70h110q-3 51 -15 71.5t-38 20.5zM194 594
l-147 158h190l110 -158h-153z" />
    <glyph glyph-name="uni0451" unicode="&#x451;" horiz-adv-x="475" 
d="M453 264q0 -14 -1 -26.5t-3 -24.5h-261q16 -84 102 -84q33 0 59.5 7.5t56.5 26.5l26 -136q-70 -40 -166 -40q-112 0 -176.5 73t-64.5 201q0 85 27 146.5t77 95t118 33.5q98 0 152 -70.5t54 -201.5zM245 408q-26 0 -40 -22t-17 -70h110q-3 51 -15 71.5t-38 20.5zM133 589
q-37 0 -59.5 24t-22.5 60q0 37 22.5 60.5t59.5 23.5t59.5 -23.5t22.5 -60.5q0 -36 -22.5 -60t-59.5 -24zM361 589q-37 0 -59.5 24t-22.5 60q0 37 22.5 60.5t59.5 23.5t59.5 -23.5t22.5 -60.5q0 -36 -22.5 -60t-59.5 -24z" />
    <glyph glyph-name="uni0452" unicode="&#x452;" horiz-adv-x="510" 
d="M305 -137q-46 0 -67 13l13 141q11 -3 25 -3q11 0 19.5 12.5t13 48t4.5 105.5q0 102 -9.5 144.5t-36.5 42.5q-25 0 -35.5 -20.5t-10.5 -61.5v-285h-172v583h-42v97h42v60h172v-60h129v-97h-129v-122q37 63 111 63q76 0 114.5 -75t38.5 -251q0 -130 -22.5 -203t-63 -102.5
t-94.5 -29.5z" />
    <glyph glyph-name="uni0453" unicode="&#x453;" horiz-adv-x="371" 
d="M211 0h-172v523h311l17 -151h-156v-372zM254 594h-153l110 158h190z" />
    <glyph glyph-name="uni0454" unicode="&#x454;" horiz-adv-x="443" 
d="M257 -13q-105 0 -168.5 71t-63.5 203q0 130 67 203t189 73q46 0 81.5 -9t58.5 -23l-26 -142q-31 15 -55.5 21.5t-53.5 6.5q-38 0 -62.5 -15.5t-34.5 -55.5h163v-113h-164q8 -44 31.5 -59t67.5 -15q31 0 58.5 8.5t51.5 22.5l27 -142q-28 -14 -71 -24.5t-96 -10.5z" />
    <glyph glyph-name="uni0455" unicode="&#x455;" horiz-adv-x="422" 
d="M194 -13q-53 0 -94.5 10t-85.5 35l31 133q35 -22 65.5 -31.5t67.5 -9.5q23 0 37.5 8.5t14.5 24.5q0 14 -12 23.5t-45 19.5q-73 21 -109.5 60t-36.5 100q0 81 56 128.5t153 47.5q92 0 157 -40l-30 -133q-32 20 -57.5 28t-59.5 8q-23 0 -37.5 -8t-14.5 -24q0 -13 12 -22.5
t45 -19.5q76 -22 113 -61t37 -100q0 -81 -56 -129t-151 -48z" />
    <glyph glyph-name="uni0456" unicode="&#x456;" horiz-adv-x="250" 
d="M125 568q-46 0 -74 28.5t-28 71.5q0 44 28 72t74 28q47 0 74.5 -28t27.5 -72q0 -43 -27.5 -71.5t-74.5 -28.5zM39 0v523h172v-523h-172z" />
    <glyph glyph-name="uni0457" unicode="&#x457;" horiz-adv-x="250" 
d="M39 0v523h172v-523h-172zM11 589q-37 0 -59.5 24t-22.5 60q0 37 22.5 60.5t59.5 23.5t59.5 -23.5t22.5 -60.5q0 -36 -22.5 -60t-59.5 -24zM239 589q-37 0 -59.5 24t-22.5 60q0 37 22.5 60.5t59.5 23.5t59.5 -23.5t22.5 -60.5q0 -36 -22.5 -60t-59.5 -24z" />
    <glyph glyph-name="uni0458" unicode="&#x458;" horiz-adv-x="250" 
d="M125 568q-46 0 -74 28.5t-28 71.5q0 44 28 72t74 28q47 0 74.5 -28t27.5 -72q0 -43 -27.5 -71.5t-74.5 -28.5zM-92 -205l23 140q26 -13 54 -13q31 0 42.5 19t11.5 65v517h172v-533q0 -111 -46.5 -165t-142.5 -54q-32 0 -60 5.5t-54 18.5z" />
    <glyph glyph-name="uni0459" unicode="&#x459;" horiz-adv-x="729" 
d="M95 523h378v-160h42q95 0 147.5 -44t52.5 -127q0 -90 -54.5 -141t-147.5 -51h-212v379h-59q-2 -40 -4 -76.5t-3 -55.5q-7 -91 -22 -146t-47 -80t-89 -25q-17 0 -37.5 3.5t-31.5 9.5l12 141q8 -3 20 -3q20 0 30 24t14 98q3 48 5 85.5t3.5 77t2.5 91.5zM501 252h-28v-141
h26q44 0 44 71q0 70 -42 70z" />
    <glyph glyph-name="uni045A" unicode="&#x45a;" horiz-adv-x="726" 
d="M211 0h-172v523h172v-177h81v177h178v-160h42q95 0 147.5 -44t52.5 -127q0 -90 -54.5 -141t-147.5 -51h-218v195h-81v-195zM498 252h-28v-141h26q44 0 44 71q0 70 -42 70z" />
    <glyph glyph-name="uni045B" unicode="&#x45b;" horiz-adv-x="512" 
d="M350 583h-129v-122q37 63 111 63q145 0 145 -205v-319h-172v290q0 42 -7.5 59.5t-30.5 17.5q-25 0 -35.5 -20.5t-10.5 -61.5v-285h-172v583h-42v97h42v60h172v-60h129v-97z" />
    <glyph glyph-name="uni045C" unicode="&#x45c;" horiz-adv-x="525" 
d="M211 0h-172v523h172v-185h39l84 185h180l-125 -241l131 -282h-182l-89 194h-38v-194zM306 594h-153l110 158h190z" />
    <glyph glyph-name="uni045D" unicode="&#x45d;" horiz-adv-x="512" 
d="M39 523h167v-234l104 234h163v-523h-167v227l-104 -227h-163v523zM203 594l-147 158h190l110 -158h-153z" />
    <glyph glyph-name="uni045E" unicode="&#x45e;" horiz-adv-x="517" 
d="M35 -208l17 142q26 -13 65 -13q26 0 39 12t24 40l-175 550h186l69 -333l72 333h180l-169 -541q-23 -74 -48.5 -121t-62 -68.5t-94.5 -21.5q-32 0 -54.5 4.5t-48.5 16.5zM258 582q-75 0 -119.5 34.5t-55.5 122.5l137 17q2 -52 12 -67t26 -15t26.5 15t11.5 67l137 -17
q-10 -88 -55 -122.5t-120 -34.5z" />
    <glyph glyph-name="uni045F" unicode="&#x45f;" horiz-adv-x="503" 
d="M175 -142v142h-136v523h172v-379h81v379h172v-523h-135v-142h-154z" />
    <glyph glyph-name="uni0462" unicode="&#x462;" horiz-adv-x="537" 
d="M306 0h-262v536h-59v112h59v52h180v-52h115v-112h-115v-50h71q101 0 160 -66t59 -180q0 -116 -53.5 -178t-154.5 -62zM224 343v-200h57q28 0 43 26t15 74q0 100 -58 100h-57z" />
    <glyph glyph-name="uni0463" unicode="&#x463;" horiz-adv-x="467" 
d="M39 0v422h-57v100h57v218h172v-218h124v-100h-124v-59h42q95 0 147.5 -44t52.5 -127q0 -90 -54.5 -141t-147.5 -51h-212zM211 111h26q44 0 44 71q0 70 -42 70h-28v-141z" />
    <glyph glyph-name="uni0472" unicode="&#x472;" horiz-adv-x="660" 
d="M330 -16q-91 0 -159.5 45.5t-106 128t-37.5 192.5t37.5 192.5t106 128t159.5 45.5q92 0 160 -45.5t105.5 -128t37.5 -192.5t-37.5 -192.5t-105.5 -128t-160 -45.5zM321 412q36 -17 60 -17q11 0 27 4.5t39 15.5q-10 68 -40 106.5t-77 38.5q-46 0 -76 -37t-40 -103
q21 9 40 9q33 0 67 -17zM330 140q49 0 79.5 41.5t38.5 115.5q-21 -15 -39.5 -21.5t-34.5 -6.5q-33 0 -67 17q-36 17 -60 17q-6 0 -14.5 -1.5t-20.5 -5.5q8 -74 38.5 -115t79.5 -41z" />
    <glyph glyph-name="uni0473" unicode="&#x473;" horiz-adv-x="512" 
d="M256 -13q-70 0 -122 34t-80.5 96t-28.5 145t28.5 144.5t80.5 95.5t122 34t122 -34t80.5 -95.5t28.5 -144.5t-28.5 -145t-80.5 -96t-122 -34zM261 305q25 -12 44 -12q9 0 17 1q-4 48 -20.5 74t-45.5 26q-26 0 -42 -21t-21 -59q10 3 21 3q8 0 20 -2.5t27 -9.5zM256 129
q49 0 62 75q-11 -4 -21 -4q-8 0 -20 2.5t-27 9.5q-25 12 -44 12q-9 0 -15 -1q4 -45 20.5 -69.5t44.5 -24.5z" />
    <glyph glyph-name="uni0474" unicode="&#x474;" horiz-adv-x="643" 
d="M638 694l-23 -146q-3 1 -7 1.5t-10 0.5q-22 0 -34 -22.5t-30 -83.5l-133 -444h-184l-210 700h197l108 -483l62 278q15 68 37 115t56.5 72t89.5 25q18 0 40 -2.5t41 -10.5z" />
    <glyph glyph-name="uni0475" unicode="&#x475;" horiz-adv-x="524" 
d="M345 0h-184l-156 523h186l69 -337l43 200q15 70 47 106t101 36q18 0 37.5 -2t30.5 -5l-20 -129q-3 1 -13 1t-16.5 -9t-15.5 -38z" />
    <glyph glyph-name="uni0490" unicode="&#x490;" horiz-adv-x="458" 
d="M44 0v700h236v140h168v-301h-224v-539h-180z" />
    <glyph glyph-name="uni0491" unicode="&#x491;" horiz-adv-x="371" 
d="M211 0h-172v523h174v111h154v-262h-156v-372z" />
    <glyph glyph-name="uni0492" unicode="&#x492;" horiz-adv-x="479" 
d="M65 0v266h-63v145h63v289h385l19 -161h-224v-128h156v-145h-156v-266h-180z" />
    <glyph glyph-name="uni0493" unicode="&#x493;" horiz-adv-x="384" 
d="M224 0h-172v151h-46v124h46v248h311l17 -151h-156v-97h102v-124h-102v-151z" />
    <glyph glyph-name="uni0496" unicode="&#x496;" horiz-adv-x="948" 
d="M7 0l175 371l-150 329h197l104 -263h43v263h180v-263h43l104 263h197l-150 -329l99 -210h79v-331h-166v170h-43l-114 274h-49v-274h-180v274h-49l-114 -274h-206z" />
    <glyph glyph-name="uni0497" unicode="&#x497;" horiz-adv-x="779" 
d="M187 0h-182l124 282l-118 241h180l77 -185h35v185h166v-185h35l77 185h180l-118 -241l61 -138h67v-286h-154v142h-32l-82 194h-34v-194h-166v194h-34z" />
    <glyph glyph-name="uni049A" unicode="&#x49a;" horiz-adv-x="621" 
d="M44 0v700h180v-263h48l104 263h197l-150 -329l99 -210h79v-331h-166v170h-43l-114 274h-54v-274h-180z" />
    <glyph glyph-name="uni049B" unicode="&#x49b;" horiz-adv-x="529" 
d="M211 0h-172v523h172v-185h39l84 185h180l-125 -241l64 -138h68v-286h-154v142h-29l-89 194h-38v-194z" />
    <glyph glyph-name="uni04A2" unicode="&#x4a2;" horiz-adv-x="663" 
d="M44 0v700h180v-264h162v264h180v-539h77v-331h-166v170h-91v273h-162v-273h-180z" />
    <glyph glyph-name="uni04A3" unicode="&#x4a3;" horiz-adv-x="543" 
d="M211 0h-172v523h172v-181h84v181h172v-379h68v-286h-154v142h-86v198h-84v-198z" />
    <glyph glyph-name="uni04AE" unicode="&#x4ae;" horiz-adv-x="614" 
d="M217 0v271l-209 429h210l92 -266l93 266h203l-209 -429v-271h-180z" />
    <glyph glyph-name="uni04AF" unicode="&#x4af;" horiz-adv-x="514" 
d="M171 30l-166 493h186l69 -334l69 334h180l-166 -493v-246h-172v246z" />
    <glyph glyph-name="uni04B0" unicode="&#x4b0;" horiz-adv-x="614" 
d="M217 0v120h-130v147h130v4l-209 429h210l92 -266l93 266h203l-209 -429v-4h130v-147h-130v-120h-180z" />
    <glyph glyph-name="uni04B1" unicode="&#x4b1;" horiz-adv-x="514" 
d="M171 -216v216h-119v131h85l-132 392h186l69 -334l69 334h180l-132 -392h86v-131h-120v-216h-172z" />
    <glyph glyph-name="uni04BA" unicode="&#x4ba;" horiz-adv-x="587" 
d="M44 0v700h180v-258q36 10 64.5 14.5t58.5 4.5q78 0 121.5 -28.5t61 -81t17.5 -126.5v-225h-180v208q0 50 -15.5 73t-56.5 23q-34 0 -71 -13v-291h-180z" />
    <glyph glyph-name="uni04BB" unicode="&#x4bb;" horiz-adv-x="502" 
d="M211 297v-297h-172v740h172v-267q37 63 111 63q145 0 145 -205v-331h-172v302q0 42 -7.5 59.5t-30.5 17.5q-25 0 -35.5 -20.5t-10.5 -61.5z" />
    <glyph glyph-name="uni04D8" unicode="&#x4d8;" horiz-adv-x="599" 
d="M572 351q0 -111 -35 -193.5t-99.5 -128t-151.5 -45.5q-125 0 -192 95t-67 270q0 13 1.5 30t4.5 35h351q-7 76 -37 109t-92 33q-40 0 -69.5 -10.5t-54.5 -24.5l-46 145q42 24 95 37t105 13q90 0 154.5 -44t98.5 -126t34 -195zM290 144q82 0 95 127h-176q4 -66 24 -96.5
t57 -30.5z" />
    <glyph glyph-name="uni04D9" unicode="&#x4d9;" horiz-adv-x="475" 
d="M228 -13q-97 0 -151.5 71t-54.5 201q0 14 1 26.5t3 24.5h261q-16 84 -102 84q-33 0 -59.5 -7.5t-56.5 -26.5l-26 136q70 40 166 40q113 0 177 -73t64 -201q0 -84 -27 -146t-76.5 -95.5t-118.5 -33.5zM230 115q26 0 40 22t17 70h-110q3 -51 15 -71.5t38 -20.5z" />
    <glyph glyph-name="uni04E8" unicode="&#x4e8;" horiz-adv-x="660" 
d="M330 -16q-91 0 -159.5 45.5t-106 128t-37.5 192.5t37.5 192.5t106 128t159.5 45.5q92 0 160 -45.5t105.5 -128t37.5 -192.5t-37.5 -192.5t-105.5 -128t-160 -45.5zM330 560q-46 0 -76 -37t-40 -103h232q-10 66 -40 103t-76 37zM330 140q48 0 78 39t39 110h-234
q9 -71 39 -110t78 -39z" />
    <glyph glyph-name="uni04E9" unicode="&#x4e9;" horiz-adv-x="512" 
d="M256 -13q-70 0 -122 34t-80.5 96t-28.5 145t28.5 144.5t80.5 95.5t122 34t122 -34t80.5 -95.5t28.5 -144.5t-28.5 -145t-80.5 -96t-122 -34zM256 394q-26 0 -42 -21.5t-22 -60.5h128q-6 39 -22 60.5t-42 21.5zM256 129q27 0 43 22.5t21 64.5h-128q5 -42 21 -64.5
t43 -22.5z" />
    <glyph glyph-name="uni0E3F" unicode="&#xe3f;" horiz-adv-x="506" 
d="M492 197q0 -91 -57.5 -144t-156.5 -53v-110h-62v110h-180v684h184v110h62v-110q84 -5 133.5 -53t49.5 -127q0 -49 -23.5 -88.5t-61.5 -56.5q50 -12 81 -55.5t31 -106.5zM188 405h30l1 157h-31v-157zM312 487q0 49 -31 67l-1 -141q32 19 32 74zM188 124h29l1 175h-30v-175
zM334 212q0 34 -13.5 56t-40.5 29l-1 -171q55 11 55 86z" />
    <glyph glyph-name="uni1E24" unicode="&#x1e24;" horiz-adv-x="610" 
d="M44 0v700h180v-264h162v264h180v-700h-180v273h-162v-273h-180zM305 -241q-38 0 -62 25t-24 63t24 63t62 25t62 -25t24 -63t-24 -63t-62 -25z" />
    <glyph glyph-name="uni1E25" unicode="&#x1e25;" horiz-adv-x="502" 
d="M211 297v-297h-172v740h172v-267q37 63 111 63q145 0 145 -205v-331h-172v302q0 42 -7.5 59.5t-30.5 17.5q-25 0 -35.5 -20.5t-10.5 -61.5zM253 -239q-38 0 -61.5 24.5t-23.5 61.5q0 39 23.5 63.5t61.5 24.5t61.5 -24.5t23.5 -63.5q0 -37 -23.5 -61.5t-61.5 -24.5z" />
    <glyph glyph-name="uni1E36" unicode="&#x1e36;" horiz-adv-x="481" 
d="M44 0v700h180v-539h253l-19 -161h-414zM269 -241q-38 0 -62 25t-24 63t24 63t62 25t62 -25t24 -63t-24 -63t-62 -25z" />
    <glyph glyph-name="uni1E37" unicode="&#x1e37;" horiz-adv-x="250" 
d="M39 0v740h172v-740h-172zM125 -239q-38 0 -61.5 24.5t-23.5 61.5q0 39 23.5 63.5t61.5 24.5t61.5 -24.5t23.5 -63.5q0 -37 -23.5 -61.5t-61.5 -24.5z" />
    <glyph glyph-name="Wgrave" unicode="&#x1e80;" horiz-adv-x="837" 
d="M503 0l-85 490l-84 -490h-184l-140 700h192l58 -461l70 461h179l73 -466l59 466h186l-140 -700h-184zM348 772l-150 132h207l126 -132h-183z" />
    <glyph glyph-name="wgrave" unicode="&#x1e81;" horiz-adv-x="719" 
d="M125 0l-117 523h174l45 -337l49 337h172l50 -333l45 333h168l-117 -523h-176l-59 370l-58 -370h-176zM309 594l-147 158h190l110 -158h-153z" />
    <glyph glyph-name="Wacute" unicode="&#x1e82;" horiz-adv-x="837" 
d="M503 0l-85 490l-84 -490h-184l-140 700h192l58 -461l70 461h179l73 -466l59 466h186l-140 -700h-184zM492 772h-183l126 132h207z" />
    <glyph glyph-name="wacute" unicode="&#x1e83;" horiz-adv-x="719" 
d="M125 0l-117 523h174l45 -337l49 337h172l50 -333l45 333h168l-117 -523h-176l-59 370l-58 -370h-176zM415 594h-153l110 158h190z" />
    <glyph glyph-name="Wdieresis" unicode="&#x1e84;" horiz-adv-x="837" 
d="M503 0l-85 490l-84 -490h-184l-140 700h192l58 -461l70 461h179l73 -466l59 466h186l-140 -700h-184zM300 763q-37 0 -60 24t-23 61q0 38 23 61.5t60 23.5q38 0 60.5 -23.5t22.5 -61.5q0 -37 -22.5 -61t-60.5 -24zM540 763q-37 0 -60 24t-23 61q0 38 23 61.5t60 23.5
q38 0 60.5 -23.5t22.5 -61.5q0 -37 -22.5 -61t-60.5 -24z" />
    <glyph glyph-name="wdieresis" unicode="&#x1e85;" horiz-adv-x="719" 
d="M125 0l-117 523h174l45 -337l49 337h172l50 -333l45 333h168l-117 -523h-176l-59 370l-58 -370h-176zM248 589q-37 0 -59.5 24t-22.5 60q0 37 22.5 60.5t59.5 23.5t59.5 -23.5t22.5 -60.5q0 -36 -22.5 -60t-59.5 -24zM476 589q-37 0 -59.5 24t-22.5 60q0 37 22.5 60.5
t59.5 23.5t59.5 -23.5t22.5 -60.5q0 -36 -22.5 -60t-59.5 -24z" />
    <glyph glyph-name="uni1E9E" unicode="&#x1e9e;" horiz-adv-x="604" 
d="M580 204q0 -102 -57 -161t-155 -59q-73 0 -121 24l39 146q20 -16 54 -16q27 0 43 18.5t16 49.5q0 41 -24.5 60t-85.5 24l-12 1v122l100 136q-25 10 -57 10q-100 0 -100 -145v-414h-180v431q0 140 71.5 212.5t203.5 72.5q60 0 117.5 -16t107.5 -46v-134l-90 -127
q63 -19 96.5 -66.5t33.5 -122.5z" />
    <glyph glyph-name="Ygrave" unicode="&#x1ef2;" horiz-adv-x="614" 
d="M217 0v271l-209 429h210l92 -266l93 266h203l-209 -429v-271h-180zM239 772l-150 132h207l126 -132h-183z" />
    <glyph glyph-name="ygrave" unicode="&#x1ef3;" horiz-adv-x="517" 
d="M35 -208l17 142q26 -13 65 -13q26 0 39 12t24 40l-175 550h186l69 -333l72 333h180l-169 -541q-23 -74 -48.5 -121t-62 -68.5t-94.5 -21.5q-32 0 -54.5 4.5t-48.5 16.5zM205 594l-147 158h190l110 -158h-153z" />
    <glyph glyph-name="uni2000" unicode="&#x2000;" horiz-adv-x="390" 
 />
    <glyph glyph-name="uni2001" unicode="&#x2001;" horiz-adv-x="780" 
 />
    <glyph glyph-name="uni2002" unicode="&#x2002;" horiz-adv-x="390" 
 />
    <glyph glyph-name="uni2003" unicode="&#x2003;" horiz-adv-x="780" 
 />
    <glyph glyph-name="uni2004" unicode="&#x2004;" horiz-adv-x="260" 
 />
    <glyph glyph-name="uni2005" unicode="&#x2005;" horiz-adv-x="195" 
 />
    <glyph glyph-name="uni2006" unicode="&#x2006;" horiz-adv-x="130" 
 />
    <glyph glyph-name="uni2007" unicode="&#x2007;" horiz-adv-x="506" 
 />
    <glyph glyph-name="uni2008" unicode="&#x2008;" horiz-adv-x="258" 
 />
    <glyph glyph-name="uni2009" unicode="&#x2009;" horiz-adv-x="156" 
 />
    <glyph glyph-name="uni200A" unicode="&#x200a;" horiz-adv-x="48" 
 />
    <glyph glyph-name="uni200B" unicode="&#x200b;" 
 />
    <glyph glyph-name="endash" unicode="&#x2013;" horiz-adv-x="390" 
d="M0 223v147h390v-147h-390z" />
    <glyph glyph-name="emdash" unicode="&#x2014;" horiz-adv-x="780" 
d="M0 223v147h780v-147h-780z" />
    <glyph glyph-name="quoteleft" unicode="&#x2018;" horiz-adv-x="258" 
d="M27 483q0 54 21 102t59.5 84.5t88.5 54.5l46 -64q-41 -14 -71.5 -42.5t-45.5 -64.5h10q41 0 68.5 -26t27.5 -70q0 -46 -28 -74t-72 -28q-48 0 -76 34t-28 94z" />
    <glyph glyph-name="quoteright" unicode="&#x2019;" horiz-adv-x="258" 
d="M231 586q0 -53 -21 -101.5t-59 -84.5t-89 -55l-46 64q41 14 71.5 42.5t45.5 64.5h-10q-41 0 -68.5 26.5t-27.5 69.5q0 46 28.5 74t71.5 28q48 0 76 -34t28 -94z" />
    <glyph glyph-name="quotesinglbase" unicode="&#x201a;" horiz-adv-x="258" 
d="M231 71q0 -53 -21 -101.5t-59 -84.5t-89 -55l-46 64q41 14 71.5 42.5t45.5 64.5h-10q-41 0 -68.5 26.5t-27.5 69.5q0 46 28.5 74t71.5 28q48 0 76 -34t28 -94z" />
    <glyph glyph-name="quotedblleft" unicode="&#x201c;" horiz-adv-x="512" 
d="M27 483q0 54 21 102t59.5 84.5t88.5 54.5l46 -64q-41 -14 -71.5 -42.5t-45.5 -64.5h10q41 0 68.5 -26t27.5 -70q0 -46 -28 -74t-72 -28q-48 0 -76 34t-28 94zM281 483q0 54 21 102t59.5 84.5t88.5 54.5l46 -64q-41 -14 -71.5 -42.5t-45.5 -64.5h10q41 0 68.5 -26
t27.5 -70q0 -46 -28 -74t-72 -28q-48 0 -76 34t-28 94z" />
    <glyph glyph-name="quotedblright" unicode="&#x201d;" horiz-adv-x="512" 
d="M231 586q0 -53 -21 -101.5t-59 -84.5t-89 -55l-46 64q41 14 71.5 42.5t45.5 64.5h-10q-41 0 -68.5 26.5t-27.5 69.5q0 46 28.5 74t71.5 28q48 0 76 -34t28 -94zM485 586q0 -53 -21 -101.5t-59 -84.5t-89 -55l-46 64q41 14 71.5 42.5t45.5 64.5h-10q-41 0 -68.5 26.5
t-27.5 69.5q0 46 28.5 74t71.5 28q48 0 76 -34t28 -94z" />
    <glyph glyph-name="quotedblbase" unicode="&#x201e;" horiz-adv-x="512" 
d="M231 71q0 -53 -21 -101.5t-59 -84.5t-89 -55l-46 64q41 14 71.5 42.5t45.5 64.5h-10q-41 0 -68.5 26.5t-27.5 69.5q0 46 28.5 74t71.5 28q48 0 76 -34t28 -94zM485 71q0 -53 -21 -101.5t-59 -84.5t-89 -55l-46 64q41 14 71.5 42.5t45.5 64.5h-10q-41 0 -68.5 26.5
t-27.5 69.5q0 46 28.5 74t71.5 28q48 0 76 -34t28 -94z" />
    <glyph glyph-name="dagger" unicode="&#x2020;" horiz-adv-x="401" 
d="M289 -98h-177l14 499l-113 -5v150l113 -5l-14 199h177l-14 -199l113 5v-150l-113 5z" />
    <glyph glyph-name="daggerdbl" unicode="&#x2021;" horiz-adv-x="415" 
d="M119 321l14 99l-113 -5v150l113 -5l-14 180h177l-14 -180l113 5v-150l-113 5l14 -99l-14 -99l113 5v-150l-113 5l14 -180h-177l14 180l-113 -5v150l113 -5z" />
    <glyph glyph-name="bullet" unicode="&#x2022;" horiz-adv-x="310" 
d="M155 413q59 0 95.5 -39.5t36.5 -99.5t-36.5 -99.5t-95.5 -39.5q-58 0 -95 39.5t-37 99.5t37 99.5t95 39.5z" />
    <glyph glyph-name="ellipsis" unicode="&#x2026;" horiz-adv-x="760" 
d="M126 -12q-45 0 -73 29.5t-28 73.5q0 46 28 75t73 29t73 -29t28 -75q0 -44 -28 -73.5t-73 -29.5zM380 -12q-45 0 -73 29.5t-28 73.5q0 46 28 75t73 29t73 -29t28 -75q0 -44 -28 -73.5t-73 -29.5zM634 -12q-45 0 -73 29.5t-28 73.5q0 46 28 75t73 29t73 -29t28 -75
q0 -44 -28 -73.5t-73 -29.5z" />
    <glyph glyph-name="perthousand" unicode="&#x2030;" horiz-adv-x="1072" 
d="M318 0h-116l230 684h116zM589 -8q-68 0 -103.5 52t-35.5 149t35.5 149t103.5 52t103.5 -52t35.5 -149t-35.5 -149t-103.5 -52zM589 87q17 0 23 25.5t6 80.5t-6 80.5t-23 25.5q-16 0 -22.5 -25.5t-6.5 -80.5t6.5 -80.5t22.5 -25.5zM911 -8q-68 0 -103.5 52t-35.5 149
t35.5 149t103.5 52t103.5 -52t35.5 -149t-35.5 -149t-103.5 -52zM911 87q17 0 23 25.5t6 80.5t-6 80.5t-23 25.5q-16 0 -22.5 -25.5t-6.5 -80.5t6.5 -80.5t22.5 -25.5zM161 290q-68 0 -103.5 52t-35.5 149t35.5 149t103.5 52t103.5 -52t35.5 -149t-35.5 -149t-103.5 -52z
M161 385q17 0 23 25.5t6 80.5t-6 80.5t-23 25.5q-16 0 -22.5 -25.5t-6.5 -80.5t6.5 -80.5t22.5 -25.5z" />
    <glyph glyph-name="guilsinglleft" unicode="&#x2039;" horiz-adv-x="325" 
d="M126 52l-103 210l103 210h173l-95 -210l95 -210h-173z" />
    <glyph glyph-name="guilsinglright" unicode="&#x203a;" horiz-adv-x="325" 
d="M199 52h-173l95 210l-95 210h173l103 -210z" />
    <glyph glyph-name="fraction" unicode="&#x2044;" horiz-adv-x="106" 
d="M-4 0h-116l230 684h116z" />
    <glyph glyph-name="uni2070" unicode="&#x2070;" horiz-adv-x="322" 
d="M161 380q-68 0 -103.5 52t-35.5 149t35.5 149t103.5 52t103.5 -52t35.5 -149t-35.5 -149t-103.5 -52zM161 475q17 0 23 25.5t6 80.5t-6 80.5t-23 25.5q-16 0 -22.5 -25.5t-6.5 -80.5t6.5 -80.5t22.5 -25.5z" />
    <glyph glyph-name="uni2074" unicode="&#x2074;" horiz-adv-x="322" 
d="M264 388h-99v65h-150v84l144 237h105v-234h40l-10 -87h-30v-65zM165 540v101l-61 -101h61z" />
    <glyph glyph-name="uni2075" unicode="&#x2075;" horiz-adv-x="322" 
d="M288 513q0 -63 -40 -98t-112 -35q-31 0 -59.5 7t-48.5 20l23 87q33 -24 76 -24q54 0 54 40q0 39 -51 39q-10 0 -22.5 -1.5t-24.5 -5.5l-38 20l17 212h202l11 -94h-127l-4 -54q17 5 33 5q52 0 81.5 -31t29.5 -87z" />
    <glyph glyph-name="uni2076" unicode="&#x2076;" horiz-adv-x="322" 
d="M289 764l-26 -87q-14 6 -26 9t-29 3q-40 0 -60 -26t-20 -72q23 47 74 47q45 0 70.5 -34t25.5 -88q0 -62 -35 -99t-94 -37q-142 0 -142 191q0 98 46.5 154.5t128.5 56.5q47 0 87 -18zM168 557q-26 0 -26 -45t26 -45q28 0 28 45t-28 45z" />
    <glyph glyph-name="uni2077" unicode="&#x2077;" horiz-adv-x="322" 
d="M159 388h-117l138 291h-153l11 95h253v-89z" />
    <glyph glyph-name="uni2078" unicode="&#x2078;" horiz-adv-x="322" 
d="M161 380q-64 0 -101 31t-37 83q0 68 59 92q-50 26 -50 85q0 51 35.5 81t93.5 30q59 0 94 -30t35 -81q0 -59 -49 -85q58 -24 58 -92q0 -52 -37 -83t-101 -31zM161 624q29 0 29 36q0 38 -29 38t-29 -38q0 -36 29 -36zM161 465q32 0 32 39q0 40 -32 40t-32 -40q0 -39 32 -39
z" />
    <glyph glyph-name="uni2079" unicode="&#x2079;" horiz-adv-x="322" 
d="M36 398l26 87q14 -6 26.5 -9t28.5 -3q40 0 58 26t18 72q-22 -47 -73 -47q-45 0 -70.5 34t-25.5 88q0 62 35 99t93 37q143 0 143 -191q0 -98 -45 -154.5t-127 -56.5q-46 0 -87 18zM153 605q26 0 26 45t-26 45q-27 0 -27 -45t27 -45z" />
    <glyph glyph-name="uni2080" unicode="&#x2080;" horiz-adv-x="322" 
d="M161 -98q-68 0 -103.5 52t-35.5 149t35.5 149t103.5 52t103.5 -52t35.5 -149t-35.5 -149t-103.5 -52zM161 -3q17 0 23 25.5t6 80.5t-6 80.5t-23 25.5q-16 0 -22.5 -25.5t-6.5 -80.5t6.5 -80.5t22.5 -25.5z" />
    <glyph glyph-name="uni2081" unicode="&#x2081;" horiz-adv-x="322" 
d="M237 -90h-107v265l-53 -41l-50 78l114 84h96v-386z" />
    <glyph glyph-name="uni2082" unicode="&#x2082;" horiz-adv-x="322" 
d="M289 4l-11 -94h-244v77q25 23 44 42.5t33 35.5q32 37 45.5 57t13.5 45q0 41 -42 41q-38 0 -69 -31l-30 86q49 41 116 41q62 0 98 -32t36 -88q0 -34 -14.5 -64t-52.5 -74q-8 -9 -18 -19.5t-21 -22.5h116z" />
    <glyph glyph-name="uni2083" unicode="&#x2083;" horiz-adv-x="322" 
d="M26 -69l22 85q32 -24 80 -24q23 0 36.5 9.5t13.5 25.5q0 35 -57 35h-28v89h27q55 0 55 34q0 29 -44 29q-46 0 -75 -23l-22 81q20 15 49.5 23.5t62.5 8.5q63 0 98.5 -28t35.5 -78q0 -63 -63 -87q32 -11 50.5 -34.5t18.5 -56.5q0 -56 -39.5 -87t-111.5 -31q-69 0 -109 29z
" />
    <glyph glyph-name="uni2084" unicode="&#x2084;" horiz-adv-x="322" 
d="M264 -90h-99v65h-150v84l144 237h105v-234h40l-10 -87h-30v-65zM165 62v101l-61 -101h61z" />
    <glyph glyph-name="uni2085" unicode="&#x2085;" horiz-adv-x="322" 
d="M288 35q0 -63 -40 -98t-112 -35q-31 0 -59.5 7t-48.5 20l23 87q33 -24 76 -24q54 0 54 40q0 39 -51 39q-10 0 -22.5 -1.5t-24.5 -5.5l-38 20l17 212h202l11 -94h-127l-4 -54q17 5 33 5q52 0 81.5 -31t29.5 -87z" />
    <glyph glyph-name="uni2086" unicode="&#x2086;" horiz-adv-x="322" 
d="M289 286l-26 -87q-14 6 -26 9t-29 3q-40 0 -60 -26t-20 -72q23 47 74 47q45 0 70.5 -34t25.5 -88q0 -62 -35 -99t-94 -37q-142 0 -142 191q0 98 46.5 154.5t128.5 56.5q47 0 87 -18zM168 79q-26 0 -26 -45t26 -45q28 0 28 45t-28 45z" />
    <glyph glyph-name="uni2087" unicode="&#x2087;" horiz-adv-x="322" 
d="M159 -90h-117l138 291h-153l11 95h253v-89z" />
    <glyph glyph-name="uni2088" unicode="&#x2088;" horiz-adv-x="322" 
d="M161 -98q-64 0 -101 31t-37 83q0 68 59 92q-50 26 -50 85q0 51 35.5 81t93.5 30q59 0 94 -30t35 -81q0 -59 -49 -85q58 -24 58 -92q0 -52 -37 -83t-101 -31zM161 146q29 0 29 36q0 38 -29 38t-29 -38q0 -36 29 -36zM161 -13q32 0 32 39q0 40 -32 40t-32 -40q0 -39 32 -39
z" />
    <glyph glyph-name="uni2089" unicode="&#x2089;" horiz-adv-x="322" 
d="M36 -80l26 87q14 -6 26.5 -9t28.5 -3q40 0 58 26t18 72q-22 -47 -73 -47q-45 0 -70.5 34t-25.5 88q0 62 35 99t93 37q143 0 143 -191q0 -98 -45 -154.5t-127 -56.5q-46 0 -87 18zM153 127q26 0 26 45t-26 45q-27 0 -27 -45t27 -45z" />
    <glyph glyph-name="uni20A9" unicode="&#x20a9;" horiz-adv-x="832" 
d="M341 0h-181l-61 296h-88v91h69l-12 57h-57v91h39l-31 149h180l19 -149h94l19 149h173l20 -149h94l19 149h176l-31 -149h39v-91h-57l-12 -57h69v-91h-88l-61 -296h-181l-44 296h-65zM394 387h39l-20 137zM545 387h55l7 57h-70zM236 387h58l7 57h-72zM248 296l17 -137
l17 137h-34zM557 296l17 -120l15 120h-32z" />
    <glyph glyph-name="dong" unicode="&#x20ab;" horiz-adv-x="506" 
d="M498 540h-47v-540h-144l-5 65q-37 -78 -120 -78q-51 0 -89 31.5t-58.5 89.5t-20.5 135q0 76 21.5 133.5t60 90t90.5 32.5q64 0 100 -54v95h-106v94h106v50h165v-50h47v-94zM298 243q0 53 -14.5 82t-44.5 29t-44 -29t-14 -82t14 -82t44 -29q59 0 59 111zM451 -158h-427v94
h427v-94z" />
    <glyph glyph-name="Euro" unicode="&#x20ac;" horiz-adv-x="506" 
d="M391 221h-136q25 -81 101 -81q36 0 60.5 9.5t54.5 33.5l30 -148q-71 -49 -169 -49q-106 0 -172 60t-88 175h-54l12 94h32v27q0 15 1 30h-45l12 94h43q23 112 90 172t172 60q47 0 84.5 -10.5t71.5 -33.5l-30 -149q-27 22 -50 30.5t-53 8.5q-75 0 -102 -78h167l-12 -94
h-170q-1 -15 -1 -31v-26h163z" />
    <glyph glyph-name="uni20B4" unicode="&#x20b4;" horiz-adv-x="506" 
d="M485 374h-464v94h267q6 12 6 29q0 55 -69 55q-39 0 -71 -9t-70 -31l-30 139q40 23 90.5 35t106.5 12q98 0 153.5 -44t55.5 -121q0 -34 -17 -65h42v-94zM46 151q0 37 21 72h-46v94h464v-94h-259q-11 -14 -11 -36q0 -55 77 -55q42 0 76 10t75 35l32 -139q-84 -52 -208 -52
q-104 0 -162.5 43.5t-58.5 121.5z" />
    <glyph glyph-name="uni20B9" unicode="&#x20b9;" horiz-adv-x="506" 
d="M482 421h-64q-11 -63 -58.5 -102.5t-127.5 -51.5l227 -267h-221l-193 250v96h93q83 0 100 75h-194v94h194q-17 75 -100 75h-94v94h438v-90h-131q44 -30 61 -79h70v-94z" />
    <glyph glyph-name="uni20BA" unicode="&#x20ba;" horiz-adv-x="506" 
d="M232 0h-165v204l-47 -28v114l47 28v64l-47 -28v114l47 28v188h170v-86l108 65v-114l-108 -65v-64l108 65v-114l-108 -65v-154h10q36 0 53 39.5t17 122.5l171 -20q-2 -144 -67.5 -219t-188.5 -75z" />
    <glyph glyph-name="uni20BD" unicode="&#x20bd;" horiz-adv-x="506" 
d="M345 108h-105v-108h-171v108h-47v94h47v57h-47v94h47v331h213q96 0 152.5 -57.5t56.5 -155.5q0 -97 -58 -154.5t-157 -57.5h-36v-57h105v-94zM268 543h-28v-190h28q25 0 38.5 25t13.5 71q0 45 -13.5 69.5t-38.5 24.5z" />
    <glyph glyph-name="trademark" unicode="&#x2122;" horiz-adv-x="746" 
d="M215 308h-122v283h-86v109h295v-109h-87v-283zM445 308h-113v392h150l42 -206l43 206h147v-392h-113v218l-35 -152h-86l-35 158v-224z" />
    <glyph glyph-name="uni2150" unicode="&#x2150;" horiz-adv-x="750" 
d="M298 0h-116l230 684h116zM587 0h-117l138 291h-153l11 95h253v-89zM237 298h-107v265l-53 -41l-50 78l114 84h96v-386z" />
    <glyph glyph-name="uni2151" unicode="&#x2151;" horiz-adv-x="750" 
d="M308 0h-116l230 684h116zM464 10l26 87q14 -6 26.5 -9t28.5 -3q40 0 58 26t18 72q-22 -47 -73 -47q-45 0 -70.5 34t-25.5 88q0 62 35 99t93 37q143 0 143 -191q0 -98 -45 -154.5t-127 -56.5q-46 0 -87 18zM581 217q26 0 26 45t-26 45q-27 0 -27 -45t27 -45zM237 298h-107
v265l-53 -41l-50 78l114 84h96v-386z" />
    <glyph glyph-name="onethird" unicode="&#x2153;" horiz-adv-x="750" 
d="M302 0h-116l230 684h116zM454 21l22 85q32 -24 80 -24q23 0 36.5 9.5t13.5 25.5q0 35 -57 35h-28v89h27q55 0 55 34q0 29 -44 29q-46 0 -75 -23l-22 81q20 15 49.5 23.5t62.5 8.5q63 0 98.5 -28t35.5 -78q0 -63 -63 -87q32 -11 50.5 -34.5t18.5 -56.5q0 -56 -39.5 -87
t-111.5 -31q-69 0 -109 29zM237 298h-107v265l-53 -41l-50 78l114 84h96v-386z" />
    <glyph glyph-name="twothirds" unicode="&#x2154;" horiz-adv-x="750" 
d="M318 0h-116l230 684h116zM454 21l22 85q32 -24 80 -24q23 0 36.5 9.5t13.5 25.5q0 35 -57 35h-28v89h27q55 0 55 34q0 29 -44 29q-46 0 -75 -23l-22 81q20 15 49.5 23.5t62.5 8.5q63 0 98.5 -28t35.5 -78q0 -63 -63 -87q32 -11 50.5 -34.5t18.5 -56.5q0 -56 -39.5 -87
t-111.5 -31q-69 0 -109 29zM289 392l-11 -94h-244v77q25 23 44 42.5t33 35.5q32 37 45.5 57t13.5 45q0 41 -42 41q-38 0 -69 -31l-30 86q49 41 116 41q62 0 98 -32t36 -88q0 -34 -14.5 -64t-52.5 -74q-8 -9 -18 -19.5t-21 -22.5h116z" />
    <glyph glyph-name="uni2155" unicode="&#x2155;" horiz-adv-x="750" 
d="M308 0h-116l230 684h116zM716 125q0 -63 -40 -98t-112 -35q-31 0 -59.5 7t-48.5 20l23 87q33 -24 76 -24q54 0 54 40q0 39 -51 39q-10 0 -22.5 -1.5t-24.5 -5.5l-38 20l17 212h202l11 -94h-127l-4 -54q17 5 33 5q52 0 81.5 -31t29.5 -87zM237 298h-107v265l-53 -41
l-50 78l114 84h96v-386z" />
    <glyph glyph-name="uni2156" unicode="&#x2156;" horiz-adv-x="750" 
d="M328 0h-116l230 684h116zM716 125q0 -63 -40 -98t-112 -35q-31 0 -59.5 7t-48.5 20l23 87q33 -24 76 -24q54 0 54 40q0 39 -51 39q-10 0 -22.5 -1.5t-24.5 -5.5l-38 20l17 212h202l11 -94h-127l-4 -54q17 5 33 5q52 0 81.5 -31t29.5 -87zM289 392l-11 -94h-244v77
q25 23 44 42.5t33 35.5q32 37 45.5 57t13.5 45q0 41 -42 41q-38 0 -69 -31l-30 86q49 41 116 41q62 0 98 -32t36 -88q0 -34 -14.5 -64t-52.5 -74q-8 -9 -18 -19.5t-21 -22.5h116z" />
    <glyph glyph-name="uni2157" unicode="&#x2157;" horiz-adv-x="750" 
d="M318 0h-116l230 684h116zM716 125q0 -63 -40 -98t-112 -35q-31 0 -59.5 7t-48.5 20l23 87q33 -24 76 -24q54 0 54 40q0 39 -51 39q-10 0 -22.5 -1.5t-24.5 -5.5l-38 20l17 212h202l11 -94h-127l-4 -54q17 5 33 5q52 0 81.5 -31t29.5 -87zM26 319l22 85q32 -24 80 -24
q23 0 36.5 9.5t13.5 25.5q0 35 -57 35h-28v89h27q55 0 55 34q0 29 -44 29q-46 0 -75 -23l-22 81q20 15 49.5 23.5t62.5 8.5q63 0 98.5 -28t35.5 -78q0 -63 -63 -87q32 -11 50.5 -34.5t18.5 -56.5q0 -56 -39.5 -87t-111.5 -31q-69 0 -109 29z" />
    <glyph glyph-name="uni2158" unicode="&#x2158;" horiz-adv-x="750" 
d="M322 0h-116l230 684h116zM716 125q0 -63 -40 -98t-112 -35q-31 0 -59.5 7t-48.5 20l23 87q33 -24 76 -24q54 0 54 40q0 39 -51 39q-10 0 -22.5 -1.5t-24.5 -5.5l-38 20l17 212h202l11 -94h-127l-4 -54q17 5 33 5q52 0 81.5 -31t29.5 -87zM264 298h-99v65h-150v84l144 237
h105v-234h40l-10 -87h-30v-65zM165 450v101l-61 -101h61z" />
    <glyph glyph-name="uni2159" unicode="&#x2159;" horiz-adv-x="750" 
d="M308 0h-116l230 684h116zM717 376l-26 -87q-14 6 -26 9t-29 3q-40 0 -60 -26t-20 -72q23 47 74 47q45 0 70.5 -34t25.5 -88q0 -62 -35 -99t-94 -37q-142 0 -142 191q0 98 46.5 154.5t128.5 56.5q47 0 87 -18zM596 169q-26 0 -26 -45t26 -45q28 0 28 45t-28 45zM237 298
h-107v265l-53 -41l-50 78l114 84h96v-386z" />
    <glyph glyph-name="uni215A" unicode="&#x215a;" horiz-adv-x="750" 
d="M320 0h-116l230 684h116zM717 376l-26 -87q-14 6 -26 9t-29 3q-40 0 -60 -26t-20 -72q23 47 74 47q45 0 70.5 -34t25.5 -88q0 -62 -35 -99t-94 -37q-142 0 -142 191q0 98 46.5 154.5t128.5 56.5q47 0 87 -18zM596 169q-26 0 -26 -45t26 -45q28 0 28 45t-28 45zM288 423
q0 -63 -40 -98t-112 -35q-31 0 -59.5 7t-48.5 20l23 87q33 -24 76 -24q54 0 54 40q0 39 -51 39q-10 0 -22.5 -1.5t-24.5 -5.5l-38 20l17 212h202l11 -94h-127l-4 -54q17 5 33 5q52 0 81.5 -31t29.5 -87z" />
    <glyph glyph-name="oneeighth" unicode="&#x215b;" horiz-adv-x="750" 
d="M308 0h-116l230 684h116zM589 -8q-64 0 -101 31t-37 83q0 68 59 92q-50 26 -50 85q0 51 35.5 81t93.5 30q59 0 94 -30t35 -81q0 -59 -49 -85q58 -24 58 -92q0 -52 -37 -83t-101 -31zM589 236q29 0 29 36q0 38 -29 38t-29 -38q0 -36 29 -36zM589 77q32 0 32 39
q0 40 -32 40t-32 -40q0 -39 32 -39zM237 298h-107v265l-53 -41l-50 78l114 84h96v-386z" />
    <glyph glyph-name="threeeighths" unicode="&#x215c;" horiz-adv-x="750" 
d="M314 0h-116l230 684h116zM589 -8q-64 0 -101 31t-37 83q0 68 59 92q-50 26 -50 85q0 51 35.5 81t93.5 30q59 0 94 -30t35 -81q0 -59 -49 -85q58 -24 58 -92q0 -52 -37 -83t-101 -31zM589 236q29 0 29 36q0 38 -29 38t-29 -38q0 -36 29 -36zM589 77q32 0 32 39
q0 40 -32 40t-32 -40q0 -39 32 -39zM26 319l22 85q32 -24 80 -24q23 0 36.5 9.5t13.5 25.5q0 35 -57 35h-28v89h27q55 0 55 34q0 29 -44 29q-46 0 -75 -23l-22 81q20 15 49.5 23.5t62.5 8.5q63 0 98.5 -28t35.5 -78q0 -63 -63 -87q32 -11 50.5 -34.5t18.5 -56.5
q0 -56 -39.5 -87t-111.5 -31q-69 0 -109 29z" />
    <glyph glyph-name="fiveeighths" unicode="&#x215d;" horiz-adv-x="750" 
d="M316 0h-116l230 684h116zM589 -8q-64 0 -101 31t-37 83q0 68 59 92q-50 26 -50 85q0 51 35.5 81t93.5 30q59 0 94 -30t35 -81q0 -59 -49 -85q58 -24 58 -92q0 -52 -37 -83t-101 -31zM589 236q29 0 29 36q0 38 -29 38t-29 -38q0 -36 29 -36zM589 77q32 0 32 39
q0 40 -32 40t-32 -40q0 -39 32 -39zM288 423q0 -63 -40 -98t-112 -35q-31 0 -59.5 7t-48.5 20l23 87q33 -24 76 -24q54 0 54 40q0 39 -51 39q-10 0 -22.5 -1.5t-24.5 -5.5l-38 20l17 212h202l11 -94h-127l-4 -54q17 5 33 5q52 0 81.5 -31t29.5 -87z" />
    <glyph glyph-name="seveneighths" unicode="&#x215e;" horiz-adv-x="750" 
d="M298 0h-116l230 684h116zM589 -8q-64 0 -101 31t-37 83q0 68 59 92q-50 26 -50 85q0 51 35.5 81t93.5 30q59 0 94 -30t35 -81q0 -59 -49 -85q58 -24 58 -92q0 -52 -37 -83t-101 -31zM589 236q29 0 29 36q0 38 -29 38t-29 -38q0 -36 29 -36zM589 77q32 0 32 39
q0 40 -32 40t-32 -40q0 -39 32 -39zM159 298h-117l138 291h-153l11 95h253v-89z" />
    <glyph glyph-name="minus" unicode="&#x2212;" horiz-adv-x="506" 
d="M32 272v140h442v-140h-442z" />
    <glyph glyph-name="uniFEFF" unicode="&#xfeff;" 
 />
    <glyph glyph-name="uniFFFD" unicode="&#xfffd;" horiz-adv-x="1000" 
d="M500 828l475 -475l-475 -474l-475 474zM342 583l19 -59q28 20 64.5 30.5t73.5 10.5q56 0 87.5 -25t31.5 -70q0 -35 -18.5 -61.5t-61.5 -56.5q-45 -31 -63.5 -63t-18.5 -73v-18h70v18q0 27 15.5 49.5t54.5 48.5q56 38 78.5 74.5t22.5 85.5q0 71 -51 113t-140 42
q-42 0 -88 -13t-76 -33zM490 19q23 0 38.5 15.5t15.5 37.5q0 23 -15.5 37.5t-38.5 14.5t-38.5 -14.5t-15.5 -37.5q0 -22 15.5 -37.5t38.5 -15.5z" />
    <glyph glyph-name="zero.pnum" horiz-adv-x="516" 
d="M258 -14q-113 0 -172 92t-59 264t59 264t172 92t172 -92t59 -264t-59 -264t-172 -92zM258 542q-29 0 -40 -48.5t-11 -151.5t11 -151.5t40 -48.5t40 48.5t11 151.5t-11 151.5t-40 48.5z" />
    <glyph glyph-name="one.pnum" horiz-adv-x="417" 
d="M189 0v487l-92 -70l-86 126l196 141h158v-684h-176z" />
    <glyph glyph-name="two.pnum" horiz-adv-x="480" 
d="M18 629q41 34 90.5 51.5t101.5 17.5q109 0 169.5 -54t60.5 -151q0 -40 -11.5 -77t-40 -80.5t-78.5 -103.5q-14 -17 -31.5 -37t-38.5 -43h217l-18 -152h-416v127q44 44 78 80.5t59 67.5q38 47 60.5 78.5t32 58.5t9.5 58q0 35 -19.5 53.5t-54.5 18.5q-68 0 -123 -52z" />
    <glyph glyph-name="three.pnum" horiz-adv-x="483" 
d="M18 37l35 136q57 -41 142 -41q41 0 64.5 19t23.5 53q0 71 -100 71h-50v146h47q46 0 70.5 18t24.5 52q0 29 -20 45t-56 16q-80 0 -131 -40l-36 130q34 26 84.5 41t107.5 15q104 0 163 -50t59 -136q0 -54 -26.5 -94.5t-77.5 -62.5q54 -19 85 -61t31 -102
q0 -97 -66.5 -151.5t-184.5 -54.5q-58 0 -107.5 13.5t-81.5 37.5z" />
    <glyph glyph-name="four.pnum" horiz-adv-x="514" 
d="M270 0v120h-256v138l247 426h172v-418h65l-17 -146h-48v-120h-163zM270 266v198l-114 -198h114z" />
    <glyph glyph-name="five.pnum" horiz-adv-x="484" 
d="M200 -14q-51 0 -98.5 12t-79.5 33l35 142q29 -20 63 -30.5t69 -10.5q96 0 96 83q0 81 -89 81q-18 0 -39 -3t-42 -11l-62 29l23 373h344l18 -153h-223l-6 -105q25 5 49 5q95 0 148.5 -56t53.5 -154q0 -111 -69 -173t-191 -62z" />
    <glyph glyph-name="six.pnum" horiz-adv-x="499" 
d="M262 -14q-117 0 -176 84.5t-59 248.5q0 118 35 203t100.5 130.5t156.5 45.5q79 0 145 -31l-43 -142q-24 11 -45 16.5t-49 5.5q-126 0 -132 -187q36 78 119 78q77 0 120 -60t43 -156q0 -72 -26.5 -125t-75 -82t-113.5 -29zM261 130q46 0 46 87t-45 87q-46 0 -46 -87
t45 -87z" />
    <glyph glyph-name="seven.pnum" horiz-adv-x="464" 
d="M78 0l195 528h-263l18 156h424v-145l-188 -539h-186z" />
    <glyph glyph-name="eight.pnum" horiz-adv-x="502" 
d="M251 -14q-103 0 -164.5 54t-61.5 145q0 126 109 164q-92 43 -92 155q0 89 56.5 141.5t152.5 52.5t152.5 -52.5t56.5 -141.5q0 -112 -92 -155q109 -38 109 -164q0 -91 -61 -145t-165 -54zM251 414q48 0 48 71q0 73 -48 73t-48 -73q0 -71 48 -71zM251 128q54 0 54 74
q0 76 -54 76t-54 -76q0 -74 54 -74z" />
    <glyph glyph-name="nine.pnum" horiz-adv-x="499" 
d="M39 17l43 142q24 -11 45 -16.5t49 -5.5q63 0 94 47.5t34 139.5q-36 -78 -119 -78q-76 0 -119.5 60t-43.5 156q0 72 26.5 125t75 82t113.5 29q117 0 176 -84.5t59 -248.5q0 -118 -34 -203t-98 -130.5t-156 -45.5q-79 0 -145 31zM237 380q46 0 46 87t-45 87q-46 0 -46 -87
t45 -87z" />
    <glyph glyph-name="zero.dnom" horiz-adv-x="322" 
d="M161 -8q-68 0 -103.5 52t-35.5 149t35.5 149t103.5 52t103.5 -52t35.5 -149t-35.5 -149t-103.5 -52zM161 87q17 0 23 25.5t6 80.5t-6 80.5t-23 25.5q-16 0 -22.5 -25.5t-6.5 -80.5t6.5 -80.5t22.5 -25.5z" />
    <glyph glyph-name="one.dnom" horiz-adv-x="322" 
d="M237 0h-107v265l-53 -41l-50 78l114 84h96v-386z" />
    <glyph glyph-name="two.dnom" horiz-adv-x="322" 
d="M289 94l-11 -94h-244v77q25 23 44 42.5t33 35.5q32 37 45.5 57t13.5 45q0 41 -42 41q-38 0 -69 -31l-30 86q49 41 116 41q62 0 98 -32t36 -88q0 -34 -14.5 -64t-52.5 -74q-8 -9 -18 -19.5t-21 -22.5h116z" />
    <glyph glyph-name="three.dnom" horiz-adv-x="322" 
d="M26 21l22 85q32 -24 80 -24q23 0 36.5 9.5t13.5 25.5q0 35 -57 35h-28v89h27q55 0 55 34q0 29 -44 29q-46 0 -75 -23l-22 81q20 15 49.5 23.5t62.5 8.5q63 0 98.5 -28t35.5 -78q0 -63 -63 -87q32 -11 50.5 -34.5t18.5 -56.5q0 -56 -39.5 -87t-111.5 -31q-69 0 -109 29z
" />
    <glyph glyph-name="four.dnom" horiz-adv-x="322" 
d="M264 0h-99v65h-150v84l144 237h105v-234h40l-10 -87h-30v-65zM165 152v101l-61 -101h61z" />
    <glyph glyph-name="five.dnom" horiz-adv-x="322" 
d="M288 125q0 -63 -40 -98t-112 -35q-31 0 -59.5 7t-48.5 20l23 87q33 -24 76 -24q54 0 54 40q0 39 -51 39q-10 0 -22.5 -1.5t-24.5 -5.5l-38 20l17 212h202l11 -94h-127l-4 -54q17 5 33 5q52 0 81.5 -31t29.5 -87z" />
    <glyph glyph-name="six.dnom" horiz-adv-x="322" 
d="M289 376l-26 -87q-14 6 -26 9t-29 3q-40 0 -60 -26t-20 -72q23 47 74 47q45 0 70.5 -34t25.5 -88q0 -62 -35 -99t-94 -37q-142 0 -142 191q0 98 46.5 154.5t128.5 56.5q47 0 87 -18zM168 169q-26 0 -26 -45t26 -45q28 0 28 45t-28 45z" />
    <glyph glyph-name="seven.dnom" horiz-adv-x="322" 
d="M159 0h-117l138 291h-153l11 95h253v-89z" />
    <glyph glyph-name="eight.dnom" horiz-adv-x="322" 
d="M161 -8q-64 0 -101 31t-37 83q0 68 59 92q-50 26 -50 85q0 51 35.5 81t93.5 30q59 0 94 -30t35 -81q0 -59 -49 -85q58 -24 58 -92q0 -52 -37 -83t-101 -31zM161 236q29 0 29 36q0 38 -29 38t-29 -38q0 -36 29 -36zM161 77q32 0 32 39q0 40 -32 40t-32 -40q0 -39 32 -39z
" />
    <glyph glyph-name="nine.dnom" horiz-adv-x="322" 
d="M36 10l26 87q14 -6 26.5 -9t28.5 -3q40 0 58 26t18 72q-22 -47 -73 -47q-45 0 -70.5 34t-25.5 88q0 62 35 99t93 37q143 0 143 -191q0 -98 -45 -154.5t-127 -56.5q-46 0 -87 18zM153 217q26 0 26 45t-26 45q-27 0 -27 -45t27 -45z" />
    <glyph glyph-name="zero.numr" horiz-adv-x="322" 
d="M161 290q-68 0 -103.5 52t-35.5 149t35.5 149t103.5 52t103.5 -52t35.5 -149t-35.5 -149t-103.5 -52zM161 385q17 0 23 25.5t6 80.5t-6 80.5t-23 25.5q-16 0 -22.5 -25.5t-6.5 -80.5t6.5 -80.5t22.5 -25.5z" />
    <glyph glyph-name="one.numr" horiz-adv-x="322" 
d="M237 298h-107v265l-53 -41l-50 78l114 84h96v-386z" />
    <glyph glyph-name="two.numr" horiz-adv-x="322" 
d="M289 392l-11 -94h-244v77q25 23 44 42.5t33 35.5q32 37 45.5 57t13.5 45q0 41 -42 41q-38 0 -69 -31l-30 86q49 41 116 41q62 0 98 -32t36 -88q0 -34 -14.5 -64t-52.5 -74q-8 -9 -18 -19.5t-21 -22.5h116z" />
    <glyph glyph-name="three.numr" horiz-adv-x="322" 
d="M26 319l22 85q32 -24 80 -24q23 0 36.5 9.5t13.5 25.5q0 35 -57 35h-28v89h27q55 0 55 34q0 29 -44 29q-46 0 -75 -23l-22 81q20 15 49.5 23.5t62.5 8.5q63 0 98.5 -28t35.5 -78q0 -63 -63 -87q32 -11 50.5 -34.5t18.5 -56.5q0 -56 -39.5 -87t-111.5 -31q-69 0 -109 29z
" />
    <glyph glyph-name="four.numr" horiz-adv-x="322" 
d="M264 298h-99v65h-150v84l144 237h105v-234h40l-10 -87h-30v-65zM165 450v101l-61 -101h61z" />
    <glyph glyph-name="five.numr" horiz-adv-x="322" 
d="M288 423q0 -63 -40 -98t-112 -35q-31 0 -59.5 7t-48.5 20l23 87q33 -24 76 -24q54 0 54 40q0 39 -51 39q-10 0 -22.5 -1.5t-24.5 -5.5l-38 20l17 212h202l11 -94h-127l-4 -54q17 5 33 5q52 0 81.5 -31t29.5 -87z" />
    <glyph glyph-name="six.numr" horiz-adv-x="322" 
d="M289 674l-26 -87q-14 6 -26 9t-29 3q-40 0 -60 -26t-20 -72q23 47 74 47q45 0 70.5 -34t25.5 -88q0 -62 -35 -99t-94 -37q-142 0 -142 191q0 98 46.5 154.5t128.5 56.5q47 0 87 -18zM168 467q-26 0 -26 -45t26 -45q28 0 28 45t-28 45z" />
    <glyph glyph-name="seven.numr" horiz-adv-x="322" 
d="M159 298h-117l138 291h-153l11 95h253v-89z" />
    <glyph glyph-name="eight.numr" horiz-adv-x="322" 
d="M161 290q-64 0 -101 31t-37 83q0 68 59 92q-50 26 -50 85q0 51 35.5 81t93.5 30q59 0 94 -30t35 -81q0 -59 -49 -85q58 -24 58 -92q0 -52 -37 -83t-101 -31zM161 534q29 0 29 36q0 38 -29 38t-29 -38q0 -36 29 -36zM161 375q32 0 32 39q0 40 -32 40t-32 -40q0 -39 32 -39
z" />
    <glyph glyph-name="nine.numr" horiz-adv-x="322" 
d="M36 308l26 87q14 -6 26.5 -9t28.5 -3q40 0 58 26t18 72q-22 -47 -73 -47q-45 0 -70.5 34t-25.5 88q0 62 35 99t93 37q143 0 143 -191q0 -98 -45 -154.5t-127 -56.5q-46 0 -87 18zM153 515q26 0 26 45t-26 45q-27 0 -27 -45t27 -45z" />
    <glyph glyph-name="twosevenths" horiz-adv-x="750" 
d="M316 0h-116l230 684h116zM587 0h-117l138 291h-153l11 95h253v-89zM289 392l-11 -94h-244v77q25 23 44 42.5t33 35.5q32 37 45.5 57t13.5 45q0 41 -42 41q-38 0 -69 -31l-30 86q49 41 116 41q62 0 98 -32t36 -88q0 -34 -14.5 -64t-52.5 -74q-8 -9 -18 -19.5t-21 -22.5
h116z" />
    <glyph glyph-name="threesevenths" horiz-adv-x="750" 
d="M308 0h-116l230 684h116zM587 0h-117l138 291h-153l11 95h253v-89zM26 319l22 85q32 -24 80 -24q23 0 36.5 9.5t13.5 25.5q0 35 -57 35h-28v89h27q55 0 55 34q0 29 -44 29q-46 0 -75 -23l-22 81q20 15 49.5 23.5t62.5 8.5q63 0 98.5 -28t35.5 -78q0 -63 -63 -87
q32 -11 50.5 -34.5t18.5 -56.5q0 -56 -39.5 -87t-111.5 -31q-69 0 -109 29z" />
    <glyph glyph-name="foursevenths" horiz-adv-x="750" 
d="M312 0h-116l230 684h116zM587 0h-117l138 291h-153l11 95h253v-89zM264 298h-99v65h-150v84l144 237h105v-234h40l-10 -87h-30v-65zM165 450v101l-61 -101h61z" />
    <glyph glyph-name="fivesevenths" horiz-adv-x="750" 
d="M308 0h-116l230 684h116zM587 0h-117l138 291h-153l11 95h253v-89zM288 423q0 -63 -40 -98t-112 -35q-31 0 -59.5 7t-48.5 20l23 87q33 -24 76 -24q54 0 54 40q0 39 -51 39q-10 0 -22.5 -1.5t-24.5 -5.5l-38 20l17 212h202l11 -94h-127l-4 -54q17 5 33 5q52 0 81.5 -31
t29.5 -87z" />
    <glyph glyph-name="sixsevenths" horiz-adv-x="750" 
d="M312 0h-116l230 684h116zM587 0h-117l138 291h-153l11 95h253v-89zM289 674l-26 -87q-14 6 -26 9t-29 3q-40 0 -60 -26t-20 -72q23 47 74 47q45 0 70.5 -34t25.5 -88q0 -62 -35 -99t-94 -37q-142 0 -142 191q0 98 46.5 154.5t128.5 56.5q47 0 87 -18zM168 467
q-26 0 -26 -45t26 -45q28 0 28 45t-28 45z" />
    <glyph glyph-name="twoninths" horiz-adv-x="750" 
d="M322 0h-116l230 684h116zM464 10l26 87q14 -6 26.5 -9t28.5 -3q40 0 58 26t18 72q-22 -47 -73 -47q-45 0 -70.5 34t-25.5 88q0 62 35 99t93 37q143 0 143 -191q0 -98 -45 -154.5t-127 -56.5q-46 0 -87 18zM581 217q26 0 26 45t-26 45q-27 0 -27 -45t27 -45zM289 392
l-11 -94h-244v77q25 23 44 42.5t33 35.5q32 37 45.5 57t13.5 45q0 41 -42 41q-38 0 -69 -31l-30 86q49 41 116 41q62 0 98 -32t36 -88q0 -34 -14.5 -64t-52.5 -74q-8 -9 -18 -19.5t-21 -22.5h116z" />
    <glyph glyph-name="fourninths" horiz-adv-x="750" 
d="M318 0h-116l230 684h116zM464 10l26 87q14 -6 26.5 -9t28.5 -3q40 0 58 26t18 72q-22 -47 -73 -47q-45 0 -70.5 34t-25.5 88q0 62 35 99t93 37q143 0 143 -191q0 -98 -45 -154.5t-127 -56.5q-46 0 -87 18zM581 217q26 0 26 45t-26 45q-27 0 -27 -45t27 -45zM264 298h-99
v65h-150v84l144 237h105v-234h40l-10 -87h-30v-65zM165 450v101l-61 -101h61z" />
    <glyph glyph-name="fiveninths" horiz-adv-x="750" 
d="M312 0h-116l230 684h116zM464 10l26 87q14 -6 26.5 -9t28.5 -3q40 0 58 26t18 72q-22 -47 -73 -47q-45 0 -70.5 34t-25.5 88q0 62 35 99t93 37q143 0 143 -191q0 -98 -45 -154.5t-127 -56.5q-46 0 -87 18zM581 217q26 0 26 45t-26 45q-27 0 -27 -45t27 -45zM288 423
q0 -63 -40 -98t-112 -35q-31 0 -59.5 7t-48.5 20l23 87q33 -24 76 -24q54 0 54 40q0 39 -51 39q-10 0 -22.5 -1.5t-24.5 -5.5l-38 20l17 212h202l11 -94h-127l-4 -54q17 5 33 5q52 0 81.5 -31t29.5 -87z" />
    <glyph glyph-name="sevenninths" horiz-adv-x="750" 
d="M292 0h-116l230 684h116zM464 10l26 87q14 -6 26.5 -9t28.5 -3q40 0 58 26t18 72q-22 -47 -73 -47q-45 0 -70.5 34t-25.5 88q0 62 35 99t93 37q143 0 143 -191q0 -98 -45 -154.5t-127 -56.5q-46 0 -87 18zM581 217q26 0 26 45t-26 45q-27 0 -27 -45t27 -45zM159 298h-117
l138 291h-153l11 95h253v-89z" />
    <glyph glyph-name="eightninths" horiz-adv-x="750" 
d="M320 0h-116l230 684h116zM464 10l26 87q14 -6 26.5 -9t28.5 -3q40 0 58 26t18 72q-22 -47 -73 -47q-45 0 -70.5 34t-25.5 88q0 62 35 99t93 37q143 0 143 -191q0 -98 -45 -154.5t-127 -56.5q-46 0 -87 18zM581 217q26 0 26 45t-26 45q-27 0 -27 -45t27 -45zM161 290
q-64 0 -101 31t-37 83q0 68 59 92q-50 26 -50 85q0 51 35.5 81t93.5 30q59 0 94 -30t35 -81q0 -59 -49 -85q58 -24 58 -92q0 -52 -37 -83t-101 -31zM161 534q29 0 29 36q0 38 -29 38t-29 -38q0 -36 29 -36zM161 375q32 0 32 39q0 40 -32 40t-32 -40q0 -39 32 -39z" />
    <glyph glyph-name="shekel" horiz-adv-x="842" 
d="M602 182h-156v268q0 53 -20 75.5t-67 22.5h-161v-548h-156v684h309q131 0 191 -58.5t60 -183.5v-260zM804 242q0 -124 -60 -183t-191 -59h-309v502h156v-366h161q47 0 67 23t20 75v450h156v-442z" />
    <glyph glyph-name="hyphen.case" horiz-adv-x="326" 
d="M24 278v147h278v-147h-278z" />
    <glyph glyph-name="endash.case" horiz-adv-x="390" 
d="M0 278v147h390v-147h-390z" />
    <glyph glyph-name="emdash.case" horiz-adv-x="780" 
d="M0 278v147h780v-147h-780z" />
    <glyph glyph-name="parenleft.case" horiz-adv-x="324" 
d="M26 350q0 158 46 282.5t134 215.5l107 -85q-55 -82 -80.5 -182t-25.5 -231t25.5 -231t80.5 -182l-107 -85q-88 92 -134 216t-46 282z" />
    <glyph glyph-name="parenright.case" horiz-adv-x="324" 
d="M298 350q0 -158 -46 -282t-134 -216l-107 85q56 82 81 182t25 231t-25 231t-81 182l107 85q88 -91 134 -215.5t46 -282.5z" />
    <glyph glyph-name="slash.case" horiz-adv-x="411" 
d="M8 -98l219 896h176l-219 -896h-176z" />
    <glyph glyph-name="backslash.case" horiz-adv-x="411" 
d="M403 -98h-176l-219 896h176z" />
    <glyph glyph-name="bracketleft.case" horiz-adv-x="322" 
d="M44 -98v896h250l17 -143h-96v-610h96l-17 -143h-250z" />
    <glyph glyph-name="bracketright.case" horiz-adv-x="322" 
d="M278 -98h-250l-17 143h96v610h-96l17 143h250v-896z" />
    <glyph glyph-name="braceleft.case" horiz-adv-x="334" 
d="M323 45l-18 -143h-83q-72 0 -115 44.5t-43 120.5q0 41 6.5 72t6.5 61q0 41 -15 61t-49 20v138q34 0 49 20t15 61q0 30 -6.5 61t-6.5 72q0 77 43 121t115 44h83l18 -143h-37q-56 0 -56 -69q0 -29 3 -49.5t6 -40t3 -44.5q0 -82 -108 -102q108 -20 108 -102q0 -25 -3 -44.5
t-6 -40t-3 -49.5q0 -69 56 -69h37z" />
    <glyph glyph-name="braceright.case" horiz-adv-x="334" 
d="M270 67q0 -76 -43 -120.5t-115 -44.5h-83l-18 143h37q56 0 56 69q0 29 -3 49.5t-6 40t-3 44.5q0 82 108 102q-108 20 -108 102q0 25 3 44.5t6 40t3 49.5q0 69 -56 69h-37l18 143h83q72 0 115 -44t43 -121q0 -41 -6.5 -72t-6.5 -61q0 -41 15 -61t49 -20v-138
q-34 0 -49 -20t-15 -61q0 -30 6.5 -61t6.5 -72z" />
    <glyph glyph-name="bullet.case" horiz-adv-x="310" 
d="M155 489q59 0 95.5 -39.5t36.5 -99.5t-36.5 -99.5t-95.5 -39.5q-58 0 -95 39.5t-37 99.5t37 99.5t95 39.5z" />
    <glyph glyph-name="guilsinglleft.case" horiz-adv-x="325" 
d="M126 140l-103 210l103 210h173l-95 -210l95 -210h-173z" />
    <glyph glyph-name="guilsinglright.case" horiz-adv-x="325" 
d="M199 140h-173l95 210l-95 210h173l103 -210z" />
    <glyph glyph-name="guillemotleft.case" horiz-adv-x="594" 
d="M126 140l-103 210l103 210h173l-95 -210l95 -210h-173zM395 140l-103 210l103 210h173l-95 -210l95 -210h-173z" />
    <glyph glyph-name="guillemotright.case" horiz-adv-x="594" 
d="M199 140h-173l95 210l-95 210h173l103 -210zM468 140h-173l95 210l-95 210h173l103 -210z" />
    <glyph glyph-name="at.case" horiz-adv-x="807" 
d="M571 296q-1 -5 -1.5 -11t-0.5 -12q0 -22 6.5 -31t21.5 -9q35 0 57 56t22 146q0 128 -62 198t-182 70q-92 0 -159 -47.5t-103.5 -132t-36.5 -194.5q0 -158 68.5 -245t196.5 -87q47 0 95.5 11.5t87.5 33.5l22 -95q-42 -22 -100 -35t-115 -13q-113 0 -194 52t-124 148
t-43 228q0 105 30 191.5t84.5 150t129 98t163.5 34.5q107 0 184.5 -44t119.5 -124.5t42 -191.5q0 -95 -24.5 -165.5t-69.5 -109t-107 -38.5q-105 0 -117 96q-16 -45 -49 -70.5t-76 -25.5q-60 0 -95 53.5t-34 144.5q1 71 22.5 126.5t58.5 87.5t84 32q36 0 61 -21t36 -59
l15 67h124zM389 252q23 0 39 34t17 83q0 37 -10 58t-29 21q-24 0 -38 -33.5t-15 -80.5q0 -39 9.5 -60.5t26.5 -21.5z" />
    <glyph glyph-name="periodcentered.loclCAT" horiz-adv-x="202" 
d="M101 264q-45 0 -73 29.5t-28 73.5q0 46 28 75t73 29t73 -29t28 -75q0 -44 -28 -73.5t-73 -29.5z" />
    <glyph glyph-name="periodcentered.loclCAT.cap" 
d="M-105 329q-45 0 -73 29.5t-28 73.5q0 46 28 75t73 29t73 -29t28 -75q0 -44 -28 -73.5t-73 -29.5z" />
    <glyph glyph-name="dotlessij" horiz-adv-x="498" 
d="M71 -42q25 -16 56.5 -26.5t65.5 -10.5q52 0 73 21.5t21 72.5v47q-36 -62 -109 -62q-143 0 -143 205v318h172v-289q0 -42 7.5 -59.5t28.5 -17.5q24 0 34 20.5t10 61.5v284h172v-491q0 -133 -62.5 -197t-193.5 -64q-46 0 -90 12.5t-73 31.5z" />
    <glyph glyph-name="IJacute" horiz-adv-x="553" 
d="M224 265h-180v435h180v-435zM49 33l34 152q59 -42 123 -42q49 0 76.5 18.5t39 61.5t11.5 115v362h180v-375q0 -175 -71 -258t-222 -83q-49 0 -95.5 13.5t-75.5 35.5zM206 772h-183l126 132h207zM495 772h-183l126 132h207z" />
    <glyph glyph-name="ijacute" horiz-adv-x="498" 
d="M71 -42q25 -16 56.5 -26.5t65.5 -10.5q52 0 73 21.5t21 72.5v47q-36 -62 -109 -62q-143 0 -143 205v318h172v-289q0 -42 7.5 -59.5t28.5 -17.5q24 0 34 20.5t10 61.5v284h172v-491q0 -133 -62.5 -197t-193.5 -64q-46 0 -90 12.5t-73 31.5zM174 594h-153l110 158h190z
M426 594h-153l110 158h190z" />
    <glyph glyph-name="uni0327.cap" 
d="M-12 -229q-29 0 -50.5 4t-40.5 11l20 79q22 -11 55 -11q52 0 52 24q0 21 -46 21q-9 0 -21.5 -1.5t-20.5 -3.5l25 121h85l-14 -53q45 0 71 -23.5t26 -66.5q0 -47 -38 -74t-103 -27z" />
    <glyph glyph-name="uni0326.cap" 
d="M-86 -258q64 17 93 53q-11 -2 -21 -2q-30 0 -49 19.5t-19 50.5q0 32 22.5 52t57.5 20q41 0 62 -22.5t21 -63.5q0 -52 -34.5 -92t-99.5 -60z" />
    <glyph glyph-name="uni0328.cap" 
d="M-47 -100q0 -32 42 -32q24 0 43 10l19 -91q-36 -16 -86 -16q-59 0 -93 25t-34 70q0 48 41 90.5t115 70.5l57 -27q-104 -44 -104 -100z" />
    <glyph glyph-name="uni0328.round" 
d="M-28 -101q0 -33 40 -33q22 0 39 10l19 -89q-35 -16 -82 -16q-59 0 -91 25.5t-32 68.5q0 54 44 102t125 79l56 -26q-118 -54 -118 -121z" />
    <glyph glyph-name="uni0328.round.cap" 
d="M-30 -100q0 -32 42 -32q24 0 43 10l19 -91q-36 -16 -86 -16q-59 0 -93 25t-34 70q0 54 46 102t130 79l57 -27q-124 -54 -124 -120z" />
    <glyph glyph-name="acutecomb.cap" 
d="M72 772h-183l126 132h207z" />
    <glyph glyph-name="uni030B.cap" 
d="M-20 772h-167l127 132h193zM223 772h-167l126 132h192z" />
    <glyph glyph-name="gravecomb.cap" 
d="M-72 772l-150 132h207l126 -132h-183z" />
    <glyph glyph-name="uni0302.cap" 
d="M-57 772h-148l127 132h156l127 -132h-150l-56 49z" />
    <glyph glyph-name="tildecomb.cap" 
d="M190 920q-1 -73 -31.5 -112t-86.5 -39q-25 0 -44.5 7.5t-54.5 29.5q-20 13 -31 13q-16 0 -21.5 -12t-6.5 -38l-104 11q1 73 31.5 112t86.5 39q25 0 44 -7t54 -30q20 -13 32 -13q17 0 22 12t6 38z" />
    <glyph glyph-name="uni030C.cap" 
d="M57 904h148l-127 -132h-156l-127 132h150l56 -49z" />
    <glyph glyph-name="uni0315.short" 
d="M47 566h-133q5 42 7 83t3 91h152q-4 -54 -11 -95t-18 -79z" />
    <glyph glyph-name="uni0304.cap" 
d="M-188 897h376v-117h-376v117z" />
    <glyph glyph-name="uni0308.cap" 
d="M-120 763q-37 0 -60 24t-23 61q0 38 23 61.5t60 23.5q38 0 60.5 -23.5t22.5 -61.5q0 -37 -22.5 -61t-60.5 -24zM120 763q-37 0 -60 24t-23 61q0 38 23 61.5t60 23.5q38 0 60.5 -23.5t22.5 -61.5q0 -37 -22.5 -61t-60.5 -24z" />
    <glyph glyph-name="uni0306.cap" 
d="M0 863q33 0 48.5 15.5t17.5 48.5l111 -12q0 -69 -47 -108t-130 -39t-130 39t-47 108l111 12q2 -33 17.5 -48.5t48.5 -15.5z" />
    <glyph glyph-name="uni0307.cap" 
d="M0 761q-38 0 -62 25t-24 63t24 63t62 25t62 -25t24 -63t-24 -63t-62 -25z" />
    <glyph glyph-name="uni030A.cap" 
d="M0 982q53 0 87 -30.5t34 -79.5q0 -47 -34 -78t-87 -31t-87 31t-34 78q0 49 34 79.5t87 30.5zM0 826q23 0 36 13t13 33q0 22 -13 34.5t-36 12.5t-36 -12.5t-13 -34.5q0 -20 13 -33t36 -13z" />
    <glyph glyph-name="dotbelowcomb.cap" 
d="M0 -241q-38 0 -62 25t-24 63t24 63t62 25t62 -25t24 -63t-24 -63t-62 -25z" />
    <glyph glyph-name="uni0414.loclBGR" horiz-adv-x="684" 
d="M20 -170v331h63l157 539h204l157 -539h63v-331h-170v170h-304v-170h-170zM257 161h165l-82 339z" />
    <glyph glyph-name="uni041B.loclBGR" horiz-adv-x="626" 
d="M7 0l204 700h204l204 -700h-187l-121 500l-123 -500h-181z" />
    <glyph glyph-name="uni0424.loclBGR" horiz-adv-x="741" 
d="M281 -71v82q-254 43 -254 339t254 339v82h179v-82q255 -42 255 -339t-255 -339v-82h-179zM536 350q0 83 -20.5 127t-63.5 61v-376q43 17 63.5 61t20.5 127zM206 350q0 -83 20.5 -127t62.5 -60v374q-43 -17 -63 -61t-20 -126z" />
    <glyph glyph-name="uni0431.loclMKDSRB" horiz-adv-x="512" 
d="M256 -13q-63 0 -115.5 29t-84 84t-31.5 133q0 131 97 205q-28 29 -43.5 61t-15.5 70q0 56 34.5 94.5t96.5 47.5q35 5 80.5 8.5t89.5 6.5t74 6l23 -138q-31 -3 -67.5 -5t-69.5 -4t-54 -6q-14 -2 -23.5 -9.5t-9.5 -19.5q0 -14 22 -28t71 -37q72 -34 114.5 -92.5
t42.5 -152.5q0 -76 -30 -133t-82 -88.5t-119 -31.5zM199 229q0 -40 15 -65t42 -25q23 0 40 26.5t17 74.5q0 36 -11.5 60t-41.5 41q-14 8 -27 16q-18 -25 -26 -57t-8 -71z" />
    <glyph glyph-name="uni0432.loclBGR" horiz-adv-x="489" 
d="M464 228q0 -73 -26 -127.5t-73 -84t-111 -29.5q-86 0 -136 42t-71.5 119.5t-21.5 185.5v107q0 150 59.5 231t169.5 81q85 0 135.5 -50t50.5 -133q0 -48 -21.5 -88t-57.5 -68q103 -44 103 -186zM197 451v-3q24 2 45 3q19 11 26.5 31t7.5 52t-8.5 50.5t-26.5 18.5
q-14 0 -24 -12t-15 -45t-5 -95zM244 311q-21 0 -47 -2q2 -98 15.5 -135t41.5 -37q25 0 35.5 23.5t10.5 61.5q0 42 -15 65.5t-41 23.5z" />
    <glyph glyph-name="uni0433.loclBGR" horiz-adv-x="420" 
d="M401 25q-42 -18 -87.5 -28t-84.5 -10q-62 0 -109.5 22t-74 60.5t-26.5 89.5q0 56 24.5 86.5t65.5 47.5t89 30q14 4 23 11.5t9 21.5q0 24 -16.5 33.5t-43.5 9.5q-22 0 -49.5 -7t-57.5 -29l-25 135q37 22 77 30t79 8q92 0 147.5 -45t55.5 -122q0 -54 -22 -86.5t-56.5 -50
t-73.5 -25.5q-55 -11 -55 -44q0 -22 17.5 -30.5t37.5 -8.5q35 0 65 9t63 26z" />
    <glyph glyph-name="uni0434.loclBGR" horiz-adv-x="517" 
d="M59 -184l31 143q25 -17 56.5 -27.5t65.5 -10.5q52 0 73 22.5t21 76.5v41q-38 -61 -108 -61q-53 0 -92 33t-60 93.5t-21 141.5q0 79 22 139.5t62 94.5t93 34q83 0 121 -76l5 63h150v-486q0 -135 -62.5 -200.5t-193.5 -65.5q-46 0 -90 12.5t-73 32.5zM319 268
q0 56 -14.5 86t-46.5 30q-31 0 -45 -30t-14 -86q0 -55 14 -85.5t45 -30.5q32 0 46.5 30t14.5 86z" />
    <glyph glyph-name="uni0436.loclBGR" horiz-adv-x="772" 
d="M187 0h-182l124 282l-118 241h180l77 -185h35v402h166v-402h35l77 185h180l-118 -241l124 -282h-182l-82 194h-34v-194h-166v194h-34z" />
    <glyph glyph-name="uni0437.loclBGR" horiz-adv-x="409" 
d="M179 -229q-49 0 -97 9t-77 24l17 147q57 -27 111 -27q44 0 69 20.5t25 60.5q0 77 -94 77h-52v154h54q78 0 78 77q0 37 -23.5 53.5t-63.5 16.5q-28 0 -50.5 -8t-47.5 -19l-17 147q36 17 79.5 25t76.5 8q61 0 110 -21.5t77.5 -65t28.5 -108.5t-25.5 -111t-79.5 -66
q119 -42 119 -176q0 -75 -30 -123t-79.5 -71t-108.5 -23z" />
    <glyph glyph-name="uni0438.loclBGR" horiz-adv-x="498" 
d="M309 0l-6 78q-16 -44 -48.5 -67.5t-76.5 -23.5q-143 0 -143 205v331h172v-302q0 -42 7.5 -59.5t28.5 -17.5q24 0 34 20.5t10 61.5v297h172v-523h-150z" />
    <glyph glyph-name="uni043A.loclBGR" horiz-adv-x="525" 
d="M211 0h-172v740h172v-402h39l84 185h180l-125 -241l131 -282h-182l-89 194h-38v-194z" />
    <glyph glyph-name="uni043B.loclBGR" horiz-adv-x="514" 
d="M184 0h-178l165 523h170l167 -523h-184l-70 304z" />
    <glyph glyph-name="uni043F.loclBGR" horiz-adv-x="502" 
d="M467 331v-331h-172v302q0 42 -7.5 59.5t-30.5 17.5q-25 0 -35.5 -20.5t-10.5 -61.5v-297h-172v523h150l6 -78q16 44 49 67.5t78 23.5q145 0 145 -205z" />
    <glyph glyph-name="uni0442.loclBGR" horiz-adv-x="736" 
d="M211 297v-297h-172v523h150l5 -73q16 42 47.5 64t74.5 22q91 0 122 -88q17 43 49 65.5t74 22.5q140 0 140 -205v-331h-172v302q0 42 -6.5 59.5t-26.5 17.5q-22 0 -31 -20.5t-9 -61.5v-297h-172v302q0 42 -6.5 59.5t-26.5 17.5q-22 0 -31 -20.5t-9 -61.5z" />
    <glyph glyph-name="uni0444.loclBGR" horiz-adv-x="679" 
d="M255 -216v209q-116 19 -173 90t-57 178q0 108 55.5 179t174.5 90v170h169v-170q119 -19 174.5 -90t55.5 -179q0 -107 -56.5 -177.5t-173.5 -90.5v-209h-169zM487 261q0 55 -19.5 87.5t-54.5 47.5v-269q43 15 58.5 50t15.5 84zM192 261q0 -49 15 -84.5t59 -50.5v269
q-74 -30 -74 -134z" />
    <glyph glyph-name="uni0446.loclBGR" horiz-adv-x="535" 
d="M373 -142v142h-64l-6 78q-16 -44 -48.5 -67.5t-76.5 -23.5q-143 0 -143 205v331h172v-302q0 -42 7.5 -59.5t28.5 -17.5q24 0 34 20.5t10 61.5v297h172v-379h68v-286h-154z" />
    <glyph glyph-name="uni0448.loclBGR" horiz-adv-x="736" 
d="M175 -13q-140 0 -140 205v331h172v-302q0 -42 7 -59.5t26 -17.5q22 0 31 20.5t9 61.5v297h172v-302q0 -42 7 -59.5t26 -17.5q22 0 31 20.5t9 61.5v297h172v-523h-150l-5 73q-16 -42 -47.5 -64t-74.5 -22q-91 0 -122 88q-17 -43 -49 -65.5t-74 -22.5z" />
    <glyph glyph-name="uni0449.loclBGR" horiz-adv-x="773" 
d="M175 -13q-140 0 -140 205v331h172v-302q0 -42 7 -59.5t26 -17.5q22 0 31 20.5t9 61.5v297h172v-302q0 -42 7 -59.5t26 -17.5q22 0 31 20.5t9 61.5v297h172v-379h68v-286h-154v142h-64l-5 73q-16 -42 -47.5 -64t-74.5 -22q-91 0 -122 88q-17 -43 -49 -65.5t-74 -22.5z" />
    <glyph glyph-name="uni044A.loclBGR" horiz-adv-x="562" 
d="M548 201q0 -65 -26.5 -113t-75 -74.5t-113.5 -26.5q-103 0 -160.5 61.5t-57.5 171.5v159h-110l17 144h265v-159q37 50 104 50q75 0 116 -56t41 -157zM287 201q0 -44 12.5 -68.5t34.5 -24.5q20 0 32 25t12 68q0 44 -11.5 68t-32.5 24q-22 0 -34.5 -24t-12.5 -68z" />
    <glyph glyph-name="uni044C.loclBGR" horiz-adv-x="486" 
d="M472 201q0 -65 -26.5 -113t-75 -74.5t-113.5 -26.5q-103 0 -160.5 61.5t-57.5 171.5v303h172v-159q37 50 104 50q75 0 116 -56t41 -157zM211 201q0 -44 12.5 -68.5t34.5 -24.5q20 0 32 25t12 68q0 44 -11.5 68t-32.5 24q-22 0 -34.5 -24t-12.5 -68z" />
    <glyph glyph-name="uni044E.loclBGR" horiz-adv-x="723" 
d="M211 0h-172v740h172v-398h33q19 89 77.5 141.5t145.5 52.5q70 0 122 -34t80.5 -95.5t28.5 -144.5t-28.5 -145t-80.5 -96t-122 -34q-91 0 -151 57t-75 154h-30v-198zM467 139q30 0 43.5 32t13.5 91t-13.5 90.5t-43.5 31.5t-43.5 -31.5t-13.5 -90.5t13.5 -91t43.5 -32z" />
    <glyph glyph-name="uni045D.loclBGR" horiz-adv-x="498" 
d="M309 0l-6 78q-16 -44 -48.5 -67.5t-76.5 -23.5q-143 0 -143 205v331h172v-302q0 -42 7.5 -59.5t28.5 -17.5q24 0 34 20.5t10 61.5v297h172v-523h-150zM194 594l-147 158h190l110 -158h-153z" />
    <glyph glyph-name="uni0306.cyrl" 
d="M0 582q-75 0 -119.5 34.5t-55.5 122.5l137 17q2 -52 12 -67t26 -15t26.5 15t11.5 67l137 -17q-10 -88 -55 -122.5t-120 -34.5z" />
    <glyph glyph-name="uni0306.cyrl.cap" 
d="M191 895q-12 -76 -63.5 -108.5t-127.5 -32.5t-127.5 32.5t-63.5 108.5l145 17q2 -37 14.5 -50.5t31.5 -13.5t32 13.5t14 50.5z" />
    <glyph glyph-name="uni0439.loclBGR" horiz-adv-x="498" 
d="M309 0l-6 78q-16 -44 -48.5 -67.5t-76.5 -23.5q-143 0 -143 205v331h172v-302q0 -42 7.5 -59.5t28.5 -17.5q24 0 34 20.5t10 61.5v297h172v-523h-150zM247 582q-75 0 -119.5 34.5t-55.5 122.5l137 17q2 -52 12 -67t26 -15t26.5 15t11.5 67l137 -17q-10 -88 -55 -122.5
t-120 -34.5z" />
    <glyph glyph-name="acutecomb.grek" 
d="M-71 599l51 215h175l-98 -215h-128z" />
    <glyph glyph-name="acutecomb.grek.cap" 
d="M-83 448l36 252h187l-74 -252h-149z" />
    <glyph glyph-name="highdef" 
d="M0 1075l-25 50h50zM-25 -552l25 50l25 -50h-50z" />
    </font>
</defs>
</svg>
