<?xml version="1.0" standalone="no"?>
<!DOCTYPE svg PUBLIC "-//W3C//DTD SVG 1.1//EN" "http://www.w3.org/Graphics/SVG/1.1/DTD/svg11.dtd" >
<svg xmlns="http://www.w3.org/2000/svg" xmlns:xlink="http://www.w3.org/1999/xlink" version="1.1">
<metadata>
Created by FontForge 20170731 at Thu Nov  7 21:04:28 2019
 By Aleksey,,,
Copyright 2019 FedEx Corporation. This font may not be altered in any way without prior permission of the FedEx Corporation.
</metadata>
<defs>
<font id="FedExSans-XBoldItalic" horiz-adv-x="0" >
  <font-face 
    font-family="FedEx Sans XBold"
    font-weight="800"
    font-style="italic"
    font-stretch="normal"
    units-per-em="1000"
    panose-1="2 11 9 3 2 2 3 9 2 4"
    ascent="740"
    descent="-260"
    x-height="523"
    cap-height="700"
    bbox="-260 -552 1417 1125"
    underline-thickness="76"
    underline-position="-222"
    slope="-11"
    unicode-range="U+000D-FFFD"
  />
<missing-glyph horiz-adv-x="500" 
d="M0 0v700h500v-700h-500zM87 654l162 -260l162 260h-324zM278 350l168 -268v536zM221 350l-167 266v-533zM249 305l-162 -259h324z" />
    <glyph glyph-name="uniFB00" unicode="ff" horiz-adv-x="784" 
d="M60 0l71 360h-103l47 151h85l2 8q45 234 249 234q33 0 64 -7t51 -19l-46 -150q-27 18 -61 18q-58 0 -70 -69l-3 -15h165l2 8q46 234 256 234q73 0 129 -28l-46 -150q-30 20 -72 20q-31 0 -52.5 -18.5t-27.5 -50.5l-3 -15h136l-30 -151h-135l-70 -360h-187l71 360h-165
l-70 -360h-187z" />
    <glyph glyph-name="uniFB01" unicode="fi" horiz-adv-x="701" 
d="M60 0l71 360h-103l48 151h84l2 8q45 234 249 234q33 0 64 -7t51 -19l-46 -150q-27 18 -61 18q-58 0 -70 -69l-3 -15h349l-99 -511h-187l70 360h-162l-70 -360h-187zM622 548q-45 0 -72 25t-27 68q0 49 33.5 80.5t85.5 31.5q46 0 73.5 -25.5t27.5 -66.5q0 -48 -35 -80.5
t-86 -32.5z" />
    <glyph glyph-name="uniFB02" unicode="fl" horiz-adv-x="705" 
d="M60 0l71 360h-103l48 151h84l2 8q45 234 249 234q33 0 64 -7t51 -19l-46 -150q-27 18 -61 18q-58 0 -70 -69l-3 -15h107l-30 -151h-106l-70 -360h-187zM413 0l144 740h187l-144 -740h-187z" />
    <glyph glyph-name="uniFB03" unicode="ffi" horiz-adv-x="1052" 
d="M60 0l71 360h-103l47 151h85l2 8q45 234 249 234q33 0 64 -7t51 -19l-46 -150q-27 18 -61 18q-58 0 -70 -69l-3 -15h165l2 8q46 234 249 234q33 0 64 -7t51 -19l-46 -150q-28 18 -61 18q-56 0 -70 -69l-3 -15h349l-99 -511h-187l70 360h-162l-70 -360h-187l71 360h-165
l-70 -360h-187zM973 548q-45 0 -72 25t-27 68q0 49 33.5 80.5t85.5 31.5q46 0 73.5 -25.5t27.5 -66.5q0 -48 -35 -80.5t-86 -32.5z" />
    <glyph glyph-name="uniFB04" unicode="ffl" horiz-adv-x="1056" 
d="M59 0l71 360h-102l47 151h84l2 8q46 234 249 234q33 0 64 -7t51 -19l-46 -150q-27 18 -61 18q-56 0 -70 -69l-3 -15h166l2 8q46 234 249 234q33 0 64 -7t51 -19l-46 -150q-28 18 -61 18q-56 0 -70 -69l-3 -15h107l-30 -151h-106l-70 -360h-187l71 360h-166l-70 -360h-187
zM764 0l144 740h187l-144 -740h-187z" />
    <glyph glyph-name="f_b" unicode="fb" horiz-adv-x="1045" 
d="M60 0l71 360h-103l48 151h84l2 8q47 234 249 234q33 0 64 -7t51 -19l-46 -150q-27 18 -61 18q-56 0 -70 -69l-3 -15h107l-30 -151h-106l-70 -360h-187zM752 -13q-55 0 -95 26.5t-55 71.5l-23 -85h-166l144 740h187l-51 -268q53 64 135 64q55 0 96 -28.5t64 -80t23 -119.5
q0 -66 -20 -124.5t-55.5 -102.5t-82.5 -69t-101 -25zM713 147q30 0 54.5 18.5t39 49.5t14.5 68q0 43 -20 68t-54 25q-29 0 -53.5 -18.5t-39 -49.5t-14.5 -69q0 -43 19.5 -67.5t53.5 -24.5z" />
    <glyph glyph-name="f_h" unicode="fh" horiz-adv-x="1012" 
d="M60 0l71 360h-103l48 151h84l2 8q47 234 249 234q33 0 64 -7t51 -19l-46 -150q-27 18 -61 18q-56 0 -70 -69l-3 -15h107l-30 -151h-106l-70 -360h-187zM413 0l144 740h187l-51 -264q52 60 137 60q71 0 109 -42.5t38 -116.5q0 -20 -2.5 -42.5t-5.5 -39.5l-58 -295h-187
l57 291q3 17 4 25t1 14q0 19 -12 30.5t-35 11.5q-31 0 -53 -21.5t-30 -61.5l-56 -289h-187z" />
    <glyph glyph-name="f_j" unicode="fj" horiz-adv-x="701" 
d="M60 0l71 360h-103l48 151h84l2 8q47 234 249 234q33 0 64 -7t51 -19l-46 -150q-27 18 -61 18q-56 0 -70 -69l-3 -15h349l-100 -514q-22 -115 -82 -170.5t-164 -55.5q-74 0 -129 26l55 145q21 -8 33.5 -11t23.5 -3q34 0 52.5 21t27.5 68l67 343h-162l-70 -360h-187z
M622 548q-45 0 -72 25t-27 68q0 49 33.5 80.5t85.5 31.5q46 0 73.5 -25.5t27.5 -66.5q0 -48 -35 -80.5t-86 -32.5z" />
    <glyph glyph-name="f_k" unicode="fk" horiz-adv-x="1020" 
d="M60 0l71 360h-103l48 151h84l2 8q45 234 249 234q33 0 64 -7t51 -19l-46 -150q-27 18 -61 18q-58 0 -70 -69l-3 -15h107l-30 -151h-106l-70 -360h-187zM413 0l144 740h187l-74 -380l175 163h221l-216 -190l112 -333h-198l-59 206l-78 -68l-27 -138h-187z" />
    <glyph glyph-name="f_t" unicode="ft" horiz-adv-x="801" 
d="M60 0l71 360h-103l48 151h84l2 8q47 234 249 234q33 0 64 -7t51 -19l-46 -150q-27 18 -61 18q-56 0 -70 -69l-3 -15h162l33 167h187l-33 -167h124l-30 -151h-123l-25 -125q-1 -9 -3 -23.5t-2 -24.5q0 -39 40 -39q34 0 72 17l-11 -150q-57 -25 -122 -25q-83 0 -126.5 39.5
t-43.5 115.5q0 19 2.5 44.5t6.5 45.5l25 125h-162l-70 -360h-187z" />
    <glyph glyph-name="f_f_b" unicode="ffb" horiz-adv-x="1395" 
d="M59 0l71 360h-102l47 151h84l2 8q46 234 249 234q33 0 64 -7t51 -19l-46 -150q-27 18 -61 18q-56 0 -70 -69l-3 -15h166l2 8q46 234 249 234q33 0 64 -7t51 -19l-46 -150q-28 18 -61 18q-56 0 -70 -69l-3 -15h107l-30 -151h-106l-70 -360h-187l71 360h-166l-70 -360h-187
zM1108 -13q-55 0 -96.5 28.5t-57.5 74.5l-24 -90h-166l144 740h187l-52 -270q55 66 137 66q55 0 95.5 -29t63 -81.5t22.5 -123.5q0 -65 -19.5 -122t-54.5 -100.5t-80.5 -68t-98.5 -24.5zM1066 147q29 0 53 18.5t38.5 50t14.5 68.5q0 43 -20 68t-55 25q-28 0 -52.5 -19
t-39 -50.5t-14.5 -68.5q0 -42 20.5 -67t54.5 -25z" />
    <glyph glyph-name="f_f_h" unicode="ffh" horiz-adv-x="1363" 
d="M59 0l71 360h-102l47 151h84l2 8q46 234 249 234q33 0 64 -7t51 -19l-46 -150q-27 18 -61 18q-56 0 -70 -69l-3 -15h166l2 8q46 234 249 234q33 0 64 -7t51 -19l-46 -150q-28 18 -61 18q-56 0 -70 -69l-3 -15h107l-30 -151h-106l-70 -360h-187l71 360h-166l-70 -360h-187
zM764 0l144 740h187l-51 -264q52 60 137 60q71 0 109 -42.5t38 -116.5q0 -20 -2.5 -42.5t-5.5 -39.5l-58 -295h-187l57 291q3 17 4 25t1 14q0 19 -12 30.5t-35 11.5q-31 0 -53 -21.5t-30 -61.5l-56 -289h-187z" />
    <glyph glyph-name="f_f_j" unicode="ffj" horiz-adv-x="1052" 
d="M59 0l71 360h-102l47 151h84l2 8q46 234 249 234q33 0 64 -7t51 -19l-46 -150q-27 18 -61 18q-56 0 -70 -69l-3 -15h166l2 8q46 234 249 234q33 0 64 -7t51 -19l-46 -150q-28 18 -61 18q-56 0 -70 -69l-3 -15h349l-100 -514q-22 -115 -82 -170.5t-164 -55.5
q-74 0 -129 26l55 145q21 -8 33.5 -11t23.5 -3q34 0 52.5 21t27.5 68l67 343h-162l-70 -360h-187l71 360h-166l-70 -360h-187zM973 548q-45 0 -72 25t-27 68q0 49 33.5 80.5t85.5 31.5q46 0 73.5 -25.5t27.5 -66.5q0 -48 -35 -80.5t-86 -32.5z" />
    <glyph glyph-name="f_f_k" unicode="ffk" horiz-adv-x="1371" 
d="M59 0l71 360h-102l47 151h84l2 8q46 234 249 234q33 0 64 -7t51 -19l-46 -150q-27 18 -61 18q-56 0 -70 -69l-3 -15h166l2 8q46 234 249 234q33 0 64 -7t51 -19l-46 -150q-28 18 -61 18q-56 0 -70 -69l-3 -15h107l-30 -151h-106l-70 -360h-187l71 360h-166l-70 -360h-187
zM764 0l144 740h187l-74 -380l175 163h221l-216 -190l112 -333h-198l-59 206l-78 -68l-27 -138h-187z" />
    <glyph glyph-name="f_f_t" unicode="fft" horiz-adv-x="1152" 
d="M59 0l71 360h-102l47 151h84l2 8q46 234 249 234q33 0 64 -7t51 -19l-46 -150q-27 18 -61 18q-56 0 -70 -69l-3 -15h166l2 8q46 234 249 234q33 0 64 -7t51 -19l-46 -150q-28 18 -61 18q-56 0 -70 -69l-3 -15h162l33 167h187l-33 -167h124l-30 -151h-123l-25 -125
q-1 -9 -3 -23.5t-2 -24.5q0 -39 40 -39q34 0 72 17l-11 -150q-57 -25 -122 -25q-83 0 -126.5 39.5t-43.5 115.5q0 19 2.5 44.5t6.5 45.5l25 125h-162l-70 -360h-187l71 360h-166l-70 -360h-187z" />
    <glyph glyph-name=".notdef" horiz-adv-x="500" 
d="M0 0v700h500v-700h-500zM87 654l162 -260l162 260h-324zM278 350l168 -268v536zM221 350l-167 266v-533zM249 305l-162 -259h324z" />
    <glyph glyph-name="uni0000" 
 />
    <glyph glyph-name="uni0000" 
 />
    <glyph glyph-name="uni000D" unicode="&#xd;" horiz-adv-x="189" 
 />
    <glyph glyph-name="space" unicode=" " horiz-adv-x="189" 
 />
    <glyph glyph-name="exclam" unicode="!" horiz-adv-x="307" 
d="M66 247l73 453h193l-102 -453h-164zM109 -11q-45 0 -72 25t-27 68q0 50 35.5 83.5t87.5 33.5q45 0 71.5 -25.5t26.5 -69.5q0 -50 -34.5 -82.5t-87.5 -32.5z" />
    <glyph glyph-name="quotedbl" unicode="&#x22;" horiz-adv-x="472" 
d="M72 398l49 302h173l-69 -302h-153zM299 398l49 302h173l-69 -302h-153z" />
    <glyph glyph-name="numbersign" unicode="#" horiz-adv-x="630" 
d="M31 0l53 155h-68l23 120h86l47 138h-76l22 120h95l52 151h135l-52 -151h96l52 151h134l-52 -151h67l-22 -120h-86l-47 -138h77l-23 -120h-95l-53 -155h-135l53 155h-96l-53 -155h-134zM259 275h96l48 138h-96z" />
    <glyph glyph-name="dollar" unicode="$" horiz-adv-x="630" 
d="M207 -110l19 97q-59 4 -114.5 20.5t-98.5 42.5l54 149q43 -29 93.5 -45t102.5 -16q115 0 115 68q0 15 -6.5 23.5t-27 17t-64.5 20.5q-95 28 -134.5 70t-39.5 115q0 69 32 122t90 85t136 38l19 97h99l-19 -100q96 -13 160 -57l-56 -144q-36 25 -82 39.5t-88 14.5
q-48 0 -76.5 -18t-28.5 -49q0 -13 7 -22t28 -17.5t62 -20.5q98 -28 137.5 -70t39.5 -116q0 -99 -65 -164t-176 -80l-19 -100h-99z" />
    <glyph glyph-name="percent" unicode="%" horiz-adv-x="940" 
d="M190 0l457 684h138l-457 -684h-138zM702 -8q-68 0 -107.5 43t-39.5 117q0 71 24.5 125.5t68.5 85.5t100 31q69 0 107.5 -42t38.5 -117q0 -72 -24 -127t-67 -85.5t-101 -30.5zM713 94q23 0 40 40.5t17 96.5q0 61 -31 61q-15 0 -29 -19t-22.5 -49t-8.5 -65q0 -65 34 -65z
M224 290q-68 0 -107.5 43t-39.5 117q0 71 24.5 125.5t68.5 85.5t100 31q69 0 107.5 -42t38.5 -117q0 -72 -24 -127t-67 -85.5t-101 -30.5zM235 392q23 0 40 40.5t17 96.5q0 61 -31 61q-15 0 -29 -19t-22.5 -49t-8.5 -65q0 -65 34 -65z" />
    <glyph glyph-name="ampersand" unicode="&#x26;" horiz-adv-x="773" 
d="M269 -14q-117 0 -180.5 49t-63.5 139q0 131 173 204q-20 34 -31.5 71t-11.5 70q0 58 28.5 102t80 68.5t118.5 24.5q60 0 105 -20t70 -56t25 -84q0 -133 -166 -206l89 -110q20 28 32.5 61t15.5 70l154 -17q-7 -66 -36 -124.5t-74 -105.5l97 -122h-204l-23 30
q-45 -21 -95 -32.5t-103 -11.5zM308 521q0 -20 9.5 -39.5t26.5 -42.5q82 37 82 95q0 22 -14.5 35.5t-37.5 13.5q-28 0 -47 -18t-19 -44zM203 199q0 -69 95 -69q41 0 80 13l-108 139q-67 -34 -67 -83z" />
    <glyph glyph-name="quotesingle" unicode="'" horiz-adv-x="245" 
d="M72 398l49 302h173l-69 -302h-153z" />
    <glyph glyph-name="parenleft" unicode="(" horiz-adv-x="407" 
d="M182 -206q-72 76 -108.5 175t-36.5 217q0 181 84.5 337t241.5 267l114 -95q-244 -220 -244 -527q0 -79 17 -146t53 -133z" />
    <glyph glyph-name="parenright" unicode=")" horiz-adv-x="407" 
d="M237 790q72 -76 108.5 -175t36.5 -217q0 -181 -84 -337t-242 -267l-114 95q244 220 244 527q0 80 -17 146.5t-53 132.5z" />
    <glyph glyph-name="asterisk" unicode="*" horiz-adv-x="433" 
d="M195 336l-90 62l81 97l-110 27l39 107l104 -45l-10 116h117l-10 -115l104 44l39 -107l-111 -27l81 -97l-90 -62l-73 107z" />
    <glyph glyph-name="plus" unicode="+" horiz-adv-x="630" 
d="M252 92v176h-168v147h168v176h157v-176h168v-147h-168v-176h-157z" />
    <glyph glyph-name="comma" unicode="," horiz-adv-x="298" 
d="M-6 -186l-37 67q45 14 81.5 42.5t59.5 65.5q-41 1 -67 26t-26 66q0 33 16.5 59.5t43.5 42.5t60 16q47 0 75 -30.5t28 -83.5q0 -56 -31 -111t-84 -97.5t-119 -62.5z" />
    <glyph glyph-name="hyphen" unicode="-" horiz-adv-x="395" 
d="M26 219l31 155h326l-30 -155h-327z" />
    <glyph glyph-name="hyphen" unicode="&#x2011;" horiz-adv-x="395" 
d="M26 219l31 155h326l-30 -155h-327z" />
    <glyph glyph-name="hyphen" unicode="&#x2010;" horiz-adv-x="395" 
d="M26 219l31 155h326l-30 -155h-327z" />
    <glyph glyph-name="hyphen" unicode="&#xad;" horiz-adv-x="395" 
d="M26 219l31 155h326l-30 -155h-327z" />
    <glyph glyph-name="period" unicode="." horiz-adv-x="298" 
d="M104 -11q-45 0 -72 25t-27 68q0 50 35.5 83.5t87.5 33.5q45 0 71.5 -25.5t26.5 -69.5q0 -50 -34.5 -82.5t-87.5 -32.5z" />
    <glyph glyph-name="slash" unicode="/" horiz-adv-x="524" 
d="M-69 -156l464 896h210l-464 -896h-210z" />
    <glyph glyph-name="zero" unicode="0" horiz-adv-x="630" 
d="M292 -14q-118 0 -181.5 74.5t-63.5 210.5q0 93 23.5 171.5t66.5 135.5t101.5 88.5t128.5 31.5q118 0 181.5 -74t63.5 -211q0 -93 -23.5 -171.5t-66.5 -135.5t-101.5 -88.5t-128.5 -31.5zM302 150q31 0 57 37t42 98t16 133q0 60 -14.5 88t-45.5 28t-57 -37t-42 -97.5
t-16 -133.5q0 -60 14.5 -88t45.5 -28z" />
    <glyph glyph-name="one" unicode="1" horiz-adv-x="630" 
d="M196 0l91 472l-119 -72l-57 143l242 141h168l-133 -684h-192z" />
    <glyph glyph-name="two" unicode="2" horiz-adv-x="630" 
d="M9 0l27 138q51 33 113.5 78.5t126.5 97.5q62 50 91 88.5t29 69.5q0 62 -81 62q-79 0 -171 -59l-20 147q111 76 245 76q67 0 117 -24t77.5 -67t27.5 -101q0 -74 -39.5 -136t-130.5 -133q-17 -14 -45 -33.5t-64 -43.5h235l-49 -160h-489z" />
    <glyph glyph-name="three" unicode="3" horiz-adv-x="630" 
d="M227 -14q-69 0 -130 16.5t-100 44.5l61 141q73 -48 163 -48q58 0 89.5 20t31.5 56q0 55 -83 55h-95l29 154h91q48 0 76 18t28 49q0 52 -79 52q-40 0 -86.5 -13t-90.5 -37l-8 142q48 29 110.5 45.5t125.5 16.5q103 0 161.5 -44.5t58.5 -122.5q0 -59 -35 -106.5t-98 -75.5
q86 -34 86 -135q0 -68 -38 -119.5t-107 -80t-161 -28.5z" />
    <glyph glyph-name="four" unicode="4" horiz-adv-x="630" 
d="M297 0l22 115h-309l29 149l379 420h189l-80 -415h83l-48 -154h-65l-22 -115h-178zM223 269h126l35 178z" />
    <glyph glyph-name="five" unicode="5" horiz-adv-x="630" 
d="M252 -14q-135 0 -236 57l63 145q75 -46 166 -46q59 0 90.5 22t31.5 62q0 61 -84 61q-29 0 -54.5 -4.5t-53.5 -14.5l-76 36l103 380h399l-13 -163h-267l-26 -102q40 11 85 11q85 0 132 -45.5t47 -126.5t-38.5 -142.5t-107.5 -95.5t-161 -34z" />
    <glyph glyph-name="six" unicode="6" horiz-adv-x="630" 
d="M309 -14q-113 0 -178 73.5t-65 200.5q0 97 28 177t79.5 138.5t121.5 90.5t155 32q96 0 174 -40l-64 -147q-56 28 -117 28q-67 0 -113 -39.5t-65 -113.5q54 49 134 49q81 0 129.5 -51t48.5 -137q0 -75 -34.5 -134t-95 -93t-138.5 -34zM311 140q35 0 58 27t23 64
q0 29 -16.5 46t-43.5 17q-34 0 -57.5 -26.5t-23.5 -64.5q0 -28 16.5 -45.5t43.5 -17.5z" />
    <glyph glyph-name="seven" unicode="7" horiz-adv-x="630" 
d="M60 0l343 521h-319l50 163h498l-31 -156l-336 -528h-205z" />
    <glyph glyph-name="eight" unicode="8" horiz-adv-x="630" 
d="M276 -14q-113 0 -179.5 47.5t-66.5 127.5q0 64 37.5 113.5t103.5 72.5q-63 42 -63 130q0 64 35.5 113.5t97.5 78.5t140 29q100 0 160 -48t60 -128q0 -56 -32.5 -102t-88.5 -73q86 -42 86 -133q0 -68 -36.5 -119.5t-101.5 -80t-152 -28.5zM346 418q35 0 56.5 20.5
t21.5 53.5q0 27 -16 42.5t-44 15.5q-35 0 -57 -21t-22 -54q0 -57 61 -57zM291 135q38 0 62 21.5t24 55.5q0 29 -19.5 45.5t-51.5 16.5q-38 0 -63 -21.5t-25 -55.5q0 -28 20 -45t53 -17z" />
    <glyph glyph-name="nine" unicode="9" horiz-adv-x="630" 
d="M353 698q113 0 178 -73t65 -201q0 -97 -28 -177t-79.5 -138.5t-121.5 -90.5t-155 -32q-96 0 -174 40l64 147q56 -28 117 -28q67 0 113 39.5t65 113.5q-54 -49 -134 -49q-81 0 -129.5 51.5t-48.5 136.5q0 76 34.5 134.5t95.5 92.5t138 34zM351 544q-34 0 -57.5 -26.5
t-23.5 -64.5q0 -29 16.5 -46t43.5 -17q35 0 58 27t23 64q0 29 -16.5 46t-43.5 17z" />
    <glyph glyph-name="colon" unicode=":" horiz-adv-x="298" 
d="M104 -11q-45 0 -72 25t-27 68q0 50 35.5 83.5t87.5 33.5q45 0 71.5 -25.5t26.5 -69.5q0 -50 -34.5 -82.5t-87.5 -32.5zM170 324q-45 0 -72 25t-27 68q0 50 35.5 83.5t87.5 33.5q45 0 71.5 -25.5t26.5 -69.5q0 -50 -34.5 -82.5t-87.5 -32.5z" />
    <glyph glyph-name="semicolon" unicode=";" horiz-adv-x="298" 
d="M-6 -186l-37 67q45 14 81.5 42.5t59.5 65.5q-41 1 -67 26t-26 66q0 33 16.5 59.5t43.5 42.5t60 16q47 0 75 -30.5t28 -83.5q0 -56 -31 -111t-84 -97.5t-119 -62.5zM170 324q-45 0 -72 25t-27 68q0 50 35.5 83.5t87.5 33.5q45 0 71.5 -25.5t26.5 -69.5q0 -50 -34.5 -82.5
t-87.5 -32.5z" />
    <glyph glyph-name="less" unicode="&#x3c;" horiz-adv-x="630" 
d="M559 80l-493 190v143l493 190v-165l-304 -96l304 -95v-167z" />
    <glyph glyph-name="equal" unicode="=" horiz-adv-x="630" 
d="M84 137v147h493v-147h-493zM84 399v147h493v-147h-493z" />
    <glyph glyph-name="greater" unicode="&#x3e;" horiz-adv-x="630" 
d="M102 80v167l304 95l-304 96v165l493 -190v-143z" />
    <glyph glyph-name="question" unicode="?" horiz-adv-x="518" 
d="M140 247v10q0 44 12 74.5t39.5 56t74.5 54.5q32 20 48.5 32.5t22.5 23t6 22.5q0 37 -74 37q-38 0 -79.5 -11.5t-74.5 -31.5l-10 147q37 26 93.5 40.5t118.5 14.5q101 0 158.5 -47t57.5 -130q0 -59 -30 -101.5t-104 -84.5q-41 -24 -63 -39t-30.5 -27t-10.5 -28l-1 -12
h-154zM188 -11q-45 0 -72 25t-27 68q0 50 35.5 83.5t87.5 33.5q45 0 71.5 -25.5t26.5 -69.5q0 -50 -34.5 -82.5t-87.5 -32.5z" />
    <glyph glyph-name="at" unicode="@" horiz-adv-x="996" 
d="M454 -212q-130 0 -224.5 47.5t-145.5 135.5t-51 210q0 108 40.5 201t112.5 162t169 107.5t211 38.5q120 0 210 -43t139.5 -121t49.5 -183q0 -69 -20 -128.5t-56 -103.5t-84.5 -69t-104.5 -25q-54 0 -89.5 22t-46.5 60q-22 -39 -57.5 -60.5t-81.5 -21.5q-73 0 -117 52
t-44 137q0 71 28 128.5t75.5 92t104.5 34.5q44 0 73.5 -21t40.5 -58l17 66h140l-49 -250q-3 -13 -3 -33q0 -36 34 -36t62 28.5t44.5 76t16.5 104.5q0 116 -76 181.5t-210 65.5q-90 0 -165 -29.5t-130.5 -82.5t-86 -125.5t-30.5 -159.5q0 -139 81.5 -217t229.5 -78
q58 0 115.5 11.5t104.5 33.5l14 -102q-50 -23 -112.5 -35.5t-128.5 -12.5zM477 148q34 0 58 33t24 79q0 33 -13.5 51.5t-39.5 18.5q-34 0 -58.5 -32.5t-24.5 -79.5q0 -33 14.5 -51.5t39.5 -18.5z" />
    <glyph glyph-name="A" unicode="A" horiz-adv-x="748" 
d="M-41 0l397 700h206l125 -700h-214l-15 128h-220l-65 -128h-214zM318 287h122l-22 198z" />
    <glyph glyph-name="B" unicode="B" horiz-adv-x="665" 
d="M12 0l136 700h272q109 0 168 -42t59 -120q0 -61 -37.5 -107t-100.5 -66q51 -11 81 -47.5t30 -90.5q0 -67 -39 -118t-108.5 -80t-160.5 -29h-300zM381 555h-75l-24 -125h73q47 0 72.5 19.5t25.5 54.5q0 51 -72 51zM344 292h-89l-28 -147h94q50 0 80 23t30 62q0 62 -87 62z
" />
    <glyph glyph-name="C" unicode="C" horiz-adv-x="680" 
d="M400 -16q-98 0 -176 39t-123 110.5t-45 168.5q0 95 32 171t90.5 130.5t138.5 83.5t176 29q54 0 115 -16t104 -42l-60 -158q-76 47 -166 47q-66 0 -117 -29.5t-80 -81t-29 -116.5q0 -79 46.5 -123t125.5 -44q44 0 86 12t86 37v-164q-36 -25 -89.5 -39.5t-114.5 -14.5z" />
    <glyph glyph-name="D" unicode="D" horiz-adv-x="753" 
d="M12 0l136 700h282q90 0 158.5 -37.5t106.5 -103.5t38 -154q0 -120 -54.5 -211.5t-151.5 -142.5t-226 -51h-289zM386 533h-76l-72 -366h78q64 0 112 28t74.5 79.5t26.5 119.5q0 67 -37 103t-106 36z" />
    <glyph glyph-name="E" unicode="E" horiz-adv-x="598" 
d="M12 0l136 700h473l-5 -159h-308l-21 -106h274l-31 -159h-274l-23 -117h327l-49 -159h-499z" />
    <glyph glyph-name="F" unicode="F" horiz-adv-x="569" 
d="M12 0l136 700h465l-5 -159h-300l-23 -118h263l-30 -159h-264l-51 -264h-191z" />
    <glyph glyph-name="G" unicode="G" horiz-adv-x="741" 
d="M407 -16q-166 0 -259.5 82.5t-93.5 230.5q0 91 33 167.5t92.5 133t140.5 87.5t178 31q62 0 129 -16.5t115 -43.5l-61 -162q-87 53 -183 53q-71 0 -125 -30t-84.5 -83t-30.5 -123q0 -160 169 -160q31 0 65 5l20 102h-109l29 146h285l-72 -372q-48 -22 -111 -35t-127 -13z
" />
    <glyph glyph-name="H" unicode="H" horiz-adv-x="746" 
d="M12 0l136 700h196l-51 -260h228l51 260h196l-136 -700h-196l52 269h-228l-52 -269h-196z" />
    <glyph glyph-name="I" unicode="I" horiz-adv-x="322" 
d="M12 0l136 700h196l-136 -700h-196z" />
    <glyph glyph-name="J" unicode="J" horiz-adv-x="558" 
d="M179 -16q-54 0 -106.5 13.5t-91.5 37.5l57 156q68 -40 134 -40q58 0 90 33t47 111l79 405h196l-77 -397q-22 -113 -62 -183.5t-105 -103t-161 -32.5z" />
    <glyph glyph-name="K" unicode="K" horiz-adv-x="724" 
d="M12 0l136 700h196l-53 -270l258 270h227l-282 -276l168 -424h-214l-104 277l-102 -100l-34 -177h-196z" />
    <glyph glyph-name="L" unicode="L" horiz-adv-x="569" 
d="M12 0l137 700h196l-104 -531h305l-52 -169h-482z" />
    <glyph glyph-name="M" unicode="M" horiz-adv-x="873" 
d="M12 0l136 700h228l70 -390l220 390h229l-136 -700h-178l82 425l-177 -307h-156l-57 309l-83 -427h-178z" />
    <glyph glyph-name="N" unicode="N" horiz-adv-x="731" 
d="M12 0l136 700h194l145 -418l81 418h185l-137 -700h-189l-148 420l-82 -420h-185z" />
    <glyph glyph-name="O" unicode="O" horiz-adv-x="819" 
d="M386 -16q-100 0 -174.5 39t-115.5 110t-41 166q0 91 30.5 167.5t85.5 132.5t130 86.5t165 30.5q101 0 175.5 -39t115.5 -110t41 -166q0 -90 -30.5 -166.5t-86 -132.5t-130.5 -87t-165 -31zM401 153q54 0 97.5 31.5t69 85t25.5 119.5q0 74 -37.5 116t-103.5 42
q-55 0 -99 -31t-69.5 -84.5t-25.5 -120.5q0 -74 38 -116t105 -42z" />
    <glyph glyph-name="P" unicode="P" horiz-adv-x="625" 
d="M12 0l136 700h250q108 0 172 -55.5t64 -150.5q0 -81 -39.5 -142t-110.5 -95t-167 -34h-73l-43 -223h-189zM363 549h-56l-33 -175h59q46 0 76 30t30 74q0 32 -20.5 51.5t-55.5 19.5z" />
    <glyph glyph-name="Q" unicode="Q" horiz-adv-x="819" 
d="M387 -16q-100 0 -175 39t-116 109.5t-41 166.5q0 91 30 167t85.5 132t131 87t165.5 31q100 0 174 -39t115.5 -109.5t41.5 -166.5q0 -93 -33.5 -171.5t-91.5 -134.5l70 -95l-101 -84l-78 105q-40 -18 -84.5 -27.5t-92.5 -9.5zM402 153q32 0 59 8l-76 103l97 86l79 -106
q32 58 32 145q0 74 -37 116t-103 42q-55 0 -99.5 -31t-70 -84.5t-25.5 -120.5q0 -75 38.5 -116.5t105.5 -41.5z" />
    <glyph glyph-name="R" unicode="R" horiz-adv-x="660" 
d="M12 0l136 700h250q117 0 181 -52.5t64 -149.5q0 -76 -40 -134t-111 -90l95 -274h-197l-69 237h-74l-46 -237h-189zM365 549h-58l-31 -161h63q47 0 76.5 27t29.5 70q0 30 -21 47t-59 17z" />
    <glyph glyph-name="S" unicode="S" horiz-adv-x="600" 
d="M242 -16q-70 0 -137.5 17.5t-119.5 48.5l55 153q41 -29 93.5 -44.5t107.5 -15.5q115 0 115 68q0 15 -6.5 23.5t-27 17t-63.5 21.5q-97 29 -137.5 73t-40.5 118q0 76 37.5 132.5t105 88t156.5 31.5q64 0 125 -16.5t107 -46.5l-58 -148q-35 24 -82 38t-91 14q-48 0 -76 -18
t-28 -48q0 -14 6.5 -23t26.5 -17t61 -21q100 -31 141 -74.5t41 -117.5q0 -76 -39 -133.5t-108.5 -89t-163.5 -31.5z" />
    <glyph glyph-name="T" unicode="T" horiz-adv-x="632" 
d="M167 0l103 532h-202l32 168h602l-32 -168h-204l-103 -532h-196z" />
    <glyph glyph-name="U" unicode="U" horiz-adv-x="724" 
d="M329 -16q-133 0 -203 59t-70 172q0 31 6 61l82 424h196l-80 -407q-3 -16 -4 -27.5t-1 -22.5q0 -90 89 -90q56 0 85.5 32.5t44.5 108.5l80 406h196l-82 -422q-29 -151 -111 -222.5t-228 -71.5z" />
    <glyph glyph-name="V" unicode="V" horiz-adv-x="726" 
d="M214 0l-120 700h209l52 -481l239 481h207l-392 -700h-195z" />
    <glyph glyph-name="W" unicode="W" horiz-adv-x="1002" 
d="M145 0l-47 700h204l1 -459l190 459h190l14 -458l178 458h198l-317 -700h-194l-13 484l-207 -484h-197z" />
    <glyph glyph-name="X" unicode="X" horiz-adv-x="721" 
d="M-41 0l312 361l-154 339h217l77 -199l153 199h221l-295 -348l170 -352h-221l-88 211l-167 -211h-225z" />
    <glyph glyph-name="Y" unicode="Y" horiz-adv-x="712" 
d="M207 0l53 271l-164 429h210l78 -266l175 266h227l-330 -429l-53 -271h-196z" />
    <glyph glyph-name="Z" unicode="Z" horiz-adv-x="646" 
d="M-13 0l29 146l397 394h-306l48 160h532l-27 -146l-393 -394h330l-48 -160h-562z" />
    <glyph glyph-name="bracketleft" unicode="[" horiz-adv-x="379" 
d="M-18 -156l175 896h275l-5 -151h-111l-117 -594h114l-47 -151h-284z" />
    <glyph glyph-name="backslash" unicode="\" horiz-adv-x="524" 
d="M230 -156l-115 896h189l115 -896h-189z" />
    <glyph glyph-name="bracketright" unicode="]" horiz-adv-x="379" 
d="M409 740l-175 -896h-272l5 151h108l117 594h-114l47 151h284z" />
    <glyph glyph-name="asciicircum" unicode="^" horiz-adv-x="630" 
d="M47 290l200 394h148l200 -394h-188l-88 216l-89 -216h-183z" />
    <glyph glyph-name="underscore" unicode="_" horiz-adv-x="480" 
d="M-85 -181l27 147h480l-28 -147h-479z" />
    <glyph glyph-name="grave" unicode="`" horiz-adv-x="500" 
d="M311 599l-127 158h192l91 -158h-156z" />
    <glyph glyph-name="a" unicode="a" horiz-adv-x="570" 
d="M160 -13q-68 0 -108 40t-40 108q0 187 308 192h34q1 10 1 17q0 20 -21 33t-59 13t-81.5 -11.5t-85.5 -32.5v142q101 48 207 48q101 0 158.5 -47.5t57.5 -132.5q0 -19 -2 -41t-6 -40l-55 -275h-157l8 62q-28 -36 -69.5 -55.5t-89.5 -19.5zM192 164q0 -38 46 -38
q36 0 61.5 23.5t33.5 63.5l2 9h-17q-65 -1 -95.5 -15t-30.5 -43z" />
    <glyph glyph-name="b" unicode="b" horiz-adv-x="636" 
d="M343 -13q-55 0 -95 26.5t-55 71.5l-23 -85h-166l144 740h187l-51 -268q53 64 135 64q55 0 96 -28.5t64 -80t23 -119.5q0 -66 -20 -124.5t-55.5 -102.5t-82.5 -69t-101 -25zM304 147q30 0 54.5 18.5t39 49.5t14.5 68q0 43 -20 68t-54 25q-29 0 -53.5 -18.5t-39 -49.5
t-14.5 -69q0 -43 19.5 -67.5t53.5 -24.5z" />
    <glyph glyph-name="c" unicode="c" horiz-adv-x="524" 
d="M297 -13q-77 0 -136 28.5t-92 82.5t-33 130q0 91 41.5 160.5t114 108.5t165.5 39q50 0 95 -11.5t77 -32.5l-57 -148q-49 33 -107 33q-64 0 -102 -36.5t-38 -99.5q0 -44 26.5 -69.5t74.5 -25.5q66 0 125 36l-2 -156q-66 -39 -152 -39z" />
    <glyph glyph-name="d" unicode="d" horiz-adv-x="636" 
d="M223 -13q-56 0 -98.5 29t-66.5 80.5t-24 118.5q0 66 20.5 124t56 102.5t82.5 69.5t101 25q48 0 84.5 -21.5t53.5 -59.5l55 285h187l-144 -740h-167l9 68q-57 -81 -149 -81zM298 147q30 0 54 18.5t38.5 50t14.5 68.5q0 43 -19.5 67.5t-53.5 24.5q-29 0 -54 -18.5
t-39.5 -49.5t-14.5 -68q0 -43 20 -68t54 -25z" />
    <glyph glyph-name="e" unicode="e" horiz-adv-x="578" 
d="M297 -13q-122 0 -191 64.5t-69 177.5q0 90 38 159t105.5 108.5t154.5 39.5q101 0 158.5 -55.5t57.5 -153.5q0 -30 -4.5 -63t-12.5 -54h-315q7 -39 33 -57t76 -18q38 0 76 9.5t81 30.5v-145q-74 -43 -188 -43zM323 401q-30 0 -54.5 -22t-37.5 -58h151v14q0 66 -59 66z" />
    <glyph glyph-name="f" unicode="f" horiz-adv-x="432" 
d="M59 0l71 360h-102l47 151h84l2 8q46 234 256 234q73 0 129 -28l-46 -150q-30 20 -72 20q-31 0 -52.5 -18.5t-27.5 -50.5l-3 -15h136l-30 -151h-135l-70 -360h-187z" />
    <glyph glyph-name="g" unicode="g" horiz-adv-x="636" 
d="M216 -229q-64 0 -120.5 14t-95.5 39l54 146q69 -43 152 -43q122 0 143 104l7 35q-53 -66 -134 -66q-55 0 -97 28t-65.5 78t-23.5 116q0 65 20 122t55.5 100t82 67.5t100.5 24.5q55 0 94.5 -26.5t54.5 -70.5l23 84h166l-91 -472q-28 -143 -107.5 -211.5t-217.5 -68.5z
M300 160q29 0 53 17.5t38.5 47t14.5 65.5q0 40 -19 63t-53 23q-29 0 -53.5 -17.5t-39 -47t-14.5 -64.5q0 -40 20 -63.5t53 -23.5z" />
    <glyph glyph-name="h" unicode="h" horiz-adv-x="603" 
d="M4 0l144 740h187l-51 -264q52 60 137 60q71 0 109 -42.5t38 -116.5q0 -20 -2.5 -42.5t-5.5 -39.5l-58 -295h-187l57 291q3 17 4 25t1 14q0 19 -12 30.5t-35 11.5q-31 0 -53 -21.5t-30 -61.5l-56 -289h-187z" />
    <glyph glyph-name="i" unicode="i" horiz-adv-x="296" 
d="M217 568q-45 0 -72 25t-27 68q0 49 33.5 80.5t85.5 31.5q45 0 73 -25t28 -65q0 -49 -34.5 -82t-86.5 -33zM4 0l101 523h187l-101 -523h-187z" />
    <glyph glyph-name="j" unicode="j" horiz-adv-x="296" 
d="M217 568q-45 0 -72 25t-27 68q0 49 33.5 80.5t85.5 31.5q45 0 73 -25t28 -65q0 -49 -34.5 -82t-86.5 -33zM-56 -229q-74 0 -129 26l55 145q21 -8 33.5 -11t23.5 -3q34 0 52.5 21t27.5 68l98 506h187l-102 -526q-22 -115 -82 -170.5t-164 -55.5z" />
    <glyph glyph-name="k" unicode="k" horiz-adv-x="611" 
d="M4 0l144 740h187l-74 -380l175 163h221l-216 -190l112 -333h-198l-59 206l-78 -68l-27 -138h-187z" />
    <glyph glyph-name="l" unicode="l" horiz-adv-x="296" 
d="M4 0l144 740h187l-144 -740h-187z" />
    <glyph glyph-name="m" unicode="m" horiz-adv-x="906" 
d="M4 0l102 523h165l-9 -71q51 84 157 84q110 0 138 -85q27 42 69.5 63.5t93.5 21.5q72 0 111.5 -41.5t39.5 -113.5q0 -33 -8 -75l-61 -306h-187l59 297q3 17 3 29q0 46 -43 46q-63 0 -80 -82l-58 -290h-187l59 297q3 16 3.5 21t0.5 6q0 48 -44 48q-33 0 -53 -23t-28 -61
l-56 -288h-187z" />
    <glyph glyph-name="n" unicode="n" horiz-adv-x="602" 
d="M4 0l103 523h164l-8 -71q26 40 66 62t91 22q71 0 109 -42.5t38 -116.5q0 -20 -2.5 -42.5t-5.5 -39.5l-58 -295h-187l57 291q3 17 4 25t1 14q0 19 -12 30.5t-35 11.5q-31 0 -52.5 -21.5t-29.5 -61.5l-56 -289h-187z" />
    <glyph glyph-name="o" unicode="o" horiz-adv-x="627" 
d="M285 -13q-75 0 -131 29t-87 82.5t-31 124.5q0 92 39.5 162.5t109 110.5t160.5 40q75 0 130 -29.5t85.5 -82.5t30.5 -124q0 -93 -38.5 -163.5t-107.5 -110t-160 -39.5zM300 146q44 0 73 41t29 102q0 41 -19 64.5t-53 23.5q-29 0 -53 -18.5t-38 -50t-14 -71.5
q0 -41 20.5 -66t54.5 -25z" />
    <glyph glyph-name="p" unicode="p" horiz-adv-x="636" 
d="M-38 -216l144 739h165l-8 -67q61 80 154 80q56 0 97.5 -28.5t64.5 -80t23 -119.5q0 -66 -20 -124.5t-55.5 -102.5t-82.5 -69t-101 -25q-50 0 -85.5 22t-52.5 61l-56 -286h-187zM304 147q30 0 54.5 18.5t39 49.5t14.5 68q0 43 -20 68t-54 25q-29 0 -53.5 -18.5t-39 -49.5
t-14.5 -69q0 -43 19.5 -67.5t53.5 -24.5z" />
    <glyph glyph-name="q" unicode="q" horiz-adv-x="636" 
d="M301 -216l51 265q-52 -62 -129 -62q-56 0 -98.5 29t-66.5 80.5t-24 118.5q0 66 20.5 124t56 102.5t82.5 69.5t101 25q55 0 94.5 -26.5t54.5 -71.5l23 85h165l-143 -739h-187zM298 147q30 0 54 18.5t38.5 50t14.5 68.5q0 43 -19.5 67.5t-53.5 24.5q-29 0 -54 -18.5
t-39.5 -49.5t-14.5 -68q0 -43 20 -68t54 -25z" />
    <glyph glyph-name="r" unicode="r" horiz-adv-x="425" 
d="M4 0l102 523h163l-12 -101q50 111 151 111q17 0 33.5 -3.5t24.5 -8.5l-37 -173q-27 10 -62 10q-51 0 -86.5 -37t-48.5 -104l-42 -217h-186z" />
    <glyph glyph-name="s" unicode="s" horiz-adv-x="494" 
d="M186 -13q-114 0 -203 51l52 140q35 -22 74.5 -34.5t76.5 -12.5q35 0 54 8.5t19 24.5q0 8 -5.5 13.5t-22.5 11.5t-53 15q-71 19 -103.5 53.5t-32.5 90.5q0 57 31.5 99t88 65.5t131.5 23.5q53 0 105 -12.5t90 -34.5l-55 -137q-29 18 -67.5 29t-70.5 11q-70 0 -70 -29
q0 -7 5.5 -12.5t23.5 -11.5t55 -15q70 -16 102.5 -51t32.5 -91q0 -58 -32.5 -101.5t-90.5 -68.5t-135 -25z" />
    <glyph glyph-name="t" unicode="t" horiz-adv-x="454" 
d="M263 -10q-82 0 -125 39.5t-43 115.5q0 20 2.5 44t6.5 46l27 137h-101l47 151h83l33 167h187l-33 -167h125l-30 -151h-124l-27 -137q-3 -13 -4 -26t-1 -24q0 -37 40 -37q16 0 33.5 4.5t38.5 12.5l-11 -150q-57 -25 -124 -25z" />
    <glyph glyph-name="u" unicode="u" horiz-adv-x="597" 
d="M186 -13q-72 0 -112 42.5t-40 115.5q0 17 2 34.5t6 37.5l61 306h187l-58 -297q-4 -24 -4 -32q0 -42 42 -42q30 0 51 20.5t28 59.5l57 291h187l-101 -523h-166l8 71q-50 -84 -148 -84z" />
    <glyph glyph-name="v" unicode="v" horiz-adv-x="596" 
d="M153 0l-95 523h194l30 -343l159 343h199l-298 -523h-189z" />
    <glyph glyph-name="w" unicode="w" horiz-adv-x="852" 
d="M112 0l-51 523h194l-9 -342l138 342h184l8 -342l127 342h190l-251 -523h-189l-10 334l-136 -334h-195z" />
    <glyph glyph-name="x" unicode="x" horiz-adv-x="605" 
d="M-34 0l239 269l-129 254h200l52 -133l102 133h209l-241 -270l134 -253h-205l-51 125l-98 -125h-212z" />
    <glyph glyph-name="y" unicode="y" horiz-adv-x="605" 
d="M70 -229q-77 0 -126 26l46 147q16 -8 37 -12.5t42 -4.5q69 0 99 58l8 15l-116 523h198l42 -334l150 334h199l-304 -552q-41 -75 -80.5 -119t-86 -62.5t-108.5 -18.5z" />
    <glyph glyph-name="z" unicode="z" horiz-adv-x="524" 
d="M-16 0l27 136l265 241h-217l46 146h426l-27 -135l-263 -242h233l-47 -146h-443z" />
    <glyph glyph-name="braceleft" unicode="{" horiz-adv-x="386" 
d="M175 -156q-67 0 -104 34t-37 89q0 35 11 71t22 69.5t11 58.5q0 52 -67 52l30 149q44 0 65 19t28 56q6 32 6.5 65.5t6.5 67.5q14 76 69.5 120.5t132.5 44.5h90l-5 -151h-42q-31 0 -47 -14t-24 -47q-8 -37 -7.5 -70.5t-6.5 -64.5q-9 -42 -38.5 -66t-77.5 -34q78 -18 78 -84
q0 -27 -10.5 -60t-21.5 -63.5t-11 -52.5q0 -38 48 -38h51l-47 -151h-103z" />
    <glyph glyph-name="bar" unicode="|" horiz-adv-x="327" 
d="M-23 -216l186 956h187l-186 -956h-187z" />
    <glyph glyph-name="braceright" unicode="}" horiz-adv-x="386" 
d="M220 740q67 0 104 -33.5t37 -92.5q0 -31 -11 -67t-22 -70t-11 -59q0 -52 67 -52l-30 -149q-41 0 -63 -18t-30 -57q-6 -30 -5.5 -62.5t-7.5 -70.5q-15 -76 -70 -120.5t-132 -44.5h-90l5 151h42q31 0 47.5 14t23.5 47q6 27 7 47.5t1.5 41.5t5.5 46q15 78 116 100
q-78 18 -78 84q0 28 11 60.5t21.5 63.5t10.5 51q0 39 -48 39h-48l47 151h100z" />
    <glyph glyph-name="asciitilde" unicode="~" horiz-adv-x="630" 
d="M215 217l-144 10q2 122 40 180.5t114 58.5q33 0 64.5 -11t59.5 -37q31 -28 44.5 -37t23.5 -9q17 0 22.5 18t7.5 76l145 -10q-2 -121 -40 -180t-115 -59q-70 0 -124 48q-31 28 -44.5 37t-23.5 9q-16 0 -22 -17.5t-8 -76.5z" />
    <glyph glyph-name="uni00A0" unicode="&#xa0;" horiz-adv-x="189" 
 />
    <glyph glyph-name="exclamdown" unicode="&#xa1;" horiz-adv-x="308" 
d="M198 533q45 0 72 -25t27 -68q0 -49 -35.5 -83t-87.5 -34q-45 0 -71.5 26t-26.5 69q0 50 34.5 82.5t87.5 32.5zM241 275l-73 -453h-193l102 453h164z" />
    <glyph glyph-name="cent" unicode="&#xa2;" horiz-adv-x="630" 
d="M197 -35l50 130q-70 26 -109.5 84.5t-39.5 140.5q0 89 43 157.5t117.5 108t170.5 39.5h17l42 110h104l-48 -126q36 -11 62 -28l-57 -148q-30 18 -59 26l-84 -224q64 3 122 36l-2 -156q-76 -39 -168 -39h-14l-42 -111h-105zM287 330q0 -42 26 -67l74 197
q-47 -12 -73.5 -45.5t-26.5 -84.5z" />
    <glyph glyph-name="sterling" unicode="&#xa3;" horiz-adv-x="630" 
d="M18 0l27 140q59 23 82.5 57.5t23.5 94.5v8h-89l19 101h64q0 10 -0.5 19.5t-0.5 17.5q0 123 78.5 191.5t220.5 68.5q56 0 108.5 -13.5t92.5 -38.5l-57 -153q-37 22 -68 31.5t-66 9.5q-62 0 -91 -30t-29 -95v-8h158l-19 -101h-134v-7q0 -90 -73 -130h303l-50 -163h-500z
" />
    <glyph glyph-name="currency" unicode="&#xa4;" horiz-adv-x="630" 
d="M125 12l-88 75l90 101q-25 31 -39 70t-14 84t14 84.5t39 70.5l-90 100l88 75l96 -107q51 21 110 21t110 -21l97 107l87 -75l-90 -100q25 -31 39 -70.5t14 -84.5t-14 -84t-39 -70l90 -101l-87 -75l-96 107q-51 -21 -111 -21t-110 21zM331 246q41 0 66 26.5t25 69.5
q0 44 -25 70t-66 26t-66 -26t-25 -70q0 -43 25 -69.5t66 -26.5z" />
    <glyph glyph-name="yen" unicode="&#xa5;" horiz-adv-x="630" 
d="M45 100l20 101h140l12 59h-141l20 101h87l-112 323h199l71 -270l175 270h206l-241 -323h88l-20 -101h-142l-12 -59h143l-20 -101h-143l-19 -100h-189l19 100h-141z" />
    <glyph glyph-name="brokenbar" unicode="&#xa6;" horiz-adv-x="327" 
d="M90 363l73 377h187l-73 -377h-187zM-23 -216l77 396h187l-77 -396h-187z" />
    <glyph glyph-name="section" unicode="&#xa7;" horiz-adv-x="551" 
d="M190 -170q-52 0 -108 13.5t-100 38.5l54 140q35 -22 77 -35t80 -13q34 0 53.5 10.5t19.5 29.5q0 13 -10 22.5t-36 19.5l-70 28q-55 22 -85 59.5t-30 92.5q0 57 33 99.5t96 71.5q-45 50 -45 119q0 58 31.5 100.5t87.5 66t128 23.5q53 0 102 -12.5t89 -35.5l-55 -138
q-28 21 -62.5 31.5t-66.5 10.5q-35 0 -52.5 -11t-17.5 -30q0 -11 8.5 -20.5t35.5 -20.5l65 -27q56 -23 86 -61t30 -88q0 -51 -31 -95t-90 -77q43 -43 43 -107q0 -57 -33.5 -103.5t-92 -74t-134.5 -27.5zM262 216l46 -17q45 33 45 74q0 38 -53 59l-45 18q-21 -16 -33 -35
t-12 -40q0 -19 12 -33.5t40 -25.5z" />
    <glyph glyph-name="dieresis" unicode="&#xa8;" horiz-adv-x="500" 
d="M209 596q-34 0 -54 20.5t-20 54.5q0 40 25.5 65.5t65.5 25.5q34 0 55 -20.5t21 -52.5q0 -40 -26 -66.5t-67 -26.5zM436 596q-34 0 -54 20.5t-20 54.5q0 40 26 65.5t65 25.5q34 0 55 -20.5t21 -52.5q0 -40 -26 -66.5t-67 -26.5z" />
    <glyph glyph-name="copyright" unicode="&#xa9;" horiz-adv-x="873" 
d="M454 -16q-85 0 -156.5 27t-123.5 76t-81 116t-29 147t29 147t81 116t123.5 76t156.5 27t156.5 -27t123.5 -76t81 -116t29 -147t-29 -147t-81 -116t-123.5 -76t-156.5 -27zM454 79q84 0 147.5 34.5t99.5 96t36 140.5q0 80 -36 141t-100 95.5t-147 34.5t-147 -34.5
t-100 -95.5t-36 -141q0 -79 36 -140.5t100 -96t147 -34.5zM479 140q-105 0 -166 55.5t-61 150.5q0 65 29 113.5t80.5 76t119.5 27.5q32 0 65.5 -7.5t61.5 -21.5l-23 -122q-45 26 -93 26q-43 0 -69.5 -24t-26.5 -64q0 -42 25.5 -65.5t71.5 -23.5t98 27l23 -116
q-58 -32 -135 -32z" />
    <glyph glyph-name="ordfeminine" unicode="&#xaa;" horiz-adv-x="431" 
d="M170 308q-46 0 -76 31.5t-30 80.5q0 136 225 140h26v7q0 42 -56 42q-28 0 -56.5 -8t-64.5 -27l1 106q71 35 158 35q144 0 144 -122q0 -16 -3.5 -39t-8.5 -52l-35 -184h-111l5 44q-21 -25 -51.5 -39.5t-66.5 -14.5zM194 438q0 -31 34 -31q26 0 46 19t26 50l2 8h-19
q-40 -1 -64.5 -12.5t-24.5 -33.5z" />
    <glyph glyph-name="guillemotleft" unicode="&#xab;" horiz-adv-x="682" 
d="M126 52l-93 210l172 210h189l-169 -218l81 -202h-180zM418 52l-93 210l172 210h189l-169 -218l81 -202h-180z" />
    <glyph glyph-name="logicalnot" unicode="&#xac;" horiz-adv-x="630" 
d="M406 185v177h-334v147h490v-324h-156z" />
    <glyph glyph-name="registered" unicode="&#xae;" horiz-adv-x="517" 
d="M306 295q-64 0 -113.5 27t-78 75t-28.5 109t28.5 108.5t78 74.5t113.5 27t113.5 -27t78 -74.5t28.5 -108.5t-28.5 -109t-78 -75t-113.5 -27zM306 346q72 0 117.5 44.5t45.5 115.5t-45.5 115t-117.5 44t-117.5 -44t-45.5 -115t45.5 -115.5t117.5 -44.5zM210 399v213h98
q46 0 73 -21.5t27 -57.5q0 -41 -34 -61l45 -73h-79l-31 55h-1h-27v-55h-71zM281 513h21q27 0 27 20t-27 20h-21v-40z" />
    <glyph glyph-name="macron" unicode="&#xaf;" horiz-adv-x="500" 
d="M125 618l24 123h388l-24 -123h-388z" />
    <glyph glyph-name="degree" unicode="&#xb0;" horiz-adv-x="458" 
d="M277 323q-57 0 -101 23.5t-68.5 66t-24.5 97.5q0 56 24.5 98.5t68.5 66t101 23.5q58 0 102 -24t68.5 -66t24.5 -98q0 -55 -25 -97.5t-68.5 -66t-101.5 -23.5zM277 427q32 0 51 23t19 60q0 39 -19 61.5t-51 22.5t-51 -22.5t-19 -61.5q0 -37 19.5 -60t50.5 -23z" />
    <glyph glyph-name="plusminus" unicode="&#xb1;" horiz-adv-x="630" 
d="M92 0v147h493v-147h-493zM260 189v176h-168v147h168v176h157v-176h168v-147h-168v-176h-157z" />
    <glyph glyph-name="uni00B2" unicode="&#xb2;" horiz-adv-x="402" 
d="M74 388l17 87q94 57 144 93q54 38 54 75q0 36 -40 36q-43 0 -96 -35l-14 95q33 20 70.5 31.5t73.5 11.5q62 0 98.5 -30.5t36.5 -81.5q0 -34 -16 -64t-48 -58q-29 -26 -84 -59h125l-31 -101h-290z" />
    <glyph glyph-name="uni00B3" unicode="&#xb3;" horiz-adv-x="402" 
d="M219 380q-86 0 -148 35l39 91q19 -13 47.5 -20.5t55.5 -7.5q55 0 55 34q0 25 -50 25h-55l19 95h50q59 0 59 28q0 24 -41 24q-45 0 -102 -27l-5 90q67 35 142 35q61 0 96 -25.5t35 -69.5q0 -71 -72 -102q46 -26 46 -75q0 -59 -46.5 -94.5t-124.5 -35.5z" />
    <glyph glyph-name="acute" unicode="&#xb4;" horiz-adv-x="500" 
d="M157 599l153 158h196l-188 -158h-161z" />
    <glyph glyph-name="paragraph" unicode="&#xb6;" horiz-adv-x="690" 
d="M155 -147l85 437q-81 11 -124 57t-43 123q0 70 37.5 121.5t106 80t160.5 28.5h335l-164 -847h-163l137 708h-67l-138 -708h-162z" />
    <glyph glyph-name="periodcentered" unicode="&#xb7;" horiz-adv-x="298" 
d="M138 159q-45 0 -72 25t-27 68q0 50 35.5 83.5t87.5 33.5q45 0 71.5 -25.5t26.5 -69.5q0 -50 -34.5 -82.5t-87.5 -32.5z" />
    <glyph glyph-name="cedilla" unicode="&#xb8;" horiz-adv-x="500" 
d="M141 -229q-28 0 -57.5 5t-49.5 13l34 77q36 -15 69 -15q26 0 42.5 8.5t16.5 21.5q0 20 -53 20q-12 0 -26 -1.5t-24 -3.5l53 119h85l-26 -54h1q45 0 70.5 -20t25.5 -55q0 -52 -43.5 -83.5t-117.5 -31.5z" />
    <glyph glyph-name="uni00B9" unicode="&#xb9;" horiz-adv-x="402" 
d="M187 388l49 252l-66 -40l-34 91l140 83h106l-75 -386h-120z" />
    <glyph glyph-name="ordmasculine" unicode="&#xba;" horiz-adv-x="478" 
d="M270 308q-85 0 -136 49.5t-51 134.5q0 65 28.5 115.5t79 79t115.5 28.5q86 0 136.5 -49.5t50.5 -133.5q0 -65 -29 -115.5t-79 -79.5t-115 -29zM278 422q35 0 57.5 29t22.5 73q0 37 -15.5 57t-44.5 20q-34 0 -57 -29.5t-23 -73.5q0 -36 16 -56t44 -20z" />
    <glyph glyph-name="guillemotright" unicode="&#xbb;" horiz-adv-x="682" 
d="M264 472l93 -210l-172 -210h-189l169 218l-81 202h180zM556 472l93 -210l-172 -210h-189l169 218l-81 202h180z" />
    <glyph glyph-name="onequarter" unicode="&#xbc;" horiz-adv-x="940" 
d="M186 0l457 684h138l-457 -684h-138zM697 0l12 60h-179l18 94l218 232h119l-45 -231h50l-29 -95h-39l-12 -60h-113zM659 155h68l18 92zM162 298l49 252l-66 -40l-34 91l140 83h106l-75 -386h-120z" />
    <glyph glyph-name="onehalf" unicode="&#xbd;" horiz-adv-x="940" 
d="M155 0l457 684h138l-457 -684h-138zM537 0l17 87q94 57 144 93q54 38 54 75q0 36 -40 36q-43 0 -96 -35l-14 95q33 20 70.5 31.5t73.5 11.5q62 0 98.5 -30.5t36.5 -81.5q0 -34 -16 -64t-48 -58q-29 -26 -84 -59h125l-31 -101h-290zM162 298l49 252l-66 -40l-34 91l140 83
h106l-75 -386h-120z" />
    <glyph glyph-name="threequarters" unicode="&#xbe;" horiz-adv-x="940" 
d="M186 0l457 684h138l-457 -684h-138zM697 0l12 60h-179l18 94l218 232h119l-45 -231h50l-29 -95h-39l-12 -60h-113zM659 155h68l18 92zM194 290q-86 0 -148 35l39 91q19 -13 47.5 -20.5t55.5 -7.5q55 0 55 34q0 25 -50 25h-55l19 95h50q59 0 59 28q0 24 -41 24
q-45 0 -102 -27l-5 90q67 35 142 35q61 0 96 -25.5t35 -69.5q0 -71 -72 -102q46 -26 46 -75q0 -59 -46.5 -94.5t-124.5 -35.5z" />
    <glyph glyph-name="questiondown" unicode="&#xbf;" horiz-adv-x="518" 
d="M330 534q45 0 72 -25t27 -68q0 -49 -35.5 -83t-87.5 -34q-45 0 -71.5 26t-26.5 69q0 50 34.5 82.5t87.5 32.5zM378 276v-10q0 -43 -12 -73.5t-39.5 -56t-74.5 -55.5q-32 -20 -48.5 -32.5t-22.5 -22.5t-6 -23q0 -37 74 -37q38 0 79.5 11.5t74.5 31.5l10 -147
q-37 -25 -93.5 -40t-118.5 -15q-101 0 -158.5 47t-57.5 130q0 59 30.5 101t103.5 85q42 24 63.5 39t30.5 27.5t10 27.5l1 12h154z" />
    <glyph glyph-name="Agrave" unicode="&#xc0;" horiz-adv-x="748" 
d="M-41 0l397 700h206l125 -700h-214l-15 128h-220l-65 -128h-214zM318 287h122l-22 198zM403 772l-144 132h212l117 -132h-185z" />
    <glyph glyph-name="Aacute" unicode="&#xc1;" horiz-adv-x="748" 
d="M-41 0l397 700h206l125 -700h-214l-15 128h-220l-65 -128h-214zM318 287h122l-22 198zM358 772l169 132h214l-196 -132h-187z" />
    <glyph glyph-name="Acircumflex" unicode="&#xc2;" horiz-adv-x="748" 
d="M-41 0l397 700h206l125 -700h-214l-15 128h-220l-65 -128h-214zM318 287h122l-22 198zM245 772l169 132h169l119 -132h-179l-43 42l-59 -42h-176z" />
    <glyph glyph-name="Atilde" unicode="&#xc3;" horiz-adv-x="748" 
d="M-41 0l397 700h206l125 -700h-214l-15 128h-220l-65 -128h-214zM318 287h122l-22 198zM369 769l-114 12q14 72 57 111t107 39q29 0 49 -5.5t45 -19.5q32 -17 49 -17q31 0 41 42l114 -13q-14 -72 -56.5 -110.5t-107.5 -38.5q-29 0 -51 6.5t-58 25.5q-16 9 -34 9
q-31 0 -41 -41z" />
    <glyph glyph-name="Adieresis" unicode="&#xc4;" horiz-adv-x="748" 
d="M-41 0l397 700h206l125 -700h-214l-15 128h-220l-65 -128h-214zM318 287h122l-22 198zM350 763q-34 0 -55 21t-21 56q0 41 26.5 67t66.5 26q35 0 56.5 -21t21.5 -54q0 -40 -27 -67.5t-68 -27.5zM590 763q-34 0 -55 21t-21 56q0 41 27 67t67 26q35 0 56 -21t21 -54
q0 -40 -27 -67.5t-68 -27.5z" />
    <glyph glyph-name="Aring" unicode="&#xc5;" horiz-adv-x="748" 
d="M-41 0l397 700h206l125 -700h-214l-15 128h-220l-65 -128h-214zM318 287h122l-22 198zM467 759q-49 0 -79.5 28.5t-30.5 75.5q0 53 37 88t95 35q49 0 80 -28.5t31 -72.5q0 -55 -37.5 -90.5t-95.5 -35.5zM474 824q23 0 38 15.5t15 37.5q0 44 -44 44q-22 0 -37.5 -15
t-15.5 -38q0 -20 12 -32t32 -12z" />
    <glyph glyph-name="AE" unicode="&#xc6;" horiz-adv-x="1065" 
d="M-41 0l540 700h589l-4 -159h-296l-21 -107h262l-31 -158h-262l-23 -117h315l-49 -159h-483l25 127h-252l-93 -127h-217zM385 285h166l50 256h-27z" />
    <glyph glyph-name="Ccedilla" unicode="&#xc7;" horiz-adv-x="680" 
d="M400 -16q-98 0 -176 39t-123 110.5t-45 168.5q0 95 32 171t90.5 130.5t138.5 83.5t176 29q54 0 115 -16t104 -42l-60 -158q-76 47 -166 47q-66 0 -117 -29.5t-80 -81t-29 -116.5q0 -79 46.5 -123t125.5 -44q44 0 86 12t86 37v-164q-36 -25 -89.5 -39.5t-114.5 -14.5z
M340 -229q-27 0 -57.5 4.5t-50.5 11.5l34 79q34 -10 67 -10q29 0 46 7t17 18q0 18 -51 18q-30 0 -52 -5l53 121h85l-25 -52h1q47 0 72.5 -21t25.5 -59q0 -51 -45 -81.5t-120 -30.5z" />
    <glyph glyph-name="Egrave" unicode="&#xc8;" horiz-adv-x="598" 
d="M12 0l136 700h473l-5 -159h-308l-21 -106h274l-31 -159h-274l-23 -117h327l-49 -159h-499zM339 772l-144 132h212l117 -132h-185z" />
    <glyph glyph-name="Eacute" unicode="&#xc9;" horiz-adv-x="598" 
d="M12 0l136 700h473l-5 -159h-308l-21 -106h274l-31 -159h-274l-23 -117h327l-49 -159h-499zM294 772l169 132h214l-196 -132h-187z" />
    <glyph glyph-name="Ecircumflex" unicode="&#xca;" horiz-adv-x="598" 
d="M12 0l136 700h473l-5 -159h-308l-21 -106h274l-31 -159h-274l-23 -117h327l-49 -159h-499zM181 772l169 132h169l119 -132h-179l-43 42l-59 -42h-176z" />
    <glyph glyph-name="Edieresis" unicode="&#xcb;" horiz-adv-x="598" 
d="M12 0l136 700h473l-5 -159h-308l-21 -106h274l-31 -159h-274l-23 -117h327l-49 -159h-499zM286 763q-34 0 -55 21t-21 56q0 41 26.5 67t66.5 26q35 0 56.5 -21t21.5 -54q0 -40 -27 -67.5t-68 -27.5zM526 763q-34 0 -55 21t-21 56q0 41 27 67t67 26q35 0 56 -21t21 -54
q0 -40 -27 -67.5t-68 -27.5z" />
    <glyph glyph-name="Igrave" unicode="&#xcc;" horiz-adv-x="322" 
d="M12 0l136 700h196l-136 -700h-196zM190 772l-144 132h212l117 -132h-185z" />
    <glyph glyph-name="Iacute" unicode="&#xcd;" horiz-adv-x="322" 
d="M12 0l136 700h196l-136 -700h-196zM145 772l169 132h214l-196 -132h-187z" />
    <glyph glyph-name="Icircumflex" unicode="&#xce;" horiz-adv-x="322" 
d="M12 0l136 700h196l-136 -700h-196zM32 772l169 132h169l119 -132h-179l-43 42l-59 -42h-176z" />
    <glyph glyph-name="Idieresis" unicode="&#xcf;" horiz-adv-x="322" 
d="M12 0l136 700h196l-136 -700h-196zM137 763q-34 0 -55 21t-21 56q0 41 26.5 67t66.5 26q35 0 56.5 -21t21.5 -54q0 -40 -27 -67.5t-68 -27.5zM377 763q-34 0 -55 21t-21 56q0 41 27 67t67 26q35 0 56 -21t21 -54q0 -40 -27 -67.5t-68 -27.5z" />
    <glyph glyph-name="Eth" unicode="&#xd0;" horiz-adv-x="767" 
d="M30 0l58 298h-66l27 137h66l51 265h280q89 0 157 -37.5t106 -103.5t38 -154q0 -120 -54 -211.5t-151 -142.5t-225 -51h-287zM398 298h-117l-26 -131h77q64 0 111.5 28t73.5 79.5t26 119.5t-36.5 103.5t-104.5 35.5h-75l-19 -98h117z" />
    <glyph glyph-name="Ntilde" unicode="&#xd1;" horiz-adv-x="731" 
d="M12 0l136 700h194l145 -418l81 418h185l-137 -700h-189l-148 420l-82 -420h-185zM365 769l-114 12q14 72 57 111t107 39q29 0 49 -5.5t45 -19.5q32 -17 49 -17q31 0 41 42l114 -13q-14 -72 -56.5 -110.5t-107.5 -38.5q-29 0 -51 6.5t-58 25.5q-16 9 -34 9q-31 0 -41 -41z
" />
    <glyph glyph-name="Ograve" unicode="&#xd2;" horiz-adv-x="819" 
d="M386 -16q-100 0 -174.5 39t-115.5 110t-41 166q0 91 30.5 167.5t85.5 132.5t130 86.5t165 30.5q101 0 175.5 -39t115.5 -110t41 -166q0 -90 -30.5 -166.5t-86 -132.5t-130.5 -87t-165 -31zM401 153q54 0 97.5 31.5t69 85t25.5 119.5q0 74 -37.5 116t-103.5 42
q-55 0 -99 -31t-69.5 -84.5t-25.5 -120.5q0 -74 38 -116t105 -42zM428 772l-144 132h212l117 -132h-185z" />
    <glyph glyph-name="Oacute" unicode="&#xd3;" horiz-adv-x="819" 
d="M386 -16q-100 0 -174.5 39t-115.5 110t-41 166q0 91 30.5 167.5t85.5 132.5t130 86.5t165 30.5q101 0 175.5 -39t115.5 -110t41 -166q0 -90 -30.5 -166.5t-86 -132.5t-130.5 -87t-165 -31zM401 153q54 0 97.5 31.5t69 85t25.5 119.5q0 74 -37.5 116t-103.5 42
q-55 0 -99 -31t-69.5 -84.5t-25.5 -120.5q0 -74 38 -116t105 -42zM383 772l169 132h214l-196 -132h-187z" />
    <glyph glyph-name="Ocircumflex" unicode="&#xd4;" horiz-adv-x="819" 
d="M386 -16q-100 0 -174.5 39t-115.5 110t-41 166q0 91 30.5 167.5t85.5 132.5t130 86.5t165 30.5q101 0 175.5 -39t115.5 -110t41 -166q0 -90 -30.5 -166.5t-86 -132.5t-130.5 -87t-165 -31zM401 153q54 0 97.5 31.5t69 85t25.5 119.5q0 74 -37.5 116t-103.5 42
q-55 0 -99 -31t-69.5 -84.5t-25.5 -120.5q0 -74 38 -116t105 -42zM270 772l169 132h169l119 -132h-179l-43 42l-59 -42h-176z" />
    <glyph glyph-name="Otilde" unicode="&#xd5;" horiz-adv-x="819" 
d="M386 -16q-100 0 -174.5 39t-115.5 110t-41 166q0 91 30.5 167.5t85.5 132.5t130 86.5t165 30.5q101 0 175.5 -39t115.5 -110t41 -166q0 -90 -30.5 -166.5t-86 -132.5t-130.5 -87t-165 -31zM401 153q54 0 97.5 31.5t69 85t25.5 119.5q0 74 -37.5 116t-103.5 42
q-55 0 -99 -31t-69.5 -84.5t-25.5 -120.5q0 -74 38 -116t105 -42zM394 769l-114 12q14 72 57 111t107 39q29 0 49 -5.5t45 -19.5q32 -17 49 -17q31 0 41 42l114 -13q-14 -72 -56.5 -110.5t-107.5 -38.5q-29 0 -51 6.5t-58 25.5q-16 9 -34 9q-31 0 -41 -41z" />
    <glyph glyph-name="Odieresis" unicode="&#xd6;" horiz-adv-x="819" 
d="M386 -16q-100 0 -174.5 39t-115.5 110t-41 166q0 91 30.5 167.5t85.5 132.5t130 86.5t165 30.5q101 0 175.5 -39t115.5 -110t41 -166q0 -90 -30.5 -166.5t-86 -132.5t-130.5 -87t-165 -31zM401 153q54 0 97.5 31.5t69 85t25.5 119.5q0 74 -37.5 116t-103.5 42
q-55 0 -99 -31t-69.5 -84.5t-25.5 -120.5q0 -74 38 -116t105 -42zM375 763q-34 0 -55 21t-21 56q0 41 26.5 67t66.5 26q35 0 56.5 -21t21.5 -54q0 -40 -27 -67.5t-68 -27.5zM615 763q-34 0 -55 21t-21 56q0 41 27 67t67 26q35 0 56 -21t21 -54q0 -40 -27 -67.5t-68 -27.5z
" />
    <glyph glyph-name="multiply" unicode="&#xd7;" horiz-adv-x="630" 
d="M186 96l-104 104l143 143l-141 141l103 104l144 -141l141 141l104 -104l-141 -141l142 -143l-104 -104l-145 142z" />
    <glyph glyph-name="Oslash" unicode="&#xd8;" horiz-adv-x="819" 
d="M125 -58l-84 82l74 80q-29 38 -44.5 87.5t-15.5 107.5q0 91 30.5 167t85.5 132t130.5 87t165.5 31q104 0 182 -43l80 85l85 -82l-76 -81q29 -38 44.5 -87t15.5 -107q0 -91 -30.5 -167t-86 -132t-130.5 -87t-164 -31q-104 0 -182 43zM256 311q0 -31 7 -57l263 279
q-31 17 -73 17q-56 0 -100.5 -31.5t-70.5 -85.5t-26 -122zM402 150q55 0 99 31.5t70 86t26 121.5q0 30 -6 55l-262 -278q31 -16 73 -16z" />
    <glyph glyph-name="Ugrave" unicode="&#xd9;" horiz-adv-x="724" 
d="M329 -16q-133 0 -203 59t-70 172q0 31 6 61l82 424h196l-80 -407q-3 -16 -4 -27.5t-1 -22.5q0 -90 89 -90q56 0 85.5 32.5t44.5 108.5l80 406h196l-82 -422q-29 -151 -111 -222.5t-228 -71.5zM391 772l-144 132h212l117 -132h-185z" />
    <glyph glyph-name="Uacute" unicode="&#xda;" horiz-adv-x="724" 
d="M329 -16q-133 0 -203 59t-70 172q0 31 6 61l82 424h196l-80 -407q-3 -16 -4 -27.5t-1 -22.5q0 -90 89 -90q56 0 85.5 32.5t44.5 108.5l80 406h196l-82 -422q-29 -151 -111 -222.5t-228 -71.5zM346 772l169 132h214l-196 -132h-187z" />
    <glyph glyph-name="Ucircumflex" unicode="&#xdb;" horiz-adv-x="724" 
d="M329 -16q-133 0 -203 59t-70 172q0 31 6 61l82 424h196l-80 -407q-3 -16 -4 -27.5t-1 -22.5q0 -90 89 -90q56 0 85.5 32.5t44.5 108.5l80 406h196l-82 -422q-29 -151 -111 -222.5t-228 -71.5zM233 772l169 132h169l119 -132h-179l-43 42l-59 -42h-176z" />
    <glyph glyph-name="Udieresis" unicode="&#xdc;" horiz-adv-x="724" 
d="M329 -16q-133 0 -203 59t-70 172q0 31 6 61l82 424h196l-80 -407q-3 -16 -4 -27.5t-1 -22.5q0 -90 89 -90q56 0 85.5 32.5t44.5 108.5l80 406h196l-82 -422q-29 -151 -111 -222.5t-228 -71.5zM338 763q-34 0 -55 21t-21 56q0 41 26.5 67t66.5 26q35 0 56.5 -21t21.5 -54
q0 -40 -27 -67.5t-68 -27.5zM578 763q-34 0 -55 21t-21 56q0 41 27 67t67 26q35 0 56 -21t21 -54q0 -40 -27 -67.5t-68 -27.5z" />
    <glyph glyph-name="Yacute" unicode="&#xdd;" horiz-adv-x="712" 
d="M207 0l53 271l-164 429h210l78 -266l175 266h227l-330 -429l-53 -271h-196zM332 772l169 132h214l-196 -132h-187z" />
    <glyph glyph-name="Thorn" unicode="&#xde;" horiz-adv-x="625" 
d="M12 0l137 700h188l-21 -106h62q108 0 172 -55.5t64 -150.5q0 -81 -39.5 -142t-110.5 -95t-167 -34h-73l-23 -117h-189zM343 443h-56l-34 -175h60q46 0 76 30t30 74q0 32 -20.5 51.5t-55.5 19.5z" />
    <glyph glyph-name="germandbls" unicode="&#xdf;" horiz-adv-x="641" 
d="M337 -13q-34 0 -65.5 5t-51.5 13l49 142q18 -7 50 -7q40 0 64 24.5t24 63.5q0 29 -21.5 45t-59.5 16h-38l31 152h17q40 0 67.5 30t27.5 73q0 27 -15.5 41.5t-43.5 14.5q-32 0 -55 -23.5t-31 -67.5l-99 -509h-187l97 499q25 126 101 190t198 64q104 0 165 -47.5t61 -127.5
q0 -66 -36.5 -120t-98.5 -80q109 -36 109 -144q0 -73 -33 -128.5t-91 -87t-135 -31.5z" />
    <glyph glyph-name="agrave" unicode="&#xe0;" horiz-adv-x="570" 
d="M160 -13q-68 0 -108 40t-40 108q0 187 308 192h34q1 10 1 17q0 20 -21 33t-59 13t-81.5 -11.5t-85.5 -32.5v142q101 48 207 48q101 0 158.5 -47.5t57.5 -132.5q0 -19 -2 -41t-6 -40l-55 -275h-157l8 62q-28 -36 -69.5 -55.5t-89.5 -19.5zM192 164q0 -38 46 -38
q36 0 61.5 23.5t33.5 63.5l2 9h-17q-65 -1 -95.5 -15t-30.5 -43zM281 599l-127 158h192l91 -158h-156z" />
    <glyph glyph-name="aacute" unicode="&#xe1;" horiz-adv-x="570" 
d="M160 -13q-68 0 -108 40t-40 108q0 187 308 192h34q1 10 1 17q0 20 -21 33t-59 13t-81.5 -11.5t-85.5 -32.5v142q101 48 207 48q101 0 158.5 -47.5t57.5 -132.5q0 -19 -2 -41t-6 -40l-55 -275h-157l8 62q-28 -36 -69.5 -55.5t-89.5 -19.5zM192 164q0 -38 46 -38
q36 0 61.5 23.5t33.5 63.5l2 9h-17q-65 -1 -95.5 -15t-30.5 -43zM236 599l153 158h196l-188 -158h-161z" />
    <glyph glyph-name="acircumflex" unicode="&#xe2;" horiz-adv-x="570" 
d="M160 -13q-68 0 -108 40t-40 108q0 187 308 192h34q1 10 1 17q0 20 -21 33t-59 13t-81.5 -11.5t-85.5 -32.5v142q101 48 207 48q101 0 158.5 -47.5t57.5 -132.5q0 -19 -2 -41t-6 -40l-55 -275h-157l8 62q-28 -36 -69.5 -55.5t-89.5 -19.5zM192 164q0 -38 46 -38
q36 0 61.5 23.5t33.5 63.5l2 9h-17q-65 -1 -95.5 -15t-30.5 -43zM133 599l161 158h157l99 -158h-148l-48 62l-71 -62h-150z" />
    <glyph glyph-name="atilde" unicode="&#xe3;" horiz-adv-x="570" 
d="M160 -13q-68 0 -108 40t-40 108q0 187 308 192h34q1 10 1 17q0 20 -21 33t-59 13t-81.5 -11.5t-85.5 -32.5v142q101 48 207 48q101 0 158.5 -47.5t57.5 -132.5q0 -19 -2 -41t-6 -40l-55 -275h-157l8 62q-28 -36 -69.5 -55.5t-89.5 -19.5zM192 164q0 -38 46 -38
q36 0 61.5 23.5t33.5 63.5l2 9h-17q-65 -1 -95.5 -15t-30.5 -43zM240 596l-108 12q15 74 55.5 114t101.5 40q24 0 41.5 -6.5t42.5 -23.5q16 -10 25.5 -14.5t19.5 -4.5q17 0 26.5 11.5t15.5 37.5l108 -14q-32 -152 -154 -152q-26 0 -44.5 6.5t-41.5 22.5q-27 20 -46 20
q-16 0 -26 -11.5t-16 -37.5z" />
    <glyph glyph-name="adieresis" unicode="&#xe4;" horiz-adv-x="570" 
d="M160 -13q-68 0 -108 40t-40 108q0 187 308 192h34q1 10 1 17q0 20 -21 33t-59 13t-81.5 -11.5t-85.5 -32.5v142q101 48 207 48q101 0 158.5 -47.5t57.5 -132.5q0 -19 -2 -41t-6 -40l-55 -275h-157l8 62q-28 -36 -69.5 -55.5t-89.5 -19.5zM192 164q0 -38 46 -38
q36 0 61.5 23.5t33.5 63.5l2 9h-17q-65 -1 -95.5 -15t-30.5 -43zM234 596q-34 0 -54 20.5t-20 54.5q0 40 25.5 65.5t65.5 25.5q34 0 55 -20.5t21 -52.5q0 -40 -26 -66.5t-67 -26.5zM461 596q-34 0 -54 20.5t-20 54.5q0 40 26 65.5t65 25.5q34 0 55 -20.5t21 -52.5
q0 -40 -26 -66.5t-67 -26.5z" />
    <glyph glyph-name="aring" unicode="&#xe5;" horiz-adv-x="570" 
d="M160 -13q-68 0 -108 40t-40 108q0 187 308 192h34q1 10 1 17q0 20 -21 33t-59 13t-81.5 -11.5t-85.5 -32.5v142q101 48 207 48q101 0 158.5 -47.5t57.5 -132.5q0 -19 -2 -41t-6 -40l-55 -275h-157l8 62q-28 -36 -69.5 -55.5t-89.5 -19.5zM192 164q0 -38 46 -38
q36 0 61.5 23.5t33.5 63.5l2 9h-17q-65 -1 -95.5 -15t-30.5 -43zM342 586q-50 0 -80 28.5t-30 76.5q0 54 37 89t95 35q49 0 80 -28.5t31 -73.5q0 -55 -37.5 -91t-95.5 -36zM348 648q25 0 41 16t16 41q0 48 -47 48q-25 0 -40.5 -16t-15.5 -42q0 -22 12.5 -34.5t33.5 -12.5z
" />
    <glyph glyph-name="ae" unicode="&#xe6;" horiz-adv-x="866" 
d="M185 -13q-83 0 -128 37.5t-45 106.5q0 185 303 189h33q2 12 2 19q0 27 -18.5 39t-59.5 12q-76 0 -164 -44v142q101 48 210 48q106 0 151 -57q67 57 159 57q99 0 155 -56t56 -155q0 -25 -4.5 -55.5t-12.5 -56.5h-310q14 -78 114 -78q69 0 147 40v-145q-36 -20 -81.5 -31.5
t-91.5 -11.5q-67 0 -118 24t-80 68q-39 -44 -95 -68t-122 -24zM616 401q-31 0 -55 -22t-38 -58h147v14q0 66 -54 66zM233 126q36 0 60.5 23t33.5 64l1 3h-15q-121 0 -121 -55q0 -35 41 -35z" />
    <glyph glyph-name="ccedilla" unicode="&#xe7;" horiz-adv-x="524" 
d="M297 -13q-77 0 -136 28.5t-92 82.5t-33 130q0 91 41.5 160.5t114 108.5t165.5 39q50 0 95 -11.5t77 -32.5l-57 -148q-49 33 -107 33q-64 0 -102 -36.5t-38 -99.5q0 -44 26.5 -69.5t74.5 -25.5q66 0 125 36l-2 -156q-66 -39 -152 -39zM241 -229q-28 0 -57.5 5t-49.5 13
l34 77q36 -15 69 -15q26 0 42.5 8.5t16.5 21.5q0 20 -53 20q-12 0 -26 -1.5t-24 -3.5l53 119h85l-26 -54h1q45 0 70.5 -20t25.5 -55q0 -52 -43.5 -83.5t-117.5 -31.5z" />
    <glyph glyph-name="egrave" unicode="&#xe8;" horiz-adv-x="578" 
d="M297 -13q-122 0 -191 64.5t-69 177.5q0 90 38 159t105.5 108.5t154.5 39.5q101 0 158.5 -55.5t57.5 -153.5q0 -30 -4.5 -63t-12.5 -54h-315q7 -39 33 -57t76 -18q38 0 76 9.5t81 30.5v-145q-74 -43 -188 -43zM323 401q-30 0 -54.5 -22t-37.5 -58h151v14q0 66 -59 66z
M296 599l-127 158h192l91 -158h-156z" />
    <glyph glyph-name="eacute" unicode="&#xe9;" horiz-adv-x="578" 
d="M297 -13q-122 0 -191 64.5t-69 177.5q0 90 38 159t105.5 108.5t154.5 39.5q101 0 158.5 -55.5t57.5 -153.5q0 -30 -4.5 -63t-12.5 -54h-315q7 -39 33 -57t76 -18q38 0 76 9.5t81 30.5v-145q-74 -43 -188 -43zM323 401q-30 0 -54.5 -22t-37.5 -58h151v14q0 66 -59 66z
M251 599l153 158h196l-188 -158h-161z" />
    <glyph glyph-name="ecircumflex" unicode="&#xea;" horiz-adv-x="578" 
d="M297 -13q-122 0 -191 64.5t-69 177.5q0 90 38 159t105.5 108.5t154.5 39.5q101 0 158.5 -55.5t57.5 -153.5q0 -30 -4.5 -63t-12.5 -54h-315q7 -39 33 -57t76 -18q38 0 76 9.5t81 30.5v-145q-74 -43 -188 -43zM323 401q-30 0 -54.5 -22t-37.5 -58h151v14q0 66 -59 66z
M148 599l161 158h157l99 -158h-148l-48 62l-71 -62h-150z" />
    <glyph glyph-name="edieresis" unicode="&#xeb;" horiz-adv-x="578" 
d="M297 -13q-122 0 -191 64.5t-69 177.5q0 90 38 159t105.5 108.5t154.5 39.5q101 0 158.5 -55.5t57.5 -153.5q0 -30 -4.5 -63t-12.5 -54h-315q7 -39 33 -57t76 -18q38 0 76 9.5t81 30.5v-145q-74 -43 -188 -43zM323 401q-30 0 -54.5 -22t-37.5 -58h151v14q0 66 -59 66z
M249 596q-34 0 -54 20.5t-20 54.5q0 40 25.5 65.5t65.5 25.5q34 0 55 -20.5t21 -52.5q0 -40 -26 -66.5t-67 -26.5zM476 596q-34 0 -54 20.5t-20 54.5q0 40 26 65.5t65 25.5q34 0 55 -20.5t21 -52.5q0 -40 -26 -66.5t-67 -26.5z" />
    <glyph glyph-name="igrave" unicode="&#xec;" horiz-adv-x="296" 
d="M4 0l101 523h187l-101 -523h-187zM153 599l-127 158h192l91 -158h-156z" />
    <glyph glyph-name="iacute" unicode="&#xed;" horiz-adv-x="296" 
d="M4 0l101 523h187l-101 -523h-187zM108 599l153 158h196l-188 -158h-161z" />
    <glyph glyph-name="icircumflex" unicode="&#xee;" horiz-adv-x="296" 
d="M4 0l101 523h187l-101 -523h-187zM5 599l161 158h157l99 -158h-148l-48 62l-71 -62h-150z" />
    <glyph glyph-name="idieresis" unicode="&#xef;" horiz-adv-x="296" 
d="M4 0l101 523h187l-101 -523h-187zM106 596q-34 0 -54 20.5t-20 54.5q0 40 25.5 65.5t65.5 25.5q34 0 55 -20.5t21 -52.5q0 -40 -26 -66.5t-67 -26.5zM333 596q-34 0 -54 20.5t-20 54.5q0 40 26 65.5t65 25.5q34 0 55 -20.5t21 -52.5q0 -40 -26 -66.5t-67 -26.5z" />
    <glyph glyph-name="eth" unicode="&#xf0;" horiz-adv-x="627" 
d="M275 -13q-72 0 -126 29t-84.5 80.5t-30.5 119.5q0 82 32 144.5t87.5 98.5t127.5 36q95 0 137 -64q-13 72 -55 130l-151 -58l-18 96l95 36q-21 18 -47 34l144 84q38 -25 69 -54l132 50l18 -96l-84 -32q76 -114 76 -269q0 -108 -40.5 -190.5t-113 -128.5t-168.5 -46z
M301 142q43 0 71 35.5t28 88.5q0 38 -20.5 60t-55.5 22q-43 0 -72 -34.5t-29 -85.5q0 -40 21 -63t57 -23z" />
    <glyph glyph-name="ntilde" unicode="&#xf1;" horiz-adv-x="602" 
d="M4 0l103 523h164l-8 -71q26 40 66 62t91 22q71 0 109 -42.5t38 -116.5q0 -20 -2.5 -42.5t-5.5 -39.5l-58 -295h-187l57 291q3 17 4 25t1 14q0 19 -12 30.5t-35 11.5q-31 0 -52.5 -21.5t-29.5 -61.5l-56 -289h-187zM283 596l-108 12q15 74 55.5 114t101.5 40
q24 0 41.5 -6.5t42.5 -23.5q16 -10 25.5 -14.5t19.5 -4.5q17 0 26.5 11.5t15.5 37.5l108 -14q-32 -152 -154 -152q-26 0 -44.5 6.5t-41.5 22.5q-27 20 -46 20q-16 0 -26 -11.5t-16 -37.5z" />
    <glyph glyph-name="ograve" unicode="&#xf2;" horiz-adv-x="627" 
d="M285 -13q-75 0 -131 29t-87 82.5t-31 124.5q0 92 39.5 162.5t109 110.5t160.5 40q75 0 130 -29.5t85.5 -82.5t30.5 -124q0 -93 -38.5 -163.5t-107.5 -110t-160 -39.5zM300 146q44 0 73 41t29 102q0 41 -19 64.5t-53 23.5q-29 0 -53 -18.5t-38 -50t-14 -71.5
q0 -41 20.5 -66t54.5 -25zM311 599l-127 158h192l91 -158h-156z" />
    <glyph glyph-name="oacute" unicode="&#xf3;" horiz-adv-x="627" 
d="M285 -13q-75 0 -131 29t-87 82.5t-31 124.5q0 92 39.5 162.5t109 110.5t160.5 40q75 0 130 -29.5t85.5 -82.5t30.5 -124q0 -93 -38.5 -163.5t-107.5 -110t-160 -39.5zM300 146q44 0 73 41t29 102q0 41 -19 64.5t-53 23.5q-29 0 -53 -18.5t-38 -50t-14 -71.5
q0 -41 20.5 -66t54.5 -25zM266 599l153 158h196l-188 -158h-161z" />
    <glyph glyph-name="ocircumflex" unicode="&#xf4;" horiz-adv-x="627" 
d="M285 -13q-75 0 -131 29t-87 82.5t-31 124.5q0 92 39.5 162.5t109 110.5t160.5 40q75 0 130 -29.5t85.5 -82.5t30.5 -124q0 -93 -38.5 -163.5t-107.5 -110t-160 -39.5zM300 146q44 0 73 41t29 102q0 41 -19 64.5t-53 23.5q-29 0 -53 -18.5t-38 -50t-14 -71.5
q0 -41 20.5 -66t54.5 -25zM163 599l161 158h157l99 -158h-148l-48 62l-71 -62h-150z" />
    <glyph glyph-name="otilde" unicode="&#xf5;" horiz-adv-x="627" 
d="M285 -13q-75 0 -131 29t-87 82.5t-31 124.5q0 92 39.5 162.5t109 110.5t160.5 40q75 0 130 -29.5t85.5 -82.5t30.5 -124q0 -93 -38.5 -163.5t-107.5 -110t-160 -39.5zM300 146q44 0 73 41t29 102q0 41 -19 64.5t-53 23.5q-29 0 -53 -18.5t-38 -50t-14 -71.5
q0 -41 20.5 -66t54.5 -25zM270 596l-108 12q15 74 55.5 114t101.5 40q24 0 41.5 -6.5t42.5 -23.5q16 -10 25.5 -14.5t19.5 -4.5q17 0 26.5 11.5t15.5 37.5l108 -14q-32 -152 -154 -152q-26 0 -44.5 6.5t-41.5 22.5q-27 20 -46 20q-16 0 -26 -11.5t-16 -37.5z" />
    <glyph glyph-name="odieresis" unicode="&#xf6;" horiz-adv-x="627" 
d="M285 -13q-75 0 -131 29t-87 82.5t-31 124.5q0 92 39.5 162.5t109 110.5t160.5 40q75 0 130 -29.5t85.5 -82.5t30.5 -124q0 -93 -38.5 -163.5t-107.5 -110t-160 -39.5zM300 146q44 0 73 41t29 102q0 41 -19 64.5t-53 23.5q-29 0 -53 -18.5t-38 -50t-14 -71.5
q0 -41 20.5 -66t54.5 -25zM264 596q-34 0 -54 20.5t-20 54.5q0 40 25.5 65.5t65.5 25.5q34 0 55 -20.5t21 -52.5q0 -40 -26 -66.5t-67 -26.5zM491 596q-34 0 -54 20.5t-20 54.5q0 40 26 65.5t65 25.5q34 0 55 -20.5t21 -52.5q0 -40 -26 -66.5t-67 -26.5z" />
    <glyph glyph-name="divide" unicode="&#xf7;" horiz-adv-x="630" 
d="M331 456q-43 0 -71.5 27t-28.5 70t28.5 70t71.5 27q44 0 72 -27.5t28 -69.5t-28 -69.5t-72 -27.5zM84 268v147h493v-147h-493zM331 33q-43 0 -71.5 27t-28.5 70t28.5 70t71.5 27q44 0 72 -27.5t28 -69.5t-28 -69.5t-72 -27.5z" />
    <glyph glyph-name="oslash" unicode="&#xf8;" horiz-adv-x="625" 
d="M86 -49l-68 67l60 63q-43 60 -43 146q0 91 39.5 160.5t109.5 109t160 39.5q75 0 131 -31l64 67l67 -67l-59 -62q43 -61 43 -147q0 -91 -38.5 -161t-107.5 -109t-160 -39q-77 0 -135 31zM219 240q0 -9 1 -17l143 152q-14 7 -32 7q-31 0 -56.5 -19t-40.5 -51t-15 -72z
M297 142q47 0 78 41.5t31 102.5q0 8 -1 14l-141 -151q15 -7 33 -7z" />
    <glyph glyph-name="ugrave" unicode="&#xf9;" horiz-adv-x="597" 
d="M186 -13q-72 0 -112 42.5t-40 115.5q0 17 2 34.5t6 37.5l61 306h187l-58 -297q-4 -24 -4 -32q0 -42 42 -42q30 0 51 20.5t28 59.5l57 291h187l-101 -523h-166l8 71q-50 -84 -148 -84zM305 599l-127 158h192l91 -158h-156z" />
    <glyph glyph-name="uacute" unicode="&#xfa;" horiz-adv-x="597" 
d="M186 -13q-72 0 -112 42.5t-40 115.5q0 17 2 34.5t6 37.5l61 306h187l-58 -297q-4 -24 -4 -32q0 -42 42 -42q30 0 51 20.5t28 59.5l57 291h187l-101 -523h-166l8 71q-50 -84 -148 -84zM260 599l153 158h196l-188 -158h-161z" />
    <glyph glyph-name="ucircumflex" unicode="&#xfb;" horiz-adv-x="597" 
d="M186 -13q-72 0 -112 42.5t-40 115.5q0 17 2 34.5t6 37.5l61 306h187l-58 -297q-4 -24 -4 -32q0 -42 42 -42q30 0 51 20.5t28 59.5l57 291h187l-101 -523h-166l8 71q-50 -84 -148 -84zM157 599l161 158h157l99 -158h-148l-48 62l-71 -62h-150z" />
    <glyph glyph-name="udieresis" unicode="&#xfc;" horiz-adv-x="597" 
d="M186 -13q-72 0 -112 42.5t-40 115.5q0 17 2 34.5t6 37.5l61 306h187l-58 -297q-4 -24 -4 -32q0 -42 42 -42q30 0 51 20.5t28 59.5l57 291h187l-101 -523h-166l8 71q-50 -84 -148 -84zM258 596q-34 0 -54 20.5t-20 54.5q0 40 25.5 65.5t65.5 25.5q34 0 55 -20.5t21 -52.5
q0 -40 -26 -66.5t-67 -26.5zM485 596q-34 0 -54 20.5t-20 54.5q0 40 26 65.5t65 25.5q34 0 55 -20.5t21 -52.5q0 -40 -26 -66.5t-67 -26.5z" />
    <glyph glyph-name="yacute" unicode="&#xfd;" horiz-adv-x="605" 
d="M70 -229q-77 0 -126 26l46 147q16 -8 37 -12.5t42 -4.5q69 0 99 58l8 15l-116 523h198l42 -334l150 334h199l-304 -552q-41 -75 -80.5 -119t-86 -62.5t-108.5 -18.5zM263 599l153 158h196l-188 -158h-161z" />
    <glyph glyph-name="thorn" unicode="&#xfe;" horiz-adv-x="636" 
d="M-38 -216l187 956h186l-50 -259q56 55 132 55q56 0 97.5 -28.5t64.5 -80t23 -119.5q0 -66 -20 -124.5t-55.5 -102.5t-82.5 -69t-101 -25q-49 0 -85 21.5t-53 60.5l-56 -285h-187zM304 147q30 0 54.5 18.5t39 49.5t14.5 68q0 43 -20 68t-54 25q-29 0 -53.5 -18.5
t-39 -49.5t-14.5 -69q0 -43 19.5 -67.5t53.5 -24.5z" />
    <glyph glyph-name="ydieresis" unicode="&#xff;" horiz-adv-x="605" 
d="M70 -229q-77 0 -126 26l46 147q16 -8 37 -12.5t42 -4.5q69 0 99 58l8 15l-116 523h198l42 -334l150 334h199l-304 -552q-41 -75 -80.5 -119t-86 -62.5t-108.5 -18.5zM261 596q-34 0 -54 20.5t-20 54.5q0 40 25.5 65.5t65.5 25.5q34 0 55 -20.5t21 -52.5q0 -40 -26 -66.5
t-67 -26.5zM488 596q-34 0 -54 20.5t-20 54.5q0 40 26 65.5t65 25.5q34 0 55 -20.5t21 -52.5q0 -40 -26 -66.5t-67 -26.5z" />
    <glyph glyph-name="Amacron" unicode="&#x100;" horiz-adv-x="748" 
d="M-41 0l397 700h206l125 -700h-214l-15 128h-220l-65 -128h-214zM318 287h122l-22 198zM255 777l24 124h425l-24 -124h-425z" />
    <glyph glyph-name="amacron" unicode="&#x101;" horiz-adv-x="570" 
d="M160 -13q-68 0 -108 40t-40 108q0 187 308 192h34q1 10 1 17q0 20 -21 33t-59 13t-81.5 -11.5t-85.5 -32.5v142q101 48 207 48q101 0 158.5 -47.5t57.5 -132.5q0 -19 -2 -41t-6 -40l-55 -275h-157l8 62q-28 -36 -69.5 -55.5t-89.5 -19.5zM192 164q0 -38 46 -38
q36 0 61.5 23.5t33.5 63.5l2 9h-17q-65 -1 -95.5 -15t-30.5 -43zM141 618l24 123h388l-24 -123h-388z" />
    <glyph glyph-name="Abreve" unicode="&#x102;" horiz-adv-x="748" 
d="M-41 0l397 700h206l125 -700h-214l-15 128h-220l-65 -128h-214zM318 287h122l-22 198zM478 768q-74 0 -123 38.5t-49 104.5v3l124 13v-6q0 -48 63 -48q69 0 83 54l122 -13q-18 -66 -75.5 -106t-144.5 -40z" />
    <glyph glyph-name="abreve" unicode="&#x103;" horiz-adv-x="570" 
d="M160 -13q-68 0 -108 40t-40 108q0 187 308 192h34q1 10 1 17q0 20 -21 33t-59 13t-81.5 -11.5t-85.5 -32.5v142q101 48 207 48q101 0 158.5 -47.5t57.5 -132.5q0 -19 -2 -41t-6 -40l-55 -275h-157l8 62q-28 -36 -69.5 -55.5t-89.5 -19.5zM192 164q0 -38 46 -38
q36 0 61.5 23.5t33.5 63.5l2 9h-17q-65 -1 -95.5 -15t-30.5 -43zM348 594q-73 0 -114 34.5t-41 94.5v10t1 12l117 12v-10q0 -25 13 -39t37 -14q60 0 73 63l113 -12q-37 -151 -199 -151z" />
    <glyph glyph-name="Aogonek" unicode="&#x104;" horiz-adv-x="748" 
d="M-41 0l397 700h206l125 -700h-214l-15 128h-220l-65 -128h-214zM318 287h122l-22 198zM536 -229q-52 0 -83 24.5t-31 64.5q0 110 214 166l51 -26q-65 -20 -105.5 -48t-40.5 -54q0 -28 40 -28q29 0 65 11v-93q-52 -17 -110 -17z" />
    <glyph glyph-name="aogonek" unicode="&#x105;" horiz-adv-x="570" 
d="M160 -13q-68 0 -108 40t-40 108q0 187 308 192h34q1 10 1 17q0 20 -21 33t-59 13t-81.5 -11.5t-85.5 -32.5v142q101 48 207 48q101 0 158.5 -47.5t57.5 -132.5q0 -19 -2 -41t-6 -40l-55 -275h-157l8 62q-28 -36 -69.5 -55.5t-89.5 -19.5zM192 164q0 -38 46 -38
q36 0 61.5 23.5t33.5 63.5l2 9h-17q-65 -1 -95.5 -15t-30.5 -43zM325 -229q-50 0 -80 24.5t-30 64.5q0 103 202 166l51 -26q-64 -22 -102 -50.5t-38 -55.5q0 -30 36 -30q29 0 62 11l1 -87q-48 -17 -102 -17z" />
    <glyph glyph-name="Cacute" unicode="&#x106;" horiz-adv-x="680" 
d="M400 -16q-98 0 -176 39t-123 110.5t-45 168.5q0 95 32 171t90.5 130.5t138.5 83.5t176 29q54 0 115 -16t104 -42l-60 -158q-76 47 -166 47q-66 0 -117 -29.5t-80 -81t-29 -116.5q0 -79 46.5 -123t125.5 -44q44 0 86 12t86 37v-164q-36 -25 -89.5 -39.5t-114.5 -14.5z
M391 772l169 132h214l-196 -132h-187z" />
    <glyph glyph-name="cacute" unicode="&#x107;" horiz-adv-x="524" 
d="M297 -13q-77 0 -136 28.5t-92 82.5t-33 130q0 91 41.5 160.5t114 108.5t165.5 39q50 0 95 -11.5t77 -32.5l-57 -148q-49 33 -107 33q-64 0 -102 -36.5t-38 -99.5q0 -44 26.5 -69.5t74.5 -25.5q66 0 125 36l-2 -156q-66 -39 -152 -39zM279 599l153 158h196l-188 -158h-161
z" />
    <glyph glyph-name="Cdotaccent" unicode="&#x10a;" horiz-adv-x="680" 
d="M400 -16q-98 0 -176 39t-123 110.5t-45 168.5q0 95 32 171t90.5 130.5t138.5 83.5t176 29q54 0 115 -16t104 -42l-60 -158q-76 47 -166 47q-66 0 -117 -29.5t-80 -81t-29 -116.5q0 -79 46.5 -123t125.5 -44q44 0 86 12t86 37v-164q-36 -25 -89.5 -39.5t-114.5 -14.5z
M506 761q-36 0 -57 21.5t-21 58.5q0 42 27 69t68 27q36 0 58 -21.5t22 -57.5q0 -41 -27.5 -69t-69.5 -28z" />
    <glyph glyph-name="cdotaccent" unicode="&#x10b;" horiz-adv-x="524" 
d="M297 -13q-77 0 -136 28.5t-92 82.5t-33 130q0 91 41.5 160.5t114 108.5t165.5 39q50 0 95 -11.5t77 -32.5l-57 -148q-49 33 -107 33q-64 0 -102 -36.5t-38 -99.5q0 -44 26.5 -69.5t74.5 -25.5q66 0 125 36l-2 -156q-66 -39 -152 -39zM381 593q-35 0 -56 21t-21 56
q0 41 27 67.5t67 26.5q34 0 55.5 -21t21.5 -56q0 -40 -27 -67t-67 -27z" />
    <glyph glyph-name="Ccaron" unicode="&#x10c;" horiz-adv-x="680" 
d="M400 -16q-98 0 -176 39t-123 110.5t-45 168.5q0 95 32 171t90.5 130.5t138.5 83.5t176 29q54 0 115 -16t104 -42l-60 -158q-76 47 -166 47q-66 0 -117 -29.5t-80 -81t-29 -116.5q0 -79 46.5 -123t125.5 -44q44 0 86 12t86 37v-164q-36 -25 -89.5 -39.5t-114.5 -14.5z
M422 772l-119 132h179l43 -42l59 42h176l-169 -132h-169z" />
    <glyph glyph-name="ccaron" unicode="&#x10d;" horiz-adv-x="524" 
d="M297 -13q-77 0 -136 28.5t-92 82.5t-33 130q0 91 41.5 160.5t114 108.5t165.5 39q50 0 95 -11.5t77 -32.5l-57 -148q-49 33 -107 33q-64 0 -102 -36.5t-38 -99.5q0 -44 26.5 -69.5t74.5 -25.5q66 0 125 36l-2 -156q-66 -39 -152 -39zM301 599l-99 158h150l48 -62l71 62
h148l-161 -158h-157z" />
    <glyph glyph-name="Dcaron" unicode="&#x10e;" horiz-adv-x="753" 
d="M12 0l136 700h282q90 0 158.5 -37.5t106.5 -103.5t38 -154q0 -120 -54.5 -211.5t-151.5 -142.5t-226 -51h-289zM386 533h-76l-72 -366h78q64 0 112 28t74.5 79.5t26.5 119.5q0 67 -37 103t-106 36zM350 772l-119 132h179l43 -42l59 42h176l-169 -132h-169z" />
    <glyph glyph-name="dcaron" unicode="&#x10f;" horiz-adv-x="849" 
d="M223 -13q-56 0 -98.5 29t-66.5 80.5t-24 118.5q0 66 20.5 124t56 102.5t82.5 69.5t101 25q48 0 84.5 -21.5t53.5 -59.5l55 285h187l-144 -740h-167l9 68q-57 -81 -149 -81zM298 147q30 0 54 18.5t38.5 50t14.5 68.5q0 43 -19.5 67.5t-53.5 24.5q-29 0 -54 -18.5
t-39.5 -49.5t-14.5 -68q0 -43 20 -68t54 -25zM698 521q11 41 24.5 96.5t26.5 122.5h174q-13 -56 -32.5 -116.5t-37.5 -102.5h-155z" />
    <glyph glyph-name="Dcroat" unicode="&#x110;" horiz-adv-x="767" 
d="M30 0l58 298h-66l27 137h66l51 265h280q89 0 157 -37.5t106 -103.5t38 -154q0 -120 -54 -211.5t-151 -142.5t-225 -51h-287zM398 298h-117l-26 -131h77q64 0 111.5 28t73.5 79.5t26 119.5t-36.5 103.5t-104.5 35.5h-75l-19 -98h117z" />
    <glyph glyph-name="dcroat" unicode="&#x111;" horiz-adv-x="648" 
d="M221 -13q-55 0 -97 29t-66 80.5t-24 118.5q0 63 20.5 119t56 99t82.5 67t101 24q48 0 83.5 -19.5t54.5 -54.5l24 129h-151l20 104h151l11 57h187l-11 -57h57l-20 -104h-57l-113 -579h-167l9 69q-58 -82 -151 -82zM298 147q30 0 54 18.5t38.5 50t14.5 68.5q0 38 -19.5 59
t-53.5 21q-29 0 -54 -17t-39.5 -45t-14.5 -62q0 -43 20 -68t54 -25z" />
    <glyph glyph-name="Emacron" unicode="&#x112;" horiz-adv-x="598" 
d="M12 0l136 700h473l-5 -159h-308l-21 -106h274l-31 -159h-274l-23 -117h327l-49 -159h-499zM191 777l24 124h425l-24 -124h-425z" />
    <glyph glyph-name="emacron" unicode="&#x113;" horiz-adv-x="578" 
d="M297 -13q-122 0 -191 64.5t-69 177.5q0 90 38 159t105.5 108.5t154.5 39.5q101 0 158.5 -55.5t57.5 -153.5q0 -30 -4.5 -63t-12.5 -54h-315q7 -39 33 -57t76 -18q38 0 76 9.5t81 30.5v-145q-74 -43 -188 -43zM323 401q-30 0 -54.5 -22t-37.5 -58h151v14q0 66 -59 66z
M156 618l24 123h388l-24 -123h-388z" />
    <glyph glyph-name="Edotaccent" unicode="&#x116;" horiz-adv-x="598" 
d="M12 0l136 700h473l-5 -159h-308l-21 -106h274l-31 -159h-274l-23 -117h327l-49 -159h-499zM409 761q-36 0 -57 21.5t-21 58.5q0 42 27 69t68 27q36 0 58 -21.5t22 -57.5q0 -41 -27.5 -69t-69.5 -28z" />
    <glyph glyph-name="edotaccent" unicode="&#x117;" horiz-adv-x="578" 
d="M297 -13q-122 0 -191 64.5t-69 177.5q0 90 38 159t105.5 108.5t154.5 39.5q101 0 158.5 -55.5t57.5 -153.5q0 -30 -4.5 -63t-12.5 -54h-315q7 -39 33 -57t76 -18q38 0 76 9.5t81 30.5v-145q-74 -43 -188 -43zM323 401q-30 0 -54.5 -22t-37.5 -58h151v14q0 66 -59 66z
M353 593q-35 0 -56 21t-21 56q0 41 27 67.5t67 26.5q34 0 55.5 -21t21.5 -56q0 -40 -27 -67t-67 -27z" />
    <glyph glyph-name="Eogonek" unicode="&#x118;" horiz-adv-x="598" 
d="M12 0l136 700h473l-5 -159h-308l-21 -106h274l-31 -159h-274l-23 -117h327l-49 -159h-499zM360 -229q-52 0 -83 24.5t-31 64.5q0 110 214 166l51 -26q-65 -20 -105.5 -48t-40.5 -54q0 -28 40 -28q29 0 65 11v-93q-52 -17 -110 -17z" />
    <glyph glyph-name="eogonek" unicode="&#x119;" horiz-adv-x="578" 
d="M297 -13q-122 0 -191 64.5t-69 177.5q0 90 38 159t105.5 108.5t154.5 39.5q101 0 158.5 -55.5t57.5 -153.5q0 -30 -4.5 -63t-12.5 -54h-315q7 -39 33 -57t76 -18q38 0 76 9.5t81 30.5v-145q-74 -43 -188 -43zM323 401q-30 0 -54.5 -22t-37.5 -58h151v14q0 66 -59 66z
M288 -229q-51 0 -81.5 24.5t-30.5 64.5q0 108 237 186l51 -26q-84 -32 -129.5 -64.5t-45.5 -61.5q0 -30 40 -30q29 0 62 11l1 -87q-50 -17 -104 -17z" />
    <glyph glyph-name="Ecaron" unicode="&#x11a;" horiz-adv-x="598" 
d="M12 0l136 700h473l-5 -159h-308l-21 -106h274l-31 -159h-274l-23 -117h327l-49 -159h-499zM325 772l-119 132h179l43 -42l59 42h176l-169 -132h-169z" />
    <glyph glyph-name="ecaron" unicode="&#x11b;" horiz-adv-x="578" 
d="M297 -13q-122 0 -191 64.5t-69 177.5q0 90 38 159t105.5 108.5t154.5 39.5q101 0 158.5 -55.5t57.5 -153.5q0 -30 -4.5 -63t-12.5 -54h-315q7 -39 33 -57t76 -18q38 0 76 9.5t81 30.5v-145q-74 -43 -188 -43zM323 401q-30 0 -54.5 -22t-37.5 -58h151v14q0 66 -59 66z
M273 599l-99 158h150l48 -62l71 62h148l-161 -158h-157z" />
    <glyph glyph-name="Gbreve" unicode="&#x11e;" horiz-adv-x="741" 
d="M407 -16q-166 0 -259.5 82.5t-93.5 230.5q0 91 33 167.5t92.5 133t140.5 87.5t178 31q62 0 129 -16.5t115 -43.5l-61 -162q-87 53 -183 53q-71 0 -125 -30t-84.5 -83t-30.5 -123q0 -160 169 -160q31 0 65 5l20 102h-109l29 146h285l-72 -372q-48 -22 -111 -35t-127 -13z
M523 768q-74 0 -123 38.5t-49 104.5v3l124 13v-6q0 -48 63 -48q69 0 83 54l122 -13q-18 -66 -75.5 -106t-144.5 -40z" />
    <glyph glyph-name="gbreve" unicode="&#x11f;" horiz-adv-x="636" 
d="M216 -229q-64 0 -120.5 14t-95.5 39l54 146q69 -43 152 -43q122 0 143 104l7 35q-53 -66 -134 -66q-55 0 -97 28t-65.5 78t-23.5 116q0 65 20 122t55.5 100t82 67.5t100.5 24.5q55 0 94.5 -26.5t54.5 -70.5l23 84h166l-91 -472q-28 -143 -107.5 -211.5t-217.5 -68.5z
M300 160q29 0 53 17.5t38.5 47t14.5 65.5q0 40 -19 63t-53 23q-29 0 -53.5 -17.5t-39 -47t-14.5 -64.5q0 -40 20 -63.5t53 -23.5zM389 594q-73 0 -114 34.5t-41 94.5v10t1 12l117 12v-10q0 -25 13 -39t37 -14q60 0 73 63l113 -12q-37 -151 -199 -151z" />
    <glyph glyph-name="Gdotaccent" unicode="&#x120;" horiz-adv-x="741" 
d="M407 -16q-166 0 -259.5 82.5t-93.5 230.5q0 91 33 167.5t92.5 133t140.5 87.5t178 31q62 0 129 -16.5t115 -43.5l-61 -162q-87 53 -183 53q-71 0 -125 -30t-84.5 -83t-30.5 -123q0 -160 169 -160q31 0 65 5l20 102h-109l29 146h285l-72 -372q-48 -22 -111 -35t-127 -13z
M518 761q-36 0 -57 21.5t-21 58.5q0 42 27 69t68 27q36 0 58 -21.5t22 -57.5q0 -41 -27.5 -69t-69.5 -28z" />
    <glyph glyph-name="gdotaccent" unicode="&#x121;" horiz-adv-x="636" 
d="M216 -229q-64 0 -120.5 14t-95.5 39l54 146q69 -43 152 -43q122 0 143 104l7 35q-53 -66 -134 -66q-55 0 -97 28t-65.5 78t-23.5 116q0 65 20 122t55.5 100t82 67.5t100.5 24.5q55 0 94.5 -26.5t54.5 -70.5l23 84h166l-91 -472q-28 -143 -107.5 -211.5t-217.5 -68.5z
M300 160q29 0 53 17.5t38.5 47t14.5 65.5q0 40 -19 63t-53 23q-29 0 -53.5 -17.5t-39 -47t-14.5 -64.5q0 -40 20 -63.5t53 -23.5zM379 593q-35 0 -56 21t-21 56q0 41 27 67.5t67 26.5q34 0 55.5 -21t21.5 -56q0 -40 -27 -67t-67 -27z" />
    <glyph glyph-name="uni0122" unicode="&#x122;" horiz-adv-x="741" 
d="M407 -16q-166 0 -259.5 82.5t-93.5 230.5q0 91 33 167.5t92.5 133t140.5 87.5t178 31q62 0 129 -16.5t115 -43.5l-61 -162q-87 53 -183 53q-71 0 -125 -30t-84.5 -83t-30.5 -123q0 -160 169 -160q31 0 65 5l20 102h-109l29 146h285l-72 -372q-48 -22 -111 -35t-127 -13z
M298 -302l-28 46q75 23 106 53h-8q-28 0 -46 16.5t-18 41.5q0 34 26.5 57t64.5 23t60 -20t22 -53q0 -55 -48 -98.5t-131 -65.5z" />
    <glyph glyph-name="uni0123" unicode="&#x123;" horiz-adv-x="636" 
d="M216 -229q-64 0 -120.5 14t-95.5 39l54 146q69 -43 152 -43q122 0 143 104l7 35q-53 -66 -134 -66q-55 0 -97 28t-65.5 78t-23.5 116q0 65 20 122t55.5 100t82 67.5t100.5 24.5q55 0 94.5 -26.5t54.5 -70.5l23 84h166l-91 -472q-28 -143 -107.5 -211.5t-217.5 -68.5z
M300 160q29 0 53 17.5t38.5 47t14.5 65.5q0 40 -19 63t-53 23q-29 0 -53.5 -17.5t-39 -47t-14.5 -64.5q0 -40 20 -63.5t53 -23.5zM487 836l26 -45q-75 -23 -106 -55q5 1 10 1q28 0 45.5 -16t17.5 -42q0 -34 -26 -57t-64 -23q-36 0 -57 19.5t-21 53.5q0 56 46.5 99t128.5 65z
" />
    <glyph glyph-name="Hbar" unicode="&#x126;" horiz-adv-x="770" 
d="M30 0l98 505h-66l24 121h66l14 74h196l-14 -74h228l14 74h196l-14 -74h53l-23 -121h-54l-98 -505h-196l50 257h-228l-50 -257h-196zM309 428h228l15 77h-228z" />
    <glyph glyph-name="hbar" unicode="&#x127;" horiz-adv-x="616" 
d="M18 0l113 579h-59l20 104h59l11 57h187l-11 -57h148l-20 -104h-148l-25 -130q52 74 139 74q69 0 108.5 -42.5t39.5 -117.5q0 -14 -2 -31.5t-6 -38.5l-57 -293h-187l55 284q2 11 3 19.5t1 12.5q0 43 -47 43q-31 0 -51.5 -21.5t-28.5 -59.5l-55 -278h-187z" />
    <glyph glyph-name="Itilde" unicode="&#x128;" horiz-adv-x="322" 
d="M12 0l136 700h196l-136 -700h-196zM156 769l-114 12q14 72 57 111t107 39q29 0 49 -5.5t45 -19.5q32 -17 49 -17q31 0 41 42l114 -13q-14 -72 -56.5 -110.5t-107.5 -38.5q-29 0 -51 6.5t-58 25.5q-16 9 -34 9q-31 0 -41 -41z" />
    <glyph glyph-name="itilde" unicode="&#x129;" horiz-adv-x="296" 
d="M4 0l101 523h187l-101 -523h-187zM112 596l-108 12q15 74 55.5 114t101.5 40q24 0 41.5 -6.5t42.5 -23.5q16 -10 25.5 -14.5t19.5 -4.5q17 0 26.5 11.5t15.5 37.5l108 -14q-32 -152 -154 -152q-26 0 -44.5 6.5t-41.5 22.5q-27 20 -46 20q-16 0 -26 -11.5t-16 -37.5z" />
    <glyph glyph-name="Imacron" unicode="&#x12a;" horiz-adv-x="322" 
d="M12 0l136 700h196l-136 -700h-196zM42 777l24 124h425l-24 -124h-425z" />
    <glyph glyph-name="imacron" unicode="&#x12b;" horiz-adv-x="296" 
d="M4 0l101 523h187l-101 -523h-187zM13 618l24 123h388l-24 -123h-388z" />
    <glyph glyph-name="Iogonek" unicode="&#x12e;" horiz-adv-x="322" 
d="M12 0l136 700h196l-136 -700h-196zM57 -229q-52 0 -83 24.5t-31 64.5q0 110 214 166l51 -26q-65 -20 -105.5 -48t-40.5 -54q0 -28 40 -28q29 0 65 11v-93q-52 -17 -110 -17z" />
    <glyph glyph-name="iogonek" unicode="&#x12f;" horiz-adv-x="296" 
d="M217 568q-45 0 -72 25t-27 68q0 49 33.5 80.5t85.5 31.5q45 0 73 -25t28 -65q0 -49 -34.5 -82t-86.5 -33zM4 0l101 523h187l-101 -523h-187zM48 -229q-50 0 -80 24.5t-30 64.5q0 103 202 166l51 -26q-64 -22 -102 -50.5t-38 -55.5q0 -30 36 -30q29 0 62 11l1 -87
q-48 -17 -102 -17z" />
    <glyph glyph-name="Idotaccent" unicode="&#x130;" horiz-adv-x="322" 
d="M12 0l136 700h196l-136 -700h-196zM260 761q-36 0 -57 21.5t-21 58.5q0 42 27 69t68 27q36 0 58 -21.5t22 -57.5q0 -41 -27.5 -69t-69.5 -28z" />
    <glyph glyph-name="dotlessi" unicode="&#x131;" horiz-adv-x="296" 
d="M4 0l101 523h187l-101 -523h-187z" />
    <glyph glyph-name="IJ" unicode="&#x132;" horiz-adv-x="667" 
d="M263 -16q-139 0 -233 51l57 156q86 -40 164 -40q74 0 114 38t57 126l75 385h196l-77 -397q-22 -113 -65.5 -183.5t-113.5 -103t-174 -32.5zM64 265l84 435h196l-84 -435h-196z" />
    <glyph glyph-name="ij" unicode="&#x133;" horiz-adv-x="598" 
d="M214 568q-45 0 -71.5 25.5t-26.5 67.5q0 49 33.5 80.5t85.5 31.5q46 0 73.5 -25.5t27.5 -66.5q0 -48 -35 -80.5t-87 -32.5zM517 568q-45 0 -71.5 25.5t-26.5 67.5q0 49 33.5 80.5t85.5 31.5q46 0 73.5 -25.5t27.5 -66.5q0 -48 -35 -80.5t-87 -32.5zM180 -229
q-129 0 -209 53l54 146q65 -43 144 -43q121 0 141 104l4 22q-47 -53 -125 -53q-71 0 -111 42t-40 117q0 14 2 31.5t6 39.5l57 293h187l-56 -284q-4 -23 -4 -33q0 -41 41 -41q31 0 52 21t28 59l55 278h187l-91 -472q-28 -142 -106.5 -211t-215.5 -69z" />
    <glyph glyph-name="uni0136" unicode="&#x136;" horiz-adv-x="724" 
d="M12 0l136 700h196l-53 -270l258 270h227l-282 -276l168 -424h-214l-104 277l-102 -100l-34 -177h-196zM212 -302l-28 46q75 23 106 53h-8q-28 0 -46 16.5t-18 41.5q0 34 26.5 57t64.5 23t60 -20t22 -53q0 -55 -48 -98.5t-131 -65.5z" />
    <glyph glyph-name="uni0137" unicode="&#x137;" horiz-adv-x="611" 
d="M4 0l144 740h187l-74 -380l175 163h221l-216 -190l112 -333h-198l-59 206l-78 -68l-27 -138h-187zM166 -302l-26 45q75 23 106 55q-5 -1 -10 -1q-28 0 -45.5 16.5t-17.5 41.5q0 34 26 57t64 23q36 0 57 -19.5t21 -53.5q0 -55 -46 -98.5t-129 -65.5z" />
    <glyph glyph-name="Lacute" unicode="&#x139;" horiz-adv-x="569" 
d="M12 0l137 700h196l-104 -531h305l-52 -169h-482zM147 772l169 132h214l-196 -132h-187z" />
    <glyph glyph-name="lacute" unicode="&#x13a;" horiz-adv-x="296" 
d="M4 0l144 740h187l-144 -740h-187zM144 817l169 132h214l-196 -132h-187z" />
    <glyph glyph-name="uni013B" unicode="&#x13b;" horiz-adv-x="569" 
d="M12 0l137 700h196l-104 -531h305l-52 -169h-482zM169 -302l-28 46q75 23 106 53h-8q-28 0 -46 16.5t-18 41.5q0 34 26.5 57t64.5 23t60 -20t22 -53q0 -55 -48 -98.5t-131 -65.5z" />
    <glyph glyph-name="uni013C" unicode="&#x13c;" horiz-adv-x="296" 
d="M4 0l144 740h187l-144 -740h-187zM-17 -302l-26 45q75 23 106 55q-5 -1 -10 -1q-28 0 -45.5 16.5t-17.5 41.5q0 34 26 57t64 23q36 0 57 -19.5t21 -53.5q0 -55 -46 -98.5t-129 -65.5z" />
    <glyph glyph-name="Lcaron" unicode="&#x13d;" horiz-adv-x="569" 
d="M12 0l137 700h196l-104 -531h305l-52 -169h-482zM403 481q11 41 24.5 96.5t26.5 122.5h174q-13 -56 -32.5 -116.5t-37.5 -102.5h-155z" />
    <glyph glyph-name="lcaron" unicode="&#x13e;" horiz-adv-x="511" 
d="M4 0l144 740h187l-144 -740h-187zM360 521q11 41 24.5 96.5t26.5 122.5h174q-13 -56 -32.5 -116.5t-37.5 -102.5h-155z" />
    <glyph glyph-name="Ldot" unicode="&#x13f;" horiz-adv-x="569" 
d="M12 0l137 700h196l-104 -531h305l-52 -169h-482zM468 330q-45 0 -72 25t-27 68q0 50 35.5 83.5t87.5 33.5q45 0 71.5 -25.5t26.5 -69.5q0 -50 -34.5 -82.5t-87.5 -32.5z" />
    <glyph glyph-name="ldot" unicode="&#x140;" horiz-adv-x="513" 
d="M4 0l144 740h187l-144 -740h-187zM412 265q-45 0 -72 25t-27 68q0 50 35.5 83.5t87.5 33.5q45 0 71.5 -25.5t26.5 -69.5q0 -50 -34.5 -82.5t-87.5 -32.5z" />
    <glyph glyph-name="Lslash" unicode="&#x141;" horiz-adv-x="587" 
d="M30 0l45 229l-72 -31l30 156l72 31l62 315h196l-43 -222l161 70l-31 -156l-161 -70l-30 -153h305l-52 -169h-482z" />
    <glyph glyph-name="lslash" unicode="&#x142;" horiz-adv-x="322" 
d="M16 0l59 300l-63 -22l22 113l63 22l64 327h186l-50 -258l63 22l-22 -113l-63 -22l-72 -369h-187z" />
    <glyph glyph-name="Nacute" unicode="&#x143;" horiz-adv-x="731" 
d="M12 0l136 700h194l145 -418l81 418h185l-137 -700h-189l-148 420l-82 -420h-185zM354 772l169 132h214l-196 -132h-187z" />
    <glyph glyph-name="nacute" unicode="&#x144;" horiz-adv-x="602" 
d="M4 0l103 523h164l-8 -71q26 40 66 62t91 22q71 0 109 -42.5t38 -116.5q0 -20 -2.5 -42.5t-5.5 -39.5l-58 -295h-187l57 291q3 17 4 25t1 14q0 19 -12 30.5t-35 11.5q-31 0 -52.5 -21.5t-29.5 -61.5l-56 -289h-187zM279 599l153 158h196l-188 -158h-161z" />
    <glyph glyph-name="uni0145" unicode="&#x145;" horiz-adv-x="731" 
d="M12 0l136 700h194l145 -418l81 418h185l-137 -700h-189l-148 420l-82 -420h-185zM221 -302l-28 46q75 23 106 53h-8q-28 0 -46 16.5t-18 41.5q0 34 26.5 57t64.5 23t60 -20t22 -53q0 -55 -48 -98.5t-131 -65.5z" />
    <glyph glyph-name="uni0146" unicode="&#x146;" horiz-adv-x="602" 
d="M4 0l103 523h164l-8 -71q26 40 66 62t91 22q71 0 109 -42.5t38 -116.5q0 -20 -2.5 -42.5t-5.5 -39.5l-58 -295h-187l57 291q3 17 4 25t1 14q0 19 -12 30.5t-35 11.5q-31 0 -52.5 -21.5t-29.5 -61.5l-56 -289h-187zM143 -302l-26 45q75 23 106 55q-5 -1 -10 -1
q-28 0 -45.5 16.5t-17.5 41.5q0 34 26 57t64 23q36 0 57 -19.5t21 -53.5q0 -55 -46 -98.5t-129 -65.5z" />
    <glyph glyph-name="Ncaron" unicode="&#x147;" horiz-adv-x="731" 
d="M12 0l136 700h194l145 -418l81 418h185l-137 -700h-189l-148 420l-82 -420h-185zM385 772l-119 132h179l43 -42l59 42h176l-169 -132h-169z" />
    <glyph glyph-name="ncaron" unicode="&#x148;" horiz-adv-x="602" 
d="M4 0l103 523h164l-8 -71q26 40 66 62t91 22q71 0 109 -42.5t38 -116.5q0 -20 -2.5 -42.5t-5.5 -39.5l-58 -295h-187l57 291q3 17 4 25t1 14q0 19 -12 30.5t-35 11.5q-31 0 -52.5 -21.5t-29.5 -61.5l-56 -289h-187zM301 599l-99 158h150l48 -62l71 62h148l-161 -158h-157z
" />
    <glyph glyph-name="Eng" unicode="&#x14a;" horiz-adv-x="736" 
d="M349 -229q-82 0 -138 32l55 156q37 -22 79 -22q38 0 61 26t33 81l70 363q3 16 5 33t2 29q0 75 -79 75q-58 0 -98 -38.5t-54 -108.5l-77 -397h-196l136 700h174l-11 -88q41 50 98 77t124 27q89 0 138 -52t49 -146q0 -16 -2.5 -39t-7.5 -46l-79 -410q-24 -123 -96.5 -187.5
t-185.5 -64.5z" />
    <glyph glyph-name="eng" unicode="&#x14b;" horiz-adv-x="602" 
d="M317 17l55 280q2 9 3 18t1 15q0 42 -45 42q-31 0 -52.5 -21t-29.5 -60l-58 -291h-187l102 523h165l-8 -71q54 84 157 84q71 0 109 -41.5t38 -117.5q0 -19 -1.5 -39t-6.5 -43l-59 -298q-22 -115 -82 -170.5t-164 -55.5q-74 0 -129 26l55 145q21 -8 33.5 -11t23.5 -3
q34 0 52.5 21t27.5 68z" />
    <glyph glyph-name="Omacron" unicode="&#x14c;" horiz-adv-x="819" 
d="M386 -16q-100 0 -174.5 39t-115.5 110t-41 166q0 91 30.5 167.5t85.5 132.5t130 86.5t165 30.5q101 0 175.5 -39t115.5 -110t41 -166q0 -90 -30.5 -166.5t-86 -132.5t-130.5 -87t-165 -31zM401 153q54 0 97.5 31.5t69 85t25.5 119.5q0 74 -37.5 116t-103.5 42
q-55 0 -99 -31t-69.5 -84.5t-25.5 -120.5q0 -74 38 -116t105 -42zM280 777l24 124h425l-24 -124h-425z" />
    <glyph glyph-name="omacron" unicode="&#x14d;" horiz-adv-x="627" 
d="M285 -13q-75 0 -131 29t-87 82.5t-31 124.5q0 92 39.5 162.5t109 110.5t160.5 40q75 0 130 -29.5t85.5 -82.5t30.5 -124q0 -93 -38.5 -163.5t-107.5 -110t-160 -39.5zM300 146q44 0 73 41t29 102q0 41 -19 64.5t-53 23.5q-29 0 -53 -18.5t-38 -50t-14 -71.5
q0 -41 20.5 -66t54.5 -25zM171 618l24 123h388l-24 -123h-388z" />
    <glyph glyph-name="Ohungarumlaut" unicode="&#x150;" horiz-adv-x="819" 
d="M386 -16q-100 0 -174.5 39t-115.5 110t-41 166q0 91 30.5 167.5t85.5 132.5t130 86.5t165 30.5q101 0 175.5 -39t115.5 -110t41 -166q0 -90 -30.5 -166.5t-86 -132.5t-130.5 -87t-165 -31zM401 153q54 0 97.5 31.5t69 85t25.5 119.5q0 74 -37.5 116t-103.5 42
q-55 0 -99 -31t-69.5 -84.5t-25.5 -120.5q0 -74 38 -116t105 -42zM287 772l169 132h201l-196 -132h-174zM544 772l168 132h202l-196 -132h-174z" />
    <glyph glyph-name="ohungarumlaut" unicode="&#x151;" horiz-adv-x="627" 
d="M285 -13q-75 0 -131 29t-87 82.5t-31 124.5q0 92 39.5 162.5t109 110.5t160.5 40q75 0 130 -29.5t85.5 -82.5t30.5 -124q0 -93 -38.5 -163.5t-107.5 -110t-160 -39.5zM300 146q44 0 73 41t29 102q0 41 -19 64.5t-53 23.5q-29 0 -53 -18.5t-38 -50t-14 -71.5
q0 -41 20.5 -66t54.5 -25zM163 599l152 158h182l-189 -158h-145zM395 599l152 158h182l-189 -158h-145z" />
    <glyph glyph-name="OE" unicode="&#x152;" horiz-adv-x="1045" 
d="M375 -16q-99 0 -171 38t-110.5 109.5t-38.5 169.5q0 91 32.5 167t91.5 131.5t139.5 86t176.5 30.5q35 0 74 -4.5t76 -11.5h423l-5 -159h-297l-21 -106h263l-31 -159h-263l-23 -117h316l-49 -159h-432q-34 -7 -73.5 -11.5t-77.5 -4.5zM259 308q0 -75 38 -115t108 -40
q53 0 101 16l71 367q-35 11 -84 11q-68 0 -121 -30.5t-83 -84.5t-30 -124z" />
    <glyph glyph-name="oe" unicode="&#x153;" horiz-adv-x="927" 
d="M273 -13q-71 0 -124.5 30t-83 84t-29.5 126q0 90 38.5 159.5t105.5 109.5t153 40q116 0 171 -73q72 73 179 73q101 0 159 -56t58 -155q0 -29 -4.5 -61.5t-12.5 -53.5h-313q14 -76 115 -76q37 0 72 9.5t76 31.5v-145q-37 -20 -84 -31.5t-94 -11.5q-124 0 -190 74
q-74 -74 -192 -74zM671 401q-30 0 -54 -22t-37 -58h151v14q0 66 -60 66zM298 147q43 0 71.5 40t28.5 99q0 43 -18.5 67t-51.5 24q-43 0 -73 -39.5t-30 -97.5q0 -43 20 -68t53 -25z" />
    <glyph glyph-name="Racute" unicode="&#x154;" horiz-adv-x="660" 
d="M12 0l136 700h250q117 0 181 -52.5t64 -149.5q0 -76 -40 -134t-111 -90l95 -274h-197l-69 237h-74l-46 -237h-189zM365 549h-58l-31 -161h63q47 0 76.5 27t29.5 70q0 30 -21 47t-59 17zM300 772l169 132h214l-196 -132h-187z" />
    <glyph glyph-name="racute" unicode="&#x155;" horiz-adv-x="425" 
d="M4 0l102 523h163l-12 -101q50 111 151 111q17 0 33.5 -3.5t24.5 -8.5l-37 -173q-27 10 -62 10q-51 0 -86.5 -37t-48.5 -104l-42 -217h-186zM212 599l153 158h196l-188 -158h-161z" />
    <glyph glyph-name="uni0156" unicode="&#x156;" horiz-adv-x="660" 
d="M12 0l136 700h250q117 0 181 -52.5t64 -149.5q0 -76 -40 -134t-111 -90l95 -274h-197l-69 237h-74l-46 -237h-189zM365 549h-58l-31 -161h63q47 0 76.5 27t29.5 70q0 30 -21 47t-59 17zM196 -302l-28 46q75 23 106 53h-8q-28 0 -46 16.5t-18 41.5q0 34 26.5 57t64.5 23
t60 -20t22 -53q0 -55 -48 -98.5t-131 -65.5z" />
    <glyph glyph-name="uni0157" unicode="&#x157;" horiz-adv-x="425" 
d="M4 0l102 523h163l-12 -101q50 111 151 111q17 0 33.5 -3.5t24.5 -8.5l-37 -173q-27 10 -62 10q-51 0 -86.5 -37t-48.5 -104l-42 -217h-186zM-20 -302l-26 45q75 23 106 55q-5 -1 -10 -1q-28 0 -45.5 16.5t-17.5 41.5q0 34 26 57t64 23q36 0 57 -19.5t21 -53.5
q0 -55 -46 -98.5t-129 -65.5z" />
    <glyph glyph-name="Rcaron" unicode="&#x158;" horiz-adv-x="660" 
d="M12 0l136 700h250q117 0 181 -52.5t64 -149.5q0 -76 -40 -134t-111 -90l95 -274h-197l-69 237h-74l-46 -237h-189zM365 549h-58l-31 -161h63q47 0 76.5 27t29.5 70q0 30 -21 47t-59 17zM331 772l-119 132h179l43 -42l59 42h176l-169 -132h-169z" />
    <glyph glyph-name="rcaron" unicode="&#x159;" horiz-adv-x="425" 
d="M4 0l102 523h163l-12 -101q50 111 151 111q17 0 33.5 -3.5t24.5 -8.5l-37 -173q-27 10 -62 10q-51 0 -86.5 -37t-48.5 -104l-42 -217h-186zM234 599l-99 158h150l48 -62l71 62h148l-161 -158h-157z" />
    <glyph glyph-name="Sacute" unicode="&#x15a;" horiz-adv-x="600" 
d="M242 -16q-70 0 -137.5 17.5t-119.5 48.5l55 153q41 -29 93.5 -44.5t107.5 -15.5q115 0 115 68q0 15 -6.5 23.5t-27 17t-63.5 21.5q-97 29 -137.5 73t-40.5 118q0 76 37.5 132.5t105 88t156.5 31.5q64 0 125 -16.5t107 -46.5l-58 -148q-35 24 -82 38t-91 14q-48 0 -76 -18
t-28 -48q0 -14 6.5 -23t26.5 -17t61 -21q100 -31 141 -74.5t41 -117.5q0 -76 -39 -133.5t-108.5 -89t-163.5 -31.5zM294 772l169 132h214l-196 -132h-187z" />
    <glyph glyph-name="sacute" unicode="&#x15b;" horiz-adv-x="494" 
d="M186 -13q-114 0 -203 51l52 140q35 -22 74.5 -34.5t76.5 -12.5q35 0 54 8.5t19 24.5q0 8 -5.5 13.5t-22.5 11.5t-53 15q-71 19 -103.5 53.5t-32.5 90.5q0 57 31.5 99t88 65.5t131.5 23.5q53 0 105 -12.5t90 -34.5l-55 -137q-29 18 -67.5 29t-70.5 11q-70 0 -70 -29
q0 -7 5.5 -12.5t23.5 -11.5t55 -15q70 -16 102.5 -51t32.5 -91q0 -58 -32.5 -101.5t-90.5 -68.5t-135 -25zM224 599l153 158h196l-188 -158h-161z" />
    <glyph glyph-name="Scedilla" unicode="&#x15e;" horiz-adv-x="600" 
d="M242 -16q-70 0 -137.5 17.5t-119.5 48.5l55 153q41 -29 93.5 -44.5t107.5 -15.5q115 0 115 68q0 15 -6.5 23.5t-27 17t-63.5 21.5q-97 29 -137.5 73t-40.5 118q0 76 37.5 132.5t105 88t156.5 31.5q64 0 125 -16.5t107 -46.5l-58 -148q-35 24 -82 38t-91 14q-48 0 -76 -18
t-28 -48q0 -14 6.5 -23t26.5 -17t61 -21q100 -31 141 -74.5t41 -117.5q0 -76 -39 -133.5t-108.5 -89t-163.5 -31.5zM208 -229q-27 0 -57.5 4.5t-50.5 11.5l34 79q34 -10 67 -10q29 0 46 7t17 18q0 18 -51 18q-30 0 -52 -5l53 121h85l-25 -52h1q47 0 72.5 -21t25.5 -59
q0 -51 -45 -81.5t-120 -30.5z" />
    <glyph glyph-name="scedilla" unicode="&#x15f;" horiz-adv-x="494" 
d="M186 -13q-114 0 -203 51l52 140q35 -22 74.5 -34.5t76.5 -12.5q35 0 54 8.5t19 24.5q0 8 -5.5 13.5t-22.5 11.5t-53 15q-71 19 -103.5 53.5t-32.5 90.5q0 57 31.5 99t88 65.5t131.5 23.5q53 0 105 -12.5t90 -34.5l-55 -137q-29 18 -67.5 29t-70.5 11q-70 0 -70 -29
q0 -7 5.5 -12.5t23.5 -11.5t55 -15q70 -16 102.5 -51t32.5 -91q0 -58 -32.5 -101.5t-90.5 -68.5t-135 -25zM160 -229q-28 0 -57.5 5t-49.5 13l34 77q36 -15 69 -15q26 0 42.5 8.5t16.5 21.5q0 20 -53 20q-12 0 -26 -1.5t-24 -3.5l53 119h85l-26 -54h1q45 0 70.5 -20
t25.5 -55q0 -52 -43.5 -83.5t-117.5 -31.5z" />
    <glyph glyph-name="Scaron" unicode="&#x160;" horiz-adv-x="600" 
d="M242 -16q-70 0 -137.5 17.5t-119.5 48.5l55 153q41 -29 93.5 -44.5t107.5 -15.5q115 0 115 68q0 15 -6.5 23.5t-27 17t-63.5 21.5q-97 29 -137.5 73t-40.5 118q0 76 37.5 132.5t105 88t156.5 31.5q64 0 125 -16.5t107 -46.5l-58 -148q-35 24 -82 38t-91 14q-48 0 -76 -18
t-28 -48q0 -14 6.5 -23t26.5 -17t61 -21q100 -31 141 -74.5t41 -117.5q0 -76 -39 -133.5t-108.5 -89t-163.5 -31.5zM325 772l-119 132h179l43 -42l59 42h176l-169 -132h-169z" />
    <glyph glyph-name="scaron" unicode="&#x161;" horiz-adv-x="494" 
d="M186 -13q-114 0 -203 51l52 140q35 -22 74.5 -34.5t76.5 -12.5q35 0 54 8.5t19 24.5q0 8 -5.5 13.5t-22.5 11.5t-53 15q-71 19 -103.5 53.5t-32.5 90.5q0 57 31.5 99t88 65.5t131.5 23.5q53 0 105 -12.5t90 -34.5l-55 -137q-29 18 -67.5 29t-70.5 11q-70 0 -70 -29
q0 -7 5.5 -12.5t23.5 -11.5t55 -15q70 -16 102.5 -51t32.5 -91q0 -58 -32.5 -101.5t-90.5 -68.5t-135 -25zM246 599l-99 158h150l48 -62l71 62h148l-161 -158h-157z" />
    <glyph glyph-name="uni0162" unicode="&#x162;" horiz-adv-x="632" 
d="M167 0l103 532h-202l32 168h602l-32 -168h-204l-103 -532h-196zM227 -229q-27 0 -57.5 4.5t-50.5 11.5l34 79q34 -10 67 -10q29 0 46 7t17 18q0 18 -51 18q-30 0 -52 -5l53 121h85l-25 -52h1q47 0 72.5 -21t25.5 -59q0 -51 -45 -81.5t-120 -30.5z" />
    <glyph glyph-name="uni0163" unicode="&#x163;" horiz-adv-x="454" 
d="M263 -10q-82 0 -125 39.5t-43 115.5q0 20 2.5 44t6.5 46l27 137h-101l47 151h83l33 167h187l-33 -167h125l-30 -151h-124l-27 -137q-3 -13 -4 -26t-1 -24q0 -37 40 -37q16 0 33.5 4.5t38.5 12.5l-11 -150q-57 -25 -124 -25zM210 -229q-28 0 -57.5 5t-49.5 13l34 77
q36 -15 69 -15q26 0 42.5 8.5t16.5 21.5q0 20 -53 20q-12 0 -26 -1.5t-24 -3.5l53 119h85l-26 -54h1q45 0 70.5 -20t25.5 -55q0 -52 -43.5 -83.5t-117.5 -31.5z" />
    <glyph glyph-name="Tcaron" unicode="&#x164;" horiz-adv-x="632" 
d="M167 0l103 532h-202l32 168h602l-32 -168h-204l-103 -532h-196zM331 772l-119 132h179l43 -42l59 42h176l-169 -132h-169z" />
    <glyph glyph-name="tcaron" unicode="&#x165;" horiz-adv-x="454" 
d="M263 -10q-82 0 -125 39.5t-43 115.5q0 20 2.5 44t6.5 46l27 137h-101l47 151h83l33 167h187l-33 -167h125l-30 -151h-124l-27 -137q-3 -13 -4 -26t-1 -24q0 -37 40 -37q16 0 33.5 4.5t38.5 12.5l-11 -150q-57 -25 -124 -25zM397 566q11 37 22.5 83t20.5 91h174
q-10 -40 -27.5 -88t-34.5 -86h-155z" />
    <glyph glyph-name="Tbar" unicode="&#x166;" horiz-adv-x="632" 
d="M167 0l46 234h-109l25 133h110l32 165h-203l32 168h602l-32 -168h-203l-32 -165h107l-25 -133h-108l-46 -234h-196z" />
    <glyph glyph-name="tbar" unicode="&#x167;" horiz-adv-x="454" 
d="M8 217l21 104h92l10 51h-101l47 151h83l33 167h187l-33 -167h125l-30 -151h-124l-10 -51h124l-20 -104h-124q-1 -9 -1.5 -17t-0.5 -15q0 -37 40 -37q16 0 33.5 4.5t38.5 12.5l-11 -150q-57 -25 -124 -25q-82 0 -125 39.5t-43 115.5q0 35 6 72h-93z" />
    <glyph glyph-name="Utilde" unicode="&#x168;" horiz-adv-x="724" 
d="M329 -16q-133 0 -203 59t-70 172q0 31 6 61l82 424h196l-80 -407q-3 -16 -4 -27.5t-1 -22.5q0 -90 89 -90q56 0 85.5 32.5t44.5 108.5l80 406h196l-82 -422q-29 -151 -111 -222.5t-228 -71.5zM357 769l-114 12q14 72 57 111t107 39q29 0 49 -5.5t45 -19.5q32 -17 49 -17
q31 0 41 42l114 -13q-14 -72 -56.5 -110.5t-107.5 -38.5q-29 0 -51 6.5t-58 25.5q-16 9 -34 9q-31 0 -41 -41z" />
    <glyph glyph-name="utilde" unicode="&#x169;" horiz-adv-x="597" 
d="M186 -13q-72 0 -112 42.5t-40 115.5q0 17 2 34.5t6 37.5l61 306h187l-58 -297q-4 -24 -4 -32q0 -42 42 -42q30 0 51 20.5t28 59.5l57 291h187l-101 -523h-166l8 71q-50 -84 -148 -84zM264 596l-108 12q15 74 55.5 114t101.5 40q24 0 41.5 -6.5t42.5 -23.5
q16 -10 25.5 -14.5t19.5 -4.5q17 0 26.5 11.5t15.5 37.5l108 -14q-32 -152 -154 -152q-26 0 -44.5 6.5t-41.5 22.5q-27 20 -46 20q-16 0 -26 -11.5t-16 -37.5z" />
    <glyph glyph-name="Umacron" unicode="&#x16a;" horiz-adv-x="724" 
d="M329 -16q-133 0 -203 59t-70 172q0 31 6 61l82 424h196l-80 -407q-3 -16 -4 -27.5t-1 -22.5q0 -90 89 -90q56 0 85.5 32.5t44.5 108.5l80 406h196l-82 -422q-29 -151 -111 -222.5t-228 -71.5zM243 777l24 124h425l-24 -124h-425z" />
    <glyph glyph-name="umacron" unicode="&#x16b;" horiz-adv-x="597" 
d="M186 -13q-72 0 -112 42.5t-40 115.5q0 17 2 34.5t6 37.5l61 306h187l-58 -297q-4 -24 -4 -32q0 -42 42 -42q30 0 51 20.5t28 59.5l57 291h187l-101 -523h-166l8 71q-50 -84 -148 -84zM165 618l24 123h388l-24 -123h-388z" />
    <glyph glyph-name="Uring" unicode="&#x16e;" horiz-adv-x="724" 
d="M329 -16q-133 0 -203 59t-70 172q0 31 6 61l82 424h196l-80 -407q-3 -16 -4 -27.5t-1 -22.5q0 -90 89 -90q56 0 85.5 32.5t44.5 108.5l80 406h196l-82 -422q-29 -151 -111 -222.5t-228 -71.5zM455 759q-49 0 -79.5 28.5t-30.5 75.5q0 53 37 88t95 35q49 0 80 -28.5
t31 -72.5q0 -55 -37.5 -90.5t-95.5 -35.5zM462 824q23 0 38 15.5t15 37.5q0 44 -44 44q-22 0 -37.5 -15t-15.5 -38q0 -20 12 -32t32 -12z" />
    <glyph glyph-name="uring" unicode="&#x16f;" horiz-adv-x="597" 
d="M186 -13q-72 0 -112 42.5t-40 115.5q0 17 2 34.5t6 37.5l61 306h187l-58 -297q-4 -24 -4 -32q0 -42 42 -42q30 0 51 20.5t28 59.5l57 291h187l-101 -523h-166l8 71q-50 -84 -148 -84zM366 586q-50 0 -80 28.5t-30 76.5q0 54 37 89t95 35q49 0 80 -28.5t31 -73.5
q0 -55 -37.5 -91t-95.5 -36zM372 648q25 0 41 16t16 41q0 48 -47 48q-25 0 -40.5 -16t-15.5 -42q0 -22 12.5 -34.5t33.5 -12.5z" />
    <glyph glyph-name="Uhungarumlaut" unicode="&#x170;" horiz-adv-x="724" 
d="M329 -16q-133 0 -203 59t-70 172q0 31 6 61l82 424h196l-80 -407q-3 -16 -4 -27.5t-1 -22.5q0 -90 89 -90q56 0 85.5 32.5t44.5 108.5l80 406h196l-82 -422q-29 -151 -111 -222.5t-228 -71.5zM250 772l169 132h201l-196 -132h-174zM507 772l168 132h202l-196 -132h-174z
" />
    <glyph glyph-name="uhungarumlaut" unicode="&#x171;" horiz-adv-x="597" 
d="M186 -13q-72 0 -112 42.5t-40 115.5q0 17 2 34.5t6 37.5l61 306h187l-58 -297q-4 -24 -4 -32q0 -42 42 -42q30 0 51 20.5t28 59.5l57 291h187l-101 -523h-166l8 71q-50 -84 -148 -84zM157 599l152 158h182l-189 -158h-145zM389 599l152 158h182l-189 -158h-145z" />
    <glyph glyph-name="Uogonek" unicode="&#x172;" horiz-adv-x="724" 
d="M329 -16q-133 0 -203 59t-70 172q0 31 6 61l82 424h196l-80 -407q-3 -16 -4 -27.5t-1 -22.5q0 -90 89 -90q56 0 85.5 32.5t44.5 108.5l80 406h196l-82 -422q-29 -151 -111 -222.5t-228 -71.5zM327 -229q-52 0 -83 24.5t-31 64.5q0 109 232 177l50 -21q-87 -37 -125 -64.5
t-38 -53.5q0 -28 40 -28q29 0 65 11v-93q-52 -17 -110 -17z" />
    <glyph glyph-name="uogonek" unicode="&#x173;" horiz-adv-x="597" 
d="M186 -13q-72 0 -112 42.5t-40 115.5q0 17 2 34.5t6 37.5l61 306h187l-58 -297q-4 -24 -4 -32q0 -42 42 -42q30 0 51 20.5t28 59.5l57 291h187l-101 -523h-166l8 71q-50 -84 -148 -84zM349 -229q-50 0 -80 24.5t-30 64.5q0 103 202 166l51 -26q-64 -22 -102 -50.5
t-38 -55.5q0 -30 36 -30q29 0 62 11l1 -87q-48 -17 -102 -17z" />
    <glyph glyph-name="Wcircumflex" unicode="&#x174;" horiz-adv-x="1002" 
d="M145 0l-47 700h204l1 -459l190 459h190l14 -458l178 458h198l-317 -700h-194l-13 484l-207 -484h-197zM374 772l169 132h169l119 -132h-179l-43 42l-59 -42h-176z" />
    <glyph glyph-name="wcircumflex" unicode="&#x175;" horiz-adv-x="852" 
d="M112 0l-51 523h194l-9 -342l138 342h184l8 -342l127 342h190l-251 -523h-189l-10 334l-136 -334h-195zM290 599l161 158h157l99 -158h-148l-48 62l-71 -62h-150z" />
    <glyph glyph-name="Ycircumflex" unicode="&#x176;" horiz-adv-x="712" 
d="M207 0l53 271l-164 429h210l78 -266l175 266h227l-330 -429l-53 -271h-196zM219 772l169 132h169l119 -132h-179l-43 42l-59 -42h-176z" />
    <glyph glyph-name="ycircumflex" unicode="&#x177;" horiz-adv-x="605" 
d="M70 -229q-77 0 -126 26l46 147q16 -8 37 -12.5t42 -4.5q69 0 99 58l8 15l-116 523h198l42 -334l150 334h199l-304 -552q-41 -75 -80.5 -119t-86 -62.5t-108.5 -18.5zM160 599l161 158h157l99 -158h-148l-48 62l-71 -62h-150z" />
    <glyph glyph-name="Ydieresis" unicode="&#x178;" horiz-adv-x="712" 
d="M207 0l53 271l-164 429h210l78 -266l175 266h227l-330 -429l-53 -271h-196zM324 763q-34 0 -55 21t-21 56q0 41 26.5 67t66.5 26q35 0 56.5 -21t21.5 -54q0 -40 -27 -67.5t-68 -27.5zM564 763q-34 0 -55 21t-21 56q0 41 27 67t67 26q35 0 56 -21t21 -54q0 -40 -27 -67.5
t-68 -27.5z" />
    <glyph glyph-name="Zacute" unicode="&#x179;" horiz-adv-x="646" 
d="M-13 0l29 146l397 394h-306l48 160h532l-27 -146l-393 -394h330l-48 -160h-562zM320 772l169 132h214l-196 -132h-187z" />
    <glyph glyph-name="zacute" unicode="&#x17a;" horiz-adv-x="524" 
d="M-16 0l27 136l265 241h-217l46 146h426l-27 -135l-263 -242h233l-47 -146h-443zM238 599l153 158h196l-188 -158h-161z" />
    <glyph glyph-name="Zdotaccent" unicode="&#x17b;" horiz-adv-x="646" 
d="M-13 0l29 146l397 394h-306l48 160h532l-27 -146l-393 -394h330l-48 -160h-562zM435 761q-36 0 -57 21.5t-21 58.5q0 42 27 69t68 27q36 0 58 -21.5t22 -57.5q0 -41 -27.5 -69t-69.5 -28z" />
    <glyph glyph-name="zdotaccent" unicode="&#x17c;" horiz-adv-x="524" 
d="M-16 0l27 136l265 241h-217l46 146h426l-27 -135l-263 -242h233l-47 -146h-443zM340 593q-35 0 -56 21t-21 56q0 41 27 67.5t67 26.5q34 0 55.5 -21t21.5 -56q0 -40 -27 -67t-67 -27z" />
    <glyph glyph-name="Zcaron" unicode="&#x17d;" horiz-adv-x="646" 
d="M-13 0l29 146l397 394h-306l48 160h532l-27 -146l-393 -394h330l-48 -160h-562zM351 772l-119 132h179l43 -42l59 42h176l-169 -132h-169z" />
    <glyph glyph-name="zcaron" unicode="&#x17e;" horiz-adv-x="524" 
d="M-16 0l27 136l265 241h-217l46 146h426l-27 -135l-263 -242h233l-47 -146h-443zM260 599l-99 158h150l48 -62l71 62h148l-161 -158h-157z" />
    <glyph glyph-name="uni0218" unicode="&#x218;" horiz-adv-x="600" 
d="M242 -16q-70 0 -137.5 17.5t-119.5 48.5l55 153q41 -29 93.5 -44.5t107.5 -15.5q115 0 115 68q0 15 -6.5 23.5t-27 17t-63.5 21.5q-97 29 -137.5 73t-40.5 118q0 76 37.5 132.5t105 88t156.5 31.5q64 0 125 -16.5t107 -46.5l-58 -148q-35 24 -82 38t-91 14q-48 0 -76 -18
t-28 -48q0 -14 6.5 -23t26.5 -17t61 -21q100 -31 141 -74.5t41 -117.5q0 -76 -39 -133.5t-108.5 -89t-163.5 -31.5zM134 -302l-28 46q75 23 106 53h-8q-28 0 -46 16.5t-18 41.5q0 34 26.5 57t64.5 23t60 -20t22 -53q0 -55 -48 -98.5t-131 -65.5z" />
    <glyph glyph-name="uni0219" unicode="&#x219;" horiz-adv-x="494" 
d="M186 -13q-114 0 -203 51l52 140q35 -22 74.5 -34.5t76.5 -12.5q35 0 54 8.5t19 24.5q0 8 -5.5 13.5t-22.5 11.5t-53 15q-71 19 -103.5 53.5t-32.5 90.5q0 57 31.5 99t88 65.5t131.5 23.5q53 0 105 -12.5t90 -34.5l-55 -137q-29 18 -67.5 29t-70.5 11q-70 0 -70 -29
q0 -7 5.5 -12.5t23.5 -11.5t55 -15q70 -16 102.5 -51t32.5 -91q0 -58 -32.5 -101.5t-90.5 -68.5t-135 -25zM82 -302l-26 45q75 23 106 55q-5 -1 -10 -1q-28 0 -45.5 16.5t-17.5 41.5q0 34 26 57t64 23q36 0 57 -19.5t21 -53.5q0 -55 -46 -98.5t-129 -65.5z" />
    <glyph glyph-name="uni021A" unicode="&#x21a;" horiz-adv-x="632" 
d="M167 0l103 532h-202l32 168h602l-32 -168h-204l-103 -532h-196zM153 -302l-28 46q75 23 106 53h-8q-28 0 -46 16.5t-18 41.5q0 34 26.5 57t64.5 23t60 -20t22 -53q0 -55 -48 -98.5t-131 -65.5z" />
    <glyph glyph-name="uni021B" unicode="&#x21b;" horiz-adv-x="454" 
d="M263 -10q-82 0 -125 39.5t-43 115.5q0 20 2.5 44t6.5 46l27 137h-101l47 151h83l33 167h187l-33 -167h125l-30 -151h-124l-27 -137q-3 -13 -4 -26t-1 -24q0 -37 40 -37q16 0 33.5 4.5t38.5 12.5l-11 -150q-57 -25 -124 -25zM133 -302l-26 45q75 23 106 55q-5 -1 -10 -1
q-28 0 -45.5 16.5t-17.5 41.5q0 34 26 57t64 23q36 0 57 -19.5t21 -53.5q0 -55 -46 -98.5t-129 -65.5z" />
    <glyph glyph-name="uni0237" unicode="&#x237;" horiz-adv-x="296" 
d="M-56 -229q-74 0 -129 26l55 145q21 -8 33.5 -11t23.5 -3q34 0 52.5 21t27.5 68l98 506h187l-102 -526q-22 -115 -82 -170.5t-164 -55.5z" />
    <glyph glyph-name="circumflex" unicode="&#x2c6;" horiz-adv-x="500" 
d="M108 599l161 158h157l99 -158h-148l-48 62l-71 -62h-150z" />
    <glyph glyph-name="caron" unicode="&#x2c7;" horiz-adv-x="500" 
d="M237 599l-99 158h150l48 -62l71 62h148l-161 -158h-157z" />
    <glyph glyph-name="breve" unicode="&#x2d8;" horiz-adv-x="500" 
d="M322 594q-73 0 -114 34.5t-41 94.5v10t1 12l117 12v-10q0 -25 13 -39t37 -14q60 0 73 63l113 -12q-37 -151 -199 -151z" />
    <glyph glyph-name="dotaccent" unicode="&#x2d9;" horiz-adv-x="500" 
d="M323 593q-35 0 -56 21t-21 56q0 41 27 67.5t67 26.5q34 0 55.5 -21t21.5 -56q0 -40 -27 -67t-67 -27z" />
    <glyph glyph-name="ring" unicode="&#x2da;" horiz-adv-x="500" 
d="M324 586q-50 0 -80 28.5t-30 76.5q0 54 37 89t95 35q49 0 80 -28.5t31 -73.5q0 -55 -37.5 -91t-95.5 -36zM330 648q25 0 41 16t16 41q0 48 -47 48q-25 0 -40.5 -16t-15.5 -42q0 -22 12.5 -34.5t33.5 -12.5z" />
    <glyph glyph-name="ogonek" unicode="&#x2db;" horiz-adv-x="500" 
d="M170 -229q-50 0 -80 24.5t-30 64.5q0 103 202 166l51 -26q-64 -22 -102 -50.5t-38 -55.5q0 -30 36 -30q29 0 62 11l1 -87q-48 -17 -102 -17z" />
    <glyph glyph-name="tilde" unicode="&#x2dc;" horiz-adv-x="500" 
d="M221 596l-108 12q15 74 55.5 114t101.5 40q24 0 41.5 -6.5t42.5 -23.5q16 -10 25.5 -14.5t19.5 -4.5q17 0 26.5 11.5t15.5 37.5l108 -14q-32 -152 -154 -152q-26 0 -44.5 6.5t-41.5 22.5q-27 20 -46 20q-16 0 -26 -11.5t-16 -37.5z" />
    <glyph glyph-name="hungarumlaut" unicode="&#x2dd;" horiz-adv-x="500" 
d="M51 599l152 158h182l-189 -158h-145zM283 599l152 158h182l-189 -158h-145z" />
    <glyph glyph-name="gravecomb" unicode="&#x300;" 
d="M5 599l-127 158h192l91 -158h-156z" />
    <glyph glyph-name="acutecomb" unicode="&#x301;" 
d="M-41 599l153 158h196l-188 -158h-161z" />
    <glyph glyph-name="uni0302" unicode="&#x302;" 
d="M-144 599l161 158h157l99 -158h-148l-48 62l-71 -62h-150z" />
    <glyph glyph-name="tildecomb" unicode="&#x303;" 
d="M-37 596l-108 12q15 74 55.5 114t101.5 40q24 0 41.5 -6.5t42.5 -23.5q16 -10 25.5 -14.5t19.5 -4.5q17 0 26.5 11.5t15.5 37.5l108 -14q-32 -152 -154 -152q-26 0 -44.5 6.5t-41.5 22.5q-27 20 -46 20q-16 0 -26 -11.5t-16 -37.5z" />
    <glyph glyph-name="uni0304" unicode="&#x304;" 
d="M-136 618l24 123h388l-24 -123h-388z" />
    <glyph glyph-name="uni0306" unicode="&#x306;" 
d="M71 594q-73 0 -114 34.5t-41 94.5v10t1 12l117 12v-10q0 -25 13 -39t37 -14q60 0 73 63l113 -12q-37 -151 -199 -151z" />
    <glyph glyph-name="uni0307" unicode="&#x307;" 
d="M61 593q-35 0 -56 21t-21 56q0 41 27 67.5t67 26.5q34 0 55.5 -21t21.5 -56q0 -40 -27 -67t-67 -27z" />
    <glyph glyph-name="uni0308" unicode="&#x308;" 
d="M-43 596q-34 0 -54 20.5t-20 54.5q0 40 25.5 65.5t65.5 25.5q34 0 55 -20.5t21 -52.5q0 -40 -26 -66.5t-67 -26.5zM184 596q-34 0 -54 20.5t-20 54.5q0 40 26 65.5t65 25.5q34 0 55 -20.5t21 -52.5q0 -40 -26 -66.5t-67 -26.5z" />
    <glyph glyph-name="uni030A" unicode="&#x30a;" 
d="M66 586q-50 0 -80 28.5t-30 76.5q0 54 37 89t95 35q49 0 80 -28.5t31 -73.5q0 -55 -37.5 -91t-95.5 -36zM72 648q25 0 41 16t16 41q0 48 -47 48q-25 0 -40.5 -16t-15.5 -42q0 -22 12.5 -34.5t33.5 -12.5z" />
    <glyph glyph-name="uni030B" unicode="&#x30b;" 
d="M-144 599l152 158h182l-189 -158h-145zM88 599l152 158h182l-189 -158h-145z" />
    <glyph glyph-name="uni030C" unicode="&#x30c;" 
d="M-19 599l-99 158h150l48 -62l71 62h148l-161 -158h-157z" />
    <glyph glyph-name="uni0312" unicode="&#x312;" 
d="M170 836l26 -45q-75 -23 -106 -55q5 1 10 1q28 0 45.5 -16t17.5 -42q0 -34 -26 -57t-64 -23q-36 0 -57 19.5t-21 53.5q0 56 46.5 99t128.5 65z" />
    <glyph glyph-name="uni0315" unicode="&#x315;" 
d="M-38 521q11 41 24.5 96.5t26.5 122.5h174q-13 -56 -32.5 -116.5t-37.5 -102.5h-155z" />
    <glyph glyph-name="dotbelowcomb" unicode="&#x323;" 
d="M-91 -239q-35 0 -56 21.5t-21 57.5q0 41 27 68t67 27q35 0 57 -21.5t22 -55.5q0 -42 -27.5 -69.5t-68.5 -27.5z" />
    <glyph glyph-name="uni0326" unicode="&#x326;" 
d="M-168 -302l-26 45q75 23 106 55q-5 -1 -10 -1q-28 0 -45.5 16.5t-17.5 41.5q0 34 26 57t64 23q36 0 57 -19.5t21 -53.5q0 -55 -46 -98.5t-129 -65.5z" />
    <glyph glyph-name="uni0327" unicode="&#x327;" 
d="M-90 -229q-28 0 -57.5 5t-49.5 13l34 77q36 -15 69 -15q26 0 42.5 8.5t16.5 21.5q0 20 -53 20q-12 0 -26 -1.5t-24 -3.5l53 119h85l-26 -54h1q45 0 70.5 -20t25.5 -55q0 -52 -43.5 -83.5t-117.5 -31.5z" />
    <glyph glyph-name="uni0328" unicode="&#x328;" 
d="M-136 -229q-50 0 -80 24.5t-30 64.5q0 103 202 166l51 -26q-64 -22 -102 -50.5t-38 -55.5q0 -30 36 -30q29 0 62 11l1 -87q-48 -17 -102 -17z" />
    <glyph glyph-name="uni0344" unicode="&#x344;" 
d="M-20 599l96 215h183l-138 -215h-141zM-114 596q-34 0 -54 20.5t-20 54.5q0 40 25.5 65.5t65.5 25.5q34 0 55 -20.5t21 -52.5q0 -40 -26 -66.5t-67 -26.5zM289 596q-34 0 -54 20.5t-20 54.5q0 40 26 65.5t65 25.5q34 0 55 -20.5t21 -52.5q0 -40 -26 -66.5t-67 -26.5z" />
    <glyph glyph-name="uni0374" unicode="&#x374;" horiz-adv-x="297" 
d="M70 467l116 273h204l-154 -273h-166z" />
    <glyph glyph-name="uni0375" unicode="&#x375;" horiz-adv-x="297" 
d="M-71 -104l154 273h166l-116 -273h-204z" />
    <glyph glyph-name="uni037E" unicode="&#x37e;" horiz-adv-x="298" 
d="M-6 -186l-37 67q45 14 81.5 42.5t59.5 65.5q-41 1 -67 26t-26 66q0 33 16.5 59.5t43.5 42.5t60 16q47 0 75 -30.5t28 -83.5q0 -56 -31 -111t-84 -97.5t-119 -62.5zM170 324q-45 0 -72 25t-27 68q0 50 35.5 83.5t87.5 33.5q45 0 71.5 -25.5t26.5 -69.5q0 -50 -34.5 -82.5
t-87.5 -32.5z" />
    <glyph glyph-name="tonos" unicode="&#x384;" horiz-adv-x="500" 
d="M188 599l107 215h193l-149 -215h-151z" />
    <glyph glyph-name="dieresistonos" unicode="&#x385;" horiz-adv-x="500" 
d="M214 599l96 215h183l-138 -215h-141zM120 596q-34 0 -54 20.5t-20 54.5q0 40 25.5 65.5t65.5 25.5q34 0 55 -20.5t21 -52.5q0 -40 -26 -66.5t-67 -26.5zM523 596q-34 0 -54 20.5t-20 54.5q0 40 26 65.5t65 25.5q34 0 55 -20.5t21 -52.5q0 -40 -26 -66.5t-67 -26.5z" />
    <glyph glyph-name="Alphatonos" unicode="&#x386;" horiz-adv-x="748" 
d="M-41 0l397 700h206l125 -700h-214l-15 128h-220l-65 -128h-214zM318 287h122l-22 198zM-62 448l91 252h192l-132 -252h-151z" />
    <glyph glyph-name="anoteleia" unicode="&#x387;" horiz-adv-x="298" 
d="M169 324q-45 0 -72 25t-27 68q0 50 35.5 83.5t87.5 33.5q45 0 71.5 -25.5t26.5 -69.5q0 -50 -34.5 -82.5t-87.5 -32.5z" />
    <glyph glyph-name="Epsilontonos" unicode="&#x388;" horiz-adv-x="598" 
d="M12 0l136 700h473l-5 -159h-308l-21 -106h274l-31 -159h-274l-23 -117h327l-49 -159h-499zM-209 448l91 252h192l-132 -252h-151z" />
    <glyph glyph-name="Etatonos" unicode="&#x389;" horiz-adv-x="746" 
d="M12 0l136 700h196l-51 -260h228l51 260h196l-136 -700h-196l52 269h-228l-52 -269h-196zM-209 448l91 252h192l-132 -252h-151z" />
    <glyph glyph-name="Iotatonos" unicode="&#x38a;" horiz-adv-x="322" 
d="M12 0l136 700h196l-136 -700h-196zM-209 448l91 252h192l-132 -252h-151z" />
    <glyph glyph-name="Omicrontonos" unicode="&#x38c;" horiz-adv-x="819" 
d="M386 -16q-100 0 -174.5 39t-115.5 110t-41 166q0 91 30.5 167.5t85.5 132.5t130 86.5t165 30.5q101 0 175.5 -39t115.5 -110t41 -166q0 -90 -30.5 -166.5t-86 -132.5t-130.5 -87t-165 -31zM401 153q54 0 97.5 31.5t69 85t25.5 119.5q0 74 -37.5 116t-103.5 42
q-55 0 -99 -31t-69.5 -84.5t-25.5 -120.5q0 -74 38 -116t105 -42zM-169 448l91 252h192l-132 -252h-151z" />
    <glyph glyph-name="Upsilontonos" unicode="&#x38e;" horiz-adv-x="712" 
d="M207 0l53 271l-164 429h210l78 -266l175 266h227l-330 -429l-53 -271h-196zM-260 448l91 252h192l-132 -252h-151z" />
    <glyph glyph-name="Omegatonos" unicode="&#x38f;" horiz-adv-x="825" 
d="M1 0l31 159h137q-51 43 -71.5 100t-20.5 116q0 75 31 137.5t84.5 108.5t122.5 71t146 25q92 0 165 -36.5t116 -103t43 -156.5q0 -78 -39 -146t-107 -116h117l-49 -159h-300l30 151q39 17 72 58t53.5 93t20.5 100q0 66 -36 105.5t-95 39.5q-50 0 -89.5 -29.5t-61.5 -80.5
t-22 -118q0 -58 16.5 -103t44.5 -65l-30 -151h-309zM-158 448l91 252h192l-132 -252h-151z" />
    <glyph glyph-name="iotadieresistonos" unicode="&#x390;" horiz-adv-x="353" 
d="M155 -10q-61 0 -94 34.5t-33 99.5q0 14 2 29.5t5 32.5l65 337h187l-59 -307q-2 -13 -3.5 -22.5t-1.5 -16.5q0 -16 10 -22.5t35 -6.5q11 0 19.5 2t19.5 6l-10 -141q-37 -13 -67.5 -19t-74.5 -6zM123 599l96 215h183l-138 -215h-141zM29 596q-34 0 -54 20.5t-20 54.5
q0 40 25.5 65.5t65.5 25.5q34 0 55 -20.5t21 -52.5q0 -40 -26 -66.5t-67 -26.5zM432 596q-34 0 -54 20.5t-20 54.5q0 40 26 65.5t65 25.5q34 0 55 -20.5t21 -52.5q0 -40 -26 -66.5t-67 -26.5z" />
    <glyph glyph-name="Alpha" unicode="&#x391;" horiz-adv-x="748" 
d="M-41 0l397 700h206l125 -700h-214l-15 128h-220l-65 -128h-214zM318 287h122l-22 198z" />
    <glyph glyph-name="Beta" unicode="&#x392;" horiz-adv-x="665" 
d="M12 0l136 700h272q109 0 168 -42t59 -120q0 -61 -37.5 -107t-100.5 -66q51 -11 81 -47.5t30 -90.5q0 -67 -39 -118t-108.5 -80t-160.5 -29h-300zM381 555h-75l-24 -125h73q47 0 72.5 19.5t25.5 54.5q0 51 -72 51zM344 292h-89l-28 -147h94q50 0 80 23t30 62q0 62 -87 62z
" />
    <glyph glyph-name="Gamma" unicode="&#x393;" horiz-adv-x="551" 
d="M12 0l137 700h445l-6 -168h-276l-104 -532h-196z" />
    <glyph glyph-name="uni0394" unicode="&#x394;" horiz-adv-x="730" 
d="M-21 0l24 123l344 577h206l120 -577l-24 -123h-670zM220 156h239l-51 349z" />
    <glyph glyph-name="Epsilon" unicode="&#x395;" horiz-adv-x="598" 
d="M12 0l136 700h473l-5 -159h-308l-21 -106h274l-31 -159h-274l-23 -117h327l-49 -159h-499z" />
    <glyph glyph-name="Zeta" unicode="&#x396;" horiz-adv-x="646" 
d="M-13 0l29 146l397 394h-306l48 160h532l-27 -146l-393 -394h330l-48 -160h-562z" />
    <glyph glyph-name="Eta" unicode="&#x397;" horiz-adv-x="746" 
d="M12 0l136 700h196l-51 -260h228l51 260h196l-136 -700h-196l52 269h-228l-52 -269h-196z" />
    <glyph glyph-name="Theta" unicode="&#x398;" horiz-adv-x="819" 
d="M386 -16q-100 0 -174.5 39t-115.5 110t-41 166q0 91 30.5 167.5t85.5 132.5t130 86.5t165 30.5q101 0 175.5 -39t115.5 -110t41 -166q0 -90 -30.5 -166.5t-86 -132.5t-130.5 -87t-165 -31zM401 153q54 0 97.5 31.5t69 85t25.5 119.5q0 74 -37.5 116t-103.5 42
q-55 0 -99 -31t-69.5 -84.5t-25.5 -120.5q0 -74 38 -116t105 -42zM309 275l31 159h196l-31 -159h-196z" />
    <glyph glyph-name="Iota" unicode="&#x399;" horiz-adv-x="322" 
d="M12 0l136 700h196l-136 -700h-196z" />
    <glyph glyph-name="Kappa" unicode="&#x39a;" horiz-adv-x="724" 
d="M12 0l136 700h196l-53 -270l258 270h227l-282 -276l168 -424h-214l-104 277l-102 -100l-34 -177h-196z" />
    <glyph glyph-name="Lambda" unicode="&#x39b;" horiz-adv-x="724" 
d="M-41 0l385 700h206l113 -700h-214l-46 474l-230 -474h-214z" />
    <glyph glyph-name="Mu" unicode="&#x39c;" horiz-adv-x="873" 
d="M12 0l136 700h228l70 -390l220 390h229l-136 -700h-178l82 425l-177 -307h-156l-57 309l-83 -427h-178z" />
    <glyph glyph-name="Nu" unicode="&#x39d;" horiz-adv-x="731" 
d="M12 0l136 700h194l145 -418l81 418h185l-137 -700h-189l-148 420l-82 -420h-185z" />
    <glyph glyph-name="Xi" unicode="&#x39e;" horiz-adv-x="627" 
d="M93 516l36 184h540l-36 -184h-540zM130 277l31 159h372l-31 -159h-372zM-18 0l36 184h561l-36 -184h-561z" />
    <glyph glyph-name="Omicron" unicode="&#x39f;" horiz-adv-x="819" 
d="M386 -16q-100 0 -174.5 39t-115.5 110t-41 166q0 91 30.5 167.5t85.5 132.5t130 86.5t165 30.5q101 0 175.5 -39t115.5 -110t41 -166q0 -90 -30.5 -166.5t-86 -132.5t-130.5 -87t-165 -31zM401 153q54 0 97.5 31.5t69 85t25.5 119.5q0 74 -37.5 116t-103.5 42
q-55 0 -99 -31t-69.5 -84.5t-25.5 -120.5q0 -74 38 -116t105 -42z" />
    <glyph glyph-name="Pi" unicode="&#x3a0;" horiz-adv-x="733" 
d="M12 0l136 700h607l-136 -700h-196l103 531h-215l-103 -531h-196z" />
    <glyph glyph-name="Rho" unicode="&#x3a1;" horiz-adv-x="625" 
d="M12 0l136 700h250q108 0 172 -55.5t64 -150.5q0 -81 -39.5 -142t-110.5 -95t-167 -34h-73l-43 -223h-189zM363 549h-56l-33 -175h59q46 0 76 30t30 74q0 32 -20.5 51.5t-55.5 19.5z" />
    <glyph glyph-name="Sigma" unicode="&#x3a3;" horiz-adv-x="620" 
d="M-7 0l28 145l235 209l-150 201l28 145h512l-5 -160h-319l133 -182l-212 -198h339l-48 -160h-541z" />
    <glyph glyph-name="Tau" unicode="&#x3a4;" horiz-adv-x="632" 
d="M167 0l103 532h-202l32 168h602l-32 -168h-204l-103 -532h-196z" />
    <glyph glyph-name="Upsilon" unicode="&#x3a5;" horiz-adv-x="712" 
d="M207 0l53 271l-164 429h210l78 -266l175 266h227l-330 -429l-53 -271h-196z" />
    <glyph glyph-name="Phi" unicode="&#x3a6;" horiz-adv-x="883" 
d="M298 0l15 73q-120 20 -186 85t-66 186q0 68 29 121.5t79.5 92t116 61.5t139.5 30l13 67h185l-14 -72q123 -21 187.5 -89.5t64.5 -176.5q0 -71 -29.5 -126t-80 -94t-116.5 -62t-139 -29l-13 -67h-185zM255 337q0 -47 24.5 -76.5t68.5 -42.5l55 285q-67 -13 -107.5 -53.5
t-40.5 -112.5zM667 380q0 47 -24.5 76.5t-68.5 42.5l-56 -285q68 13 108.5 53.5t40.5 112.5z" />
    <glyph glyph-name="Chi" unicode="&#x3a7;" horiz-adv-x="721" 
d="M-41 0l312 361l-154 339h217l77 -199l153 199h221l-295 -348l170 -352h-221l-88 211l-167 -211h-225z" />
    <glyph glyph-name="Psi" unicode="&#x3a8;" horiz-adv-x="814" 
d="M263 0l35 180q-104 18 -165 75.5t-61 164.5q0 18 2 37.5t6 41.5l38 201h191l-37 -196q-4 -18 -5.5 -33.5t-1.5 -29.5q0 -41 16 -65t48 -35l70 359h186l-70 -359q60 18 84.5 57t34.5 90l41 212h191l-42 -217q-25 -133 -104.5 -212.5t-236.5 -94.5l-34 -176h-186z" />
    <glyph glyph-name="uni03A9" unicode="&#x3a9;" horiz-adv-x="825" 
d="M1 0l31 159h137q-51 43 -71.5 100t-20.5 116q0 75 31 137.5t84.5 108.5t122.5 71t146 25q92 0 165 -36.5t116 -103t43 -156.5q0 -78 -39 -146t-107 -116h117l-49 -159h-300l30 151q39 17 72 58t53.5 93t20.5 100q0 66 -36 105.5t-95 39.5q-50 0 -89.5 -29.5t-61.5 -80.5
t-22 -118q0 -58 16.5 -103t44.5 -65l-30 -151h-309z" />
    <glyph glyph-name="Iotadieresis" unicode="&#x3aa;" horiz-adv-x="322" 
d="M12 0l136 700h196l-136 -700h-196zM137 763q-34 0 -55 21t-21 56q0 41 26.5 67t66.5 26q35 0 56.5 -21t21.5 -54q0 -40 -27 -67.5t-68 -27.5zM377 763q-34 0 -55 21t-21 56q0 41 27 67t67 26q35 0 56 -21t21 -54q0 -40 -27 -67.5t-68 -27.5z" />
    <glyph glyph-name="Upsilondieresis" unicode="&#x3ab;" horiz-adv-x="712" 
d="M207 0l53 271l-164 429h210l78 -266l175 266h227l-330 -429l-53 -271h-196zM324 763q-34 0 -55 21t-21 56q0 41 26.5 67t66.5 26q35 0 56.5 -21t21.5 -54q0 -40 -27 -67.5t-68 -27.5zM564 763q-34 0 -55 21t-21 56q0 41 27 67t67 26q35 0 56 -21t21 -54q0 -40 -27 -67.5
t-68 -27.5z" />
    <glyph glyph-name="alphatonos" unicode="&#x3ac;" horiz-adv-x="641" 
d="M223 -13q-56 0 -98.5 29t-66.5 80.5t-24 118.5q0 66 20.5 124t56 102.5t82.5 69.5t101 25q49 0 86 -22.5t54 -61.5q7 18 14 35.5t15 35.5h187q-16 -37 -34.5 -84t-36.5 -98q-6 -17 -14.5 -47t-15.5 -61t-9 -53q0 -15 4.5 -20.5t14.5 -5.5q14 0 30 10l-12 -149
q-28 -12 -49.5 -16t-53.5 -4q-91 0 -110 66q-27 -36 -62.5 -55t-78.5 -19zM292 146q42 0 68.5 41t26.5 102q0 41 -16.5 64.5t-48.5 23.5q-42 0 -70 -40.5t-28 -99.5q0 -41 18 -66t50 -25zM295 599l107 215h193l-149 -215h-151z" />
    <glyph glyph-name="epsilontonos" unicode="&#x3ad;" horiz-adv-x="522" 
d="M234 -13q-72 0 -119.5 20t-71 53t-23.5 72q0 102 125 141q-37 15 -58 42t-21 64q0 52 38.5 87t100.5 52.5t132 17.5q61 0 109 -9t76 -26l-54 -140q-51 28 -128 28q-49 0 -67 -10t-18 -27q0 -13 12.5 -21.5t46.5 -8.5h114l-23 -117h-127q-34 0 -51.5 -10.5t-17.5 -27.5
q0 -15 14.5 -23t48.5 -8q52 0 94 8.5t79 24.5v-144q-36 -18 -89.5 -28t-121.5 -10zM252 599l107 215h193l-149 -215h-151z" />
    <glyph glyph-name="etatonos" unicode="&#x3ae;" horiz-adv-x="630" 
d="M299 -216l98 507q3 17 4 25t1 14q0 19 -12 30.5t-35 11.5q-30 0 -51.5 -21.5t-29.5 -61.5l-56 -289h-187l59 305q2 8 3 16t1 15q0 15 -6 24t-22 9q-9 0 -21 -5l11 149q47 15 103 15q50 0 82.5 -21.5t38.5 -70.5q25 48 67.5 74t98.5 26q71 0 109 -42.5t38 -116.5
q0 -20 -2.5 -42.5t-5.5 -39.5l-99 -511h-187zM284 599l107 215h193l-149 -215h-151z" />
    <glyph glyph-name="iotatonos" unicode="&#x3af;" horiz-adv-x="353" 
d="M155 -10q-61 0 -94 34.5t-33 99.5q0 14 2 29.5t5 32.5l65 337h187l-59 -307q-2 -13 -3.5 -22.5t-1.5 -16.5q0 -16 10 -22.5t35 -6.5q11 0 19.5 2t19.5 6l-10 -141q-37 -13 -67.5 -19t-74.5 -6zM122 599l107 215h193l-149 -215h-151z" />
    <glyph glyph-name="upsilondieresistonos" unicode="&#x3b0;" horiz-adv-x="591" 
d="M256 -13q-67 0 -111.5 27.5t-66 69.5t-21.5 87q0 37 6 70l12 63q2 12 3.5 22.5t1.5 18.5q0 12 -4 18t-15 6q-10 0 -20 -5l11 149q47 15 103 15q62 0 90.5 -34.5t28.5 -96.5q0 -16 -2 -35t-6 -39l-13 -66q-4 -19 -6 -35t-2 -30q0 -22 8 -34t28 -12q30 0 52 43t34 120
t12 180v16.5t-1 17.5h185q1 -10 1.5 -21t0.5 -22q0 -244 -78.5 -368.5t-230.5 -124.5zM236 599l96 215h183l-138 -215h-141zM142 596q-34 0 -54 20.5t-20 54.5q0 40 25.5 65.5t65.5 25.5q34 0 55 -20.5t21 -52.5q0 -40 -26 -66.5t-67 -26.5zM545 596q-34 0 -54 20.5
t-20 54.5q0 40 26 65.5t65 25.5q34 0 55 -20.5t21 -52.5q0 -40 -26 -66.5t-67 -26.5z" />
    <glyph glyph-name="alpha" unicode="&#x3b1;" horiz-adv-x="641" 
d="M223 -13q-56 0 -98.5 29t-66.5 80.5t-24 118.5q0 66 20.5 124t56 102.5t82.5 69.5t101 25q49 0 86 -22.5t54 -61.5q7 18 14 35.5t15 35.5h187q-16 -37 -34.5 -84t-36.5 -98q-6 -17 -14.5 -47t-15.5 -61t-9 -53q0 -15 4.5 -20.5t14.5 -5.5q14 0 30 10l-12 -149
q-28 -12 -49.5 -16t-53.5 -4q-91 0 -110 66q-27 -36 -62.5 -55t-78.5 -19zM292 146q42 0 68.5 41t26.5 102q0 41 -16.5 64.5t-48.5 23.5q-42 0 -70 -40.5t-28 -99.5q0 -41 18 -66t50 -25z" />
    <glyph glyph-name="beta" unicode="&#x3b2;" horiz-adv-x="654" 
d="M-38 -216l141 725q23 116 94.5 180t201.5 64q64 0 114 -24t78.5 -66t28.5 -97q0 -42 -17.5 -79t-47 -64t-64.5 -40q54 -16 85 -55.5t31 -101.5q0 -48 -19 -91t-53 -76.5t-78.5 -52.5t-94.5 -19q-55 0 -95.5 17.5t-63.5 57.5l-54 -278h-187zM325 151q41 0 66.5 21.5
t25.5 57.5q0 29 -24.5 45.5t-62.5 16.5h-30l29 150h27q35 0 58 30t23 70q0 27 -17.5 42.5t-42.5 15.5q-34 0 -55.5 -18.5t-29.5 -59.5l-51 -264q-3 -16 -3 -31q0 -42 24.5 -59t62.5 -17z" />
    <glyph glyph-name="gamma" unicode="&#x3b3;" horiz-adv-x="602" 
d="M111 -216l43 223l-52 313q-4 28 -12 38.5t-24 10.5q-7 0 -12.5 -2t-10.5 -4l11 150q23 8 44 11.5t49 3.5q43 0 79 -25t43 -83l30 -232q46 85 76.5 167.5t58.5 167.5h192q-27 -77 -68 -165t-95.5 -179t-122.5 -178l-42 -217h-187z" />
    <glyph glyph-name="delta" unicode="&#x3b4;" horiz-adv-x="615" 
d="M283 -11q-70 0 -127.5 27.5t-91.5 76.5t-34 114q0 80 45.5 136t120.5 81q-32 26 -45 57.5t-13 70.5q0 58 34 103t97.5 71.5t151.5 26.5q42 0 82 -7t72 -17.5t50 -22.5l-62 -156q-29 23 -73 34.5t-81 11.5q-84 0 -84 -50q0 -18 16.5 -29t51.5 -30l41 -22q70 -37 105 -86.5
t35 -114.5q0 -79 -39 -141t-105 -98t-147 -36zM289 147q31 0 52.5 18.5t32.5 47t11 57.5q0 37 -19.5 58.5t-52.5 21.5q-30 0 -51 -19t-32 -47.5t-11 -56.5q0 -37 19.5 -58.5t50.5 -21.5z" />
    <glyph glyph-name="epsilon" unicode="&#x3b5;" horiz-adv-x="522" 
d="M234 -13q-72 0 -119.5 20t-71 53t-23.5 72q0 102 125 141q-37 15 -58 42t-21 64q0 52 38.5 87t100.5 52.5t132 17.5q61 0 109 -9t76 -26l-54 -140q-51 28 -128 28q-49 0 -67 -10t-18 -27q0 -13 12.5 -21.5t46.5 -8.5h114l-23 -117h-127q-34 0 -51.5 -10.5t-17.5 -27.5
q0 -15 14.5 -23t48.5 -8q52 0 94 8.5t79 24.5v-144q-36 -18 -89.5 -28t-121.5 -10z" />
    <glyph glyph-name="zeta" unicode="&#x3b6;" horiz-adv-x="509" 
d="M303 -223l-87 106q32 18 50 33.5t18 34.5q0 13 -12.5 22.5t-45.5 20.5l-42 15q-40 15 -73.5 35t-53.5 51t-20 79q0 42 15 85t48.5 91.5t90 108t140.5 135.5h-213l46 146h433l-27 -132q-120 -98 -196 -169.5t-111.5 -122.5t-35.5 -88q0 -33 20 -49t50 -27l39 -14
q43 -16 73.5 -34.5t47 -46.5t16.5 -73q0 -64 -45.5 -113.5t-124.5 -93.5z" />
    <glyph glyph-name="eta" unicode="&#x3b7;" horiz-adv-x="630" 
d="M299 -216l98 507q3 17 4 25t1 14q0 19 -12 30.5t-35 11.5q-30 0 -51.5 -21.5t-29.5 -61.5l-56 -289h-187l59 305q2 8 3 16t1 15q0 15 -6 24t-22 9q-9 0 -21 -5l11 149q47 15 103 15q50 0 82.5 -21.5t38.5 -70.5q25 48 67.5 74t98.5 26q71 0 109 -42.5t38 -116.5
q0 -20 -2.5 -42.5t-5.5 -39.5l-99 -511h-187z" />
    <glyph glyph-name="theta" unicode="&#x3b8;" horiz-adv-x="663" 
d="M307 -13q-79 0 -133.5 37.5t-83 103t-28.5 149.5q0 91 22.5 176t66 152.5t106 107.5t142.5 40q77 0 131.5 -35.5t83.5 -100.5t29 -154q0 -88 -22 -172.5t-65 -153t-105.5 -109.5t-143.5 -41zM389 595q-28 0 -50.5 -21.5t-39.5 -57t-28 -78.5h185q1 20 1 39q0 56 -18 87
t-50 31zM316 145q29 0 51.5 22.5t39.5 59.5t28 81h-185q-2 -24 -2 -45q0 -55 18.5 -86.5t49.5 -31.5z" />
    <glyph glyph-name="iota" unicode="&#x3b9;" horiz-adv-x="353" 
d="M155 -10q-61 0 -94 34.5t-33 99.5q0 14 2 29.5t5 32.5l65 337h187l-59 -307q-2 -13 -3.5 -22.5t-1.5 -16.5q0 -16 10 -22.5t35 -6.5q11 0 19.5 2t19.5 6l-10 -141q-37 -13 -67.5 -19t-74.5 -6z" />
    <glyph glyph-name="kappa" unicode="&#x3ba;" horiz-adv-x="613" 
d="M4 0l102 523h187l-32 -163l175 163h221l-216 -190l112 -333h-198l-59 206l-78 -68l-27 -138h-187z" />
    <glyph glyph-name="lambda" unicode="&#x3bb;" horiz-adv-x="623" 
d="M-34 0l323 541q-9 33 -34.5 43.5t-45.5 10.5q-21 0 -42.5 -5.5t-37.5 -13.5v147q38 17 70.5 23.5t71.5 6.5q50 0 94 -19.5t75 -63t40 -114.5l75 -556h-201l-22 326l-169 -326h-197z" />
    <glyph glyph-name="uni03BC" unicode="&#x3bc;" horiz-adv-x="635" 
d="M-38 -216l144 739h187l-57 -291q-3 -16 -4 -24.5t-1 -14.5q0 -19 12 -30.5t35 -11.5q29 0 51.5 20.5t30.5 62.5l56 289h187l-59 -305q-1 -8 -2.5 -16t-1.5 -15q0 -15 6 -24t22 -9q9 0 21 5l-11 -149q-46 -15 -104 -15q-51 0 -83.5 22.5t-37.5 73.5q-26 -49 -62 -76.5
t-72 -27.5q-17 0 -30 6l-40 -209h-187z" />
    <glyph glyph-name="nu" unicode="&#x3bd;" horiz-adv-x="602" 
d="M157 0l-55 320q-4 28 -12 38.5t-24 10.5q-7 0 -12.5 -2t-10.5 -4l11 150q23 8 44 11.5t49 3.5q43 0 79 -25t43 -83l30 -233q36 68 69 149t68 187h190q-42 -121 -113.5 -257t-172.5 -266h-183z" />
    <glyph glyph-name="xi" unicode="&#x3be;" horiz-adv-x="562" 
d="M329 -223l-87 106q32 18 50 33.5t18 34.5q0 14 -12.5 22.5t-45.5 20.5l-42 15q-96 35 -138.5 82.5t-42.5 108.5q0 67 50.5 120t131.5 75q-46 16 -71 51t-25 93q0 61 37.5 109.5t104 76.5t152.5 28q51 0 104.5 -13t91.5 -34l-60 -155q-63 43 -133 43q-51 0 -79.5 -21
t-28.5 -54q0 -34 23 -49.5t66 -15.5h92l-31 -152h-95q-73 0 -107 -20t-34 -49q0 -26 24.5 -44.5t80.5 -36.5l39 -14q43 -16 73.5 -34.5t47 -46.5t16.5 -73q0 -64 -45.5 -113.5t-124.5 -93.5z" />
    <glyph glyph-name="omicron" unicode="&#x3bf;" horiz-adv-x="627" 
d="M285 -13q-75 0 -131 29t-87 82.5t-31 124.5q0 92 39.5 162.5t109 110.5t160.5 40q75 0 130 -29.5t85.5 -82.5t30.5 -124q0 -93 -38.5 -163.5t-107.5 -110t-160 -39.5zM300 146q44 0 73 41t29 102q0 41 -19 64.5t-53 23.5q-29 0 -53 -18.5t-38 -50t-14 -71.5
q0 -41 20.5 -66t54.5 -25z" />
    <glyph glyph-name="pi" unicode="&#x3c0;" horiz-adv-x="641" 
d="M35 0l73 373h-80l47 150h589l-29 -150h-77l-30 -155q-1 -8 -2.5 -16t-1.5 -15q0 -15 6 -24t22 -9q9 0 21 5l-11 -149q-23 -7 -46.5 -11t-52.5 -4q-52 0 -81.5 17t-41.5 45t-12 61q0 36 8 74l35 181h-76l-73 -373h-187z" />
    <glyph glyph-name="rho" unicode="&#x3c1;" horiz-adv-x="631" 
d="M-42 -216l96 493q14 71 51 129.5t98 94t145 35.5q75 0 130 -29.5t85.5 -82.5t30.5 -124q0 -91 -32 -162t-92.5 -111t-146.5 -40q-41 0 -73 16t-54 44l-51 -263h-187zM303 146q45 0 73.5 40.5t28.5 99.5q0 39 -18.5 65t-53.5 26q-42 0 -68.5 -41t-26.5 -102
q0 -39 16.5 -63.5t48.5 -24.5z" />
    <glyph glyph-name="sigma1" unicode="&#x3c2;" horiz-adv-x="526" 
d="M287 -196l-87 110q32 22 45.5 36t13.5 32q0 17 -10.5 27.5t-45.5 24.5l-20 8q-64 26 -103 79.5t-39 136.5q0 80 37.5 142.5t105.5 99t161 36.5q59 0 112 -13t91 -38l-62 -153q-27 23 -65 34t-73 11q-60 0 -88.5 -30t-28.5 -80q0 -42 21 -63t64 -38l27 -11
q54 -22 79.5 -52.5t25.5 -78.5q0 -52 -19 -90t-55 -69t-87 -61z" />
    <glyph glyph-name="sigma" unicode="&#x3c3;" horiz-adv-x="632" 
d="M287 -13q-76 0 -133 29t-88 81.5t-31 124.5q0 86 37.5 154t103.5 107.5t150 39.5h341l-47 -150h-121q26 -23 45 -61t19 -83q0 -50 -22 -94t-60.5 -77t-88 -52t-105.5 -19zM294 146q35 0 56.5 23t32 58.5t10.5 72.5q0 47 -16 73h-53q-32 0 -54.5 -22t-34 -55.5
t-11.5 -67.5q0 -38 18 -60t52 -22z" />
    <glyph glyph-name="tau" unicode="&#x3c4;" horiz-adv-x="514" 
d="M282 -10q-73 0 -116 31t-43 101q0 31 7 65l37 186h-139l47 150h462l-29 -150h-154l-30 -154q-5 -22 -5 -35q0 -16 8 -26t29 -10q14 0 26.5 3t26.5 11l-12 -146q-34 -15 -58 -20.5t-57 -5.5z" />
    <glyph glyph-name="upsilon" unicode="&#x3c5;" horiz-adv-x="591" 
d="M256 -13q-67 0 -111.5 27.5t-66 69.5t-21.5 87q0 37 6 70l12 63q2 12 3.5 22.5t1.5 18.5q0 12 -4 18t-15 6q-10 0 -20 -5l11 149q47 15 103 15q62 0 90.5 -34.5t28.5 -96.5q0 -16 -2 -35t-6 -39l-13 -66q-4 -19 -6 -35t-2 -30q0 -22 8 -34t28 -12q30 0 52 43t34 120
t12 180v16.5t-1 17.5h185q1 -10 1.5 -21t0.5 -22q0 -244 -78.5 -368.5t-230.5 -124.5z" />
    <glyph glyph-name="phi" unicode="&#x3c6;" horiz-adv-x="817" 
d="M224 -216l41 214q-110 24 -168.5 91.5t-58.5 153.5q0 129 89 202t242 88l33 167h185l-35 -175q110 -24 168.5 -91.5t58.5 -153.5q0 -129 -89 -202t-241 -88l-40 -206h-185zM222 247q0 -37 20.5 -66.5t61.5 -45.5l50 259q-132 -26 -132 -147zM595 276q0 37 -20.5 66.5
t-59.5 44.5l-50 -258q130 27 130 147z" />
    <glyph glyph-name="chi" unicode="&#x3c7;" horiz-adv-x="623" 
d="M418 -229q-58 0 -85 25.5t-38 64.5l-34 120l-137 -197h-202l275 383l-46 153q-8 27 -18.5 36.5t-28.5 9.5q-17 0 -29 -7l11 152q20 8 40.5 12.5t46.5 4.5q47 0 78 -19.5t45 -70.5l29 -102l127 187h207l-270 -370l52 -174q8 -28 19 -37t27 -9q9 0 16 2t14 5l-12 -152
q-19 -7 -39 -12t-48 -5z" />
    <glyph glyph-name="psi" unicode="&#x3c8;" horiz-adv-x="773" 
d="M202 -216l41 213q-91 19 -146 73.5t-55 142.5q0 27 6 57l49 253h182l-48 -248q-3 -14 -4 -26.5t-1 -23.5q0 -59 47 -77l107 552h183l-107 -552q42 14 61.5 43.5t28.5 74.5l50 257h182l-51 -262q-47 -240 -302 -270l-40 -207h-183z" />
    <glyph glyph-name="omega" unicode="&#x3c9;" horiz-adv-x="813" 
d="M205 -13q-78 0 -124 49.5t-46 134.5q0 54 17.5 115t50.5 122t77 115h187q-69 -89 -106 -173t-37 -149q0 -29 8 -42t26 -13q20 0 34.5 29t27.5 95l26 133h172l-26 -133q-12 -52 -12 -82q0 -42 29 -42q21 0 37.5 24.5t26 66.5t9.5 93q0 91 -36 193h187q18 -42 28 -93.5
t10 -102.5q0 -99 -35 -175.5t-96 -120.5t-140 -44q-54 0 -86 33t-39 95q-26 -60 -70 -94t-100 -34z" />
    <glyph glyph-name="iotadieresis" unicode="&#x3ca;" horiz-adv-x="353" 
d="M155 -10q-61 0 -94 34.5t-33 99.5q0 14 2 29.5t5 32.5l65 337h187l-59 -307q-2 -13 -3.5 -22.5t-1.5 -16.5q0 -16 10 -22.5t35 -6.5q11 0 19.5 2t19.5 6l-10 -141q-37 -13 -67.5 -19t-74.5 -6zM101 596q-34 0 -54 20.5t-20 54.5q0 40 25.5 65.5t65.5 25.5q34 0 55 -20.5
t21 -52.5q0 -40 -26 -66.5t-67 -26.5zM328 596q-34 0 -54 20.5t-20 54.5q0 40 26 65.5t65 25.5q34 0 55 -20.5t21 -52.5q0 -40 -26 -66.5t-67 -26.5z" />
    <glyph glyph-name="upsilondieresis" unicode="&#x3cb;" horiz-adv-x="591" 
d="M256 -13q-67 0 -111.5 27.5t-66 69.5t-21.5 87q0 37 6 70l12 63q2 12 3.5 22.5t1.5 18.5q0 12 -4 18t-15 6q-10 0 -20 -5l11 149q47 15 103 15q62 0 90.5 -34.5t28.5 -96.5q0 -16 -2 -35t-6 -39l-13 -66q-4 -19 -6 -35t-2 -30q0 -22 8 -34t28 -12q30 0 52 43t34 120
t12 180v16.5t-1 17.5h185q1 -10 1.5 -21t0.5 -22q0 -244 -78.5 -368.5t-230.5 -124.5zM214 596q-34 0 -54 20.5t-20 54.5q0 40 25.5 65.5t65.5 25.5q34 0 55 -20.5t21 -52.5q0 -40 -26 -66.5t-67 -26.5zM441 596q-34 0 -54 20.5t-20 54.5q0 40 26 65.5t65 25.5
q34 0 55 -20.5t21 -52.5q0 -40 -26 -66.5t-67 -26.5z" />
    <glyph glyph-name="omicrontonos" unicode="&#x3cc;" horiz-adv-x="627" 
d="M285 -13q-75 0 -131 29t-87 82.5t-31 124.5q0 92 39.5 162.5t109 110.5t160.5 40q75 0 130 -29.5t85.5 -82.5t30.5 -124q0 -93 -38.5 -163.5t-107.5 -110t-160 -39.5zM300 146q44 0 73 41t29 102q0 41 -19 64.5t-53 23.5q-29 0 -53 -18.5t-38 -50t-14 -71.5
q0 -41 20.5 -66t54.5 -25zM286 599l107 215h193l-149 -215h-151z" />
    <glyph glyph-name="upsilontonos" unicode="&#x3cd;" horiz-adv-x="591" 
d="M256 -13q-67 0 -111.5 27.5t-66 69.5t-21.5 87q0 37 6 70l12 63q2 12 3.5 22.5t1.5 18.5q0 12 -4 18t-15 6q-10 0 -20 -5l11 149q47 15 103 15q62 0 90.5 -34.5t28.5 -96.5q0 -16 -2 -35t-6 -39l-13 -66q-4 -19 -6 -35t-2 -30q0 -22 8 -34t28 -12q30 0 52 43t34 120
t12 180v16.5t-1 17.5h185q1 -10 1.5 -21t0.5 -22q0 -244 -78.5 -368.5t-230.5 -124.5zM235 599l107 215h193l-149 -215h-151z" />
    <glyph glyph-name="omegatonos" unicode="&#x3ce;" horiz-adv-x="813" 
d="M205 -13q-78 0 -124 49.5t-46 134.5q0 54 17.5 115t50.5 122t77 115h187q-69 -89 -106 -173t-37 -149q0 -29 8 -42t26 -13q20 0 34.5 29t27.5 95l26 133h172l-26 -133q-12 -52 -12 -82q0 -42 29 -42q21 0 37.5 24.5t26 66.5t9.5 93q0 91 -36 193h187q18 -42 28 -93.5
t10 -102.5q0 -99 -35 -175.5t-96 -120.5t-140 -44q-54 0 -86 33t-39 95q-26 -60 -70 -94t-100 -34zM389 599l107 215h193l-149 -215h-151z" />
    <glyph glyph-name="kaiSymbol" unicode="&#x3d7;" horiz-adv-x="628" 
d="M4 0l102 523h187l-32 -163l175 163h221l-212 -186l90 -200q16 -34 23 -72t7 -69q0 -68 -36 -119t-96.5 -78.5t-136.5 -27.5q-40 0 -84 7.5t-82 23.5l54 146q21 -9 54.5 -15.5t61.5 -6.5q38 0 60 23t22 57q0 13 -5 30.5t-16 42.5l-58 133l-85 -74l-27 -138h-187z" />
    <glyph glyph-name="uni0400" unicode="&#x400;" horiz-adv-x="598" 
d="M12 0l136 700h473l-5 -159h-308l-21 -106h274l-31 -159h-274l-23 -117h327l-49 -159h-499zM339 772l-144 132h212l117 -132h-185z" />
    <glyph glyph-name="uni0401" unicode="&#x401;" horiz-adv-x="598" 
d="M12 0l136 700h473l-5 -159h-308l-21 -106h274l-31 -159h-274l-23 -117h327l-49 -159h-499zM286 763q-34 0 -55 21t-21 56q0 41 26.5 67t66.5 26q35 0 56.5 -21t21.5 -54q0 -40 -27 -67.5t-68 -27.5zM526 763q-34 0 -55 21t-21 56q0 41 27 67t67 26q35 0 56 -21t21 -54
q0 -40 -27 -67.5t-68 -27.5z" />
    <glyph glyph-name="uni0402" unicode="&#x402;" horiz-adv-x="841" 
d="M134 0l103 531h-170l33 169h626l-33 -169h-260l-21 -111q38 10 75.5 15t70.5 5q64 0 112 -23.5t75.5 -67t27.5 -102.5q0 -120 -64 -186.5t-184 -66.5q-31 0 -58 4.5t-41 8.5l44 148q18 -6 43 -6q26 0 44 18t18 50q0 58 -79 58q-59 0 -116 -17l-50 -258h-196z" />
    <glyph glyph-name="uni0403" unicode="&#x403;" horiz-adv-x="551" 
d="M12 0l137 700h445l-6 -168h-276l-104 -532h-196zM282 772l169 132h214l-196 -132h-187z" />
    <glyph glyph-name="uni0404" unicode="&#x404;" horiz-adv-x="677" 
d="M385 -16q-101 0 -175.5 40t-114.5 111.5t-40 166.5q0 90 32 166t90.5 131.5t138.5 86t176 30.5q54 0 114.5 -15t102.5 -38l-60 -158q-36 20 -77.5 31t-86.5 11q-74 0 -130.5 -30t-84.5 -86h299l-31 -156h-287q12 -67 54.5 -94.5t107.5 -27.5q53 0 97.5 10t90.5 32v-164
q-39 -22 -98 -34.5t-118 -12.5z" />
    <glyph glyph-name="uni0405" unicode="&#x405;" horiz-adv-x="600" 
d="M242 -16q-70 0 -137.5 17.5t-119.5 48.5l55 153q41 -29 93.5 -44.5t107.5 -15.5q115 0 115 68q0 15 -6.5 23.5t-27 17t-63.5 21.5q-97 29 -137.5 73t-40.5 118q0 76 37.5 132.5t105 88t156.5 31.5q64 0 125 -16.5t107 -46.5l-58 -148q-35 24 -82 38t-91 14q-48 0 -76 -18
t-28 -48q0 -14 6.5 -23t26.5 -17t61 -21q100 -31 141 -74.5t41 -117.5q0 -76 -39 -133.5t-108.5 -89t-163.5 -31.5z" />
    <glyph glyph-name="uni0406" unicode="&#x406;" horiz-adv-x="322" 
d="M12 0l136 700h196l-136 -700h-196z" />
    <glyph glyph-name="uni0407" unicode="&#x407;" horiz-adv-x="322" 
d="M12 0l136 700h196l-136 -700h-196zM137 763q-34 0 -55 21t-21 56q0 41 26.5 67t66.5 26q35 0 56.5 -21t21.5 -54q0 -40 -27 -67.5t-68 -27.5zM377 763q-34 0 -55 21t-21 56q0 41 27 67t67 26q35 0 56 -21t21 -54q0 -40 -27 -67.5t-68 -27.5z" />
    <glyph glyph-name="uni0408" unicode="&#x408;" horiz-adv-x="558" 
d="M179 -16q-54 0 -106.5 13.5t-91.5 37.5l57 156q68 -40 134 -40q58 0 90 33t47 111l79 405h196l-77 -397q-22 -113 -62 -183.5t-105 -103t-161 -32.5z" />
    <glyph glyph-name="uni0409" unicode="&#x409;" horiz-adv-x="1046" 
d="M248 700h495l-44 -228h89q102 0 161.5 -52.5t59.5 -150.5q0 -127 -82.5 -198t-233.5 -71h-282l103 531h-117q-22 -103 -41 -178t-36 -129q-25 -80 -57.5 -131t-80.5 -75t-119 -24q-60 0 -102 16l44 172q11 -3 22 -5t22 -2q32 0 57 25.5t47 85t44 160.5q11 50 24 113.5
t27 140.5zM743 321h-74l-33 -171l1 1h72q53 0 81 26t28 67q0 35 -18.5 56t-56.5 21z" />
    <glyph glyph-name="uni040A" unicode="&#x40a;" horiz-adv-x="1043" 
d="M12 0l136 700h196l-50 -259h205l50 259h196l-44 -228h84q102 0 161.5 -52.5t59.5 -150.5q0 -127 -82.5 -198t-233.5 -71h-277l52 270h-205l-52 -270h-196zM740 321h-69l-33 -170h68q53 0 81 26t28 67q0 35 -18.5 56t-56.5 21z" />
    <glyph glyph-name="uni040B" unicode="&#x40b;" horiz-adv-x="837" 
d="M134 0l103 531h-170l33 169h626l-33 -169h-260l-21 -111q39 11 75.5 15.5t71.5 4.5q95 0 153 -50t58 -135q0 -21 -2.5 -45t-7.5 -47l-32 -163h-196l31 159q5 30 5 49q0 32 -23 49.5t-73 17.5q-46 0 -91 -14l-51 -261h-196z" />
    <glyph glyph-name="uni040C" unicode="&#x40c;" horiz-adv-x="710" 
d="M12 0l137 700h195l-51 -260h54l192 260h223l-272 -345l158 -355h-218l-108 271h-61l-53 -271h-196zM331 772l169 132h214l-196 -132h-187z" />
    <glyph glyph-name="uni040D" unicode="&#x40d;" horiz-adv-x="738" 
d="M12 0l137 700h185l-78 -398l309 398h195l-136 -700h-185l77 398l-312 -398h-192zM392 772l-144 132h212l117 -132h-185z" />
    <glyph glyph-name="uni040E" unicode="&#x40e;" horiz-adv-x="729" 
d="M216 -16q-43 0 -72.5 6t-52.5 15l34 154q16 -8 39.5 -13.5t46.5 -5.5q50 0 82 27l-197 533h197l119 -369l180 369h211l-296 -514q-45 -79 -88.5 -123t-92 -61.5t-110.5 -17.5zM454 755q-94 0 -146 35t-52 99v7l152 17v-10q0 -60 59 -60q60 0 74 70l152 -17
q-16 -70 -74 -105.5t-165 -35.5z" />
    <glyph glyph-name="uni040F" unicode="&#x40f;" horiz-adv-x="725" 
d="M12 0l136 700h196l-103 -531h207l103 531h196l-136 -700h-201l-33 -170h-179l33 170h-219z" />
    <glyph glyph-name="uni0410" unicode="&#x410;" horiz-adv-x="748" 
d="M-41 0l397 700h206l125 -700h-214l-15 128h-220l-65 -128h-214zM318 287h122l-22 198z" />
    <glyph glyph-name="uni0411" unicode="&#x411;" horiz-adv-x="650" 
d="M12 0l137 700h478l-14 -169h-311l-21 -109h85q118 0 179.5 -45.5t61.5 -134.5q0 -82 -42 -135.5t-112 -80t-156 -26.5h-285zM227 145h81q45 0 73 21.5t28 58.5q0 59 -80 59h-75z" />
    <glyph glyph-name="uni0412" unicode="&#x412;" horiz-adv-x="665" 
d="M12 0l136 700h272q109 0 168 -42t59 -120q0 -61 -37.5 -107t-100.5 -66q51 -11 81 -47.5t30 -90.5q0 -67 -39 -118t-108.5 -80t-160.5 -29h-300zM381 555h-75l-24 -125h73q47 0 72.5 19.5t25.5 54.5q0 51 -72 51zM344 292h-89l-28 -147h94q50 0 80 23t30 62q0 62 -87 62z
" />
    <glyph glyph-name="uni0413" unicode="&#x413;" horiz-adv-x="551" 
d="M12 0l137 700h445l-6 -168h-276l-104 -532h-196z" />
    <glyph glyph-name="uni0414" unicode="&#x414;" horiz-adv-x="806" 
d="M-55 -170l66 339h78q39 45 66.5 100.5t49.5 143.5q23 90 39 157t29 130h495l-104 -531h95l-66 -339h-180l33 170h-388l-33 -170h-180zM382 385q-38 -144 -89 -216h185l71 362h-131q-8 -35 -17 -72t-19 -74z" />
    <glyph glyph-name="uni0415" unicode="&#x415;" horiz-adv-x="598" 
d="M12 0l136 700h473l-5 -159h-308l-21 -106h274l-31 -159h-274l-23 -117h327l-49 -159h-499z" />
    <glyph glyph-name="uni0416" unicode="&#x416;" horiz-adv-x="1104" 
d="M-40 0l297 375l-123 325h208l80 -260h66l51 260h196l-51 -260h64l192 260h223l-273 -348l152 -352h-218l-102 271h-70l-53 -271h-196l53 271h-62l-198 -271h-236z" />
    <glyph glyph-name="uni0417" unicode="&#x417;" horiz-adv-x="578" 
d="M214 -16q-63 0 -125 16.5t-103 43.5l61 146q44 -26 84 -36.5t95 -10.5q50 0 85 21t35 58q0 26 -21.5 43.5t-68.5 17.5h-124l30 157h122q38 0 62 17.5t24 47.5q0 23 -19 37.5t-58 14.5q-91 0 -174 -37l-8 146q98 50 228 50q107 0 166.5 -48.5t59.5 -125.5
q0 -64 -35 -109.5t-94 -68.5q41 -17 68.5 -52.5t27.5 -89.5q0 -76 -40 -129.5t-111.5 -81t-166.5 -27.5z" />
    <glyph glyph-name="uni0418" unicode="&#x418;" horiz-adv-x="738" 
d="M12 0l137 700h185l-78 -398l309 398h195l-136 -700h-185l77 398l-312 -398h-192z" />
    <glyph glyph-name="uni0419" unicode="&#x419;" horiz-adv-x="738" 
d="M12 0l137 700h185l-78 -398l309 398h195l-136 -700h-185l77 398l-312 -398h-192zM458 755q-94 0 -146 35t-52 99v7l152 17v-10q0 -60 59 -60q60 0 74 70l152 -17q-16 -70 -74 -105.5t-165 -35.5z" />
    <glyph glyph-name="uni041A" unicode="&#x41a;" horiz-adv-x="710" 
d="M12 0l137 700h195l-51 -260h54l192 260h223l-272 -345l158 -355h-218l-108 271h-61l-53 -271h-196z" />
    <glyph glyph-name="uni041B" unicode="&#x41b;" horiz-adv-x="732" 
d="M63 -6q-60 0 -102 16l44 172q11 -3 22 -5t22 -2q32 0 57 25.5t47 85t44 160.5q11 50 24 113.5t27 140.5h506l-137 -700h-196l103 531h-127q-22 -103 -41 -178t-36 -129q-25 -80 -57.5 -131t-80.5 -75t-119 -24z" />
    <glyph glyph-name="uni041C" unicode="&#x41c;" horiz-adv-x="873" 
d="M12 0l136 700h228l70 -390l220 390h229l-136 -700h-178l82 425l-177 -307h-156l-57 309l-83 -427h-178z" />
    <glyph glyph-name="uni041D" unicode="&#x41d;" horiz-adv-x="746" 
d="M12 0l136 700h196l-51 -260h228l51 260h196l-136 -700h-196l52 269h-228l-52 -269h-196z" />
    <glyph glyph-name="uni041E" unicode="&#x41e;" horiz-adv-x="819" 
d="M386 -16q-100 0 -174.5 39t-115.5 110t-41 166q0 91 30.5 167.5t85.5 132.5t130 86.5t165 30.5q101 0 175.5 -39t115.5 -110t41 -166q0 -90 -30.5 -166.5t-86 -132.5t-130.5 -87t-165 -31zM401 153q54 0 97.5 31.5t69 85t25.5 119.5q0 74 -37.5 116t-103.5 42
q-55 0 -99 -31t-69.5 -84.5t-25.5 -120.5q0 -74 38 -116t105 -42z" />
    <glyph glyph-name="uni041F" unicode="&#x41f;" horiz-adv-x="728" 
d="M12 0l137 700h601l-136 -700h-196l103 531h-210l-103 -531h-196z" />
    <glyph glyph-name="uni0420" unicode="&#x420;" horiz-adv-x="625" 
d="M12 0l136 700h250q108 0 172 -55.5t64 -150.5q0 -81 -39.5 -142t-110.5 -95t-167 -34h-73l-43 -223h-189zM363 549h-56l-33 -175h59q46 0 76 30t30 74q0 32 -20.5 51.5t-55.5 19.5z" />
    <glyph glyph-name="uni0421" unicode="&#x421;" horiz-adv-x="680" 
d="M400 -16q-98 0 -176 39t-123 110.5t-45 168.5q0 95 32 171t90.5 130.5t138.5 83.5t176 29q54 0 115 -16t104 -42l-60 -158q-76 47 -166 47q-66 0 -117 -29.5t-80 -81t-29 -116.5q0 -79 46.5 -123t125.5 -44q44 0 86 12t86 37v-164q-36 -25 -89.5 -39.5t-114.5 -14.5z" />
    <glyph glyph-name="uni0422" unicode="&#x422;" horiz-adv-x="632" 
d="M167 0l103 532h-202l32 168h602l-32 -168h-204l-103 -532h-196z" />
    <glyph glyph-name="uni0423" unicode="&#x423;" horiz-adv-x="729" 
d="M216 -16q-43 0 -72.5 6t-52.5 15l34 154q16 -8 39.5 -13.5t46.5 -5.5q50 0 82 27l-197 533h197l119 -369l180 369h211l-296 -514q-45 -79 -88.5 -123t-92 -61.5t-110.5 -17.5z" />
    <glyph glyph-name="uni0424" unicode="&#x424;" horiz-adv-x="883" 
d="M298 0l15 73q-120 20 -186 85t-66 186q0 68 29 121.5t79.5 92t116 61.5t139.5 30l13 67h185l-14 -72q123 -21 187.5 -89.5t64.5 -176.5q0 -71 -29.5 -126t-80 -94t-116.5 -62t-139 -29l-13 -67h-185zM255 337q0 -47 24.5 -76.5t68.5 -42.5l55 285q-67 -13 -107.5 -53.5
t-40.5 -112.5zM667 380q0 47 -24.5 76.5t-68.5 42.5l-56 -285q68 13 108.5 53.5t40.5 112.5z" />
    <glyph glyph-name="uni0425" unicode="&#x425;" horiz-adv-x="721" 
d="M-41 0l312 361l-154 339h217l77 -199l153 199h221l-295 -348l170 -352h-221l-88 211l-167 -211h-225z" />
    <glyph glyph-name="uni0426" unicode="&#x426;" horiz-adv-x="785" 
d="M12 0l136 700h196l-103 -531h207l103 531h196l-104 -531h95l-66 -339h-180l33 170h-513z" />
    <glyph glyph-name="uni0427" unicode="&#x427;" horiz-adv-x="718" 
d="M315 220q-105 0 -165.5 50t-60.5 135q0 21 3 45.5t7 46.5l40 203h196l-39 -199q-2 -10 -4 -23.5t-2 -27.5q0 -33 25 -49t79 -16q25 0 47 4t45 11l58 300h196l-136 -700h-196l47 240q-74 -20 -140 -20z" />
    <glyph glyph-name="uni0428" unicode="&#x428;" horiz-adv-x="1009" 
d="M12 0l137 700h191l-103 -531h155l103 531h191l-103 -531h154l103 531h191l-136 -700h-883z" />
    <glyph glyph-name="uni0429" unicode="&#x429;" horiz-adv-x="1069" 
d="M12 0l137 700h191l-103 -531h155l103 531h191l-103 -531h154l103 531h191l-103 -531h94l-66 -339h-180l33 170h-797z" />
    <glyph glyph-name="uni042A" unicode="&#x42a;" horiz-adv-x="789" 
d="M154 0l103 531h-200l51 169h378l-41 -213h86q102 0 161.5 -54.5t59.5 -149.5q0 -133 -83.5 -208t-232.5 -75h-282zM380 151h72q52 0 80.5 31t28.5 80q0 35 -18.5 54.5t-56.5 19.5h-70z" />
    <glyph glyph-name="uni042B" unicode="&#x42b;" horiz-adv-x="934" 
d="M12 0l136 700h196l-41 -213h86q102 0 161.5 -55t59.5 -150q0 -132 -83.5 -207t-232.5 -75h-282zM624 0l136 700h196l-136 -700h-196zM238 151h72q52 0 80.5 31t28.5 80q0 35 -18.5 54.5t-56.5 19.5h-70z" />
    <glyph glyph-name="uni042C" unicode="&#x42c;" horiz-adv-x="647" 
d="M12 0l136 700h196l-41 -213h86q102 0 161.5 -55t59.5 -150q0 -132 -83.5 -207t-232.5 -75h-282zM238 151h72q52 0 80.5 31t28.5 80q0 35 -18.5 54.5t-56.5 19.5h-70z" />
    <glyph glyph-name="uni042D" unicode="&#x42d;" horiz-adv-x="677" 
d="M229 -16q-69 0 -126 13.5t-104 41.5l56 156q70 -42 180 -42q86 0 137.5 32t73.5 90h-302l30 156h287q-10 59 -50.5 87.5t-115.5 28.5q-91 0 -180 -42l-6 156q102 55 229 55q98 0 169 -39t110 -108t39 -160q0 -131 -52 -226.5t-147.5 -147t-227.5 -51.5z" />
    <glyph glyph-name="uni042E" unicode="&#x42e;" horiz-adv-x="1080" 
d="M12 0l136 700h196l-51 -260h55q26 83 81 145t132.5 96.5t171.5 34.5q99 0 172 -39t113.5 -110t40.5 -166q0 -90 -30 -166.5t-84.5 -132.5t-128.5 -87t-163 -31q-94 0 -164.5 35t-112.5 99t-48 151h-68l-52 -269h-196zM668 153q53 0 95 31.5t66.5 85t24.5 119.5
q0 74 -36 116t-99 42q-53 0 -96 -31t-68 -84.5t-25 -120.5q0 -74 36.5 -116t101.5 -42z" />
    <glyph glyph-name="uni042F" unicode="&#x42f;" horiz-adv-x="676" 
d="M-16 0l210 288q-38 24 -61 65t-23 95q0 83 42.5 139t115.5 84.5t164 28.5h266l-136 -700h-189l47 239h-50l-162 -239h-224zM385 390h64l31 159h-61q-49 0 -79 -24.5t-30 -68.5q0 -66 75 -66z" />
    <glyph glyph-name="uni0430" unicode="&#x430;" horiz-adv-x="570" 
d="M160 -13q-68 0 -108 40t-40 108q0 187 308 192h34q1 10 1 17q0 20 -21 33t-59 13t-81.5 -11.5t-85.5 -32.5v142q101 48 207 48q101 0 158.5 -47.5t57.5 -132.5q0 -19 -2 -41t-6 -40l-55 -275h-157l8 62q-28 -36 -69.5 -55.5t-89.5 -19.5zM192 164q0 -38 46 -38
q36 0 61.5 23.5t33.5 63.5l2 9h-17q-65 -1 -95.5 -15t-30.5 -43z" />
    <glyph glyph-name="uni0431" unicode="&#x431;" horiz-adv-x="631" 
d="M295 -13q-81 0 -136.5 34.5t-83.5 94t-28 133.5q0 37 6 81.5t17 89.5t24 80q33 88 96.5 147t167.5 75q23 4 63.5 8t89 8.5t93.5 6.5l4 -164q-78 -5 -140.5 -11.5t-88.5 -10.5q-58 -8 -89 -34.5t-47 -83.5q30 32 71.5 48.5t87.5 16.5q88 0 139.5 -58.5t51.5 -159.5
q0 -90 -39.5 -158t-107 -105.5t-151.5 -37.5zM300 139q49 0 76.5 39t27.5 92q0 45 -19.5 67.5t-52.5 22.5q-31 0 -55.5 -18t-38 -48t-13.5 -66q0 -43 20.5 -66t54.5 -23z" />
    <glyph glyph-name="uni0432" unicode="&#x432;" horiz-adv-x="575" 
d="M4 0l102 523h250q95 0 144.5 -31.5t49.5 -91.5q0 -47 -31 -81t-92 -49q95 -20 95 -107q0 -76 -66.5 -119.5t-188.5 -43.5h-263zM318 404h-57l-16 -81h54q65 0 65 48q0 33 -46 33zM205 120h73q29 0 47 13.5t18 35.5q0 41 -55 41h-65z" />
    <glyph glyph-name="uni0433" unicode="&#x433;" horiz-adv-x="451" 
d="M4 0l102 523h366l-5 -151h-204l-72 -372h-187z" />
    <glyph glyph-name="uni0434" unicode="&#x434;" horiz-adv-x="678" 
d="M-59 -142l57 293h60q23 25 48 73.5t41 102.5q6 20 19 68t32 128h426l-73 -372h87l-57 -293h-164l28 142h-312l-28 -142h-164zM292 275q-20 -69 -54 -124h136l44 221h-100q-5 -21 -11.5 -45t-14.5 -52z" />
    <glyph glyph-name="uni0435" unicode="&#x435;" horiz-adv-x="578" 
d="M297 -13q-122 0 -191 64.5t-69 177.5q0 90 38 159t105.5 108.5t154.5 39.5q101 0 158.5 -55.5t57.5 -153.5q0 -30 -4.5 -63t-12.5 -54h-315q7 -39 33 -57t76 -18q38 0 76 9.5t81 30.5v-145q-74 -43 -188 -43zM323 401q-30 0 -54.5 -22t-37.5 -58h151v14q0 66 -59 66z" />
    <glyph glyph-name="uni0436" unicode="&#x436;" horiz-adv-x="921" 
d="M-44 0l224 284l-101 239h196l59 -181h51l35 181h181l-35 -181h44l140 181h205l-207 -255l115 -268h-203l-73 191h-51l-37 -191h-181l37 191h-41l-143 -191h-215z" />
    <glyph glyph-name="uni0437" unicode="&#x437;" horiz-adv-x="491" 
d="M186 -13q-64 0 -113.5 15t-83.5 40l49 124q20 -17 55.5 -30t83.5 -13q33 0 57.5 11t24.5 39q0 15 -11.5 24.5t-38.5 9.5h-94l24 119h79q25 0 43.5 9.5t18.5 31.5q0 15 -12.5 24t-44.5 9q-35 0 -74 -11t-71 -30l-5 128q39 21 91 35t115 14q89 0 139 -37t50 -94
q0 -45 -26.5 -79.5t-71.5 -52.5q34 -15 51 -42t17 -62q0 -63 -34 -103.5t-91.5 -59.5t-126.5 -19z" />
    <glyph glyph-name="uni0438" unicode="&#x438;" horiz-adv-x="614" 
d="M4 0l102 523h181l-50 -254l204 254h169l-102 -523h-181l48 247l-202 -247h-169z" />
    <glyph glyph-name="uni0439" unicode="&#x439;" horiz-adv-x="614" 
d="M4 0l102 523h181l-50 -254l204 254h169l-102 -523h-181l48 247l-202 -247h-169zM375 582q-85 0 -130.5 36.5t-45.5 111.5v6l146 17v-18q0 -36 10.5 -52t33.5 -16q28 0 44 20.5t26 65.5l146 -17q-26 -79 -84 -116.5t-146 -37.5z" />
    <glyph glyph-name="uni043A" unicode="&#x43a;" horiz-adv-x="608" 
d="M4 0l102 523h187l-35 -181h36l142 181h205l-209 -255l118 -268h-204l-76 191h-42l-37 -191h-187z" />
    <glyph glyph-name="uni043B" unicode="&#x43b;" horiz-adv-x="625" 
d="M48 -4q-24 0 -42 3.5t-38 9.5l38 153q9 -2 16 -3.5t14 -1.5q29 0 48.5 24t36.5 90q9 35 26 104t33 148h441l-101 -523h-187l72 372h-100q-17 -72 -30 -121t-18 -67q-20 -71 -48 -112.5t-67 -58.5t-94 -17z" />
    <glyph glyph-name="uni043C" unicode="&#x43c;" horiz-adv-x="771" 
d="M4 0l102 523h207l70 -264l177 264h207l-102 -523h-172l58 296l-148 -218h-105l-64 220l-58 -298h-172z" />
    <glyph glyph-name="uni043D" unicode="&#x43d;" horiz-adv-x="608" 
d="M4 0l102 523h187l-34 -176h124l34 176h187l-102 -523h-187l38 196h-124l-38 -196h-187z" />
    <glyph glyph-name="uni043E" unicode="&#x43e;" horiz-adv-x="627" 
d="M285 -13q-75 0 -131 29t-87 82.5t-31 124.5q0 92 39.5 162.5t109 110.5t160.5 40q75 0 130 -29.5t85.5 -82.5t30.5 -124q0 -93 -38.5 -163.5t-107.5 -110t-160 -39.5zM300 146q44 0 73 41t29 102q0 41 -19 64.5t-53 23.5q-29 0 -53 -18.5t-38 -50t-14 -71.5
q0 -41 20.5 -66t54.5 -25z" />
    <glyph glyph-name="uni043F" unicode="&#x43f;" horiz-adv-x="600" 
d="M4 0l102 523h490l-102 -523h-187l72 372h-116l-72 -372h-187z" />
    <glyph glyph-name="uni0440" unicode="&#x440;" horiz-adv-x="636" 
d="M-38 -216l144 739h165l-8 -67q61 80 154 80q56 0 97.5 -28.5t64.5 -80t23 -119.5q0 -66 -20 -124.5t-55.5 -102.5t-82.5 -69t-101 -25q-50 0 -85.5 22t-52.5 61l-56 -286h-187zM304 147q30 0 54.5 18.5t39 49.5t14.5 68q0 43 -20 68t-54 25q-29 0 -53.5 -18.5t-39 -49.5
t-14.5 -69q0 -43 19.5 -67.5t53.5 -24.5z" />
    <glyph glyph-name="uni0441" unicode="&#x441;" horiz-adv-x="524" 
d="M297 -13q-77 0 -136 28.5t-92 82.5t-33 130q0 91 41.5 160.5t114 108.5t165.5 39q50 0 95 -11.5t77 -32.5l-57 -148q-49 33 -107 33q-64 0 -102 -36.5t-38 -99.5q0 -44 26.5 -69.5t74.5 -25.5q66 0 125 36l-2 -156q-66 -39 -152 -39z" />
    <glyph glyph-name="uni0442" unicode="&#x442;" horiz-adv-x="518" 
d="M115 0l72 372h-155l29 151h498l-30 -151h-155l-72 -372h-187z" />
    <glyph glyph-name="uni0443" unicode="&#x443;" horiz-adv-x="605" 
d="M70 -229q-77 0 -126 26l46 147q16 -8 37 -12.5t42 -4.5q69 0 99 58l8 15l-116 523h198l42 -334l150 334h199l-304 -552q-41 -75 -80.5 -119t-86 -62.5t-108.5 -18.5z" />
    <glyph glyph-name="uni0444" unicode="&#x444;" horiz-adv-x="817" 
d="M224 -216l41 214q-110 24 -168.5 91.5t-58.5 153.5q0 129 89 202t242 88l33 167h185l-35 -175q110 -24 168.5 -91.5t58.5 -153.5q0 -129 -89 -202t-241 -88l-40 -206h-185zM222 247q0 -37 20.5 -66.5t61.5 -45.5l50 259q-132 -26 -132 -147zM595 276q0 37 -20.5 66.5
t-59.5 44.5l-50 -258q130 27 130 147z" />
    <glyph glyph-name="uni0445" unicode="&#x445;" horiz-adv-x="605" 
d="M-34 0l239 269l-129 254h200l52 -133l102 133h209l-241 -270l134 -253h-205l-51 125l-98 -125h-212z" />
    <glyph glyph-name="uni0446" unicode="&#x446;" horiz-adv-x="652" 
d="M4 0l102 523h187l-73 -372h118l73 372h187l-73 -372h87l-57 -293h-164l28 142h-415z" />
    <glyph glyph-name="uni0447" unicode="&#x447;" horiz-adv-x="587" 
d="M294 0l34 172q-48 -11 -105 -11q-78 0 -127 34.5t-49 107.5q0 15 2 32t5 32l31 156h187l-30 -149q-3 -15 -3 -28q0 -45 57 -45q28 0 58 7l42 215h187l-102 -523h-187z" />
    <glyph glyph-name="uni0448" unicode="&#x448;" horiz-adv-x="862" 
d="M4 0l102 523h182l-72 -372h103l72 372h182l-72 -372h103l72 372h182l-102 -523h-752z" />
    <glyph glyph-name="uni0449" unicode="&#x449;" horiz-adv-x="912" 
d="M4 0l102 523h182l-72 -372h103l72 372h182l-72 -372h103l72 372h182l-73 -372h87l-57 -293h-164l28 142h-675z" />
    <glyph glyph-name="uni044A" unicode="&#x44a;" horiz-adv-x="640" 
d="M91 0l72 372h-137l46 151h308l-31 -160h59q97 0 147 -41.5t50 -110.5q0 -97 -69.5 -154t-196.5 -57h-248zM301 118h44q34 0 54 21t20 57q0 23 -12.5 36t-34.5 13h-46z" />
    <glyph glyph-name="uni044B" unicode="&#x44b;" horiz-adv-x="830" 
d="M518 211q0 -97 -69.5 -154t-196.5 -57h-248l102 523h187l-31 -160h59q97 0 147 -41.5t50 -110.5zM537 0l102 523h187l-102 -523h-187zM214 118h44q34 0 54 21t20 57q0 23 -12.5 36t-34.5 13h-46z" />
    <glyph glyph-name="uni044C" unicode="&#x44c;" horiz-adv-x="553" 
d="M4 0l102 523h187l-31 -160h59q97 0 147 -41.5t50 -110.5q0 -97 -69.5 -154t-196.5 -57h-248zM214 118h44q34 0 54 21t20 57q0 23 -12.5 36t-34.5 13h-46z" />
    <glyph glyph-name="uni044D" unicode="&#x44d;" horiz-adv-x="545" 
d="M185 -13q-71 0 -117 14.5t-79 33.5l58 147q28 -21 60 -32.5t80 -11.5q102 0 131 66h-213l23 120h199q-9 33 -35 47t-71 14q-38 0 -72 -9t-76 -31l1 147q36 18 80.5 31t105.5 13q72 0 128.5 -29t88.5 -81.5t32 -124.5q0 -99 -39.5 -169.5t-112 -107.5t-172.5 -37z" />
    <glyph glyph-name="uni044E" unicode="&#x44e;" horiz-adv-x="866" 
d="M4 0l102 523h187l-34 -176h38q32 87 108 138t179 51q75 0 130 -29.5t85.5 -82.5t30.5 -124q0 -93 -38.5 -163.5t-107.5 -110t-160 -39.5q-105 0 -172 56.5t-76 151.5h-47l-38 -195h-187zM539 146q44 0 73 41t29 102q0 41 -19 64.5t-53 23.5q-29 0 -53 -18.5t-38 -50
t-14 -71.5q0 -41 20.5 -66t54.5 -25z" />
    <glyph glyph-name="uni044F" unicode="&#x44f;" horiz-adv-x="544" 
d="M-45 0l145 203q-28 21 -45 50.5t-17 67.5q0 69 35.5 114t97 66.5t139.5 21.5h230l-102 -523h-181l30 155h-37l-95 -155h-200zM275 274h35l26 131h-35q-35 0 -58 -20t-23 -57q0 -25 16 -39.5t39 -14.5z" />
    <glyph glyph-name="uni0450" unicode="&#x450;" horiz-adv-x="578" 
d="M297 -13q-122 0 -191 64.5t-69 177.5q0 90 38 159t105.5 108.5t154.5 39.5q101 0 158.5 -55.5t57.5 -153.5q0 -30 -4.5 -63t-12.5 -54h-315q7 -39 33 -57t76 -18q38 0 76 9.5t81 30.5v-145q-74 -43 -188 -43zM323 401q-30 0 -54.5 -22t-37.5 -58h151v14q0 66 -59 66z
M297 599l-127 158h192l91 -158h-156z" />
    <glyph glyph-name="uni0451" unicode="&#x451;" horiz-adv-x="578" 
d="M297 -13q-122 0 -191 64.5t-69 177.5q0 90 38 159t105.5 108.5t154.5 39.5q101 0 158.5 -55.5t57.5 -153.5q0 -30 -4.5 -63t-12.5 -54h-315q7 -39 33 -57t76 -18q38 0 76 9.5t81 30.5v-145q-74 -43 -188 -43zM323 401q-30 0 -54.5 -22t-37.5 -58h151v14q0 66 -59 66z
M250 596q-34 0 -54 20.5t-20 54.5q0 40 25.5 65.5t65.5 25.5q34 0 55 -20.5t21 -52.5q0 -40 -26 -66.5t-67 -26.5zM477 596q-34 0 -54 20.5t-20 54.5q0 40 26 65.5t65 25.5q34 0 55 -20.5t21 -52.5q0 -40 -26 -66.5t-67 -26.5z" />
    <glyph glyph-name="uni0452" unicode="&#x452;" horiz-adv-x="604" 
d="M311 -137q-25 0 -50 5t-40 12l35 137q8 -5 28 -5q32 0 48 35t29 96q11 52 15.5 91t4.5 59q0 27 -10 47t-36 20q-28 0 -49 -23.5t-29 -61.5l-54 -275h-187l113 581h-57l20 101h57l11 58h187l-11 -58h150l-20 -101h-150l-22 -118q54 61 132 61q51 0 81.5 -26.5t44 -71
t13.5 -98.5q0 -35 -5 -87t-16 -105q-28 -142 -86 -207.5t-147 -65.5z" />
    <glyph glyph-name="uni0453" unicode="&#x453;" horiz-adv-x="451" 
d="M4 0l102 523h366l-5 -151h-204l-72 -372h-187zM203 599l153 158h196l-188 -158h-161z" />
    <glyph glyph-name="uni0454" unicode="&#x454;" horiz-adv-x="541" 
d="M283 -13q-75 0 -130.5 30t-86 85t-30.5 129q0 89 41 157.5t113 108t165 39.5q64 0 111 -11t84 -34l-56 -147q-61 41 -134 41q-90 0 -129 -62h206l-23 -120h-198q21 -65 109 -65q36 0 73.5 11.5t70.5 30.5l-2 -150q-40 -23 -87 -33t-97 -10z" />
    <glyph glyph-name="uni0455" unicode="&#x455;" horiz-adv-x="494" 
d="M186 -13q-114 0 -203 51l52 140q35 -22 74.5 -34.5t76.5 -12.5q35 0 54 8.5t19 24.5q0 8 -5.5 13.5t-22.5 11.5t-53 15q-71 19 -103.5 53.5t-32.5 90.5q0 57 31.5 99t88 65.5t131.5 23.5q53 0 105 -12.5t90 -34.5l-55 -137q-29 18 -67.5 29t-70.5 11q-70 0 -70 -29
q0 -7 5.5 -12.5t23.5 -11.5t55 -15q70 -16 102.5 -51t32.5 -91q0 -58 -32.5 -101.5t-90.5 -68.5t-135 -25z" />
    <glyph glyph-name="uni0456" unicode="&#x456;" horiz-adv-x="296" 
d="M217 568q-45 0 -72 25t-27 68q0 49 33.5 80.5t85.5 31.5q45 0 73 -25t28 -65q0 -49 -34.5 -82t-86.5 -33zM4 0l101 523h187l-101 -523h-187z" />
    <glyph glyph-name="uni0457" unicode="&#x457;" horiz-adv-x="296" 
d="M4 0l101 523h187l-101 -523h-187zM106 596q-34 0 -54 20.5t-20 54.5q0 40 25.5 65.5t65.5 25.5q34 0 55 -20.5t21 -52.5q0 -40 -26 -66.5t-67 -26.5zM333 596q-34 0 -54 20.5t-20 54.5q0 40 26 65.5t65 25.5q34 0 55 -20.5t21 -52.5q0 -40 -26 -66.5t-67 -26.5z" />
    <glyph glyph-name="uni0458" unicode="&#x458;" horiz-adv-x="296" 
d="M217 568q-45 0 -72 25t-27 68q0 49 33.5 80.5t85.5 31.5q45 0 73 -25t28 -65q0 -49 -34.5 -82t-86.5 -33zM-56 -229q-74 0 -129 26l55 145q21 -8 33.5 -11t23.5 -3q34 0 52.5 21t27.5 68l98 506h187l-102 -526q-22 -115 -82 -170.5t-164 -55.5z" />
    <glyph glyph-name="uni0459" unicode="&#x459;" horiz-adv-x="869" 
d="M48 -4q-24 0 -42 3.5t-38 9.5l38 153q9 -2 16 -3.5t14 -1.5q29 0 48.5 24t36.5 90q9 35 26 104t33 148h428l-31 -160h60q97 0 147 -41.5t50 -110.5q0 -97 -69.5 -154t-196.5 -57h-248l72 372h-87q-17 -72 -30 -121t-18 -67q-20 -71 -48 -112.5t-67 -58.5t-94 -17z
M601 245h-46l-24 -127h43q34 0 54 21t20 57q0 23 -12.5 36t-34.5 13z" />
    <glyph glyph-name="uni045A" unicode="&#x45a;" horiz-adv-x="861" 
d="M4 0l102 523h187l-34 -176h121l34 176h187l-31 -160h59q97 0 147 -41.5t50 -110.5q0 -97 -69.5 -154t-196.5 -57h-60l-1 1v-1h-187l38 196h-121l-38 -196h-187zM593 245h-46l-25 -127h44q34 0 54 21t20 57q0 23 -12.5 36t-34.5 13z" />
    <glyph glyph-name="uni045B" unicode="&#x45b;" horiz-adv-x="616" 
d="M18 0l113 579h-59l20 104h59l11 57h187l-11 -57h148l-20 -104h-148l-25 -130q52 74 139 74q69 0 108.5 -42.5t39.5 -117.5q0 -14 -2 -31.5t-6 -38.5l-57 -293h-187l55 284q2 11 3 19.5t1 12.5q0 43 -47 43q-31 0 -51.5 -21.5t-28.5 -59.5l-55 -278h-187z" />
    <glyph glyph-name="uni045C" unicode="&#x45c;" horiz-adv-x="608" 
d="M4 0l102 523h187l-35 -181h36l142 181h205l-209 -255l118 -268h-204l-76 191h-42l-37 -191h-187zM274 599l153 158h196l-188 -158h-161z" />
    <glyph glyph-name="uni045D" unicode="&#x45d;" horiz-adv-x="614" 
d="M4 0l102 523h181l-50 -254l204 254h169l-102 -523h-181l48 247l-202 -247h-169zM318 599l-127 158h192l91 -158h-156z" />
    <glyph glyph-name="uni045E" unicode="&#x45e;" horiz-adv-x="605" 
d="M70 -229q-77 0 -126 26l46 147q16 -8 37 -12.5t42 -4.5q69 0 99 58l8 15l-116 523h198l42 -334l150 334h199l-304 -552q-41 -75 -80.5 -119t-86 -62.5t-108.5 -18.5zM365 582q-85 0 -130.5 36.5t-45.5 111.5v6l146 17v-18q0 -36 10.5 -52t33.5 -16q28 0 44 20.5t26 65.5
l146 -17q-26 -79 -84 -116.5t-146 -37.5z" />
    <glyph glyph-name="uni045F" unicode="&#x45f;" horiz-adv-x="600" 
d="M4 0l101 523h188l-72 -372h112l75 372h188l-102 -523h-159l-28 -142h-163l28 142h-168z" />
    <glyph glyph-name="uni0462" unicode="&#x462;" horiz-adv-x="643" 
d="M8 0l105 538h-78l22 111h77l10 51h196l-10 -51h147l-22 -111h-146l-10 -51h86q102 0 161.5 -55t59.5 -150q0 -132 -83.5 -207t-232.5 -75h-282zM234 151h72q52 0 80.5 31t28.5 80q0 35 -18.5 54.5t-56.5 19.5h-70z" />
    <glyph glyph-name="uni0463" unicode="&#x463;" horiz-adv-x="547" 
d="M-2 0l82 419h-67l19 101h68l43 220h186l-43 -220h133l-19 -101h-133l-11 -56h59q97 0 147 -41.5t50 -110.5q0 -97 -69.5 -154t-196.5 -57h-248zM208 118h44q34 0 54 21t20 57q0 23 -12.5 36t-34.5 13h-46z" />
    <glyph glyph-name="uni0472" unicode="&#x472;" horiz-adv-x="819" 
d="M386 -16q-100 0 -174.5 39t-115.5 110t-41 166q0 91 30.5 167.5t85.5 132.5t130 86.5t165 30.5q101 0 175.5 -39t115.5 -110t41 -166q0 -90 -30.5 -166.5t-86 -132.5t-130.5 -87t-165 -31zM445 405q29 -10 46 -13t37 -3q26 0 65 16q-5 67 -42 104.5t-99 37.5
q-63 0 -111.5 -41t-69.5 -107q46 23 86 23q17 0 38.5 -4t49.5 -13zM401 153q61 0 109 40t69 105q-42 -22 -78 -22q-19 0 -42 4t-53 13q-25 8 -45 12t-32 4q-15 0 -30.5 -3.5t-39.5 -13.5q5 -66 42 -102.5t100 -36.5z" />
    <glyph glyph-name="uni0473" unicode="&#x473;" horiz-adv-x="627" 
d="M285 -13q-75 0 -131 29t-87 82.5t-31 124.5q0 92 39.5 162.5t109 110.5t160.5 40q75 0 130 -29.5t85.5 -82.5t30.5 -124q0 -93 -38.5 -163.5t-107.5 -110t-160 -39.5zM323 307q11 -5 22.5 -9t27.5 -4q22 0 38 6q-3 40 -24 62t-56 22t-62.5 -22.5t-41.5 -59.5q30 16 54 16
q11 0 21.5 -3t20.5 -8zM299 139q33 0 59 21t39 56q-25 -15 -49 -15q-13 0 -23.5 4t-20.5 8q-10 5 -21 8.5t-26 3.5q-20 0 -40 -6q5 -38 27 -59t55 -21z" />
    <glyph glyph-name="uni0474" unicode="&#x474;" horiz-adv-x="747" 
d="M213 0l-119 700h206l51 -479l136 272q43 86 82 132.5t80 64t88 17.5q22 0 46 -3.5t43 -10.5l-52 -150q-5 2 -10.5 3t-10.5 1q-24 0 -45.5 -22.5t-52.5 -78.5l-246 -446h-196z" />
    <glyph glyph-name="uni0475" unicode="&#x475;" horiz-adv-x="610" 
d="M153 0l-95 523h193l29 -334l97 198q39 80 85 111t119 31q12 0 32 -1.5t42 -6.5l-44 -132q-6 1 -18 1q-17 0 -32.5 -15t-35.5 -51l-185 -324h-187z" />
    <glyph glyph-name="uni0490" unicode="&#x490;" horiz-adv-x="551" 
d="M12 0l137 700h293l27 140h179l-60 -309h-179v1h-97l-104 -532h-196z" />
    <glyph glyph-name="uni0491" unicode="&#x491;" horiz-adv-x="451" 
d="M4 0l102 523h234l21 111h157l-51 -262h-204l-72 -372h-187z" />
    <glyph glyph-name="uni0492" unicode="&#x492;" horiz-adv-x="587" 
d="M48 0l51 262h-97l30 152h97l56 286h445l-6 -168h-276l-23 -118h177l-30 -152h-177l-51 -262h-196z" />
    <glyph glyph-name="uni0493" unicode="&#x493;" horiz-adv-x="459" 
d="M12 0l29 148h-57l26 131h56l48 244h366l-5 -151h-204l-18 -93h131l-26 -131h-130l-29 -148h-187z" />
    <glyph glyph-name="uni0496" unicode="&#x496;" horiz-adv-x="1125" 
d="M-40 0l297 375l-123 325h208l80 -260h66l51 260h196l-51 -260h64l192 260h223l-273 -348l79 -183h126l-66 -339h-180l33 170h-58l-102 271h-70l-53 -271h-196l53 271h-62l-198 -271h-236z" />
    <glyph glyph-name="uni0497" unicode="&#x497;" horiz-adv-x="943" 
d="M-44 0l224 284l-101 239h196l59 -181h51l35 181h181l-35 -181h44l140 181h205l-207 -255l50 -117h104l-57 -293h-164l28 142h-49l-73 191h-51l-37 -191h-181l37 191h-41l-143 -191h-215z" />
    <glyph glyph-name="uni049A" unicode="&#x49a;" horiz-adv-x="734" 
d="M12 0l137 700h195l-51 -260h54l192 260h223l-272 -345l83 -186h131l-66 -339h-180l33 170h-61l-108 271h-61l-53 -271h-196z" />
    <glyph glyph-name="uni049B" unicode="&#x49b;" horiz-adv-x="633" 
d="M4 0l102 523h187l-35 -181h36l142 181h205l-209 -255l51 -117h109l-57 -293h-164l28 142h-53l-76 191h-42l-37 -191h-187z" />
    <glyph glyph-name="uni04A2" unicode="&#x4a2;" horiz-adv-x="806" 
d="M12 0l136 700h196l-51 -260h228l51 260h196l-103 -531h94l-66 -339h-180l33 170h-110l52 269h-228l-52 -269h-196z" />
    <glyph glyph-name="uni04A3" unicode="&#x4a3;" horiz-adv-x="658" 
d="M4 0l102 523h187l-34 -176h124l34 176h187l-73 -372h87l-57 -293h-164l28 142h-110l38 196h-124l-38 -196h-187z" />
    <glyph glyph-name="uni04AE" unicode="&#x4ae;" horiz-adv-x="712" 
d="M207 0l53 271l-164 429h210l78 -266l175 266h227l-330 -429l-53 -271h-196z" />
    <glyph glyph-name="uni04AF" unicode="&#x4af;" horiz-adv-x="593" 
d="M108 -216l51 260l-101 479h201l29 -295l154 295h195l-293 -484l-49 -255h-187z" />
    <glyph glyph-name="uni04B0" unicode="&#x4b0;" horiz-adv-x="712" 
d="M85 118l30 152h145v1l-164 429h210l78 -266l175 266h227l-330 -429v-1h157l-30 -152h-157l-23 -118h-196l23 118h-145z" />
    <glyph glyph-name="uni04B1" unicode="&#x4b1;" horiz-adv-x="593" 
d="M5 0l26 131h109l-82 392h201l29 -295l154 295h195l-237 -392h111l-26 -131h-148l-42 -216h-187l42 216h-145z" />
    <glyph glyph-name="uni04BA" unicode="&#x4ba;" horiz-adv-x="715" 
d="M12 0l136 700h196l-49 -253q39 10 75 14.5t70 4.5q97 0 155 -50t58 -135q0 -21 -2.5 -45t-7.5 -47l-37 -189h-196l36 185q5 30 5 49q0 32 -23 49.5t-73 17.5q-46 0 -91 -14l-56 -287h-196z" />
    <glyph glyph-name="uni04BB" unicode="&#x4bb;" horiz-adv-x="603" 
d="M4 0l144 740h187l-51 -264q52 60 137 60q71 0 109 -42.5t38 -116.5q0 -20 -2.5 -42.5t-5.5 -39.5l-58 -295h-187l57 291q3 17 4 25t1 14q0 19 -12 30.5t-35 11.5q-31 0 -53 -21.5t-30 -61.5l-56 -289h-187z" />
    <glyph glyph-name="uni04D8" unicode="&#x4d8;" horiz-adv-x="733" 
d="M318 -16q-94 0 -154 38t-88 101.5t-28 139.5q0 23 3.5 51t9 55t12.5 46h446q-4 70 -41 105.5t-101 35.5q-53 0 -102 -15.5t-100 -45.5l-18 155q52 32 119 49t136 17q92 0 159 -38.5t103.5 -110t36.5 -170.5q0 -82 -26 -156t-76 -132t-123 -91.5t-168 -33.5zM232 259
q0 -51 25 -83t76 -32q65 0 105.5 35t60.5 90h-267v-10z" />
    <glyph glyph-name="uni04D9" unicode="&#x4d9;" horiz-adv-x="578" 
d="M243 -13q-101 0 -158.5 56t-57.5 153q0 30 5 63t12 54h315q-7 39 -33 57t-76 18q-38 0 -76 -9.5t-81 -30.5v145q33 20 85 31.5t103 11.5q77 0 135.5 -29t91.5 -83t33 -130q0 -89 -38.5 -158.5t-105.5 -109t-154 -39.5zM196 188q0 -66 59 -66q30 0 54.5 22t37.5 58h-151
v-14z" />
    <glyph glyph-name="uni04E8" unicode="&#x4e8;" horiz-adv-x="819" 
d="M386 -16q-100 0 -174.5 39t-115.5 110t-41 166q0 91 30.5 167.5t85.5 132.5t130 86.5t165 30.5q101 0 175.5 -39t115.5 -110t41 -166q0 -90 -30.5 -166.5t-86 -132.5t-130.5 -87t-165 -31zM452 547q-58 0 -104 -35t-70 -93h313q-7 61 -43.5 94.5t-95.5 33.5zM401 153
q60 0 106.5 38t68.5 100h-317q5 -65 42 -101.5t100 -36.5z" />
    <glyph glyph-name="uni04E9" unicode="&#x4e9;" horiz-adv-x="627" 
d="M285 -13q-75 0 -131 29t-87 82.5t-31 124.5q0 92 39.5 162.5t109 110.5t160.5 40q75 0 130 -29.5t85.5 -82.5t30.5 -124q0 -93 -38.5 -163.5t-107.5 -110t-160 -39.5zM331 384q-33 0 -59.5 -20.5t-41.5 -54.5h180q-10 75 -79 75zM299 139q33 0 59.5 21.5t39.5 57.5h-181
q5 -36 26.5 -57.5t55.5 -21.5z" />
    <glyph glyph-name="uni0E3F" unicode="&#xe3f;" horiz-adv-x="630" 
d="M2 0l133 684h211l21 110h86l-22 -111q88 -6 135 -45.5t47 -109.5q0 -61 -36.5 -106.5t-99.5 -65.5q51 -11 80.5 -47t29.5 -90q0 -66 -36 -115t-101 -76.5t-152 -27.5l-21 -110h-86l21 110h-210zM280 552l-28 -143h40l28 143h-40zM432 493q0 39 -27 52l-26 -129
q53 19 53 77zM197 133h41l32 161h-41zM411 226q0 56 -56 66l-30 -157q39 5 62.5 29.5t23.5 61.5z" />
    <glyph glyph-name="uni1E24" unicode="&#x1e24;" horiz-adv-x="746" 
d="M12 0l136 700h196l-51 -260h228l51 260h196l-136 -700h-196l52 269h-228l-52 -269h-196zM282 -241q-36 0 -57 21.5t-21 58.5q0 42 27 69t68 27q36 0 58 -21.5t22 -57.5q0 -42 -28 -69.5t-69 -27.5z" />
    <glyph glyph-name="uni1E25" unicode="&#x1e25;" horiz-adv-x="603" 
d="M4 0l144 740h187l-51 -264q52 60 137 60q71 0 109 -42.5t38 -116.5q0 -20 -2.5 -42.5t-5.5 -39.5l-58 -295h-187l57 291q3 17 4 25t1 14q0 19 -12 30.5t-35 11.5q-31 0 -53 -21.5t-30 -61.5l-56 -289h-187zM221 -239q-35 0 -56 21.5t-21 57.5q0 41 27 68t67 27
q35 0 57 -21.5t22 -55.5q0 -42 -27.5 -69.5t-68.5 -27.5z" />
    <glyph glyph-name="uni1E36" unicode="&#x1e36;" horiz-adv-x="569" 
d="M12 0l137 700h196l-104 -531h305l-52 -169h-482zM245 -241q-36 0 -57 21.5t-21 58.5q0 42 27 69t68 27q36 0 58 -21.5t22 -57.5q0 -42 -28 -69.5t-69 -27.5z" />
    <glyph glyph-name="uni1E37" unicode="&#x1e37;" horiz-adv-x="296" 
d="M4 0l144 740h187l-144 -740h-187zM60 -239q-35 0 -56 21.5t-21 57.5q0 41 27 68t67 27q35 0 57 -21.5t22 -55.5q0 -42 -27.5 -69.5t-68.5 -27.5z" />
    <glyph glyph-name="Wgrave" unicode="&#x1e80;" horiz-adv-x="1002" 
d="M145 0l-47 700h204l1 -459l190 459h190l14 -458l178 458h198l-317 -700h-194l-13 484l-207 -484h-197zM532 772l-144 132h212l117 -132h-185z" />
    <glyph glyph-name="wgrave" unicode="&#x1e81;" horiz-adv-x="852" 
d="M112 0l-51 523h194l-9 -342l138 342h184l8 -342l127 342h190l-251 -523h-189l-10 334l-136 -334h-195zM438 599l-127 158h192l91 -158h-156z" />
    <glyph glyph-name="Wacute" unicode="&#x1e82;" horiz-adv-x="1002" 
d="M145 0l-47 700h204l1 -459l190 459h190l14 -458l178 458h198l-317 -700h-194l-13 484l-207 -484h-197zM487 772l169 132h214l-196 -132h-187z" />
    <glyph glyph-name="wacute" unicode="&#x1e83;" horiz-adv-x="852" 
d="M112 0l-51 523h194l-9 -342l138 342h184l8 -342l127 342h190l-251 -523h-189l-10 334l-136 -334h-195zM393 599l153 158h196l-188 -158h-161z" />
    <glyph glyph-name="Wdieresis" unicode="&#x1e84;" horiz-adv-x="1002" 
d="M145 0l-47 700h204l1 -459l190 459h190l14 -458l178 458h198l-317 -700h-194l-13 484l-207 -484h-197zM479 763q-34 0 -55 21t-21 56q0 41 26.5 67t66.5 26q35 0 56.5 -21t21.5 -54q0 -40 -27 -67.5t-68 -27.5zM719 763q-34 0 -55 21t-21 56q0 41 27 67t67 26
q35 0 56 -21t21 -54q0 -40 -27 -67.5t-68 -27.5z" />
    <glyph glyph-name="wdieresis" unicode="&#x1e85;" horiz-adv-x="852" 
d="M112 0l-51 523h194l-9 -342l138 342h184l8 -342l127 342h190l-251 -523h-189l-10 334l-136 -334h-195zM391 596q-34 0 -54 20.5t-20 54.5q0 40 25.5 65.5t65.5 25.5q34 0 55 -20.5t21 -52.5q0 -40 -26 -66.5t-67 -26.5zM618 596q-34 0 -54 20.5t-20 54.5q0 40 26 65.5
t65 25.5q34 0 55 -20.5t21 -52.5q0 -40 -26 -66.5t-67 -26.5z" />
    <glyph glyph-name="uni1E9E" unicode="&#x1e9e;" horiz-adv-x="749" 
d="M412 -16q-46 0 -90 9.5t-74 25.5l56 153q47 -26 106 -26q45 0 70.5 19t25.5 52q0 34 -29.5 50t-97.5 20l-18 1l25 128l147 131q-29 4 -55 4q-82 0 -131.5 -38t-63.5 -110l-78 -403h-196l81 420q27 140 127.5 218t252.5 78q71 0 144 -16.5t124 -45.5l-28 -143l-133 -118
q126 -36 126 -167q0 -71 -37 -125.5t-102.5 -85.5t-151.5 -31z" />
    <glyph glyph-name="Ygrave" unicode="&#x1ef2;" horiz-adv-x="712" 
d="M207 0l53 271l-164 429h210l78 -266l175 266h227l-330 -429l-53 -271h-196zM377 772l-144 132h212l117 -132h-185z" />
    <glyph glyph-name="ygrave" unicode="&#x1ef3;" horiz-adv-x="605" 
d="M70 -229q-77 0 -126 26l46 147q16 -8 37 -12.5t42 -4.5q69 0 99 58l8 15l-116 523h198l42 -334l150 334h199l-304 -552q-41 -75 -80.5 -119t-86 -62.5t-108.5 -18.5zM308 599l-127 158h192l91 -158h-156z" />
    <glyph glyph-name="uni2000" unicode="&#x2000;" horiz-adv-x="500" 
 />
    <glyph glyph-name="uni2001" unicode="&#x2001;" horiz-adv-x="1000" 
 />
    <glyph glyph-name="uni2002" unicode="&#x2002;" horiz-adv-x="500" 
 />
    <glyph glyph-name="uni2003" unicode="&#x2003;" horiz-adv-x="1000" 
 />
    <glyph glyph-name="uni2004" unicode="&#x2004;" horiz-adv-x="333" 
 />
    <glyph glyph-name="uni2005" unicode="&#x2005;" horiz-adv-x="250" 
 />
    <glyph glyph-name="uni2006" unicode="&#x2006;" horiz-adv-x="167" 
 />
    <glyph glyph-name="uni2007" unicode="&#x2007;" horiz-adv-x="630" 
 />
    <glyph glyph-name="uni2008" unicode="&#x2008;" horiz-adv-x="298" 
 />
    <glyph glyph-name="uni2009" unicode="&#x2009;" horiz-adv-x="200" 
 />
    <glyph glyph-name="uni200A" unicode="&#x200a;" horiz-adv-x="150" 
 />
    <glyph glyph-name="uni200B" unicode="&#x200b;" 
 />
    <glyph glyph-name="endash" unicode="&#x2013;" horiz-adv-x="500" 
d="M-8 219l30 155h500l-30 -155h-500z" />
    <glyph glyph-name="emdash" unicode="&#x2014;" horiz-adv-x="1000" 
d="M-8 219l30 155h1000l-30 -155h-1000z" />
    <glyph glyph-name="quoteleft" unicode="&#x2018;" horiz-adv-x="298" 
d="M179 354q-45 0 -70.5 28.5t-25.5 79.5q0 52 28.5 102.5t79 92.5t115.5 66l38 -67q-43 -15 -78 -41t-57 -59q41 -1 65.5 -24t24.5 -60q0 -32 -16.5 -59t-43.5 -43t-60 -16z" />
    <glyph glyph-name="quoteright" unicode="&#x2019;" horiz-adv-x="298" 
d="M98 345l-38 67q43 15 78 41t57 59q-41 1 -65.5 24t-24.5 60q0 32 16.5 59t44 43t59.5 16q45 0 70.5 -28.5t25.5 -79.5t-28.5 -102t-79 -92.5t-115.5 -66.5z" />
    <glyph glyph-name="quotesinglbase" unicode="&#x201a;" horiz-adv-x="298" 
d="M-2 -170l-38 67q43 15 78 41t57 59q-41 1 -65.5 24t-24.5 60q0 32 16.5 59t44 43t59.5 16q45 0 70.5 -28.5t25.5 -79.5t-28.5 -102t-79 -92.5t-115.5 -66.5z" />
    <glyph glyph-name="quotedblleft" unicode="&#x201c;" horiz-adv-x="571" 
d="M179 354q-45 0 -70.5 28.5t-25.5 79.5q0 52 28.5 102.5t79 92.5t115.5 66l38 -67q-43 -15 -78 -41t-57 -59q41 -1 65.5 -24t24.5 -60q0 -32 -16.5 -59t-43.5 -43t-60 -16zM452 354q-45 0 -70.5 28.5t-25.5 79.5q0 52 28.5 102.5t79 92.5t115.5 66l38 -67q-43 -15 -78 -41
t-57 -59q41 -1 65.5 -24t24.5 -60q0 -32 -16.5 -59t-43.5 -43t-60 -16z" />
    <glyph glyph-name="quotedblright" unicode="&#x201d;" horiz-adv-x="571" 
d="M98 345l-38 67q43 15 78 41t57 59q-41 1 -65.5 24t-24.5 60q0 32 16.5 59t44 43t59.5 16q45 0 70.5 -28.5t25.5 -79.5t-28.5 -102t-79 -92.5t-115.5 -66.5zM371 345l-38 67q43 15 78 41t57 59q-41 1 -65.5 24t-24.5 60q0 32 16.5 59t44 43t59.5 16q45 0 70.5 -28.5
t25.5 -79.5t-28.5 -102t-79 -92.5t-115.5 -66.5z" />
    <glyph glyph-name="quotedblbase" unicode="&#x201e;" horiz-adv-x="571" 
d="M-2 -170l-38 67q43 15 78 41t57 59q-41 1 -65.5 24t-24.5 60q0 32 16.5 59t44 43t59.5 16q45 0 70.5 -28.5t25.5 -79.5t-28.5 -102t-79 -92.5t-115.5 -66.5zM271 -170l-38 67q43 15 78 41t57 59q-41 1 -65.5 24t-24.5 60q0 32 16.5 59t44 43t59.5 16q45 0 70.5 -28.5
t25.5 -79.5t-28.5 -102t-79 -92.5t-115.5 -66.5z" />
    <glyph glyph-name="dagger" unicode="&#x2020;" horiz-adv-x="495" 
d="M84 -98l109 494l-149 -6l30 160l148 -5l25 195h186l-50 -195l149 5l-30 -160l-148 6l-83 -494h-187z" />
    <glyph glyph-name="daggerdbl" unicode="&#x2021;" horiz-adv-x="514" 
d="M94 -98l47 175l-150 -5l32 160l146 -5l6 94l32 94l-150 -5l31 160l147 -5l22 175h186l-47 -175l150 5l-32 -160l-147 5l-5 -94l-31 -94l149 5l-32 -160l-147 5l-20 -175h-187z" />
    <glyph glyph-name="bullet" unicode="&#x2022;" horiz-adv-x="353" 
d="M180 133q-61 0 -101.5 40t-40.5 101q0 62 40.5 101.5t101.5 39.5q60 0 99.5 -39.5t39.5 -101.5q0 -61 -39.5 -101t-99.5 -40z" />
    <glyph glyph-name="ellipsis" unicode="&#x2026;" horiz-adv-x="1000" 
d="M122 -11q-45 0 -72 25t-27 68q0 50 35.5 83.5t87.5 33.5q45 0 71.5 -25.5t26.5 -69.5q0 -50 -34.5 -82.5t-87.5 -32.5zM455 -11q-45 0 -72 25t-27 68q0 50 35.5 83.5t87.5 33.5q45 0 71.5 -25.5t26.5 -69.5q0 -50 -34.5 -82.5t-87.5 -32.5zM788 -11q-45 0 -72 25t-27 68
q0 50 35.5 83.5t87.5 33.5q45 0 71.5 -25.5t26.5 -69.5q0 -50 -34.5 -82.5t-87.5 -32.5z" />
    <glyph glyph-name="perthousand" unicode="&#x2030;" horiz-adv-x="1342" 
d="M190 0l457 684h138l-457 -684h-138zM702 -8q-68 0 -107.5 43t-39.5 117q0 71 24.5 125.5t68.5 85.5t100 31q69 0 107.5 -42t38.5 -117q0 -72 -24 -127t-67 -85.5t-101 -30.5zM713 94q23 0 40 40.5t17 96.5q0 61 -31 61q-15 0 -29 -19t-22.5 -49t-8.5 -65q0 -65 34 -65z
M1105 -8q-68 0 -107.5 43t-39.5 117q0 71 24.5 125.5t68.5 85.5t100 31q69 0 107.5 -42t38.5 -117q0 -72 -24 -127t-67 -85.5t-101 -30.5zM1116 94q23 0 40 40.5t17 96.5q0 61 -31 61q-15 0 -29 -19t-22.5 -49t-8.5 -65q0 -65 34 -65zM224 290q-68 0 -107.5 43t-39.5 117
q0 71 24.5 125.5t68.5 85.5t100 31q69 0 107.5 -42t38.5 -117q0 -72 -24 -127t-67 -85.5t-101 -30.5zM235 392q23 0 40 40.5t17 96.5q0 61 -31 61q-15 0 -29 -19t-22.5 -49t-8.5 -65q0 -65 34 -65z" />
    <glyph glyph-name="guilsinglleft" unicode="&#x2039;" horiz-adv-x="390" 
d="M126 52l-93 210l172 210h189l-169 -218l81 -202h-180z" />
    <glyph glyph-name="guilsinglright" unicode="&#x203a;" horiz-adv-x="390" 
d="M264 472l93 -210l-172 -210h-189l169 218l-81 202h180z" />
    <glyph glyph-name="fraction" unicode="&#x2044;" horiz-adv-x="131" 
d="M-206 0l457 684h138l-457 -684h-138z" />
    <glyph glyph-name="uni2070" unicode="&#x2070;" horiz-adv-x="402" 
d="M240 380q-68 0 -107.5 43t-39.5 117q0 71 24.5 125.5t68.5 85.5t100 31q69 0 107.5 -42t38.5 -117q0 -72 -24 -127t-67 -85.5t-101 -30.5zM251 482q23 0 40 40.5t17 96.5q0 61 -31 61q-15 0 -29 -19t-22.5 -49t-8.5 -65q0 -65 34 -65z" />
    <glyph glyph-name="uni2074" unicode="&#x2074;" horiz-adv-x="402" 
d="M234 388l12 60h-179l18 94l218 232h119l-45 -231h50l-29 -95h-39l-12 -60h-113zM196 543h68l18 92z" />
    <glyph glyph-name="uni2075" unicode="&#x2075;" horiz-adv-x="402" 
d="M215 380q-45 0 -77 7.5t-64 25.5l39 93q45 -27 103 -27q28 0 44 9.5t16 25.5q0 28 -53 28q-17 0 -34 -1.5t-33 -5.5l-36 20l62 219h238l-9 -101h-153l-11 -41q18 4 37 4q55 0 85 -27.5t30 -77.5q0 -67 -51 -109t-133 -42z" />
    <glyph glyph-name="uni2076" unicode="&#x2076;" horiz-adv-x="402" 
d="M258 380q-73 0 -115.5 44.5t-42.5 121.5q0 69 29.5 122.5t82 83.5t119.5 30q63 0 105 -21l-33 -95q-36 15 -73 15q-83 0 -101 -72q33 32 81 32t76.5 -29.5t28.5 -79.5q0 -44 -20.5 -78.5t-56 -54t-80.5 -19.5zM255 475q17 0 29 12.5t12 30.5q0 15 -9 24t-23 9
q-17 0 -29.5 -13t-12.5 -30q0 -13 10 -23t23 -10z" />
    <glyph glyph-name="uni2077" unicode="&#x2077;" horiz-adv-x="402" 
d="M98 388l201 281h-178l32 105h298l-19 -99l-198 -287h-136z" />
    <glyph glyph-name="uni2078" unicode="&#x2078;" horiz-adv-x="402" 
d="M231 380q-70 0 -109 27t-39 74q0 35 22.5 63t60.5 41q-39 24 -39 73q0 56 46.5 90t121.5 34q61 0 98.5 -28t37.5 -72q0 -32 -19 -58t-51 -40q48 -23 48 -78q0 -58 -47.5 -92t-130.5 -34zM272 627q20 0 33 9.5t13 24.5q0 30 -35 30q-20 0 -33 -9.5t-13 -24.5q0 -30 35 -30
zM243 472q23 0 37 10.5t14 27.5q0 30 -41 30q-51 0 -51 -38q0 -30 41 -30z" />
    <glyph glyph-name="uni2079" unicode="&#x2079;" horiz-adv-x="402" 
d="M267 782q74 0 116 -44.5t42 -121.5q0 -69 -29.5 -122t-81.5 -83.5t-120 -30.5q-28 0 -56.5 5.5t-48.5 15.5l33 95q36 -15 73 -15q83 0 101 72q-33 -32 -81 -32t-76.5 30t-28.5 79q0 44 20.5 78.5t56 54t80.5 19.5zM270 687q-17 0 -29 -12.5t-12 -30.5q0 -15 9 -24t23 -9
q17 0 29.5 13t12.5 30q0 14 -9.5 23.5t-23.5 9.5z" />
    <glyph glyph-name="uni2080" unicode="&#x2080;" horiz-adv-x="402" 
d="M148 -98q-68 0 -107.5 43t-39.5 117q0 71 24.5 125.5t68.5 85.5t100 31q69 0 107.5 -42t38.5 -117q0 -72 -24 -127t-67 -85.5t-101 -30.5zM159 4q23 0 40 40.5t17 96.5q0 61 -31 61q-15 0 -29 -19t-22.5 -49t-8.5 -65q0 -65 34 -65z" />
    <glyph glyph-name="uni2081" unicode="&#x2081;" horiz-adv-x="402" 
d="M95 -90l49 252l-66 -40l-34 91l140 83h106l-75 -386h-120z" />
    <glyph glyph-name="uni2082" unicode="&#x2082;" horiz-adv-x="402" 
d="M-18 -90l17 87q94 57 144 93q54 38 54 75q0 36 -40 36q-43 0 -96 -35l-14 95q33 20 70.5 31.5t73.5 11.5q62 0 98.5 -30.5t36.5 -81.5q0 -34 -16 -64t-48 -58q-29 -26 -84 -59h125l-31 -101h-290z" />
    <glyph glyph-name="uni2083" unicode="&#x2083;" horiz-adv-x="402" 
d="M127 -98q-86 0 -148 35l39 91q19 -13 47.5 -20.5t55.5 -7.5q55 0 55 34q0 25 -50 25h-55l19 95h50q59 0 59 28q0 24 -41 24q-45 0 -102 -27l-5 90q67 35 142 35q61 0 96 -25.5t35 -69.5q0 -71 -72 -102q46 -26 46 -75q0 -59 -46.5 -94.5t-124.5 -35.5z" />
    <glyph glyph-name="uni2084" unicode="&#x2084;" horiz-adv-x="402" 
d="M142 -90l12 60h-179l18 94l218 232h119l-45 -231h50l-29 -95h-39l-12 -60h-113zM104 65h68l18 92z" />
    <glyph glyph-name="uni2085" unicode="&#x2085;" horiz-adv-x="402" 
d="M123 -98q-45 0 -77 7.5t-64 25.5l39 93q45 -27 103 -27q28 0 44 9.5t16 25.5q0 28 -53 28q-17 0 -34 -1.5t-33 -5.5l-36 20l62 219h238l-9 -101h-153l-11 -41q18 4 37 4q55 0 85 -27.5t30 -77.5q0 -67 -51 -109t-133 -42z" />
    <glyph glyph-name="uni2086" unicode="&#x2086;" horiz-adv-x="402" 
d="M166 -98q-73 0 -115.5 44.5t-42.5 121.5q0 69 29.5 122.5t82 83.5t119.5 30q63 0 105 -21l-33 -95q-36 15 -73 15q-83 0 -101 -72q33 32 81 32t76.5 -29.5t28.5 -79.5q0 -44 -20.5 -78.5t-56 -54t-80.5 -19.5zM163 -3q17 0 29 12.5t12 30.5q0 15 -9 24t-23 9
q-17 0 -29.5 -13t-12.5 -30q0 -13 10 -23t23 -10z" />
    <glyph glyph-name="uni2087" unicode="&#x2087;" horiz-adv-x="402" 
d="M6 -90l201 281h-178l32 105h298l-19 -99l-198 -287h-136z" />
    <glyph glyph-name="uni2088" unicode="&#x2088;" horiz-adv-x="402" 
d="M139 -98q-70 0 -109 27t-39 74q0 35 22.5 63t60.5 41q-39 24 -39 73q0 56 46.5 90t121.5 34q61 0 98.5 -28t37.5 -72q0 -32 -19 -58t-51 -40q48 -23 48 -78q0 -58 -47.5 -92t-130.5 -34zM180 149q20 0 33 9.5t13 24.5q0 30 -35 30q-20 0 -33 -9.5t-13 -24.5q0 -30 35 -30
zM151 -6q23 0 37 10.5t14 27.5q0 30 -41 30q-51 0 -51 -38q0 -30 41 -30z" />
    <glyph glyph-name="uni2089" unicode="&#x2089;" horiz-adv-x="402" 
d="M175 304q74 0 116 -44.5t42 -121.5q0 -69 -29.5 -122t-81.5 -83.5t-120 -30.5q-28 0 -56.5 5.5t-48.5 15.5l33 95q36 -15 73 -15q83 0 101 72q-33 -32 -81 -32t-76.5 30t-28.5 79q0 44 20.5 78.5t56 54t80.5 19.5zM178 209q-17 0 -29 -12.5t-12 -30.5q0 -15 9 -24t23 -9
q17 0 29.5 13t12.5 30q0 14 -9.5 23.5t-23.5 9.5z" />
    <glyph glyph-name="uni20A9" unicode="&#x20a9;" horiz-adv-x="1003" 
d="M152 0l-19 288h-112l19 98h87l-4 60h-71l18 98h46l-9 140h192v-140h137l52 140h192l-2 -140h135l54 140h193l-63 -140h45l-19 -98h-71l-27 -60h87l-19 -98h-112l-130 -288h-194l1 288h-102l-110 -288h-194zM493 386h66l1 175zM677 386h76l23 60h-99v-60zM299 386h78
l22 60h-100v-60zM298 288v-113l42 113h-42zM676 288l-2 -106l41 106h-39z" />
    <glyph glyph-name="dong" unicode="&#x20ab;" horiz-adv-x="630" 
d="M202 -12q-52 0 -92.5 28.5t-64 77.5t-23.5 112q0 84 32 150t87 104.5t124 38.5q47 0 82.5 -22.5t52.5 -60.5l23 121h-133l20 101h132l9 46h178l-9 -46h67l-20 -101h-66l-104 -537h-159l8 66q-55 -78 -144 -78zM280 136q27 0 49.5 18t36 47.5t13.5 64.5q0 38 -20.5 62
t-53.5 24q-27 0 -49.5 -17.5t-36 -46.5t-13.5 -65q0 -40 20 -63.5t54 -23.5zM-39 -167l20 101h502l-20 -101h-502z" />
    <glyph glyph-name="Euro" unicode="&#x20ac;" horiz-adv-x="630" 
d="M23 212l32 101h44q2 31 7 61h-52l33 101h49q30 68 81.5 118t119 77.5t146.5 27.5q109 0 192 -53l-59 -152q-55 44 -134 44q-87 0 -137 -62h211l-33 -101h-222q-6 -28 -7 -61h210l-32 -101h-164q26 -64 108 -64t151 46l1 -155q-34 -25 -84 -39t-107 -14q-109 0 -180 60
t-91 166h-83z" />
    <glyph glyph-name="uni20B4" unicode="&#x20b4;" horiz-adv-x="630" 
d="M62 375l20 101l335 -1q10 12 10 28q0 42 -81 42q-42 0 -86.5 -10.5t-100.5 -33.5l-4 144q55 26 114.5 39.5t121.5 13.5q107 0 164.5 -34.5t57.5 -97.5q0 -48 -33 -92h51l-20 -99h-549zM32 217l19 99h549l-19 -99h-320q-24 -18 -24 -40q0 -38 84 -38q93 0 209 49l5 -144
q-51 -28 -116 -43t-138 -15q-109 0 -170.5 35.5t-61.5 100.5q0 51 39 95h-56z" />
    <glyph glyph-name="uni20B9" unicode="&#x20b9;" horiz-adv-x="630" 
d="M278 0l-207 249l20 103h140q92 0 123 65h-251l20 101h242q-12 65 -89 65h-141l19 101h515l-19 -97h-137q29 -27 39 -69h85l-19 -101h-70q-20 -70 -89.5 -111t-178.5 -45l234 -261h-236z" />
    <glyph glyph-name="uni20BA" unicode="&#x20ba;" horiz-adv-x="630" 
d="M44 0l41 211l-71 -33l22 111l71 33l13 67l-71 -33l21 111l71 33l36 184h184l-18 -91l149 69l-21 -111l-149 -69l-13 -67l149 69l-22 -111l-149 -69l-28 -145h13q61 0 98.5 40.5t45.5 114.5l185 -20q-16 -140 -114.5 -217t-262.5 -77h-180z" />
    <glyph glyph-name="uni20BD" unicode="&#x20bd;" horiz-adv-x="630" 
d="M46 0l19 99h-64l19 101h65l12 60h-65l20 101h64l63 323h251q98 0 154.5 -51t56.5 -140q0 -70 -36 -122.5t-100.5 -81.5t-152.5 -29h-71l-11 -60h131l-19 -101h-132l-19 -99h-185zM379 536h-44l-34 -175h42q47 0 76 29t29 75q0 34 -18.5 52.5t-50.5 18.5z" />
    <glyph glyph-name="trademark" unicode="&#x2122;" horiz-adv-x="1003" 
d="M505 308v392h162l70 -192l71 192h159v-392h-124v220l-60 -154h-94l-60 153v-219h-124zM211 308v279h-116v113h363v-113h-116v-279h-131z" />
    <glyph glyph-name="uni2150" unicode="&#x2150;" horiz-adv-x="940" 
d="M154 0l457 684h138l-457 -684h-138zM561 0l201 281h-178l32 105h298l-19 -99l-198 -287h-136zM162 298l49 252l-66 -40l-34 91l140 83h106l-75 -386h-120z" />
    <glyph glyph-name="uni2151" unicode="&#x2151;" horiz-adv-x="940" 
d="M163 0l457 684h138l-457 -684h-138zM730 394q74 0 116 -44.5t42 -121.5q0 -69 -29.5 -122t-81.5 -83.5t-120 -30.5q-28 0 -56.5 5.5t-48.5 15.5l33 95q36 -15 73 -15q83 0 101 72q-33 -32 -81 -32t-76.5 30t-28.5 79q0 44 20.5 78.5t56 54t80.5 19.5zM733 299
q-17 0 -29 -12.5t-12 -30.5q0 -15 9 -24t23 -9q17 0 29.5 13t12.5 30q0 14 -9.5 23.5t-23.5 9.5zM162 298l49 252l-66 -40l-34 91l140 83h106l-75 -386h-120z" />
    <glyph glyph-name="uni2153" unicode="&#x2153;" horiz-adv-x="940" 
d="M156 0l457 684h138l-457 -684h-138zM682 -8q-86 0 -148 35l39 91q19 -13 47.5 -20.5t55.5 -7.5q55 0 55 34q0 25 -50 25h-55l19 95h50q59 0 59 28q0 24 -41 24q-45 0 -102 -27l-5 90q67 35 142 35q61 0 96 -25.5t35 -69.5q0 -71 -72 -102q46 -26 46 -75
q0 -59 -46.5 -94.5t-124.5 -35.5zM162 298l49 252l-66 -40l-34 91l140 83h106l-75 -386h-120z" />
    <glyph glyph-name="uni2154" unicode="&#x2154;" horiz-adv-x="940" 
d="M181 0l457 684h138l-457 -684h-138zM682 -8q-86 0 -148 35l39 91q19 -13 47.5 -20.5t55.5 -7.5q55 0 55 34q0 25 -50 25h-55l19 95h50q59 0 59 28q0 24 -41 24q-45 0 -102 -27l-5 90q67 35 142 35q61 0 96 -25.5t35 -69.5q0 -71 -72 -102q46 -26 46 -75
q0 -59 -46.5 -94.5t-124.5 -35.5zM49 298l17 87q94 57 144 93q54 38 54 75q0 36 -40 36q-43 0 -96 -35l-14 95q33 20 70.5 31.5t73.5 11.5q62 0 98.5 -30.5t36.5 -81.5q0 -34 -16 -64t-48 -58q-29 -26 -84 -59h125l-31 -101h-290z" />
    <glyph glyph-name="uni2155" unicode="&#x2155;" horiz-adv-x="940" 
d="M166 0l457 684h138l-457 -684h-138zM678 -8q-45 0 -77 7.5t-64 25.5l39 93q45 -27 103 -27q28 0 44 9.5t16 25.5q0 28 -53 28q-17 0 -34 -1.5t-33 -5.5l-36 20l62 219h238l-9 -101h-153l-11 -41q18 4 37 4q55 0 85 -27.5t30 -77.5q0 -67 -51 -109t-133 -42zM162 298
l49 252l-66 -40l-34 91l140 83h106l-75 -386h-120z" />
    <glyph glyph-name="uni2156" unicode="&#x2156;" horiz-adv-x="940" 
d="M190 0l457 684h138l-457 -684h-138zM678 -8q-45 0 -77 7.5t-64 25.5l39 93q45 -27 103 -27q28 0 44 9.5t16 25.5q0 28 -53 28q-17 0 -34 -1.5t-33 -5.5l-36 20l62 219h238l-9 -101h-153l-11 -41q18 4 37 4q55 0 85 -27.5t30 -77.5q0 -67 -51 -109t-133 -42zM39 298l17 87
q94 57 144 93q54 38 54 75q0 36 -40 36q-43 0 -96 -35l-14 95q33 20 70.5 31.5t73.5 11.5q62 0 98.5 -30.5t36.5 -81.5q0 -34 -16 -64t-48 -58q-29 -26 -84 -59h125l-31 -101h-290z" />
    <glyph glyph-name="uni2157" unicode="&#x2157;" horiz-adv-x="940" 
d="M177 0l457 684h138l-457 -684h-138zM678 -8q-45 0 -77 7.5t-64 25.5l39 93q45 -27 103 -27q28 0 44 9.5t16 25.5q0 28 -53 28q-17 0 -34 -1.5t-33 -5.5l-36 20l62 219h238l-9 -101h-153l-11 -41q18 4 37 4q55 0 85 -27.5t30 -77.5q0 -67 -51 -109t-133 -42zM194 290
q-86 0 -148 35l39 91q19 -13 47.5 -20.5t55.5 -7.5q55 0 55 34q0 25 -50 25h-55l19 95h50q59 0 59 28q0 24 -41 24q-45 0 -102 -27l-5 90q67 35 142 35q61 0 96 -25.5t35 -69.5q0 -71 -72 -102q46 -26 46 -75q0 -59 -46.5 -94.5t-124.5 -35.5z" />
    <glyph glyph-name="uni2158" unicode="&#x2158;" horiz-adv-x="940" 
d="M196 0l457 684h138l-457 -684h-138zM678 -8q-45 0 -77 7.5t-64 25.5l39 93q45 -27 103 -27q28 0 44 9.5t16 25.5q0 28 -53 28q-17 0 -34 -1.5t-33 -5.5l-36 20l62 219h238l-9 -101h-153l-11 -41q18 4 37 4q55 0 85 -27.5t30 -77.5q0 -67 -51 -109t-133 -42zM219 298
l12 60h-179l18 94l218 232h119l-45 -231h50l-29 -95h-39l-12 -60h-113zM181 453h68l18 92z" />
    <glyph glyph-name="uni2159" unicode="&#x2159;" horiz-adv-x="940" 
d="M167 0l457 684h138l-457 -684h-138zM721 -8q-73 0 -115.5 44.5t-42.5 121.5q0 69 29.5 122.5t82 83.5t119.5 30q63 0 105 -21l-33 -95q-36 15 -73 15q-83 0 -101 -72q33 32 81 32t76.5 -29.5t28.5 -79.5q0 -44 -20.5 -78.5t-56 -54t-80.5 -19.5zM718 87q17 0 29 12.5
t12 30.5q0 15 -9 24t-23 9q-17 0 -29.5 -13t-12.5 -30q0 -13 10 -23t23 -10zM162 298l49 252l-66 -40l-34 91l140 83h106l-75 -386h-120z" />
    <glyph glyph-name="uni215A" unicode="&#x215a;" horiz-adv-x="940" 
d="M189 0l457 684h138l-457 -684h-138zM721 -8q-73 0 -115.5 44.5t-42.5 121.5q0 69 29.5 122.5t82 83.5t119.5 30q63 0 105 -21l-33 -95q-36 15 -73 15q-83 0 -101 -72q33 32 81 32t76.5 -29.5t28.5 -79.5q0 -44 -20.5 -78.5t-56 -54t-80.5 -19.5zM718 87q17 0 29 12.5
t12 30.5q0 15 -9 24t-23 9q-17 0 -29.5 -13t-12.5 -30q0 -13 10 -23t23 -10zM200 290q-45 0 -77 7.5t-64 25.5l39 93q45 -27 103 -27q28 0 44 9.5t16 25.5q0 28 -53 28q-17 0 -34 -1.5t-33 -5.5l-36 20l62 219h238l-9 -101h-153l-11 -41q18 4 37 4q55 0 85 -27.5t30 -77.5
q0 -67 -51 -109t-133 -42z" />
    <glyph glyph-name="oneeighth" unicode="&#x215b;" horiz-adv-x="940" 
d="M173 0l457 684h138l-457 -684h-138zM694 -8q-70 0 -109 27t-39 74q0 35 22.5 63t60.5 41q-39 24 -39 73q0 56 46.5 90t121.5 34q61 0 98.5 -28t37.5 -72q0 -32 -19 -58t-51 -40q48 -23 48 -78q0 -58 -47.5 -92t-130.5 -34zM735 239q20 0 33 9.5t13 24.5q0 30 -35 30
q-20 0 -33 -9.5t-13 -24.5q0 -30 35 -30zM706 84q23 0 37 10.5t14 27.5q0 30 -41 30q-51 0 -51 -38q0 -30 41 -30zM172 298l49 252l-66 -40l-34 91l140 83h106l-75 -386h-120z" />
    <glyph glyph-name="threeeighths" unicode="&#x215c;" horiz-adv-x="940" 
d="M177 0l457 684h138l-457 -684h-138zM694 -8q-70 0 -109 27t-39 74q0 35 22.5 63t60.5 41q-39 24 -39 73q0 56 46.5 90t121.5 34q61 0 98.5 -28t37.5 -72q0 -32 -19 -58t-51 -40q48 -23 48 -78q0 -58 -47.5 -92t-130.5 -34zM735 239q20 0 33 9.5t13 24.5q0 30 -35 30
q-20 0 -33 -9.5t-13 -24.5q0 -30 35 -30zM706 84q23 0 37 10.5t14 27.5q0 30 -41 30q-51 0 -51 -38q0 -30 41 -30zM194 290q-86 0 -148 35l39 91q19 -13 47.5 -20.5t55.5 -7.5q55 0 55 34q0 25 -50 25h-55l19 95h50q59 0 59 28q0 24 -41 24q-45 0 -102 -27l-5 90
q67 35 142 35q61 0 96 -25.5t35 -69.5q0 -71 -72 -102q46 -26 46 -75q0 -59 -46.5 -94.5t-124.5 -35.5z" />
    <glyph glyph-name="fiveeighths" unicode="&#x215d;" horiz-adv-x="940" 
d="M187 0l457 684h138l-457 -684h-138zM694 -8q-70 0 -109 27t-39 74q0 35 22.5 63t60.5 41q-39 24 -39 73q0 56 46.5 90t121.5 34q61 0 98.5 -28t37.5 -72q0 -32 -19 -58t-51 -40q48 -23 48 -78q0 -58 -47.5 -92t-130.5 -34zM735 239q20 0 33 9.5t13 24.5q0 30 -35 30
q-20 0 -33 -9.5t-13 -24.5q0 -30 35 -30zM706 84q23 0 37 10.5t14 27.5q0 30 -41 30q-51 0 -51 -38q0 -30 41 -30zM200 290q-45 0 -77 7.5t-64 25.5l39 93q45 -27 103 -27q28 0 44 9.5t16 25.5q0 28 -53 28q-17 0 -34 -1.5t-33 -5.5l-36 20l62 219h238l-9 -101h-153l-11 -41
q18 4 37 4q55 0 85 -27.5t30 -77.5q0 -67 -51 -109t-133 -42z" />
    <glyph glyph-name="seveneighths" unicode="&#x215e;" horiz-adv-x="940" 
d="M157 0l457 684h138l-457 -684h-138zM694 -8q-70 0 -109 27t-39 74q0 35 22.5 63t60.5 41q-39 24 -39 73q0 56 46.5 90t121.5 34q61 0 98.5 -28t37.5 -72q0 -32 -19 -58t-51 -40q48 -23 48 -78q0 -58 -47.5 -92t-130.5 -34zM735 239q20 0 33 9.5t13 24.5q0 30 -35 30
q-20 0 -33 -9.5t-13 -24.5q0 -30 35 -30zM706 84q23 0 37 10.5t14 27.5q0 30 -41 30q-51 0 -51 -38q0 -30 41 -30zM83 298l201 281h-178l32 105h298l-19 -99l-198 -287h-136z" />
    <glyph glyph-name="minus" unicode="&#x2212;" horiz-adv-x="630" 
d="M84 268v147h493v-147h-493z" />
    <glyph glyph-name="uniFEFF" unicode="&#xfeff;" 
 />
    <glyph glyph-name="uniFFFD" unicode="&#xfffd;" horiz-adv-x="1000" 
d="M518 -121l-475 474l475 475l475 -475zM474 198h70v18q0 28 16 50.5t54 47.5q56 38 78.5 74t22.5 86q0 71 -51 113t-140 42q-42 0 -88 -13t-76 -33l19 -59q26 20 63 30.5t75 10.5q56 0 87.5 -25t31.5 -70q0 -34 -18 -60.5t-62 -57.5t-63 -62.5t-19 -73.5v-18zM508 19
q23 0 38.5 15.5t15.5 37.5q0 23 -15.5 37.5t-38.5 14.5t-38.5 -14.5t-15.5 -37.5q0 -22 15.5 -37.5t38.5 -15.5z" />
    <glyph glyph-name="zero.pnum" horiz-adv-x="638" 
d="M297 -14q-118 0 -181.5 74.5t-63.5 210.5q0 93 23.5 171.5t66.5 135.5t101.5 88.5t128.5 31.5q118 0 181.5 -74t63.5 -211q0 -93 -23.5 -171.5t-66.5 -135.5t-101.5 -88.5t-128.5 -31.5zM307 150q31 0 57 37t42 98t16 133q0 60 -14.5 88t-45.5 28t-57 -37t-42 -97.5
t-16 -133.5q0 -60 14.5 -88t45.5 -28z" />
    <glyph glyph-name="one.pnum" horiz-adv-x="473" 
d="M156 0l91 472l-119 -72l-57 143l242 141h168l-133 -684h-192z" />
    <glyph glyph-name="two.pnum" horiz-adv-x="571" 
d="M-20 0l27 138q51 33 113.5 78.5t126.5 97.5q62 50 91 88.5t29 69.5q0 62 -81 62q-79 0 -171 -59l-20 147q111 76 245 76q67 0 117 -24t77.5 -67t27.5 -101q0 -74 -39.5 -136t-130.5 -133q-17 -14 -45 -33.5t-64 -43.5h235l-49 -160h-489z" />
    <glyph glyph-name="three.pnum" horiz-adv-x="569" 
d="M214 -14q-69 0 -130 16.5t-100 44.5l61 141q73 -48 163 -48q58 0 89.5 20t31.5 56q0 55 -83 55h-95l29 154h91q48 0 76 18t28 49q0 52 -79 52q-40 0 -86.5 -13t-90.5 -37l-8 142q48 29 110.5 45.5t125.5 16.5q103 0 161.5 -44.5t58.5 -122.5q0 -59 -35 -106.5t-98 -75.5
q86 -34 86 -135q0 -68 -38 -119.5t-107 -80t-161 -28.5z" />
    <glyph glyph-name="four.pnum" horiz-adv-x="614" 
d="M279 0l22 115h-309l29 149l379 420h189l-80 -415h83l-48 -154h-65l-22 -115h-178zM205 269h126l35 178z" />
    <glyph glyph-name="five.pnum" horiz-adv-x="574" 
d="M226 -14q-135 0 -236 57l63 145q75 -46 166 -46q59 0 90.5 22t31.5 62q0 61 -84 61q-29 0 -54.5 -4.5t-53.5 -14.5l-76 36l103 380h399l-13 -163h-267l-26 -102q40 11 85 11q85 0 132 -45.5t47 -126.5t-38.5 -142.5t-107.5 -95.5t-161 -34z" />
    <glyph glyph-name="six.pnum" horiz-adv-x="598" 
d="M286 -14q-113 0 -178 73.5t-65 200.5q0 97 28 177t79.5 138.5t121.5 90.5t155 32q96 0 174 -40l-64 -147q-56 28 -117 28q-67 0 -113 -39.5t-65 -113.5q54 49 134 49q81 0 129.5 -51t48.5 -137q0 -75 -34.5 -134t-95 -93t-138.5 -34zM288 140q35 0 58 27t23 64
q0 29 -16.5 46t-43.5 17q-34 0 -57.5 -26.5t-23.5 -64.5q0 -28 16.5 -45.5t43.5 -17.5z" />
    <glyph glyph-name="seven.pnum" horiz-adv-x="547" 
d="M40 0l343 521h-319l50 163h498l-31 -156l-336 -528h-205z" />
    <glyph glyph-name="eight.pnum" horiz-adv-x="606" 
d="M266 -14q-113 0 -179.5 47.5t-66.5 127.5q0 64 37.5 113.5t103.5 72.5q-63 42 -63 130q0 64 35.5 113.5t97.5 78.5t140 29q100 0 160 -48t60 -128q0 -56 -32.5 -102t-88.5 -73q86 -42 86 -133q0 -68 -36.5 -119.5t-101.5 -80t-152 -28.5zM336 418q35 0 56.5 20.5
t21.5 53.5q0 27 -16 42.5t-44 15.5q-35 0 -57 -21t-22 -54q0 -57 61 -57zM281 135q38 0 62 21.5t24 55.5q0 29 -19.5 45.5t-51.5 16.5q-38 0 -63 -21.5t-25 -55.5q0 -28 20 -45t53 -17z" />
    <glyph glyph-name="nine.pnum" horiz-adv-x="599" 
d="M348 698q113 0 178 -73t65 -201q0 -97 -28 -177t-79.5 -138.5t-121.5 -90.5t-155 -32q-96 0 -174 40l64 147q56 -28 117 -28q67 0 113 39.5t65 113.5q-54 -49 -134 -49q-81 0 -129.5 51.5t-48.5 136.5q0 76 34.5 134.5t95.5 92.5t138 34zM346 544q-34 0 -57.5 -26.5
t-23.5 -64.5q0 -29 16.5 -46t43.5 -17q35 0 58 27t23 64q0 29 -16.5 46t-43.5 17z" />
    <glyph glyph-name="zero.dnom" horiz-adv-x="402" 
d="M165 -8q-68 0 -107.5 43t-39.5 117q0 71 24.5 125.5t68.5 85.5t100 31q69 0 107.5 -42t38.5 -117q0 -72 -24 -127t-67 -85.5t-101 -30.5zM176 94q23 0 40 40.5t17 96.5q0 61 -31 61q-15 0 -29 -19t-22.5 -49t-8.5 -65q0 -65 34 -65z" />
    <glyph glyph-name="one.dnom" horiz-adv-x="402" 
d="M112 0l49 252l-66 -40l-34 91l140 83h106l-75 -386h-120z" />
    <glyph glyph-name="two.dnom" horiz-adv-x="402" 
d="M-1 0l17 87q94 57 144 93q54 38 54 75q0 36 -40 36q-43 0 -96 -35l-14 95q33 20 70.5 31.5t73.5 11.5q62 0 98.5 -30.5t36.5 -81.5q0 -34 -16 -64t-48 -58q-29 -26 -84 -59h125l-31 -101h-290z" />
    <glyph glyph-name="three.dnom" horiz-adv-x="402" 
d="M144 -8q-86 0 -148 35l39 91q19 -13 47.5 -20.5t55.5 -7.5q55 0 55 34q0 25 -50 25h-55l19 95h50q59 0 59 28q0 24 -41 24q-45 0 -102 -27l-5 90q67 35 142 35q61 0 96 -25.5t35 -69.5q0 -71 -72 -102q46 -26 46 -75q0 -59 -46.5 -94.5t-124.5 -35.5z" />
    <glyph glyph-name="four.dnom" horiz-adv-x="402" 
d="M159 0l12 60h-179l18 94l218 232h119l-45 -231h50l-29 -95h-39l-12 -60h-113zM121 155h68l18 92z" />
    <glyph glyph-name="five.dnom" horiz-adv-x="402" 
d="M140 -8q-45 0 -77 7.5t-64 25.5l39 93q45 -27 103 -27q28 0 44 9.5t16 25.5q0 28 -53 28q-17 0 -34 -1.5t-33 -5.5l-36 20l62 219h238l-9 -101h-153l-11 -41q18 4 37 4q55 0 85 -27.5t30 -77.5q0 -67 -51 -109t-133 -42z" />
    <glyph glyph-name="six.dnom" horiz-adv-x="402" 
d="M183 -8q-73 0 -115.5 44.5t-42.5 121.5q0 69 29.5 122.5t82 83.5t119.5 30q63 0 105 -21l-33 -95q-36 15 -73 15q-83 0 -101 -72q33 32 81 32t76.5 -29.5t28.5 -79.5q0 -44 -20.5 -78.5t-56 -54t-80.5 -19.5zM180 87q17 0 29 12.5t12 30.5q0 15 -9 24t-23 9
q-17 0 -29.5 -13t-12.5 -30q0 -13 10 -23t23 -10z" />
    <glyph glyph-name="seven.dnom" horiz-adv-x="402" 
d="M23 0l201 281h-178l32 105h298l-19 -99l-198 -287h-136z" />
    <glyph glyph-name="eight.dnom" horiz-adv-x="402" 
d="M156 -8q-70 0 -109 27t-39 74q0 35 22.5 63t60.5 41q-39 24 -39 73q0 56 46.5 90t121.5 34q61 0 98.5 -28t37.5 -72q0 -32 -19 -58t-51 -40q48 -23 48 -78q0 -58 -47.5 -92t-130.5 -34zM197 239q20 0 33 9.5t13 24.5q0 30 -35 30q-20 0 -33 -9.5t-13 -24.5q0 -30 35 -30z
M168 84q23 0 37 10.5t14 27.5q0 30 -41 30q-51 0 -51 -38q0 -30 41 -30z" />
    <glyph glyph-name="nine.dnom" horiz-adv-x="402" 
d="M192 394q74 0 116 -44.5t42 -121.5q0 -69 -29.5 -122t-81.5 -83.5t-120 -30.5q-28 0 -56.5 5.5t-48.5 15.5l33 95q36 -15 73 -15q83 0 101 72q-33 -32 -81 -32t-76.5 30t-28.5 79q0 44 20.5 78.5t56 54t80.5 19.5zM195 299q-17 0 -29 -12.5t-12 -30.5q0 -15 9 -24t23 -9
q17 0 29.5 13t12.5 30q0 14 -9.5 23.5t-23.5 9.5z" />
    <glyph glyph-name="zero.numr" horiz-adv-x="402" 
d="M223 290q-68 0 -107.5 43t-39.5 117q0 71 24.5 125.5t68.5 85.5t100 31q69 0 107.5 -42t38.5 -117q0 -72 -24 -127t-67 -85.5t-101 -30.5zM234 392q23 0 40 40.5t17 96.5q0 61 -31 61q-15 0 -29 -19t-22.5 -49t-8.5 -65q0 -65 34 -65z" />
    <glyph glyph-name="one.numr" horiz-adv-x="402" 
d="M170 298l49 252l-66 -40l-34 91l140 83h106l-75 -386h-120z" />
    <glyph glyph-name="two.numr" horiz-adv-x="402" 
d="M57 298l17 87q94 57 144 93q54 38 54 75q0 36 -40 36q-43 0 -96 -35l-14 95q33 20 70.5 31.5t73.5 11.5q62 0 98.5 -30.5t36.5 -81.5q0 -34 -16 -64t-48 -58q-29 -26 -84 -59h125l-31 -101h-290z" />
    <glyph glyph-name="three.numr" horiz-adv-x="402" 
d="M202 290q-86 0 -148 35l39 91q19 -13 47.5 -20.5t55.5 -7.5q55 0 55 34q0 25 -50 25h-55l19 95h50q59 0 59 28q0 24 -41 24q-45 0 -102 -27l-5 90q67 35 142 35q61 0 96 -25.5t35 -69.5q0 -71 -72 -102q46 -26 46 -75q0 -59 -46.5 -94.5t-124.5 -35.5z" />
    <glyph glyph-name="four.numr" horiz-adv-x="402" 
d="M217 298l12 60h-179l18 94l218 232h119l-45 -231h50l-29 -95h-39l-12 -60h-113zM179 453h68l18 92z" />
    <glyph glyph-name="five.numr" horiz-adv-x="402" 
d="M198 290q-45 0 -77 7.5t-64 25.5l39 93q45 -27 103 -27q28 0 44 9.5t16 25.5q0 28 -53 28q-17 0 -34 -1.5t-33 -5.5l-36 20l62 219h238l-9 -101h-153l-11 -41q18 4 37 4q55 0 85 -27.5t30 -77.5q0 -67 -51 -109t-133 -42z" />
    <glyph glyph-name="six.numr" horiz-adv-x="402" 
d="M241 290q-73 0 -115.5 44.5t-42.5 121.5q0 69 29.5 122.5t82 83.5t119.5 30q63 0 105 -21l-33 -95q-36 15 -73 15q-83 0 -101 -72q33 32 81 32t76.5 -29.5t28.5 -79.5q0 -44 -20.5 -78.5t-56 -54t-80.5 -19.5zM238 385q17 0 29 12.5t12 30.5q0 15 -9 24t-23 9
q-17 0 -29.5 -13t-12.5 -30q0 -13 10 -23t23 -10z" />
    <glyph glyph-name="seven.numr" horiz-adv-x="402" 
d="M81 298l201 281h-178l32 105h298l-19 -99l-198 -287h-136z" />
    <glyph glyph-name="eight.numr" horiz-adv-x="402" 
d="M214 290q-70 0 -109 27t-39 74q0 35 22.5 63t60.5 41q-39 24 -39 73q0 56 46.5 90t121.5 34q61 0 98.5 -28t37.5 -72q0 -32 -19 -58t-51 -40q48 -23 48 -78q0 -58 -47.5 -92t-130.5 -34zM255 537q20 0 33 9.5t13 24.5q0 30 -35 30q-20 0 -33 -9.5t-13 -24.5q0 -30 35 -30
zM226 382q23 0 37 10.5t14 27.5q0 30 -41 30q-51 0 -51 -38q0 -30 41 -30z" />
    <glyph glyph-name="nine.numr" horiz-adv-x="402" 
d="M250 692q74 0 116 -44.5t42 -121.5q0 -69 -29.5 -122t-81.5 -83.5t-120 -30.5q-28 0 -56.5 5.5t-48.5 15.5l33 95q36 -15 73 -15q83 0 101 72q-33 -32 -81 -32t-76.5 30t-28.5 79q0 44 20.5 78.5t56 54t80.5 19.5zM253 597q-17 0 -29 -12.5t-12 -30.5q0 -15 9 -24t23 -9
q17 0 29.5 13t12.5 30q0 14 -9.5 23.5t-23.5 9.5z" />
    <glyph glyph-name="two_fraction_seven" horiz-adv-x="940" 
d="M173 0l457 684h138l-457 -684h-138zM561 0l201 281h-178l32 105h298l-19 -99l-198 -287h-136zM39 298l17 87q94 57 144 93q54 38 54 75q0 36 -40 36q-43 0 -96 -35l-14 95q33 20 70.5 31.5t73.5 11.5q62 0 98.5 -30.5t36.5 -81.5q0 -34 -16 -64t-48 -58q-29 -26 -84 -59
h125l-31 -101h-290z" />
    <glyph glyph-name="three_fraction_seven" horiz-adv-x="940" 
d="M168 0l457 684h138l-457 -684h-138zM561 0l201 281h-178l32 105h298l-19 -99l-198 -287h-136zM194 290q-86 0 -148 35l39 91q19 -13 47.5 -20.5t55.5 -7.5q55 0 55 34q0 25 -50 25h-55l19 95h50q59 0 59 28q0 24 -41 24q-45 0 -102 -27l-5 90q67 35 142 35q61 0 96 -25.5
t35 -69.5q0 -71 -72 -102q46 -26 46 -75q0 -59 -46.5 -94.5t-124.5 -35.5z" />
    <glyph glyph-name="four_fraction_seven" horiz-adv-x="940" 
d="M184 0l457 684h138l-457 -684h-138zM561 0l201 281h-178l32 105h298l-19 -99l-198 -287h-136zM219 298l12 60h-179l18 94l218 232h119l-45 -231h50l-29 -95h-39l-12 -60h-113zM181 453h68l18 92z" />
    <glyph glyph-name="five_fraction_seven" horiz-adv-x="940" 
d="M177 0l457 684h138l-457 -684h-138zM561 0l201 281h-178l32 105h298l-19 -99l-198 -287h-136zM200 290q-45 0 -77 7.5t-64 25.5l39 93q45 -27 103 -27q28 0 44 9.5t16 25.5q0 28 -53 28q-17 0 -34 -1.5t-33 -5.5l-36 20l62 219h238l-9 -101h-153l-11 -41q18 4 37 4
q55 0 85 -27.5t30 -77.5q0 -67 -51 -109t-133 -42z" />
    <glyph glyph-name="six_fraction_seven" horiz-adv-x="940" 
d="M173 0l457 684h138l-457 -684h-138zM561 0l201 281h-178l32 105h298l-19 -99l-198 -287h-136zM233 290q-73 0 -115.5 44.5t-42.5 121.5q0 69 29.5 122.5t82 83.5t119.5 30q63 0 105 -21l-33 -95q-36 15 -73 15q-83 0 -101 -72q33 32 81 32t76.5 -29.5t28.5 -79.5
q0 -44 -20.5 -78.5t-56 -54t-80.5 -19.5zM230 385q17 0 29 12.5t12 30.5q0 15 -9 24t-23 9q-17 0 -29.5 -13t-12.5 -30q0 -13 10 -23t23 -10z" />
    <glyph glyph-name="two_fraction_nine" horiz-adv-x="940" 
d="M181 0l457 684h138l-457 -684h-138zM730 394q74 0 116 -44.5t42 -121.5q0 -69 -29.5 -122t-81.5 -83.5t-120 -30.5q-28 0 -56.5 5.5t-48.5 15.5l33 95q36 -15 73 -15q83 0 101 72q-33 -32 -81 -32t-76.5 30t-28.5 79q0 44 20.5 78.5t56 54t80.5 19.5zM733 299
q-17 0 -29 -12.5t-12 -30.5q0 -15 9 -24t23 -9q17 0 29.5 13t12.5 30q0 14 -9.5 23.5t-23.5 9.5zM39 298l17 87q94 57 144 93q54 38 54 75q0 36 -40 36q-43 0 -96 -35l-14 95q33 20 70.5 31.5t73.5 11.5q62 0 98.5 -30.5t36.5 -81.5q0 -34 -16 -64t-48 -58q-29 -26 -84 -59
h125l-31 -101h-290z" />
    <glyph glyph-name="four_fraction_nine" horiz-adv-x="940" 
d="M192 0l457 684h138l-457 -684h-138zM730 394q74 0 116 -44.5t42 -121.5q0 -69 -29.5 -122t-81.5 -83.5t-120 -30.5q-28 0 -56.5 5.5t-48.5 15.5l33 95q36 -15 73 -15q83 0 101 72q-33 -32 -81 -32t-76.5 30t-28.5 79q0 44 20.5 78.5t56 54t80.5 19.5zM733 299
q-17 0 -29 -12.5t-12 -30.5q0 -15 9 -24t23 -9q17 0 29.5 13t12.5 30q0 14 -9.5 23.5t-23.5 9.5zM219 298l12 60h-179l18 94l218 232h119l-45 -231h50l-29 -95h-39l-12 -60h-113zM181 453h68l18 92z" />
    <glyph glyph-name="five_fraction_nine" horiz-adv-x="940" 
d="M179 0l457 684h138l-457 -684h-138zM730 394q74 0 116 -44.5t42 -121.5q0 -69 -29.5 -122t-81.5 -83.5t-120 -30.5q-28 0 -56.5 5.5t-48.5 15.5l33 95q36 -15 73 -15q83 0 101 72q-33 -32 -81 -32t-76.5 30t-28.5 79q0 44 20.5 78.5t56 54t80.5 19.5zM733 299
q-17 0 -29 -12.5t-12 -30.5q0 -15 9 -24t23 -9q17 0 29.5 13t12.5 30q0 14 -9.5 23.5t-23.5 9.5zM200 290q-45 0 -77 7.5t-64 25.5l39 93q45 -27 103 -27q28 0 44 9.5t16 25.5q0 28 -53 28q-17 0 -34 -1.5t-33 -5.5l-36 20l62 219h238l-9 -101h-153l-11 -41q18 4 37 4
q55 0 85 -27.5t30 -77.5q0 -67 -51 -109t-133 -42z" />
    <glyph glyph-name="seven_fraction_nine" horiz-adv-x="940" 
d="M143 0l457 684h138l-457 -684h-138zM730 394q74 0 116 -44.5t42 -121.5q0 -69 -29.5 -122t-81.5 -83.5t-120 -30.5q-28 0 -56.5 5.5t-48.5 15.5l33 95q36 -15 73 -15q83 0 101 72q-33 -32 -81 -32t-76.5 30t-28.5 79q0 44 20.5 78.5t56 54t80.5 19.5zM733 299
q-17 0 -29 -12.5t-12 -30.5q0 -15 9 -24t23 -9q17 0 29.5 13t12.5 30q0 14 -9.5 23.5t-23.5 9.5zM73 298l201 281h-178l32 105h298l-19 -99l-198 -287h-136z" />
    <glyph glyph-name="eight_fraction_nine" horiz-adv-x="940" 
d="M188 0l457 684h138l-457 -684h-138zM730 394q74 0 116 -44.5t42 -121.5q0 -69 -29.5 -122t-81.5 -83.5t-120 -30.5q-28 0 -56.5 5.5t-48.5 15.5l33 95q36 -15 73 -15q83 0 101 72q-33 -32 -81 -32t-76.5 30t-28.5 79q0 44 20.5 78.5t56 54t80.5 19.5zM733 299
q-17 0 -29 -12.5t-12 -30.5q0 -15 9 -24t23 -9q17 0 29.5 13t12.5 30q0 14 -9.5 23.5t-23.5 9.5zM213 290q-70 0 -109 27t-39 74q0 35 22.5 63t60.5 41q-39 24 -39 73q0 56 46.5 90t121.5 34q61 0 98.5 -28t37.5 -72q0 -32 -19 -58t-51 -40q48 -23 48 -78q0 -58 -47.5 -92
t-130.5 -34zM254 537q20 0 33 9.5t13 24.5q0 30 -35 30q-20 0 -33 -9.5t-13 -24.5q0 -30 35 -30zM225 382q23 0 37 10.5t14 27.5q0 30 -41 30q-51 0 -51 -38q0 -30 41 -30z" />
    <glyph glyph-name="shekel" horiz-adv-x="941" 
d="M212 0l93 477h168l-64 -329h178q50 0 76 25.5t38 86.5l82 424h171l-81 -414q-28 -140 -104.5 -205t-219.5 -65h-337zM-9 0l133 684h327q124 0 181.5 -46t57.5 -141q0 -38 -9 -83l-40 -207h-170l42 217q2 12 3.5 22.5t1.5 20.5q0 35 -19 52t-66 17h-167l-104 -536h-171z
" />
    <glyph glyph-name="hyphen.case" horiz-adv-x="395" 
d="M36 274l31 155h326l-30 -155h-327z" />
    <glyph glyph-name="endash.case" horiz-adv-x="500" 
d="M2 274l30 155h500l-30 -155h-500z" />
    <glyph glyph-name="emdash.case" horiz-adv-x="1000" 
d="M2 274l30 155h1000l-30 -155h-1000z" />
    <glyph glyph-name="parenleft.case" horiz-adv-x="407" 
d="M193 -148q-72 76 -108.5 175t-36.5 217q0 181 84.5 337t241.5 267l114 -95q-244 -220 -244 -527q0 -79 17 -146t53 -133z" />
    <glyph glyph-name="parenright.case" horiz-adv-x="407" 
d="M248 848q72 -76 108.5 -175t36.5 -217q0 -181 -84 -337t-242 -267l-114 95q244 220 244 527q0 80 -17 146.5t-53 132.5z" />
    <glyph glyph-name="slash.case" horiz-adv-x="524" 
d="M-58 -98l464 896h210l-464 -896h-210z" />
    <glyph glyph-name="backslash.case" horiz-adv-x="524" 
d="M241 -98l-115 896h189l115 -896h-189z" />
    <glyph glyph-name="bracketleft.case" horiz-adv-x="379" 
d="M-7 -98l175 896h275l-5 -151h-111l-117 -594h114l-47 -151h-284z" />
    <glyph glyph-name="bracketright.case" horiz-adv-x="379" 
d="M420 798l-175 -896h-272l5 151h108l117 594h-114l47 151h284z" />
    <glyph glyph-name="braceleft.case" horiz-adv-x="386" 
d="M186 -98q-67 0 -104 34t-37 89q0 35 11 71t22 69.5t11 58.5q0 52 -67 52l30 149q44 0 65 19t28 56q6 32 6.5 65.5t6.5 67.5q14 76 69.5 120.5t132.5 44.5h90l-5 -151h-42q-31 0 -47 -14t-24 -47q-8 -37 -7.5 -70.5t-6.5 -64.5q-9 -42 -38.5 -66t-77.5 -34q78 -18 78 -84
q0 -27 -10.5 -60t-21.5 -63.5t-11 -52.5q0 -38 48 -38h51l-47 -151h-103z" />
    <glyph glyph-name="braceright.case" horiz-adv-x="386" 
d="M231 798q67 0 104 -33.5t37 -92.5q0 -31 -11 -67t-22 -70t-11 -59q0 -52 67 -52l-30 -149q-41 0 -63 -18t-30 -57q-6 -30 -5.5 -62.5t-7.5 -70.5q-15 -76 -70 -120.5t-132 -44.5h-90l5 151h42q31 0 47.5 14t23.5 47q6 27 7 47.5t1.5 41.5t5.5 46q15 78 116 100
q-78 18 -78 84q0 28 11 60.5t21.5 63.5t10.5 51q0 39 -48 39h-48l47 151h100z" />
    <glyph glyph-name="bullet.case" horiz-adv-x="353" 
d="M195 209q-61 0 -101.5 40t-40.5 101q0 62 40.5 101.5t101.5 39.5q60 0 99.5 -39.5t39.5 -101.5q0 -61 -39.5 -101t-99.5 -40z" />
    <glyph glyph-name="guilsinglleft.case" horiz-adv-x="390" 
d="M143 140l-93 210l172 210h189l-169 -218l81 -202h-180z" />
    <glyph glyph-name="guilsinglright.case" horiz-adv-x="390" 
d="M281 560l93 -210l-172 -210h-189l169 218l-81 202h180z" />
    <glyph glyph-name="guillemotleft.case" horiz-adv-x="682" 
d="M143 140l-93 210l172 210h189l-169 -218l81 -202h-180zM435 140l-93 210l172 210h189l-169 -218l81 -202h-180z" />
    <glyph glyph-name="guillemotright.case" horiz-adv-x="682" 
d="M281 560l93 -210l-172 -210h-189l169 218l-81 202h180zM573 560l93 -210l-172 -210h-189l169 218l-81 202h180z" />
    <glyph glyph-name="at.case" horiz-adv-x="997" 
d="M476 -101q-130 0 -224.5 47.5t-145.5 135.5t-51 210q0 108 40.5 201t112.5 162t169 107.5t211 38.5q120 0 210 -43t139.5 -121t49.5 -183q0 -69 -20 -128.5t-56 -103.5t-84.5 -69t-104.5 -25q-54 0 -89.5 22t-46.5 60q-22 -39 -57.5 -60.5t-81.5 -21.5q-73 0 -117 52
t-44 137q0 71 28 128.5t75.5 92t104.5 34.5q44 0 73.5 -21t40.5 -58l17 66h140l-49 -250q-3 -13 -3 -33q0 -36 34 -36t62 28.5t44.5 76t16.5 104.5q0 116 -76 181.5t-210 65.5q-90 0 -165 -29.5t-130.5 -82.5t-86 -125.5t-30.5 -159.5q0 -139 81.5 -217t229.5 -78
q58 0 115.5 11.5t104.5 33.5l14 -102q-50 -23 -112.5 -35.5t-128.5 -12.5zM499 259q34 0 58 33t24 79q0 33 -13.5 51.5t-39.5 18.5q-34 0 -58.5 -32.5t-24.5 -79.5q0 -33 14.5 -51.5t39.5 -18.5z" />
    <glyph glyph-name="periodcentered.loclCAT" horiz-adv-x="218" 
d="M118 265q-45 0 -72 25t-27 68q0 50 35.5 83.5t87.5 33.5q45 0 71.5 -25.5t26.5 -69.5q0 -50 -34.5 -82.5t-87.5 -32.5z" />
    <glyph glyph-name="periodcentered.loclCAT.cap" 
d="M-103 330q-45 0 -72 25t-27 68q0 50 35.5 83.5t87.5 33.5q45 0 71.5 -25.5t26.5 -69.5q0 -50 -34.5 -82.5t-87.5 -32.5z" />
    <glyph glyph-name="dotlessij" horiz-adv-x="597" 
d="M180 -229q-65 0 -118.5 14t-90.5 39l54 146q65 -43 144 -43q121 0 141 104l4 22q-22 -25 -53 -39t-72 -14q-67 0 -109 40t-42 119q0 20 2.5 38t5.5 33l57 293h187l-55 -284q-2 -10 -3 -19t-1 -14q0 -18 9 -29.5t31 -11.5q31 0 52.5 21t28.5 59l54 278h187l-91 -472
q-28 -145 -108 -212.5t-214 -67.5z" />
    <glyph glyph-name="IJacute" horiz-adv-x="690" 
d="M263 -16q-139 0 -233 51l57 156q86 -40 164 -40q74 0 114 38t57 126l75 385h196l-77 -397q-22 -113 -65.5 -183.5t-113.5 -103t-174 -32.5zM64 265l84 435h196l-84 -435h-196zM146 772l169 132h214l-196 -132h-187zM494 772l169 132h214l-196 -132h-187z" />
    <glyph glyph-name="ijacute" horiz-adv-x="597" 
d="M180 -229q-65 0 -118.5 14t-90.5 39l54 146q65 -43 144 -43q121 0 141 104l4 22q-22 -25 -53 -39t-72 -14q-67 0 -109 40t-42 119q0 20 2.5 38t5.5 33l57 293h187l-55 -284q-2 -10 -3 -19t-1 -14q0 -18 9 -29.5t31 -11.5q31 0 52.5 21t28.5 59l54 278h187l-91 -472
q-28 -145 -108 -212.5t-214 -67.5zM105 599l153 158h196l-188 -158h-161zM409 599l153 158h196l-188 -158h-161z" />
    <glyph glyph-name="uni0327.cap" 
d="M-91 -229q-27 0 -57.5 4.5t-50.5 11.5l34 79q34 -10 67 -10q29 0 46 7t17 18q0 18 -51 18q-30 0 -52 -5l53 121h85l-25 -52h1q47 0 72.5 -21t25.5 -59q0 -51 -45 -81.5t-120 -30.5z" />
    </font>
</defs>
</svg>
