<svg width="40" height="41" viewBox="0 0 40 41" fill="none" xmlns="http://www.w3.org/2000/svg">
<g id="Info">
<rect id="Icon Container" opacity="0.01" y="0.5" width="40" height="40" fill="#4D148C"/>
<path id="Union" fill-rule="evenodd" clip-rule="evenodd" d="M20 33.8332C12.6362 33.8332 6.66666 27.8636 6.66666 20.4998C6.66666 13.136 12.6362 7.1665 20 7.1665C27.3638 7.1665 33.3333 13.136 33.3333 20.4998C33.3333 27.8636 27.3638 33.8332 20 33.8332ZM20 32.1665C26.4433 32.1665 31.6667 26.9432 31.6667 20.4998C31.6667 14.0565 26.4433 8.83317 20 8.83317C13.5567 8.83317 8.33332 14.0565 8.33332 20.4998C8.33332 26.9432 13.5567 32.1665 20 32.1665ZM22.9167 26.3332H20.4167H17.9167C17.4564 26.3332 17.0833 25.9601 17.0833 25.4998C17.0833 25.0396 17.4564 24.6665 17.9167 24.6665H19.5833V19.2498H18.75C18.2898 19.2498 17.9167 18.8767 17.9167 18.4165C17.9167 17.9563 18.2898 17.5832 18.75 17.5832H20.4167C20.8769 17.5832 21.25 17.9563 21.25 18.4165V24.6665H22.9167C23.3769 24.6665 23.75 25.0396 23.75 25.4998C23.75 25.9601 23.3769 26.3332 22.9167 26.3332ZM18.75 14.2498C18.75 13.5623 19.3075 12.9998 20 12.9998C20.6875 12.9998 21.25 13.5623 21.25 14.2498C21.25 14.9423 20.6875 15.4998 20 15.4998C19.3075 15.4998 18.75 14.9423 18.75 14.2498Z" fill="#4D148C"/>
</g>
</svg>
